<?xml version="1.0" encoding="utf-8" standalone="no"?>
<!DOCTYPE svg PUBLIC "-//W3C//DTD SVG 1.1//EN"
  "http://www.w3.org/Graphics/SVG/1.1/DTD/svg11.dtd">
<!-- Created with matplotlib (http://matplotlib.sourceforge.net/) -->
<svg height="117pt" version="1.1" viewBox="0 0 781 117" width="781pt" xmlns="http://www.w3.org/2000/svg" xmlns:xlink="http://www.w3.org/1999/xlink">
 <defs>
  <style type="text/css">
*{stroke-linecap:square;stroke-linejoin:round;}
  </style>
 </defs>
 <g id="figure_1">
  <g id="patch_1">
   <path d="
M0 117.459
L781.2 117.459
L781.2 0
L0 0
z
" style="fill:#ffffff;"/>
  </g>
  <g id="axes_1">
   <g id="patch_2">
    <path clip-path="url(#p6a4ae4428d)" d="
M149.99 117.459
L720.266 117.459
L720.266 15.6612
L149.99 15.6612
z
" style="fill:#ffffff;"/>
   </g>
   <g id="patch_3">
    <path clip-path="url(#p6a4ae4428d)" d="
M182.801 106.888
L184.987 106.888
L184.987 95.1416
L182.801 95.1416
z
" style="fill:#4daf4a;"/>
   </g>
   <g id="patch_4">
    <path clip-path="url(#p6a4ae4428d)" d="
M184.987 105.321
L188.501 105.321
L188.501 93.5755
L184.987 93.5755
z
" style="fill:#40cf40;"/>
   </g>
   <g id="patch_5">
    <path clip-path="url(#p6a4ae4428d)" d="
M188.501 106.888
L188.729 106.888
L188.729 95.1416
L188.501 95.1416
z
" style="fill:#4daf4a;"/>
   </g>
   <g id="patch_6">
    <path clip-path="url(#p6a4ae4428d)" d="
M188.729 105.321
L189.972 105.321
L189.972 93.5755
L188.729 93.5755
z
" style="fill:#40cf40;"/>
   </g>
   <g id="patch_7">
    <path clip-path="url(#p6a4ae4428d)" d="
M189.972 106.888
L191.722 106.888
L191.722 95.1416
L189.972 95.1416
z
" style="fill:#4daf4a;"/>
   </g>
   <g id="patch_8">
    <path clip-path="url(#p6a4ae4428d)" d="
M191.722 105.321
L194.013 105.321
L194.013 93.5755
L191.722 93.5755
z
" style="fill:#40cf40;"/>
   </g>
   <g id="patch_9">
    <path clip-path="url(#p6a4ae4428d)" d="
M194.013 106.888
L194.22 106.888
L194.22 95.1416
L194.013 95.1416
z
" style="fill:#4daf4a;"/>
   </g>
   <g id="patch_10">
    <path clip-path="url(#p6a4ae4428d)" d="
M194.22 105.321
L194.577 105.321
L194.577 93.5755
L194.22 93.5755
z
" style="fill:#40cf40;"/>
   </g>
   <g id="patch_11">
    <path clip-path="url(#p6a4ae4428d)" d="
M194.577 106.888
L194.997 106.888
L194.997 95.1416
L194.577 95.1416
z
" style="fill:#4daf4a;"/>
   </g>
   <g id="patch_12">
    <path clip-path="url(#p6a4ae4428d)" d="
M194.997 105.321
L196.945 105.321
L196.945 93.5755
L194.997 93.5755
z
" style="fill:#40cf40;"/>
   </g>
   <g id="patch_13">
    <path clip-path="url(#p6a4ae4428d)" d="
M196.945 106.888
L197.025 106.888
L197.025 95.1416
L196.945 95.1416
z
" style="fill:#4daf4a;"/>
   </g>
   <g id="patch_14">
    <path clip-path="url(#p6a4ae4428d)" d="
M197.025 105.321
L198.234 105.321
L198.234 93.5755
L197.025 93.5755
z
" style="fill:#40cf40;"/>
   </g>
   <g id="patch_15">
    <path clip-path="url(#p6a4ae4428d)" d="
M198.234 106.888
L201.618 106.888
L201.618 95.1416
L198.234 95.1416
z
" style="fill:#4daf4a;"/>
   </g>
   <g id="patch_16">
    <path clip-path="url(#p6a4ae4428d)" d="
M201.618 105.321
L202.143 105.321
L202.143 93.5755
L201.618 93.5755
z
" style="fill:#40cf40;"/>
   </g>
   <g id="patch_17">
    <path clip-path="url(#p6a4ae4428d)" d="
M202.143 106.888
L203.244 106.888
L203.244 95.1416
L202.143 95.1416
z
" style="fill:#4daf4a;"/>
   </g>
   <g id="patch_18">
    <path clip-path="url(#p6a4ae4428d)" d="
M203.244 105.321
L203.374 105.321
L203.374 93.5755
L203.244 93.5755
z
" style="fill:#40cf40;"/>
   </g>
   <g id="patch_19">
    <path clip-path="url(#p6a4ae4428d)" d="
M203.374 106.888
L203.963 106.888
L203.963 95.1416
L203.374 95.1416
z
" style="fill:#4daf4a;"/>
   </g>
   <g id="patch_20">
    <path clip-path="url(#p6a4ae4428d)" d="
M203.963 105.321
L205.662 105.321
L205.662 93.5755
L203.963 93.5755
z
" style="fill:#40cf40;"/>
   </g>
   <g id="patch_21">
    <path clip-path="url(#p6a4ae4428d)" d="
M205.662 106.888
L207.669 106.888
L207.669 95.1416
L205.662 95.1416
z
" style="fill:#4daf4a;"/>
   </g>
   <g id="patch_22">
    <path clip-path="url(#p6a4ae4428d)" d="
M207.669 105.321
L207.873 105.321
L207.873 93.5755
L207.669 93.5755
z
" style="fill:#40cf40;"/>
   </g>
   <g id="patch_23">
    <path clip-path="url(#p6a4ae4428d)" d="
M207.873 106.888
L209.005 106.888
L209.005 95.1416
L207.873 95.1416
z
" style="fill:#4daf4a;"/>
   </g>
   <g id="patch_24">
    <path clip-path="url(#p6a4ae4428d)" d="
M209.005 105.321
L210.232 105.321
L210.232 93.5755
L209.005 93.5755
z
" style="fill:#40cf40;"/>
   </g>
   <g id="patch_25">
    <path clip-path="url(#p6a4ae4428d)" d="
M210.232 106.888
L210.458 106.888
L210.458 95.1416
L210.232 95.1416
z
" style="fill:#4daf4a;"/>
   </g>
   <g id="patch_26">
    <path clip-path="url(#p6a4ae4428d)" d="
M210.458 105.321
L211.45 105.321
L211.45 93.5755
L210.458 93.5755
z
" style="fill:#40cf40;"/>
   </g>
   <g id="patch_27">
    <path clip-path="url(#p6a4ae4428d)" d="
M211.45 106.888
L212.845 106.888
L212.845 95.1416
L211.45 95.1416
z
" style="fill:#4daf4a;"/>
   </g>
   <g id="patch_28">
    <path clip-path="url(#p6a4ae4428d)" d="
M212.845 105.321
L217.386 105.321
L217.386 93.5755
L212.845 93.5755
z
" style="fill:#40cf40;"/>
   </g>
   <g id="patch_29">
    <path clip-path="url(#p6a4ae4428d)" d="
M217.386 106.888
L219.917 106.888
L219.917 95.1416
L217.386 95.1416
z
" style="fill:#4daf4a;"/>
   </g>
   <g id="patch_30">
    <path clip-path="url(#p6a4ae4428d)" d="
M219.936 105.321
L220.164 105.321
L220.164 93.5755
L219.936 93.5755
z
" style="fill:#40cf40;"/>
   </g>
   <g id="patch_31">
    <path clip-path="url(#p6a4ae4428d)" d="
M220.164 106.888
L221.95 106.888
L221.95 95.1416
L220.164 95.1416
z
" style="fill:#4daf4a;"/>
   </g>
   <g id="patch_32">
    <path clip-path="url(#p6a4ae4428d)" d="
M221.95 105.321
L224.95 105.321
L224.95 93.5755
L221.95 93.5755
z
" style="fill:#40cf40;"/>
   </g>
   <g id="patch_33">
    <path clip-path="url(#p6a4ae4428d)" d="
M224.95 106.888
L225.304 106.888
L225.304 95.1416
L224.95 95.1416
z
" style="fill:#4daf4a;"/>
   </g>
   <g id="patch_34">
    <path clip-path="url(#p6a4ae4428d)" d="
M225.305 105.321
L227.14 105.321
L227.14 93.5755
L225.305 93.5755
z
" style="fill:#40cf40;"/>
   </g>
   <g id="patch_35">
    <path clip-path="url(#p6a4ae4428d)" d="
M227.144 106.888
L229.331 106.888
L229.331 95.1416
L227.144 95.1416
z
" style="fill:#4daf4a;"/>
   </g>
   <g id="patch_36">
    <path clip-path="url(#p6a4ae4428d)" d="
M229.332 105.321
L229.575 105.321
L229.575 93.5755
L229.332 93.5755
z
" style="fill:#40cf40;"/>
   </g>
   <g id="patch_37">
    <path clip-path="url(#p6a4ae4428d)" d="
M229.575 106.888
L230.002 106.888
L230.002 95.1416
L229.575 95.1416
z
" style="fill:#4daf4a;"/>
   </g>
   <g id="patch_38">
    <path clip-path="url(#p6a4ae4428d)" d="
M230.002 105.321
L230.132 105.321
L230.132 93.5755
L230.002 93.5755
z
" style="fill:#40cf40;"/>
   </g>
   <g id="patch_39">
    <path clip-path="url(#p6a4ae4428d)" d="
M230.133 106.888
L231.247 106.888
L231.247 95.1416
L230.133 95.1416
z
" style="fill:#4daf4a;"/>
   </g>
   <g id="patch_40">
    <path clip-path="url(#p6a4ae4428d)" d="
M231.247 105.321
L234.359 105.321
L234.359 93.5755
L231.247 93.5755
z
" style="fill:#40cf40;"/>
   </g>
   <g id="patch_41">
    <path clip-path="url(#p6a4ae4428d)" d="
M234.38 106.888
L235.535 106.888
L235.535 95.1416
L234.38 95.1416
z
" style="fill:#4daf4a;"/>
   </g>
   <g id="patch_42">
    <path clip-path="url(#p6a4ae4428d)" d="
M235.535 105.321
L238.077 105.321
L238.077 93.5755
L235.535 93.5755
z
" style="fill:#40cf40;"/>
   </g>
   <g id="patch_43">
    <path clip-path="url(#p6a4ae4428d)" d="
M238.077 106.888
L238.139 106.888
L238.139 95.1416
L238.077 95.1416
z
" style="fill:#4daf4a;"/>
   </g>
   <g id="patch_44">
    <path clip-path="url(#p6a4ae4428d)" d="
M238.139 105.321
L245.312 105.321
L245.312 93.5755
L238.139 93.5755
z
" style="fill:#40cf40;"/>
   </g>
   <g id="patch_45">
    <path clip-path="url(#p6a4ae4428d)" d="
M245.312 106.888
L248.278 106.888
L248.278 95.1416
L245.312 95.1416
z
" style="fill:#4daf4a;"/>
   </g>
   <g id="patch_46">
    <path clip-path="url(#p6a4ae4428d)" d="
M248.278 105.321
L249.282 105.321
L249.282 93.5755
L248.278 93.5755
z
" style="fill:#40cf40;"/>
   </g>
   <g id="patch_47">
    <path clip-path="url(#p6a4ae4428d)" d="
M249.282 106.888
L249.941 106.888
L249.941 95.1416
L249.282 95.1416
z
" style="fill:#4daf4a;"/>
   </g>
   <g id="patch_48">
    <path clip-path="url(#p6a4ae4428d)" d="
M249.942 105.321
L251.644 105.321
L251.644 93.5755
L249.942 93.5755
z
" style="fill:#40cf40;"/>
   </g>
   <g id="patch_49">
    <path clip-path="url(#p6a4ae4428d)" d="
M251.644 106.888
L253.872 106.888
L253.872 95.1416
L251.644 95.1416
z
" style="fill:#4daf4a;"/>
   </g>
   <g id="patch_50">
    <path clip-path="url(#p6a4ae4428d)" d="
M253.872 105.321
L253.936 105.321
L253.936 93.5755
L253.872 93.5755
z
" style="fill:#40cf40;"/>
   </g>
   <g id="patch_51">
    <path clip-path="url(#p6a4ae4428d)" d="
M253.936 106.888
L256.235 106.888
L256.235 95.1416
L253.936 95.1416
z
" style="fill:#4daf4a;"/>
   </g>
   <g id="patch_52">
    <path clip-path="url(#p6a4ae4428d)" d="
M256.235 105.321
L256.683 105.321
L256.683 93.5755
L256.235 93.5755
z
" style="fill:#40cf40;"/>
   </g>
   <g id="patch_53">
    <path clip-path="url(#p6a4ae4428d)" d="
M256.684 106.888
L258.589 106.888
L258.589 95.1416
L256.684 95.1416
z
" style="fill:#4daf4a;"/>
   </g>
   <g id="patch_54">
    <path clip-path="url(#p6a4ae4428d)" d="
M258.589 105.321
L262.217 105.321
L262.217 93.5755
L258.589 93.5755
z
" style="fill:#40cf40;"/>
   </g>
   <g id="patch_55">
    <path clip-path="url(#p6a4ae4428d)" d="
M262.217 106.888
L263.746 106.888
L263.746 95.1416
L262.217 95.1416
z
" style="fill:#4daf4a;"/>
   </g>
   <g id="patch_56">
    <path clip-path="url(#p6a4ae4428d)" d="
M263.747 105.321
L264.796 105.321
L264.796 93.5755
L263.747 93.5755
z
" style="fill:#40cf40;"/>
   </g>
   <g id="patch_57">
    <path clip-path="url(#p6a4ae4428d)" d="
M264.796 106.888
L265.471 106.888
L265.471 95.1416
L264.796 95.1416
z
" style="fill:#4daf4a;"/>
   </g>
   <g id="patch_58">
    <path clip-path="url(#p6a4ae4428d)" d="
M265.471 105.321
L269.598 105.321
L269.598 93.5755
L265.471 93.5755
z
" style="fill:#40cf40;"/>
   </g>
   <g id="patch_59">
    <path clip-path="url(#p6a4ae4428d)" d="
M269.598 106.888
L273.367 106.888
L273.367 95.1416
L269.598 95.1416
z
" style="fill:#4daf4a;"/>
   </g>
   <g id="patch_60">
    <path clip-path="url(#p6a4ae4428d)" d="
M273.367 105.321
L274.385 105.321
L274.385 93.5755
L273.367 93.5755
z
" style="fill:#40cf40;"/>
   </g>
   <g id="patch_61">
    <path clip-path="url(#p6a4ae4428d)" d="
M274.385 106.888
L275.325 106.888
L275.325 95.1416
L274.385 95.1416
z
" style="fill:#4daf4a;"/>
   </g>
   <g id="patch_62">
    <path clip-path="url(#p6a4ae4428d)" d="
M275.325 105.321
L275.595 105.321
L275.595 93.5755
L275.325 93.5755
z
" style="fill:#40cf40;"/>
   </g>
   <g id="patch_63">
    <path clip-path="url(#p6a4ae4428d)" d="
M275.595 106.888
L277.118 106.888
L277.118 95.1416
L275.595 95.1416
z
" style="fill:#4daf4a;"/>
   </g>
   <g id="patch_64">
    <path clip-path="url(#p6a4ae4428d)" d="
M277.118 105.321
L277.351 105.321
L277.351 93.5755
L277.118 93.5755
z
" style="fill:#40cf40;"/>
   </g>
   <g id="patch_65">
    <path clip-path="url(#p6a4ae4428d)" d="
M277.351 106.888
L277.491 106.888
L277.491 95.1416
L277.351 95.1416
z
" style="fill:#4daf4a;"/>
   </g>
   <g id="patch_66">
    <path clip-path="url(#p6a4ae4428d)" d="
M277.494 105.321
L278.928 105.321
L278.928 93.5755
L277.494 93.5755
z
" style="fill:#40cf40;"/>
   </g>
   <g id="patch_67">
    <path clip-path="url(#p6a4ae4428d)" d="
M278.928 106.888
L279.703 106.888
L279.703 95.1416
L278.928 95.1416
z
" style="fill:#4daf4a;"/>
   </g>
   <g id="patch_68">
    <path clip-path="url(#p6a4ae4428d)" d="
M279.703 105.321
L280.108 105.321
L280.108 93.5755
L279.703 93.5755
z
" style="fill:#40cf40;"/>
   </g>
   <g id="patch_69">
    <path clip-path="url(#p6a4ae4428d)" d="
M280.108 106.888
L280.187 106.888
L280.187 95.1416
L280.108 95.1416
z
" style="fill:#4daf4a;"/>
   </g>
   <g id="patch_70">
    <path clip-path="url(#p6a4ae4428d)" d="
M280.187 105.321
L282.968 105.321
L282.968 93.5755
L280.187 93.5755
z
" style="fill:#40cf40;"/>
   </g>
   <g id="patch_71">
    <path clip-path="url(#p6a4ae4428d)" d="
M282.968 106.888
L283.352 106.888
L283.352 95.1416
L282.968 95.1416
z
" style="fill:#4daf4a;"/>
   </g>
   <g id="patch_72">
    <path clip-path="url(#p6a4ae4428d)" d="
M283.352 105.321
L283.612 105.321
L283.612 93.5755
L283.352 93.5755
z
" style="fill:#40cf40;"/>
   </g>
   <g id="patch_73">
    <path clip-path="url(#p6a4ae4428d)" d="
M283.612 106.888
L284.056 106.888
L284.056 95.1416
L283.612 95.1416
z
" style="fill:#4daf4a;"/>
   </g>
   <g id="patch_74">
    <path clip-path="url(#p6a4ae4428d)" d="
M284.057 105.321
L285.812 105.321
L285.812 93.5755
L284.057 93.5755
z
" style="fill:#40cf40;"/>
   </g>
   <g id="patch_75">
    <path clip-path="url(#p6a4ae4428d)" d="
M285.812 106.888
L285.998 106.888
L285.998 95.1416
L285.812 95.1416
z
" style="fill:#4daf4a;"/>
   </g>
   <g id="patch_76">
    <path clip-path="url(#p6a4ae4428d)" d="
M285.998 105.321
L287.105 105.321
L287.105 93.5755
L285.998 93.5755
z
" style="fill:#40cf40;"/>
   </g>
   <g id="patch_77">
    <path clip-path="url(#p6a4ae4428d)" d="
M287.105 106.888
L291.159 106.888
L291.159 95.1416
L287.105 95.1416
z
" style="fill:#4daf4a;"/>
   </g>
   <g id="patch_78">
    <path clip-path="url(#p6a4ae4428d)" d="
M291.159 105.321
L294.884 105.321
L294.884 93.5755
L291.159 93.5755
z
" style="fill:#40cf40;"/>
   </g>
   <g id="patch_79">
    <path clip-path="url(#p6a4ae4428d)" d="
M294.884 106.888
L295.977 106.888
L295.977 95.1416
L294.884 95.1416
z
" style="fill:#4daf4a;"/>
   </g>
   <g id="patch_80">
    <path clip-path="url(#p6a4ae4428d)" d="
M295.977 105.321
L296.523 105.321
L296.523 93.5755
L295.977 93.5755
z
" style="fill:#40cf40;"/>
   </g>
   <g id="patch_81">
    <path clip-path="url(#p6a4ae4428d)" d="
M296.534 106.888
L297.117 106.888
L297.117 95.1416
L296.534 95.1416
z
" style="fill:#4daf4a;"/>
   </g>
   <g id="patch_82">
    <path clip-path="url(#p6a4ae4428d)" d="
M297.117 105.321
L298.32 105.321
L298.32 93.5755
L297.117 93.5755
z
" style="fill:#40cf40;"/>
   </g>
   <g id="patch_83">
    <path clip-path="url(#p6a4ae4428d)" d="
M298.32 106.888
L298.56 106.888
L298.56 95.1416
L298.32 95.1416
z
" style="fill:#4daf4a;"/>
   </g>
   <g id="patch_84">
    <path clip-path="url(#p6a4ae4428d)" d="
M298.561 105.321
L301.235 105.321
L301.235 93.5755
L298.561 93.5755
z
" style="fill:#40cf40;"/>
   </g>
   <g id="patch_85">
    <path clip-path="url(#p6a4ae4428d)" d="
M301.235 106.888
L303.561 106.888
L303.561 95.1416
L301.235 95.1416
z
" style="fill:#4daf4a;"/>
   </g>
   <g id="patch_86">
    <path clip-path="url(#p6a4ae4428d)" d="
M303.561 105.321
L303.721 105.321
L303.721 93.5755
L303.561 93.5755
z
" style="fill:#40cf40;"/>
   </g>
   <g id="patch_87">
    <path clip-path="url(#p6a4ae4428d)" d="
M303.721 106.888
L303.92 106.888
L303.92 95.1416
L303.721 95.1416
z
" style="fill:#4daf4a;"/>
   </g>
   <g id="patch_88">
    <path clip-path="url(#p6a4ae4428d)" d="
M303.92 105.321
L304.104 105.321
L304.104 93.5755
L303.92 93.5755
z
" style="fill:#40cf40;"/>
   </g>
   <g id="patch_89">
    <path clip-path="url(#p6a4ae4428d)" d="
M304.104 106.888
L304.915 106.888
L304.915 95.1416
L304.104 95.1416
z
" style="fill:#4daf4a;"/>
   </g>
   <g id="patch_90">
    <path clip-path="url(#p6a4ae4428d)" d="
M304.916 105.321
L305.01 105.321
L305.01 93.5755
L304.916 93.5755
z
" style="fill:#40cf40;"/>
   </g>
   <g id="patch_91">
    <path clip-path="url(#p6a4ae4428d)" d="
M305.01 106.888
L305.555 106.888
L305.555 95.1416
L305.01 95.1416
z
" style="fill:#4daf4a;"/>
   </g>
   <g id="patch_92">
    <path clip-path="url(#p6a4ae4428d)" d="
M305.555 105.321
L306.283 105.321
L306.283 93.5755
L305.555 93.5755
z
" style="fill:#40cf40;"/>
   </g>
   <g id="patch_93">
    <path clip-path="url(#p6a4ae4428d)" d="
M306.283 106.888
L307.683 106.888
L307.683 95.1416
L306.283 95.1416
z
" style="fill:#4daf4a;"/>
   </g>
   <g id="patch_94">
    <path clip-path="url(#p6a4ae4428d)" d="
M307.684 105.321
L307.985 105.321
L307.985 93.5755
L307.684 93.5755
z
" style="fill:#40cf40;"/>
   </g>
   <g id="patch_95">
    <path clip-path="url(#p6a4ae4428d)" d="
M307.985 106.888
L308.959 106.888
L308.959 95.1416
L307.985 95.1416
z
" style="fill:#4daf4a;"/>
   </g>
   <g id="patch_96">
    <path clip-path="url(#p6a4ae4428d)" d="
M308.959 105.321
L310.875 105.321
L310.875 93.5755
L308.959 93.5755
z
" style="fill:#40cf40;"/>
   </g>
   <g id="patch_97">
    <path clip-path="url(#p6a4ae4428d)" d="
M310.875 106.888
L312.898 106.888
L312.898 95.1416
L310.875 95.1416
z
" style="fill:#4daf4a;"/>
   </g>
   <g id="patch_98">
    <path clip-path="url(#p6a4ae4428d)" d="
M312.898 105.321
L313.426 105.321
L313.426 93.5755
L312.898 93.5755
z
" style="fill:#40cf40;"/>
   </g>
   <g id="patch_99">
    <path clip-path="url(#p6a4ae4428d)" d="
M313.426 106.888
L314.014 106.888
L314.014 95.1416
L313.426 95.1416
z
" style="fill:#4daf4a;"/>
   </g>
   <g id="patch_100">
    <path clip-path="url(#p6a4ae4428d)" d="
M314.015 105.321
L314.906 105.321
L314.906 93.5755
L314.015 93.5755
z
" style="fill:#40cf40;"/>
   </g>
   <g id="patch_101">
    <path clip-path="url(#p6a4ae4428d)" d="
M314.906 106.888
L315.149 106.888
L315.149 95.1416
L314.906 95.1416
z
" style="fill:#4daf4a;"/>
   </g>
   <g id="patch_102">
    <path clip-path="url(#p6a4ae4428d)" d="
M315.149 105.321
L315.565 105.321
L315.565 93.5755
L315.149 93.5755
z
" style="fill:#40cf40;"/>
   </g>
   <g id="patch_103">
    <path clip-path="url(#p6a4ae4428d)" d="
M315.565 106.888
L316.022 106.888
L316.022 95.1416
L315.565 95.1416
z
" style="fill:#4daf4a;"/>
   </g>
   <g id="patch_104">
    <path clip-path="url(#p6a4ae4428d)" d="
M316.022 105.321
L318.279 105.321
L318.279 93.5755
L316.022 93.5755
z
" style="fill:#40cf40;"/>
   </g>
   <g id="patch_105">
    <path clip-path="url(#p6a4ae4428d)" d="
M318.28 106.888
L318.767 106.888
L318.767 95.1416
L318.28 95.1416
z
" style="fill:#4daf4a;"/>
   </g>
   <g id="patch_106">
    <path clip-path="url(#p6a4ae4428d)" d="
M318.767 105.321
L319.747 105.321
L319.747 93.5755
L318.767 93.5755
z
" style="fill:#40cf40;"/>
   </g>
   <g id="patch_107">
    <path clip-path="url(#p6a4ae4428d)" d="
M319.747 106.888
L320.759 106.888
L320.759 95.1416
L319.747 95.1416
z
" style="fill:#4daf4a;"/>
   </g>
   <g id="patch_108">
    <path clip-path="url(#p6a4ae4428d)" d="
M320.76 105.321
L321.083 105.321
L321.083 93.5755
L320.76 93.5755
z
" style="fill:#40cf40;"/>
   </g>
   <g id="patch_109">
    <path clip-path="url(#p6a4ae4428d)" d="
M321.084 106.888
L322.899 106.888
L322.899 95.1416
L321.084 95.1416
z
" style="fill:#4daf4a;"/>
   </g>
   <g id="patch_110">
    <path clip-path="url(#p6a4ae4428d)" d="
M322.899 105.321
L325.067 105.321
L325.067 93.5755
L322.899 93.5755
z
" style="fill:#40cf40;"/>
   </g>
   <g id="patch_111">
    <path clip-path="url(#p6a4ae4428d)" d="
M325.067 106.888
L327.773 106.888
L327.773 95.1416
L325.067 95.1416
z
" style="fill:#4daf4a;"/>
   </g>
   <g id="patch_112">
    <path clip-path="url(#p6a4ae4428d)" d="
M327.774 105.321
L329.283 105.321
L329.283 93.5755
L327.774 93.5755
z
" style="fill:#40cf40;"/>
   </g>
   <g id="patch_113">
    <path clip-path="url(#p6a4ae4428d)" d="
M329.283 106.888
L330.227 106.888
L330.227 95.1416
L329.283 95.1416
z
" style="fill:#4daf4a;"/>
   </g>
   <g id="patch_114">
    <path clip-path="url(#p6a4ae4428d)" d="
M330.227 105.321
L331.363 105.321
L331.363 93.5755
L330.227 93.5755
z
" style="fill:#40cf40;"/>
   </g>
   <g id="patch_115">
    <path clip-path="url(#p6a4ae4428d)" d="
M331.363 106.888
L333.286 106.888
L333.286 95.1416
L331.363 95.1416
z
" style="fill:#4daf4a;"/>
   </g>
   <g id="patch_116">
    <path clip-path="url(#p6a4ae4428d)" d="
M333.286 105.321
L333.952 105.321
L333.952 93.5755
L333.286 93.5755
z
" style="fill:#40cf40;"/>
   </g>
   <g id="patch_117">
    <path clip-path="url(#p6a4ae4428d)" d="
M333.952 106.888
L336.732 106.888
L336.732 95.1416
L333.952 95.1416
z
" style="fill:#4daf4a;"/>
   </g>
   <g id="patch_118">
    <path clip-path="url(#p6a4ae4428d)" d="
M336.732 105.321
L340.632 105.321
L340.632 93.5755
L336.732 93.5755
z
" style="fill:#40cf40;"/>
   </g>
   <g id="patch_119">
    <path clip-path="url(#p6a4ae4428d)" d="
M340.632 106.888
L344.644 106.888
L344.644 95.1416
L340.632 95.1416
z
" style="fill:#4daf4a;"/>
   </g>
   <g id="patch_120">
    <path clip-path="url(#p6a4ae4428d)" d="
M344.644 105.321
L347.033 105.321
L347.033 93.5755
L344.644 93.5755
z
" style="fill:#40cf40;"/>
   </g>
   <g id="patch_121">
    <path clip-path="url(#p6a4ae4428d)" d="
M347.033 106.888
L348.541 106.888
L348.541 95.1416
L347.033 95.1416
z
" style="fill:#4daf4a;"/>
   </g>
   <g id="patch_122">
    <path clip-path="url(#p6a4ae4428d)" d="
M348.541 105.321
L348.964 105.321
L348.964 93.5755
L348.541 93.5755
z
" style="fill:#40cf40;"/>
   </g>
   <g id="patch_123">
    <path clip-path="url(#p6a4ae4428d)" d="
M348.964 106.888
L349.34 106.888
L349.34 95.1416
L348.964 95.1416
z
" style="fill:#4daf4a;"/>
   </g>
   <g id="patch_124">
    <path clip-path="url(#p6a4ae4428d)" d="
M349.34 105.321
L351.098 105.321
L351.098 93.5755
L349.34 93.5755
z
" style="fill:#40cf40;"/>
   </g>
   <g id="patch_125">
    <path clip-path="url(#p6a4ae4428d)" d="
M351.098 106.888
L351.267 106.888
L351.267 95.1416
L351.098 95.1416
z
" style="fill:#4daf4a;"/>
   </g>
   <g id="patch_126">
    <path clip-path="url(#p6a4ae4428d)" d="
M351.267 105.321
L354.448 105.321
L354.448 93.5755
L351.267 93.5755
z
" style="fill:#40cf40;"/>
   </g>
   <g id="patch_127">
    <path clip-path="url(#p6a4ae4428d)" d="
M354.448 106.888
L354.503 106.888
L354.503 95.1416
L354.448 95.1416
z
" style="fill:#4daf4a;"/>
   </g>
   <g id="patch_128">
    <path clip-path="url(#p6a4ae4428d)" d="
M354.504 105.321
L354.826 105.321
L354.826 93.5755
L354.504 93.5755
z
" style="fill:#40cf40;"/>
   </g>
   <g id="patch_129">
    <path clip-path="url(#p6a4ae4428d)" d="
M354.827 106.888
L355.735 106.888
L355.735 95.1416
L354.827 95.1416
z
" style="fill:#4daf4a;"/>
   </g>
   <g id="patch_130">
    <path clip-path="url(#p6a4ae4428d)" d="
M355.735 105.321
L356.112 105.321
L356.112 93.5755
L355.735 93.5755
z
" style="fill:#40cf40;"/>
   </g>
   <g id="patch_131">
    <path clip-path="url(#p6a4ae4428d)" d="
M356.112 106.888
L356.515 106.888
L356.515 95.1416
L356.112 95.1416
z
" style="fill:#4daf4a;"/>
   </g>
   <g id="patch_132">
    <path clip-path="url(#p6a4ae4428d)" d="
M356.516 105.321
L358.1 105.321
L358.1 93.5755
L356.516 93.5755
z
" style="fill:#40cf40;"/>
   </g>
   <g id="patch_133">
    <path clip-path="url(#p6a4ae4428d)" d="
M358.1 106.888
L358.395 106.888
L358.395 95.1416
L358.1 95.1416
z
" style="fill:#4daf4a;"/>
   </g>
   <g id="patch_134">
    <path clip-path="url(#p6a4ae4428d)" d="
M358.396 105.321
L358.505 105.321
L358.505 93.5755
L358.396 93.5755
z
" style="fill:#40cf40;"/>
   </g>
   <g id="patch_135">
    <path clip-path="url(#p6a4ae4428d)" d="
M358.505 106.888
L358.92 106.888
L358.92 95.1416
L358.505 95.1416
z
" style="fill:#4daf4a;"/>
   </g>
   <g id="patch_136">
    <path clip-path="url(#p6a4ae4428d)" d="
M358.92 105.321
L360.645 105.321
L360.645 93.5755
L358.92 93.5755
z
" style="fill:#40cf40;"/>
   </g>
   <g id="patch_137">
    <path clip-path="url(#p6a4ae4428d)" d="
M360.645 106.888
L364.297 106.888
L364.297 95.1416
L360.645 95.1416
z
" style="fill:#4daf4a;"/>
   </g>
   <g id="patch_138">
    <path clip-path="url(#p6a4ae4428d)" d="
M364.297 105.321
L364.772 105.321
L364.772 93.5755
L364.297 93.5755
z
" style="fill:#40cf40;"/>
   </g>
   <g id="patch_139">
    <path clip-path="url(#p6a4ae4428d)" d="
M364.772 106.888
L367.786 106.888
L367.786 95.1416
L364.772 95.1416
z
" style="fill:#4daf4a;"/>
   </g>
   <g id="patch_140">
    <path clip-path="url(#p6a4ae4428d)" d="
M367.786 105.321
L369.281 105.321
L369.281 93.5755
L367.786 93.5755
z
" style="fill:#40cf40;"/>
   </g>
   <g id="patch_141">
    <path clip-path="url(#p6a4ae4428d)" d="
M369.281 106.888
L370.12 106.888
L370.12 95.1416
L369.281 95.1416
z
" style="fill:#4daf4a;"/>
   </g>
   <g id="patch_142">
    <path clip-path="url(#p6a4ae4428d)" d="
M370.12 105.321
L371.031 105.321
L371.031 93.5755
L370.12 93.5755
z
" style="fill:#40cf40;"/>
   </g>
   <g id="patch_143">
    <path clip-path="url(#p6a4ae4428d)" d="
M371.031 106.888
L373.634 106.888
L373.634 95.1416
L371.031 95.1416
z
" style="fill:#4daf4a;"/>
   </g>
   <g id="patch_144">
    <path clip-path="url(#p6a4ae4428d)" d="
M373.634 105.321
L375.932 105.321
L375.932 93.5755
L373.634 93.5755
z
" style="fill:#40cf40;"/>
   </g>
   <g id="patch_145">
    <path clip-path="url(#p6a4ae4428d)" d="
M375.932 106.888
L376.068 106.888
L376.068 95.1416
L375.932 95.1416
z
" style="fill:#4daf4a;"/>
   </g>
   <g id="patch_146">
    <path clip-path="url(#p6a4ae4428d)" d="
M376.068 105.321
L377.022 105.321
L377.022 93.5755
L376.068 93.5755
z
" style="fill:#40cf40;"/>
   </g>
   <g id="patch_147">
    <path clip-path="url(#p6a4ae4428d)" d="
M377.022 106.888
L378.264 106.888
L378.264 95.1416
L377.022 95.1416
z
" style="fill:#4daf4a;"/>
   </g>
   <g id="patch_148">
    <path clip-path="url(#p6a4ae4428d)" d="
M378.264 105.321
L378.986 105.321
L378.986 93.5755
L378.264 93.5755
z
" style="fill:#40cf40;"/>
   </g>
   <g id="patch_149">
    <path clip-path="url(#p6a4ae4428d)" d="
M378.986 106.888
L380.18 106.888
L380.18 95.1416
L378.986 95.1416
z
" style="fill:#4daf4a;"/>
   </g>
   <g id="patch_150">
    <path clip-path="url(#p6a4ae4428d)" d="
M380.18 105.321
L381.328 105.321
L381.328 93.5755
L380.18 93.5755
z
" style="fill:#40cf40;"/>
   </g>
   <g id="patch_151">
    <path clip-path="url(#p6a4ae4428d)" d="
M381.343 106.888
L381.472 106.888
L381.472 95.1416
L381.343 95.1416
z
" style="fill:#4daf4a;"/>
   </g>
   <g id="patch_152">
    <path clip-path="url(#p6a4ae4428d)" d="
M381.472 105.321
L382.25 105.321
L382.25 93.5755
L381.472 93.5755
z
" style="fill:#40cf40;"/>
   </g>
   <g id="patch_153">
    <path clip-path="url(#p6a4ae4428d)" d="
M382.25 106.888
L383.087 106.888
L383.087 95.1416
L382.25 95.1416
z
" style="fill:#4daf4a;"/>
   </g>
   <g id="patch_154">
    <path clip-path="url(#p6a4ae4428d)" d="
M383.087 105.321
L383.389 105.321
L383.389 93.5755
L383.087 93.5755
z
" style="fill:#40cf40;"/>
   </g>
   <g id="patch_155">
    <path clip-path="url(#p6a4ae4428d)" d="
M383.389 106.888
L386.066 106.888
L386.066 95.1416
L383.389 95.1416
z
" style="fill:#4daf4a;"/>
   </g>
   <g id="patch_156">
    <path clip-path="url(#p6a4ae4428d)" d="
M386.067 105.321
L386.311 105.321
L386.311 93.5755
L386.067 93.5755
z
" style="fill:#40cf40;"/>
   </g>
   <g id="patch_157">
    <path clip-path="url(#p6a4ae4428d)" d="
M386.311 106.888
L386.581 106.888
L386.581 95.1416
L386.311 95.1416
z
" style="fill:#4daf4a;"/>
   </g>
   <g id="patch_158">
    <path clip-path="url(#p6a4ae4428d)" d="
M386.602 105.321
L387.079 105.321
L387.079 93.5755
L386.602 93.5755
z
" style="fill:#40cf40;"/>
   </g>
   <g id="patch_159">
    <path clip-path="url(#p6a4ae4428d)" d="
M387.079 106.888
L388.774 106.888
L388.774 95.1416
L387.079 95.1416
z
" style="fill:#4daf4a;"/>
   </g>
   <g id="patch_160">
    <path clip-path="url(#p6a4ae4428d)" d="
M388.775 105.321
L389.718 105.321
L389.718 93.5755
L388.775 93.5755
z
" style="fill:#40cf40;"/>
   </g>
   <g id="patch_161">
    <path clip-path="url(#p6a4ae4428d)" d="
M389.718 106.888
L393.963 106.888
L393.963 95.1416
L389.718 95.1416
z
" style="fill:#4daf4a;"/>
   </g>
   <g id="patch_162">
    <path clip-path="url(#p6a4ae4428d)" d="
M393.963 105.321
L394.048 105.321
L394.048 93.5755
L393.963 93.5755
z
" style="fill:#40cf40;"/>
   </g>
   <g id="patch_163">
    <path clip-path="url(#p6a4ae4428d)" d="
M394.048 106.888
L394.628 106.888
L394.628 95.1416
L394.048 95.1416
z
" style="fill:#4daf4a;"/>
   </g>
   <g id="patch_164">
    <path clip-path="url(#p6a4ae4428d)" d="
M394.628 105.321
L396.251 105.321
L396.251 93.5755
L394.628 93.5755
z
" style="fill:#40cf40;"/>
   </g>
   <g id="patch_165">
    <path clip-path="url(#p6a4ae4428d)" d="
M396.251 106.888
L402.03 106.888
L402.03 95.1416
L396.251 95.1416
z
" style="fill:#4daf4a;"/>
   </g>
   <g id="patch_166">
    <path clip-path="url(#p6a4ae4428d)" d="
M402.03 105.321
L402.947 105.321
L402.947 93.5755
L402.03 93.5755
z
" style="fill:#40cf40;"/>
   </g>
   <g id="patch_167">
    <path clip-path="url(#p6a4ae4428d)" d="
M402.947 106.888
L404.453 106.888
L404.453 95.1416
L402.947 95.1416
z
" style="fill:#4daf4a;"/>
   </g>
   <g id="patch_168">
    <path clip-path="url(#p6a4ae4428d)" d="
M404.453 105.321
L404.811 105.321
L404.811 93.5755
L404.453 93.5755
z
" style="fill:#40cf40;"/>
   </g>
   <g id="patch_169">
    <path clip-path="url(#p6a4ae4428d)" d="
M404.812 106.888
L406.197 106.888
L406.197 95.1416
L404.812 95.1416
z
" style="fill:#4daf4a;"/>
   </g>
   <g id="patch_170">
    <path clip-path="url(#p6a4ae4428d)" d="
M406.197 105.321
L406.761 105.321
L406.761 93.5755
L406.197 93.5755
z
" style="fill:#40cf40;"/>
   </g>
   <g id="patch_171">
    <path clip-path="url(#p6a4ae4428d)" d="
M406.761 106.888
L409.694 106.888
L409.694 95.1416
L406.761 95.1416
z
" style="fill:#4daf4a;"/>
   </g>
   <g id="patch_172">
    <path clip-path="url(#p6a4ae4428d)" d="
M409.694 105.321
L410.64 105.321
L410.64 93.5755
L409.694 93.5755
z
" style="fill:#40cf40;"/>
   </g>
   <g id="patch_173">
    <path clip-path="url(#p6a4ae4428d)" d="
M410.64 106.888
L415.422 106.888
L415.422 95.1416
L410.64 95.1416
z
" style="fill:#4daf4a;"/>
   </g>
   <g id="patch_174">
    <path clip-path="url(#p6a4ae4428d)" d="
M415.423 105.321
L415.805 105.321
L415.805 93.5755
L415.423 93.5755
z
" style="fill:#40cf40;"/>
   </g>
   <g id="patch_175">
    <path clip-path="url(#p6a4ae4428d)" d="
M415.805 106.888
L415.909 106.888
L415.909 95.1416
L415.805 95.1416
z
" style="fill:#4daf4a;"/>
   </g>
   <g id="patch_176">
    <path clip-path="url(#p6a4ae4428d)" d="
M415.909 105.321
L417.202 105.321
L417.202 93.5755
L415.909 93.5755
z
" style="fill:#40cf40;"/>
   </g>
   <g id="patch_177">
    <path clip-path="url(#p6a4ae4428d)" d="
M417.202 106.888
L419.03 106.888
L419.03 95.1416
L417.202 95.1416
z
" style="fill:#4daf4a;"/>
   </g>
   <g id="patch_178">
    <path clip-path="url(#p6a4ae4428d)" d="
M419.03 105.321
L419.229 105.321
L419.229 93.5755
L419.03 93.5755
z
" style="fill:#40cf40;"/>
   </g>
   <g id="patch_179">
    <path clip-path="url(#p6a4ae4428d)" d="
M419.229 106.888
L420.222 106.888
L420.222 95.1416
L419.229 95.1416
z
" style="fill:#4daf4a;"/>
   </g>
   <g id="patch_180">
    <path clip-path="url(#p6a4ae4428d)" d="
M420.222 105.321
L421.462 105.321
L421.462 93.5755
L420.222 93.5755
z
" style="fill:#40cf40;"/>
   </g>
   <g id="patch_181">
    <path clip-path="url(#p6a4ae4428d)" d="
M421.462 106.888
L422.553 106.888
L422.553 95.1416
L421.462 95.1416
z
" style="fill:#4daf4a;"/>
   </g>
   <g id="patch_182">
    <path clip-path="url(#p6a4ae4428d)" d="
M422.553 105.321
L422.619 105.321
L422.619 93.5755
L422.553 93.5755
z
" style="fill:#40cf40;"/>
   </g>
   <g id="patch_183">
    <path clip-path="url(#p6a4ae4428d)" d="
M422.619 106.888
L422.688 106.888
L422.688 95.1416
L422.619 95.1416
z
" style="fill:#4daf4a;"/>
   </g>
   <g id="patch_184">
    <path clip-path="url(#p6a4ae4428d)" d="
M422.688 105.321
L424.013 105.321
L424.013 93.5755
L422.688 93.5755
z
" style="fill:#40cf40;"/>
   </g>
   <g id="patch_185">
    <path clip-path="url(#p6a4ae4428d)" d="
M424.013 106.888
L424.079 106.888
L424.079 95.1416
L424.013 95.1416
z
" style="fill:#4daf4a;"/>
   </g>
   <g id="patch_186">
    <path clip-path="url(#p6a4ae4428d)" d="
M424.079 105.321
L424.225 105.321
L424.225 93.5755
L424.079 93.5755
z
" style="fill:#40cf40;"/>
   </g>
   <g id="patch_187">
    <path clip-path="url(#p6a4ae4428d)" d="
M424.225 106.888
L424.594 106.888
L424.594 95.1416
L424.225 95.1416
z
" style="fill:#4daf4a;"/>
   </g>
   <g id="patch_188">
    <path clip-path="url(#p6a4ae4428d)" d="
M424.594 105.321
L425.003 105.321
L425.003 93.5755
L424.594 93.5755
z
" style="fill:#40cf40;"/>
   </g>
   <g id="patch_189">
    <path clip-path="url(#p6a4ae4428d)" d="
M425.003 106.888
L425.933 106.888
L425.933 95.1416
L425.003 95.1416
z
" style="fill:#4daf4a;"/>
   </g>
   <g id="patch_190">
    <path clip-path="url(#p6a4ae4428d)" d="
M425.933 105.321
L426.506 105.321
L426.506 93.5755
L425.933 93.5755
z
" style="fill:#40cf40;"/>
   </g>
   <g id="patch_191">
    <path clip-path="url(#p6a4ae4428d)" d="
M426.506 106.888
L427.172 106.888
L427.172 95.1416
L426.506 95.1416
z
" style="fill:#4daf4a;"/>
   </g>
   <g id="patch_192">
    <path clip-path="url(#p6a4ae4428d)" d="
M427.172 105.321
L428.072 105.321
L428.072 93.5755
L427.172 93.5755
z
" style="fill:#40cf40;"/>
   </g>
   <g id="patch_193">
    <path clip-path="url(#p6a4ae4428d)" d="
M428.072 106.888
L430.663 106.888
L430.663 95.1416
L428.072 95.1416
z
" style="fill:#4daf4a;"/>
   </g>
   <g id="patch_194">
    <path clip-path="url(#p6a4ae4428d)" d="
M430.663 105.321
L431.242 105.321
L431.242 93.5755
L430.663 93.5755
z
" style="fill:#40cf40;"/>
   </g>
   <g id="patch_195">
    <path clip-path="url(#p6a4ae4428d)" d="
M431.242 106.888
L431.765 106.888
L431.765 95.1416
L431.242 95.1416
z
" style="fill:#4daf4a;"/>
   </g>
   <g id="patch_196">
    <path clip-path="url(#p6a4ae4428d)" d="
M431.765 105.321
L433.573 105.321
L433.573 93.5755
L431.765 93.5755
z
" style="fill:#40cf40;"/>
   </g>
   <g id="patch_197">
    <path clip-path="url(#p6a4ae4428d)" d="
M433.573 106.888
L435.449 106.888
L435.449 95.1416
L433.573 95.1416
z
" style="fill:#4daf4a;"/>
   </g>
   <g id="patch_198">
    <path clip-path="url(#p6a4ae4428d)" d="
M435.449 105.321
L436.867 105.321
L436.867 93.5755
L435.449 93.5755
z
" style="fill:#40cf40;"/>
   </g>
   <g id="patch_199">
    <path clip-path="url(#p6a4ae4428d)" d="
M436.867 106.888
L439.974 106.888
L439.974 95.1416
L436.867 95.1416
z
" style="fill:#4daf4a;"/>
   </g>
   <g id="patch_200">
    <path clip-path="url(#p6a4ae4428d)" d="
M439.975 105.321
L440.599 105.321
L440.599 93.5755
L439.975 93.5755
z
" style="fill:#40cf40;"/>
   </g>
   <g id="patch_201">
    <path clip-path="url(#p6a4ae4428d)" d="
M440.599 106.888
L441.46 106.888
L441.46 95.1416
L440.599 95.1416
z
" style="fill:#4daf4a;"/>
   </g>
   <g id="patch_202">
    <path clip-path="url(#p6a4ae4428d)" d="
M441.461 105.321
L442.564 105.321
L442.564 93.5755
L441.461 93.5755
z
" style="fill:#40cf40;"/>
   </g>
   <g id="patch_203">
    <path clip-path="url(#p6a4ae4428d)" d="
M442.564 106.888
L442.666 106.888
L442.666 95.1416
L442.564 95.1416
z
" style="fill:#4daf4a;"/>
   </g>
   <g id="patch_204">
    <path clip-path="url(#p6a4ae4428d)" d="
M442.666 105.321
L442.737 105.321
L442.737 93.5755
L442.666 93.5755
z
" style="fill:#40cf40;"/>
   </g>
   <g id="patch_205">
    <path clip-path="url(#p6a4ae4428d)" d="
M442.737 106.888
L443.197 106.888
L443.197 95.1416
L442.737 95.1416
z
" style="fill:#4daf4a;"/>
   </g>
   <g id="patch_206">
    <path clip-path="url(#p6a4ae4428d)" d="
M443.197 105.321
L443.284 105.321
L443.284 93.5755
L443.197 93.5755
z
" style="fill:#40cf40;"/>
   </g>
   <g id="patch_207">
    <path clip-path="url(#p6a4ae4428d)" d="
M443.285 106.888
L444.106 106.888
L444.106 95.1416
L443.285 95.1416
z
" style="fill:#4daf4a;"/>
   </g>
   <g id="patch_208">
    <path clip-path="url(#p6a4ae4428d)" d="
M444.107 105.321
L445.643 105.321
L445.643 93.5755
L444.107 93.5755
z
" style="fill:#40cf40;"/>
   </g>
   <g id="patch_209">
    <path clip-path="url(#p6a4ae4428d)" d="
M445.643 106.888
L448.768 106.888
L448.768 95.1416
L445.643 95.1416
z
" style="fill:#4daf4a;"/>
   </g>
   <g id="patch_210">
    <path clip-path="url(#p6a4ae4428d)" d="
M448.768 105.321
L449.083 105.321
L449.083 93.5755
L448.768 93.5755
z
" style="fill:#40cf40;"/>
   </g>
   <g id="patch_211">
    <path clip-path="url(#p6a4ae4428d)" d="
M449.083 106.888
L449.581 106.888
L449.581 95.1416
L449.083 95.1416
z
" style="fill:#4daf4a;"/>
   </g>
   <g id="patch_212">
    <path clip-path="url(#p6a4ae4428d)" d="
M449.582 105.321
L450.042 105.321
L450.042 93.5755
L449.582 93.5755
z
" style="fill:#40cf40;"/>
   </g>
   <g id="patch_213">
    <path clip-path="url(#p6a4ae4428d)" d="
M450.043 106.888
L450.991 106.888
L450.991 95.1416
L450.043 95.1416
z
" style="fill:#4daf4a;"/>
   </g>
   <g id="patch_214">
    <path clip-path="url(#p6a4ae4428d)" d="
M450.991 105.321
L451.252 105.321
L451.252 93.5755
L450.991 93.5755
z
" style="fill:#40cf40;"/>
   </g>
   <g id="patch_215">
    <path clip-path="url(#p6a4ae4428d)" d="
M451.252 106.888
L454.065 106.888
L454.065 95.1416
L451.252 95.1416
z
" style="fill:#4daf4a;"/>
   </g>
   <g id="patch_216">
    <path clip-path="url(#p6a4ae4428d)" d="
M454.065 105.321
L454.545 105.321
L454.545 93.5755
L454.065 93.5755
z
" style="fill:#40cf40;"/>
   </g>
   <g id="patch_217">
    <path clip-path="url(#p6a4ae4428d)" d="
M454.545 106.888
L454.624 106.888
L454.624 95.1416
L454.545 95.1416
z
" style="fill:#4daf4a;"/>
   </g>
   <g id="patch_218">
    <path clip-path="url(#p6a4ae4428d)" d="
M454.624 105.321
L454.706 105.321
L454.706 93.5755
L454.624 93.5755
z
" style="fill:#40cf40;"/>
   </g>
   <g id="patch_219">
    <path clip-path="url(#p6a4ae4428d)" d="
M454.707 106.888
L455.712 106.888
L455.712 95.1416
L454.707 95.1416
z
" style="fill:#4daf4a;"/>
   </g>
   <g id="patch_220">
    <path clip-path="url(#p6a4ae4428d)" d="
M455.712 105.321
L457.291 105.321
L457.291 93.5755
L455.712 93.5755
z
" style="fill:#40cf40;"/>
   </g>
   <g id="patch_221">
    <path clip-path="url(#p6a4ae4428d)" d="
M457.297 106.888
L461.075 106.888
L461.075 95.1416
L457.297 95.1416
z
" style="fill:#4daf4a;"/>
   </g>
   <g id="patch_222">
    <path clip-path="url(#p6a4ae4428d)" d="
M461.075 105.321
L461.669 105.321
L461.669 93.5755
L461.075 93.5755
z
" style="fill:#40cf40;"/>
   </g>
   <g id="patch_223">
    <path clip-path="url(#p6a4ae4428d)" d="
M461.669 106.888
L464.752 106.888
L464.752 95.1416
L461.669 95.1416
z
" style="fill:#4daf4a;"/>
   </g>
   <g id="patch_224">
    <path clip-path="url(#p6a4ae4428d)" d="
M464.752 105.321
L465.092 105.321
L465.092 93.5755
L464.752 93.5755
z
" style="fill:#40cf40;"/>
   </g>
   <g id="patch_225">
    <path clip-path="url(#p6a4ae4428d)" d="
M465.092 106.888
L465.821 106.888
L465.821 95.1416
L465.092 95.1416
z
" style="fill:#4daf4a;"/>
   </g>
   <g id="patch_226">
    <path clip-path="url(#p6a4ae4428d)" d="
M465.821 105.321
L466.019 105.321
L466.019 93.5755
L465.821 93.5755
z
" style="fill:#40cf40;"/>
   </g>
   <g id="patch_227">
    <path clip-path="url(#p6a4ae4428d)" d="
M466.019 106.888
L466.126 106.888
L466.126 95.1416
L466.019 95.1416
z
" style="fill:#4daf4a;"/>
   </g>
   <g id="patch_228">
    <path clip-path="url(#p6a4ae4428d)" d="
M466.126 105.321
L468.069 105.321
L468.069 93.5755
L466.126 93.5755
z
" style="fill:#40cf40;"/>
   </g>
   <g id="patch_229">
    <path clip-path="url(#p6a4ae4428d)" d="
M468.069 106.888
L468.857 106.888
L468.857 95.1416
L468.069 95.1416
z
" style="fill:#4daf4a;"/>
   </g>
   <g id="patch_230">
    <path clip-path="url(#p6a4ae4428d)" d="
M468.857 105.321
L471.375 105.321
L471.375 93.5755
L468.857 93.5755
z
" style="fill:#40cf40;"/>
   </g>
   <g id="patch_231">
    <path clip-path="url(#p6a4ae4428d)" d="
M471.375 106.888
L471.858 106.888
L471.858 95.1416
L471.375 95.1416
z
" style="fill:#4daf4a;"/>
   </g>
   <g id="patch_232">
    <path clip-path="url(#p6a4ae4428d)" d="
M471.858 105.321
L472.301 105.321
L472.301 93.5755
L471.858 93.5755
z
" style="fill:#40cf40;"/>
   </g>
   <g id="patch_233">
    <path clip-path="url(#p6a4ae4428d)" d="
M472.301 106.888
L475.402 106.888
L475.402 95.1416
L472.301 95.1416
z
" style="fill:#4daf4a;"/>
   </g>
   <g id="patch_234">
    <path clip-path="url(#p6a4ae4428d)" d="
M475.402 105.321
L475.77 105.321
L475.77 93.5755
L475.402 93.5755
z
" style="fill:#40cf40;"/>
   </g>
   <g id="patch_235">
    <path clip-path="url(#p6a4ae4428d)" d="
M475.77 106.888
L476.569 106.888
L476.569 95.1416
L475.77 95.1416
z
" style="fill:#4daf4a;"/>
   </g>
   <g id="patch_236">
    <path clip-path="url(#p6a4ae4428d)" d="
M476.569 105.321
L477.822 105.321
L477.822 93.5755
L476.569 93.5755
z
" style="fill:#40cf40;"/>
   </g>
   <g id="patch_237">
    <path clip-path="url(#p6a4ae4428d)" d="
M477.822 106.888
L480.397 106.888
L480.397 95.1416
L477.822 95.1416
z
" style="fill:#4daf4a;"/>
   </g>
   <g id="patch_238">
    <path clip-path="url(#p6a4ae4428d)" d="
M480.398 105.321
L480.745 105.321
L480.745 93.5755
L480.398 93.5755
z
" style="fill:#40cf40;"/>
   </g>
   <g id="patch_239">
    <path clip-path="url(#p6a4ae4428d)" d="
M480.745 106.888
L481.906 106.888
L481.906 95.1416
L480.745 95.1416
z
" style="fill:#4daf4a;"/>
   </g>
   <g id="patch_240">
    <path clip-path="url(#p6a4ae4428d)" d="
M481.906 105.321
L482.628 105.321
L482.628 93.5755
L481.906 93.5755
z
" style="fill:#40cf40;"/>
   </g>
   <g id="patch_241">
    <path clip-path="url(#p6a4ae4428d)" d="
M482.629 106.888
L484.372 106.888
L484.372 95.1416
L482.629 95.1416
z
" style="fill:#4daf4a;"/>
   </g>
   <g id="patch_242">
    <path clip-path="url(#p6a4ae4428d)" d="
M484.405 105.321
L485.972 105.321
L485.972 93.5755
L484.405 93.5755
z
" style="fill:#40cf40;"/>
   </g>
   <g id="patch_243">
    <path clip-path="url(#p6a4ae4428d)" d="
M485.972 106.888
L486.164 106.888
L486.164 95.1416
L485.972 95.1416
z
" style="fill:#4daf4a;"/>
   </g>
   <g id="patch_244">
    <path clip-path="url(#p6a4ae4428d)" d="
M486.164 105.321
L490.903 105.321
L490.903 93.5755
L486.164 93.5755
z
" style="fill:#40cf40;"/>
   </g>
   <g id="patch_245">
    <path clip-path="url(#p6a4ae4428d)" d="
M490.903 106.888
L493.402 106.888
L493.402 95.1416
L490.903 95.1416
z
" style="fill:#4daf4a;"/>
   </g>
   <g id="patch_246">
    <path clip-path="url(#p6a4ae4428d)" d="
M493.402 105.321
L494.384 105.321
L494.384 93.5755
L493.402 93.5755
z
" style="fill:#40cf40;"/>
   </g>
   <g id="patch_247">
    <path clip-path="url(#p6a4ae4428d)" d="
M494.384 106.888
L497.06 106.888
L497.06 95.1416
L494.384 95.1416
z
" style="fill:#4daf4a;"/>
   </g>
   <g id="patch_248">
    <path clip-path="url(#p6a4ae4428d)" d="
M497.06 105.321
L499.218 105.321
L499.218 93.5755
L497.06 93.5755
z
" style="fill:#40cf40;"/>
   </g>
   <g id="patch_249">
    <path clip-path="url(#p6a4ae4428d)" d="
M499.218 106.888
L499.614 106.888
L499.614 95.1416
L499.218 95.1416
z
" style="fill:#4daf4a;"/>
   </g>
   <g id="patch_250">
    <path clip-path="url(#p6a4ae4428d)" d="
M499.614 105.321
L500.047 105.321
L500.047 93.5755
L499.614 93.5755
z
" style="fill:#40cf40;"/>
   </g>
   <g id="patch_251">
    <path clip-path="url(#p6a4ae4428d)" d="
M500.048 106.888
L500.27 106.888
L500.27 95.1416
L500.048 95.1416
z
" style="fill:#4daf4a;"/>
   </g>
   <g id="patch_252">
    <path clip-path="url(#p6a4ae4428d)" d="
M500.27 105.321
L500.974 105.321
L500.974 93.5755
L500.27 93.5755
z
" style="fill:#40cf40;"/>
   </g>
   <g id="patch_253">
    <path clip-path="url(#p6a4ae4428d)" d="
M500.974 106.888
L502.511 106.888
L502.511 95.1416
L500.974 95.1416
z
" style="fill:#4daf4a;"/>
   </g>
   <g id="patch_254">
    <path clip-path="url(#p6a4ae4428d)" d="
M502.511 105.321
L502.669 105.321
L502.669 93.5755
L502.511 93.5755
z
" style="fill:#40cf40;"/>
   </g>
   <g id="patch_255">
    <path clip-path="url(#p6a4ae4428d)" d="
M502.669 106.888
L503.117 106.888
L503.117 95.1416
L502.669 95.1416
z
" style="fill:#4daf4a;"/>
   </g>
   <g id="patch_256">
    <path clip-path="url(#p6a4ae4428d)" d="
M503.117 105.321
L503.543 105.321
L503.543 93.5755
L503.117 93.5755
z
" style="fill:#40cf40;"/>
   </g>
   <g id="patch_257">
    <path clip-path="url(#p6a4ae4428d)" d="
M503.543 106.888
L506.277 106.888
L506.277 95.1416
L503.543 95.1416
z
" style="fill:#4daf4a;"/>
   </g>
   <g id="patch_258">
    <path clip-path="url(#p6a4ae4428d)" d="
M506.277 105.321
L510.37 105.321
L510.37 93.5755
L506.277 93.5755
z
" style="fill:#40cf40;"/>
   </g>
   <g id="patch_259">
    <path clip-path="url(#p6a4ae4428d)" d="
M510.392 106.888
L511.264 106.888
L511.264 95.1416
L510.392 95.1416
z
" style="fill:#4daf4a;"/>
   </g>
   <g id="patch_260">
    <path clip-path="url(#p6a4ae4428d)" d="
M511.264 105.321
L511.921 105.321
L511.921 93.5755
L511.264 93.5755
z
" style="fill:#40cf40;"/>
   </g>
   <g id="patch_261">
    <path clip-path="url(#p6a4ae4428d)" d="
M511.921 106.888
L512.156 106.888
L512.156 95.1416
L511.921 95.1416
z
" style="fill:#4daf4a;"/>
   </g>
   <g id="patch_262">
    <path clip-path="url(#p6a4ae4428d)" d="
M512.157 105.321
L512.299 105.321
L512.299 93.5755
L512.157 93.5755
z
" style="fill:#40cf40;"/>
   </g>
   <g id="patch_263">
    <path clip-path="url(#p6a4ae4428d)" d="
M512.3 106.888
L513.805 106.888
L513.805 95.1416
L512.3 95.1416
z
" style="fill:#4daf4a;"/>
   </g>
   <g id="patch_264">
    <path clip-path="url(#p6a4ae4428d)" d="
M513.805 105.321
L516.346 105.321
L516.346 93.5755
L513.805 93.5755
z
" style="fill:#40cf40;"/>
   </g>
   <g id="patch_265">
    <path clip-path="url(#p6a4ae4428d)" d="
M516.346 106.888
L519.291 106.888
L519.291 95.1416
L516.346 95.1416
z
" style="fill:#4daf4a;"/>
   </g>
   <g id="patch_266">
    <path clip-path="url(#p6a4ae4428d)" d="
M519.291 105.321
L519.828 105.321
L519.828 93.5755
L519.291 93.5755
z
" style="fill:#40cf40;"/>
   </g>
   <g id="patch_267">
    <path clip-path="url(#p6a4ae4428d)" d="
M519.828 106.888
L520.096 106.888
L520.096 95.1416
L519.828 95.1416
z
" style="fill:#4daf4a;"/>
   </g>
   <g id="patch_268">
    <path clip-path="url(#p6a4ae4428d)" d="
M520.096 105.321
L520.609 105.321
L520.609 93.5755
L520.096 93.5755
z
" style="fill:#40cf40;"/>
   </g>
   <g id="patch_269">
    <path clip-path="url(#p6a4ae4428d)" d="
M520.609 106.888
L523.614 106.888
L523.614 95.1416
L520.609 95.1416
z
" style="fill:#4daf4a;"/>
   </g>
   <g id="patch_270">
    <path clip-path="url(#p6a4ae4428d)" d="
M523.614 105.321
L525.95 105.321
L525.95 93.5755
L523.614 93.5755
z
" style="fill:#40cf40;"/>
   </g>
   <g id="patch_271">
    <path clip-path="url(#p6a4ae4428d)" d="
M525.95 106.888
L527.174 106.888
L527.174 95.1416
L525.95 95.1416
z
" style="fill:#4daf4a;"/>
   </g>
   <g id="patch_272">
    <path clip-path="url(#p6a4ae4428d)" d="
M527.174 105.321
L527.967 105.321
L527.967 93.5755
L527.174 93.5755
z
" style="fill:#40cf40;"/>
   </g>
   <g id="patch_273">
    <path clip-path="url(#p6a4ae4428d)" d="
M527.967 106.888
L528.222 106.888
L528.222 95.1416
L527.967 95.1416
z
" style="fill:#4daf4a;"/>
   </g>
   <g id="patch_274">
    <path clip-path="url(#p6a4ae4428d)" d="
M528.222 105.321
L529.421 105.321
L529.421 93.5755
L528.222 93.5755
z
" style="fill:#40cf40;"/>
   </g>
   <g id="patch_275">
    <path clip-path="url(#p6a4ae4428d)" d="
M529.422 106.888
L530.76 106.888
L530.76 95.1416
L529.422 95.1416
z
" style="fill:#4daf4a;"/>
   </g>
   <g id="patch_276">
    <path clip-path="url(#p6a4ae4428d)" d="
M530.76 105.321
L532.404 105.321
L532.404 93.5755
L530.76 93.5755
z
" style="fill:#40cf40;"/>
   </g>
   <g id="patch_277">
    <path clip-path="url(#p6a4ae4428d)" d="
M532.405 106.888
L534.783 106.888
L534.783 95.1416
L532.405 95.1416
z
" style="fill:#4daf4a;"/>
   </g>
   <g id="patch_278">
    <path clip-path="url(#p6a4ae4428d)" d="
M534.783 105.321
L536.687 105.321
L536.687 93.5755
L534.783 93.5755
z
" style="fill:#40cf40;"/>
   </g>
   <g id="patch_279">
    <path clip-path="url(#p6a4ae4428d)" d="
M536.687 106.888
L539.054 106.888
L539.054 95.1416
L536.687 95.1416
z
" style="fill:#4daf4a;"/>
   </g>
   <g id="patch_280">
    <path clip-path="url(#p6a4ae4428d)" d="
M539.054 105.321
L543.368 105.321
L543.368 93.5755
L539.054 93.5755
z
" style="fill:#40cf40;"/>
   </g>
   <g id="patch_281">
    <path clip-path="url(#p6a4ae4428d)" d="
M543.368 106.888
L544.143 106.888
L544.143 95.1416
L543.368 95.1416
z
" style="fill:#4daf4a;"/>
   </g>
   <g id="patch_282">
    <path clip-path="url(#p6a4ae4428d)" d="
M544.143 105.321
L546.841 105.321
L546.841 93.5755
L544.143 93.5755
z
" style="fill:#40cf40;"/>
   </g>
   <g id="patch_283">
    <path clip-path="url(#p6a4ae4428d)" d="
M546.842 106.888
L549.474 106.888
L549.474 95.1416
L546.842 95.1416
z
" style="fill:#4daf4a;"/>
   </g>
   <g id="patch_284">
    <path clip-path="url(#p6a4ae4428d)" d="
M549.474 105.321
L551.442 105.321
L551.442 93.5755
L549.474 93.5755
z
" style="fill:#40cf40;"/>
   </g>
   <g id="patch_285">
    <path clip-path="url(#p6a4ae4428d)" d="
M551.442 106.888
L552.373 106.888
L552.373 95.1416
L551.442 95.1416
z
" style="fill:#4daf4a;"/>
   </g>
   <g id="patch_286">
    <path clip-path="url(#p6a4ae4428d)" d="
M552.373 105.321
L553.545 105.321
L553.545 93.5755
L552.373 93.5755
z
" style="fill:#40cf40;"/>
   </g>
   <g id="patch_287">
    <path clip-path="url(#p6a4ae4428d)" d="
M553.545 106.888
L554.039 106.888
L554.039 95.1416
L553.545 95.1416
z
" style="fill:#4daf4a;"/>
   </g>
   <g id="patch_288">
    <path clip-path="url(#p6a4ae4428d)" d="
M554.04 105.321
L554.296 105.321
L554.296 93.5755
L554.04 93.5755
z
" style="fill:#40cf40;"/>
   </g>
   <g id="patch_289">
    <path clip-path="url(#p6a4ae4428d)" d="
M554.296 106.888
L554.584 106.888
L554.584 95.1416
L554.296 95.1416
z
" style="fill:#4daf4a;"/>
   </g>
   <g id="patch_290">
    <path clip-path="url(#p6a4ae4428d)" d="
M554.584 105.321
L556.473 105.321
L556.473 93.5755
L554.584 93.5755
z
" style="fill:#40cf40;"/>
   </g>
   <g id="patch_291">
    <path clip-path="url(#p6a4ae4428d)" d="
M556.473 106.888
L560.825 106.888
L560.825 95.1416
L556.473 95.1416
z
" style="fill:#4daf4a;"/>
   </g>
   <g id="patch_292">
    <path clip-path="url(#p6a4ae4428d)" d="
M560.825 105.321
L561.974 105.321
L561.974 93.5755
L560.825 93.5755
z
" style="fill:#40cf40;"/>
   </g>
   <g id="patch_293">
    <path clip-path="url(#p6a4ae4428d)" d="
M561.974 106.888
L562.291 106.888
L562.291 95.1416
L561.974 95.1416
z
" style="fill:#4daf4a;"/>
   </g>
   <g id="patch_294">
    <path clip-path="url(#p6a4ae4428d)" d="
M562.291 105.321
L564.363 105.321
L564.363 93.5755
L562.291 93.5755
z
" style="fill:#40cf40;"/>
   </g>
   <g id="patch_295">
    <path clip-path="url(#p6a4ae4428d)" d="
M564.363 106.888
L567.853 106.888
L567.853 95.1416
L564.363 95.1416
z
" style="fill:#4daf4a;"/>
   </g>
   <g id="patch_296">
    <path clip-path="url(#p6a4ae4428d)" d="
M567.853 105.321
L570.12 105.321
L570.12 93.5755
L567.853 93.5755
z
" style="fill:#40cf40;"/>
   </g>
   <g id="patch_297">
    <path clip-path="url(#p6a4ae4428d)" d="
M570.12 106.888
L570.445 106.888
L570.445 95.1416
L570.12 95.1416
z
" style="fill:#4daf4a;"/>
   </g>
   <g id="patch_298">
    <path clip-path="url(#p6a4ae4428d)" d="
M570.445 105.321
L571.808 105.321
L571.808 93.5755
L570.445 93.5755
z
" style="fill:#40cf40;"/>
   </g>
   <g id="patch_299">
    <path clip-path="url(#p6a4ae4428d)" d="
M571.808 106.888
L572.116 106.888
L572.116 95.1416
L571.808 95.1416
z
" style="fill:#4daf4a;"/>
   </g>
   <g id="patch_300">
    <path clip-path="url(#p6a4ae4428d)" d="
M572.117 105.321
L572.862 105.321
L572.862 93.5755
L572.117 93.5755
z
" style="fill:#40cf40;"/>
   </g>
   <g id="patch_301">
    <path clip-path="url(#p6a4ae4428d)" d="
M572.862 106.888
L573.845 106.888
L573.845 95.1416
L572.862 95.1416
z
" style="fill:#4daf4a;"/>
   </g>
   <g id="patch_302">
    <path clip-path="url(#p6a4ae4428d)" d="
M573.845 105.321
L575.843 105.321
L575.843 93.5755
L573.845 93.5755
z
" style="fill:#40cf40;"/>
   </g>
   <g id="patch_303">
    <path clip-path="url(#p6a4ae4428d)" d="
M575.843 106.888
L577.337 106.888
L577.337 95.1416
L575.843 95.1416
z
" style="fill:#4daf4a;"/>
   </g>
   <g id="patch_304">
    <path clip-path="url(#p6a4ae4428d)" d="
M577.337 105.321
L577.663 105.321
L577.663 93.5755
L577.337 93.5755
z
" style="fill:#40cf40;"/>
   </g>
   <g id="patch_305">
    <path clip-path="url(#p6a4ae4428d)" d="
M577.664 106.888
L579.663 106.888
L579.663 95.1416
L577.664 95.1416
z
" style="fill:#4daf4a;"/>
   </g>
   <g id="patch_306">
    <path clip-path="url(#p6a4ae4428d)" d="
M579.663 105.321
L581.372 105.321
L581.372 93.5755
L579.663 93.5755
z
" style="fill:#40cf40;"/>
   </g>
   <g id="patch_307">
    <path clip-path="url(#p6a4ae4428d)" d="
M581.372 106.888
L581.817 106.888
L581.817 95.1416
L581.372 95.1416
z
" style="fill:#4daf4a;"/>
   </g>
   <g id="patch_308">
    <path clip-path="url(#p6a4ae4428d)" d="
M581.817 105.321
L582.164 105.321
L582.164 93.5755
L581.817 93.5755
z
" style="fill:#40cf40;"/>
   </g>
   <g id="patch_309">
    <path clip-path="url(#p6a4ae4428d)" d="
M582.164 106.888
L582.546 106.888
L582.546 95.1416
L582.164 95.1416
z
" style="fill:#4daf4a;"/>
   </g>
   <g id="patch_310">
    <path clip-path="url(#p6a4ae4428d)" d="
M582.547 105.321
L583.72 105.321
L583.72 93.5755
L582.547 93.5755
z
" style="fill:#40cf40;"/>
   </g>
   <g id="patch_311">
    <path clip-path="url(#p6a4ae4428d)" d="
M583.721 106.888
L583.952 106.888
L583.952 95.1416
L583.721 95.1416
z
" style="fill:#4daf4a;"/>
   </g>
   <g id="patch_312">
    <path clip-path="url(#p6a4ae4428d)" d="
M583.952 105.321
L584.839 105.321
L584.839 93.5755
L583.952 93.5755
z
" style="fill:#40cf40;"/>
   </g>
   <g id="patch_313">
    <path clip-path="url(#p6a4ae4428d)" d="
M584.839 106.888
L587.991 106.888
L587.991 95.1416
L584.839 95.1416
z
" style="fill:#4daf4a;"/>
   </g>
   <g id="patch_314">
    <path clip-path="url(#p6a4ae4428d)" d="
M587.991 105.321
L593.559 105.321
L593.559 93.5755
L587.991 93.5755
z
" style="fill:#40cf40;"/>
   </g>
   <g id="patch_315">
    <path clip-path="url(#p6a4ae4428d)" d="
M593.559 106.888
L595.76 106.888
L595.76 95.1416
L593.559 95.1416
z
" style="fill:#4daf4a;"/>
   </g>
   <g id="patch_316">
    <path clip-path="url(#p6a4ae4428d)" d="
M595.76 105.321
L597.194 105.321
L597.194 93.5755
L595.76 93.5755
z
" style="fill:#40cf40;"/>
   </g>
   <g id="patch_317">
    <path clip-path="url(#p6a4ae4428d)" d="
M597.195 106.888
L597.396 106.888
L597.396 95.1416
L597.195 95.1416
z
" style="fill:#4daf4a;"/>
   </g>
   <g id="patch_318">
    <path clip-path="url(#p6a4ae4428d)" d="
M597.396 105.321
L597.784 105.321
L597.784 93.5755
L597.396 93.5755
z
" style="fill:#40cf40;"/>
   </g>
   <g id="patch_319">
    <path clip-path="url(#p6a4ae4428d)" d="
M597.784 106.888
L598.412 106.888
L598.412 95.1416
L597.784 95.1416
z
" style="fill:#4daf4a;"/>
   </g>
   <g id="patch_320">
    <path clip-path="url(#p6a4ae4428d)" d="
M598.412 105.321
L601.352 105.321
L601.352 93.5755
L598.412 93.5755
z
" style="fill:#40cf40;"/>
   </g>
   <g id="patch_321">
    <path clip-path="url(#p6a4ae4428d)" d="
M601.352 106.888
L601.89 106.888
L601.89 95.1416
L601.352 95.1416
z
" style="fill:#4daf4a;"/>
   </g>
   <g id="patch_322">
    <path clip-path="url(#p6a4ae4428d)" d="
M601.89 105.321
L602.101 105.321
L602.101 93.5755
L601.89 93.5755
z
" style="fill:#40cf40;"/>
   </g>
   <g id="patch_323">
    <path clip-path="url(#p6a4ae4428d)" d="
M602.102 106.888
L602.166 106.888
L602.166 95.1416
L602.102 95.1416
z
" style="fill:#4daf4a;"/>
   </g>
   <g id="patch_324">
    <path clip-path="url(#p6a4ae4428d)" d="
M602.166 105.321
L605.495 105.321
L605.495 93.5755
L602.166 93.5755
z
" style="fill:#40cf40;"/>
   </g>
   <g id="patch_325">
    <path clip-path="url(#p6a4ae4428d)" d="
M605.495 106.888
L608.228 106.888
L608.228 95.1416
L605.495 95.1416
z
" style="fill:#4daf4a;"/>
   </g>
   <g id="patch_326">
    <path clip-path="url(#p6a4ae4428d)" d="
M608.228 105.321
L609.932 105.321
L609.932 93.5755
L608.228 93.5755
z
" style="fill:#40cf40;"/>
   </g>
   <g id="patch_327">
    <path clip-path="url(#p6a4ae4428d)" d="
M609.932 106.888
L612.654 106.888
L612.654 95.1416
L609.932 95.1416
z
" style="fill:#4daf4a;"/>
   </g>
   <g id="patch_328">
    <path clip-path="url(#p6a4ae4428d)" d="
M612.655 105.321
L613.474 105.321
L613.474 93.5755
L612.655 93.5755
z
" style="fill:#40cf40;"/>
   </g>
   <g id="patch_329">
    <path clip-path="url(#p6a4ae4428d)" d="
M613.474 106.888
L617.059 106.888
L617.059 95.1416
L613.474 95.1416
z
" style="fill:#4daf4a;"/>
   </g>
   <g id="patch_330">
    <path clip-path="url(#p6a4ae4428d)" d="
M617.075 105.321
L617.496 105.321
L617.496 93.5755
L617.075 93.5755
z
" style="fill:#40cf40;"/>
   </g>
   <g id="patch_331">
    <path clip-path="url(#p6a4ae4428d)" d="
M617.496 106.888
L619.084 106.888
L619.084 95.1416
L617.496 95.1416
z
" style="fill:#4daf4a;"/>
   </g>
   <g id="patch_332">
    <path clip-path="url(#p6a4ae4428d)" d="
M619.084 105.321
L620.95 105.321
L620.95 93.5755
L619.084 93.5755
z
" style="fill:#40cf40;"/>
   </g>
   <g id="patch_333">
    <path clip-path="url(#p6a4ae4428d)" d="
M620.95 106.888
L621.171 106.888
L621.171 95.1416
L620.95 95.1416
z
" style="fill:#4daf4a;"/>
   </g>
   <g id="patch_334">
    <path clip-path="url(#p6a4ae4428d)" d="
M621.199 105.321
L621.794 105.321
L621.794 93.5755
L621.199 93.5755
z
" style="fill:#40cf40;"/>
   </g>
   <g id="patch_335">
    <path clip-path="url(#p6a4ae4428d)" d="
M621.794 106.888
L621.905 106.888
L621.905 95.1416
L621.794 95.1416
z
" style="fill:#4daf4a;"/>
   </g>
   <g id="patch_336">
    <path clip-path="url(#p6a4ae4428d)" d="
M621.905 105.321
L622.103 105.321
L622.103 93.5755
L621.905 93.5755
z
" style="fill:#40cf40;"/>
   </g>
   <g id="patch_337">
    <path clip-path="url(#p6a4ae4428d)" d="
M622.103 106.888
L623.765 106.888
L623.765 95.1416
L622.103 95.1416
z
" style="fill:#4daf4a;"/>
   </g>
   <g id="patch_338">
    <path clip-path="url(#p6a4ae4428d)" d="
M623.765 105.321
L624.552 105.321
L624.552 93.5755
L623.765 93.5755
z
" style="fill:#40cf40;"/>
   </g>
   <g id="patch_339">
    <path clip-path="url(#p6a4ae4428d)" d="
M624.552 106.888
L625.601 106.888
L625.601 95.1416
L624.552 95.1416
z
" style="fill:#4daf4a;"/>
   </g>
   <g id="patch_340">
    <path clip-path="url(#p6a4ae4428d)" d="
M625.601 105.321
L626.414 105.321
L626.414 93.5755
L625.601 93.5755
z
" style="fill:#40cf40;"/>
   </g>
   <g id="patch_341">
    <path clip-path="url(#p6a4ae4428d)" d="
M626.415 106.888
L626.709 106.888
L626.709 95.1416
L626.415 95.1416
z
" style="fill:#4daf4a;"/>
   </g>
   <g id="patch_342">
    <path clip-path="url(#p6a4ae4428d)" d="
M626.709 105.321
L627.057 105.321
L627.057 93.5755
L626.709 93.5755
z
" style="fill:#40cf40;"/>
   </g>
   <g id="patch_343">
    <path clip-path="url(#p6a4ae4428d)" d="
M627.057 106.888
L629.764 106.888
L629.764 95.1416
L627.057 95.1416
z
" style="fill:#4daf4a;"/>
   </g>
   <g id="patch_344">
    <path clip-path="url(#p6a4ae4428d)" d="
M629.764 105.321
L630.63 105.321
L630.63 93.5755
L629.764 93.5755
z
" style="fill:#40cf40;"/>
   </g>
   <g id="patch_345">
    <path clip-path="url(#p6a4ae4428d)" d="
M630.63 106.888
L630.727 106.888
L630.727 95.1416
L630.63 95.1416
z
" style="fill:#4daf4a;"/>
   </g>
   <g id="patch_346">
    <path clip-path="url(#p6a4ae4428d)" d="
M630.728 105.321
L631.613 105.321
L631.613 93.5755
L630.728 93.5755
z
" style="fill:#40cf40;"/>
   </g>
   <g id="patch_347">
    <path clip-path="url(#p6a4ae4428d)" d="
M631.613 106.888
L631.721 106.888
L631.721 95.1416
L631.613 95.1416
z
" style="fill:#4daf4a;"/>
   </g>
   <g id="patch_348">
    <path clip-path="url(#p6a4ae4428d)" d="
M631.721 105.321
L632.234 105.321
L632.234 93.5755
L631.721 93.5755
z
" style="fill:#40cf40;"/>
   </g>
   <g id="patch_349">
    <path clip-path="url(#p6a4ae4428d)" d="
M632.234 106.888
L633.207 106.888
L633.207 95.1416
L632.234 95.1416
z
" style="fill:#4daf4a;"/>
   </g>
   <g id="patch_350">
    <path clip-path="url(#p6a4ae4428d)" d="
M633.207 105.321
L633.396 105.321
L633.396 93.5755
L633.207 93.5755
z
" style="fill:#40cf40;"/>
   </g>
   <g id="patch_351">
    <path clip-path="url(#p6a4ae4428d)" d="
M633.396 106.888
L636.613 106.888
L636.613 95.1416
L633.396 95.1416
z
" style="fill:#4daf4a;"/>
   </g>
   <g id="patch_352">
    <path clip-path="url(#p6a4ae4428d)" d="
M636.613 105.321
L637.349 105.321
L637.349 93.5755
L636.613 93.5755
z
" style="fill:#40cf40;"/>
   </g>
   <g id="patch_353">
    <path clip-path="url(#p6a4ae4428d)" d="
M637.349 106.888
L638.417 106.888
L638.417 95.1416
L637.349 95.1416
z
" style="fill:#4daf4a;"/>
   </g>
   <g id="patch_354">
    <path clip-path="url(#p6a4ae4428d)" d="
M638.417 105.321
L639.341 105.321
L639.341 93.5755
L638.417 93.5755
z
" style="fill:#40cf40;"/>
   </g>
   <g id="patch_355">
    <path clip-path="url(#p6a4ae4428d)" d="
M639.341 106.888
L640.643 106.888
L640.643 95.1416
L639.341 95.1416
z
" style="fill:#4daf4a;"/>
   </g>
   <g id="patch_356">
    <path clip-path="url(#p6a4ae4428d)" d="
M640.643 105.321
L643.482 105.321
L643.482 93.5755
L640.643 93.5755
z
" style="fill:#40cf40;"/>
   </g>
   <g id="patch_357">
    <path clip-path="url(#p6a4ae4428d)" d="
M643.536 106.888
L644.484 106.888
L644.484 95.1416
L643.536 95.1416
z
" style="fill:#4daf4a;"/>
   </g>
   <g id="patch_358">
    <path clip-path="url(#p6a4ae4428d)" d="
M644.484 105.321
L645.571 105.321
L645.571 93.5755
L644.484 93.5755
z
" style="fill:#40cf40;"/>
   </g>
   <g id="patch_359">
    <path clip-path="url(#p6a4ae4428d)" d="
M645.571 106.888
L645.674 106.888
L645.674 95.1416
L645.571 95.1416
z
" style="fill:#4daf4a;"/>
   </g>
   <g id="patch_360">
    <path clip-path="url(#p6a4ae4428d)" d="
M645.674 105.321
L646.577 105.321
L646.577 93.5755
L645.674 93.5755
z
" style="fill:#40cf40;"/>
   </g>
   <g id="patch_361">
    <path clip-path="url(#p6a4ae4428d)" d="
M646.577 106.888
L647.367 106.888
L647.367 95.1416
L646.577 95.1416
z
" style="fill:#4daf4a;"/>
   </g>
   <g id="patch_362">
    <path clip-path="url(#p6a4ae4428d)" d="
M647.367 105.321
L647.528 105.321
L647.528 93.5755
L647.367 93.5755
z
" style="fill:#40cf40;"/>
   </g>
   <g id="patch_363">
    <path clip-path="url(#p6a4ae4428d)" d="
M647.543 106.888
L648.749 106.888
L648.749 95.1416
L647.543 95.1416
z
" style="fill:#4daf4a;"/>
   </g>
   <g id="patch_364">
    <path clip-path="url(#p6a4ae4428d)" d="
M648.749 105.321
L649.533 105.321
L649.533 93.5755
L648.749 93.5755
z
" style="fill:#40cf40;"/>
   </g>
   <g id="patch_365">
    <path clip-path="url(#p6a4ae4428d)" d="
M649.533 106.888
L649.723 106.888
L649.723 95.1416
L649.533 95.1416
z
" style="fill:#4daf4a;"/>
   </g>
   <g id="patch_366">
    <path clip-path="url(#p6a4ae4428d)" d="
M649.724 105.321
L651.206 105.321
L651.206 93.5755
L649.724 93.5755
z
" style="fill:#40cf40;"/>
   </g>
   <g id="patch_367">
    <path clip-path="url(#p6a4ae4428d)" d="
M651.207 106.888
L651.509 106.888
L651.509 95.1416
L651.207 95.1416
z
" style="fill:#4daf4a;"/>
   </g>
   <g id="patch_368">
    <path clip-path="url(#p6a4ae4428d)" d="
M651.509 105.321
L652.6 105.321
L652.6 93.5755
L651.509 93.5755
z
" style="fill:#40cf40;"/>
   </g>
   <g id="patch_369">
    <path clip-path="url(#p6a4ae4428d)" d="
M652.601 106.888
L659.03 106.888
L659.03 95.1416
L652.601 95.1416
z
" style="fill:#4daf4a;"/>
   </g>
   <g id="patch_370">
    <path clip-path="url(#p6a4ae4428d)" d="
M659.092 105.321
L660.646 105.321
L660.646 93.5755
L659.092 93.5755
z
" style="fill:#40cf40;"/>
   </g>
   <g id="patch_371">
    <path clip-path="url(#p6a4ae4428d)" d="
M660.646 106.888
L660.866 106.888
L660.866 95.1416
L660.646 95.1416
z
" style="fill:#4daf4a;"/>
   </g>
   <g id="patch_372">
    <path clip-path="url(#p6a4ae4428d)" d="
M660.866 105.321
L661.573 105.321
L661.573 93.5755
L660.866 93.5755
z
" style="fill:#40cf40;"/>
   </g>
   <g id="patch_373">
    <path clip-path="url(#p6a4ae4428d)" d="
M661.573 106.888
L662.41 106.888
L662.41 95.1416
L661.573 95.1416
z
" style="fill:#4daf4a;"/>
   </g>
   <g id="patch_374">
    <path clip-path="url(#p6a4ae4428d)" d="
M662.41 105.321
L662.542 105.321
L662.542 93.5755
L662.41 93.5755
z
" style="fill:#40cf40;"/>
   </g>
   <g id="patch_375">
    <path clip-path="url(#p6a4ae4428d)" d="
M662.542 106.888
L663.247 106.888
L663.247 95.1416
L662.542 95.1416
z
" style="fill:#4daf4a;"/>
   </g>
   <g id="patch_376">
    <path clip-path="url(#p6a4ae4428d)" d="
M663.248 105.321
L664.81 105.321
L664.81 93.5755
L663.248 93.5755
z
" style="fill:#40cf40;"/>
   </g>
   <g id="patch_377">
    <path clip-path="url(#p6a4ae4428d)" d="
M664.81 106.888
L665.601 106.888
L665.601 95.1416
L664.81 95.1416
z
" style="fill:#4daf4a;"/>
   </g>
   <g id="patch_378">
    <path clip-path="url(#p6a4ae4428d)" d="
M665.601 105.321
L666.236 105.321
L666.236 93.5755
L665.601 93.5755
z
" style="fill:#40cf40;"/>
   </g>
   <g id="patch_379">
    <path clip-path="url(#p6a4ae4428d)" d="
M666.236 106.888
L667.178 106.888
L667.178 95.1416
L666.236 95.1416
z
" style="fill:#4daf4a;"/>
   </g>
   <g id="patch_380">
    <path clip-path="url(#p6a4ae4428d)" d="
M667.178 105.321
L669.67 105.321
L669.67 93.5755
L667.178 93.5755
z
" style="fill:#40cf40;"/>
   </g>
   <g id="patch_381">
    <path clip-path="url(#p6a4ae4428d)" d="
M669.67 106.888
L670.983 106.888
L670.983 95.1416
L669.67 95.1416
z
" style="fill:#4daf4a;"/>
   </g>
   <g id="patch_382">
    <path clip-path="url(#p6a4ae4428d)" d="
M670.983 105.321
L672.051 105.321
L672.051 93.5755
L670.983 93.5755
z
" style="fill:#40cf40;"/>
   </g>
   <g id="patch_383">
    <path clip-path="url(#p6a4ae4428d)" d="
M672.051 106.888
L672.245 106.888
L672.245 95.1416
L672.051 95.1416
z
" style="fill:#4daf4a;"/>
   </g>
   <g id="patch_384">
    <path clip-path="url(#p6a4ae4428d)" d="
M672.245 105.321
L673.238 105.321
L673.238 93.5755
L672.245 93.5755
z
" style="fill:#40cf40;"/>
   </g>
   <g id="patch_385">
    <path clip-path="url(#p6a4ae4428d)" d="
M673.238 106.888
L676.359 106.888
L676.359 95.1416
L673.238 95.1416
z
" style="fill:#4daf4a;"/>
   </g>
   <g id="patch_386">
    <path clip-path="url(#p6a4ae4428d)" d="
M676.359 105.321
L676.656 105.321
L676.656 93.5755
L676.359 93.5755
z
" style="fill:#40cf40;"/>
   </g>
   <g id="patch_387">
    <path clip-path="url(#p6a4ae4428d)" d="
M676.656 106.888
L677.695 106.888
L677.695 95.1416
L676.656 95.1416
z
" style="fill:#4daf4a;"/>
   </g>
   <g id="patch_388">
    <path clip-path="url(#p6a4ae4428d)" d="
M677.695 105.321
L678.615 105.321
L678.615 93.5755
L677.695 93.5755
z
" style="fill:#40cf40;"/>
   </g>
   <g id="patch_389">
    <path clip-path="url(#p6a4ae4428d)" d="
M678.615 106.888
L678.956 106.888
L678.956 95.1416
L678.615 95.1416
z
" style="fill:#4daf4a;"/>
   </g>
   <g id="patch_390">
    <path clip-path="url(#p6a4ae4428d)" d="
M678.956 105.321
L679.007 105.321
L679.007 93.5755
L678.956 93.5755
z
" style="fill:#40cf40;"/>
   </g>
   <g id="patch_391">
    <path clip-path="url(#p6a4ae4428d)" d="
M679.007 106.888
L680.075 106.888
L680.075 95.1416
L679.007 95.1416
z
" style="fill:#4daf4a;"/>
   </g>
   <g id="patch_392">
    <path clip-path="url(#p6a4ae4428d)" d="
M680.075 105.321
L683.807 105.321
L683.807 93.5755
L680.075 93.5755
z
" style="fill:#40cf40;"/>
   </g>
   <g id="patch_393">
    <path clip-path="url(#p6a4ae4428d)" d="
M683.826 106.888
L684.153 106.888
L684.153 95.1416
L683.826 95.1416
z
" style="fill:#4daf4a;"/>
   </g>
   <g id="patch_394">
    <path clip-path="url(#p6a4ae4428d)" d="
M684.154 105.321
L684.283 105.321
L684.283 93.5755
L684.154 93.5755
z
" style="fill:#40cf40;"/>
   </g>
   <g id="patch_395">
    <path clip-path="url(#p6a4ae4428d)" d="
M684.283 106.888
L685.146 106.888
L685.146 95.1416
L684.283 95.1416
z
" style="fill:#4daf4a;"/>
   </g>
   <g id="patch_396">
    <path clip-path="url(#p6a4ae4428d)" d="
M685.146 105.321
L685.459 105.321
L685.459 93.5755
L685.146 93.5755
z
" style="fill:#40cf40;"/>
   </g>
   <g id="patch_397">
    <path clip-path="url(#p6a4ae4428d)" d="
M685.459 106.888
L686.561 106.888
L686.561 95.1416
L685.459 95.1416
z
" style="fill:#4daf4a;"/>
   </g>
   <g id="patch_398">
    <path clip-path="url(#p6a4ae4428d)" d="
M686.561 105.321
L689.368 105.321
L689.368 93.5755
L686.561 93.5755
z
" style="fill:#40cf40;"/>
   </g>
   <g id="patch_399">
    <path clip-path="url(#p6a4ae4428d)" d="
M689.369 106.888
L689.977 106.888
L689.977 95.1416
L689.369 95.1416
z
" style="fill:#4daf4a;"/>
   </g>
   <g id="patch_400">
    <path clip-path="url(#p6a4ae4428d)" d="
M689.977 105.321
L691.147 105.321
L691.147 93.5755
L689.977 93.5755
z
" style="fill:#40cf40;"/>
   </g>
   <g id="patch_401">
    <path clip-path="url(#p6a4ae4428d)" d="
M691.147 106.888
L693.274 106.888
L693.274 95.1416
L691.147 95.1416
z
" style="fill:#4daf4a;"/>
   </g>
   <g id="patch_402">
    <path clip-path="url(#p6a4ae4428d)" d="
M693.274 105.321
L695.354 105.321
L695.354 93.5755
L693.274 93.5755
z
" style="fill:#40cf40;"/>
   </g>
   <g id="patch_403">
    <path clip-path="url(#p6a4ae4428d)" d="
M695.355 106.888
L696.209 106.888
L696.209 95.1416
L695.355 95.1416
z
" style="fill:#4daf4a;"/>
   </g>
   <g id="patch_404">
    <path clip-path="url(#p6a4ae4428d)" d="
M696.209 105.321
L697.145 105.321
L697.145 93.5755
L696.209 93.5755
z
" style="fill:#40cf40;"/>
   </g>
   <g id="patch_405">
    <path clip-path="url(#p6a4ae4428d)" d="
M697.145 106.888
L697.532 106.888
L697.532 95.1416
L697.145 95.1416
z
" style="fill:#4daf4a;"/>
   </g>
   <g id="patch_406">
    <path clip-path="url(#p6a4ae4428d)" d="
M697.532 105.321
L698.952 105.321
L698.952 93.5755
L697.532 93.5755
z
" style="fill:#40cf40;"/>
   </g>
   <g id="patch_407">
    <path clip-path="url(#p6a4ae4428d)" d="
M698.962 106.888
L699.067 106.888
L699.067 95.1416
L698.962 95.1416
z
" style="fill:#4daf4a;"/>
   </g>
   <g id="patch_408">
    <path clip-path="url(#p6a4ae4428d)" d="
M699.067 105.321
L699.388 105.321
L699.388 93.5755
L699.067 93.5755
z
" style="fill:#40cf40;"/>
   </g>
   <g id="patch_409">
    <path clip-path="url(#p6a4ae4428d)" d="
M699.389 106.888
L699.781 106.888
L699.781 95.1416
L699.389 95.1416
z
" style="fill:#4daf4a;"/>
   </g>
   <g id="patch_410">
    <path clip-path="url(#p6a4ae4428d)" d="
M699.781 105.321
L700.112 105.321
L700.112 93.5755
L699.781 93.5755
z
" style="fill:#40cf40;"/>
   </g>
   <g id="patch_411">
    <path clip-path="url(#p6a4ae4428d)" d="
M700.112 106.888
L701.269 106.888
L701.269 95.1416
L700.112 95.1416
z
" style="fill:#4daf4a;"/>
   </g>
   <g id="patch_412">
    <path clip-path="url(#p6a4ae4428d)" d="
M701.269 105.321
L703.615 105.321
L703.615 93.5755
L701.269 93.5755
z
" style="fill:#40cf40;"/>
   </g>
   <g id="patch_413">
    <path clip-path="url(#p6a4ae4428d)" d="
M703.615 106.888
L705.992 106.888
L705.992 95.1416
L703.615 95.1416
z
" style="fill:#4daf4a;"/>
   </g>
   <g id="patch_414">
    <path clip-path="url(#p6a4ae4428d)" d="
M705.992 105.321
L709.536 105.321
L709.536 93.5755
L705.992 93.5755
z
" style="fill:#40cf40;"/>
   </g>
   <g id="patch_415">
    <path clip-path="url(#p6a4ae4428d)" d="
M709.536 106.888
L710.198 106.888
L710.198 95.1416
L709.536 95.1416
z
" style="fill:#4daf4a;"/>
   </g>
   <g id="patch_416">
    <path clip-path="url(#p6a4ae4428d)" d="
M710.198 105.321
L710.728 105.321
L710.728 93.5755
L710.198 93.5755
z
" style="fill:#40cf40;"/>
   </g>
   <g id="patch_417">
    <path clip-path="url(#p6a4ae4428d)" d="
M710.728 106.888
L714.016 106.888
L714.016 95.1416
L710.728 95.1416
z
" style="fill:#4daf4a;"/>
   </g>
   <g id="line2d_1">
    <path clip-path="url(#p6a4ae4428d)" d="
M182.801 66.56
L714.017 66.56" style="fill:none;stroke:#000000;stroke-width:0.5;"/>
   </g>
   <g id="line2d_2">
    <path clip-path="url(#p6a4ae4428d)" d="
M182.801 15.6612
L182.801 109.628" style="fill:none;stroke:#808080;stroke-dasharray:1.000000,3.000000;stroke-dashoffset:0.0;stroke-linecap:butt;stroke-width:0.2;"/>
   </g>
   <g id="line2d_3">
    <path clip-path="url(#p6a4ae4428d)" d="
M182.801 66.56
L182.801 68.9092" style="fill:none;stroke:#000000;stroke-width:0.5;"/>
   </g>
   <g id="line2d_4">
    <path clip-path="url(#p6a4ae4428d)" d="
M297.246 15.6612
L297.246 109.628" style="fill:none;stroke:#808080;stroke-dasharray:1.000000,3.000000;stroke-dashoffset:0.0;stroke-linecap:butt;stroke-width:0.2;"/>
   </g>
   <g id="line2d_5">
    <path clip-path="url(#p6a4ae4428d)" d="
M297.246 66.56
L297.246 68.9092" style="fill:none;stroke:#000000;stroke-width:0.5;"/>
   </g>
   <g id="line2d_6">
    <path clip-path="url(#p6a4ae4428d)" d="
M411.692 15.6612
L411.692 109.628" style="fill:none;stroke:#808080;stroke-dasharray:1.000000,3.000000;stroke-dashoffset:0.0;stroke-linecap:butt;stroke-width:0.2;"/>
   </g>
   <g id="line2d_7">
    <path clip-path="url(#p6a4ae4428d)" d="
M411.692 66.56
L411.692 68.9092" style="fill:none;stroke:#000000;stroke-width:0.5;"/>
   </g>
   <g id="line2d_8">
    <path clip-path="url(#p6a4ae4428d)" d="
M526.137 15.6612
L526.137 109.628" style="fill:none;stroke:#808080;stroke-dasharray:1.000000,3.000000;stroke-dashoffset:0.0;stroke-linecap:butt;stroke-width:0.2;"/>
   </g>
   <g id="line2d_9">
    <path clip-path="url(#p6a4ae4428d)" d="
M526.137 66.56
L526.137 68.9092" style="fill:none;stroke:#000000;stroke-width:0.5;"/>
   </g>
   <g id="line2d_10">
    <path clip-path="url(#p6a4ae4428d)" d="
M640.583 15.6612
L640.583 109.628" style="fill:none;stroke:#808080;stroke-dasharray:1.000000,3.000000;stroke-dashoffset:0.0;stroke-linecap:butt;stroke-width:0.2;"/>
   </g>
   <g id="line2d_11">
    <path clip-path="url(#p6a4ae4428d)" d="
M640.583 66.56
L640.583 68.9092" style="fill:none;stroke:#000000;stroke-width:0.5;"/>
   </g>
   <g id="line2d_12">
    <path clip-path="url(#p6a4ae4428d)" d="
M714.017 15.6612
L714.017 109.628" style="fill:none;stroke:#808080;stroke-dasharray:1.000000,3.000000;stroke-dashoffset:0.0;stroke-linecap:butt;stroke-width:0.2;"/>
   </g>
   <g id="line2d_13">
    <path clip-path="url(#p6a4ae4428d)" d="
M714.017 66.56
L714.017 68.9092" style="fill:none;stroke:#000000;stroke-width:0.5;"/>
   </g>
   <g id="text_1">
    <!-- 0.0 -->
    <defs>
     <path d="
M31.7812 66.4062
Q24.1719 66.4062 20.3281 58.9062
Q16.5 51.4219 16.5 36.375
Q16.5 21.3906 20.3281 13.8906
Q24.1719 6.39062 31.7812 6.39062
Q39.4531 6.39062 43.2812 13.8906
Q47.125 21.3906 47.125 36.375
Q47.125 51.4219 43.2812 58.9062
Q39.4531 66.4062 31.7812 66.4062
M31.7812 74.2188
Q44.0469 74.2188 50.5156 64.5156
Q56.9844 54.8281 56.9844 36.375
Q56.9844 17.9688 50.5156 8.26562
Q44.0469 -1.42188 31.7812 -1.42188
Q19.5312 -1.42188 13.0625 8.26562
Q6.59375 17.9688 6.59375 36.375
Q6.59375 54.8281 13.0625 64.5156
Q19.5312 74.2188 31.7812 74.2188" id="DejaVuSans-30"/>
     <path d="
M10.6875 12.4062
L21 12.4062
L21 0
L10.6875 0
z
" id="DejaVuSans-2e"/>
    </defs>
    <g transform="translate(184.67568 74.8466764706)scale(0.08 -0.08)">
     <use xlink:href="#DejaVuSans-30"/>
     <use x="63.623046875" xlink:href="#DejaVuSans-2e"/>
     <use x="95.41015625" xlink:href="#DejaVuSans-30"/>
    </g>
   </g>
   <g id="text_2">
    <!-- 1.0 -->
    <defs>
     <path d="
M12.4062 8.29688
L28.5156 8.29688
L28.5156 63.9219
L10.9844 60.4062
L10.9844 69.3906
L28.4219 72.9062
L38.2812 72.9062
L38.2812 8.29688
L54.3906 8.29688
L54.3906 0
L12.4062 0
z
" id="DejaVuSans-31"/>
    </defs>
    <g transform="translate(299.121140366 74.8466764706)scale(0.08 -0.08)">
     <use xlink:href="#DejaVuSans-31"/>
     <use x="63.623046875" xlink:href="#DejaVuSans-2e"/>
     <use x="95.41015625" xlink:href="#DejaVuSans-30"/>
    </g>
   </g>
   <g id="text_3">
    <!-- 2.0 -->
    <defs>
     <path d="
M19.1875 8.29688
L53.6094 8.29688
L53.6094 0
L7.32812 0
L7.32812 8.29688
Q12.9375 14.1094 22.625 23.8906
Q32.3281 33.6875 34.8125 36.5312
Q39.5469 41.8438 41.4219 45.5312
Q43.3125 49.2188 43.3125 52.7812
Q43.3125 58.5938 39.2344 62.25
Q35.1562 65.9219 28.6094 65.9219
Q23.9688 65.9219 18.8125 64.3125
Q13.6719 62.7031 7.8125 59.4219
L7.8125 69.3906
Q13.7656 71.7812 18.9375 73
Q24.125 74.2188 28.4219 74.2188
Q39.75 74.2188 46.4844 68.5469
Q53.2188 62.8906 53.2188 53.4219
Q53.2188 48.9219 51.5312 44.8906
Q49.8594 40.875 45.4062 35.4062
Q44.1875 33.9844 37.6406 27.2188
Q31.1094 20.4531 19.1875 8.29688" id="DejaVuSans-32"/>
    </defs>
    <g transform="translate(413.566600733 74.8466764706)scale(0.08 -0.08)">
     <use xlink:href="#DejaVuSans-32"/>
     <use x="63.623046875" xlink:href="#DejaVuSans-2e"/>
     <use x="95.41015625" xlink:href="#DejaVuSans-30"/>
    </g>
   </g>
   <g id="text_4">
    <!-- 3.0 -->
    <defs>
     <path d="
M40.5781 39.3125
Q47.6562 37.7969 51.625 33
Q55.6094 28.2188 55.6094 21.1875
Q55.6094 10.4062 48.1875 4.48438
Q40.7656 -1.42188 27.0938 -1.42188
Q22.5156 -1.42188 17.6562 -0.515625
Q12.7969 0.390625 7.625 2.20312
L7.625 11.7188
Q11.7188 9.32812 16.5938 8.10938
Q21.4844 6.89062 26.8125 6.89062
Q36.0781 6.89062 40.9375 10.5469
Q45.7969 14.2031 45.7969 21.1875
Q45.7969 27.6406 41.2812 31.2656
Q36.7656 34.9062 28.7188 34.9062
L20.2188 34.9062
L20.2188 43.0156
L29.1094 43.0156
Q36.375 43.0156 40.2344 45.9219
Q44.0938 48.8281 44.0938 54.2969
Q44.0938 59.9062 40.1094 62.9062
Q36.1406 65.9219 28.7188 65.9219
Q24.6562 65.9219 20.0156 65.0312
Q15.375 64.1562 9.8125 62.3125
L9.8125 71.0938
Q15.4375 72.6562 20.3438 73.4375
Q25.25 74.2188 29.5938 74.2188
Q40.8281 74.2188 47.3594 69.1094
Q53.9062 64.0156 53.9062 55.3281
Q53.9062 49.2656 50.4375 45.0938
Q46.9688 40.9219 40.5781 39.3125" id="DejaVuSans-33"/>
    </defs>
    <g transform="translate(528.012061099 74.8466764706)scale(0.08 -0.08)">
     <use xlink:href="#DejaVuSans-33"/>
     <use x="63.623046875" xlink:href="#DejaVuSans-2e"/>
     <use x="95.41015625" xlink:href="#DejaVuSans-30"/>
    </g>
   </g>
   <g id="text_5">
    <!-- 4.0 -->
    <defs>
     <path d="
M37.7969 64.3125
L12.8906 25.3906
L37.7969 25.3906
z

M35.2031 72.9062
L47.6094 72.9062
L47.6094 25.3906
L58.0156 25.3906
L58.0156 17.1875
L47.6094 17.1875
L47.6094 0
L37.7969 0
L37.7969 17.1875
L4.89062 17.1875
L4.89062 26.7031
z
" id="DejaVuSans-34"/>
    </defs>
    <g transform="translate(642.457521465 74.8466764706)scale(0.08 -0.08)">
     <use xlink:href="#DejaVuSans-34"/>
     <use x="63.623046875" xlink:href="#DejaVuSans-2e"/>
     <use x="95.41015625" xlink:href="#DejaVuSans-30"/>
    </g>
   </g>
   <g id="text_6">
    <!-- 4.64 -->
    <defs>
     <path d="
M33.0156 40.375
Q26.375 40.375 22.4844 35.8281
Q18.6094 31.2969 18.6094 23.3906
Q18.6094 15.5312 22.4844 10.9531
Q26.375 6.39062 33.0156 6.39062
Q39.6562 6.39062 43.5312 10.9531
Q47.4062 15.5312 47.4062 23.3906
Q47.4062 31.2969 43.5312 35.8281
Q39.6562 40.375 33.0156 40.375
M52.5938 71.2969
L52.5938 62.3125
Q48.875 64.0625 45.0938 64.9844
Q41.3125 65.9219 37.5938 65.9219
Q27.8281 65.9219 22.6719 59.3281
Q17.5312 52.7344 16.7969 39.4062
Q19.6719 43.6562 24.0156 45.9219
Q28.375 48.1875 33.5938 48.1875
Q44.5781 48.1875 50.9531 41.5156
Q57.3281 34.8594 57.3281 23.3906
Q57.3281 12.1562 50.6875 5.35938
Q44.0469 -1.42188 33.0156 -1.42188
Q20.3594 -1.42188 13.6719 8.26562
Q6.98438 17.9688 6.98438 36.375
Q6.98438 53.6562 15.1875 63.9375
Q23.3906 74.2188 37.2031 74.2188
Q40.9219 74.2188 44.7031 73.4844
Q48.4844 72.75 52.5938 71.2969" id="DejaVuSans-36"/>
    </defs>
    <g transform="translate(715.89168 74.8466764706)scale(0.08 -0.08)">
     <use xlink:href="#DejaVuSans-34"/>
     <use x="63.623046875" xlink:href="#DejaVuSans-2e"/>
     <use x="95.41015625" xlink:href="#DejaVuSans-36"/>
     <use x="159.033203125" xlink:href="#DejaVuSans-34"/>
    </g>
   </g>
   <g id="text_7">
    <!-- Ecoli_0920_Taxon005_ -->
    <defs>
     <path d="
M30.6094 48.3906
Q23.3906 48.3906 19.1875 42.75
Q14.9844 37.1094 14.9844 27.2969
Q14.9844 17.4844 19.1562 11.8438
Q23.3438 6.20312 30.6094 6.20312
Q37.7969 6.20312 41.9844 11.8594
Q46.1875 17.5312 46.1875 27.2969
Q46.1875 37.0156 41.9844 42.7031
Q37.7969 48.3906 30.6094 48.3906
M30.6094 56
Q42.3281 56 49.0156 48.375
Q55.7188 40.7656 55.7188 27.2969
Q55.7188 13.875 49.0156 6.21875
Q42.3281 -1.42188 30.6094 -1.42188
Q18.8438 -1.42188 12.1719 6.21875
Q5.51562 13.875 5.51562 27.2969
Q5.51562 40.7656 12.1719 48.375
Q18.8438 56 30.6094 56" id="DejaVuSans-6f"/>
     <path d="
M54.8906 33.0156
L54.8906 0
L45.9062 0
L45.9062 32.7188
Q45.9062 40.4844 42.875 44.3281
Q39.8438 48.1875 33.7969 48.1875
Q26.5156 48.1875 22.3125 43.5469
Q18.1094 38.9219 18.1094 30.9062
L18.1094 0
L9.07812 0
L9.07812 54.6875
L18.1094 54.6875
L18.1094 46.1875
Q21.3438 51.125 25.7031 53.5625
Q30.0781 56 35.7969 56
Q45.2188 56 50.0469 50.1719
Q54.8906 44.3438 54.8906 33.0156" id="DejaVuSans-6e"/>
     <path d="
M50.9844 -16.6094
L50.9844 -23.5781
L-0.984375 -23.5781
L-0.984375 -16.6094
z
" id="DejaVuSans-5f"/>
     <path d="
M9.42188 75.9844
L18.4062 75.9844
L18.4062 0
L9.42188 0
z
" id="DejaVuSans-6c"/>
     <path d="
M9.8125 72.9062
L55.9062 72.9062
L55.9062 64.5938
L19.6719 64.5938
L19.6719 43.0156
L54.3906 43.0156
L54.3906 34.7188
L19.6719 34.7188
L19.6719 8.29688
L56.7812 8.29688
L56.7812 0
L9.8125 0
z
" id="DejaVuSans-45"/>
     <path d="
M10.7969 72.9062
L49.5156 72.9062
L49.5156 64.5938
L19.8281 64.5938
L19.8281 46.7344
Q21.9688 47.4688 24.1094 47.8281
Q26.2656 48.1875 28.4219 48.1875
Q40.625 48.1875 47.75 41.5
Q54.8906 34.8125 54.8906 23.3906
Q54.8906 11.625 47.5625 5.09375
Q40.2344 -1.42188 26.9062 -1.42188
Q22.3125 -1.42188 17.5469 -0.640625
Q12.7969 0.140625 7.71875 1.70312
L7.71875 11.625
Q12.1094 9.23438 16.7969 8.0625
Q21.4844 6.89062 26.7031 6.89062
Q35.1562 6.89062 40.0781 11.3281
Q45.0156 15.7656 45.0156 23.3906
Q45.0156 31 40.0781 35.4375
Q35.1562 39.8906 26.7031 39.8906
Q22.75 39.8906 18.8125 39.0156
Q14.8906 38.1406 10.7969 36.2812
z
" id="DejaVuSans-35"/>
     <path d="
M54.8906 54.6875
L35.1094 28.0781
L55.9062 0
L45.3125 0
L29.3906 21.4844
L13.4844 0
L2.875 0
L24.125 28.6094
L4.6875 54.6875
L15.2812 54.6875
L29.7812 35.2031
L44.2812 54.6875
z
" id="DejaVuSans-78"/>
     <path d="
M9.42188 54.6875
L18.4062 54.6875
L18.4062 0
L9.42188 0
z

M9.42188 75.9844
L18.4062 75.9844
L18.4062 64.5938
L9.42188 64.5938
z
" id="DejaVuSans-69"/>
     <path d="
M10.9844 1.51562
L10.9844 10.5
Q14.7031 8.73438 18.5 7.8125
Q22.3125 6.89062 25.9844 6.89062
Q35.75 6.89062 40.8906 13.4531
Q46.0469 20.0156 46.7812 33.4062
Q43.9531 29.2031 39.5938 26.9531
Q35.25 24.7031 29.9844 24.7031
Q19.0469 24.7031 12.6719 31.3125
Q6.29688 37.9375 6.29688 49.4219
Q6.29688 60.6406 12.9375 67.4219
Q19.5781 74.2188 30.6094 74.2188
Q43.2656 74.2188 49.9219 64.5156
Q56.5938 54.8281 56.5938 36.375
Q56.5938 19.1406 48.4062 8.85938
Q40.2344 -1.42188 26.4219 -1.42188
Q22.7031 -1.42188 18.8906 -0.6875
Q15.0938 0.046875 10.9844 1.51562
M30.6094 32.4219
Q37.25 32.4219 41.125 36.9531
Q45.0156 41.5 45.0156 49.4219
Q45.0156 57.2812 41.125 61.8438
Q37.25 66.4062 30.6094 66.4062
Q23.9688 66.4062 20.0938 61.8438
Q16.2188 57.2812 16.2188 49.4219
Q16.2188 41.5 20.0938 36.9531
Q23.9688 32.4219 30.6094 32.4219" id="DejaVuSans-39"/>
     <path d="
M34.2812 27.4844
Q23.3906 27.4844 19.1875 25
Q14.9844 22.5156 14.9844 16.5
Q14.9844 11.7188 18.1406 8.90625
Q21.2969 6.10938 26.7031 6.10938
Q34.1875 6.10938 38.7031 11.4062
Q43.2188 16.7031 43.2188 25.4844
L43.2188 27.4844
z

M52.2031 31.2031
L52.2031 0
L43.2188 0
L43.2188 8.29688
Q40.1406 3.32812 35.5469 0.953125
Q30.9531 -1.42188 24.3125 -1.42188
Q15.9219 -1.42188 10.9531 3.29688
Q6 8.01562 6 15.9219
Q6 25.1406 12.1719 29.8281
Q18.3594 34.5156 30.6094 34.5156
L43.2188 34.5156
L43.2188 35.4062
Q43.2188 41.6094 39.1406 45
Q35.0625 48.3906 27.6875 48.3906
Q23 48.3906 18.5469 47.2656
Q14.1094 46.1406 10.0156 43.8906
L10.0156 52.2031
Q14.9375 54.1094 19.5781 55.0469
Q24.2188 56 28.6094 56
Q40.4844 56 46.3438 49.8438
Q52.2031 43.7031 52.2031 31.2031" id="DejaVuSans-61"/>
     <path d="
M48.7812 52.5938
L48.7812 44.1875
Q44.9688 46.2969 41.1406 47.3438
Q37.3125 48.3906 33.4062 48.3906
Q24.6562 48.3906 19.8125 42.8438
Q14.9844 37.3125 14.9844 27.2969
Q14.9844 17.2812 19.8125 11.7344
Q24.6562 6.20312 33.4062 6.20312
Q37.3125 6.20312 41.1406 7.25
Q44.9688 8.29688 48.7812 10.4062
L48.7812 2.09375
Q45.0156 0.34375 40.9844 -0.53125
Q36.9688 -1.42188 32.4219 -1.42188
Q20.0625 -1.42188 12.7812 6.34375
Q5.51562 14.1094 5.51562 27.2969
Q5.51562 40.6719 12.8594 48.3281
Q20.2188 56 33.0156 56
Q37.1562 56 41.1094 55.1406
Q45.0625 54.2969 48.7812 52.5938" id="DejaVuSans-63"/>
     <path d="
M-0.296875 72.9062
L61.375 72.9062
L61.375 64.5938
L35.5 64.5938
L35.5 0
L25.5938 0
L25.5938 64.5938
L-0.296875 64.5938
z
" id="DejaVuSans-54"/>
    </defs>
    <g transform="translate(387.471378125 56.7121636029)scale(0.11 -0.11)">
     <use xlink:href="#DejaVuSans-45"/>
     <use x="63.18359375" xlink:href="#DejaVuSans-63"/>
     <use x="118.1640625" xlink:href="#DejaVuSans-6f"/>
     <use x="179.345703125" xlink:href="#DejaVuSans-6c"/>
     <use x="207.12890625" xlink:href="#DejaVuSans-69"/>
     <use x="234.912109375" xlink:href="#DejaVuSans-5f"/>
     <use x="284.912109375" xlink:href="#DejaVuSans-30"/>
     <use x="348.53515625" xlink:href="#DejaVuSans-39"/>
     <use x="412.158203125" xlink:href="#DejaVuSans-32"/>
     <use x="475.78125" xlink:href="#DejaVuSans-30"/>
     <use x="539.404296875" xlink:href="#DejaVuSans-5f"/>
     <use x="589.404296875" xlink:href="#DejaVuSans-54"/>
     <use x="633.98828125" xlink:href="#DejaVuSans-61"/>
     <use x="695.267578125" xlink:href="#DejaVuSans-78"/>
     <use x="751.322265625" xlink:href="#DejaVuSans-6f"/>
     <use x="812.50390625" xlink:href="#DejaVuSans-6e"/>
     <use x="875.8828125" xlink:href="#DejaVuSans-30"/>
     <use x="939.505859375" xlink:href="#DejaVuSans-30"/>
     <use x="1003.12890625" xlink:href="#DejaVuSans-35"/>
     <use x="1066.75195312" xlink:href="#DejaVuSans-5f"/>
    </g>
   </g>
   <g id="text_8">
    <!-- Genome, Mb -->
    <defs>
     <path d="
M9.8125 72.9062
L24.5156 72.9062
L43.1094 23.2969
L61.8125 72.9062
L76.5156 72.9062
L76.5156 0
L66.8906 0
L66.8906 64.0156
L48.0938 14.0156
L38.1875 14.0156
L19.3906 64.0156
L19.3906 0
L9.8125 0
z
" id="DejaVuSans-4d"/>
     <path d="
M11.7188 12.4062
L22.0156 12.4062
L22.0156 4
L14.0156 -11.625
L7.71875 -11.625
L11.7188 4
z
" id="DejaVuSans-2c"/>
     <path d="
M52 44.1875
Q55.375 50.25 60.0625 53.125
Q64.75 56 71.0938 56
Q79.6406 56 84.2812 50.0156
Q88.9219 44.0469 88.9219 33.0156
L88.9219 0
L79.8906 0
L79.8906 32.7188
Q79.8906 40.5781 77.0938 44.375
Q74.3125 48.1875 68.6094 48.1875
Q61.625 48.1875 57.5625 43.5469
Q53.5156 38.9219 53.5156 30.9062
L53.5156 0
L44.4844 0
L44.4844 32.7188
Q44.4844 40.625 41.7031 44.4062
Q38.9219 48.1875 33.1094 48.1875
Q26.2188 48.1875 22.1562 43.5312
Q18.1094 38.875 18.1094 30.9062
L18.1094 0
L9.07812 0
L9.07812 54.6875
L18.1094 54.6875
L18.1094 46.1875
Q21.1875 51.2188 25.4844 53.6094
Q29.7812 56 35.6875 56
Q41.6562 56 45.8281 52.9688
Q50 49.9531 52 44.1875" id="DejaVuSans-6d"/>
     <path id="DejaVuSans-20"/>
     <path d="
M59.5156 10.4062
L59.5156 29.9844
L43.4062 29.9844
L43.4062 38.0938
L69.2812 38.0938
L69.2812 6.78125
Q63.5781 2.73438 56.6875 0.65625
Q49.8125 -1.42188 42 -1.42188
Q24.9062 -1.42188 15.25 8.5625
Q5.60938 18.5625 5.60938 36.375
Q5.60938 54.25 15.25 64.2344
Q24.9062 74.2188 42 74.2188
Q49.125 74.2188 55.5469 72.4531
Q61.9688 70.7031 67.3906 67.2812
L67.3906 56.7812
Q61.9219 61.4219 55.7656 63.7656
Q49.6094 66.1094 42.8281 66.1094
Q29.4375 66.1094 22.7188 58.6406
Q16.0156 51.1719 16.0156 36.375
Q16.0156 21.625 22.7188 14.1562
Q29.4375 6.6875 42.8281 6.6875
Q48.0469 6.6875 52.1406 7.59375
Q56.25 8.5 59.5156 10.4062" id="DejaVuSans-47"/>
     <path d="
M56.2031 29.5938
L56.2031 25.2031
L14.8906 25.2031
Q15.4844 15.9219 20.4844 11.0625
Q25.4844 6.20312 34.4219 6.20312
Q39.5938 6.20312 44.4531 7.46875
Q49.3125 8.73438 54.1094 11.2812
L54.1094 2.78125
Q49.2656 0.734375 44.1875 -0.34375
Q39.1094 -1.42188 33.8906 -1.42188
Q20.7969 -1.42188 13.1562 6.1875
Q5.51562 13.8125 5.51562 26.8125
Q5.51562 40.2344 12.7656 48.1094
Q20.0156 56 32.3281 56
Q43.3594 56 49.7812 48.8906
Q56.2031 41.7969 56.2031 29.5938
M47.2188 32.2344
Q47.125 39.5938 43.0938 43.9844
Q39.0625 48.3906 32.4219 48.3906
Q24.9062 48.3906 20.3906 44.1406
Q15.875 39.8906 15.1875 32.1719
z
" id="DejaVuSans-65"/>
     <path d="
M48.6875 27.2969
Q48.6875 37.2031 44.6094 42.8438
Q40.5312 48.4844 33.4062 48.4844
Q26.2656 48.4844 22.1875 42.8438
Q18.1094 37.2031 18.1094 27.2969
Q18.1094 17.3906 22.1875 11.75
Q26.2656 6.10938 33.4062 6.10938
Q40.5312 6.10938 44.6094 11.75
Q48.6875 17.3906 48.6875 27.2969
M18.1094 46.3906
Q20.9531 51.2656 25.2656 53.625
Q29.5938 56 35.5938 56
Q45.5625 56 51.7812 48.0938
Q58.0156 40.1875 58.0156 27.2969
Q58.0156 14.4062 51.7812 6.48438
Q45.5625 -1.42188 35.5938 -1.42188
Q29.5938 -1.42188 25.2656 0.953125
Q20.9531 3.32812 18.1094 8.20312
L18.1094 0
L9.07812 0
L9.07812 75.9844
L18.1094 75.9844
z
" id="DejaVuSans-62"/>
    </defs>
    <g transform="translate(413.738175 87.0556930147)scale(0.11 -0.11)">
     <use xlink:href="#DejaVuSans-47"/>
     <use x="77.490234375" xlink:href="#DejaVuSans-65"/>
     <use x="139.013671875" xlink:href="#DejaVuSans-6e"/>
     <use x="202.392578125" xlink:href="#DejaVuSans-6f"/>
     <use x="263.57421875" xlink:href="#DejaVuSans-6d"/>
     <use x="360.986328125" xlink:href="#DejaVuSans-65"/>
     <use x="422.509765625" xlink:href="#DejaVuSans-2c"/>
     <use x="454.296875" xlink:href="#DejaVuSans-20"/>
     <use x="486.083984375" xlink:href="#DejaVuSans-4d"/>
     <use x="572.36328125" xlink:href="#DejaVuSans-62"/>
    </g>
   </g>
   <g id="text_9">
    <!-- final.contigs -->
    <defs>
     <path d="
M37.1094 75.9844
L37.1094 68.5
L28.5156 68.5
Q23.6875 68.5 21.7969 66.5469
Q19.9219 64.5938 19.9219 59.5156
L19.9219 54.6875
L34.7188 54.6875
L34.7188 47.7031
L19.9219 47.7031
L19.9219 0
L10.8906 0
L10.8906 47.7031
L2.29688 47.7031
L2.29688 54.6875
L10.8906 54.6875
L10.8906 58.5
Q10.8906 67.625 15.1406 71.7969
Q19.3906 75.9844 28.6094 75.9844
z
" id="DejaVuSans-66"/>
     <path d="
M18.3125 70.2188
L18.3125 54.6875
L36.8125 54.6875
L36.8125 47.7031
L18.3125 47.7031
L18.3125 18.0156
Q18.3125 11.3281 20.1406 9.42188
Q21.9688 7.51562 27.5938 7.51562
L36.8125 7.51562
L36.8125 0
L27.5938 0
Q17.1875 0 13.2344 3.875
Q9.28125 7.76562 9.28125 18.0156
L9.28125 47.7031
L2.6875 47.7031
L2.6875 54.6875
L9.28125 54.6875
L9.28125 70.2188
z
" id="DejaVuSans-74"/>
     <path d="
M44.2812 53.0781
L44.2812 44.5781
Q40.4844 46.5312 36.375 47.5
Q32.2812 48.4844 27.875 48.4844
Q21.1875 48.4844 17.8438 46.4375
Q14.5 44.3906 14.5 40.2812
Q14.5 37.1562 16.8906 35.375
Q19.2812 33.5938 26.5156 31.9844
L29.5938 31.2969
Q39.1562 29.25 43.1875 25.5156
Q47.2188 21.7812 47.2188 15.0938
Q47.2188 7.46875 41.1875 3.01562
Q35.1562 -1.42188 24.6094 -1.42188
Q20.2188 -1.42188 15.4531 -0.5625
Q10.6875 0.296875 5.42188 2
L5.42188 11.2812
Q10.4062 8.6875 15.2344 7.39062
Q20.0625 6.10938 24.8125 6.10938
Q31.1562 6.10938 34.5625 8.28125
Q37.9844 10.4531 37.9844 14.4062
Q37.9844 18.0625 35.5156 20.0156
Q33.0625 21.9688 24.7031 23.7812
L21.5781 24.5156
Q13.2344 26.2656 9.51562 29.9062
Q5.8125 33.5469 5.8125 39.8906
Q5.8125 47.6094 11.2812 51.7969
Q16.75 56 26.8125 56
Q31.7812 56 36.1719 55.2656
Q40.5781 54.5469 44.2812 53.0781" id="DejaVuSans-73"/>
     <path d="
M45.4062 27.9844
Q45.4062 37.75 41.375 43.1094
Q37.3594 48.4844 30.0781 48.4844
Q22.8594 48.4844 18.8281 43.1094
Q14.7969 37.75 14.7969 27.9844
Q14.7969 18.2656 18.8281 12.8906
Q22.8594 7.51562 30.0781 7.51562
Q37.3594 7.51562 41.375 12.8906
Q45.4062 18.2656 45.4062 27.9844
M54.3906 6.78125
Q54.3906 -7.17188 48.1875 -13.9844
Q42 -20.7969 29.2031 -20.7969
Q24.4688 -20.7969 20.2656 -20.0938
Q16.0625 -19.3906 12.1094 -17.9219
L12.1094 -9.1875
Q16.0625 -11.3281 19.9219 -12.3438
Q23.7812 -13.375 27.7812 -13.375
Q36.625 -13.375 41.0156 -8.76562
Q45.4062 -4.15625 45.4062 5.17188
L45.4062 9.625
Q42.625 4.78125 38.2812 2.39062
Q33.9375 0 27.875 0
Q17.8281 0 11.6719 7.65625
Q5.51562 15.3281 5.51562 27.9844
Q5.51562 40.6719 11.6719 48.3281
Q17.8281 56 27.875 56
Q33.9375 56 38.2812 53.6094
Q42.625 51.2188 45.4062 46.3906
L45.4062 54.6875
L54.3906 54.6875
z
" id="DejaVuSans-67"/>
    </defs>
    <g transform="translate(105.856725 101.259669118)scale(0.12 -0.12)">
     <use xlink:href="#DejaVuSans-66"/>
     <use x="35.205078125" xlink:href="#DejaVuSans-69"/>
     <use x="62.98828125" xlink:href="#DejaVuSans-6e"/>
     <use x="126.3671875" xlink:href="#DejaVuSans-61"/>
     <use x="187.646484375" xlink:href="#DejaVuSans-6c"/>
     <use x="215.4296875" xlink:href="#DejaVuSans-2e"/>
     <use x="247.216796875" xlink:href="#DejaVuSans-63"/>
     <use x="302.197265625" xlink:href="#DejaVuSans-6f"/>
     <use x="363.37890625" xlink:href="#DejaVuSans-6e"/>
     <use x="426.7578125" xlink:href="#DejaVuSans-74"/>
     <use x="465.966796875" xlink:href="#DejaVuSans-69"/>
     <use x="493.75" xlink:href="#DejaVuSans-67"/>
     <use x="557.2265625" xlink:href="#DejaVuSans-73"/>
    </g>
   </g>
  </g>
 </g>
 <defs>
  <clipPath id="p6a4ae4428d">
   <rect height="117.458823529" width="781.2" x="0.0" y="0.0"/>
  </clipPath>
 </defs>
</svg>
