<?xml version="1.0" encoding="utf-8" standalone="no"?>
<!DOCTYPE svg PUBLIC "-//W3C//DTD SVG 1.1//EN"
  "http://www.w3.org/Graphics/SVG/1.1/DTD/svg11.dtd">
<!-- Created with matplotlib (http://matplotlib.org/) -->
<svg height="117pt" version="1.1" viewBox="0 0 781 117" width="781pt" xmlns="http://www.w3.org/2000/svg" xmlns:xlink="http://www.w3.org/1999/xlink">
 <defs>
  <style type="text/css">
*{stroke-linecap:butt;stroke-linejoin:round;}
  </style>
 </defs>
 <g id="figure_1">
  <g id="patch_1">
   <path d="
M0 117.459
L781.2 117.459
L781.2 0
L0 0
z
" style="fill:#ffffff;"/>
  </g>
  <g id="axes_1">
   <g id="patch_2">
    <path clip-path="url(#p6a4ae4428d)" d="
M149.99 117.459
L720.266 117.459
L720.266 15.6612
L149.99 15.6612
z
" style="fill:#ffffff;"/>
   </g>
   <g id="patch_3">
    <path clip-path="url(#p6a4ae4428d)" d="
M182.823 106.888
L183.657 106.888
L183.657 95.1416
L182.823 95.1416
z
" style="fill:#4daf4a;"/>
   </g>
   <g id="patch_4">
    <path clip-path="url(#p6a4ae4428d)" d="
M183.658 105.321
L184.4 105.321
L184.4 93.5755
L183.658 93.5755
z
" style="fill:#40cf40;"/>
   </g>
   <g id="patch_5">
    <path clip-path="url(#p6a4ae4428d)" d="
M184.51 106.888
L184.823 106.888
L184.823 95.1416
L184.51 95.1416
z
" style="fill:#4daf4a;"/>
   </g>
   <g id="patch_6">
    <path clip-path="url(#p6a4ae4428d)" d="
M184.823 105.321
L186.531 105.321
L186.531 93.5755
L184.823 93.5755
z
" style="fill:#40cf40;"/>
   </g>
   <g id="patch_7">
    <path clip-path="url(#p6a4ae4428d)" d="
M186.602 106.888
L187.258 106.888
L187.258 95.1416
L186.602 95.1416
z
" style="fill:#4daf4a;"/>
   </g>
   <g id="patch_8">
    <path clip-path="url(#p6a4ae4428d)" d="
M187.258 105.321
L187.544 105.321
L187.544 93.5755
L187.258 93.5755
z
" style="fill:#40cf40;"/>
   </g>
   <g id="patch_9">
    <path clip-path="url(#p6a4ae4428d)" d="
M187.545 106.888
L187.702 106.888
L187.702 95.1416
L187.545 95.1416
z
" style="fill:#4daf4a;"/>
   </g>
   <g id="patch_10">
    <path clip-path="url(#p6a4ae4428d)" d="
M187.702 105.321
L187.919 105.321
L187.919 93.5755
L187.702 93.5755
z
" style="fill:#40cf40;"/>
   </g>
   <g id="patch_11">
    <path clip-path="url(#p6a4ae4428d)" d="
M187.92 106.888
L188.728 106.888
L188.728 95.1416
L187.92 95.1416
z
" style="fill:#4daf4a;"/>
   </g>
   <g id="patch_12">
    <path clip-path="url(#p6a4ae4428d)" d="
M188.729 105.321
L192.757 105.321
L192.757 93.5755
L188.729 93.5755
z
" style="fill:#40cf40;"/>
   </g>
   <g id="patch_13">
    <path clip-path="url(#p6a4ae4428d)" d="
M192.866 106.888
L196.969 106.888
L196.969 95.1416
L192.866 95.1416
z
" style="fill:#4daf4a;"/>
   </g>
   <g id="patch_14">
    <path clip-path="url(#p6a4ae4428d)" d="
M196.969 105.321
L197.298 105.321
L197.298 93.5755
L196.969 93.5755
z
" style="fill:#40cf40;"/>
   </g>
   <g id="patch_15">
    <path clip-path="url(#p6a4ae4428d)" d="
M197.37 106.888
L200.629 106.888
L200.629 95.1416
L197.37 95.1416
z
" style="fill:#4daf4a;"/>
   </g>
   <g id="patch_16">
    <path clip-path="url(#p6a4ae4428d)" d="
M200.63 105.321
L200.857 105.321
L200.857 93.5755
L200.63 93.5755
z
" style="fill:#40cf40;"/>
   </g>
   <g id="patch_17">
    <path clip-path="url(#p6a4ae4428d)" d="
M200.857 106.888
L201.321 106.888
L201.321 95.1416
L200.857 95.1416
z
" style="fill:#4daf4a;"/>
   </g>
   <g id="patch_18">
    <path clip-path="url(#p6a4ae4428d)" d="
M201.321 105.321
L201.508 105.321
L201.508 93.5755
L201.321 93.5755
z
" style="fill:#40cf40;"/>
   </g>
   <g id="patch_19">
    <path clip-path="url(#p6a4ae4428d)" d="
M201.509 106.888
L203.822 106.888
L203.822 95.1416
L201.509 95.1416
z
" style="fill:#4daf4a;"/>
   </g>
   <g id="patch_20">
    <path clip-path="url(#p6a4ae4428d)" d="
M203.822 105.321
L205.615 105.321
L205.615 93.5755
L203.822 93.5755
z
" style="fill:#40cf40;"/>
   </g>
   <g id="patch_21">
    <path clip-path="url(#p6a4ae4428d)" d="
M205.616 106.888
L209.671 106.888
L209.671 95.1416
L205.616 95.1416
z
" style="fill:#4daf4a;"/>
   </g>
   <g id="patch_22">
    <path clip-path="url(#p6a4ae4428d)" d="
M209.706 105.321
L211.198 105.321
L211.198 93.5755
L209.706 93.5755
z
" style="fill:#40cf40;"/>
   </g>
   <g id="patch_23">
    <path clip-path="url(#p6a4ae4428d)" d="
M211.199 106.888
L213.21 106.888
L213.21 95.1416
L211.199 95.1416
z
" style="fill:#4daf4a;"/>
   </g>
   <g id="patch_24">
    <path clip-path="url(#p6a4ae4428d)" d="
M213.21 105.321
L213.832 105.321
L213.832 93.5755
L213.21 93.5755
z
" style="fill:#40cf40;"/>
   </g>
   <g id="patch_25">
    <path clip-path="url(#p6a4ae4428d)" d="
M213.908 106.888
L214.852 106.888
L214.852 95.1416
L213.908 95.1416
z
" style="fill:#4daf4a;"/>
   </g>
   <g id="patch_26">
    <path clip-path="url(#p6a4ae4428d)" d="
M214.852 105.321
L215.016 105.321
L215.016 93.5755
L214.852 93.5755
z
" style="fill:#40cf40;"/>
   </g>
   <g id="patch_27">
    <path clip-path="url(#p6a4ae4428d)" d="
M215.016 106.888
L215.474 106.888
L215.474 95.1416
L215.016 95.1416
z
" style="fill:#4daf4a;"/>
   </g>
   <g id="patch_28">
    <path clip-path="url(#p6a4ae4428d)" d="
M215.474 105.321
L215.869 105.321
L215.869 93.5755
L215.474 93.5755
z
" style="fill:#40cf40;"/>
   </g>
   <g id="patch_29">
    <path clip-path="url(#p6a4ae4428d)" d="
M215.87 106.888
L217.975 106.888
L217.975 95.1416
L215.87 95.1416
z
" style="fill:#4daf4a;"/>
   </g>
   <g id="patch_30">
    <path clip-path="url(#p6a4ae4428d)" d="
M217.976 105.321
L218.156 105.321
L218.156 93.5755
L217.976 93.5755
z
" style="fill:#40cf40;"/>
   </g>
   <g id="patch_31">
    <path clip-path="url(#p6a4ae4428d)" d="
M218.157 106.888
L218.38 106.888
L218.38 95.1416
L218.157 95.1416
z
" style="fill:#4daf4a;"/>
   </g>
   <g id="patch_32">
    <path clip-path="url(#p6a4ae4428d)" d="
M218.38 105.321
L218.626 105.321
L218.626 93.5755
L218.38 93.5755
z
" style="fill:#40cf40;"/>
   </g>
   <g id="patch_33">
    <path clip-path="url(#p6a4ae4428d)" d="
M218.627 106.888
L219.286 106.888
L219.286 95.1416
L218.627 95.1416
z
" style="fill:#4daf4a;"/>
   </g>
   <g id="patch_34">
    <path clip-path="url(#p6a4ae4428d)" d="
M219.386 105.321
L219.597 105.321
L219.597 93.5755
L219.386 93.5755
z
" style="fill:#40cf40;"/>
   </g>
   <g id="patch_35">
    <path clip-path="url(#p6a4ae4428d)" d="
M219.598 106.888
L221.525 106.888
L221.525 95.1416
L219.598 95.1416
z
" style="fill:#4daf4a;"/>
   </g>
   <g id="patch_36">
    <path clip-path="url(#p6a4ae4428d)" d="
M221.525 105.321
L221.685 105.321
L221.685 93.5755
L221.525 93.5755
z
" style="fill:#40cf40;"/>
   </g>
   <g id="patch_37">
    <path clip-path="url(#p6a4ae4428d)" d="
M221.686 106.888
L222.474 106.888
L222.474 95.1416
L221.686 95.1416
z
" style="fill:#4daf4a;"/>
   </g>
   <g id="patch_38">
    <path clip-path="url(#p6a4ae4428d)" d="
M222.474 105.321
L223.101 105.321
L223.101 93.5755
L222.474 93.5755
z
" style="fill:#40cf40;"/>
   </g>
   <g id="patch_39">
    <path clip-path="url(#p6a4ae4428d)" d="
M223.253 106.888
L223.482 106.888
L223.482 95.1416
L223.253 95.1416
z
" style="fill:#4daf4a;"/>
   </g>
   <g id="patch_40">
    <path clip-path="url(#p6a4ae4428d)" d="
M223.483 105.321
L229.589 105.321
L229.589 93.5755
L223.483 93.5755
z
" style="fill:#40cf40;"/>
   </g>
   <g id="patch_41">
    <path clip-path="url(#p6a4ae4428d)" d="
M229.59 106.888
L230.009 106.888
L230.009 95.1416
L229.59 95.1416
z
" style="fill:#4daf4a;"/>
   </g>
   <g id="patch_42">
    <path clip-path="url(#p6a4ae4428d)" d="
M230.01 105.321
L230.402 105.321
L230.402 93.5755
L230.01 93.5755
z
" style="fill:#40cf40;"/>
   </g>
   <g id="patch_43">
    <path clip-path="url(#p6a4ae4428d)" d="
M230.584 106.888
L231.274 106.888
L231.274 95.1416
L230.584 95.1416
z
" style="fill:#4daf4a;"/>
   </g>
   <g id="patch_44">
    <path clip-path="url(#p6a4ae4428d)" d="
M231.289 105.321
L232.124 105.321
L232.124 93.5755
L231.289 93.5755
z
" style="fill:#40cf40;"/>
   </g>
   <g id="patch_45">
    <path clip-path="url(#p6a4ae4428d)" d="
M232.124 106.888
L232.771 106.888
L232.771 95.1416
L232.124 95.1416
z
" style="fill:#4daf4a;"/>
   </g>
   <g id="patch_46">
    <path clip-path="url(#p6a4ae4428d)" d="
M232.818 105.321
L234.079 105.321
L234.079 93.5755
L232.818 93.5755
z
" style="fill:#40cf40;"/>
   </g>
   <g id="patch_47">
    <path clip-path="url(#p6a4ae4428d)" d="
M234.079 106.888
L234.639 106.888
L234.639 95.1416
L234.079 95.1416
z
" style="fill:#4daf4a;"/>
   </g>
   <g id="patch_48">
    <path clip-path="url(#p6a4ae4428d)" d="
M234.751 105.321
L235.327 105.321
L235.327 93.5755
L234.751 93.5755
z
" style="fill:#40cf40;"/>
   </g>
   <g id="patch_49">
    <path clip-path="url(#p6a4ae4428d)" d="
M235.478 106.888
L235.821 106.888
L235.821 95.1416
L235.478 95.1416
z
" style="fill:#4daf4a;"/>
   </g>
   <g id="patch_50">
    <path clip-path="url(#p6a4ae4428d)" d="
M235.821 105.321
L236.086 105.321
L236.086 93.5755
L235.821 93.5755
z
" style="fill:#40cf40;"/>
   </g>
   <g id="patch_51">
    <path clip-path="url(#p6a4ae4428d)" d="
M236.086 106.888
L236.344 106.888
L236.344 95.1416
L236.086 95.1416
z
" style="fill:#4daf4a;"/>
   </g>
   <g id="patch_52">
    <path clip-path="url(#p6a4ae4428d)" d="
M236.444 105.321
L236.661 105.321
L236.661 93.5755
L236.444 93.5755
z
" style="fill:#40cf40;"/>
   </g>
   <g id="patch_53">
    <path clip-path="url(#p6a4ae4428d)" d="
M236.787 106.888
L237.584 106.888
L237.584 95.1416
L236.787 95.1416
z
" style="fill:#4daf4a;"/>
   </g>
   <g id="patch_54">
    <path clip-path="url(#p6a4ae4428d)" d="
M237.585 105.321
L237.808 105.321
L237.808 93.5755
L237.585 93.5755
z
" style="fill:#40cf40;"/>
   </g>
   <g id="patch_55">
    <path clip-path="url(#p6a4ae4428d)" d="
M237.808 106.888
L237.985 106.888
L237.985 95.1416
L237.808 95.1416
z
" style="fill:#4daf4a;"/>
   </g>
   <g id="patch_56">
    <path clip-path="url(#p6a4ae4428d)" d="
M237.985 105.321
L238.821 105.321
L238.821 93.5755
L237.985 93.5755
z
" style="fill:#40cf40;"/>
   </g>
   <g id="patch_57">
    <path clip-path="url(#p6a4ae4428d)" d="
M238.822 106.888
L239.268 106.888
L239.268 95.1416
L238.822 95.1416
z
" style="fill:#4daf4a;"/>
   </g>
   <g id="patch_58">
    <path clip-path="url(#p6a4ae4428d)" d="
M239.268 105.321
L240.044 105.321
L240.044 93.5755
L239.268 93.5755
z
" style="fill:#40cf40;"/>
   </g>
   <g id="patch_59">
    <path clip-path="url(#p6a4ae4428d)" d="
M240.298 106.888
L244.512 106.888
L244.512 95.1416
L240.298 95.1416
z
" style="fill:#4daf4a;"/>
   </g>
   <g id="patch_60">
    <path clip-path="url(#p6a4ae4428d)" d="
M244.512 105.321
L244.701 105.321
L244.701 93.5755
L244.512 93.5755
z
" style="fill:#40cf40;"/>
   </g>
   <g id="patch_61">
    <path clip-path="url(#p6a4ae4428d)" d="
M244.701 106.888
L245.821 106.888
L245.821 95.1416
L244.701 95.1416
z
" style="fill:#4daf4a;"/>
   </g>
   <g id="patch_62">
    <path clip-path="url(#p6a4ae4428d)" d="
M245.821 105.321
L246.714 105.321
L246.714 93.5755
L245.821 93.5755
z
" style="fill:#40cf40;"/>
   </g>
   <g id="patch_63">
    <path clip-path="url(#p6a4ae4428d)" d="
M246.715 106.888
L247.004 106.888
L247.004 95.1416
L246.715 95.1416
z
" style="fill:#4daf4a;"/>
   </g>
   <g id="patch_64">
    <path clip-path="url(#p6a4ae4428d)" d="
M247.004 105.321
L247.653 105.321
L247.653 93.5755
L247.004 93.5755
z
" style="fill:#40cf40;"/>
   </g>
   <g id="patch_65">
    <path clip-path="url(#p6a4ae4428d)" d="
M247.653 106.888
L248.196 106.888
L248.196 95.1416
L247.653 95.1416
z
" style="fill:#4daf4a;"/>
   </g>
   <g id="patch_66">
    <path clip-path="url(#p6a4ae4428d)" d="
M248.196 105.321
L248.429 105.321
L248.429 93.5755
L248.196 93.5755
z
" style="fill:#40cf40;"/>
   </g>
   <g id="patch_67">
    <path clip-path="url(#p6a4ae4428d)" d="
M248.429 106.888
L250.298 106.888
L250.298 95.1416
L248.429 95.1416
z
" style="fill:#4daf4a;"/>
   </g>
   <g id="patch_68">
    <path clip-path="url(#p6a4ae4428d)" d="
M250.386 105.321
L251.063 105.321
L251.063 93.5755
L250.386 93.5755
z
" style="fill:#40cf40;"/>
   </g>
   <g id="patch_69">
    <path clip-path="url(#p6a4ae4428d)" d="
M251.171 106.888
L252.29 106.888
L252.29 95.1416
L251.171 95.1416
z
" style="fill:#4daf4a;"/>
   </g>
   <g id="patch_70">
    <path clip-path="url(#p6a4ae4428d)" d="
M252.355 105.321
L253.846 105.321
L253.846 93.5755
L252.355 93.5755
z
" style="fill:#40cf40;"/>
   </g>
   <g id="patch_71">
    <path clip-path="url(#p6a4ae4428d)" d="
M253.961 106.888
L255.526 106.888
L255.526 95.1416
L253.961 95.1416
z
" style="fill:#4daf4a;"/>
   </g>
   <g id="patch_72">
    <path clip-path="url(#p6a4ae4428d)" d="
M255.526 105.321
L255.739 105.321
L255.739 93.5755
L255.526 93.5755
z
" style="fill:#40cf40;"/>
   </g>
   <g id="patch_73">
    <path clip-path="url(#p6a4ae4428d)" d="
M256.367 106.888
L256.589 106.888
L256.589 95.1416
L256.367 95.1416
z
" style="fill:#4daf4a;"/>
   </g>
   <g id="patch_74">
    <path clip-path="url(#p6a4ae4428d)" d="
M256.589 105.321
L258.003 105.321
L258.003 93.5755
L256.589 93.5755
z
" style="fill:#40cf40;"/>
   </g>
   <g id="patch_75">
    <path clip-path="url(#p6a4ae4428d)" d="
M258.003 106.888
L261.231 106.888
L261.231 95.1416
L258.003 95.1416
z
" style="fill:#4daf4a;"/>
   </g>
   <g id="patch_76">
    <path clip-path="url(#p6a4ae4428d)" d="
M261.231 105.321
L261.388 105.321
L261.388 93.5755
L261.231 93.5755
z
" style="fill:#40cf40;"/>
   </g>
   <g id="patch_77">
    <path clip-path="url(#p6a4ae4428d)" d="
M261.403 106.888
L263.882 106.888
L263.882 95.1416
L261.403 95.1416
z
" style="fill:#4daf4a;"/>
   </g>
   <g id="patch_78">
    <path clip-path="url(#p6a4ae4428d)" d="
M263.883 105.321
L264.665 105.321
L264.665 93.5755
L263.883 93.5755
z
" style="fill:#40cf40;"/>
   </g>
   <g id="patch_79">
    <path clip-path="url(#p6a4ae4428d)" d="
M264.666 106.888
L265.48 106.888
L265.48 95.1416
L264.666 95.1416
z
" style="fill:#4daf4a;"/>
   </g>
   <g id="patch_80">
    <path clip-path="url(#p6a4ae4428d)" d="
M265.48 105.321
L266.028 105.321
L266.028 93.5755
L265.48 93.5755
z
" style="fill:#40cf40;"/>
   </g>
   <g id="patch_81">
    <path clip-path="url(#p6a4ae4428d)" d="
M266.046 106.888
L266.283 106.888
L266.283 95.1416
L266.046 95.1416
z
" style="fill:#4daf4a;"/>
   </g>
   <g id="patch_82">
    <path clip-path="url(#p6a4ae4428d)" d="
M266.423 105.321
L267.115 105.321
L267.115 93.5755
L266.423 93.5755
z
" style="fill:#40cf40;"/>
   </g>
   <g id="patch_83">
    <path clip-path="url(#p6a4ae4428d)" d="
M267.174 106.888
L271.092 106.888
L271.092 95.1416
L267.174 95.1416
z
" style="fill:#4daf4a;"/>
   </g>
   <g id="patch_84">
    <path clip-path="url(#p6a4ae4428d)" d="
M271.163 105.321
L272.296 105.321
L272.296 93.5755
L271.163 93.5755
z
" style="fill:#40cf40;"/>
   </g>
   <g id="patch_85">
    <path clip-path="url(#p6a4ae4428d)" d="
M272.296 106.888
L272.49 106.888
L272.49 95.1416
L272.296 95.1416
z
" style="fill:#4daf4a;"/>
   </g>
   <g id="patch_86">
    <path clip-path="url(#p6a4ae4428d)" d="
M272.49 105.321
L274.048 105.321
L274.048 93.5755
L272.49 93.5755
z
" style="fill:#40cf40;"/>
   </g>
   <g id="patch_87">
    <path clip-path="url(#p6a4ae4428d)" d="
M274.049 106.888
L274.211 106.888
L274.211 95.1416
L274.049 95.1416
z
" style="fill:#4daf4a;"/>
   </g>
   <g id="patch_88">
    <path clip-path="url(#p6a4ae4428d)" d="
M274.363 105.321
L275.068 105.321
L275.068 93.5755
L274.363 93.5755
z
" style="fill:#40cf40;"/>
   </g>
   <g id="patch_89">
    <path clip-path="url(#p6a4ae4428d)" d="
M275.246 106.888
L279.717 106.888
L279.717 95.1416
L275.246 95.1416
z
" style="fill:#4daf4a;"/>
   </g>
   <g id="patch_90">
    <path clip-path="url(#p6a4ae4428d)" d="
M279.718 105.321
L279.926 105.321
L279.926 93.5755
L279.718 93.5755
z
" style="fill:#40cf40;"/>
   </g>
   <g id="patch_91">
    <path clip-path="url(#p6a4ae4428d)" d="
M279.926 106.888
L281.026 106.888
L281.026 95.1416
L279.926 95.1416
z
" style="fill:#4daf4a;"/>
   </g>
   <g id="patch_92">
    <path clip-path="url(#p6a4ae4428d)" d="
M281.103 105.321
L282.035 105.321
L282.035 93.5755
L281.103 93.5755
z
" style="fill:#40cf40;"/>
   </g>
   <g id="patch_93">
    <path clip-path="url(#p6a4ae4428d)" d="
M282.13 106.888
L283.957 106.888
L283.957 95.1416
L282.13 95.1416
z
" style="fill:#4daf4a;"/>
   </g>
   <g id="patch_94">
    <path clip-path="url(#p6a4ae4428d)" d="
M283.957 105.321
L285.897 105.321
L285.897 93.5755
L283.957 93.5755
z
" style="fill:#40cf40;"/>
   </g>
   <g id="patch_95">
    <path clip-path="url(#p6a4ae4428d)" d="
M285.897 106.888
L288.685 106.888
L288.685 95.1416
L285.897 95.1416
z
" style="fill:#4daf4a;"/>
   </g>
   <g id="patch_96">
    <path clip-path="url(#p6a4ae4428d)" d="
M289.657 105.321
L295.856 105.321
L295.856 93.5755
L289.657 93.5755
z
" style="fill:#40cf40;"/>
   </g>
   <g id="patch_97">
    <path clip-path="url(#p6a4ae4428d)" d="
M295.941 106.888
L296.604 106.888
L296.604 95.1416
L295.941 95.1416
z
" style="fill:#4daf4a;"/>
   </g>
   <g id="patch_98">
    <path clip-path="url(#p6a4ae4428d)" d="
M296.604 105.321
L296.762 105.321
L296.762 93.5755
L296.604 93.5755
z
" style="fill:#40cf40;"/>
   </g>
   <g id="patch_99">
    <path clip-path="url(#p6a4ae4428d)" d="
M296.762 106.888
L297.147 106.888
L297.147 95.1416
L296.762 95.1416
z
" style="fill:#4daf4a;"/>
   </g>
   <g id="patch_100">
    <path clip-path="url(#p6a4ae4428d)" d="
M297.148 105.321
L298.612 105.321
L298.612 93.5755
L297.148 93.5755
z
" style="fill:#40cf40;"/>
   </g>
   <g id="patch_101">
    <path clip-path="url(#p6a4ae4428d)" d="
M298.786 106.888
L299.056 106.888
L299.056 95.1416
L298.786 95.1416
z
" style="fill:#4daf4a;"/>
   </g>
   <g id="patch_102">
    <path clip-path="url(#p6a4ae4428d)" d="
M299.056 105.321
L299.368 105.321
L299.368 93.5755
L299.056 93.5755
z
" style="fill:#40cf40;"/>
   </g>
   <g id="patch_103">
    <path clip-path="url(#p6a4ae4428d)" d="
M299.368 106.888
L300.07 106.888
L300.07 95.1416
L299.368 95.1416
z
" style="fill:#4daf4a;"/>
   </g>
   <g id="patch_104">
    <path clip-path="url(#p6a4ae4428d)" d="
M300.07 105.321
L302.044 105.321
L302.044 93.5755
L300.07 93.5755
z
" style="fill:#40cf40;"/>
   </g>
   <g id="patch_105">
    <path clip-path="url(#p6a4ae4428d)" d="
M302.103 106.888
L307.761 106.888
L307.761 95.1416
L302.103 95.1416
z
" style="fill:#4daf4a;"/>
   </g>
   <g id="patch_106">
    <path clip-path="url(#p6a4ae4428d)" d="
M307.761 105.321
L309.409 105.321
L309.409 93.5755
L307.761 93.5755
z
" style="fill:#40cf40;"/>
   </g>
   <g id="patch_107">
    <path clip-path="url(#p6a4ae4428d)" d="
M309.62 106.888
L310.122 106.888
L310.122 95.1416
L309.62 95.1416
z
" style="fill:#4daf4a;"/>
   </g>
   <g id="patch_108">
    <path clip-path="url(#p6a4ae4428d)" d="
M310.122 105.321
L310.36 105.321
L310.36 93.5755
L310.122 93.5755
z
" style="fill:#40cf40;"/>
   </g>
   <g id="patch_109">
    <path clip-path="url(#p6a4ae4428d)" d="
M310.36 106.888
L312.682 106.888
L312.682 95.1416
L310.36 95.1416
z
" style="fill:#4daf4a;"/>
   </g>
   <g id="patch_110">
    <path clip-path="url(#p6a4ae4428d)" d="
M312.682 105.321
L313.415 105.321
L313.415 93.5755
L312.682 93.5755
z
" style="fill:#40cf40;"/>
   </g>
   <g id="patch_111">
    <path clip-path="url(#p6a4ae4428d)" d="
M313.467 106.888
L314.417 106.888
L314.417 95.1416
L313.467 95.1416
z
" style="fill:#4daf4a;"/>
   </g>
   <g id="patch_112">
    <path clip-path="url(#p6a4ae4428d)" d="
M314.417 105.321
L316.232 105.321
L316.232 93.5755
L314.417 93.5755
z
" style="fill:#40cf40;"/>
   </g>
   <g id="patch_113">
    <path clip-path="url(#p6a4ae4428d)" d="
M316.357 106.888
L316.634 106.888
L316.634 95.1416
L316.357 95.1416
z
" style="fill:#4daf4a;"/>
   </g>
   <g id="patch_114">
    <path clip-path="url(#p6a4ae4428d)" d="
M316.634 105.321
L317.002 105.321
L317.002 93.5755
L316.634 93.5755
z
" style="fill:#40cf40;"/>
   </g>
   <g id="patch_115">
    <path clip-path="url(#p6a4ae4428d)" d="
M317.003 106.888
L319.318 106.888
L319.318 95.1416
L317.003 95.1416
z
" style="fill:#4daf4a;"/>
   </g>
   <g id="patch_116">
    <path clip-path="url(#p6a4ae4428d)" d="
M319.318 105.321
L319.875 105.321
L319.875 93.5755
L319.318 93.5755
z
" style="fill:#40cf40;"/>
   </g>
   <g id="patch_117">
    <path clip-path="url(#p6a4ae4428d)" d="
M319.876 106.888
L320.096 106.888
L320.096 95.1416
L319.876 95.1416
z
" style="fill:#4daf4a;"/>
   </g>
   <g id="patch_118">
    <path clip-path="url(#p6a4ae4428d)" d="
M320.097 105.321
L324.219 105.321
L324.219 93.5755
L320.097 93.5755
z
" style="fill:#40cf40;"/>
   </g>
   <g id="patch_119">
    <path clip-path="url(#p6a4ae4428d)" d="
M324.219 106.888
L325.421 106.888
L325.421 95.1416
L324.219 95.1416
z
" style="fill:#4daf4a;"/>
   </g>
   <g id="patch_120">
    <path clip-path="url(#p6a4ae4428d)" d="
M325.496 105.321
L325.812 105.321
L325.812 93.5755
L325.496 93.5755
z
" style="fill:#40cf40;"/>
   </g>
   <g id="patch_121">
    <path clip-path="url(#p6a4ae4428d)" d="
M325.835 106.888
L326.109 106.888
L326.109 95.1416
L325.835 95.1416
z
" style="fill:#4daf4a;"/>
   </g>
   <g id="patch_122">
    <path clip-path="url(#p6a4ae4428d)" d="
M326.215 105.321
L326.872 105.321
L326.872 93.5755
L326.215 93.5755
z
" style="fill:#40cf40;"/>
   </g>
   <g id="patch_123">
    <path clip-path="url(#p6a4ae4428d)" d="
M326.873 106.888
L327.162 106.888
L327.162 95.1416
L326.873 95.1416
z
" style="fill:#4daf4a;"/>
   </g>
   <g id="patch_124">
    <path clip-path="url(#p6a4ae4428d)" d="
M327.163 105.321
L328.316 105.321
L328.316 93.5755
L327.163 93.5755
z
" style="fill:#40cf40;"/>
   </g>
   <g id="patch_125">
    <path clip-path="url(#p6a4ae4428d)" d="
M328.407 106.888
L329.451 106.888
L329.451 95.1416
L328.407 95.1416
z
" style="fill:#4daf4a;"/>
   </g>
   <g id="patch_126">
    <path clip-path="url(#p6a4ae4428d)" d="
M329.474 105.321
L329.855 105.321
L329.855 93.5755
L329.474 93.5755
z
" style="fill:#40cf40;"/>
   </g>
   <g id="patch_127">
    <path clip-path="url(#p6a4ae4428d)" d="
M329.897 106.888
L330.966 106.888
L330.966 95.1416
L329.897 95.1416
z
" style="fill:#4daf4a;"/>
   </g>
   <g id="patch_128">
    <path clip-path="url(#p6a4ae4428d)" d="
M330.967 105.321
L331.191 105.321
L331.191 93.5755
L330.967 93.5755
z
" style="fill:#40cf40;"/>
   </g>
   <g id="patch_129">
    <path clip-path="url(#p6a4ae4428d)" d="
M331.192 106.888
L333.952 106.888
L333.952 95.1416
L331.192 95.1416
z
" style="fill:#4daf4a;"/>
   </g>
   <g id="patch_130">
    <path clip-path="url(#p6a4ae4428d)" d="
M333.953 105.321
L334.18 105.321
L334.18 93.5755
L333.953 93.5755
z
" style="fill:#40cf40;"/>
   </g>
   <g id="patch_131">
    <path clip-path="url(#p6a4ae4428d)" d="
M334.181 106.888
L334.391 106.888
L334.391 95.1416
L334.181 95.1416
z
" style="fill:#4daf4a;"/>
   </g>
   <g id="patch_132">
    <path clip-path="url(#p6a4ae4428d)" d="
M334.392 105.321
L336.717 105.321
L336.717 93.5755
L334.392 93.5755
z
" style="fill:#40cf40;"/>
   </g>
   <g id="patch_133">
    <path clip-path="url(#p6a4ae4428d)" d="
M336.757 106.888
L339.549 106.888
L339.549 95.1416
L336.757 95.1416
z
" style="fill:#4daf4a;"/>
   </g>
   <g id="patch_134">
    <path clip-path="url(#p6a4ae4428d)" d="
M339.664 105.321
L340.418 105.321
L340.418 93.5755
L339.664 93.5755
z
" style="fill:#40cf40;"/>
   </g>
   <g id="patch_135">
    <path clip-path="url(#p6a4ae4428d)" d="
M340.418 106.888
L340.668 106.888
L340.668 95.1416
L340.418 95.1416
z
" style="fill:#4daf4a;"/>
   </g>
   <g id="patch_136">
    <path clip-path="url(#p6a4ae4428d)" d="
M340.669 105.321
L342.149 105.321
L342.149 93.5755
L340.669 93.5755
z
" style="fill:#40cf40;"/>
   </g>
   <g id="patch_137">
    <path clip-path="url(#p6a4ae4428d)" d="
M342.149 106.888
L342.929 106.888
L342.929 95.1416
L342.149 95.1416
z
" style="fill:#4daf4a;"/>
   </g>
   <g id="patch_138">
    <path clip-path="url(#p6a4ae4428d)" d="
M343.179 105.321
L344.711 105.321
L344.711 93.5755
L343.179 93.5755
z
" style="fill:#40cf40;"/>
   </g>
   <g id="patch_139">
    <path clip-path="url(#p6a4ae4428d)" d="
M344.823 106.888
L345.557 106.888
L345.557 95.1416
L344.823 95.1416
z
" style="fill:#4daf4a;"/>
   </g>
   <g id="patch_140">
    <path clip-path="url(#p6a4ae4428d)" d="
M345.649 105.321
L350.243 105.321
L350.243 93.5755
L345.649 93.5755
z
" style="fill:#40cf40;"/>
   </g>
   <g id="patch_141">
    <path clip-path="url(#p6a4ae4428d)" d="
M350.244 106.888
L350.495 106.888
L350.495 95.1416
L350.244 95.1416
z
" style="fill:#4daf4a;"/>
   </g>
   <g id="patch_142">
    <path clip-path="url(#p6a4ae4428d)" d="
M350.496 105.321
L353.387 105.321
L353.387 93.5755
L350.496 93.5755
z
" style="fill:#40cf40;"/>
   </g>
   <g id="patch_143">
    <path clip-path="url(#p6a4ae4428d)" d="
M353.387 106.888
L353.984 106.888
L353.984 95.1416
L353.387 95.1416
z
" style="fill:#4daf4a;"/>
   </g>
   <g id="patch_144">
    <path clip-path="url(#p6a4ae4428d)" d="
M353.984 105.321
L356.175 105.321
L356.175 93.5755
L353.984 93.5755
z
" style="fill:#40cf40;"/>
   </g>
   <g id="patch_145">
    <path clip-path="url(#p6a4ae4428d)" d="
M356.175 106.888
L356.345 106.888
L356.345 95.1416
L356.175 95.1416
z
" style="fill:#4daf4a;"/>
   </g>
   <g id="patch_146">
    <path clip-path="url(#p6a4ae4428d)" d="
M356.345 105.321
L358.232 105.321
L358.232 93.5755
L356.345 93.5755
z
" style="fill:#40cf40;"/>
   </g>
   <g id="patch_147">
    <path clip-path="url(#p6a4ae4428d)" d="
M358.385 106.888
L359.373 106.888
L359.373 95.1416
L358.385 95.1416
z
" style="fill:#4daf4a;"/>
   </g>
   <g id="patch_148">
    <path clip-path="url(#p6a4ae4428d)" d="
M359.489 105.321
L360.226 105.321
L360.226 93.5755
L359.489 93.5755
z
" style="fill:#40cf40;"/>
   </g>
   <g id="patch_149">
    <path clip-path="url(#p6a4ae4428d)" d="
M360.265 106.888
L361.172 106.888
L361.172 95.1416
L360.265 95.1416
z
" style="fill:#4daf4a;"/>
   </g>
   <g id="patch_150">
    <path clip-path="url(#p6a4ae4428d)" d="
M361.209 105.321
L361.495 105.321
L361.495 93.5755
L361.209 93.5755
z
" style="fill:#40cf40;"/>
   </g>
   <g id="patch_151">
    <path clip-path="url(#p6a4ae4428d)" d="
M361.495 106.888
L361.77 106.888
L361.77 95.1416
L361.495 95.1416
z
" style="fill:#4daf4a;"/>
   </g>
   <g id="patch_152">
    <path clip-path="url(#p6a4ae4428d)" d="
M361.771 105.321
L362.805 105.321
L362.805 93.5755
L361.771 93.5755
z
" style="fill:#40cf40;"/>
   </g>
   <g id="patch_153">
    <path clip-path="url(#p6a4ae4428d)" d="
M362.805 106.888
L363.87 106.888
L363.87 95.1416
L362.805 95.1416
z
" style="fill:#4daf4a;"/>
   </g>
   <g id="patch_154">
    <path clip-path="url(#p6a4ae4428d)" d="
M363.871 105.321
L365.471 105.321
L365.471 93.5755
L363.871 93.5755
z
" style="fill:#40cf40;"/>
   </g>
   <g id="patch_155">
    <path clip-path="url(#p6a4ae4428d)" d="
M365.471 106.888
L366.245 106.888
L366.245 95.1416
L365.471 95.1416
z
" style="fill:#4daf4a;"/>
   </g>
   <g id="patch_156">
    <path clip-path="url(#p6a4ae4428d)" d="
M366.246 105.321
L367.513 105.321
L367.513 93.5755
L366.246 93.5755
z
" style="fill:#40cf40;"/>
   </g>
   <g id="patch_157">
    <path clip-path="url(#p6a4ae4428d)" d="
M367.549 106.888
L368.806 106.888
L368.806 95.1416
L367.549 95.1416
z
" style="fill:#4daf4a;"/>
   </g>
   <g id="patch_158">
    <path clip-path="url(#p6a4ae4428d)" d="
M368.806 105.321
L371.67 105.321
L371.67 93.5755
L368.806 93.5755
z
" style="fill:#40cf40;"/>
   </g>
   <g id="patch_159">
    <path clip-path="url(#p6a4ae4428d)" d="
M371.707 106.888
L372.347 106.888
L372.347 95.1416
L371.707 95.1416
z
" style="fill:#4daf4a;"/>
   </g>
   <g id="patch_160">
    <path clip-path="url(#p6a4ae4428d)" d="
M372.347 105.321
L372.594 105.321
L372.594 93.5755
L372.347 93.5755
z
" style="fill:#40cf40;"/>
   </g>
   <g id="patch_161">
    <path clip-path="url(#p6a4ae4428d)" d="
M372.594 106.888
L373.138 106.888
L373.138 95.1416
L372.594 95.1416
z
" style="fill:#4daf4a;"/>
   </g>
   <g id="patch_162">
    <path clip-path="url(#p6a4ae4428d)" d="
M373.139 105.321
L374.26 105.321
L374.26 93.5755
L373.139 93.5755
z
" style="fill:#40cf40;"/>
   </g>
   <g id="patch_163">
    <path clip-path="url(#p6a4ae4428d)" d="
M374.261 106.888
L375.211 106.888
L375.211 95.1416
L374.261 95.1416
z
" style="fill:#4daf4a;"/>
   </g>
   <g id="patch_164">
    <path clip-path="url(#p6a4ae4428d)" d="
M376.621 105.321
L376.946 105.321
L376.946 93.5755
L376.621 93.5755
z
" style="fill:#40cf40;"/>
   </g>
   <g id="patch_165">
    <path clip-path="url(#p6a4ae4428d)" d="
M376.946 106.888
L377.165 106.888
L377.165 95.1416
L376.946 95.1416
z
" style="fill:#4daf4a;"/>
   </g>
   <g id="patch_166">
    <path clip-path="url(#p6a4ae4428d)" d="
M377.165 105.321
L378.461 105.321
L378.461 93.5755
L377.165 93.5755
z
" style="fill:#40cf40;"/>
   </g>
   <g id="patch_167">
    <path clip-path="url(#p6a4ae4428d)" d="
M378.461 106.888
L382.845 106.888
L382.845 95.1416
L378.461 95.1416
z
" style="fill:#4daf4a;"/>
   </g>
   <g id="patch_168">
    <path clip-path="url(#p6a4ae4428d)" d="
M382.931 105.321
L384.377 105.321
L384.377 93.5755
L382.931 93.5755
z
" style="fill:#40cf40;"/>
   </g>
   <g id="patch_169">
    <path clip-path="url(#p6a4ae4428d)" d="
M384.378 106.888
L384.709 106.888
L384.709 95.1416
L384.378 95.1416
z
" style="fill:#4daf4a;"/>
   </g>
   <g id="patch_170">
    <path clip-path="url(#p6a4ae4428d)" d="
M384.709 105.321
L386.859 105.321
L386.859 93.5755
L384.709 93.5755
z
" style="fill:#40cf40;"/>
   </g>
   <g id="patch_171">
    <path clip-path="url(#p6a4ae4428d)" d="
M386.956 106.888
L388.745 106.888
L388.745 95.1416
L386.956 95.1416
z
" style="fill:#4daf4a;"/>
   </g>
   <g id="patch_172">
    <path clip-path="url(#p6a4ae4428d)" d="
M388.807 105.321
L389.273 105.321
L389.273 93.5755
L388.807 93.5755
z
" style="fill:#40cf40;"/>
   </g>
   <g id="patch_173">
    <path clip-path="url(#p6a4ae4428d)" d="
M389.274 106.888
L390.198 106.888
L390.198 95.1416
L389.274 95.1416
z
" style="fill:#4daf4a;"/>
   </g>
   <g id="patch_174">
    <path clip-path="url(#p6a4ae4428d)" d="
M390.199 105.321
L390.495 105.321
L390.495 93.5755
L390.199 93.5755
z
" style="fill:#40cf40;"/>
   </g>
   <g id="patch_175">
    <path clip-path="url(#p6a4ae4428d)" d="
M390.777 106.888
L392.077 106.888
L392.077 95.1416
L390.777 95.1416
z
" style="fill:#4daf4a;"/>
   </g>
   <g id="patch_176">
    <path clip-path="url(#p6a4ae4428d)" d="
M392.077 105.321
L394.096 105.321
L394.096 93.5755
L392.077 93.5755
z
" style="fill:#40cf40;"/>
   </g>
   <g id="patch_177">
    <path clip-path="url(#p6a4ae4428d)" d="
M394.187 106.888
L394.573 106.888
L394.573 95.1416
L394.187 95.1416
z
" style="fill:#4daf4a;"/>
   </g>
   <g id="patch_178">
    <path clip-path="url(#p6a4ae4428d)" d="
M394.574 105.321
L394.857 105.321
L394.857 93.5755
L394.574 93.5755
z
" style="fill:#40cf40;"/>
   </g>
   <g id="patch_179">
    <path clip-path="url(#p6a4ae4428d)" d="
M394.857 106.888
L397 106.888
L397 95.1416
L394.857 95.1416
z
" style="fill:#4daf4a;"/>
   </g>
   <g id="patch_180">
    <path clip-path="url(#p6a4ae4428d)" d="
M398.466 105.321
L399.582 105.321
L399.582 93.5755
L398.466 93.5755
z
" style="fill:#40cf40;"/>
   </g>
   <g id="patch_181">
    <path clip-path="url(#p6a4ae4428d)" d="
M399.582 106.888
L400.631 106.888
L400.631 95.1416
L399.582 95.1416
z
" style="fill:#4daf4a;"/>
   </g>
   <g id="patch_182">
    <path clip-path="url(#p6a4ae4428d)" d="
M400.632 105.321
L401.808 105.321
L401.808 93.5755
L400.632 93.5755
z
" style="fill:#40cf40;"/>
   </g>
   <g id="patch_183">
    <path clip-path="url(#p6a4ae4428d)" d="
M401.808 106.888
L404.023 106.888
L404.023 95.1416
L401.808 95.1416
z
" style="fill:#4daf4a;"/>
   </g>
   <g id="patch_184">
    <path clip-path="url(#p6a4ae4428d)" d="
M404.024 105.321
L404.207 105.321
L404.207 93.5755
L404.024 93.5755
z
" style="fill:#40cf40;"/>
   </g>
   <g id="patch_185">
    <path clip-path="url(#p6a4ae4428d)" d="
M404.207 106.888
L404.819 106.888
L404.819 95.1416
L404.207 95.1416
z
" style="fill:#4daf4a;"/>
   </g>
   <g id="patch_186">
    <path clip-path="url(#p6a4ae4428d)" d="
M404.82 105.321
L404.993 105.321
L404.993 93.5755
L404.82 93.5755
z
" style="fill:#40cf40;"/>
   </g>
   <g id="patch_187">
    <path clip-path="url(#p6a4ae4428d)" d="
M404.994 106.888
L406.573 106.888
L406.573 95.1416
L404.994 95.1416
z
" style="fill:#4daf4a;"/>
   </g>
   <g id="patch_188">
    <path clip-path="url(#p6a4ae4428d)" d="
M406.573 105.321
L407.363 105.321
L407.363 93.5755
L406.573 93.5755
z
" style="fill:#40cf40;"/>
   </g>
   <g id="patch_189">
    <path clip-path="url(#p6a4ae4428d)" d="
M407.364 106.888
L408.908 106.888
L408.908 95.1416
L407.364 95.1416
z
" style="fill:#4daf4a;"/>
   </g>
   <g id="patch_190">
    <path clip-path="url(#p6a4ae4428d)" d="
M409.017 105.321
L411.731 105.321
L411.731 93.5755
L409.017 93.5755
z
" style="fill:#40cf40;"/>
   </g>
   <g id="patch_191">
    <path clip-path="url(#p6a4ae4428d)" d="
M411.789 106.888
L413.101 106.888
L413.101 95.1416
L411.789 95.1416
z
" style="fill:#4daf4a;"/>
   </g>
   <g id="patch_192">
    <path clip-path="url(#p6a4ae4428d)" d="
M413.102 105.321
L413.262 105.321
L413.262 93.5755
L413.102 93.5755
z
" style="fill:#40cf40;"/>
   </g>
   <g id="patch_193">
    <path clip-path="url(#p6a4ae4428d)" d="
M413.263 106.888
L415.966 106.888
L415.966 95.1416
L413.263 95.1416
z
" style="fill:#4daf4a;"/>
   </g>
   <g id="patch_194">
    <path clip-path="url(#p6a4ae4428d)" d="
M416.042 105.321
L417.577 105.321
L417.577 93.5755
L416.042 93.5755
z
" style="fill:#40cf40;"/>
   </g>
   <g id="patch_195">
    <path clip-path="url(#p6a4ae4428d)" d="
M417.578 106.888
L418.626 106.888
L418.626 95.1416
L417.578 95.1416
z
" style="fill:#4daf4a;"/>
   </g>
   <g id="patch_196">
    <path clip-path="url(#p6a4ae4428d)" d="
M418.701 105.321
L419.816 105.321
L419.816 93.5755
L418.701 93.5755
z
" style="fill:#40cf40;"/>
   </g>
   <g id="patch_197">
    <path clip-path="url(#p6a4ae4428d)" d="
M419.831 106.888
L420.674 106.888
L420.674 95.1416
L419.831 95.1416
z
" style="fill:#4daf4a;"/>
   </g>
   <g id="patch_198">
    <path clip-path="url(#p6a4ae4428d)" d="
M420.675 105.321
L422.333 105.321
L422.333 93.5755
L420.675 93.5755
z
" style="fill:#40cf40;"/>
   </g>
   <g id="patch_199">
    <path clip-path="url(#p6a4ae4428d)" d="
M422.377 106.888
L424.258 106.888
L424.258 95.1416
L422.377 95.1416
z
" style="fill:#4daf4a;"/>
   </g>
   <g id="patch_200">
    <path clip-path="url(#p6a4ae4428d)" d="
M472.577 105.321
L473.411 105.321
L473.411 93.5755
L472.577 93.5755
z
" style="fill:#40cf40;"/>
   </g>
   <g id="patch_201">
    <path clip-path="url(#p6a4ae4428d)" d="
M473.412 106.888
L474.154 106.888
L474.154 95.1416
L473.412 95.1416
z
" style="fill:#4daf4a;"/>
   </g>
   <g id="patch_202">
    <path clip-path="url(#p6a4ae4428d)" d="
M474.264 105.321
L474.577 105.321
L474.577 93.5755
L474.264 93.5755
z
" style="fill:#40cf40;"/>
   </g>
   <g id="patch_203">
    <path clip-path="url(#p6a4ae4428d)" d="
M474.577 106.888
L476.285 106.888
L476.285 95.1416
L474.577 95.1416
z
" style="fill:#4daf4a;"/>
   </g>
   <g id="patch_204">
    <path clip-path="url(#p6a4ae4428d)" d="
M476.356 105.321
L477.012 105.321
L477.012 93.5755
L476.356 93.5755
z
" style="fill:#40cf40;"/>
   </g>
   <g id="patch_205">
    <path clip-path="url(#p6a4ae4428d)" d="
M477.012 106.888
L477.299 106.888
L477.299 95.1416
L477.012 95.1416
z
" style="fill:#4daf4a;"/>
   </g>
   <g id="patch_206">
    <path clip-path="url(#p6a4ae4428d)" d="
M477.396 105.321
L477.674 105.321
L477.674 93.5755
L477.396 93.5755
z
" style="fill:#40cf40;"/>
   </g>
   <g id="patch_207">
    <path clip-path="url(#p6a4ae4428d)" d="
M477.674 106.888
L478.482 106.888
L478.482 95.1416
L477.674 95.1416
z
" style="fill:#4daf4a;"/>
   </g>
   <g id="patch_208">
    <path clip-path="url(#p6a4ae4428d)" d="
M478.483 105.321
L482.511 105.321
L482.511 93.5755
L478.483 93.5755
z
" style="fill:#40cf40;"/>
   </g>
   <g id="patch_209">
    <path clip-path="url(#p6a4ae4428d)" d="
M482.62 106.888
L486.723 106.888
L486.723 95.1416
L482.62 95.1416
z
" style="fill:#4daf4a;"/>
   </g>
   <g id="patch_210">
    <path clip-path="url(#p6a4ae4428d)" d="
M486.723 105.321
L487.052 105.321
L487.052 93.5755
L486.723 93.5755
z
" style="fill:#40cf40;"/>
   </g>
   <g id="patch_211">
    <path clip-path="url(#p6a4ae4428d)" d="
M487.124 106.888
L490.383 106.888
L490.383 95.1416
L487.124 95.1416
z
" style="fill:#4daf4a;"/>
   </g>
   <g id="patch_212">
    <path clip-path="url(#p6a4ae4428d)" d="
M490.384 105.321
L490.611 105.321
L490.611 93.5755
L490.384 93.5755
z
" style="fill:#40cf40;"/>
   </g>
   <g id="patch_213">
    <path clip-path="url(#p6a4ae4428d)" d="
M490.612 106.888
L491.075 106.888
L491.075 95.1416
L490.612 95.1416
z
" style="fill:#4daf4a;"/>
   </g>
   <g id="patch_214">
    <path clip-path="url(#p6a4ae4428d)" d="
M491.224 105.321
L493.576 105.321
L493.576 93.5755
L491.224 93.5755
z
" style="fill:#40cf40;"/>
   </g>
   <g id="patch_215">
    <path clip-path="url(#p6a4ae4428d)" d="
M493.576 106.888
L495.37 106.888
L495.37 95.1416
L493.576 95.1416
z
" style="fill:#4daf4a;"/>
   </g>
   <g id="patch_216">
    <path clip-path="url(#p6a4ae4428d)" d="
M495.37 105.321
L499.425 105.321
L499.425 93.5755
L495.37 93.5755
z
" style="fill:#40cf40;"/>
   </g>
   <g id="patch_217">
    <path clip-path="url(#p6a4ae4428d)" d="
M499.46 106.888
L500.952 106.888
L500.952 95.1416
L499.46 95.1416
z
" style="fill:#4daf4a;"/>
   </g>
   <g id="patch_218">
    <path clip-path="url(#p6a4ae4428d)" d="
M500.953 105.321
L502.964 105.321
L502.964 93.5755
L500.953 93.5755
z
" style="fill:#40cf40;"/>
   </g>
   <g id="patch_219">
    <path clip-path="url(#p6a4ae4428d)" d="
M503.662 106.888
L504.606 106.888
L504.606 95.1416
L503.662 95.1416
z
" style="fill:#4daf4a;"/>
   </g>
   <g id="patch_220">
    <path clip-path="url(#p6a4ae4428d)" d="
M504.607 105.321
L504.77 105.321
L504.77 93.5755
L504.607 93.5755
z
" style="fill:#40cf40;"/>
   </g>
   <g id="patch_221">
    <path clip-path="url(#p6a4ae4428d)" d="
M505.19 106.888
L505.623 106.888
L505.623 95.1416
L505.19 95.1416
z
" style="fill:#4daf4a;"/>
   </g>
   <g id="patch_222">
    <path clip-path="url(#p6a4ae4428d)" d="
M505.624 105.321
L507.73 105.321
L507.73 93.5755
L505.624 93.5755
z
" style="fill:#40cf40;"/>
   </g>
   <g id="patch_223">
    <path clip-path="url(#p6a4ae4428d)" d="
M507.73 106.888
L507.91 106.888
L507.91 95.1416
L507.73 95.1416
z
" style="fill:#4daf4a;"/>
   </g>
   <g id="patch_224">
    <path clip-path="url(#p6a4ae4428d)" d="
M507.911 105.321
L508.134 105.321
L508.134 93.5755
L507.911 93.5755
z
" style="fill:#40cf40;"/>
   </g>
   <g id="patch_225">
    <path clip-path="url(#p6a4ae4428d)" d="
M508.135 106.888
L508.38 106.888
L508.38 95.1416
L508.135 95.1416
z
" style="fill:#4daf4a;"/>
   </g>
   <g id="patch_226">
    <path clip-path="url(#p6a4ae4428d)" d="
M508.381 105.321
L509.04 105.321
L509.04 93.5755
L508.381 93.5755
z
" style="fill:#40cf40;"/>
   </g>
   <g id="patch_227">
    <path clip-path="url(#p6a4ae4428d)" d="
M509.14 106.888
L509.353 106.888
L509.353 95.1416
L509.14 95.1416
z
" style="fill:#4daf4a;"/>
   </g>
   <g id="patch_228">
    <path clip-path="url(#p6a4ae4428d)" d="
M509.353 105.321
L511.279 105.321
L511.279 93.5755
L509.353 93.5755
z
" style="fill:#40cf40;"/>
   </g>
   <g id="patch_229">
    <path clip-path="url(#p6a4ae4428d)" d="
M511.279 106.888
L511.439 106.888
L511.439 95.1416
L511.279 95.1416
z
" style="fill:#4daf4a;"/>
   </g>
   <g id="patch_230">
    <path clip-path="url(#p6a4ae4428d)" d="
M511.44 105.321
L512.228 105.321
L512.228 93.5755
L511.44 93.5755
z
" style="fill:#40cf40;"/>
   </g>
   <g id="patch_231">
    <path clip-path="url(#p6a4ae4428d)" d="
M512.229 106.888
L512.855 106.888
L512.855 95.1416
L512.229 95.1416
z
" style="fill:#4daf4a;"/>
   </g>
   <g id="patch_232">
    <path clip-path="url(#p6a4ae4428d)" d="
M513.016 105.321
L513.217 105.321
L513.217 93.5755
L513.016 93.5755
z
" style="fill:#40cf40;"/>
   </g>
   <g id="patch_233">
    <path clip-path="url(#p6a4ae4428d)" d="
M513.218 106.888
L514.776 106.888
L514.776 95.1416
L513.218 95.1416
z
" style="fill:#4daf4a;"/>
   </g>
   <g id="patch_234">
    <path clip-path="url(#p6a4ae4428d)" d="
M514.776 105.321
L514.97 105.321
L514.97 93.5755
L514.776 93.5755
z
" style="fill:#40cf40;"/>
   </g>
   <g id="patch_235">
    <path clip-path="url(#p6a4ae4428d)" d="
M514.97 106.888
L516.065 106.888
L516.065 95.1416
L514.97 95.1416
z
" style="fill:#4daf4a;"/>
   </g>
   <g id="patch_236">
    <path clip-path="url(#p6a4ae4428d)" d="
M516.138 105.321
L518.046 105.321
L518.046 93.5755
L516.138 93.5755
z
" style="fill:#40cf40;"/>
   </g>
   <g id="patch_237">
    <path clip-path="url(#p6a4ae4428d)" d="
M518.046 106.888
L518.279 106.888
L518.279 95.1416
L518.046 95.1416
z
" style="fill:#4daf4a;"/>
   </g>
   <g id="patch_238">
    <path clip-path="url(#p6a4ae4428d)" d="
M518.279 105.321
L518.822 105.321
L518.822 93.5755
L518.279 93.5755
z
" style="fill:#40cf40;"/>
   </g>
   <g id="patch_239">
    <path clip-path="url(#p6a4ae4428d)" d="
M518.822 106.888
L519.471 106.888
L519.471 95.1416
L518.822 95.1416
z
" style="fill:#4daf4a;"/>
   </g>
   <g id="patch_240">
    <path clip-path="url(#p6a4ae4428d)" d="
M519.471 105.321
L519.76 105.321
L519.76 93.5755
L519.471 93.5755
z
" style="fill:#40cf40;"/>
   </g>
   <g id="patch_241">
    <path clip-path="url(#p6a4ae4428d)" d="
M519.761 106.888
L520.654 106.888
L520.654 95.1416
L519.761 95.1416
z
" style="fill:#4daf4a;"/>
   </g>
   <g id="patch_242">
    <path clip-path="url(#p6a4ae4428d)" d="
M520.654 105.321
L521.774 105.321
L521.774 93.5755
L520.654 93.5755
z
" style="fill:#40cf40;"/>
   </g>
   <g id="patch_243">
    <path clip-path="url(#p6a4ae4428d)" d="
M521.774 106.888
L521.963 106.888
L521.963 95.1416
L521.774 95.1416
z
" style="fill:#4daf4a;"/>
   </g>
   <g id="patch_244">
    <path clip-path="url(#p6a4ae4428d)" d="
M521.963 105.321
L526.138 105.321
L526.138 93.5755
L521.963 93.5755
z
" style="fill:#40cf40;"/>
   </g>
   <g id="patch_245">
    <path clip-path="url(#p6a4ae4428d)" d="
M526.392 106.888
L527.207 106.888
L527.207 95.1416
L526.392 95.1416
z
" style="fill:#4daf4a;"/>
   </g>
   <g id="patch_246">
    <path clip-path="url(#p6a4ae4428d)" d="
M527.207 105.321
L527.653 105.321
L527.653 93.5755
L527.207 93.5755
z
" style="fill:#40cf40;"/>
   </g>
   <g id="patch_247">
    <path clip-path="url(#p6a4ae4428d)" d="
M527.654 106.888
L528.49 106.888
L528.49 95.1416
L527.654 95.1416
z
" style="fill:#4daf4a;"/>
   </g>
   <g id="patch_248">
    <path clip-path="url(#p6a4ae4428d)" d="
M528.628 105.321
L528.89 105.321
L528.89 93.5755
L528.628 93.5755
z
" style="fill:#40cf40;"/>
   </g>
   <g id="patch_249">
    <path clip-path="url(#p6a4ae4428d)" d="
M528.891 106.888
L529.65 106.888
L529.65 95.1416
L528.891 95.1416
z
" style="fill:#4daf4a;"/>
   </g>
   <g id="patch_250">
    <path clip-path="url(#p6a4ae4428d)" d="
M529.775 105.321
L529.993 105.321
L529.993 93.5755
L529.775 93.5755
z
" style="fill:#40cf40;"/>
   </g>
   <g id="patch_251">
    <path clip-path="url(#p6a4ae4428d)" d="
M530.092 106.888
L530.389 106.888
L530.389 95.1416
L530.092 95.1416
z
" style="fill:#4daf4a;"/>
   </g>
   <g id="patch_252">
    <path clip-path="url(#p6a4ae4428d)" d="
M530.389 105.321
L530.654 105.321
L530.654 93.5755
L530.389 93.5755
z
" style="fill:#40cf40;"/>
   </g>
   <g id="patch_253">
    <path clip-path="url(#p6a4ae4428d)" d="
M530.654 106.888
L530.958 106.888
L530.958 95.1416
L530.654 95.1416
z
" style="fill:#4daf4a;"/>
   </g>
   <g id="patch_254">
    <path clip-path="url(#p6a4ae4428d)" d="
M530.958 105.321
L531.148 105.321
L531.148 93.5755
L530.958 93.5755
z
" style="fill:#40cf40;"/>
   </g>
   <g id="patch_255">
    <path clip-path="url(#p6a4ae4428d)" d="
M531.148 106.888
L531.685 106.888
L531.685 95.1416
L531.148 95.1416
z
" style="fill:#4daf4a;"/>
   </g>
   <g id="patch_256">
    <path clip-path="url(#p6a4ae4428d)" d="
M531.797 105.321
L532.396 105.321
L532.396 93.5755
L531.797 93.5755
z
" style="fill:#40cf40;"/>
   </g>
   <g id="patch_257">
    <path clip-path="url(#p6a4ae4428d)" d="
M532.396 106.888
L533.619 106.888
L533.619 95.1416
L532.396 95.1416
z
" style="fill:#4daf4a;"/>
   </g>
   <g id="patch_258">
    <path clip-path="url(#p6a4ae4428d)" d="
M533.666 105.321
L534.351 105.321
L534.351 93.5755
L533.666 93.5755
z
" style="fill:#40cf40;"/>
   </g>
   <g id="patch_259">
    <path clip-path="url(#p6a4ae4428d)" d="
M534.351 106.888
L535.147 106.888
L535.147 95.1416
L534.351 95.1416
z
" style="fill:#4daf4a;"/>
   </g>
   <g id="patch_260">
    <path clip-path="url(#p6a4ae4428d)" d="
M535.162 105.321
L535.852 105.321
L535.852 93.5755
L535.162 93.5755
z
" style="fill:#40cf40;"/>
   </g>
   <g id="patch_261">
    <path clip-path="url(#p6a4ae4428d)" d="
M536.034 106.888
L536.465 106.888
L536.465 95.1416
L536.034 95.1416
z
" style="fill:#4daf4a;"/>
   </g>
   <g id="patch_262">
    <path clip-path="url(#p6a4ae4428d)" d="
M536.466 105.321
L536.885 105.321
L536.885 93.5755
L536.466 93.5755
z
" style="fill:#40cf40;"/>
   </g>
   <g id="patch_263">
    <path clip-path="url(#p6a4ae4428d)" d="
M536.885 106.888
L542.992 106.888
L542.992 95.1416
L536.885 95.1416
z
" style="fill:#4daf4a;"/>
   </g>
   <g id="patch_264">
    <path clip-path="url(#p6a4ae4428d)" d="
M542.993 105.321
L543.183 105.321
L543.183 93.5755
L542.993 93.5755
z
" style="fill:#40cf40;"/>
   </g>
   <g id="patch_265">
    <path clip-path="url(#p6a4ae4428d)" d="
M543.326 106.888
L544.032 106.888
L544.032 95.1416
L543.326 95.1416
z
" style="fill:#4daf4a;"/>
   </g>
   <g id="patch_266">
    <path clip-path="url(#p6a4ae4428d)" d="
M544.107 105.321
L545.671 105.321
L545.671 93.5755
L544.107 93.5755
z
" style="fill:#40cf40;"/>
   </g>
   <g id="patch_267">
    <path clip-path="url(#p6a4ae4428d)" d="
M545.786 106.888
L547.278 106.888
L547.278 95.1416
L545.786 95.1416
z
" style="fill:#4daf4a;"/>
   </g>
   <g id="patch_268">
    <path clip-path="url(#p6a4ae4428d)" d="
M547.343 105.321
L548.461 105.321
L548.461 93.5755
L547.343 93.5755
z
" style="fill:#40cf40;"/>
   </g>
   <g id="patch_269">
    <path clip-path="url(#p6a4ae4428d)" d="
M548.57 106.888
L549.247 106.888
L549.247 95.1416
L548.57 95.1416
z
" style="fill:#4daf4a;"/>
   </g>
   <g id="patch_270">
    <path clip-path="url(#p6a4ae4428d)" d="
M549.331 105.321
L553.25 105.321
L553.25 93.5755
L549.331 93.5755
z
" style="fill:#40cf40;"/>
   </g>
   <g id="patch_271">
    <path clip-path="url(#p6a4ae4428d)" d="
M553.308 106.888
L554 106.888
L554 95.1416
L553.308 95.1416
z
" style="fill:#4daf4a;"/>
   </g>
   <g id="patch_272">
    <path clip-path="url(#p6a4ae4428d)" d="
M554.396 105.321
L554.982 105.321
L554.982 93.5755
L554.396 93.5755
z
" style="fill:#40cf40;"/>
   </g>
   <g id="patch_273">
    <path clip-path="url(#p6a4ae4428d)" d="
M554.982 106.888
L555.797 106.888
L555.797 95.1416
L554.982 95.1416
z
" style="fill:#4daf4a;"/>
   </g>
   <g id="patch_274">
    <path clip-path="url(#p6a4ae4428d)" d="
M555.797 105.321
L556.579 105.321
L556.579 93.5755
L555.797 93.5755
z
" style="fill:#40cf40;"/>
   </g>
   <g id="patch_275">
    <path clip-path="url(#p6a4ae4428d)" d="
M556.58 106.888
L559.02 106.888
L559.02 95.1416
L556.58 95.1416
z
" style="fill:#4daf4a;"/>
   </g>
   <g id="patch_276">
    <path clip-path="url(#p6a4ae4428d)" d="
M559.036 105.321
L559.231 105.321
L559.231 93.5755
L559.036 93.5755
z
" style="fill:#40cf40;"/>
   </g>
   <g id="patch_277">
    <path clip-path="url(#p6a4ae4428d)" d="
M559.232 106.888
L562.459 106.888
L562.459 95.1416
L559.232 95.1416
z
" style="fill:#4daf4a;"/>
   </g>
   <g id="patch_278">
    <path clip-path="url(#p6a4ae4428d)" d="
M562.459 105.321
L563.873 105.321
L563.873 93.5755
L562.459 93.5755
z
" style="fill:#40cf40;"/>
   </g>
   <g id="patch_279">
    <path clip-path="url(#p6a4ae4428d)" d="
M563.873 106.888
L564.435 106.888
L564.435 95.1416
L563.873 95.1416
z
" style="fill:#4daf4a;"/>
   </g>
   <g id="patch_280">
    <path clip-path="url(#p6a4ae4428d)" d="
M564.513 105.321
L565.284 105.321
L565.284 93.5755
L564.513 93.5755
z
" style="fill:#40cf40;"/>
   </g>
   <g id="patch_281">
    <path clip-path="url(#p6a4ae4428d)" d="
M565.284 106.888
L567.606 106.888
L567.606 95.1416
L565.284 95.1416
z
" style="fill:#4daf4a;"/>
   </g>
   <g id="patch_282">
    <path clip-path="url(#p6a4ae4428d)" d="
M567.606 105.321
L567.844 105.321
L567.844 93.5755
L567.606 93.5755
z
" style="fill:#40cf40;"/>
   </g>
   <g id="patch_283">
    <path clip-path="url(#p6a4ae4428d)" d="
M567.844 106.888
L568.307 106.888
L568.307 95.1416
L567.844 95.1416
z
" style="fill:#4daf4a;"/>
   </g>
   <g id="patch_284">
    <path clip-path="url(#p6a4ae4428d)" d="
M568.518 105.321
L570.205 105.321
L570.205 93.5755
L568.518 93.5755
z
" style="fill:#40cf40;"/>
   </g>
   <g id="patch_285">
    <path clip-path="url(#p6a4ae4428d)" d="
M570.205 106.888
L575.824 106.888
L575.824 95.1416
L570.205 95.1416
z
" style="fill:#4daf4a;"/>
   </g>
   <g id="patch_286">
    <path clip-path="url(#p6a4ae4428d)" d="
M575.883 105.321
L577.896 105.321
L577.896 93.5755
L575.883 93.5755
z
" style="fill:#40cf40;"/>
   </g>
   <g id="patch_287">
    <path clip-path="url(#p6a4ae4428d)" d="
M577.896 106.888
L578.598 106.888
L578.598 95.1416
L577.896 95.1416
z
" style="fill:#4daf4a;"/>
   </g>
   <g id="patch_288">
    <path clip-path="url(#p6a4ae4428d)" d="
M578.599 105.321
L578.91 105.321
L578.91 93.5755
L578.599 93.5755
z
" style="fill:#40cf40;"/>
   </g>
   <g id="patch_289">
    <path clip-path="url(#p6a4ae4428d)" d="
M579.316 106.888
L580.818 106.888
L580.818 95.1416
L579.316 95.1416
z
" style="fill:#4daf4a;"/>
   </g>
   <g id="patch_290">
    <path clip-path="url(#p6a4ae4428d)" d="
M580.819 105.321
L581.204 105.321
L581.204 93.5755
L580.819 93.5755
z
" style="fill:#40cf40;"/>
   </g>
   <g id="patch_291">
    <path clip-path="url(#p6a4ae4428d)" d="
M581.205 106.888
L581.362 106.888
L581.362 95.1416
L581.205 95.1416
z
" style="fill:#4daf4a;"/>
   </g>
   <g id="patch_292">
    <path clip-path="url(#p6a4ae4428d)" d="
M581.362 105.321
L581.986 105.321
L581.986 93.5755
L581.362 93.5755
z
" style="fill:#40cf40;"/>
   </g>
   <g id="patch_293">
    <path clip-path="url(#p6a4ae4428d)" d="
M582.071 106.888
L588.271 106.888
L588.271 95.1416
L582.071 95.1416
z
" style="fill:#4daf4a;"/>
   </g>
   <g id="patch_294">
    <path clip-path="url(#p6a4ae4428d)" d="
M588.317 105.321
L588.824 105.321
L588.824 93.5755
L588.317 93.5755
z
" style="fill:#40cf40;"/>
   </g>
   <g id="patch_295">
    <path clip-path="url(#p6a4ae4428d)" d="
M588.824 106.888
L589.718 106.888
L589.718 95.1416
L588.824 95.1416
z
" style="fill:#4daf4a;"/>
   </g>
   <g id="patch_296">
    <path clip-path="url(#p6a4ae4428d)" d="
M589.812 105.321
L591.639 105.321
L591.639 93.5755
L589.812 93.5755
z
" style="fill:#40cf40;"/>
   </g>
   <g id="patch_297">
    <path clip-path="url(#p6a4ae4428d)" d="
M591.64 106.888
L593.579 106.888
L593.579 95.1416
L591.64 95.1416
z
" style="fill:#4daf4a;"/>
   </g>
   <g id="patch_298">
    <path clip-path="url(#p6a4ae4428d)" d="
M593.579 105.321
L596.367 105.321
L596.367 93.5755
L593.579 93.5755
z
" style="fill:#40cf40;"/>
   </g>
   <g id="patch_299">
    <path clip-path="url(#p6a4ae4428d)" d="
M596.368 106.888
L596.94 106.888
L596.94 95.1416
L596.368 95.1416
z
" style="fill:#4daf4a;"/>
   </g>
   <g id="patch_300">
    <path clip-path="url(#p6a4ae4428d)" d="
M596.94 105.321
L598.249 105.321
L598.249 93.5755
L596.94 93.5755
z
" style="fill:#40cf40;"/>
   </g>
   <g id="patch_301">
    <path clip-path="url(#p6a4ae4428d)" d="
M598.249 106.888
L602.681 106.888
L602.681 95.1416
L598.249 95.1416
z
" style="fill:#4daf4a;"/>
   </g>
   <g id="patch_302">
    <path clip-path="url(#p6a4ae4428d)" d="
M602.774 105.321
L602.998 105.321
L602.998 93.5755
L602.774 93.5755
z
" style="fill:#40cf40;"/>
   </g>
   <g id="patch_303">
    <path clip-path="url(#p6a4ae4428d)" d="
M603.221 106.888
L604.171 106.888
L604.171 95.1416
L603.221 95.1416
z
" style="fill:#4daf4a;"/>
   </g>
   <g id="patch_304">
    <path clip-path="url(#p6a4ae4428d)" d="
M604.171 105.321
L605.986 105.321
L605.986 93.5755
L604.171 93.5755
z
" style="fill:#40cf40;"/>
   </g>
   <g id="patch_305">
    <path clip-path="url(#p6a4ae4428d)" d="
M606.066 106.888
L606.388 106.888
L606.388 95.1416
L606.066 95.1416
z
" style="fill:#4daf4a;"/>
   </g>
   <g id="patch_306">
    <path clip-path="url(#p6a4ae4428d)" d="
M606.388 105.321
L606.756 105.321
L606.756 93.5755
L606.388 93.5755
z
" style="fill:#40cf40;"/>
   </g>
   <g id="patch_307">
    <path clip-path="url(#p6a4ae4428d)" d="
M606.757 106.888
L609.072 106.888
L609.072 95.1416
L606.757 95.1416
z
" style="fill:#4daf4a;"/>
   </g>
   <g id="patch_308">
    <path clip-path="url(#p6a4ae4428d)" d="
M609.072 105.321
L609.629 105.321
L609.629 93.5755
L609.072 93.5755
z
" style="fill:#40cf40;"/>
   </g>
   <g id="patch_309">
    <path clip-path="url(#p6a4ae4428d)" d="
M609.63 106.888
L609.85 106.888
L609.85 95.1416
L609.63 95.1416
z
" style="fill:#4daf4a;"/>
   </g>
   <g id="patch_310">
    <path clip-path="url(#p6a4ae4428d)" d="
M609.851 105.321
L613.973 105.321
L613.973 93.5755
L609.851 93.5755
z
" style="fill:#40cf40;"/>
   </g>
   <g id="patch_311">
    <path clip-path="url(#p6a4ae4428d)" d="
M613.973 106.888
L615.175 106.888
L615.175 95.1416
L613.973 95.1416
z
" style="fill:#4daf4a;"/>
   </g>
   <g id="patch_312">
    <path clip-path="url(#p6a4ae4428d)" d="
M615.251 105.321
L615.566 105.321
L615.566 93.5755
L615.251 93.5755
z
" style="fill:#40cf40;"/>
   </g>
   <g id="patch_313">
    <path clip-path="url(#p6a4ae4428d)" d="
M615.589 106.888
L615.863 106.888
L615.863 95.1416
L615.589 95.1416
z
" style="fill:#4daf4a;"/>
   </g>
   <g id="patch_314">
    <path clip-path="url(#p6a4ae4428d)" d="
M615.969 105.321
L616.627 105.321
L616.627 93.5755
L615.969 93.5755
z
" style="fill:#40cf40;"/>
   </g>
   <g id="patch_315">
    <path clip-path="url(#p6a4ae4428d)" d="
M616.627 106.888
L616.917 106.888
L616.917 95.1416
L616.627 95.1416
z
" style="fill:#4daf4a;"/>
   </g>
   <g id="patch_316">
    <path clip-path="url(#p6a4ae4428d)" d="
M616.917 105.321
L618.07 105.321
L618.07 93.5755
L616.917 93.5755
z
" style="fill:#40cf40;"/>
   </g>
   <g id="patch_317">
    <path clip-path="url(#p6a4ae4428d)" d="
M618.161 106.888
L619.205 106.888
L619.205 95.1416
L618.161 95.1416
z
" style="fill:#4daf4a;"/>
   </g>
   <g id="patch_318">
    <path clip-path="url(#p6a4ae4428d)" d="
M619.228 105.321
L619.609 105.321
L619.609 93.5755
L619.228 93.5755
z
" style="fill:#40cf40;"/>
   </g>
   <g id="patch_319">
    <path clip-path="url(#p6a4ae4428d)" d="
M619.651 106.888
L620.721 106.888
L620.721 95.1416
L619.651 95.1416
z
" style="fill:#4daf4a;"/>
   </g>
   <g id="patch_320">
    <path clip-path="url(#p6a4ae4428d)" d="
M620.721 105.321
L620.946 105.321
L620.946 93.5755
L620.721 93.5755
z
" style="fill:#40cf40;"/>
   </g>
   <g id="patch_321">
    <path clip-path="url(#p6a4ae4428d)" d="
M620.946 106.888
L623.706 106.888
L623.706 95.1416
L620.946 95.1416
z
" style="fill:#4daf4a;"/>
   </g>
   <g id="patch_322">
    <path clip-path="url(#p6a4ae4428d)" d="
M623.707 105.321
L623.927 105.321
L623.927 93.5755
L623.707 93.5755
z
" style="fill:#40cf40;"/>
   </g>
   <g id="patch_323">
    <path clip-path="url(#p6a4ae4428d)" d="
M623.928 106.888
L624.111 106.888
L624.111 95.1416
L623.928 95.1416
z
" style="fill:#4daf4a;"/>
   </g>
   <g id="patch_324">
    <path clip-path="url(#p6a4ae4428d)" d="
M624.296 105.321
L625.114 105.321
L625.114 93.5755
L624.296 93.5755
z
" style="fill:#40cf40;"/>
   </g>
   <g id="patch_325">
    <path clip-path="url(#p6a4ae4428d)" d="
M625.114 106.888
L626.555 106.888
L626.555 95.1416
L625.114 95.1416
z
" style="fill:#4daf4a;"/>
   </g>
   <g id="patch_326">
    <path clip-path="url(#p6a4ae4428d)" d="
M626.556 105.321
L626.845 105.321
L626.845 93.5755
L626.556 93.5755
z
" style="fill:#40cf40;"/>
   </g>
   <g id="patch_327">
    <path clip-path="url(#p6a4ae4428d)" d="
M626.845 106.888
L627.56 106.888
L627.56 95.1416
L626.845 95.1416
z
" style="fill:#4daf4a;"/>
   </g>
   <g id="patch_328">
    <path clip-path="url(#p6a4ae4428d)" d="
M627.676 105.321
L630.468 105.321
L630.468 93.5755
L627.676 93.5755
z
" style="fill:#40cf40;"/>
   </g>
   <g id="patch_329">
    <path clip-path="url(#p6a4ae4428d)" d="
M630.507 106.888
L632.872 106.888
L632.872 95.1416
L630.507 95.1416
z
" style="fill:#4daf4a;"/>
   </g>
   <g id="patch_330">
    <path clip-path="url(#p6a4ae4428d)" d="
M632.934 105.321
L634.465 105.321
L634.465 93.5755
L632.934 93.5755
z
" style="fill:#40cf40;"/>
   </g>
   <g id="patch_331">
    <path clip-path="url(#p6a4ae4428d)" d="
M634.578 106.888
L635.311 106.888
L635.311 95.1416
L634.578 95.1416
z
" style="fill:#4daf4a;"/>
   </g>
   <g id="patch_332">
    <path clip-path="url(#p6a4ae4428d)" d="
M635.404 105.321
L639.997 105.321
L639.997 93.5755
L635.404 93.5755
z
" style="fill:#40cf40;"/>
   </g>
   <g id="patch_333">
    <path clip-path="url(#p6a4ae4428d)" d="
M639.998 106.888
L640.249 106.888
L640.249 95.1416
L639.998 95.1416
z
" style="fill:#4daf4a;"/>
   </g>
   <g id="patch_334">
    <path clip-path="url(#p6a4ae4428d)" d="
M640.25 105.321
L643.141 105.321
L643.141 93.5755
L640.25 93.5755
z
" style="fill:#40cf40;"/>
   </g>
   <g id="patch_335">
    <path clip-path="url(#p6a4ae4428d)" d="
M643.142 106.888
L643.738 106.888
L643.738 95.1416
L643.142 95.1416
z
" style="fill:#4daf4a;"/>
   </g>
   <g id="patch_336">
    <path clip-path="url(#p6a4ae4428d)" d="
M643.738 105.321
L645.929 105.321
L645.929 93.5755
L643.738 93.5755
z
" style="fill:#40cf40;"/>
   </g>
   <g id="patch_337">
    <path clip-path="url(#p6a4ae4428d)" d="
M645.929 106.888
L646.099 106.888
L646.099 95.1416
L645.929 95.1416
z
" style="fill:#4daf4a;"/>
   </g>
   <g id="patch_338">
    <path clip-path="url(#p6a4ae4428d)" d="
M646.099 105.321
L647.987 105.321
L647.987 93.5755
L646.099 93.5755
z
" style="fill:#40cf40;"/>
   </g>
   <g id="patch_339">
    <path clip-path="url(#p6a4ae4428d)" d="
M648.139 106.888
L649.127 106.888
L649.127 95.1416
L648.139 95.1416
z
" style="fill:#4daf4a;"/>
   </g>
   <g id="patch_340">
    <path clip-path="url(#p6a4ae4428d)" d="
M649.243 105.321
L649.98 105.321
L649.98 93.5755
L649.243 93.5755
z
" style="fill:#40cf40;"/>
   </g>
   <g id="patch_341">
    <path clip-path="url(#p6a4ae4428d)" d="
M650.019 106.888
L650.926 106.888
L650.926 95.1416
L650.019 95.1416
z
" style="fill:#4daf4a;"/>
   </g>
   <g id="patch_342">
    <path clip-path="url(#p6a4ae4428d)" d="
M650.956 105.321
L653.145 105.321
L653.145 93.5755
L650.956 93.5755
z
" style="fill:#40cf40;"/>
   </g>
   <g id="patch_343">
    <path clip-path="url(#p6a4ae4428d)" d="
M653.145 106.888
L653.476 106.888
L653.476 95.1416
L653.145 95.1416
z
" style="fill:#4daf4a;"/>
   </g>
   <g id="patch_344">
    <path clip-path="url(#p6a4ae4428d)" d="
M653.477 105.321
L654.884 105.321
L654.884 93.5755
L653.477 93.5755
z
" style="fill:#40cf40;"/>
   </g>
   <g id="patch_345">
    <path clip-path="url(#p6a4ae4428d)" d="
M654.97 106.888
L659.393 106.888
L659.393 95.1416
L654.97 95.1416
z
" style="fill:#4daf4a;"/>
   </g>
   <g id="patch_346">
    <path clip-path="url(#p6a4ae4428d)" d="
M659.393 105.321
L660.688 105.321
L660.688 93.5755
L659.393 93.5755
z
" style="fill:#40cf40;"/>
   </g>
   <g id="patch_347">
    <path clip-path="url(#p6a4ae4428d)" d="
M660.689 106.888
L660.908 106.888
L660.908 95.1416
L660.689 95.1416
z
" style="fill:#4daf4a;"/>
   </g>
   <g id="patch_348">
    <path clip-path="url(#p6a4ae4428d)" d="
M660.908 105.321
L661.195 105.321
L661.195 93.5755
L660.908 93.5755
z
" style="fill:#40cf40;"/>
   </g>
   <g id="patch_349">
    <path clip-path="url(#p6a4ae4428d)" d="
M661.195 106.888
L661.583 106.888
L661.583 95.1416
L661.195 95.1416
z
" style="fill:#4daf4a;"/>
   </g>
   <g id="patch_350">
    <path clip-path="url(#p6a4ae4428d)" d="
M661.613 105.321
L662.536 105.321
L662.536 93.5755
L661.613 93.5755
z
" style="fill:#40cf40;"/>
   </g>
   <g id="patch_351">
    <path clip-path="url(#p6a4ae4428d)" d="
M662.605 106.888
L663.593 106.888
L663.593 95.1416
L662.605 95.1416
z
" style="fill:#4daf4a;"/>
   </g>
   <g id="patch_352">
    <path clip-path="url(#p6a4ae4428d)" d="
M663.594 105.321
L664.715 105.321
L664.715 93.5755
L663.594 93.5755
z
" style="fill:#40cf40;"/>
   </g>
   <g id="patch_353">
    <path clip-path="url(#p6a4ae4428d)" d="
M664.715 106.888
L665.26 106.888
L665.26 95.1416
L664.715 95.1416
z
" style="fill:#4daf4a;"/>
   </g>
   <g id="patch_354">
    <path clip-path="url(#p6a4ae4428d)" d="
M665.26 105.321
L665.507 105.321
L665.507 93.5755
L665.26 93.5755
z
" style="fill:#40cf40;"/>
   </g>
   <g id="patch_355">
    <path clip-path="url(#p6a4ae4428d)" d="
M665.507 106.888
L666.108 106.888
L666.108 95.1416
L665.507 95.1416
z
" style="fill:#4daf4a;"/>
   </g>
   <g id="patch_356">
    <path clip-path="url(#p6a4ae4428d)" d="
M666.145 105.321
L669.048 105.321
L669.048 93.5755
L666.145 93.5755
z
" style="fill:#40cf40;"/>
   </g>
   <g id="patch_357">
    <path clip-path="url(#p6a4ae4428d)" d="
M669.048 106.888
L670.266 106.888
L670.266 95.1416
L669.048 95.1416
z
" style="fill:#4daf4a;"/>
   </g>
   <g id="patch_358">
    <path clip-path="url(#p6a4ae4428d)" d="
M670.302 105.321
L671.608 105.321
L671.608 93.5755
L670.302 93.5755
z
" style="fill:#40cf40;"/>
   </g>
   <g id="patch_359">
    <path clip-path="url(#p6a4ae4428d)" d="
M671.609 106.888
L671.774 106.888
L671.774 95.1416
L671.609 95.1416
z
" style="fill:#4daf4a;"/>
   </g>
   <g id="patch_360">
    <path clip-path="url(#p6a4ae4428d)" d="
M672.344 105.321
L673.983 105.321
L673.983 93.5755
L672.344 93.5755
z
" style="fill:#40cf40;"/>
   </g>
   <g id="patch_361">
    <path clip-path="url(#p6a4ae4428d)" d="
M673.984 106.888
L675.049 106.888
L675.049 95.1416
L673.984 95.1416
z
" style="fill:#4daf4a;"/>
   </g>
   <g id="patch_362">
    <path clip-path="url(#p6a4ae4428d)" d="
M675.049 105.321
L676.083 105.321
L676.083 93.5755
L675.049 93.5755
z
" style="fill:#40cf40;"/>
   </g>
   <g id="patch_363">
    <path clip-path="url(#p6a4ae4428d)" d="
M676.084 106.888
L676.359 106.888
L676.359 95.1416
L676.084 95.1416
z
" style="fill:#4daf4a;"/>
   </g>
   <g id="patch_364">
    <path clip-path="url(#p6a4ae4428d)" d="
M676.359 105.321
L676.606 105.321
L676.606 93.5755
L676.359 93.5755
z
" style="fill:#40cf40;"/>
   </g>
   <g id="patch_365">
    <path clip-path="url(#p6a4ae4428d)" d="
M676.71 106.888
L678.5 106.888
L678.5 95.1416
L676.71 95.1416
z
" style="fill:#4daf4a;"/>
   </g>
   <g id="patch_366">
    <path clip-path="url(#p6a4ae4428d)" d="
M678.562 105.321
L679.028 105.321
L679.028 93.5755
L678.562 93.5755
z
" style="fill:#40cf40;"/>
   </g>
   <g id="patch_367">
    <path clip-path="url(#p6a4ae4428d)" d="
M680.034 106.888
L680.249 106.888
L680.249 95.1416
L680.034 95.1416
z
" style="fill:#4daf4a;"/>
   </g>
   <g id="patch_368">
    <path clip-path="url(#p6a4ae4428d)" d="
M680.531 105.321
L681.831 105.321
L681.831 93.5755
L680.531 93.5755
z
" style="fill:#40cf40;"/>
   </g>
   <g id="patch_369">
    <path clip-path="url(#p6a4ae4428d)" d="
M681.832 106.888
L683.85 106.888
L683.85 95.1416
L681.832 95.1416
z
" style="fill:#4daf4a;"/>
   </g>
   <g id="patch_370">
    <path clip-path="url(#p6a4ae4428d)" d="
M683.941 105.321
L684.327 105.321
L684.327 93.5755
L683.941 93.5755
z
" style="fill:#40cf40;"/>
   </g>
   <g id="patch_371">
    <path clip-path="url(#p6a4ae4428d)" d="
M684.328 106.888
L684.611 106.888
L684.611 95.1416
L684.328 95.1416
z
" style="fill:#4daf4a;"/>
   </g>
   <g id="patch_372">
    <path clip-path="url(#p6a4ae4428d)" d="
M684.612 105.321
L686.754 105.321
L686.754 93.5755
L684.612 93.5755
z
" style="fill:#40cf40;"/>
   </g>
   <g id="patch_373">
    <path clip-path="url(#p6a4ae4428d)" d="
M686.868 106.888
L688.155 106.888
L688.155 95.1416
L686.868 95.1416
z
" style="fill:#4daf4a;"/>
   </g>
   <g id="patch_374">
    <path clip-path="url(#p6a4ae4428d)" d="
M688.22 105.321
L689.336 105.321
L689.336 93.5755
L688.22 93.5755
z
" style="fill:#40cf40;"/>
   </g>
   <g id="patch_375">
    <path clip-path="url(#p6a4ae4428d)" d="
M689.336 106.888
L690.385 106.888
L690.385 95.1416
L689.336 95.1416
z
" style="fill:#4daf4a;"/>
   </g>
   <g id="patch_376">
    <path clip-path="url(#p6a4ae4428d)" d="
M690.386 105.321
L691.562 105.321
L691.562 93.5755
L690.386 93.5755
z
" style="fill:#40cf40;"/>
   </g>
   <g id="patch_377">
    <path clip-path="url(#p6a4ae4428d)" d="
M691.562 106.888
L693.778 106.888
L693.778 95.1416
L691.562 95.1416
z
" style="fill:#4daf4a;"/>
   </g>
   <g id="patch_378">
    <path clip-path="url(#p6a4ae4428d)" d="
M693.778 105.321
L693.961 105.321
L693.961 93.5755
L693.778 93.5755
z
" style="fill:#40cf40;"/>
   </g>
   <g id="patch_379">
    <path clip-path="url(#p6a4ae4428d)" d="
M693.961 106.888
L694.573 106.888
L694.573 95.1416
L693.961 95.1416
z
" style="fill:#4daf4a;"/>
   </g>
   <g id="patch_380">
    <path clip-path="url(#p6a4ae4428d)" d="
M694.574 105.321
L694.747 105.321
L694.747 93.5755
L694.574 93.5755
z
" style="fill:#40cf40;"/>
   </g>
   <g id="patch_381">
    <path clip-path="url(#p6a4ae4428d)" d="
M694.748 106.888
L696.327 106.888
L696.327 95.1416
L694.748 95.1416
z
" style="fill:#4daf4a;"/>
   </g>
   <g id="patch_382">
    <path clip-path="url(#p6a4ae4428d)" d="
M696.327 105.321
L697.117 105.321
L697.117 93.5755
L696.327 93.5755
z
" style="fill:#40cf40;"/>
   </g>
   <g id="patch_383">
    <path clip-path="url(#p6a4ae4428d)" d="
M697.118 106.888
L698.662 106.888
L698.662 95.1416
L697.118 95.1416
z
" style="fill:#4daf4a;"/>
   </g>
   <g id="patch_384">
    <path clip-path="url(#p6a4ae4428d)" d="
M698.772 105.321
L701.485 105.321
L701.485 93.5755
L698.772 93.5755
z
" style="fill:#40cf40;"/>
   </g>
   <g id="patch_385">
    <path clip-path="url(#p6a4ae4428d)" d="
M701.543 106.888
L702.855 106.888
L702.855 95.1416
L701.543 95.1416
z
" style="fill:#4daf4a;"/>
   </g>
   <g id="patch_386">
    <path clip-path="url(#p6a4ae4428d)" d="
M702.856 105.321
L703.017 105.321
L703.017 93.5755
L702.856 93.5755
z
" style="fill:#40cf40;"/>
   </g>
   <g id="patch_387">
    <path clip-path="url(#p6a4ae4428d)" d="
M703.017 106.888
L705.72 106.888
L705.72 95.1416
L703.017 95.1416
z
" style="fill:#4daf4a;"/>
   </g>
   <g id="patch_388">
    <path clip-path="url(#p6a4ae4428d)" d="
M705.796 105.321
L707.331 105.321
L707.331 93.5755
L705.796 93.5755
z
" style="fill:#40cf40;"/>
   </g>
   <g id="patch_389">
    <path clip-path="url(#p6a4ae4428d)" d="
M707.332 106.888
L708.381 106.888
L708.381 95.1416
L707.332 95.1416
z
" style="fill:#4daf4a;"/>
   </g>
   <g id="patch_390">
    <path clip-path="url(#p6a4ae4428d)" d="
M708.455 105.321
L709.57 105.321
L709.57 93.5755
L708.455 93.5755
z
" style="fill:#40cf40;"/>
   </g>
   <g id="patch_391">
    <path clip-path="url(#p6a4ae4428d)" d="
M709.585 106.888
L710.428 106.888
L710.428 95.1416
L709.585 95.1416
z
" style="fill:#4daf4a;"/>
   </g>
   <g id="patch_392">
    <path clip-path="url(#p6a4ae4428d)" d="
M710.429 105.321
L712.087 105.321
L712.087 93.5755
L710.429 93.5755
z
" style="fill:#40cf40;"/>
   </g>
   <g id="patch_393">
    <path clip-path="url(#p6a4ae4428d)" d="
M712.131 106.888
L714.012 106.888
L714.012 95.1416
L712.131 95.1416
z
" style="fill:#4daf4a;"/>
   </g>
   <g id="line2d_1">
    <path clip-path="url(#p6a4ae4428d)" d="
M182.801 66.56
L424.263 66.56" style="fill:none;stroke:#000000;stroke-linecap:square;stroke-width:0.5;"/>
   </g>
   <g id="line2d_2">
    <path clip-path="url(#p6a4ae4428d)" d="
M182.801 15.6612
L182.801 109.628" style="fill:none;stroke:#808080;stroke-dasharray:1.000000,3.000000;stroke-dashoffset:0.0;stroke-width:0.2;"/>
   </g>
   <g id="line2d_3">
    <path clip-path="url(#p6a4ae4428d)" d="
M182.801 66.56
L182.801 68.9092" style="fill:none;stroke:#000000;stroke-linecap:square;stroke-width:0.5;"/>
   </g>
   <g id="line2d_4">
    <path clip-path="url(#p6a4ae4428d)" d="
M222 15.6612
L222 109.628" style="fill:none;stroke:#808080;stroke-dasharray:1.000000,3.000000;stroke-dashoffset:0.0;stroke-width:0.2;"/>
   </g>
   <g id="line2d_5">
    <path clip-path="url(#p6a4ae4428d)" d="
M222 66.56
L222 68.9092" style="fill:none;stroke:#000000;stroke-linecap:square;stroke-width:0.5;"/>
   </g>
   <g id="line2d_6">
    <path clip-path="url(#p6a4ae4428d)" d="
M261.2 15.6612
L261.2 109.628" style="fill:none;stroke:#808080;stroke-dasharray:1.000000,3.000000;stroke-dashoffset:0.0;stroke-width:0.2;"/>
   </g>
   <g id="line2d_7">
    <path clip-path="url(#p6a4ae4428d)" d="
M261.2 66.56
L261.2 68.9092" style="fill:none;stroke:#000000;stroke-linecap:square;stroke-width:0.5;"/>
   </g>
   <g id="line2d_8">
    <path clip-path="url(#p6a4ae4428d)" d="
M300.4 15.6612
L300.4 109.628" style="fill:none;stroke:#808080;stroke-dasharray:1.000000,3.000000;stroke-dashoffset:0.0;stroke-width:0.2;"/>
   </g>
   <g id="line2d_9">
    <path clip-path="url(#p6a4ae4428d)" d="
M300.4 66.56
L300.4 68.9092" style="fill:none;stroke:#000000;stroke-linecap:square;stroke-width:0.5;"/>
   </g>
   <g id="line2d_10">
    <path clip-path="url(#p6a4ae4428d)" d="
M339.599 15.6612
L339.599 109.628" style="fill:none;stroke:#808080;stroke-dasharray:1.000000,3.000000;stroke-dashoffset:0.0;stroke-width:0.2;"/>
   </g>
   <g id="line2d_11">
    <path clip-path="url(#p6a4ae4428d)" d="
M339.599 66.56
L339.599 68.9092" style="fill:none;stroke:#000000;stroke-linecap:square;stroke-width:0.5;"/>
   </g>
   <g id="line2d_12">
    <path clip-path="url(#p6a4ae4428d)" d="
M378.799 15.6612
L378.799 109.628" style="fill:none;stroke:#808080;stroke-dasharray:1.000000,3.000000;stroke-dashoffset:0.0;stroke-width:0.2;"/>
   </g>
   <g id="line2d_13">
    <path clip-path="url(#p6a4ae4428d)" d="
M378.799 66.56
L378.799 68.9092" style="fill:none;stroke:#000000;stroke-linecap:square;stroke-width:0.5;"/>
   </g>
   <g id="line2d_14">
    <path clip-path="url(#p6a4ae4428d)" d="
M424.263 15.6612
L424.263 109.628" style="fill:none;stroke:#808080;stroke-dasharray:1.000000,3.000000;stroke-dashoffset:0.0;stroke-width:0.2;"/>
   </g>
   <g id="line2d_15">
    <path clip-path="url(#p6a4ae4428d)" d="
M424.263 66.56
L424.263 68.9092" style="fill:none;stroke:#000000;stroke-linecap:square;stroke-width:0.5;"/>
   </g>
   <g id="line2d_16">
    <path clip-path="url(#p6a4ae4428d)" d="
M472.555 66.56
L714.017 66.56" style="fill:none;stroke:#000000;stroke-linecap:square;stroke-width:0.5;"/>
   </g>
   <g id="line2d_17">
    <path clip-path="url(#p6a4ae4428d)" d="
M472.555 15.6612
L472.555 109.628" style="fill:none;stroke:#808080;stroke-dasharray:1.000000,3.000000;stroke-dashoffset:0.0;stroke-width:0.2;"/>
   </g>
   <g id="line2d_18">
    <path clip-path="url(#p6a4ae4428d)" d="
M472.555 66.56
L472.555 68.9092" style="fill:none;stroke:#000000;stroke-linecap:square;stroke-width:0.5;"/>
   </g>
   <g id="line2d_19">
    <path clip-path="url(#p6a4ae4428d)" d="
M511.755 15.6612
L511.755 109.628" style="fill:none;stroke:#808080;stroke-dasharray:1.000000,3.000000;stroke-dashoffset:0.0;stroke-width:0.2;"/>
   </g>
   <g id="line2d_20">
    <path clip-path="url(#p6a4ae4428d)" d="
M511.755 66.56
L511.755 68.9092" style="fill:none;stroke:#000000;stroke-linecap:square;stroke-width:0.5;"/>
   </g>
   <g id="line2d_21">
    <path clip-path="url(#p6a4ae4428d)" d="
M550.954 15.6612
L550.954 109.628" style="fill:none;stroke:#808080;stroke-dasharray:1.000000,3.000000;stroke-dashoffset:0.0;stroke-width:0.2;"/>
   </g>
   <g id="line2d_22">
    <path clip-path="url(#p6a4ae4428d)" d="
M550.954 66.56
L550.954 68.9092" style="fill:none;stroke:#000000;stroke-linecap:square;stroke-width:0.5;"/>
   </g>
   <g id="line2d_23">
    <path clip-path="url(#p6a4ae4428d)" d="
M590.154 15.6612
L590.154 109.628" style="fill:none;stroke:#808080;stroke-dasharray:1.000000,3.000000;stroke-dashoffset:0.0;stroke-width:0.2;"/>
   </g>
   <g id="line2d_24">
    <path clip-path="url(#p6a4ae4428d)" d="
M590.154 66.56
L590.154 68.9092" style="fill:none;stroke:#000000;stroke-linecap:square;stroke-width:0.5;"/>
   </g>
   <g id="line2d_25">
    <path clip-path="url(#p6a4ae4428d)" d="
M629.353 15.6612
L629.353 109.628" style="fill:none;stroke:#808080;stroke-dasharray:1.000000,3.000000;stroke-dashoffset:0.0;stroke-width:0.2;"/>
   </g>
   <g id="line2d_26">
    <path clip-path="url(#p6a4ae4428d)" d="
M629.353 66.56
L629.353 68.9092" style="fill:none;stroke:#000000;stroke-linecap:square;stroke-width:0.5;"/>
   </g>
   <g id="line2d_27">
    <path clip-path="url(#p6a4ae4428d)" d="
M668.553 15.6612
L668.553 109.628" style="fill:none;stroke:#808080;stroke-dasharray:1.000000,3.000000;stroke-dashoffset:0.0;stroke-width:0.2;"/>
   </g>
   <g id="line2d_28">
    <path clip-path="url(#p6a4ae4428d)" d="
M668.553 66.56
L668.553 68.9092" style="fill:none;stroke:#000000;stroke-linecap:square;stroke-width:0.5;"/>
   </g>
   <g id="line2d_29">
    <path clip-path="url(#p6a4ae4428d)" d="
M714.017 15.6612
L714.017 109.628" style="fill:none;stroke:#808080;stroke-dasharray:1.000000,3.000000;stroke-dashoffset:0.0;stroke-width:0.2;"/>
   </g>
   <g id="line2d_30">
    <path clip-path="url(#p6a4ae4428d)" d="
M714.017 66.56
L714.017 68.9092" style="fill:none;stroke:#000000;stroke-linecap:square;stroke-width:0.5;"/>
   </g>
   <g id="text_1">
    <!-- 0.0 -->
    <defs>
     <path d="
M31.7812 66.4062
Q24.1719 66.4062 20.3281 58.9062
Q16.5 51.4219 16.5 36.375
Q16.5 21.3906 20.3281 13.8906
Q24.1719 6.39062 31.7812 6.39062
Q39.4531 6.39062 43.2812 13.8906
Q47.125 21.3906 47.125 36.375
Q47.125 51.4219 43.2812 58.9062
Q39.4531 66.4062 31.7812 66.4062
M31.7812 74.2188
Q44.0469 74.2188 50.5156 64.5156
Q56.9844 54.8281 56.9844 36.375
Q56.9844 17.9688 50.5156 8.26562
Q44.0469 -1.42188 31.7812 -1.42188
Q19.5312 -1.42188 13.0625 8.26562
Q6.59375 17.9688 6.59375 36.375
Q6.59375 54.8281 13.0625 64.5156
Q19.5312 74.2188 31.7812 74.2188" id="BitstreamVeraSans-Roman-30"/>
     <path d="
M10.6875 12.4062
L21 12.4062
L21 0
L10.6875 0
z
" id="BitstreamVeraSans-Roman-2e"/>
    </defs>
    <g transform="translate(184.67568 74.9879264706)scale(0.08 -0.08)">
     <use xlink:href="#BitstreamVeraSans-Roman-30"/>
     <use x="63.623046875" xlink:href="#BitstreamVeraSans-Roman-2e"/>
     <use x="95.41015625" xlink:href="#BitstreamVeraSans-Roman-30"/>
    </g>
   </g>
   <g id="text_2">
    <!-- 1.0 -->
    <defs>
     <path d="
M12.4062 8.29688
L28.5156 8.29688
L28.5156 63.9219
L10.9844 60.4062
L10.9844 69.3906
L28.4219 72.9062
L38.2812 72.9062
L38.2812 8.29688
L54.3906 8.29688
L54.3906 0
L12.4062 0
z
" id="BitstreamVeraSans-Roman-31"/>
    </defs>
    <g transform="translate(223.875299822 74.9879264706)scale(0.08 -0.08)">
     <use xlink:href="#BitstreamVeraSans-Roman-31"/>
     <use x="63.623046875" xlink:href="#BitstreamVeraSans-Roman-2e"/>
     <use x="95.41015625" xlink:href="#BitstreamVeraSans-Roman-30"/>
    </g>
   </g>
   <g id="text_3">
    <!-- 2.0 -->
    <defs>
     <path d="
M19.1875 8.29688
L53.6094 8.29688
L53.6094 0
L7.32812 0
L7.32812 8.29688
Q12.9375 14.1094 22.625 23.8906
Q32.3281 33.6875 34.8125 36.5312
Q39.5469 41.8438 41.4219 45.5312
Q43.3125 49.2188 43.3125 52.7812
Q43.3125 58.5938 39.2344 62.25
Q35.1562 65.9219 28.6094 65.9219
Q23.9688 65.9219 18.8125 64.3125
Q13.6719 62.7031 7.8125 59.4219
L7.8125 69.3906
Q13.7656 71.7812 18.9375 73
Q24.125 74.2188 28.4219 74.2188
Q39.75 74.2188 46.4844 68.5469
Q53.2188 62.8906 53.2188 53.4219
Q53.2188 48.9219 51.5312 44.8906
Q49.8594 40.875 45.4062 35.4062
Q44.1875 33.9844 37.6406 27.2188
Q31.1094 20.4531 19.1875 8.29688" id="BitstreamVeraSans-Roman-32"/>
    </defs>
    <g transform="translate(263.074919645 74.9879264706)scale(0.08 -0.08)">
     <use xlink:href="#BitstreamVeraSans-Roman-32"/>
     <use x="63.623046875" xlink:href="#BitstreamVeraSans-Roman-2e"/>
     <use x="95.41015625" xlink:href="#BitstreamVeraSans-Roman-30"/>
    </g>
   </g>
   <g id="text_4">
    <!-- 3.0 -->
    <defs>
     <path d="
M40.5781 39.3125
Q47.6562 37.7969 51.625 33
Q55.6094 28.2188 55.6094 21.1875
Q55.6094 10.4062 48.1875 4.48438
Q40.7656 -1.42188 27.0938 -1.42188
Q22.5156 -1.42188 17.6562 -0.515625
Q12.7969 0.390625 7.625 2.20312
L7.625 11.7188
Q11.7188 9.32812 16.5938 8.10938
Q21.4844 6.89062 26.8125 6.89062
Q36.0781 6.89062 40.9375 10.5469
Q45.7969 14.2031 45.7969 21.1875
Q45.7969 27.6406 41.2812 31.2656
Q36.7656 34.9062 28.7188 34.9062
L20.2188 34.9062
L20.2188 43.0156
L29.1094 43.0156
Q36.375 43.0156 40.2344 45.9219
Q44.0938 48.8281 44.0938 54.2969
Q44.0938 59.9062 40.1094 62.9062
Q36.1406 65.9219 28.7188 65.9219
Q24.6562 65.9219 20.0156 65.0312
Q15.375 64.1562 9.8125 62.3125
L9.8125 71.0938
Q15.4375 72.6562 20.3438 73.4375
Q25.25 74.2188 29.5938 74.2188
Q40.8281 74.2188 47.3594 69.1094
Q53.9062 64.0156 53.9062 55.3281
Q53.9062 49.2656 50.4375 45.0938
Q46.9688 40.9219 40.5781 39.3125" id="BitstreamVeraSans-Roman-33"/>
    </defs>
    <g transform="translate(302.274539467 74.9879264706)scale(0.08 -0.08)">
     <use xlink:href="#BitstreamVeraSans-Roman-33"/>
     <use x="63.623046875" xlink:href="#BitstreamVeraSans-Roman-2e"/>
     <use x="95.41015625" xlink:href="#BitstreamVeraSans-Roman-30"/>
    </g>
   </g>
   <g id="text_5">
    <!-- 4.0 -->
    <defs>
     <path d="
M37.7969 64.3125
L12.8906 25.3906
L37.7969 25.3906
z

M35.2031 72.9062
L47.6094 72.9062
L47.6094 25.3906
L58.0156 25.3906
L58.0156 17.1875
L47.6094 17.1875
L47.6094 0
L37.7969 0
L37.7969 17.1875
L4.89062 17.1875
L4.89062 26.7031
z
" id="BitstreamVeraSans-Roman-34"/>
    </defs>
    <g transform="translate(341.474159289 74.9879264706)scale(0.08 -0.08)">
     <use xlink:href="#BitstreamVeraSans-Roman-34"/>
     <use x="63.623046875" xlink:href="#BitstreamVeraSans-Roman-2e"/>
     <use x="95.41015625" xlink:href="#BitstreamVeraSans-Roman-30"/>
    </g>
   </g>
   <g id="text_6">
    <!-- 5.0 -->
    <defs>
     <path d="
M10.7969 72.9062
L49.5156 72.9062
L49.5156 64.5938
L19.8281 64.5938
L19.8281 46.7344
Q21.9688 47.4688 24.1094 47.8281
Q26.2656 48.1875 28.4219 48.1875
Q40.625 48.1875 47.75 41.5
Q54.8906 34.8125 54.8906 23.3906
Q54.8906 11.625 47.5625 5.09375
Q40.2344 -1.42188 26.9062 -1.42188
Q22.3125 -1.42188 17.5469 -0.640625
Q12.7969 0.140625 7.71875 1.70312
L7.71875 11.625
Q12.1094 9.23438 16.7969 8.0625
Q21.4844 6.89062 26.7031 6.89062
Q35.1562 6.89062 40.0781 11.3281
Q45.0156 15.7656 45.0156 23.3906
Q45.0156 31 40.0781 35.4375
Q35.1562 39.8906 26.7031 39.8906
Q22.75 39.8906 18.8125 39.0156
Q14.8906 38.1406 10.7969 36.2812
z
" id="BitstreamVeraSans-Roman-35"/>
    </defs>
    <g transform="translate(380.673779112 74.9879264706)scale(0.08 -0.08)">
     <use xlink:href="#BitstreamVeraSans-Roman-35"/>
     <use x="63.623046875" xlink:href="#BitstreamVeraSans-Roman-2e"/>
     <use x="95.41015625" xlink:href="#BitstreamVeraSans-Roman-30"/>
    </g>
   </g>
   <g id="text_7">
    <!-- 6.16 -->
    <defs>
     <path d="
M33.0156 40.375
Q26.375 40.375 22.4844 35.8281
Q18.6094 31.2969 18.6094 23.3906
Q18.6094 15.5312 22.4844 10.9531
Q26.375 6.39062 33.0156 6.39062
Q39.6562 6.39062 43.5312 10.9531
Q47.4062 15.5312 47.4062 23.3906
Q47.4062 31.2969 43.5312 35.8281
Q39.6562 40.375 33.0156 40.375
M52.5938 71.2969
L52.5938 62.3125
Q48.875 64.0625 45.0938 64.9844
Q41.3125 65.9219 37.5938 65.9219
Q27.8281 65.9219 22.6719 59.3281
Q17.5312 52.7344 16.7969 39.4062
Q19.6719 43.6562 24.0156 45.9219
Q28.375 48.1875 33.5938 48.1875
Q44.5781 48.1875 50.9531 41.5156
Q57.3281 34.8594 57.3281 23.3906
Q57.3281 12.1562 50.6875 5.35938
Q44.0469 -1.42188 33.0156 -1.42188
Q20.3594 -1.42188 13.6719 8.26562
Q6.98438 17.9688 6.98438 36.375
Q6.98438 53.6562 15.1875 63.9375
Q23.3906 74.2188 37.2031 74.2188
Q40.9219 74.2188 44.7031 73.4844
Q48.4844 72.75 52.5938 71.2969" id="BitstreamVeraSans-Roman-36"/>
    </defs>
    <g transform="translate(426.137498182 74.9879264706)scale(0.08 -0.08)">
     <use xlink:href="#BitstreamVeraSans-Roman-36"/>
     <use x="63.623046875" xlink:href="#BitstreamVeraSans-Roman-2e"/>
     <use x="95.41015625" xlink:href="#BitstreamVeraSans-Roman-31"/>
     <use x="159.033203125" xlink:href="#BitstreamVeraSans-Roman-36"/>
    </g>
   </g>
   <g id="text_8">
    <!-- chr_0 (..aciae_0990) -->
    <defs>
     <path id="BitstreamVeraSans-Roman-20"/>
     <path d="
M50.9844 -16.6094
L50.9844 -23.5781
L-0.984375 -23.5781
L-0.984375 -16.6094
z
" id="BitstreamVeraSans-Roman-5f"/>
     <path d="
M8.01562 75.875
L15.8281 75.875
Q23.1406 64.3594 26.7812 53.3125
Q30.4219 42.2812 30.4219 31.3906
Q30.4219 20.4531 26.7812 9.375
Q23.1406 -1.70312 15.8281 -13.1875
L8.01562 -13.1875
Q14.5 -2 17.7031 9.0625
Q20.9062 20.125 20.9062 31.3906
Q20.9062 42.6719 17.7031 53.6562
Q14.5 64.6562 8.01562 75.875" id="BitstreamVeraSans-Roman-29"/>
     <path d="
M31 75.875
Q24.4688 64.6562 21.2812 53.6562
Q18.1094 42.6719 18.1094 31.3906
Q18.1094 20.125 21.3125 9.0625
Q24.5156 -2 31 -13.1875
L23.1875 -13.1875
Q15.875 -1.70312 12.2344 9.375
Q8.59375 20.4531 8.59375 31.3906
Q8.59375 42.2812 12.2031 53.3125
Q15.8281 64.3594 23.1875 75.875
z
" id="BitstreamVeraSans-Roman-28"/>
     <path d="
M10.9844 1.51562
L10.9844 10.5
Q14.7031 8.73438 18.5 7.8125
Q22.3125 6.89062 25.9844 6.89062
Q35.75 6.89062 40.8906 13.4531
Q46.0469 20.0156 46.7812 33.4062
Q43.9531 29.2031 39.5938 26.9531
Q35.25 24.7031 29.9844 24.7031
Q19.0469 24.7031 12.6719 31.3125
Q6.29688 37.9375 6.29688 49.4219
Q6.29688 60.6406 12.9375 67.4219
Q19.5781 74.2188 30.6094 74.2188
Q43.2656 74.2188 49.9219 64.5156
Q56.5938 54.8281 56.5938 36.375
Q56.5938 19.1406 48.4062 8.85938
Q40.2344 -1.42188 26.4219 -1.42188
Q22.7031 -1.42188 18.8906 -0.6875
Q15.0938 0.046875 10.9844 1.51562
M30.6094 32.4219
Q37.25 32.4219 41.125 36.9531
Q45.0156 41.5 45.0156 49.4219
Q45.0156 57.2812 41.125 61.8438
Q37.25 66.4062 30.6094 66.4062
Q23.9688 66.4062 20.0938 61.8438
Q16.2188 57.2812 16.2188 49.4219
Q16.2188 41.5 20.0938 36.9531
Q23.9688 32.4219 30.6094 32.4219" id="BitstreamVeraSans-Roman-39"/>
     <path d="
M9.42188 54.6875
L18.4062 54.6875
L18.4062 0
L9.42188 0
z

M9.42188 75.9844
L18.4062 75.9844
L18.4062 64.5938
L9.42188 64.5938
z
" id="BitstreamVeraSans-Roman-69"/>
     <path d="
M54.8906 33.0156
L54.8906 0
L45.9062 0
L45.9062 32.7188
Q45.9062 40.4844 42.875 44.3281
Q39.8438 48.1875 33.7969 48.1875
Q26.5156 48.1875 22.3125 43.5469
Q18.1094 38.9219 18.1094 30.9062
L18.1094 0
L9.07812 0
L9.07812 75.9844
L18.1094 75.9844
L18.1094 46.1875
Q21.3438 51.125 25.7031 53.5625
Q30.0781 56 35.7969 56
Q45.2188 56 50.0469 50.1719
Q54.8906 44.3438 54.8906 33.0156" id="BitstreamVeraSans-Roman-68"/>
     <path d="
M56.2031 29.5938
L56.2031 25.2031
L14.8906 25.2031
Q15.4844 15.9219 20.4844 11.0625
Q25.4844 6.20312 34.4219 6.20312
Q39.5938 6.20312 44.4531 7.46875
Q49.3125 8.73438 54.1094 11.2812
L54.1094 2.78125
Q49.2656 0.734375 44.1875 -0.34375
Q39.1094 -1.42188 33.8906 -1.42188
Q20.7969 -1.42188 13.1562 6.1875
Q5.51562 13.8125 5.51562 26.8125
Q5.51562 40.2344 12.7656 48.1094
Q20.0156 56 32.3281 56
Q43.3594 56 49.7812 48.8906
Q56.2031 41.7969 56.2031 29.5938
M47.2188 32.2344
Q47.125 39.5938 43.0938 43.9844
Q39.0625 48.3906 32.4219 48.3906
Q24.9062 48.3906 20.3906 44.1406
Q15.875 39.8906 15.1875 32.1719
z
" id="BitstreamVeraSans-Roman-65"/>
     <path d="
M34.2812 27.4844
Q23.3906 27.4844 19.1875 25
Q14.9844 22.5156 14.9844 16.5
Q14.9844 11.7188 18.1406 8.90625
Q21.2969 6.10938 26.7031 6.10938
Q34.1875 6.10938 38.7031 11.4062
Q43.2188 16.7031 43.2188 25.4844
L43.2188 27.4844
z

M52.2031 31.2031
L52.2031 0
L43.2188 0
L43.2188 8.29688
Q40.1406 3.32812 35.5469 0.953125
Q30.9531 -1.42188 24.3125 -1.42188
Q15.9219 -1.42188 10.9531 3.29688
Q6 8.01562 6 15.9219
Q6 25.1406 12.1719 29.8281
Q18.3594 34.5156 30.6094 34.5156
L43.2188 34.5156
L43.2188 35.4062
Q43.2188 41.6094 39.1406 45
Q35.0625 48.3906 27.6875 48.3906
Q23 48.3906 18.5469 47.2656
Q14.1094 46.1406 10.0156 43.8906
L10.0156 52.2031
Q14.9375 54.1094 19.5781 55.0469
Q24.2188 56 28.6094 56
Q40.4844 56 46.3438 49.8438
Q52.2031 43.7031 52.2031 31.2031" id="BitstreamVeraSans-Roman-61"/>
     <path d="
M41.1094 46.2969
Q39.5938 47.1719 37.8125 47.5781
Q36.0312 48 33.8906 48
Q26.2656 48 22.1875 43.0469
Q18.1094 38.0938 18.1094 28.8125
L18.1094 0
L9.07812 0
L9.07812 54.6875
L18.1094 54.6875
L18.1094 46.1875
Q20.9531 51.1719 25.4844 53.5781
Q30.0312 56 36.5312 56
Q37.4531 56 38.5781 55.875
Q39.7031 55.7656 41.0625 55.5156
z
" id="BitstreamVeraSans-Roman-72"/>
     <path d="
M48.7812 52.5938
L48.7812 44.1875
Q44.9688 46.2969 41.1406 47.3438
Q37.3125 48.3906 33.4062 48.3906
Q24.6562 48.3906 19.8125 42.8438
Q14.9844 37.3125 14.9844 27.2969
Q14.9844 17.2812 19.8125 11.7344
Q24.6562 6.20312 33.4062 6.20312
Q37.3125 6.20312 41.1406 7.25
Q44.9688 8.29688 48.7812 10.4062
L48.7812 2.09375
Q45.0156 0.34375 40.9844 -0.53125
Q36.9688 -1.42188 32.4219 -1.42188
Q20.0625 -1.42188 12.7812 6.34375
Q5.51562 14.1094 5.51562 27.2969
Q5.51562 40.6719 12.8594 48.3281
Q20.2188 56 33.0156 56
Q37.1562 56 41.1094 55.1406
Q45.0625 54.2969 48.7812 52.5938" id="BitstreamVeraSans-Roman-63"/>
    </defs>
    <g transform="translate(248.023818466 56.7121636029)scale(0.11 -0.11)">
     <use xlink:href="#BitstreamVeraSans-Roman-63"/>
     <use x="54.98046875" xlink:href="#BitstreamVeraSans-Roman-68"/>
     <use x="118.359375" xlink:href="#BitstreamVeraSans-Roman-72"/>
     <use x="159.47265625" xlink:href="#BitstreamVeraSans-Roman-5f"/>
     <use x="209.47265625" xlink:href="#BitstreamVeraSans-Roman-30"/>
     <use x="273.095703125" xlink:href="#BitstreamVeraSans-Roman-20"/>
     <use x="304.8828125" xlink:href="#BitstreamVeraSans-Roman-28"/>
     <use x="343.896484375" xlink:href="#BitstreamVeraSans-Roman-2e"/>
     <use x="375.68359375" xlink:href="#BitstreamVeraSans-Roman-2e"/>
     <use x="407.470703125" xlink:href="#BitstreamVeraSans-Roman-61"/>
     <use x="468.75" xlink:href="#BitstreamVeraSans-Roman-63"/>
     <use x="523.73046875" xlink:href="#BitstreamVeraSans-Roman-69"/>
     <use x="551.513671875" xlink:href="#BitstreamVeraSans-Roman-61"/>
     <use x="612.79296875" xlink:href="#BitstreamVeraSans-Roman-65"/>
     <use x="674.31640625" xlink:href="#BitstreamVeraSans-Roman-5f"/>
     <use x="724.31640625" xlink:href="#BitstreamVeraSans-Roman-30"/>
     <use x="787.939453125" xlink:href="#BitstreamVeraSans-Roman-39"/>
     <use x="851.5625" xlink:href="#BitstreamVeraSans-Roman-39"/>
     <use x="915.185546875" xlink:href="#BitstreamVeraSans-Roman-30"/>
     <use x="978.80859375" xlink:href="#BitstreamVeraSans-Roman-29"/>
    </g>
   </g>
   <g id="text_9">
    <!-- 0.0 -->
    <g transform="translate(474.429861818 74.9879264706)scale(0.08 -0.08)">
     <use xlink:href="#BitstreamVeraSans-Roman-30"/>
     <use x="63.623046875" xlink:href="#BitstreamVeraSans-Roman-2e"/>
     <use x="95.41015625" xlink:href="#BitstreamVeraSans-Roman-30"/>
    </g>
   </g>
   <g id="text_10">
    <!-- 1.0 -->
    <g transform="translate(513.629481641 74.9879264706)scale(0.08 -0.08)">
     <use xlink:href="#BitstreamVeraSans-Roman-31"/>
     <use x="63.623046875" xlink:href="#BitstreamVeraSans-Roman-2e"/>
     <use x="95.41015625" xlink:href="#BitstreamVeraSans-Roman-30"/>
    </g>
   </g>
   <g id="text_11">
    <!-- 2.0 -->
    <g transform="translate(552.829101463 74.9879264706)scale(0.08 -0.08)">
     <use xlink:href="#BitstreamVeraSans-Roman-32"/>
     <use x="63.623046875" xlink:href="#BitstreamVeraSans-Roman-2e"/>
     <use x="95.41015625" xlink:href="#BitstreamVeraSans-Roman-30"/>
    </g>
   </g>
   <g id="text_12">
    <!-- 3.0 -->
    <g transform="translate(592.028721285 74.9879264706)scale(0.08 -0.08)">
     <use xlink:href="#BitstreamVeraSans-Roman-33"/>
     <use x="63.623046875" xlink:href="#BitstreamVeraSans-Roman-2e"/>
     <use x="95.41015625" xlink:href="#BitstreamVeraSans-Roman-30"/>
    </g>
   </g>
   <g id="text_13">
    <!-- 4.0 -->
    <g transform="translate(631.228341108 74.9879264706)scale(0.08 -0.08)">
     <use xlink:href="#BitstreamVeraSans-Roman-34"/>
     <use x="63.623046875" xlink:href="#BitstreamVeraSans-Roman-2e"/>
     <use x="95.41015625" xlink:href="#BitstreamVeraSans-Roman-30"/>
    </g>
   </g>
   <g id="text_14">
    <!-- 5.0 -->
    <g transform="translate(670.42796093 74.9879264706)scale(0.08 -0.08)">
     <use xlink:href="#BitstreamVeraSans-Roman-35"/>
     <use x="63.623046875" xlink:href="#BitstreamVeraSans-Roman-2e"/>
     <use x="95.41015625" xlink:href="#BitstreamVeraSans-Roman-30"/>
    </g>
   </g>
   <g id="text_15">
    <!-- 6.16 -->
    <g transform="translate(715.89168 74.9879264706)scale(0.08 -0.08)">
     <use xlink:href="#BitstreamVeraSans-Roman-36"/>
     <use x="63.623046875" xlink:href="#BitstreamVeraSans-Roman-2e"/>
     <use x="95.41015625" xlink:href="#BitstreamVeraSans-Roman-31"/>
     <use x="159.033203125" xlink:href="#BitstreamVeraSans-Roman-36"/>
    </g>
   </g>
   <g id="text_16">
    <!-- chr_1 (..e_ancestor) -->
    <defs>
     <path d="
M54.8906 33.0156
L54.8906 0
L45.9062 0
L45.9062 32.7188
Q45.9062 40.4844 42.875 44.3281
Q39.8438 48.1875 33.7969 48.1875
Q26.5156 48.1875 22.3125 43.5469
Q18.1094 38.9219 18.1094 30.9062
L18.1094 0
L9.07812 0
L9.07812 54.6875
L18.1094 54.6875
L18.1094 46.1875
Q21.3438 51.125 25.7031 53.5625
Q30.0781 56 35.7969 56
Q45.2188 56 50.0469 50.1719
Q54.8906 44.3438 54.8906 33.0156" id="BitstreamVeraSans-Roman-6e"/>
     <path d="
M18.3125 70.2188
L18.3125 54.6875
L36.8125 54.6875
L36.8125 47.7031
L18.3125 47.7031
L18.3125 18.0156
Q18.3125 11.3281 20.1406 9.42188
Q21.9688 7.51562 27.5938 7.51562
L36.8125 7.51562
L36.8125 0
L27.5938 0
Q17.1875 0 13.2344 3.875
Q9.28125 7.76562 9.28125 18.0156
L9.28125 47.7031
L2.6875 47.7031
L2.6875 54.6875
L9.28125 54.6875
L9.28125 70.2188
z
" id="BitstreamVeraSans-Roman-74"/>
     <path d="
M30.6094 48.3906
Q23.3906 48.3906 19.1875 42.75
Q14.9844 37.1094 14.9844 27.2969
Q14.9844 17.4844 19.1562 11.8438
Q23.3438 6.20312 30.6094 6.20312
Q37.7969 6.20312 41.9844 11.8594
Q46.1875 17.5312 46.1875 27.2969
Q46.1875 37.0156 41.9844 42.7031
Q37.7969 48.3906 30.6094 48.3906
M30.6094 56
Q42.3281 56 49.0156 48.375
Q55.7188 40.7656 55.7188 27.2969
Q55.7188 13.875 49.0156 6.21875
Q42.3281 -1.42188 30.6094 -1.42188
Q18.8438 -1.42188 12.1719 6.21875
Q5.51562 13.875 5.51562 27.2969
Q5.51562 40.7656 12.1719 48.375
Q18.8438 56 30.6094 56" id="BitstreamVeraSans-Roman-6f"/>
     <path d="
M44.2812 53.0781
L44.2812 44.5781
Q40.4844 46.5312 36.375 47.5
Q32.2812 48.4844 27.875 48.4844
Q21.1875 48.4844 17.8438 46.4375
Q14.5 44.3906 14.5 40.2812
Q14.5 37.1562 16.8906 35.375
Q19.2812 33.5938 26.5156 31.9844
L29.5938 31.2969
Q39.1562 29.25 43.1875 25.5156
Q47.2188 21.7812 47.2188 15.0938
Q47.2188 7.46875 41.1875 3.01562
Q35.1562 -1.42188 24.6094 -1.42188
Q20.2188 -1.42188 15.4531 -0.5625
Q10.6875 0.296875 5.42188 2
L5.42188 11.2812
Q10.4062 8.6875 15.2344 7.39062
Q20.0625 6.10938 24.8125 6.10938
Q31.1562 6.10938 34.5625 8.28125
Q37.9844 10.4531 37.9844 14.4062
Q37.9844 18.0625 35.5156 20.0156
Q33.0625 21.9688 24.7031 23.7812
L21.5781 24.5156
Q13.2344 26.2656 9.51562 29.9062
Q5.8125 33.5469 5.8125 39.8906
Q5.8125 47.6094 11.2812 51.7969
Q16.75 56 26.8125 56
Q31.7812 56 36.1719 55.2656
Q40.5781 54.5469 44.2812 53.0781" id="BitstreamVeraSans-Roman-73"/>
    </defs>
    <g transform="translate(539.156437784 56.7121636029)scale(0.11 -0.11)">
     <use xlink:href="#BitstreamVeraSans-Roman-63"/>
     <use x="54.98046875" xlink:href="#BitstreamVeraSans-Roman-68"/>
     <use x="118.359375" xlink:href="#BitstreamVeraSans-Roman-72"/>
     <use x="159.47265625" xlink:href="#BitstreamVeraSans-Roman-5f"/>
     <use x="209.47265625" xlink:href="#BitstreamVeraSans-Roman-31"/>
     <use x="273.095703125" xlink:href="#BitstreamVeraSans-Roman-20"/>
     <use x="304.8828125" xlink:href="#BitstreamVeraSans-Roman-28"/>
     <use x="343.896484375" xlink:href="#BitstreamVeraSans-Roman-2e"/>
     <use x="375.68359375" xlink:href="#BitstreamVeraSans-Roman-2e"/>
     <use x="407.470703125" xlink:href="#BitstreamVeraSans-Roman-65"/>
     <use x="468.994140625" xlink:href="#BitstreamVeraSans-Roman-5f"/>
     <use x="518.994140625" xlink:href="#BitstreamVeraSans-Roman-61"/>
     <use x="580.2734375" xlink:href="#BitstreamVeraSans-Roman-6e"/>
     <use x="643.65234375" xlink:href="#BitstreamVeraSans-Roman-63"/>
     <use x="698.6328125" xlink:href="#BitstreamVeraSans-Roman-65"/>
     <use x="760.15625" xlink:href="#BitstreamVeraSans-Roman-73"/>
     <use x="812.255859375" xlink:href="#BitstreamVeraSans-Roman-74"/>
     <use x="851.46484375" xlink:href="#BitstreamVeraSans-Roman-6f"/>
     <use x="912.646484375" xlink:href="#BitstreamVeraSans-Roman-72"/>
     <use x="953.759765625" xlink:href="#BitstreamVeraSans-Roman-29"/>
    </g>
   </g>
   <g id="text_17">
    <!-- Genome, x100 kb -->
    <defs>
     <path d="
M52 44.1875
Q55.375 50.25 60.0625 53.125
Q64.75 56 71.0938 56
Q79.6406 56 84.2812 50.0156
Q88.9219 44.0469 88.9219 33.0156
L88.9219 0
L79.8906 0
L79.8906 32.7188
Q79.8906 40.5781 77.0938 44.375
Q74.3125 48.1875 68.6094 48.1875
Q61.625 48.1875 57.5625 43.5469
Q53.5156 38.9219 53.5156 30.9062
L53.5156 0
L44.4844 0
L44.4844 32.7188
Q44.4844 40.625 41.7031 44.4062
Q38.9219 48.1875 33.1094 48.1875
Q26.2188 48.1875 22.1562 43.5312
Q18.1094 38.875 18.1094 30.9062
L18.1094 0
L9.07812 0
L9.07812 54.6875
L18.1094 54.6875
L18.1094 46.1875
Q21.1875 51.2188 25.4844 53.6094
Q29.7812 56 35.6875 56
Q41.6562 56 45.8281 52.9688
Q50 49.9531 52 44.1875" id="BitstreamVeraSans-Roman-6d"/>
     <path d="
M9.07812 75.9844
L18.1094 75.9844
L18.1094 31.1094
L44.9219 54.6875
L56.3906 54.6875
L27.3906 29.1094
L57.625 0
L45.9062 0
L18.1094 26.7031
L18.1094 0
L9.07812 0
z
" id="BitstreamVeraSans-Roman-6b"/>
     <path d="
M59.5156 10.4062
L59.5156 29.9844
L43.4062 29.9844
L43.4062 38.0938
L69.2812 38.0938
L69.2812 6.78125
Q63.5781 2.73438 56.6875 0.65625
Q49.8125 -1.42188 42 -1.42188
Q24.9062 -1.42188 15.25 8.5625
Q5.60938 18.5625 5.60938 36.375
Q5.60938 54.25 15.25 64.2344
Q24.9062 74.2188 42 74.2188
Q49.125 74.2188 55.5469 72.4531
Q61.9688 70.7031 67.3906 67.2812
L67.3906 56.7812
Q61.9219 61.4219 55.7656 63.7656
Q49.6094 66.1094 42.8281 66.1094
Q29.4375 66.1094 22.7188 58.6406
Q16.0156 51.1719 16.0156 36.375
Q16.0156 21.625 22.7188 14.1562
Q29.4375 6.6875 42.8281 6.6875
Q48.0469 6.6875 52.1406 7.59375
Q56.25 8.5 59.5156 10.4062" id="BitstreamVeraSans-Roman-47"/>
     <path d="
M11.7188 12.4062
L22.0156 12.4062
L22.0156 4
L14.0156 -11.625
L7.71875 -11.625
L11.7188 4
z
" id="BitstreamVeraSans-Roman-2c"/>
     <path d="
M54.8906 54.6875
L35.1094 28.0781
L55.9062 0
L45.3125 0
L29.3906 21.4844
L13.4844 0
L2.875 0
L24.125 28.6094
L4.6875 54.6875
L15.2812 54.6875
L29.7812 35.2031
L44.2812 54.6875
z
" id="BitstreamVeraSans-Roman-78"/>
     <path d="
M48.6875 27.2969
Q48.6875 37.2031 44.6094 42.8438
Q40.5312 48.4844 33.4062 48.4844
Q26.2656 48.4844 22.1875 42.8438
Q18.1094 37.2031 18.1094 27.2969
Q18.1094 17.3906 22.1875 11.75
Q26.2656 6.10938 33.4062 6.10938
Q40.5312 6.10938 44.6094 11.75
Q48.6875 17.3906 48.6875 27.2969
M18.1094 46.3906
Q20.9531 51.2656 25.2656 53.625
Q29.5938 56 35.5938 56
Q45.5625 56 51.7812 48.0938
Q58.0156 40.1875 58.0156 27.2969
Q58.0156 14.4062 51.7812 6.48438
Q45.5625 -1.42188 35.5938 -1.42188
Q29.5938 -1.42188 25.2656 0.953125
Q20.9531 3.32812 18.1094 8.20312
L18.1094 0
L9.07812 0
L9.07812 75.9844
L18.1094 75.9844
z
" id="BitstreamVeraSans-Roman-62"/>
    </defs>
    <g transform="translate(399.79739375 87.0556930147)scale(0.11 -0.11)">
     <use xlink:href="#BitstreamVeraSans-Roman-47"/>
     <use x="77.490234375" xlink:href="#BitstreamVeraSans-Roman-65"/>
     <use x="139.013671875" xlink:href="#BitstreamVeraSans-Roman-6e"/>
     <use x="202.392578125" xlink:href="#BitstreamVeraSans-Roman-6f"/>
     <use x="263.57421875" xlink:href="#BitstreamVeraSans-Roman-6d"/>
     <use x="360.986328125" xlink:href="#BitstreamVeraSans-Roman-65"/>
     <use x="422.509765625" xlink:href="#BitstreamVeraSans-Roman-2c"/>
     <use x="454.296875" xlink:href="#BitstreamVeraSans-Roman-20"/>
     <use x="486.083984375" xlink:href="#BitstreamVeraSans-Roman-78"/>
     <use x="545.263671875" xlink:href="#BitstreamVeraSans-Roman-31"/>
     <use x="608.88671875" xlink:href="#BitstreamVeraSans-Roman-30"/>
     <use x="672.509765625" xlink:href="#BitstreamVeraSans-Roman-30"/>
     <use x="736.1328125" xlink:href="#BitstreamVeraSans-Roman-20"/>
     <use x="767.919921875" xlink:href="#BitstreamVeraSans-Roman-6b"/>
     <use x="825.830078125" xlink:href="#BitstreamVeraSans-Roman-62"/>
    </g>
   </g>
   <g id="text_18">
    <!-- final.contigs -->
    <defs>
     <path d="
M45.4062 27.9844
Q45.4062 37.75 41.375 43.1094
Q37.3594 48.4844 30.0781 48.4844
Q22.8594 48.4844 18.8281 43.1094
Q14.7969 37.75 14.7969 27.9844
Q14.7969 18.2656 18.8281 12.8906
Q22.8594 7.51562 30.0781 7.51562
Q37.3594 7.51562 41.375 12.8906
Q45.4062 18.2656 45.4062 27.9844
M54.3906 6.78125
Q54.3906 -7.17188 48.1875 -13.9844
Q42 -20.7969 29.2031 -20.7969
Q24.4688 -20.7969 20.2656 -20.0938
Q16.0625 -19.3906 12.1094 -17.9219
L12.1094 -9.1875
Q16.0625 -11.3281 19.9219 -12.3438
Q23.7812 -13.375 27.7812 -13.375
Q36.625 -13.375 41.0156 -8.76562
Q45.4062 -4.15625 45.4062 5.17188
L45.4062 9.625
Q42.625 4.78125 38.2812 2.39062
Q33.9375 0 27.875 0
Q17.8281 0 11.6719 7.65625
Q5.51562 15.3281 5.51562 27.9844
Q5.51562 40.6719 11.6719 48.3281
Q17.8281 56 27.875 56
Q33.9375 56 38.2812 53.6094
Q42.625 51.2188 45.4062 46.3906
L45.4062 54.6875
L54.3906 54.6875
z
" id="BitstreamVeraSans-Roman-67"/>
     <path d="
M37.1094 75.9844
L37.1094 68.5
L28.5156 68.5
Q23.6875 68.5 21.7969 66.5469
Q19.9219 64.5938 19.9219 59.5156
L19.9219 54.6875
L34.7188 54.6875
L34.7188 47.7031
L19.9219 47.7031
L19.9219 0
L10.8906 0
L10.8906 47.7031
L2.29688 47.7031
L2.29688 54.6875
L10.8906 54.6875
L10.8906 58.5
Q10.8906 67.625 15.1406 71.7969
Q19.3906 75.9844 28.6094 75.9844
z
" id="BitstreamVeraSans-Roman-66"/>
     <path d="
M9.42188 75.9844
L18.4062 75.9844
L18.4062 0
L9.42188 0
z
" id="BitstreamVeraSans-Roman-6c"/>
    </defs>
    <g transform="translate(105.856725 101.259669118)scale(0.12 -0.12)">
     <use xlink:href="#BitstreamVeraSans-Roman-66"/>
     <use x="35.205078125" xlink:href="#BitstreamVeraSans-Roman-69"/>
     <use x="62.98828125" xlink:href="#BitstreamVeraSans-Roman-6e"/>
     <use x="126.3671875" xlink:href="#BitstreamVeraSans-Roman-61"/>
     <use x="187.646484375" xlink:href="#BitstreamVeraSans-Roman-6c"/>
     <use x="215.4296875" xlink:href="#BitstreamVeraSans-Roman-2e"/>
     <use x="247.216796875" xlink:href="#BitstreamVeraSans-Roman-63"/>
     <use x="302.197265625" xlink:href="#BitstreamVeraSans-Roman-6f"/>
     <use x="363.37890625" xlink:href="#BitstreamVeraSans-Roman-6e"/>
     <use x="426.7578125" xlink:href="#BitstreamVeraSans-Roman-74"/>
     <use x="465.966796875" xlink:href="#BitstreamVeraSans-Roman-69"/>
     <use x="493.75" xlink:href="#BitstreamVeraSans-Roman-67"/>
     <use x="557.2265625" xlink:href="#BitstreamVeraSans-Roman-73"/>
    </g>
   </g>
  </g>
 </g>
 <defs>
  <clipPath id="p6a4ae4428d">
   <rect height="117.458823529" width="781.2" x="0.0" y="0.0"/>
  </clipPath>
 </defs>
</svg>
