<?xml version="1.0" encoding="utf-8" standalone="no"?>
<!DOCTYPE svg PUBLIC "-//W3C//DTD SVG 1.1//EN"
  "http://www.w3.org/Graphics/SVG/1.1/DTD/svg11.dtd">
<!-- Created with matplotlib (http://matplotlib.org/) -->
<svg height="117pt" version="1.1" viewBox="0 0 781 117" width="781pt" xmlns="http://www.w3.org/2000/svg" xmlns:xlink="http://www.w3.org/1999/xlink">
 <defs>
  <style type="text/css">
*{stroke-linecap:butt;stroke-linejoin:round;}
  </style>
 </defs>
 <g id="figure_1">
  <g id="patch_1">
   <path d="
M0 117.459
L781.2 117.459
L781.2 0
L0 0
z
" style="fill:#ffffff;"/>
  </g>
  <g id="axes_1">
   <g id="patch_2">
    <path clip-path="url(#p6a4ae4428d)" d="
M149.99 117.459
L720.266 117.459
L720.266 15.6612
L149.99 15.6612
z
" style="fill:#ffffff;"/>
   </g>
   <g id="patch_3">
    <path clip-path="url(#p6a4ae4428d)" d="
M182.885 106.888
L185.097 106.888
L185.097 95.1416
L182.885 95.1416
z
" style="fill:#4daf4a;"/>
   </g>
   <g id="patch_4">
    <path clip-path="url(#p6a4ae4428d)" d="
M185.098 105.321
L185.479 105.321
L185.479 93.5755
L185.098 93.5755
z
" style="fill:#40cf40;"/>
   </g>
   <g id="patch_5">
    <path clip-path="url(#p6a4ae4428d)" d="
M185.48 106.888
L189.253 106.888
L189.253 95.1416
L185.48 95.1416
z
" style="fill:#4daf4a;"/>
   </g>
   <g id="patch_6">
    <path clip-path="url(#p6a4ae4428d)" d="
M189.418 105.321
L190.025 105.321
L190.025 93.5755
L189.418 93.5755
z
" style="fill:#40cf40;"/>
   </g>
   <g id="patch_7">
    <path clip-path="url(#p6a4ae4428d)" d="
M190.026 106.888
L190.583 106.888
L190.583 95.1416
L190.026 95.1416
z
" style="fill:#4daf4a;"/>
   </g>
   <g id="patch_8">
    <path clip-path="url(#p6a4ae4428d)" d="
M190.584 105.321
L191.059 105.321
L191.059 93.5755
L190.584 93.5755
z
" style="fill:#40cf40;"/>
   </g>
   <g id="patch_9">
    <path clip-path="url(#p6a4ae4428d)" d="
M191.163 106.888
L192.385 106.888
L192.385 95.1416
L191.163 95.1416
z
" style="fill:#4daf4a;"/>
   </g>
   <g id="patch_10">
    <path clip-path="url(#p6a4ae4428d)" d="
M192.386 105.321
L192.943 105.321
L192.943 93.5755
L192.386 93.5755
z
" style="fill:#40cf40;"/>
   </g>
   <g id="patch_11">
    <path clip-path="url(#p6a4ae4428d)" d="
M192.944 106.888
L193.751 106.888
L193.751 95.1416
L192.944 95.1416
z
" style="fill:#4daf4a;"/>
   </g>
   <g id="patch_12">
    <path clip-path="url(#p6a4ae4428d)" d="
M193.957 105.321
L196.646 105.321
L196.646 93.5755
L193.957 93.5755
z
" style="fill:#40cf40;"/>
   </g>
   <g id="patch_13">
    <path clip-path="url(#p6a4ae4428d)" d="
M196.647 106.888
L197.024 106.888
L197.024 95.1416
L196.647 95.1416
z
" style="fill:#4daf4a;"/>
   </g>
   <g id="patch_14">
    <path clip-path="url(#p6a4ae4428d)" d="
M197.212 105.321
L198.02 105.321
L198.02 93.5755
L197.212 93.5755
z
" style="fill:#40cf40;"/>
   </g>
   <g id="patch_15">
    <path clip-path="url(#p6a4ae4428d)" d="
M198.237 106.888
L199.05 106.888
L199.05 95.1416
L198.237 95.1416
z
" style="fill:#4daf4a;"/>
   </g>
   <g id="patch_16">
    <path clip-path="url(#p6a4ae4428d)" d="
M199.224 105.321
L200.815 105.321
L200.815 93.5755
L199.224 93.5755
z
" style="fill:#40cf40;"/>
   </g>
   <g id="patch_17">
    <path clip-path="url(#p6a4ae4428d)" d="
M200.816 106.888
L201.39 106.888
L201.39 95.1416
L200.816 95.1416
z
" style="fill:#4daf4a;"/>
   </g>
   <g id="patch_18">
    <path clip-path="url(#p6a4ae4428d)" d="
M201.391 105.321
L203.449 105.321
L203.449 93.5755
L201.391 93.5755
z
" style="fill:#40cf40;"/>
   </g>
   <g id="patch_19">
    <path clip-path="url(#p6a4ae4428d)" d="
M203.449 106.888
L203.91 106.888
L203.91 95.1416
L203.449 95.1416
z
" style="fill:#4daf4a;"/>
   </g>
   <g id="patch_20">
    <path clip-path="url(#p6a4ae4428d)" d="
M204.049 105.321
L205.713 105.321
L205.713 93.5755
L204.049 93.5755
z
" style="fill:#40cf40;"/>
   </g>
   <g id="patch_21">
    <path clip-path="url(#p6a4ae4428d)" d="
M205.714 106.888
L206.379 106.888
L206.379 95.1416
L205.714 95.1416
z
" style="fill:#4daf4a;"/>
   </g>
   <g id="patch_22">
    <path clip-path="url(#p6a4ae4428d)" d="
M206.379 105.321
L206.909 105.321
L206.909 93.5755
L206.379 93.5755
z
" style="fill:#40cf40;"/>
   </g>
   <g id="patch_23">
    <path clip-path="url(#p6a4ae4428d)" d="
M206.91 106.888
L208.504 106.888
L208.504 95.1416
L206.91 95.1416
z
" style="fill:#4daf4a;"/>
   </g>
   <g id="patch_24">
    <path clip-path="url(#p6a4ae4428d)" d="
M208.505 105.321
L208.909 105.321
L208.909 93.5755
L208.505 93.5755
z
" style="fill:#40cf40;"/>
   </g>
   <g id="patch_25">
    <path clip-path="url(#p6a4ae4428d)" d="
M208.91 106.888
L210.001 106.888
L210.001 95.1416
L208.91 95.1416
z
" style="fill:#4daf4a;"/>
   </g>
   <g id="patch_26">
    <path clip-path="url(#p6a4ae4428d)" d="
M210.172 105.321
L211.492 105.321
L211.492 93.5755
L210.172 93.5755
z
" style="fill:#40cf40;"/>
   </g>
   <g id="patch_27">
    <path clip-path="url(#p6a4ae4428d)" d="
M211.653 106.888
L212.124 106.888
L212.124 95.1416
L211.653 95.1416
z
" style="fill:#4daf4a;"/>
   </g>
   <g id="patch_28">
    <path clip-path="url(#p6a4ae4428d)" d="
M212.125 105.321
L212.47 105.321
L212.47 93.5755
L212.125 93.5755
z
" style="fill:#40cf40;"/>
   </g>
   <g id="patch_29">
    <path clip-path="url(#p6a4ae4428d)" d="
M212.471 106.888
L215.87 106.888
L215.87 95.1416
L212.471 95.1416
z
" style="fill:#4daf4a;"/>
   </g>
   <g id="patch_30">
    <path clip-path="url(#p6a4ae4428d)" d="
M216.064 105.321
L216.502 105.321
L216.502 93.5755
L216.064 93.5755
z
" style="fill:#40cf40;"/>
   </g>
   <g id="patch_31">
    <path clip-path="url(#p6a4ae4428d)" d="
M216.503 106.888
L217.653 106.888
L217.653 95.1416
L216.503 95.1416
z
" style="fill:#4daf4a;"/>
   </g>
   <g id="patch_32">
    <path clip-path="url(#p6a4ae4428d)" d="
M217.841 105.321
L221.072 105.321
L221.072 93.5755
L217.841 93.5755
z
" style="fill:#40cf40;"/>
   </g>
   <g id="patch_33">
    <path clip-path="url(#p6a4ae4428d)" d="
M221.073 106.888
L221.629 106.888
L221.629 95.1416
L221.073 95.1416
z
" style="fill:#4daf4a;"/>
   </g>
   <g id="patch_34">
    <path clip-path="url(#p6a4ae4428d)" d="
M221.791 105.321
L222.729 105.321
L222.729 93.5755
L221.791 93.5755
z
" style="fill:#40cf40;"/>
   </g>
   <g id="patch_35">
    <path clip-path="url(#p6a4ae4428d)" d="
M222.956 106.888
L225.438 106.888
L225.438 95.1416
L222.956 95.1416
z
" style="fill:#4daf4a;"/>
   </g>
   <g id="patch_36">
    <path clip-path="url(#p6a4ae4428d)" d="
M225.531 105.321
L226.134 105.321
L226.134 93.5755
L225.531 93.5755
z
" style="fill:#40cf40;"/>
   </g>
   <g id="patch_37">
    <path clip-path="url(#p6a4ae4428d)" d="
M226.135 106.888
L226.534 106.888
L226.534 95.1416
L226.135 95.1416
z
" style="fill:#4daf4a;"/>
   </g>
   <g id="patch_38">
    <path clip-path="url(#p6a4ae4428d)" d="
M226.535 105.321
L227.9 105.321
L227.9 93.5755
L226.535 93.5755
z
" style="fill:#40cf40;"/>
   </g>
   <g id="patch_39">
    <path clip-path="url(#p6a4ae4428d)" d="
M227.9 106.888
L229.309 106.888
L229.309 95.1416
L227.9 95.1416
z
" style="fill:#4daf4a;"/>
   </g>
   <g id="patch_40">
    <path clip-path="url(#p6a4ae4428d)" d="
M229.31 105.321
L229.801 105.321
L229.801 93.5755
L229.31 93.5755
z
" style="fill:#40cf40;"/>
   </g>
   <g id="patch_41">
    <path clip-path="url(#p6a4ae4428d)" d="
M229.802 106.888
L230.192 106.888
L230.192 95.1416
L229.802 95.1416
z
" style="fill:#4daf4a;"/>
   </g>
   <g id="patch_42">
    <path clip-path="url(#p6a4ae4428d)" d="
M230.543 105.321
L231.017 105.321
L231.017 93.5755
L230.543 93.5755
z
" style="fill:#40cf40;"/>
   </g>
   <g id="patch_43">
    <path clip-path="url(#p6a4ae4428d)" d="
M231.018 106.888
L231.437 106.888
L231.437 95.1416
L231.018 95.1416
z
" style="fill:#4daf4a;"/>
   </g>
   <g id="patch_44">
    <path clip-path="url(#p6a4ae4428d)" d="
M231.438 105.321
L231.989 105.321
L231.989 93.5755
L231.438 93.5755
z
" style="fill:#40cf40;"/>
   </g>
   <g id="patch_45">
    <path clip-path="url(#p6a4ae4428d)" d="
M231.99 106.888
L232.762 106.888
L232.762 95.1416
L231.99 95.1416
z
" style="fill:#4daf4a;"/>
   </g>
   <g id="patch_46">
    <path clip-path="url(#p6a4ae4428d)" d="
M232.762 105.321
L233.787 105.321
L233.787 93.5755
L232.762 93.5755
z
" style="fill:#40cf40;"/>
   </g>
   <g id="patch_47">
    <path clip-path="url(#p6a4ae4428d)" d="
M233.788 106.888
L236.279 106.888
L236.279 95.1416
L233.788 95.1416
z
" style="fill:#4daf4a;"/>
   </g>
   <g id="patch_48">
    <path clip-path="url(#p6a4ae4428d)" d="
M236.28 105.321
L236.784 105.321
L236.784 93.5755
L236.28 93.5755
z
" style="fill:#40cf40;"/>
   </g>
   <g id="patch_49">
    <path clip-path="url(#p6a4ae4428d)" d="
M236.785 109.628
L236.867 109.628
L236.867 97.8824
L236.785 97.8824
z
" style="fill:#e41a1c;"/>
   </g>
   <g id="patch_50">
    <path clip-path="url(#p6a4ae4428d)" d="
M236.868 108.062
L237.111 108.062
L237.111 96.3162
L236.868 96.3162
z
" style="fill:#b82525;"/>
   </g>
   <g id="patch_51">
    <path clip-path="url(#p6a4ae4428d)" d="
M237.112 106.888
L237.661 106.888
L237.661 95.1416
L237.112 95.1416
z
" style="fill:#4daf4a;"/>
   </g>
   <g id="patch_52">
    <path clip-path="url(#p6a4ae4428d)" d="
M237.661 105.321
L238.225 105.321
L238.225 93.5755
L237.661 93.5755
z
" style="fill:#40cf40;"/>
   </g>
   <g id="patch_53">
    <path clip-path="url(#p6a4ae4428d)" d="
M238.737 106.888
L241.36 106.888
L241.36 95.1416
L238.737 95.1416
z
" style="fill:#4daf4a;"/>
   </g>
   <g id="patch_54">
    <path clip-path="url(#p6a4ae4428d)" d="
M241.361 105.321
L241.738 105.321
L241.738 93.5755
L241.361 93.5755
z
" style="fill:#40cf40;"/>
   </g>
   <g id="patch_55">
    <path clip-path="url(#p6a4ae4428d)" d="
M241.739 106.888
L243.138 106.888
L243.138 95.1416
L241.739 95.1416
z
" style="fill:#4daf4a;"/>
   </g>
   <g id="patch_56">
    <path clip-path="url(#p6a4ae4428d)" d="
M243.297 105.321
L244.452 105.321
L244.452 93.5755
L243.297 93.5755
z
" style="fill:#40cf40;"/>
   </g>
   <g id="patch_57">
    <path clip-path="url(#p6a4ae4428d)" d="
M244.901 106.888
L245.357 106.888
L245.357 95.1416
L244.901 95.1416
z
" style="fill:#4daf4a;"/>
   </g>
   <g id="patch_58">
    <path clip-path="url(#p6a4ae4428d)" d="
M245.358 105.321
L248.204 105.321
L248.204 93.5755
L245.358 93.5755
z
" style="fill:#40cf40;"/>
   </g>
   <g id="patch_59">
    <path clip-path="url(#p6a4ae4428d)" d="
M248.487 106.888
L249.358 106.888
L249.358 95.1416
L248.487 95.1416
z
" style="fill:#4daf4a;"/>
   </g>
   <g id="patch_60">
    <path clip-path="url(#p6a4ae4428d)" d="
M249.359 105.321
L253.842 105.321
L253.842 93.5755
L249.359 93.5755
z
" style="fill:#40cf40;"/>
   </g>
   <g id="patch_61">
    <path clip-path="url(#p6a4ae4428d)" d="
M254.048 106.888
L256.559 106.888
L256.559 95.1416
L254.048 95.1416
z
" style="fill:#4daf4a;"/>
   </g>
   <g id="patch_62">
    <path clip-path="url(#p6a4ae4428d)" d="
M256.68 105.321
L257.402 105.321
L257.402 93.5755
L256.68 93.5755
z
" style="fill:#40cf40;"/>
   </g>
   <g id="patch_63">
    <path clip-path="url(#p6a4ae4428d)" d="
M257.544 106.888
L258.281 106.888
L258.281 95.1416
L257.544 95.1416
z
" style="fill:#4daf4a;"/>
   </g>
   <g id="patch_64">
    <path clip-path="url(#p6a4ae4428d)" d="
M258.38 105.321
L259.086 105.321
L259.086 93.5755
L258.38 93.5755
z
" style="fill:#40cf40;"/>
   </g>
   <g id="patch_65">
    <path clip-path="url(#p6a4ae4428d)" d="
M259.086 106.888
L259.496 106.888
L259.496 95.1416
L259.086 95.1416
z
" style="fill:#4daf4a;"/>
   </g>
   <g id="patch_66">
    <path clip-path="url(#p6a4ae4428d)" d="
M259.497 105.321
L260.345 105.321
L260.345 93.5755
L259.497 93.5755
z
" style="fill:#40cf40;"/>
   </g>
   <g id="patch_67">
    <path clip-path="url(#p6a4ae4428d)" d="
M260.346 106.888
L264.19 106.888
L264.19 95.1416
L260.346 95.1416
z
" style="fill:#4daf4a;"/>
   </g>
   <g id="patch_68">
    <path clip-path="url(#p6a4ae4428d)" d="
M264.191 105.321
L265.426 105.321
L265.426 93.5755
L264.191 93.5755
z
" style="fill:#40cf40;"/>
   </g>
   <g id="patch_69">
    <path clip-path="url(#p6a4ae4428d)" d="
M265.427 106.888
L265.864 106.888
L265.864 95.1416
L265.427 95.1416
z
" style="fill:#4daf4a;"/>
   </g>
   <g id="patch_70">
    <path clip-path="url(#p6a4ae4428d)" d="
M265.864 105.321
L266.21 105.321
L266.21 93.5755
L265.864 93.5755
z
" style="fill:#40cf40;"/>
   </g>
   <g id="patch_71">
    <path clip-path="url(#p6a4ae4428d)" d="
M266.645 106.888
L267.638 106.888
L267.638 95.1416
L266.645 95.1416
z
" style="fill:#4daf4a;"/>
   </g>
   <g id="patch_72">
    <path clip-path="url(#p6a4ae4428d)" d="
M267.639 105.321
L268.042 105.321
L268.042 93.5755
L267.639 93.5755
z
" style="fill:#40cf40;"/>
   </g>
   <g id="patch_73">
    <path clip-path="url(#p6a4ae4428d)" d="
M268.043 106.888
L269.33 106.888
L269.33 95.1416
L268.043 95.1416
z
" style="fill:#4daf4a;"/>
   </g>
   <g id="patch_74">
    <path clip-path="url(#p6a4ae4428d)" d="
M269.331 105.321
L269.97 105.321
L269.97 93.5755
L269.331 93.5755
z
" style="fill:#40cf40;"/>
   </g>
   <g id="patch_75">
    <path clip-path="url(#p6a4ae4428d)" d="
M269.971 106.888
L270.735 106.888
L270.735 95.1416
L269.971 95.1416
z
" style="fill:#4daf4a;"/>
   </g>
   <g id="patch_76">
    <path clip-path="url(#p6a4ae4428d)" d="
M270.918 105.321
L271.551 105.321
L271.551 93.5755
L270.918 93.5755
z
" style="fill:#40cf40;"/>
   </g>
   <g id="patch_77">
    <path clip-path="url(#p6a4ae4428d)" d="
M271.552 106.888
L272.032 106.888
L272.032 95.1416
L271.552 95.1416
z
" style="fill:#4daf4a;"/>
   </g>
   <g id="patch_78">
    <path clip-path="url(#p6a4ae4428d)" d="
M272.535 105.321
L274.673 105.321
L274.673 93.5755
L272.535 93.5755
z
" style="fill:#40cf40;"/>
   </g>
   <g id="patch_79">
    <path clip-path="url(#p6a4ae4428d)" d="
M274.674 106.888
L276.602 106.888
L276.602 95.1416
L274.674 95.1416
z
" style="fill:#4daf4a;"/>
   </g>
   <g id="patch_80">
    <path clip-path="url(#p6a4ae4428d)" d="
M276.603 105.321
L277.311 105.321
L277.311 93.5755
L276.603 93.5755
z
" style="fill:#40cf40;"/>
   </g>
   <g id="patch_81">
    <path clip-path="url(#p6a4ae4428d)" d="
M277.312 106.888
L277.78 106.888
L277.78 95.1416
L277.312 95.1416
z
" style="fill:#4daf4a;"/>
   </g>
   <g id="patch_82">
    <path clip-path="url(#p6a4ae4428d)" d="
M277.781 105.321
L279.57 105.321
L279.57 93.5755
L277.781 93.5755
z
" style="fill:#40cf40;"/>
   </g>
   <g id="patch_83">
    <path clip-path="url(#p6a4ae4428d)" d="
M279.571 106.888
L281.782 106.888
L281.782 95.1416
L279.571 95.1416
z
" style="fill:#4daf4a;"/>
   </g>
   <g id="patch_84">
    <path clip-path="url(#p6a4ae4428d)" d="
M281.783 105.321
L282.933 105.321
L282.933 93.5755
L281.783 93.5755
z
" style="fill:#40cf40;"/>
   </g>
   <g id="patch_85">
    <path clip-path="url(#p6a4ae4428d)" d="
M282.934 106.888
L283.384 106.888
L283.384 95.1416
L282.934 95.1416
z
" style="fill:#4daf4a;"/>
   </g>
   <g id="patch_86">
    <path clip-path="url(#p6a4ae4428d)" d="
M283.384 105.321
L288.446 105.321
L288.446 93.5755
L283.384 93.5755
z
" style="fill:#40cf40;"/>
   </g>
   <g id="patch_87">
    <path clip-path="url(#p6a4ae4428d)" d="
M288.447 106.888
L289.492 106.888
L289.492 95.1416
L288.447 95.1416
z
" style="fill:#4daf4a;"/>
   </g>
   <g id="patch_88">
    <path clip-path="url(#p6a4ae4428d)" d="
M289.493 105.321
L290.109 105.321
L290.109 93.5755
L289.493 93.5755
z
" style="fill:#40cf40;"/>
   </g>
   <g id="patch_89">
    <path clip-path="url(#p6a4ae4428d)" d="
M290.192 106.888
L291.438 106.888
L291.438 95.1416
L290.192 95.1416
z
" style="fill:#4daf4a;"/>
   </g>
   <g id="patch_90">
    <path clip-path="url(#p6a4ae4428d)" d="
M291.563 105.321
L294.466 105.321
L294.466 93.5755
L291.563 93.5755
z
" style="fill:#40cf40;"/>
   </g>
   <g id="patch_91">
    <path clip-path="url(#p6a4ae4428d)" d="
M294.467 106.888
L295.027 106.888
L295.027 95.1416
L294.467 95.1416
z
" style="fill:#4daf4a;"/>
   </g>
   <g id="patch_92">
    <path clip-path="url(#p6a4ae4428d)" d="
M295.028 105.321
L295.943 105.321
L295.943 93.5755
L295.028 93.5755
z
" style="fill:#40cf40;"/>
   </g>
   <g id="patch_93">
    <path clip-path="url(#p6a4ae4428d)" d="
M295.944 106.888
L296.377 106.888
L296.377 95.1416
L295.944 95.1416
z
" style="fill:#4daf4a;"/>
   </g>
   <g id="patch_94">
    <path clip-path="url(#p6a4ae4428d)" d="
M296.591 105.321
L298.829 105.321
L298.829 93.5755
L296.591 93.5755
z
" style="fill:#40cf40;"/>
   </g>
   <g id="patch_95">
    <path clip-path="url(#p6a4ae4428d)" d="
M298.83 106.888
L299.635 106.888
L299.635 95.1416
L298.83 95.1416
z
" style="fill:#4daf4a;"/>
   </g>
   <g id="patch_96">
    <path clip-path="url(#p6a4ae4428d)" d="
M299.931 105.321
L300.454 105.321
L300.454 93.5755
L299.931 93.5755
z
" style="fill:#40cf40;"/>
   </g>
   <g id="patch_97">
    <path clip-path="url(#p6a4ae4428d)" d="
M300.455 106.888
L303.526 106.888
L303.526 95.1416
L300.455 95.1416
z
" style="fill:#4daf4a;"/>
   </g>
   <g id="patch_98">
    <path clip-path="url(#p6a4ae4428d)" d="
M303.527 105.321
L304.834 105.321
L304.834 93.5755
L303.527 93.5755
z
" style="fill:#40cf40;"/>
   </g>
   <g id="patch_99">
    <path clip-path="url(#p6a4ae4428d)" d="
M304.835 106.888
L305.249 106.888
L305.249 95.1416
L304.835 95.1416
z
" style="fill:#4daf4a;"/>
   </g>
   <g id="patch_100">
    <path clip-path="url(#p6a4ae4428d)" d="
M305.25 105.321
L306.956 105.321
L306.956 93.5755
L305.25 93.5755
z
" style="fill:#40cf40;"/>
   </g>
   <g id="patch_101">
    <path clip-path="url(#p6a4ae4428d)" d="
M306.957 106.888
L307.327 106.888
L307.327 95.1416
L306.957 95.1416
z
" style="fill:#4daf4a;"/>
   </g>
   <g id="patch_102">
    <path clip-path="url(#p6a4ae4428d)" d="
M307.328 105.321
L307.827 105.321
L307.827 93.5755
L307.328 93.5755
z
" style="fill:#40cf40;"/>
   </g>
   <g id="patch_103">
    <path clip-path="url(#p6a4ae4428d)" d="
M307.828 106.888
L309.435 106.888
L309.435 95.1416
L307.828 95.1416
z
" style="fill:#4daf4a;"/>
   </g>
   <g id="patch_104">
    <path clip-path="url(#p6a4ae4428d)" d="
M309.435 105.321
L310.256 105.321
L310.256 93.5755
L309.435 93.5755
z
" style="fill:#40cf40;"/>
   </g>
   <g id="patch_105">
    <path clip-path="url(#p6a4ae4428d)" d="
M310.548 106.888
L313.864 106.888
L313.864 95.1416
L310.548 95.1416
z
" style="fill:#4daf4a;"/>
   </g>
   <g id="patch_106">
    <path clip-path="url(#p6a4ae4428d)" d="
M313.864 105.321
L314.203 105.321
L314.203 93.5755
L313.864 93.5755
z
" style="fill:#40cf40;"/>
   </g>
   <g id="patch_107">
    <path clip-path="url(#p6a4ae4428d)" d="
M314.204 106.888
L316.977 106.888
L316.977 95.1416
L314.204 95.1416
z
" style="fill:#4daf4a;"/>
   </g>
   <g id="patch_108">
    <path clip-path="url(#p6a4ae4428d)" d="
M316.978 105.321
L319.478 105.321
L319.478 93.5755
L316.978 93.5755
z
" style="fill:#40cf40;"/>
   </g>
   <g id="patch_109">
    <path clip-path="url(#p6a4ae4428d)" d="
M319.479 106.888
L322.986 106.888
L322.986 95.1416
L319.479 95.1416
z
" style="fill:#4daf4a;"/>
   </g>
   <g id="patch_110">
    <path clip-path="url(#p6a4ae4428d)" d="
M322.987 105.321
L323.507 105.321
L323.507 93.5755
L322.987 93.5755
z
" style="fill:#40cf40;"/>
   </g>
   <g id="patch_111">
    <path clip-path="url(#p6a4ae4428d)" d="
M323.804 106.888
L324.958 106.888
L324.958 95.1416
L323.804 95.1416
z
" style="fill:#4daf4a;"/>
   </g>
   <g id="patch_112">
    <path clip-path="url(#p6a4ae4428d)" d="
M324.959 105.321
L325.322 105.321
L325.322 93.5755
L324.959 93.5755
z
" style="fill:#40cf40;"/>
   </g>
   <g id="patch_113">
    <path clip-path="url(#p6a4ae4428d)" d="
M325.323 106.888
L327.17 106.888
L327.17 95.1416
L325.323 95.1416
z
" style="fill:#4daf4a;"/>
   </g>
   <g id="patch_114">
    <path clip-path="url(#p6a4ae4428d)" d="
M327.339 105.321
L330.756 105.321
L330.756 93.5755
L327.339 93.5755
z
" style="fill:#40cf40;"/>
   </g>
   <g id="patch_115">
    <path clip-path="url(#p6a4ae4428d)" d="
M330.793 106.888
L332.793 106.888
L332.793 95.1416
L330.793 95.1416
z
" style="fill:#4daf4a;"/>
   </g>
   <g id="patch_116">
    <path clip-path="url(#p6a4ae4428d)" d="
M332.863 105.321
L333.967 105.321
L333.967 93.5755
L332.863 93.5755
z
" style="fill:#40cf40;"/>
   </g>
   <g id="patch_117">
    <path clip-path="url(#p6a4ae4428d)" d="
M333.968 106.888
L335.428 106.888
L335.428 95.1416
L333.968 95.1416
z
" style="fill:#4daf4a;"/>
   </g>
   <g id="patch_118">
    <path clip-path="url(#p6a4ae4428d)" d="
M335.428 105.321
L338.393 105.321
L338.393 93.5755
L335.428 93.5755
z
" style="fill:#40cf40;"/>
   </g>
   <g id="patch_119">
    <path clip-path="url(#p6a4ae4428d)" d="
M338.396 106.888
L338.961 106.888
L338.961 95.1416
L338.396 95.1416
z
" style="fill:#4daf4a;"/>
   </g>
   <g id="patch_120">
    <path clip-path="url(#p6a4ae4428d)" d="
M338.962 105.321
L341.51 105.321
L341.51 93.5755
L338.962 93.5755
z
" style="fill:#40cf40;"/>
   </g>
   <g id="patch_121">
    <path clip-path="url(#p6a4ae4428d)" d="
M341.716 106.888
L342.148 106.888
L342.148 95.1416
L341.716 95.1416
z
" style="fill:#4daf4a;"/>
   </g>
   <g id="patch_122">
    <path clip-path="url(#p6a4ae4428d)" d="
M342.326 105.321
L343.749 105.321
L343.749 93.5755
L342.326 93.5755
z
" style="fill:#40cf40;"/>
   </g>
   <g id="patch_123">
    <path clip-path="url(#p6a4ae4428d)" d="
M343.926 106.888
L344.99 106.888
L344.99 95.1416
L343.926 95.1416
z
" style="fill:#4daf4a;"/>
   </g>
   <g id="patch_124">
    <path clip-path="url(#p6a4ae4428d)" d="
M344.991 105.321
L345.38 105.321
L345.38 93.5755
L344.991 93.5755
z
" style="fill:#40cf40;"/>
   </g>
   <g id="patch_125">
    <path clip-path="url(#p6a4ae4428d)" d="
M345.381 106.888
L346.605 106.888
L346.605 95.1416
L345.381 95.1416
z
" style="fill:#4daf4a;"/>
   </g>
   <g id="patch_126">
    <path clip-path="url(#p6a4ae4428d)" d="
M346.606 105.321
L346.619 105.321
L346.619 93.5755
L346.606 93.5755
z
" style="fill:#40cf40;"/>
   </g>
   <g id="patch_127">
    <path clip-path="url(#p6a4ae4428d)" d="
M346.816 106.888
L347.696 106.888
L347.696 95.1416
L346.816 95.1416
z
" style="fill:#4daf4a;"/>
   </g>
   <g id="patch_128">
    <path clip-path="url(#p6a4ae4428d)" d="
M347.697 105.321
L351.544 105.321
L351.544 93.5755
L347.697 93.5755
z
" style="fill:#40cf40;"/>
   </g>
   <g id="patch_129">
    <path clip-path="url(#p6a4ae4428d)" d="
M351.812 106.888
L352.548 106.888
L352.548 95.1416
L351.812 95.1416
z
" style="fill:#4daf4a;"/>
   </g>
   <g id="patch_130">
    <path clip-path="url(#p6a4ae4428d)" d="
M352.548 105.321
L354.383 105.321
L354.383 93.5755
L352.548 93.5755
z
" style="fill:#40cf40;"/>
   </g>
   <g id="patch_131">
    <path clip-path="url(#p6a4ae4428d)" d="
M354.384 106.888
L354.829 106.888
L354.829 95.1416
L354.384 95.1416
z
" style="fill:#4daf4a;"/>
   </g>
   <g id="patch_132">
    <path clip-path="url(#p6a4ae4428d)" d="
M354.949 105.321
L357.174 105.321
L357.174 93.5755
L354.949 93.5755
z
" style="fill:#40cf40;"/>
   </g>
   <g id="patch_133">
    <path clip-path="url(#p6a4ae4428d)" d="
M357.175 106.888
L357.536 106.888
L357.536 95.1416
L357.175 95.1416
z
" style="fill:#4daf4a;"/>
   </g>
   <g id="patch_134">
    <path clip-path="url(#p6a4ae4428d)" d="
M357.537 105.321
L358.061 105.321
L358.061 93.5755
L357.537 93.5755
z
" style="fill:#40cf40;"/>
   </g>
   <g id="patch_135">
    <path clip-path="url(#p6a4ae4428d)" d="
M358.309 106.888
L359.903 106.888
L359.903 95.1416
L358.309 95.1416
z
" style="fill:#4daf4a;"/>
   </g>
   <g id="patch_136">
    <path clip-path="url(#p6a4ae4428d)" d="
M359.903 105.321
L360.306 105.321
L360.306 93.5755
L359.903 93.5755
z
" style="fill:#40cf40;"/>
   </g>
   <g id="patch_137">
    <path clip-path="url(#p6a4ae4428d)" d="
M360.307 106.888
L361.029 106.888
L361.029 95.1416
L360.307 95.1416
z
" style="fill:#4daf4a;"/>
   </g>
   <g id="patch_138">
    <path clip-path="url(#p6a4ae4428d)" d="
M361.161 105.321
L365.151 105.321
L365.151 93.5755
L361.161 93.5755
z
" style="fill:#40cf40;"/>
   </g>
   <g id="patch_139">
    <path clip-path="url(#p6a4ae4428d)" d="
M365.152 106.888
L365.532 106.888
L365.532 95.1416
L365.152 95.1416
z
" style="fill:#4daf4a;"/>
   </g>
   <g id="patch_140">
    <path clip-path="url(#p6a4ae4428d)" d="
M365.533 105.321
L366.047 105.321
L366.047 93.5755
L365.533 93.5755
z
" style="fill:#40cf40;"/>
   </g>
   <g id="patch_141">
    <path clip-path="url(#p6a4ae4428d)" d="
M366.048 106.888
L366.811 106.888
L366.811 95.1416
L366.048 95.1416
z
" style="fill:#4daf4a;"/>
   </g>
   <g id="patch_142">
    <path clip-path="url(#p6a4ae4428d)" d="
M367.219 105.321
L368.426 105.321
L368.426 93.5755
L367.219 93.5755
z
" style="fill:#40cf40;"/>
   </g>
   <g id="patch_143">
    <path clip-path="url(#p6a4ae4428d)" d="
M368.427 109.628
L368.717 109.628
L368.717 97.8824
L368.427 97.8824
z
" style="fill:#e41a1c;"/>
   </g>
   <g id="patch_144">
    <path clip-path="url(#p6a4ae4428d)" d="
M368.718 105.321
L368.884 105.321
L368.884 93.5755
L368.718 93.5755
z
" style="fill:#40cf40;"/>
   </g>
   <g id="patch_145">
    <path clip-path="url(#p6a4ae4428d)" d="
M368.885 106.888
L369.995 106.888
L369.995 95.1416
L368.885 95.1416
z
" style="fill:#4daf4a;"/>
   </g>
   <g id="patch_146">
    <path clip-path="url(#p6a4ae4428d)" d="
M369.996 105.321
L370.373 105.321
L370.373 93.5755
L369.996 93.5755
z
" style="fill:#40cf40;"/>
   </g>
   <g id="patch_147">
    <path clip-path="url(#p6a4ae4428d)" d="
M370.374 106.888
L372.013 106.888
L372.013 95.1416
L370.374 95.1416
z
" style="fill:#4daf4a;"/>
   </g>
   <g id="patch_148">
    <path clip-path="url(#p6a4ae4428d)" d="
M372.013 105.321
L372.619 105.321
L372.619 93.5755
L372.013 93.5755
z
" style="fill:#40cf40;"/>
   </g>
   <g id="patch_149">
    <path clip-path="url(#p6a4ae4428d)" d="
M372.619 106.888
L373.172 106.888
L373.172 95.1416
L372.619 95.1416
z
" style="fill:#4daf4a;"/>
   </g>
   <g id="patch_150">
    <path clip-path="url(#p6a4ae4428d)" d="
M373.173 105.321
L374.887 105.321
L374.887 93.5755
L373.173 93.5755
z
" style="fill:#40cf40;"/>
   </g>
   <g id="patch_151">
    <path clip-path="url(#p6a4ae4428d)" d="
M375.058 106.888
L375.473 106.888
L375.473 95.1416
L375.058 95.1416
z
" style="fill:#4daf4a;"/>
   </g>
   <g id="patch_152">
    <path clip-path="url(#p6a4ae4428d)" d="
M375.666 105.321
L376.214 105.321
L376.214 93.5755
L375.666 93.5755
z
" style="fill:#40cf40;"/>
   </g>
   <g id="patch_153">
    <path clip-path="url(#p6a4ae4428d)" d="
M376.215 106.888
L376.573 106.888
L376.573 95.1416
L376.215 95.1416
z
" style="fill:#4daf4a;"/>
   </g>
   <g id="patch_154">
    <path clip-path="url(#p6a4ae4428d)" d="
M376.574 105.321
L377.141 105.321
L377.141 93.5755
L376.574 93.5755
z
" style="fill:#40cf40;"/>
   </g>
   <g id="patch_155">
    <path clip-path="url(#p6a4ae4428d)" d="
M377.142 106.888
L377.498 106.888
L377.498 95.1416
L377.142 95.1416
z
" style="fill:#4daf4a;"/>
   </g>
   <g id="patch_156">
    <path clip-path="url(#p6a4ae4428d)" d="
M377.499 105.321
L378.276 105.321
L378.276 93.5755
L377.499 93.5755
z
" style="fill:#40cf40;"/>
   </g>
   <g id="patch_157">
    <path clip-path="url(#p6a4ae4428d)" d="
M378.385 106.888
L381.188 106.888
L381.188 95.1416
L378.385 95.1416
z
" style="fill:#4daf4a;"/>
   </g>
   <g id="patch_158">
    <path clip-path="url(#p6a4ae4428d)" d="
M381.402 105.321
L381.834 105.321
L381.834 93.5755
L381.402 93.5755
z
" style="fill:#40cf40;"/>
   </g>
   <g id="patch_159">
    <path clip-path="url(#p6a4ae4428d)" d="
M381.835 106.888
L382.272 106.888
L382.272 95.1416
L381.835 95.1416
z
" style="fill:#4daf4a;"/>
   </g>
   <g id="patch_160">
    <path clip-path="url(#p6a4ae4428d)" d="
M382.273 105.321
L384.531 105.321
L384.531 93.5755
L382.273 93.5755
z
" style="fill:#40cf40;"/>
   </g>
   <g id="patch_161">
    <path clip-path="url(#p6a4ae4428d)" d="
M384.532 106.888
L387.484 106.888
L387.484 95.1416
L384.532 95.1416
z
" style="fill:#4daf4a;"/>
   </g>
   <g id="patch_162">
    <path clip-path="url(#p6a4ae4428d)" d="
M387.485 105.321
L388.855 105.321
L388.855 93.5755
L387.485 93.5755
z
" style="fill:#40cf40;"/>
   </g>
   <g id="patch_163">
    <path clip-path="url(#p6a4ae4428d)" d="
M388.856 106.888
L389.278 106.888
L389.278 95.1416
L388.856 95.1416
z
" style="fill:#4daf4a;"/>
   </g>
   <g id="patch_164">
    <path clip-path="url(#p6a4ae4428d)" d="
M389.279 105.321
L390.427 105.321
L390.427 93.5755
L389.279 93.5755
z
" style="fill:#40cf40;"/>
   </g>
   <g id="patch_165">
    <path clip-path="url(#p6a4ae4428d)" d="
M390.529 106.888
L390.957 106.888
L390.957 95.1416
L390.529 95.1416
z
" style="fill:#4daf4a;"/>
   </g>
   <g id="patch_166">
    <path clip-path="url(#p6a4ae4428d)" d="
M390.958 105.321
L391.293 105.321
L391.293 93.5755
L390.958 93.5755
z
" style="fill:#40cf40;"/>
   </g>
   <g id="patch_167">
    <path clip-path="url(#p6a4ae4428d)" d="
M391.294 106.888
L393.017 106.888
L393.017 95.1416
L391.294 95.1416
z
" style="fill:#4daf4a;"/>
   </g>
   <g id="patch_168">
    <path clip-path="url(#p6a4ae4428d)" d="
M393.018 105.321
L393.93 105.321
L393.93 93.5755
L393.018 93.5755
z
" style="fill:#40cf40;"/>
   </g>
   <g id="patch_169">
    <path clip-path="url(#p6a4ae4428d)" d="
M393.931 106.888
L394.375 106.888
L394.375 95.1416
L393.931 95.1416
z
" style="fill:#4daf4a;"/>
   </g>
   <g id="patch_170">
    <path clip-path="url(#p6a4ae4428d)" d="
M394.459 105.321
L395.931 105.321
L395.931 93.5755
L394.459 93.5755
z
" style="fill:#40cf40;"/>
   </g>
   <g id="patch_171">
    <path clip-path="url(#p6a4ae4428d)" d="
M396.051 106.888
L396.693 106.888
L396.693 95.1416
L396.051 95.1416
z
" style="fill:#4daf4a;"/>
   </g>
   <g id="patch_172">
    <path clip-path="url(#p6a4ae4428d)" d="
M397.386 105.321
L398.083 105.321
L398.083 93.5755
L397.386 93.5755
z
" style="fill:#40cf40;"/>
   </g>
   <g id="patch_173">
    <path clip-path="url(#p6a4ae4428d)" d="
M398.159 106.888
L400.524 106.888
L400.524 95.1416
L398.159 95.1416
z
" style="fill:#4daf4a;"/>
   </g>
   <g id="patch_174">
    <path clip-path="url(#p6a4ae4428d)" d="
M400.594 105.321
L401.201 105.321
L401.201 93.5755
L400.594 93.5755
z
" style="fill:#40cf40;"/>
   </g>
   <g id="patch_175">
    <path clip-path="url(#p6a4ae4428d)" d="
M401.427 106.888
L402.671 106.888
L402.671 95.1416
L401.427 95.1416
z
" style="fill:#4daf4a;"/>
   </g>
   <g id="patch_176">
    <path clip-path="url(#p6a4ae4428d)" d="
M402.794 105.321
L403.262 105.321
L403.262 93.5755
L402.794 93.5755
z
" style="fill:#40cf40;"/>
   </g>
   <g id="patch_177">
    <path clip-path="url(#p6a4ae4428d)" d="
M403.263 106.888
L403.93 106.888
L403.93 95.1416
L403.263 95.1416
z
" style="fill:#4daf4a;"/>
   </g>
   <g id="patch_178">
    <path clip-path="url(#p6a4ae4428d)" d="
M403.931 105.321
L404.772 105.321
L404.772 93.5755
L403.931 93.5755
z
" style="fill:#40cf40;"/>
   </g>
   <g id="patch_179">
    <path clip-path="url(#p6a4ae4428d)" d="
M404.773 106.888
L406.59 106.888
L406.59 95.1416
L404.773 95.1416
z
" style="fill:#4daf4a;"/>
   </g>
   <g id="patch_180">
    <path clip-path="url(#p6a4ae4428d)" d="
M406.591 105.321
L406.99 105.321
L406.99 93.5755
L406.591 93.5755
z
" style="fill:#40cf40;"/>
   </g>
   <g id="patch_181">
    <path clip-path="url(#p6a4ae4428d)" d="
M406.99 106.888
L407.581 106.888
L407.581 95.1416
L406.99 95.1416
z
" style="fill:#4daf4a;"/>
   </g>
   <g id="patch_182">
    <path clip-path="url(#p6a4ae4428d)" d="
M407.774 105.321
L408.226 105.321
L408.226 93.5755
L407.774 93.5755
z
" style="fill:#40cf40;"/>
   </g>
   <g id="patch_183">
    <path clip-path="url(#p6a4ae4428d)" d="
M408.227 106.888
L409.055 106.888
L409.055 95.1416
L408.227 95.1416
z
" style="fill:#4daf4a;"/>
   </g>
   <g id="patch_184">
    <path clip-path="url(#p6a4ae4428d)" d="
M409.055 105.321
L410.309 105.321
L410.309 93.5755
L409.055 93.5755
z
" style="fill:#40cf40;"/>
   </g>
   <g id="patch_185">
    <path clip-path="url(#p6a4ae4428d)" d="
M410.31 106.888
L410.671 106.888
L410.671 95.1416
L410.31 95.1416
z
" style="fill:#4daf4a;"/>
   </g>
   <g id="patch_186">
    <path clip-path="url(#p6a4ae4428d)" d="
M410.672 105.321
L411.997 105.321
L411.997 93.5755
L410.672 93.5755
z
" style="fill:#40cf40;"/>
   </g>
   <g id="patch_187">
    <path clip-path="url(#p6a4ae4428d)" d="
M411.998 106.888
L413.42 106.888
L413.42 95.1416
L411.998 95.1416
z
" style="fill:#4daf4a;"/>
   </g>
   <g id="patch_188">
    <path clip-path="url(#p6a4ae4428d)" d="
M413.421 105.321
L417.124 105.321
L417.124 93.5755
L413.421 93.5755
z
" style="fill:#40cf40;"/>
   </g>
   <g id="patch_189">
    <path clip-path="url(#p6a4ae4428d)" d="
M417.452 106.888
L418.701 106.888
L418.701 95.1416
L417.452 95.1416
z
" style="fill:#4daf4a;"/>
   </g>
   <g id="patch_190">
    <path clip-path="url(#p6a4ae4428d)" d="
M418.701 105.321
L419.081 105.321
L419.081 93.5755
L418.701 93.5755
z
" style="fill:#40cf40;"/>
   </g>
   <g id="patch_191">
    <path clip-path="url(#p6a4ae4428d)" d="
M419.081 106.888
L419.508 106.888
L419.508 95.1416
L419.081 95.1416
z
" style="fill:#4daf4a;"/>
   </g>
   <g id="patch_192">
    <path clip-path="url(#p6a4ae4428d)" d="
M419.509 105.321
L419.853 105.321
L419.853 93.5755
L419.509 93.5755
z
" style="fill:#40cf40;"/>
   </g>
   <g id="patch_193">
    <path clip-path="url(#p6a4ae4428d)" d="
M419.854 106.888
L420.671 106.888
L420.671 95.1416
L419.854 95.1416
z
" style="fill:#4daf4a;"/>
   </g>
   <g id="patch_194">
    <path clip-path="url(#p6a4ae4428d)" d="
M420.672 105.321
L421.896 105.321
L421.896 93.5755
L420.672 93.5755
z
" style="fill:#40cf40;"/>
   </g>
   <g id="patch_195">
    <path clip-path="url(#p6a4ae4428d)" d="
M421.896 106.888
L422.328 106.888
L422.328 95.1416
L421.896 95.1416
z
" style="fill:#4daf4a;"/>
   </g>
   <g id="patch_196">
    <path clip-path="url(#p6a4ae4428d)" d="
M422.329 105.321
L422.866 105.321
L422.866 93.5755
L422.329 93.5755
z
" style="fill:#40cf40;"/>
   </g>
   <g id="patch_197">
    <path clip-path="url(#p6a4ae4428d)" d="
M422.867 106.888
L422.88 106.888
L422.88 95.1416
L422.867 95.1416
z
" style="fill:#4daf4a;"/>
   </g>
   <g id="patch_198">
    <path clip-path="url(#p6a4ae4428d)" d="
M423.154 105.321
L423.585 105.321
L423.585 93.5755
L423.154 93.5755
z
" style="fill:#40cf40;"/>
   </g>
   <g id="patch_199">
    <path clip-path="url(#p6a4ae4428d)" d="
M423.586 106.888
L424.881 106.888
L424.881 95.1416
L423.586 95.1416
z
" style="fill:#4daf4a;"/>
   </g>
   <g id="patch_200">
    <path clip-path="url(#p6a4ae4428d)" d="
M424.912 105.321
L425.506 105.321
L425.506 93.5755
L424.912 93.5755
z
" style="fill:#40cf40;"/>
   </g>
   <g id="patch_201">
    <path clip-path="url(#p6a4ae4428d)" d="
M425.738 106.888
L426.831 106.888
L426.831 95.1416
L425.738 95.1416
z
" style="fill:#4daf4a;"/>
   </g>
   <g id="patch_202">
    <path clip-path="url(#p6a4ae4428d)" d="
M426.832 105.321
L427.425 105.321
L427.425 93.5755
L426.832 93.5755
z
" style="fill:#40cf40;"/>
   </g>
   <g id="patch_203">
    <path clip-path="url(#p6a4ae4428d)" d="
M427.425 106.888
L429.64 106.888
L429.64 95.1416
L427.425 95.1416
z
" style="fill:#4daf4a;"/>
   </g>
   <g id="patch_204">
    <path clip-path="url(#p6a4ae4428d)" d="
M429.641 105.321
L429.997 105.321
L429.997 93.5755
L429.641 93.5755
z
" style="fill:#40cf40;"/>
   </g>
   <g id="patch_205">
    <path clip-path="url(#p6a4ae4428d)" d="
M429.998 106.888
L430.615 106.888
L430.615 95.1416
L429.998 95.1416
z
" style="fill:#4daf4a;"/>
   </g>
   <g id="patch_206">
    <path clip-path="url(#p6a4ae4428d)" d="
M430.615 105.321
L431.225 105.321
L431.225 93.5755
L430.615 93.5755
z
" style="fill:#40cf40;"/>
   </g>
   <g id="patch_207">
    <path clip-path="url(#p6a4ae4428d)" d="
M431.226 106.888
L431.609 106.888
L431.609 95.1416
L431.226 95.1416
z
" style="fill:#4daf4a;"/>
   </g>
   <g id="patch_208">
    <path clip-path="url(#p6a4ae4428d)" d="
M431.609 105.321
L432.176 105.321
L432.176 93.5755
L431.609 93.5755
z
" style="fill:#40cf40;"/>
   </g>
   <g id="patch_209">
    <path clip-path="url(#p6a4ae4428d)" d="
M432.177 106.888
L433.473 106.888
L433.473 95.1416
L432.177 95.1416
z
" style="fill:#4daf4a;"/>
   </g>
   <g id="patch_210">
    <path clip-path="url(#p6a4ae4428d)" d="
M433.713 105.321
L434.435 105.321
L434.435 93.5755
L433.713 93.5755
z
" style="fill:#40cf40;"/>
   </g>
   <g id="patch_211">
    <path clip-path="url(#p6a4ae4428d)" d="
M434.436 109.628
L434.477 109.628
L434.477 97.8824
L434.436 97.8824
z
" style="fill:#e41a1c;"/>
   </g>
   <g id="patch_212">
    <path clip-path="url(#p6a4ae4428d)" d="
M434.48 108.062
L434.687 108.062
L434.687 96.3162
L434.48 96.3162
z
" style="fill:#b82525;"/>
   </g>
   <g id="patch_213">
    <path clip-path="url(#p6a4ae4428d)" d="
M434.688 106.888
L436.754 106.888
L436.754 95.1416
L434.688 95.1416
z
" style="fill:#4daf4a;"/>
   </g>
   <g id="patch_214">
    <path clip-path="url(#p6a4ae4428d)" d="
M436.754 105.321
L437.516 105.321
L437.516 93.5755
L436.754 93.5755
z
" style="fill:#40cf40;"/>
   </g>
   <g id="patch_215">
    <path clip-path="url(#p6a4ae4428d)" d="
M437.517 106.888
L439.034 106.888
L439.034 95.1416
L437.517 95.1416
z
" style="fill:#4daf4a;"/>
   </g>
   <g id="patch_216">
    <path clip-path="url(#p6a4ae4428d)" d="
M439.118 105.321
L441.46 105.321
L441.46 93.5755
L439.118 93.5755
z
" style="fill:#40cf40;"/>
   </g>
   <g id="patch_217">
    <path clip-path="url(#p6a4ae4428d)" d="
M441.461 106.888
L441.817 106.888
L441.817 95.1416
L441.461 95.1416
z
" style="fill:#4daf4a;"/>
   </g>
   <g id="patch_218">
    <path clip-path="url(#p6a4ae4428d)" d="
M441.817 105.321
L442.337 105.321
L442.337 93.5755
L441.817 93.5755
z
" style="fill:#40cf40;"/>
   </g>
   <g id="patch_219">
    <path clip-path="url(#p6a4ae4428d)" d="
M442.338 106.888
L442.723 106.888
L442.723 95.1416
L442.338 95.1416
z
" style="fill:#4daf4a;"/>
   </g>
   <g id="patch_220">
    <path clip-path="url(#p6a4ae4428d)" d="
M442.724 105.321
L443.199 105.321
L443.199 93.5755
L442.724 93.5755
z
" style="fill:#40cf40;"/>
   </g>
   <g id="patch_221">
    <path clip-path="url(#p6a4ae4428d)" d="
M443.2 106.888
L443.727 106.888
L443.727 95.1416
L443.2 95.1416
z
" style="fill:#4daf4a;"/>
   </g>
   <g id="patch_222">
    <path clip-path="url(#p6a4ae4428d)" d="
M443.728 105.321
L444.146 105.321
L444.146 93.5755
L443.728 93.5755
z
" style="fill:#40cf40;"/>
   </g>
   <g id="patch_223">
    <path clip-path="url(#p6a4ae4428d)" d="
M444.231 106.888
L444.719 106.888
L444.719 95.1416
L444.231 95.1416
z
" style="fill:#4daf4a;"/>
   </g>
   <g id="patch_224">
    <path clip-path="url(#p6a4ae4428d)" d="
M444.719 105.321
L445.3 105.321
L445.3 93.5755
L444.719 93.5755
z
" style="fill:#40cf40;"/>
   </g>
   <g id="patch_225">
    <path clip-path="url(#p6a4ae4428d)" d="
M445.301 106.888
L445.771 106.888
L445.771 95.1416
L445.301 95.1416
z
" style="fill:#4daf4a;"/>
   </g>
   <g id="patch_226">
    <path clip-path="url(#p6a4ae4428d)" d="
M445.771 105.321
L448.879 105.321
L448.879 93.5755
L445.771 93.5755
z
" style="fill:#40cf40;"/>
   </g>
   <g id="patch_227">
    <path clip-path="url(#p6a4ae4428d)" d="
M448.944 106.888
L449.819 106.888
L449.819 95.1416
L448.944 95.1416
z
" style="fill:#4daf4a;"/>
   </g>
   <g id="patch_228">
    <path clip-path="url(#p6a4ae4428d)" d="
M450.118 105.321
L450.853 105.321
L450.853 93.5755
L450.118 93.5755
z
" style="fill:#40cf40;"/>
   </g>
   <g id="patch_229">
    <path clip-path="url(#p6a4ae4428d)" d="
M450.854 106.888
L451.272 106.888
L451.272 95.1416
L450.854 95.1416
z
" style="fill:#4daf4a;"/>
   </g>
   <g id="patch_230">
    <path clip-path="url(#p6a4ae4428d)" d="
M451.273 105.321
L452.818 105.321
L452.818 93.5755
L451.273 93.5755
z
" style="fill:#40cf40;"/>
   </g>
   <g id="patch_231">
    <path clip-path="url(#p6a4ae4428d)" d="
M452.819 106.888
L453.365 106.888
L453.365 95.1416
L452.819 95.1416
z
" style="fill:#4daf4a;"/>
   </g>
   <g id="patch_232">
    <path clip-path="url(#p6a4ae4428d)" d="
M453.366 105.321
L454.175 105.321
L454.175 93.5755
L453.366 93.5755
z
" style="fill:#40cf40;"/>
   </g>
   <g id="patch_233">
    <path clip-path="url(#p6a4ae4428d)" d="
M454.492 106.888
L456.843 106.888
L456.843 95.1416
L454.492 95.1416
z
" style="fill:#4daf4a;"/>
   </g>
   <g id="patch_234">
    <path clip-path="url(#p6a4ae4428d)" d="
M456.844 105.321
L457.237 105.321
L457.237 93.5755
L456.844 93.5755
z
" style="fill:#40cf40;"/>
   </g>
   <g id="patch_235">
    <path clip-path="url(#p6a4ae4428d)" d="
M457.237 106.888
L458.475 106.888
L458.475 95.1416
L457.237 95.1416
z
" style="fill:#4daf4a;"/>
   </g>
   <g id="patch_236">
    <path clip-path="url(#p6a4ae4428d)" d="
M458.613 105.321
L462.677 105.321
L462.677 93.5755
L458.613 93.5755
z
" style="fill:#40cf40;"/>
   </g>
   <g id="patch_237">
    <path clip-path="url(#p6a4ae4428d)" d="
M462.678 106.888
L463.529 106.888
L463.529 95.1416
L462.678 95.1416
z
" style="fill:#4daf4a;"/>
   </g>
   <g id="patch_238">
    <path clip-path="url(#p6a4ae4428d)" d="
M463.53 105.321
L464.009 105.321
L464.009 93.5755
L463.53 93.5755
z
" style="fill:#40cf40;"/>
   </g>
   <g id="patch_239">
    <path clip-path="url(#p6a4ae4428d)" d="
M464.01 106.888
L468.959 106.888
L468.959 95.1416
L464.01 95.1416
z
" style="fill:#4daf4a;"/>
   </g>
   <g id="patch_240">
    <path clip-path="url(#p6a4ae4428d)" d="
M469.65 105.321
L471.129 105.321
L471.129 93.5755
L469.65 93.5755
z
" style="fill:#40cf40;"/>
   </g>
   <g id="patch_241">
    <path clip-path="url(#p6a4ae4428d)" d="
M471.569 106.888
L479.124 106.888
L479.124 95.1416
L471.569 95.1416
z
" style="fill:#4daf4a;"/>
   </g>
   <g id="patch_242">
    <path clip-path="url(#p6a4ae4428d)" d="
M479.125 105.321
L479.544 105.321
L479.544 93.5755
L479.125 93.5755
z
" style="fill:#40cf40;"/>
   </g>
   <g id="patch_243">
    <path clip-path="url(#p6a4ae4428d)" d="
M479.545 106.888
L482.27 106.888
L482.27 95.1416
L479.545 95.1416
z
" style="fill:#4daf4a;"/>
   </g>
   <g id="patch_244">
    <path clip-path="url(#p6a4ae4428d)" d="
M482.27 105.321
L482.678 105.321
L482.678 93.5755
L482.27 93.5755
z
" style="fill:#40cf40;"/>
   </g>
   <g id="patch_245">
    <path clip-path="url(#p6a4ae4428d)" d="
M482.678 106.888
L483.167 106.888
L483.167 95.1416
L482.678 95.1416
z
" style="fill:#4daf4a;"/>
   </g>
   <g id="patch_246">
    <path clip-path="url(#p6a4ae4428d)" d="
M483.168 105.321
L483.504 105.321
L483.504 93.5755
L483.168 93.5755
z
" style="fill:#40cf40;"/>
   </g>
   <g id="patch_247">
    <path clip-path="url(#p6a4ae4428d)" d="
M483.505 106.888
L483.809 106.888
L483.809 95.1416
L483.505 95.1416
z
" style="fill:#4daf4a;"/>
   </g>
   <g id="patch_248">
    <path clip-path="url(#p6a4ae4428d)" d="
M483.996 105.321
L484.893 105.321
L484.893 93.5755
L483.996 93.5755
z
" style="fill:#40cf40;"/>
   </g>
   <g id="patch_249">
    <path clip-path="url(#p6a4ae4428d)" d="
M485.008 106.888
L487.323 106.888
L487.323 95.1416
L485.008 95.1416
z
" style="fill:#4daf4a;"/>
   </g>
   <g id="patch_250">
    <path clip-path="url(#p6a4ae4428d)" d="
M487.324 105.321
L487.942 105.321
L487.942 93.5755
L487.324 93.5755
z
" style="fill:#40cf40;"/>
   </g>
   <g id="patch_251">
    <path clip-path="url(#p6a4ae4428d)" d="
M487.943 106.888
L488.701 106.888
L488.701 95.1416
L487.943 95.1416
z
" style="fill:#4daf4a;"/>
   </g>
   <g id="patch_252">
    <path clip-path="url(#p6a4ae4428d)" d="
M488.702 105.321
L489.221 105.321
L489.221 93.5755
L488.702 93.5755
z
" style="fill:#40cf40;"/>
   </g>
   <g id="patch_253">
    <path clip-path="url(#p6a4ae4428d)" d="
M489.221 106.888
L489.754 106.888
L489.754 95.1416
L489.221 95.1416
z
" style="fill:#4daf4a;"/>
   </g>
   <g id="patch_254">
    <path clip-path="url(#p6a4ae4428d)" d="
M489.876 105.321
L491.303 105.321
L491.303 93.5755
L489.876 93.5755
z
" style="fill:#40cf40;"/>
   </g>
   <g id="patch_255">
    <path clip-path="url(#p6a4ae4428d)" d="
M491.304 106.888
L491.656 106.888
L491.656 95.1416
L491.304 95.1416
z
" style="fill:#4daf4a;"/>
   </g>
   <g id="patch_256">
    <path clip-path="url(#p6a4ae4428d)" d="
M491.657 105.321
L492.319 105.321
L492.319 93.5755
L491.657 93.5755
z
" style="fill:#40cf40;"/>
   </g>
   <g id="patch_257">
    <path clip-path="url(#p6a4ae4428d)" d="
M492.505 106.888
L493.106 106.888
L493.106 95.1416
L492.505 95.1416
z
" style="fill:#4daf4a;"/>
   </g>
   <g id="patch_258">
    <path clip-path="url(#p6a4ae4428d)" d="
M493.107 105.321
L495.93 105.321
L495.93 93.5755
L493.107 93.5755
z
" style="fill:#40cf40;"/>
   </g>
   <g id="patch_259">
    <path clip-path="url(#p6a4ae4428d)" d="
M495.931 106.888
L498.448 106.888
L498.448 95.1416
L495.931 95.1416
z
" style="fill:#4daf4a;"/>
   </g>
   <g id="patch_260">
    <path clip-path="url(#p6a4ae4428d)" d="
M498.449 105.321
L498.871 105.321
L498.871 93.5755
L498.449 93.5755
z
" style="fill:#40cf40;"/>
   </g>
   <g id="patch_261">
    <path clip-path="url(#p6a4ae4428d)" d="
M499.167 106.888
L501.537 106.888
L501.537 95.1416
L499.167 95.1416
z
" style="fill:#4daf4a;"/>
   </g>
   <g id="patch_262">
    <path clip-path="url(#p6a4ae4428d)" d="
M501.75 105.321
L502.437 105.321
L502.437 93.5755
L501.75 93.5755
z
" style="fill:#40cf40;"/>
   </g>
   <g id="patch_263">
    <path clip-path="url(#p6a4ae4428d)" d="
M503.135 106.888
L503.603 106.888
L503.603 95.1416
L503.135 95.1416
z
" style="fill:#4daf4a;"/>
   </g>
   <g id="patch_264">
    <path clip-path="url(#p6a4ae4428d)" d="
M503.719 105.321
L505.228 105.321
L505.228 93.5755
L503.719 93.5755
z
" style="fill:#40cf40;"/>
   </g>
   <g id="patch_265">
    <path clip-path="url(#p6a4ae4428d)" d="
M505.229 106.888
L505.725 106.888
L505.725 95.1416
L505.229 95.1416
z
" style="fill:#4daf4a;"/>
   </g>
   <g id="patch_266">
    <path clip-path="url(#p6a4ae4428d)" d="
M505.936 105.321
L506.481 105.321
L506.481 93.5755
L505.936 93.5755
z
" style="fill:#40cf40;"/>
   </g>
   <g id="patch_267">
    <path clip-path="url(#p6a4ae4428d)" d="
M506.481 106.888
L507.527 106.888
L507.527 95.1416
L506.481 95.1416
z
" style="fill:#4daf4a;"/>
   </g>
   <g id="patch_268">
    <path clip-path="url(#p6a4ae4428d)" d="
M507.712 105.321
L509.137 105.321
L509.137 93.5755
L507.712 93.5755
z
" style="fill:#40cf40;"/>
   </g>
   <g id="patch_269">
    <path clip-path="url(#p6a4ae4428d)" d="
M509.137 106.888
L509.603 106.888
L509.603 95.1416
L509.137 95.1416
z
" style="fill:#4daf4a;"/>
   </g>
   <g id="patch_270">
    <path clip-path="url(#p6a4ae4428d)" d="
M509.604 105.321
L509.962 105.321
L509.962 93.5755
L509.604 93.5755
z
" style="fill:#40cf40;"/>
   </g>
   <g id="patch_271">
    <path clip-path="url(#p6a4ae4428d)" d="
M509.963 106.888
L511.766 106.888
L511.766 95.1416
L509.963 95.1416
z
" style="fill:#4daf4a;"/>
   </g>
   <g id="patch_272">
    <path clip-path="url(#p6a4ae4428d)" d="
M511.767 105.321
L512.242 105.321
L512.242 93.5755
L511.767 93.5755
z
" style="fill:#40cf40;"/>
   </g>
   <g id="patch_273">
    <path clip-path="url(#p6a4ae4428d)" d="
M512.244 106.888
L512.75 106.888
L512.75 95.1416
L512.244 95.1416
z
" style="fill:#4daf4a;"/>
   </g>
   <g id="patch_274">
    <path clip-path="url(#p6a4ae4428d)" d="
M512.751 105.321
L513.989 105.321
L513.989 93.5755
L512.751 93.5755
z
" style="fill:#40cf40;"/>
   </g>
   <g id="patch_275">
    <path clip-path="url(#p6a4ae4428d)" d="
M514.166 106.888
L514.671 106.888
L514.671 95.1416
L514.166 95.1416
z
" style="fill:#4daf4a;"/>
   </g>
   <g id="patch_276">
    <path clip-path="url(#p6a4ae4428d)" d="
M514.671 105.321
L515.399 105.321
L515.399 93.5755
L514.671 93.5755
z
" style="fill:#40cf40;"/>
   </g>
   <g id="patch_277">
    <path clip-path="url(#p6a4ae4428d)" d="
M515.637 106.888
L517.483 106.888
L517.483 95.1416
L515.637 95.1416
z
" style="fill:#4daf4a;"/>
   </g>
   <g id="patch_278">
    <path clip-path="url(#p6a4ae4428d)" d="
M517.484 105.321
L518.312 105.321
L518.312 93.5755
L517.484 93.5755
z
" style="fill:#40cf40;"/>
   </g>
   <g id="patch_279">
    <path clip-path="url(#p6a4ae4428d)" d="
M518.313 106.888
L518.779 106.888
L518.779 95.1416
L518.313 95.1416
z
" style="fill:#4daf4a;"/>
   </g>
   <g id="patch_280">
    <path clip-path="url(#p6a4ae4428d)" d="
M518.78 105.321
L520.101 105.321
L520.101 93.5755
L518.78 93.5755
z
" style="fill:#40cf40;"/>
   </g>
   <g id="patch_281">
    <path clip-path="url(#p6a4ae4428d)" d="
M520.102 106.888
L520.685 106.888
L520.685 95.1416
L520.102 95.1416
z
" style="fill:#4daf4a;"/>
   </g>
   <g id="patch_282">
    <path clip-path="url(#p6a4ae4428d)" d="
M520.935 105.321
L521.387 105.321
L521.387 93.5755
L520.935 93.5755
z
" style="fill:#40cf40;"/>
   </g>
   <g id="patch_283">
    <path clip-path="url(#p6a4ae4428d)" d="
M521.387 106.888
L521.81 106.888
L521.81 95.1416
L521.387 95.1416
z
" style="fill:#4daf4a;"/>
   </g>
   <g id="patch_284">
    <path clip-path="url(#p6a4ae4428d)" d="
M521.81 105.321
L522.614 105.321
L522.614 93.5755
L521.81 93.5755
z
" style="fill:#40cf40;"/>
   </g>
   <g id="patch_285">
    <path clip-path="url(#p6a4ae4428d)" d="
M522.777 106.888
L523.385 106.888
L523.385 95.1416
L522.777 95.1416
z
" style="fill:#4daf4a;"/>
   </g>
   <g id="patch_286">
    <path clip-path="url(#p6a4ae4428d)" d="
M523.386 105.321
L523.74 105.321
L523.74 93.5755
L523.386 93.5755
z
" style="fill:#40cf40;"/>
   </g>
   <g id="patch_287">
    <path clip-path="url(#p6a4ae4428d)" d="
M523.741 106.888
L524.847 106.888
L524.847 95.1416
L523.741 95.1416
z
" style="fill:#4daf4a;"/>
   </g>
   <g id="patch_288">
    <path clip-path="url(#p6a4ae4428d)" d="
M524.848 105.321
L525.316 105.321
L525.316 93.5755
L524.848 93.5755
z
" style="fill:#40cf40;"/>
   </g>
   <g id="patch_289">
    <path clip-path="url(#p6a4ae4428d)" d="
M525.316 106.888
L525.353 106.888
L525.353 95.1416
L525.316 95.1416
z
" style="fill:#4daf4a;"/>
   </g>
   <g id="patch_290">
    <path clip-path="url(#p6a4ae4428d)" d="
M525.354 105.321
L528.621 105.321
L528.621 93.5755
L525.354 93.5755
z
" style="fill:#40cf40;"/>
   </g>
   <g id="patch_291">
    <path clip-path="url(#p6a4ae4428d)" d="
M528.621 106.888
L529.467 106.888
L529.467 95.1416
L528.621 95.1416
z
" style="fill:#4daf4a;"/>
   </g>
   <g id="patch_292">
    <path clip-path="url(#p6a4ae4428d)" d="
M530.028 105.321
L531.432 105.321
L531.432 93.5755
L530.028 93.5755
z
" style="fill:#40cf40;"/>
   </g>
   <g id="patch_293">
    <path clip-path="url(#p6a4ae4428d)" d="
M531.432 106.888
L533.779 106.888
L533.779 95.1416
L531.432 95.1416
z
" style="fill:#4daf4a;"/>
   </g>
   <g id="patch_294">
    <path clip-path="url(#p6a4ae4428d)" d="
M534.31 105.321
L535.188 105.321
L535.188 93.5755
L534.31 93.5755
z
" style="fill:#40cf40;"/>
   </g>
   <g id="patch_295">
    <path clip-path="url(#p6a4ae4428d)" d="
M535.188 106.888
L538.393 106.888
L538.393 95.1416
L535.188 95.1416
z
" style="fill:#4daf4a;"/>
   </g>
   <g id="patch_296">
    <path clip-path="url(#p6a4ae4428d)" d="
M538.394 105.321
L538.994 105.321
L538.994 93.5755
L538.394 93.5755
z
" style="fill:#40cf40;"/>
   </g>
   <g id="patch_297">
    <path clip-path="url(#p6a4ae4428d)" d="
M538.995 106.888
L540.333 106.888
L540.333 95.1416
L538.995 95.1416
z
" style="fill:#4daf4a;"/>
   </g>
   <g id="patch_298">
    <path clip-path="url(#p6a4ae4428d)" d="
M540.527 105.321
L545.311 105.321
L545.311 93.5755
L540.527 93.5755
z
" style="fill:#40cf40;"/>
   </g>
   <g id="patch_299">
    <path clip-path="url(#p6a4ae4428d)" d="
M545.313 106.888
L546.047 106.888
L546.047 95.1416
L545.313 95.1416
z
" style="fill:#4daf4a;"/>
   </g>
   <g id="patch_300">
    <path clip-path="url(#p6a4ae4428d)" d="
M546.486 105.321
L547.072 105.321
L547.072 93.5755
L546.486 93.5755
z
" style="fill:#40cf40;"/>
   </g>
   <g id="patch_301">
    <path clip-path="url(#p6a4ae4428d)" d="
M547.073 106.888
L548.745 106.888
L548.745 95.1416
L547.073 95.1416
z
" style="fill:#4daf4a;"/>
   </g>
   <g id="patch_302">
    <path clip-path="url(#p6a4ae4428d)" d="
M548.746 105.321
L549.993 105.321
L549.993 93.5755
L548.746 93.5755
z
" style="fill:#40cf40;"/>
   </g>
   <g id="patch_303">
    <path clip-path="url(#p6a4ae4428d)" d="
M549.993 106.888
L553.101 106.888
L553.101 95.1416
L549.993 95.1416
z
" style="fill:#4daf4a;"/>
   </g>
   <g id="patch_304">
    <path clip-path="url(#p6a4ae4428d)" d="
M553.102 105.321
L554.706 105.321
L554.706 93.5755
L553.102 93.5755
z
" style="fill:#40cf40;"/>
   </g>
   <g id="patch_305">
    <path clip-path="url(#p6a4ae4428d)" d="
M554.707 106.888
L555.103 106.888
L555.103 95.1416
L554.707 95.1416
z
" style="fill:#4daf4a;"/>
   </g>
   <g id="patch_306">
    <path clip-path="url(#p6a4ae4428d)" d="
M555.104 105.321
L556.795 105.321
L556.795 93.5755
L555.104 93.5755
z
" style="fill:#40cf40;"/>
   </g>
   <g id="patch_307">
    <path clip-path="url(#p6a4ae4428d)" d="
M556.795 106.888
L557.319 106.888
L557.319 95.1416
L556.795 95.1416
z
" style="fill:#4daf4a;"/>
   </g>
   <g id="patch_308">
    <path clip-path="url(#p6a4ae4428d)" d="
M557.319 105.321
L557.724 105.321
L557.724 93.5755
L557.319 93.5755
z
" style="fill:#40cf40;"/>
   </g>
   <g id="patch_309">
    <path clip-path="url(#p6a4ae4428d)" d="
M558.343 106.888
L558.817 106.888
L558.817 95.1416
L558.343 95.1416
z
" style="fill:#4daf4a;"/>
   </g>
   <g id="patch_310">
    <path clip-path="url(#p6a4ae4428d)" d="
M558.818 105.321
L559.317 105.321
L559.317 93.5755
L558.818 93.5755
z
" style="fill:#40cf40;"/>
   </g>
   <g id="patch_311">
    <path clip-path="url(#p6a4ae4428d)" d="
M559.318 109.628
L559.392 109.628
L559.392 97.8824
L559.318 97.8824
z
" style="fill:#e41a1c;"/>
   </g>
   <g id="patch_312">
    <path clip-path="url(#p6a4ae4428d)" d="
M559.608 105.321
L560.158 105.321
L560.158 93.5755
L559.608 93.5755
z
" style="fill:#40cf40;"/>
   </g>
   <g id="patch_313">
    <path clip-path="url(#p6a4ae4428d)" d="
M560.159 106.888
L562.42 106.888
L562.42 95.1416
L560.159 95.1416
z
" style="fill:#4daf4a;"/>
   </g>
   <g id="patch_314">
    <path clip-path="url(#p6a4ae4428d)" d="
M562.566 105.321
L564.854 105.321
L564.854 93.5755
L562.566 93.5755
z
" style="fill:#40cf40;"/>
   </g>
   <g id="patch_315">
    <path clip-path="url(#p6a4ae4428d)" d="
M564.855 106.888
L566.144 106.888
L566.144 95.1416
L564.855 95.1416
z
" style="fill:#4daf4a;"/>
   </g>
   <g id="patch_316">
    <path clip-path="url(#p6a4ae4428d)" d="
M566.233 105.321
L567.254 105.321
L567.254 93.5755
L566.233 93.5755
z
" style="fill:#40cf40;"/>
   </g>
   <g id="patch_317">
    <path clip-path="url(#p6a4ae4428d)" d="
M567.424 106.888
L568.493 106.888
L568.493 95.1416
L567.424 95.1416
z
" style="fill:#4daf4a;"/>
   </g>
   <g id="patch_318">
    <path clip-path="url(#p6a4ae4428d)" d="
M568.542 105.321
L569.454 105.321
L569.454 93.5755
L568.542 93.5755
z
" style="fill:#40cf40;"/>
   </g>
   <g id="patch_319">
    <path clip-path="url(#p6a4ae4428d)" d="
M569.574 106.888
L572.655 106.888
L572.655 95.1416
L569.574 95.1416
z
" style="fill:#4daf4a;"/>
   </g>
   <g id="patch_320">
    <path clip-path="url(#p6a4ae4428d)" d="
M572.896 105.321
L573.623 105.321
L573.623 93.5755
L572.896 93.5755
z
" style="fill:#40cf40;"/>
   </g>
   <g id="patch_321">
    <path clip-path="url(#p6a4ae4428d)" d="
M573.83 106.888
L575.04 106.888
L575.04 95.1416
L573.83 95.1416
z
" style="fill:#4daf4a;"/>
   </g>
   <g id="patch_322">
    <path clip-path="url(#p6a4ae4428d)" d="
M575.227 105.321
L575.708 105.321
L575.708 93.5755
L575.227 93.5755
z
" style="fill:#40cf40;"/>
   </g>
   <g id="patch_323">
    <path clip-path="url(#p6a4ae4428d)" d="
M575.865 106.888
L576.4 106.888
L576.4 95.1416
L575.865 95.1416
z
" style="fill:#4daf4a;"/>
   </g>
   <g id="patch_324">
    <path clip-path="url(#p6a4ae4428d)" d="
M576.4 105.321
L576.796 105.321
L576.796 93.5755
L576.4 93.5755
z
" style="fill:#40cf40;"/>
   </g>
   <g id="patch_325">
    <path clip-path="url(#p6a4ae4428d)" d="
M576.797 106.888
L578.484 106.888
L578.484 95.1416
L576.797 95.1416
z
" style="fill:#4daf4a;"/>
   </g>
   <g id="patch_326">
    <path clip-path="url(#p6a4ae4428d)" d="
M578.484 105.321
L578.913 105.321
L578.913 93.5755
L578.484 93.5755
z
" style="fill:#40cf40;"/>
   </g>
   <g id="patch_327">
    <path clip-path="url(#p6a4ae4428d)" d="
M578.914 106.888
L580.018 106.888
L580.018 95.1416
L578.914 95.1416
z
" style="fill:#4daf4a;"/>
   </g>
   <g id="patch_328">
    <path clip-path="url(#p6a4ae4428d)" d="
M580.891 105.321
L581.988 105.321
L581.988 93.5755
L580.891 93.5755
z
" style="fill:#40cf40;"/>
   </g>
   <g id="patch_329">
    <path clip-path="url(#p6a4ae4428d)" d="
M581.989 106.888
L582.641 106.888
L582.641 95.1416
L581.989 95.1416
z
" style="fill:#4daf4a;"/>
   </g>
   <g id="patch_330">
    <path clip-path="url(#p6a4ae4428d)" d="
M582.642 105.321
L583.489 105.321
L583.489 93.5755
L582.642 93.5755
z
" style="fill:#40cf40;"/>
   </g>
   <g id="patch_331">
    <path clip-path="url(#p6a4ae4428d)" d="
M583.49 106.888
L584.853 106.888
L584.853 95.1416
L583.49 95.1416
z
" style="fill:#4daf4a;"/>
   </g>
   <g id="patch_332">
    <path clip-path="url(#p6a4ae4428d)" d="
M585.033 105.321
L585.697 105.321
L585.697 93.5755
L585.033 93.5755
z
" style="fill:#40cf40;"/>
   </g>
   <g id="patch_333">
    <path clip-path="url(#p6a4ae4428d)" d="
M586.055 106.888
L588.985 106.888
L588.985 95.1416
L586.055 95.1416
z
" style="fill:#4daf4a;"/>
   </g>
   <g id="patch_334">
    <path clip-path="url(#p6a4ae4428d)" d="
M589.561 105.321
L590.07 105.321
L590.07 93.5755
L589.561 93.5755
z
" style="fill:#40cf40;"/>
   </g>
   <g id="patch_335">
    <path clip-path="url(#p6a4ae4428d)" d="
M590.595 106.888
L591.655 106.888
L591.655 95.1416
L590.595 95.1416
z
" style="fill:#4daf4a;"/>
   </g>
   <g id="patch_336">
    <path clip-path="url(#p6a4ae4428d)" d="
M591.656 105.321
L591.993 105.321
L591.993 93.5755
L591.656 93.5755
z
" style="fill:#40cf40;"/>
   </g>
   <g id="patch_337">
    <path clip-path="url(#p6a4ae4428d)" d="
M591.994 106.888
L594.625 106.888
L594.625 95.1416
L591.994 95.1416
z
" style="fill:#4daf4a;"/>
   </g>
   <g id="patch_338">
    <path clip-path="url(#p6a4ae4428d)" d="
M594.807 105.321
L597.774 105.321
L597.774 93.5755
L594.807 93.5755
z
" style="fill:#40cf40;"/>
   </g>
   <g id="patch_339">
    <path clip-path="url(#p6a4ae4428d)" d="
M597.775 106.888
L598.182 106.888
L598.182 95.1416
L597.775 95.1416
z
" style="fill:#4daf4a;"/>
   </g>
   <g id="patch_340">
    <path clip-path="url(#p6a4ae4428d)" d="
M598.183 105.321
L599.844 105.321
L599.844 93.5755
L598.183 93.5755
z
" style="fill:#40cf40;"/>
   </g>
   <g id="patch_341">
    <path clip-path="url(#p6a4ae4428d)" d="
M599.845 106.888
L600.557 106.888
L600.557 95.1416
L599.845 95.1416
z
" style="fill:#4daf4a;"/>
   </g>
   <g id="patch_342">
    <path clip-path="url(#p6a4ae4428d)" d="
M600.558 105.321
L602.717 105.321
L602.717 93.5755
L600.558 93.5755
z
" style="fill:#40cf40;"/>
   </g>
   <g id="patch_343">
    <path clip-path="url(#p6a4ae4428d)" d="
M602.718 106.888
L603.061 106.888
L603.061 95.1416
L602.718 95.1416
z
" style="fill:#4daf4a;"/>
   </g>
   <g id="patch_344">
    <path clip-path="url(#p6a4ae4428d)" d="
M603.164 105.321
L603.883 105.321
L603.883 93.5755
L603.164 93.5755
z
" style="fill:#40cf40;"/>
   </g>
   <g id="patch_345">
    <path clip-path="url(#p6a4ae4428d)" d="
M603.884 106.888
L605.61 106.888
L605.61 95.1416
L603.884 95.1416
z
" style="fill:#4daf4a;"/>
   </g>
   <g id="patch_346">
    <path clip-path="url(#p6a4ae4428d)" d="
M605.955 105.321
L607.09 105.321
L607.09 93.5755
L605.955 93.5755
z
" style="fill:#40cf40;"/>
   </g>
   <g id="patch_347">
    <path clip-path="url(#p6a4ae4428d)" d="
M607.091 106.888
L607.825 106.888
L607.825 95.1416
L607.091 95.1416
z
" style="fill:#4daf4a;"/>
   </g>
   <g id="patch_348">
    <path clip-path="url(#p6a4ae4428d)" d="
M607.826 105.321
L609.579 105.321
L609.579 93.5755
L607.826 93.5755
z
" style="fill:#40cf40;"/>
   </g>
   <g id="patch_349">
    <path clip-path="url(#p6a4ae4428d)" d="
M609.579 106.888
L610.647 106.888
L610.647 95.1416
L609.579 95.1416
z
" style="fill:#4daf4a;"/>
   </g>
   <g id="patch_350">
    <path clip-path="url(#p6a4ae4428d)" d="
M610.648 105.321
L611.037 105.321
L611.037 93.5755
L610.648 93.5755
z
" style="fill:#40cf40;"/>
   </g>
   <g id="patch_351">
    <path clip-path="url(#p6a4ae4428d)" d="
M611.038 106.888
L612.761 106.888
L612.761 95.1416
L611.038 95.1416
z
" style="fill:#4daf4a;"/>
   </g>
   <g id="patch_352">
    <path clip-path="url(#p6a4ae4428d)" d="
M612.762 105.321
L613.389 105.321
L613.389 93.5755
L612.762 93.5755
z
" style="fill:#40cf40;"/>
   </g>
   <g id="patch_353">
    <path clip-path="url(#p6a4ae4428d)" d="
M613.39 106.888
L617.048 106.888
L617.048 95.1416
L613.39 95.1416
z
" style="fill:#4daf4a;"/>
   </g>
   <g id="patch_354">
    <path clip-path="url(#p6a4ae4428d)" d="
M617.184 105.321
L617.695 105.321
L617.695 93.5755
L617.184 93.5755
z
" style="fill:#40cf40;"/>
   </g>
   <g id="patch_355">
    <path clip-path="url(#p6a4ae4428d)" d="
M617.696 106.888
L619.297 106.888
L619.297 95.1416
L617.696 95.1416
z
" style="fill:#4daf4a;"/>
   </g>
   <g id="patch_356">
    <path clip-path="url(#p6a4ae4428d)" d="
M619.792 105.321
L621.507 105.321
L621.507 93.5755
L619.792 93.5755
z
" style="fill:#40cf40;"/>
   </g>
   <g id="patch_357">
    <path clip-path="url(#p6a4ae4428d)" d="
M621.81 106.888
L623.39 106.888
L623.39 95.1416
L621.81 95.1416
z
" style="fill:#4daf4a;"/>
   </g>
   <g id="patch_358">
    <path clip-path="url(#p6a4ae4428d)" d="
M623.39 105.321
L624.748 105.321
L624.748 93.5755
L623.39 93.5755
z
" style="fill:#40cf40;"/>
   </g>
   <g id="patch_359">
    <path clip-path="url(#p6a4ae4428d)" d="
M624.749 106.888
L631.331 106.888
L631.331 95.1416
L624.749 95.1416
z
" style="fill:#4daf4a;"/>
   </g>
   <g id="patch_360">
    <path clip-path="url(#p6a4ae4428d)" d="
M631.331 105.321
L631.878 105.321
L631.878 93.5755
L631.331 93.5755
z
" style="fill:#40cf40;"/>
   </g>
   <g id="patch_361">
    <path clip-path="url(#p6a4ae4428d)" d="
M631.878 109.628
L632.083 109.628
L632.083 97.8824
L631.878 97.8824
z
" style="fill:#e41a1c;"/>
   </g>
   <g id="patch_362">
    <path clip-path="url(#p6a4ae4428d)" d="
M632.084 105.321
L632.404 105.321
L632.404 93.5755
L632.084 93.5755
z
" style="fill:#40cf40;"/>
   </g>
   <g id="patch_363">
    <path clip-path="url(#p6a4ae4428d)" d="
M632.405 106.888
L632.76 106.888
L632.76 95.1416
L632.405 95.1416
z
" style="fill:#4daf4a;"/>
   </g>
   <g id="patch_364">
    <path clip-path="url(#p6a4ae4428d)" d="
M632.761 105.321
L633.653 105.321
L633.653 93.5755
L632.761 93.5755
z
" style="fill:#40cf40;"/>
   </g>
   <g id="patch_365">
    <path clip-path="url(#p6a4ae4428d)" d="
M633.654 106.888
L634.67 106.888
L634.67 95.1416
L633.654 95.1416
z
" style="fill:#4daf4a;"/>
   </g>
   <g id="patch_366">
    <path clip-path="url(#p6a4ae4428d)" d="
M635.271 105.321
L636.646 105.321
L636.646 93.5755
L635.271 93.5755
z
" style="fill:#40cf40;"/>
   </g>
   <g id="patch_367">
    <path clip-path="url(#p6a4ae4428d)" d="
M636.647 109.628
L638.097 109.628
L638.097 97.8824
L636.647 97.8824
z
" style="fill:#e41a1c;"/>
   </g>
   <g id="patch_368">
    <path clip-path="url(#p6a4ae4428d)" d="
M638.098 108.062
L638.949 108.062
L638.949 96.3162
L638.098 96.3162
z
" style="fill:#b82525;"/>
   </g>
   <g id="patch_369">
    <path clip-path="url(#p6a4ae4428d)" d="
M638.95 106.888
L639.709 106.888
L639.709 95.1416
L638.95 95.1416
z
" style="fill:#4daf4a;"/>
   </g>
   <g id="patch_370">
    <path clip-path="url(#p6a4ae4428d)" d="
M640.088 105.321
L641.843 105.321
L641.843 93.5755
L640.088 93.5755
z
" style="fill:#40cf40;"/>
   </g>
   <g id="patch_371">
    <path clip-path="url(#p6a4ae4428d)" d="
M641.844 106.888
L642.207 106.888
L642.207 95.1416
L641.844 95.1416
z
" style="fill:#4daf4a;"/>
   </g>
   <g id="patch_372">
    <path clip-path="url(#p6a4ae4428d)" d="
M642.207 105.321
L643.141 105.321
L643.141 93.5755
L642.207 93.5755
z
" style="fill:#40cf40;"/>
   </g>
   <g id="patch_373">
    <path clip-path="url(#p6a4ae4428d)" d="
M643.142 106.888
L648.219 106.888
L648.219 95.1416
L643.142 95.1416
z
" style="fill:#4daf4a;"/>
   </g>
   <g id="patch_374">
    <path clip-path="url(#p6a4ae4428d)" d="
M648.22 105.321
L648.626 105.321
L648.626 93.5755
L648.22 93.5755
z
" style="fill:#40cf40;"/>
   </g>
   <g id="patch_375">
    <path clip-path="url(#p6a4ae4428d)" d="
M648.78 106.888
L649.366 106.888
L649.366 95.1416
L648.78 95.1416
z
" style="fill:#4daf4a;"/>
   </g>
   <g id="patch_376">
    <path clip-path="url(#p6a4ae4428d)" d="
M649.367 105.321
L651.747 105.321
L651.747 93.5755
L649.367 93.5755
z
" style="fill:#40cf40;"/>
   </g>
   <g id="patch_377">
    <path clip-path="url(#p6a4ae4428d)" d="
M651.781 106.888
L653.836 106.888
L653.836 95.1416
L651.781 95.1416
z
" style="fill:#4daf4a;"/>
   </g>
   <g id="patch_378">
    <path clip-path="url(#p6a4ae4428d)" d="
M653.837 105.321
L654.393 105.321
L654.393 93.5755
L653.837 93.5755
z
" style="fill:#40cf40;"/>
   </g>
   <g id="patch_379">
    <path clip-path="url(#p6a4ae4428d)" d="
M654.394 106.888
L657.573 106.888
L657.573 95.1416
L654.394 95.1416
z
" style="fill:#4daf4a;"/>
   </g>
   <g id="patch_380">
    <path clip-path="url(#p6a4ae4428d)" d="
M657.574 105.321
L657.905 105.321
L657.905 93.5755
L657.574 93.5755
z
" style="fill:#40cf40;"/>
   </g>
   <g id="patch_381">
    <path clip-path="url(#p6a4ae4428d)" d="
M657.906 106.888
L658.253 106.888
L658.253 95.1416
L657.906 95.1416
z
" style="fill:#4daf4a;"/>
   </g>
   <g id="patch_382">
    <path clip-path="url(#p6a4ae4428d)" d="
M658.661 105.321
L659.591 105.321
L659.591 93.5755
L658.661 93.5755
z
" style="fill:#40cf40;"/>
   </g>
   <g id="patch_383">
    <path clip-path="url(#p6a4ae4428d)" d="
M659.591 106.888
L660.129 106.888
L660.129 95.1416
L659.591 95.1416
z
" style="fill:#4daf4a;"/>
   </g>
   <g id="patch_384">
    <path clip-path="url(#p6a4ae4428d)" d="
M660.13 105.321
L662.475 105.321
L662.475 93.5755
L660.13 93.5755
z
" style="fill:#40cf40;"/>
   </g>
   <g id="patch_385">
    <path clip-path="url(#p6a4ae4428d)" d="
M663.18 106.888
L663.897 106.888
L663.897 95.1416
L663.18 95.1416
z
" style="fill:#4daf4a;"/>
   </g>
   <g id="patch_386">
    <path clip-path="url(#p6a4ae4428d)" d="
M664.024 105.321
L667.647 105.321
L667.647 93.5755
L664.024 93.5755
z
" style="fill:#40cf40;"/>
   </g>
   <g id="patch_387">
    <path clip-path="url(#p6a4ae4428d)" d="
M667.648 106.888
L668.269 106.888
L668.269 95.1416
L667.648 95.1416
z
" style="fill:#4daf4a;"/>
   </g>
   <g id="patch_388">
    <path clip-path="url(#p6a4ae4428d)" d="
M668.27 105.321
L669.452 105.321
L669.452 93.5755
L668.27 93.5755
z
" style="fill:#40cf40;"/>
   </g>
   <g id="patch_389">
    <path clip-path="url(#p6a4ae4428d)" d="
M670.046 106.888
L671.967 106.888
L671.967 95.1416
L670.046 95.1416
z
" style="fill:#4daf4a;"/>
   </g>
   <g id="patch_390">
    <path clip-path="url(#p6a4ae4428d)" d="
M671.968 105.321
L672.909 105.321
L672.909 93.5755
L671.968 93.5755
z
" style="fill:#40cf40;"/>
   </g>
   <g id="patch_391">
    <path clip-path="url(#p6a4ae4428d)" d="
M672.91 106.888
L673.33 106.888
L673.33 95.1416
L672.91 95.1416
z
" style="fill:#4daf4a;"/>
   </g>
   <g id="patch_392">
    <path clip-path="url(#p6a4ae4428d)" d="
M673.528 105.321
L674.156 105.321
L674.156 93.5755
L673.528 93.5755
z
" style="fill:#40cf40;"/>
   </g>
   <g id="patch_393">
    <path clip-path="url(#p6a4ae4428d)" d="
M674.157 106.888
L674.862 106.888
L674.862 95.1416
L674.157 95.1416
z
" style="fill:#4daf4a;"/>
   </g>
   <g id="patch_394">
    <path clip-path="url(#p6a4ae4428d)" d="
M674.863 105.321
L675.317 105.321
L675.317 93.5755
L674.863 93.5755
z
" style="fill:#40cf40;"/>
   </g>
   <g id="patch_395">
    <path clip-path="url(#p6a4ae4428d)" d="
M675.318 106.888
L675.918 106.888
L675.918 95.1416
L675.318 95.1416
z
" style="fill:#4daf4a;"/>
   </g>
   <g id="patch_396">
    <path clip-path="url(#p6a4ae4428d)" d="
M675.919 105.321
L676.454 105.321
L676.454 93.5755
L675.919 93.5755
z
" style="fill:#40cf40;"/>
   </g>
   <g id="patch_397">
    <path clip-path="url(#p6a4ae4428d)" d="
M676.527 106.888
L677.05 106.888
L677.05 95.1416
L676.527 95.1416
z
" style="fill:#4daf4a;"/>
   </g>
   <g id="patch_398">
    <path clip-path="url(#p6a4ae4428d)" d="
M677.051 105.321
L677.789 105.321
L677.789 93.5755
L677.051 93.5755
z
" style="fill:#40cf40;"/>
   </g>
   <g id="patch_399">
    <path clip-path="url(#p6a4ae4428d)" d="
M677.79 106.888
L678.129 106.888
L678.129 95.1416
L677.79 95.1416
z
" style="fill:#4daf4a;"/>
   </g>
   <g id="patch_400">
    <path clip-path="url(#p6a4ae4428d)" d="
M678.129 105.321
L678.668 105.321
L678.668 93.5755
L678.129 93.5755
z
" style="fill:#40cf40;"/>
   </g>
   <g id="patch_401">
    <path clip-path="url(#p6a4ae4428d)" d="
M678.669 106.888
L679.604 106.888
L679.604 95.1416
L678.669 95.1416
z
" style="fill:#4daf4a;"/>
   </g>
   <g id="patch_402">
    <path clip-path="url(#p6a4ae4428d)" d="
M679.604 105.321
L679.998 105.321
L679.998 93.5755
L679.604 93.5755
z
" style="fill:#40cf40;"/>
   </g>
   <g id="patch_403">
    <path clip-path="url(#p6a4ae4428d)" d="
M679.999 106.888
L682.066 106.888
L682.066 95.1416
L679.999 95.1416
z
" style="fill:#4daf4a;"/>
   </g>
   <g id="patch_404">
    <path clip-path="url(#p6a4ae4428d)" d="
M682.067 105.321
L684.939 105.321
L684.939 93.5755
L682.067 93.5755
z
" style="fill:#40cf40;"/>
   </g>
   <g id="patch_405">
    <path clip-path="url(#p6a4ae4428d)" d="
M684.94 106.888
L685.374 106.888
L685.374 95.1416
L684.94 95.1416
z
" style="fill:#4daf4a;"/>
   </g>
   <g id="patch_406">
    <path clip-path="url(#p6a4ae4428d)" d="
M685.752 105.321
L687.213 105.321
L687.213 93.5755
L685.752 93.5755
z
" style="fill:#40cf40;"/>
   </g>
   <g id="patch_407">
    <path clip-path="url(#p6a4ae4428d)" d="
M687.409 106.888
L687.952 106.888
L687.952 95.1416
L687.409 95.1416
z
" style="fill:#4daf4a;"/>
   </g>
   <g id="patch_408">
    <path clip-path="url(#p6a4ae4428d)" d="
M687.953 105.321
L688.297 105.321
L688.297 93.5755
L687.953 93.5755
z
" style="fill:#40cf40;"/>
   </g>
   <g id="patch_409">
    <path clip-path="url(#p6a4ae4428d)" d="
M688.298 106.888
L688.729 106.888
L688.729 95.1416
L688.298 95.1416
z
" style="fill:#4daf4a;"/>
   </g>
   <g id="patch_410">
    <path clip-path="url(#p6a4ae4428d)" d="
M688.73 105.321
L689.548 105.321
L689.548 93.5755
L688.73 93.5755
z
" style="fill:#40cf40;"/>
   </g>
   <g id="patch_411">
    <path clip-path="url(#p6a4ae4428d)" d="
M689.549 106.888
L689.902 106.888
L689.902 95.1416
L689.549 95.1416
z
" style="fill:#4daf4a;"/>
   </g>
   <g id="patch_412">
    <path clip-path="url(#p6a4ae4428d)" d="
M689.903 105.321
L691.032 105.321
L691.032 93.5755
L689.903 93.5755
z
" style="fill:#40cf40;"/>
   </g>
   <g id="patch_413">
    <path clip-path="url(#p6a4ae4428d)" d="
M691.032 106.888
L691.5 106.888
L691.5 95.1416
L691.032 95.1416
z
" style="fill:#4daf4a;"/>
   </g>
   <g id="patch_414">
    <path clip-path="url(#p6a4ae4428d)" d="
M691.501 105.321
L692.218 105.321
L692.218 93.5755
L691.501 93.5755
z
" style="fill:#40cf40;"/>
   </g>
   <g id="patch_415">
    <path clip-path="url(#p6a4ae4428d)" d="
M692.219 106.888
L692.576 106.888
L692.576 95.1416
L692.219 95.1416
z
" style="fill:#4daf4a;"/>
   </g>
   <g id="patch_416">
    <path clip-path="url(#p6a4ae4428d)" d="
M692.577 105.321
L692.99 105.321
L692.99 93.5755
L692.577 93.5755
z
" style="fill:#40cf40;"/>
   </g>
   <g id="patch_417">
    <path clip-path="url(#p6a4ae4428d)" d="
M692.991 106.888
L693.333 106.888
L693.333 95.1416
L692.991 95.1416
z
" style="fill:#4daf4a;"/>
   </g>
   <g id="patch_418">
    <path clip-path="url(#p6a4ae4428d)" d="
M693.333 105.321
L697.237 105.321
L697.237 93.5755
L693.333 93.5755
z
" style="fill:#40cf40;"/>
   </g>
   <g id="patch_419">
    <path clip-path="url(#p6a4ae4428d)" d="
M697.238 106.888
L698.604 106.888
L698.604 95.1416
L697.238 95.1416
z
" style="fill:#4daf4a;"/>
   </g>
   <g id="patch_420">
    <path clip-path="url(#p6a4ae4428d)" d="
M698.605 105.321
L699.307 105.321
L699.307 93.5755
L698.605 93.5755
z
" style="fill:#40cf40;"/>
   </g>
   <g id="patch_421">
    <path clip-path="url(#p6a4ae4428d)" d="
M699.308 106.888
L699.769 106.888
L699.769 95.1416
L699.308 95.1416
z
" style="fill:#4daf4a;"/>
   </g>
   <g id="patch_422">
    <path clip-path="url(#p6a4ae4428d)" d="
M699.77 105.321
L701.414 105.321
L701.414 93.5755
L699.77 93.5755
z
" style="fill:#40cf40;"/>
   </g>
   <g id="patch_423">
    <path clip-path="url(#p6a4ae4428d)" d="
M701.415 106.888
L704.023 106.888
L704.023 95.1416
L701.415 95.1416
z
" style="fill:#4daf4a;"/>
   </g>
   <g id="patch_424">
    <path clip-path="url(#p6a4ae4428d)" d="
M704.28 105.321
L704.772 105.321
L704.772 93.5755
L704.28 93.5755
z
" style="fill:#40cf40;"/>
   </g>
   <g id="patch_425">
    <path clip-path="url(#p6a4ae4428d)" d="
M704.773 106.888
L705.271 106.888
L705.271 95.1416
L704.773 95.1416
z
" style="fill:#4daf4a;"/>
   </g>
   <g id="patch_426">
    <path clip-path="url(#p6a4ae4428d)" d="
M705.271 105.321
L706.603 105.321
L706.603 93.5755
L705.271 93.5755
z
" style="fill:#40cf40;"/>
   </g>
   <g id="patch_427">
    <path clip-path="url(#p6a4ae4428d)" d="
M706.961 106.888
L707.515 106.888
L707.515 95.1416
L706.961 95.1416
z
" style="fill:#4daf4a;"/>
   </g>
   <g id="patch_428">
    <path clip-path="url(#p6a4ae4428d)" d="
M707.516 105.321
L708.74 105.321
L708.74 93.5755
L707.516 93.5755
z
" style="fill:#40cf40;"/>
   </g>
   <g id="patch_429">
    <path clip-path="url(#p6a4ae4428d)" d="
M708.78 106.888
L709.308 106.888
L709.308 95.1416
L708.78 95.1416
z
" style="fill:#4daf4a;"/>
   </g>
   <g id="patch_430">
    <path clip-path="url(#p6a4ae4428d)" d="
M709.309 105.321
L713.021 105.321
L713.021 93.5755
L709.309 93.5755
z
" style="fill:#40cf40;"/>
   </g>
   <g id="patch_431">
    <path clip-path="url(#p6a4ae4428d)" d="
M713.189 106.888
L714.015 106.888
L714.015 95.1416
L713.189 95.1416
z
" style="fill:#4daf4a;"/>
   </g>
   <g id="line2d_1">
    <path clip-path="url(#p6a4ae4428d)" d="
M182.801 66.56
L714.017 66.56" style="fill:none;stroke:#000000;stroke-linecap:square;stroke-width:0.5;"/>
   </g>
   <g id="line2d_2">
    <path clip-path="url(#p6a4ae4428d)" d="
M182.801 15.6612
L182.801 109.628" style="fill:none;stroke:#808080;stroke-dasharray:1.000000,3.000000;stroke-dashoffset:0.0;stroke-width:0.2;"/>
   </g>
   <g id="line2d_3">
    <path clip-path="url(#p6a4ae4428d)" d="
M182.801 66.56
L182.801 68.9092" style="fill:none;stroke:#000000;stroke-linecap:square;stroke-width:0.5;"/>
   </g>
   <g id="line2d_4">
    <path clip-path="url(#p6a4ae4428d)" d="
M265.571 15.6612
L265.571 109.628" style="fill:none;stroke:#808080;stroke-dasharray:1.000000,3.000000;stroke-dashoffset:0.0;stroke-width:0.2;"/>
   </g>
   <g id="line2d_5">
    <path clip-path="url(#p6a4ae4428d)" d="
M265.571 66.56
L265.571 68.9092" style="fill:none;stroke:#000000;stroke-linecap:square;stroke-width:0.5;"/>
   </g>
   <g id="line2d_6">
    <path clip-path="url(#p6a4ae4428d)" d="
M348.34 15.6612
L348.34 109.628" style="fill:none;stroke:#808080;stroke-dasharray:1.000000,3.000000;stroke-dashoffset:0.0;stroke-width:0.2;"/>
   </g>
   <g id="line2d_7">
    <path clip-path="url(#p6a4ae4428d)" d="
M348.34 66.56
L348.34 68.9092" style="fill:none;stroke:#000000;stroke-linecap:square;stroke-width:0.5;"/>
   </g>
   <g id="line2d_8">
    <path clip-path="url(#p6a4ae4428d)" d="
M431.11 15.6612
L431.11 109.628" style="fill:none;stroke:#808080;stroke-dasharray:1.000000,3.000000;stroke-dashoffset:0.0;stroke-width:0.2;"/>
   </g>
   <g id="line2d_9">
    <path clip-path="url(#p6a4ae4428d)" d="
M431.11 66.56
L431.11 68.9092" style="fill:none;stroke:#000000;stroke-linecap:square;stroke-width:0.5;"/>
   </g>
   <g id="line2d_10">
    <path clip-path="url(#p6a4ae4428d)" d="
M513.88 15.6612
L513.88 109.628" style="fill:none;stroke:#808080;stroke-dasharray:1.000000,3.000000;stroke-dashoffset:0.0;stroke-width:0.2;"/>
   </g>
   <g id="line2d_11">
    <path clip-path="url(#p6a4ae4428d)" d="
M513.88 66.56
L513.88 68.9092" style="fill:none;stroke:#000000;stroke-linecap:square;stroke-width:0.5;"/>
   </g>
   <g id="line2d_12">
    <path clip-path="url(#p6a4ae4428d)" d="
M596.65 15.6612
L596.65 109.628" style="fill:none;stroke:#808080;stroke-dasharray:1.000000,3.000000;stroke-dashoffset:0.0;stroke-width:0.2;"/>
   </g>
   <g id="line2d_13">
    <path clip-path="url(#p6a4ae4428d)" d="
M596.65 66.56
L596.65 68.9092" style="fill:none;stroke:#000000;stroke-linecap:square;stroke-width:0.5;"/>
   </g>
   <g id="line2d_14">
    <path clip-path="url(#p6a4ae4428d)" d="
M679.42 15.6612
L679.42 109.628" style="fill:none;stroke:#808080;stroke-dasharray:1.000000,3.000000;stroke-dashoffset:0.0;stroke-width:0.2;"/>
   </g>
   <g id="line2d_15">
    <path clip-path="url(#p6a4ae4428d)" d="
M679.42 66.56
L679.42 68.9092" style="fill:none;stroke:#000000;stroke-linecap:square;stroke-width:0.5;"/>
   </g>
   <g id="line2d_16">
    <path clip-path="url(#p6a4ae4428d)" d="
M714.017 15.6612
L714.017 109.628" style="fill:none;stroke:#808080;stroke-dasharray:1.000000,3.000000;stroke-dashoffset:0.0;stroke-width:0.2;"/>
   </g>
   <g id="line2d_17">
    <path clip-path="url(#p6a4ae4428d)" d="
M714.017 66.56
L714.017 68.9092" style="fill:none;stroke:#000000;stroke-linecap:square;stroke-width:0.5;"/>
   </g>
   <g id="text_1">
    <!-- 0.0 -->
    <defs>
     <path d="
M31.7812 66.4062
Q24.1719 66.4062 20.3281 58.9062
Q16.5 51.4219 16.5 36.375
Q16.5 21.3906 20.3281 13.8906
Q24.1719 6.39062 31.7812 6.39062
Q39.4531 6.39062 43.2812 13.8906
Q47.125 21.3906 47.125 36.375
Q47.125 51.4219 43.2812 58.9062
Q39.4531 66.4062 31.7812 66.4062
M31.7812 74.2188
Q44.0469 74.2188 50.5156 64.5156
Q56.9844 54.8281 56.9844 36.375
Q56.9844 17.9688 50.5156 8.26562
Q44.0469 -1.42188 31.7812 -1.42188
Q19.5312 -1.42188 13.0625 8.26562
Q6.59375 17.9688 6.59375 36.375
Q6.59375 54.8281 13.0625 64.5156
Q19.5312 74.2188 31.7812 74.2188" id="BitstreamVeraSans-Roman-30"/>
     <path d="
M10.6875 12.4062
L21 12.4062
L21 0
L10.6875 0
z
" id="BitstreamVeraSans-Roman-2e"/>
    </defs>
    <g transform="translate(184.67568 74.9879264706)scale(0.08 -0.08)">
     <use xlink:href="#BitstreamVeraSans-Roman-30"/>
     <use x="63.623046875" xlink:href="#BitstreamVeraSans-Roman-2e"/>
     <use x="95.41015625" xlink:href="#BitstreamVeraSans-Roman-30"/>
    </g>
   </g>
   <g id="text_2">
    <!-- 1.0 -->
    <defs>
     <path d="
M12.4062 8.29688
L28.5156 8.29688
L28.5156 63.9219
L10.9844 60.4062
L10.9844 69.3906
L28.4219 72.9062
L38.2812 72.9062
L38.2812 8.29688
L54.3906 8.29688
L54.3906 0
L12.4062 0
z
" id="BitstreamVeraSans-Roman-31"/>
    </defs>
    <g transform="translate(267.445519155 74.9879264706)scale(0.08 -0.08)">
     <use xlink:href="#BitstreamVeraSans-Roman-31"/>
     <use x="63.623046875" xlink:href="#BitstreamVeraSans-Roman-2e"/>
     <use x="95.41015625" xlink:href="#BitstreamVeraSans-Roman-30"/>
    </g>
   </g>
   <g id="text_3">
    <!-- 2.0 -->
    <defs>
     <path d="
M19.1875 8.29688
L53.6094 8.29688
L53.6094 0
L7.32812 0
L7.32812 8.29688
Q12.9375 14.1094 22.625 23.8906
Q32.3281 33.6875 34.8125 36.5312
Q39.5469 41.8438 41.4219 45.5312
Q43.3125 49.2188 43.3125 52.7812
Q43.3125 58.5938 39.2344 62.25
Q35.1562 65.9219 28.6094 65.9219
Q23.9688 65.9219 18.8125 64.3125
Q13.6719 62.7031 7.8125 59.4219
L7.8125 69.3906
Q13.7656 71.7812 18.9375 73
Q24.125 74.2188 28.4219 74.2188
Q39.75 74.2188 46.4844 68.5469
Q53.2188 62.8906 53.2188 53.4219
Q53.2188 48.9219 51.5312 44.8906
Q49.8594 40.875 45.4062 35.4062
Q44.1875 33.9844 37.6406 27.2188
Q31.1094 20.4531 19.1875 8.29688" id="BitstreamVeraSans-Roman-32"/>
    </defs>
    <g transform="translate(350.21535831 74.9879264706)scale(0.08 -0.08)">
     <use xlink:href="#BitstreamVeraSans-Roman-32"/>
     <use x="63.623046875" xlink:href="#BitstreamVeraSans-Roman-2e"/>
     <use x="95.41015625" xlink:href="#BitstreamVeraSans-Roman-30"/>
    </g>
   </g>
   <g id="text_4">
    <!-- 3.0 -->
    <defs>
     <path d="
M40.5781 39.3125
Q47.6562 37.7969 51.625 33
Q55.6094 28.2188 55.6094 21.1875
Q55.6094 10.4062 48.1875 4.48438
Q40.7656 -1.42188 27.0938 -1.42188
Q22.5156 -1.42188 17.6562 -0.515625
Q12.7969 0.390625 7.625 2.20312
L7.625 11.7188
Q11.7188 9.32812 16.5938 8.10938
Q21.4844 6.89062 26.8125 6.89062
Q36.0781 6.89062 40.9375 10.5469
Q45.7969 14.2031 45.7969 21.1875
Q45.7969 27.6406 41.2812 31.2656
Q36.7656 34.9062 28.7188 34.9062
L20.2188 34.9062
L20.2188 43.0156
L29.1094 43.0156
Q36.375 43.0156 40.2344 45.9219
Q44.0938 48.8281 44.0938 54.2969
Q44.0938 59.9062 40.1094 62.9062
Q36.1406 65.9219 28.7188 65.9219
Q24.6562 65.9219 20.0156 65.0312
Q15.375 64.1562 9.8125 62.3125
L9.8125 71.0938
Q15.4375 72.6562 20.3438 73.4375
Q25.25 74.2188 29.5938 74.2188
Q40.8281 74.2188 47.3594 69.1094
Q53.9062 64.0156 53.9062 55.3281
Q53.9062 49.2656 50.4375 45.0938
Q46.9688 40.9219 40.5781 39.3125" id="BitstreamVeraSans-Roman-33"/>
    </defs>
    <g transform="translate(432.985197466 74.9879264706)scale(0.08 -0.08)">
     <use xlink:href="#BitstreamVeraSans-Roman-33"/>
     <use x="63.623046875" xlink:href="#BitstreamVeraSans-Roman-2e"/>
     <use x="95.41015625" xlink:href="#BitstreamVeraSans-Roman-30"/>
    </g>
   </g>
   <g id="text_5">
    <!-- 4.0 -->
    <defs>
     <path d="
M37.7969 64.3125
L12.8906 25.3906
L37.7969 25.3906
z

M35.2031 72.9062
L47.6094 72.9062
L47.6094 25.3906
L58.0156 25.3906
L58.0156 17.1875
L47.6094 17.1875
L47.6094 0
L37.7969 0
L37.7969 17.1875
L4.89062 17.1875
L4.89062 26.7031
z
" id="BitstreamVeraSans-Roman-34"/>
    </defs>
    <g transform="translate(515.755036621 74.9879264706)scale(0.08 -0.08)">
     <use xlink:href="#BitstreamVeraSans-Roman-34"/>
     <use x="63.623046875" xlink:href="#BitstreamVeraSans-Roman-2e"/>
     <use x="95.41015625" xlink:href="#BitstreamVeraSans-Roman-30"/>
    </g>
   </g>
   <g id="text_6">
    <!-- 5.0 -->
    <defs>
     <path d="
M10.7969 72.9062
L49.5156 72.9062
L49.5156 64.5938
L19.8281 64.5938
L19.8281 46.7344
Q21.9688 47.4688 24.1094 47.8281
Q26.2656 48.1875 28.4219 48.1875
Q40.625 48.1875 47.75 41.5
Q54.8906 34.8125 54.8906 23.3906
Q54.8906 11.625 47.5625 5.09375
Q40.2344 -1.42188 26.9062 -1.42188
Q22.3125 -1.42188 17.5469 -0.640625
Q12.7969 0.140625 7.71875 1.70312
L7.71875 11.625
Q12.1094 9.23438 16.7969 8.0625
Q21.4844 6.89062 26.7031 6.89062
Q35.1562 6.89062 40.0781 11.3281
Q45.0156 15.7656 45.0156 23.3906
Q45.0156 31 40.0781 35.4375
Q35.1562 39.8906 26.7031 39.8906
Q22.75 39.8906 18.8125 39.0156
Q14.8906 38.1406 10.7969 36.2812
z
" id="BitstreamVeraSans-Roman-35"/>
    </defs>
    <g transform="translate(598.524875776 74.9879264706)scale(0.08 -0.08)">
     <use xlink:href="#BitstreamVeraSans-Roman-35"/>
     <use x="63.623046875" xlink:href="#BitstreamVeraSans-Roman-2e"/>
     <use x="95.41015625" xlink:href="#BitstreamVeraSans-Roman-30"/>
    </g>
   </g>
   <g id="text_7">
    <!-- 6.0 -->
    <defs>
     <path d="
M33.0156 40.375
Q26.375 40.375 22.4844 35.8281
Q18.6094 31.2969 18.6094 23.3906
Q18.6094 15.5312 22.4844 10.9531
Q26.375 6.39062 33.0156 6.39062
Q39.6562 6.39062 43.5312 10.9531
Q47.4062 15.5312 47.4062 23.3906
Q47.4062 31.2969 43.5312 35.8281
Q39.6562 40.375 33.0156 40.375
M52.5938 71.2969
L52.5938 62.3125
Q48.875 64.0625 45.0938 64.9844
Q41.3125 65.9219 37.5938 65.9219
Q27.8281 65.9219 22.6719 59.3281
Q17.5312 52.7344 16.7969 39.4062
Q19.6719 43.6562 24.0156 45.9219
Q28.375 48.1875 33.5938 48.1875
Q44.5781 48.1875 50.9531 41.5156
Q57.3281 34.8594 57.3281 23.3906
Q57.3281 12.1562 50.6875 5.35938
Q44.0469 -1.42188 33.0156 -1.42188
Q20.3594 -1.42188 13.6719 8.26562
Q6.98438 17.9688 6.98438 36.375
Q6.98438 53.6562 15.1875 63.9375
Q23.3906 74.2188 37.2031 74.2188
Q40.9219 74.2188 44.7031 73.4844
Q48.4844 72.75 52.5938 71.2969" id="BitstreamVeraSans-Roman-36"/>
    </defs>
    <g transform="translate(681.294714931 74.9879264706)scale(0.08 -0.08)">
     <use xlink:href="#BitstreamVeraSans-Roman-36"/>
     <use x="63.623046875" xlink:href="#BitstreamVeraSans-Roman-2e"/>
     <use x="95.41015625" xlink:href="#BitstreamVeraSans-Roman-30"/>
    </g>
   </g>
   <g id="text_8">
    <!-- 6.42 -->
    <g transform="translate(715.89168 74.9879264706)scale(0.08 -0.08)">
     <use xlink:href="#BitstreamVeraSans-Roman-36"/>
     <use x="63.623046875" xlink:href="#BitstreamVeraSans-Roman-2e"/>
     <use x="95.41015625" xlink:href="#BitstreamVeraSans-Roman-34"/>
     <use x="159.033203125" xlink:href="#BitstreamVeraSans-Roman-32"/>
    </g>
   </g>
   <g id="text_9">
    <!-- chr_0 (..m_ancestor) -->
    <defs>
     <path id="BitstreamVeraSans-Roman-20"/>
     <path d="
M50.9844 -16.6094
L50.9844 -23.5781
L-0.984375 -23.5781
L-0.984375 -16.6094
z
" id="BitstreamVeraSans-Roman-5f"/>
     <path d="
M54.8906 33.0156
L54.8906 0
L45.9062 0
L45.9062 32.7188
Q45.9062 40.4844 42.875 44.3281
Q39.8438 48.1875 33.7969 48.1875
Q26.5156 48.1875 22.3125 43.5469
Q18.1094 38.9219 18.1094 30.9062
L18.1094 0
L9.07812 0
L9.07812 54.6875
L18.1094 54.6875
L18.1094 46.1875
Q21.3438 51.125 25.7031 53.5625
Q30.0781 56 35.7969 56
Q45.2188 56 50.0469 50.1719
Q54.8906 44.3438 54.8906 33.0156" id="BitstreamVeraSans-Roman-6e"/>
     <path d="
M31 75.875
Q24.4688 64.6562 21.2812 53.6562
Q18.1094 42.6719 18.1094 31.3906
Q18.1094 20.125 21.3125 9.0625
Q24.5156 -2 31 -13.1875
L23.1875 -13.1875
Q15.875 -1.70312 12.2344 9.375
Q8.59375 20.4531 8.59375 31.3906
Q8.59375 42.2812 12.2031 53.3125
Q15.8281 64.3594 23.1875 75.875
z
" id="BitstreamVeraSans-Roman-28"/>
     <path d="
M30.6094 48.3906
Q23.3906 48.3906 19.1875 42.75
Q14.9844 37.1094 14.9844 27.2969
Q14.9844 17.4844 19.1562 11.8438
Q23.3438 6.20312 30.6094 6.20312
Q37.7969 6.20312 41.9844 11.8594
Q46.1875 17.5312 46.1875 27.2969
Q46.1875 37.0156 41.9844 42.7031
Q37.7969 48.3906 30.6094 48.3906
M30.6094 56
Q42.3281 56 49.0156 48.375
Q55.7188 40.7656 55.7188 27.2969
Q55.7188 13.875 49.0156 6.21875
Q42.3281 -1.42188 30.6094 -1.42188
Q18.8438 -1.42188 12.1719 6.21875
Q5.51562 13.875 5.51562 27.2969
Q5.51562 40.7656 12.1719 48.375
Q18.8438 56 30.6094 56" id="BitstreamVeraSans-Roman-6f"/>
     <path d="
M18.3125 70.2188
L18.3125 54.6875
L36.8125 54.6875
L36.8125 47.7031
L18.3125 47.7031
L18.3125 18.0156
Q18.3125 11.3281 20.1406 9.42188
Q21.9688 7.51562 27.5938 7.51562
L36.8125 7.51562
L36.8125 0
L27.5938 0
Q17.1875 0 13.2344 3.875
Q9.28125 7.76562 9.28125 18.0156
L9.28125 47.7031
L2.6875 47.7031
L2.6875 54.6875
L9.28125 54.6875
L9.28125 70.2188
z
" id="BitstreamVeraSans-Roman-74"/>
     <path d="
M8.01562 75.875
L15.8281 75.875
Q23.1406 64.3594 26.7812 53.3125
Q30.4219 42.2812 30.4219 31.3906
Q30.4219 20.4531 26.7812 9.375
Q23.1406 -1.70312 15.8281 -13.1875
L8.01562 -13.1875
Q14.5 -2 17.7031 9.0625
Q20.9062 20.125 20.9062 31.3906
Q20.9062 42.6719 17.7031 53.6562
Q14.5 64.6562 8.01562 75.875" id="BitstreamVeraSans-Roman-29"/>
     <path d="
M54.8906 33.0156
L54.8906 0
L45.9062 0
L45.9062 32.7188
Q45.9062 40.4844 42.875 44.3281
Q39.8438 48.1875 33.7969 48.1875
Q26.5156 48.1875 22.3125 43.5469
Q18.1094 38.9219 18.1094 30.9062
L18.1094 0
L9.07812 0
L9.07812 75.9844
L18.1094 75.9844
L18.1094 46.1875
Q21.3438 51.125 25.7031 53.5625
Q30.0781 56 35.7969 56
Q45.2188 56 50.0469 50.1719
Q54.8906 44.3438 54.8906 33.0156" id="BitstreamVeraSans-Roman-68"/>
     <path d="
M52 44.1875
Q55.375 50.25 60.0625 53.125
Q64.75 56 71.0938 56
Q79.6406 56 84.2812 50.0156
Q88.9219 44.0469 88.9219 33.0156
L88.9219 0
L79.8906 0
L79.8906 32.7188
Q79.8906 40.5781 77.0938 44.375
Q74.3125 48.1875 68.6094 48.1875
Q61.625 48.1875 57.5625 43.5469
Q53.5156 38.9219 53.5156 30.9062
L53.5156 0
L44.4844 0
L44.4844 32.7188
Q44.4844 40.625 41.7031 44.4062
Q38.9219 48.1875 33.1094 48.1875
Q26.2188 48.1875 22.1562 43.5312
Q18.1094 38.875 18.1094 30.9062
L18.1094 0
L9.07812 0
L9.07812 54.6875
L18.1094 54.6875
L18.1094 46.1875
Q21.1875 51.2188 25.4844 53.6094
Q29.7812 56 35.6875 56
Q41.6562 56 45.8281 52.9688
Q50 49.9531 52 44.1875" id="BitstreamVeraSans-Roman-6d"/>
     <path d="
M56.2031 29.5938
L56.2031 25.2031
L14.8906 25.2031
Q15.4844 15.9219 20.4844 11.0625
Q25.4844 6.20312 34.4219 6.20312
Q39.5938 6.20312 44.4531 7.46875
Q49.3125 8.73438 54.1094 11.2812
L54.1094 2.78125
Q49.2656 0.734375 44.1875 -0.34375
Q39.1094 -1.42188 33.8906 -1.42188
Q20.7969 -1.42188 13.1562 6.1875
Q5.51562 13.8125 5.51562 26.8125
Q5.51562 40.2344 12.7656 48.1094
Q20.0156 56 32.3281 56
Q43.3594 56 49.7812 48.8906
Q56.2031 41.7969 56.2031 29.5938
M47.2188 32.2344
Q47.125 39.5938 43.0938 43.9844
Q39.0625 48.3906 32.4219 48.3906
Q24.9062 48.3906 20.3906 44.1406
Q15.875 39.8906 15.1875 32.1719
z
" id="BitstreamVeraSans-Roman-65"/>
     <path d="
M34.2812 27.4844
Q23.3906 27.4844 19.1875 25
Q14.9844 22.5156 14.9844 16.5
Q14.9844 11.7188 18.1406 8.90625
Q21.2969 6.10938 26.7031 6.10938
Q34.1875 6.10938 38.7031 11.4062
Q43.2188 16.7031 43.2188 25.4844
L43.2188 27.4844
z

M52.2031 31.2031
L52.2031 0
L43.2188 0
L43.2188 8.29688
Q40.1406 3.32812 35.5469 0.953125
Q30.9531 -1.42188 24.3125 -1.42188
Q15.9219 -1.42188 10.9531 3.29688
Q6 8.01562 6 15.9219
Q6 25.1406 12.1719 29.8281
Q18.3594 34.5156 30.6094 34.5156
L43.2188 34.5156
L43.2188 35.4062
Q43.2188 41.6094 39.1406 45
Q35.0625 48.3906 27.6875 48.3906
Q23 48.3906 18.5469 47.2656
Q14.1094 46.1406 10.0156 43.8906
L10.0156 52.2031
Q14.9375 54.1094 19.5781 55.0469
Q24.2188 56 28.6094 56
Q40.4844 56 46.3438 49.8438
Q52.2031 43.7031 52.2031 31.2031" id="BitstreamVeraSans-Roman-61"/>
     <path d="
M41.1094 46.2969
Q39.5938 47.1719 37.8125 47.5781
Q36.0312 48 33.8906 48
Q26.2656 48 22.1875 43.0469
Q18.1094 38.0938 18.1094 28.8125
L18.1094 0
L9.07812 0
L9.07812 54.6875
L18.1094 54.6875
L18.1094 46.1875
Q20.9531 51.1719 25.4844 53.5781
Q30.0312 56 36.5312 56
Q37.4531 56 38.5781 55.875
Q39.7031 55.7656 41.0625 55.5156
z
" id="BitstreamVeraSans-Roman-72"/>
     <path d="
M44.2812 53.0781
L44.2812 44.5781
Q40.4844 46.5312 36.375 47.5
Q32.2812 48.4844 27.875 48.4844
Q21.1875 48.4844 17.8438 46.4375
Q14.5 44.3906 14.5 40.2812
Q14.5 37.1562 16.8906 35.375
Q19.2812 33.5938 26.5156 31.9844
L29.5938 31.2969
Q39.1562 29.25 43.1875 25.5156
Q47.2188 21.7812 47.2188 15.0938
Q47.2188 7.46875 41.1875 3.01562
Q35.1562 -1.42188 24.6094 -1.42188
Q20.2188 -1.42188 15.4531 -0.5625
Q10.6875 0.296875 5.42188 2
L5.42188 11.2812
Q10.4062 8.6875 15.2344 7.39062
Q20.0625 6.10938 24.8125 6.10938
Q31.1562 6.10938 34.5625 8.28125
Q37.9844 10.4531 37.9844 14.4062
Q37.9844 18.0625 35.5156 20.0156
Q33.0625 21.9688 24.7031 23.7812
L21.5781 24.5156
Q13.2344 26.2656 9.51562 29.9062
Q5.8125 33.5469 5.8125 39.8906
Q5.8125 47.6094 11.2812 51.7969
Q16.75 56 26.8125 56
Q31.7812 56 36.1719 55.2656
Q40.5781 54.5469 44.2812 53.0781" id="BitstreamVeraSans-Roman-73"/>
     <path d="
M48.7812 52.5938
L48.7812 44.1875
Q44.9688 46.2969 41.1406 47.3438
Q37.3125 48.3906 33.4062 48.3906
Q24.6562 48.3906 19.8125 42.8438
Q14.9844 37.3125 14.9844 27.2969
Q14.9844 17.2812 19.8125 11.7344
Q24.6562 6.20312 33.4062 6.20312
Q37.3125 6.20312 41.1406 7.25
Q44.9688 8.29688 48.7812 10.4062
L48.7812 2.09375
Q45.0156 0.34375 40.9844 -0.53125
Q36.9688 -1.42188 32.4219 -1.42188
Q20.0625 -1.42188 12.7812 6.34375
Q5.51562 14.1094 5.51562 27.2969
Q5.51562 40.6719 12.8594 48.3281
Q20.2188 56 33.0156 56
Q37.1562 56 41.1094 55.1406
Q45.0625 54.2969 48.7812 52.5938" id="BitstreamVeraSans-Roman-63"/>
    </defs>
    <g transform="translate(392.306221875 56.7121636029)scale(0.11 -0.11)">
     <use xlink:href="#BitstreamVeraSans-Roman-63"/>
     <use x="54.98046875" xlink:href="#BitstreamVeraSans-Roman-68"/>
     <use x="118.359375" xlink:href="#BitstreamVeraSans-Roman-72"/>
     <use x="159.47265625" xlink:href="#BitstreamVeraSans-Roman-5f"/>
     <use x="209.47265625" xlink:href="#BitstreamVeraSans-Roman-30"/>
     <use x="273.095703125" xlink:href="#BitstreamVeraSans-Roman-20"/>
     <use x="304.8828125" xlink:href="#BitstreamVeraSans-Roman-28"/>
     <use x="343.896484375" xlink:href="#BitstreamVeraSans-Roman-2e"/>
     <use x="375.68359375" xlink:href="#BitstreamVeraSans-Roman-2e"/>
     <use x="407.470703125" xlink:href="#BitstreamVeraSans-Roman-6d"/>
     <use x="504.8828125" xlink:href="#BitstreamVeraSans-Roman-5f"/>
     <use x="554.8828125" xlink:href="#BitstreamVeraSans-Roman-61"/>
     <use x="616.162109375" xlink:href="#BitstreamVeraSans-Roman-6e"/>
     <use x="679.541015625" xlink:href="#BitstreamVeraSans-Roman-63"/>
     <use x="734.521484375" xlink:href="#BitstreamVeraSans-Roman-65"/>
     <use x="796.044921875" xlink:href="#BitstreamVeraSans-Roman-73"/>
     <use x="848.14453125" xlink:href="#BitstreamVeraSans-Roman-74"/>
     <use x="887.353515625" xlink:href="#BitstreamVeraSans-Roman-6f"/>
     <use x="948.53515625" xlink:href="#BitstreamVeraSans-Roman-72"/>
     <use x="989.6484375" xlink:href="#BitstreamVeraSans-Roman-29"/>
    </g>
   </g>
   <g id="text_10">
    <!-- Genome, x100 kb -->
    <defs>
     <path d="
M59.5156 10.4062
L59.5156 29.9844
L43.4062 29.9844
L43.4062 38.0938
L69.2812 38.0938
L69.2812 6.78125
Q63.5781 2.73438 56.6875 0.65625
Q49.8125 -1.42188 42 -1.42188
Q24.9062 -1.42188 15.25 8.5625
Q5.60938 18.5625 5.60938 36.375
Q5.60938 54.25 15.25 64.2344
Q24.9062 74.2188 42 74.2188
Q49.125 74.2188 55.5469 72.4531
Q61.9688 70.7031 67.3906 67.2812
L67.3906 56.7812
Q61.9219 61.4219 55.7656 63.7656
Q49.6094 66.1094 42.8281 66.1094
Q29.4375 66.1094 22.7188 58.6406
Q16.0156 51.1719 16.0156 36.375
Q16.0156 21.625 22.7188 14.1562
Q29.4375 6.6875 42.8281 6.6875
Q48.0469 6.6875 52.1406 7.59375
Q56.25 8.5 59.5156 10.4062" id="BitstreamVeraSans-Roman-47"/>
     <path d="
M11.7188 12.4062
L22.0156 12.4062
L22.0156 4
L14.0156 -11.625
L7.71875 -11.625
L11.7188 4
z
" id="BitstreamVeraSans-Roman-2c"/>
     <path d="
M48.6875 27.2969
Q48.6875 37.2031 44.6094 42.8438
Q40.5312 48.4844 33.4062 48.4844
Q26.2656 48.4844 22.1875 42.8438
Q18.1094 37.2031 18.1094 27.2969
Q18.1094 17.3906 22.1875 11.75
Q26.2656 6.10938 33.4062 6.10938
Q40.5312 6.10938 44.6094 11.75
Q48.6875 17.3906 48.6875 27.2969
M18.1094 46.3906
Q20.9531 51.2656 25.2656 53.625
Q29.5938 56 35.5938 56
Q45.5625 56 51.7812 48.0938
Q58.0156 40.1875 58.0156 27.2969
Q58.0156 14.4062 51.7812 6.48438
Q45.5625 -1.42188 35.5938 -1.42188
Q29.5938 -1.42188 25.2656 0.953125
Q20.9531 3.32812 18.1094 8.20312
L18.1094 0
L9.07812 0
L9.07812 75.9844
L18.1094 75.9844
z
" id="BitstreamVeraSans-Roman-62"/>
     <path d="
M54.8906 54.6875
L35.1094 28.0781
L55.9062 0
L45.3125 0
L29.3906 21.4844
L13.4844 0
L2.875 0
L24.125 28.6094
L4.6875 54.6875
L15.2812 54.6875
L29.7812 35.2031
L44.2812 54.6875
z
" id="BitstreamVeraSans-Roman-78"/>
     <path d="
M9.07812 75.9844
L18.1094 75.9844
L18.1094 31.1094
L44.9219 54.6875
L56.3906 54.6875
L27.3906 29.1094
L57.625 0
L45.9062 0
L18.1094 26.7031
L18.1094 0
L9.07812 0
z
" id="BitstreamVeraSans-Roman-6b"/>
    </defs>
    <g transform="translate(399.79739375 87.0556930147)scale(0.11 -0.11)">
     <use xlink:href="#BitstreamVeraSans-Roman-47"/>
     <use x="77.490234375" xlink:href="#BitstreamVeraSans-Roman-65"/>
     <use x="139.013671875" xlink:href="#BitstreamVeraSans-Roman-6e"/>
     <use x="202.392578125" xlink:href="#BitstreamVeraSans-Roman-6f"/>
     <use x="263.57421875" xlink:href="#BitstreamVeraSans-Roman-6d"/>
     <use x="360.986328125" xlink:href="#BitstreamVeraSans-Roman-65"/>
     <use x="422.509765625" xlink:href="#BitstreamVeraSans-Roman-2c"/>
     <use x="454.296875" xlink:href="#BitstreamVeraSans-Roman-20"/>
     <use x="486.083984375" xlink:href="#BitstreamVeraSans-Roman-78"/>
     <use x="545.263671875" xlink:href="#BitstreamVeraSans-Roman-31"/>
     <use x="608.88671875" xlink:href="#BitstreamVeraSans-Roman-30"/>
     <use x="672.509765625" xlink:href="#BitstreamVeraSans-Roman-30"/>
     <use x="736.1328125" xlink:href="#BitstreamVeraSans-Roman-20"/>
     <use x="767.919921875" xlink:href="#BitstreamVeraSans-Roman-6b"/>
     <use x="825.830078125" xlink:href="#BitstreamVeraSans-Roman-62"/>
    </g>
   </g>
   <g id="text_11">
    <!-- final.contigs -->
    <defs>
     <path d="
M45.4062 27.9844
Q45.4062 37.75 41.375 43.1094
Q37.3594 48.4844 30.0781 48.4844
Q22.8594 48.4844 18.8281 43.1094
Q14.7969 37.75 14.7969 27.9844
Q14.7969 18.2656 18.8281 12.8906
Q22.8594 7.51562 30.0781 7.51562
Q37.3594 7.51562 41.375 12.8906
Q45.4062 18.2656 45.4062 27.9844
M54.3906 6.78125
Q54.3906 -7.17188 48.1875 -13.9844
Q42 -20.7969 29.2031 -20.7969
Q24.4688 -20.7969 20.2656 -20.0938
Q16.0625 -19.3906 12.1094 -17.9219
L12.1094 -9.1875
Q16.0625 -11.3281 19.9219 -12.3438
Q23.7812 -13.375 27.7812 -13.375
Q36.625 -13.375 41.0156 -8.76562
Q45.4062 -4.15625 45.4062 5.17188
L45.4062 9.625
Q42.625 4.78125 38.2812 2.39062
Q33.9375 0 27.875 0
Q17.8281 0 11.6719 7.65625
Q5.51562 15.3281 5.51562 27.9844
Q5.51562 40.6719 11.6719 48.3281
Q17.8281 56 27.875 56
Q33.9375 56 38.2812 53.6094
Q42.625 51.2188 45.4062 46.3906
L45.4062 54.6875
L54.3906 54.6875
z
" id="BitstreamVeraSans-Roman-67"/>
     <path d="
M37.1094 75.9844
L37.1094 68.5
L28.5156 68.5
Q23.6875 68.5 21.7969 66.5469
Q19.9219 64.5938 19.9219 59.5156
L19.9219 54.6875
L34.7188 54.6875
L34.7188 47.7031
L19.9219 47.7031
L19.9219 0
L10.8906 0
L10.8906 47.7031
L2.29688 47.7031
L2.29688 54.6875
L10.8906 54.6875
L10.8906 58.5
Q10.8906 67.625 15.1406 71.7969
Q19.3906 75.9844 28.6094 75.9844
z
" id="BitstreamVeraSans-Roman-66"/>
     <path d="
M9.42188 54.6875
L18.4062 54.6875
L18.4062 0
L9.42188 0
z

M9.42188 75.9844
L18.4062 75.9844
L18.4062 64.5938
L9.42188 64.5938
z
" id="BitstreamVeraSans-Roman-69"/>
     <path d="
M9.42188 75.9844
L18.4062 75.9844
L18.4062 0
L9.42188 0
z
" id="BitstreamVeraSans-Roman-6c"/>
    </defs>
    <g transform="translate(105.856725 101.259669118)scale(0.12 -0.12)">
     <use xlink:href="#BitstreamVeraSans-Roman-66"/>
     <use x="35.205078125" xlink:href="#BitstreamVeraSans-Roman-69"/>
     <use x="62.98828125" xlink:href="#BitstreamVeraSans-Roman-6e"/>
     <use x="126.3671875" xlink:href="#BitstreamVeraSans-Roman-61"/>
     <use x="187.646484375" xlink:href="#BitstreamVeraSans-Roman-6c"/>
     <use x="215.4296875" xlink:href="#BitstreamVeraSans-Roman-2e"/>
     <use x="247.216796875" xlink:href="#BitstreamVeraSans-Roman-63"/>
     <use x="302.197265625" xlink:href="#BitstreamVeraSans-Roman-6f"/>
     <use x="363.37890625" xlink:href="#BitstreamVeraSans-Roman-6e"/>
     <use x="426.7578125" xlink:href="#BitstreamVeraSans-Roman-74"/>
     <use x="465.966796875" xlink:href="#BitstreamVeraSans-Roman-69"/>
     <use x="493.75" xlink:href="#BitstreamVeraSans-Roman-67"/>
     <use x="557.2265625" xlink:href="#BitstreamVeraSans-Roman-73"/>
    </g>
   </g>
  </g>
 </g>
 <defs>
  <clipPath id="p6a4ae4428d">
   <rect height="117.458823529" width="781.2" x="0.0" y="0.0"/>
  </clipPath>
 </defs>
</svg>
