<?xml version="1.0" encoding="utf-8" standalone="no"?>
<!DOCTYPE svg PUBLIC "-//W3C//DTD SVG 1.1//EN"
  "http://www.w3.org/Graphics/SVG/1.1/DTD/svg11.dtd">
<!-- Created with matplotlib (http://matplotlib.org/) -->
<svg height="118pt" version="1.1" viewBox="0 0 786 118" width="786pt" xmlns="http://www.w3.org/2000/svg" xmlns:xlink="http://www.w3.org/1999/xlink">
 <defs>
  <style type="text/css">
*{stroke-linecap:butt;stroke-linejoin:round;}
  </style>
 </defs>
 <g id="figure_1">
  <g id="patch_1">
   <path d="M 0 118.094118 
L 786.24 118.094118 
L 786.24 -0 
L 0 -0 
z
" style="fill:#ffffff;"/>
  </g>
  <g id="axes_1">
   <g id="patch_2">
    <path clip-path="url(#p043114b144)" d="M 38.029091 110.435294 
L 748.210909 110.435294 
L 748.210909 7.658824 
L 38.029091 7.658824 
z
" style="fill:#ffffff;"/>
   </g>
   <g id="patch_3">
    <path clip-path="url(#p043114b144)" d="M 78.898701 99.762353 
L 81.09269 99.762353 
L 81.09269 87.903529 
L 78.898701 87.903529 
z
" style="fill:#4daf4a;"/>
   </g>
   <g id="patch_4">
    <path clip-path="url(#p043114b144)" d="M 81.092833 98.181176 
L 81.273408 98.181176 
L 81.273408 86.322353 
L 81.092833 86.322353 
z
" style="fill:#40cf40;"/>
   </g>
   <g id="patch_5">
    <path clip-path="url(#p043114b144)" d="M 81.273551 99.762353 
L 81.721071 99.762353 
L 81.721071 87.903529 
L 81.273551 87.903529 
z
" style="fill:#4daf4a;"/>
   </g>
   <g id="patch_6">
    <path clip-path="url(#p043114b144)" d="M 81.808865 98.181176 
L 84.411608 98.181176 
L 84.411608 86.322353 
L 81.808865 86.322353 
z
" style="fill:#40cf40;"/>
   </g>
   <g id="patch_7">
    <path clip-path="url(#p043114b144)" d="M 84.411751 102.529412 
L 88.398387 102.529412 
L 88.398387 90.670588 
L 84.411751 90.670588 
z
" style="fill:#e41a1c;"/>
   </g>
   <g id="patch_8">
    <path clip-path="url(#p043114b144)" d="M 88.398529 98.181176 
L 96.882458 98.181176 
L 96.882458 86.322353 
L 88.398529 86.322353 
z
" style="fill:#40cf40;"/>
   </g>
   <g id="patch_9">
    <path clip-path="url(#p043114b144)" d="M 96.882601 99.762353 
L 98.676102 99.762353 
L 98.676102 87.903529 
L 96.882601 87.903529 
z
" style="fill:#4daf4a;"/>
   </g>
   <g id="patch_10">
    <path clip-path="url(#p043114b144)" d="M 98.676245 98.181176 
L 104.340939 98.181176 
L 104.340939 86.322353 
L 98.676245 86.322353 
z
" style="fill:#40cf40;"/>
   </g>
   <g id="patch_11">
    <path clip-path="url(#p043114b144)" d="M 104.342364 99.762353 
L 106.368747 99.762353 
L 106.368747 87.903529 
L 104.342364 87.903529 
z
" style="fill:#4daf4a;"/>
   </g>
   <g id="patch_12">
    <path clip-path="url(#p043114b144)" d="M 106.368889 98.181176 
L 107.497666 98.181176 
L 107.497666 86.322353 
L 106.368889 86.322353 
z
" style="fill:#40cf40;"/>
   </g>
   <g id="patch_13">
    <path clip-path="url(#p043114b144)" d="M 107.497809 99.762353 
L 109.699209 99.762353 
L 109.699209 87.903529 
L 107.497809 87.903529 
z
" style="fill:#4daf4a;"/>
   </g>
   <g id="patch_14">
    <path clip-path="url(#p043114b144)" d="M 109.699352 98.181176 
L 110.748459 98.181176 
L 110.748459 86.322353 
L 109.699352 86.322353 
z
" style="fill:#40cf40;"/>
   </g>
   <g id="patch_15">
    <path clip-path="url(#p043114b144)" d="M 111.109611 99.762353 
L 111.480026 99.762353 
L 111.480026 87.903529 
L 111.109611 87.903529 
z
" style="fill:#4daf4a;"/>
   </g>
   <g id="patch_16">
    <path clip-path="url(#p043114b144)" d="M 111.51637 98.181176 
L 112.976084 98.181176 
L 112.976084 86.322353 
L 111.51637 86.322353 
z
" style="fill:#40cf40;"/>
   </g>
   <g id="patch_17">
    <path clip-path="url(#p043114b144)" d="M 112.994612 99.762353 
L 113.70423 99.762353 
L 113.70423 87.903529 
L 112.994612 87.903529 
z
" style="fill:#4daf4a;"/>
   </g>
   <g id="patch_18">
    <path clip-path="url(#p043114b144)" d="M 113.704373 98.181176 
L 114.168853 98.181176 
L 114.168853 86.322353 
L 113.704373 86.322353 
z
" style="fill:#40cf40;"/>
   </g>
   <g id="patch_19">
    <path clip-path="url(#p043114b144)" d="M 114.168996 99.762353 
L 114.264771 99.762353 
L 114.264771 87.903529 
L 114.168996 87.903529 
z
" style="fill:#4daf4a;"/>
   </g>
   <g id="patch_20">
    <path clip-path="url(#p043114b144)" d="M 114.268477 98.181176 
L 115.654364 98.181176 
L 115.654364 86.322353 
L 114.268477 86.322353 
z
" style="fill:#40cf40;"/>
   </g>
   <g id="patch_21">
    <path clip-path="url(#p043114b144)" d="M 115.745151 102.529412 
L 116.435244 102.529412 
L 116.435244 90.670588 
L 115.745151 90.670588 
z
" style="fill:#e41a1c;"/>
   </g>
   <g id="patch_22">
    <path clip-path="url(#p043114b144)" d="M 116.550972 98.181176 
L 117.194746 98.181176 
L 117.194746 86.322353 
L 116.550972 86.322353 
z
" style="fill:#40cf40;"/>
   </g>
   <g id="patch_23">
    <path clip-path="url(#p043114b144)" d="M 117.20629 99.762353 
L 117.408672 99.762353 
L 117.408672 87.903529 
L 117.20629 87.903529 
z
" style="fill:#4daf4a;"/>
   </g>
   <g id="patch_24">
    <path clip-path="url(#p043114b144)" d="M 117.638133 100.948235 
L 117.944413 100.948235 
L 117.944413 89.089412 
L 117.638133 89.089412 
z
" style="fill:#b82525;"/>
   </g>
   <g id="patch_25">
    <path clip-path="url(#p043114b144)" d="M 118.092922 99.762353 
L 118.695934 99.762353 
L 118.695934 87.903529 
L 118.092922 87.903529 
z
" style="fill:#4daf4a;"/>
   </g>
   <g id="patch_26">
    <path clip-path="url(#p043114b144)" d="M 118.800118 100.948235 
L 120.31057 100.948235 
L 120.31057 89.089412 
L 118.800118 89.089412 
z
" style="fill:#b82525;"/>
   </g>
   <g id="patch_27">
    <path clip-path="url(#p043114b144)" d="M 120.409195 99.762353 
L 123.826882 99.762353 
L 123.826882 87.903529 
L 120.409195 87.903529 
z
" style="fill:#4daf4a;"/>
   </g>
   <g id="patch_28">
    <path clip-path="url(#p043114b144)" d="M 123.827024 98.181176 
L 123.994773 98.181176 
L 123.994773 86.322353 
L 123.827024 86.322353 
z
" style="fill:#40cf40;"/>
   </g>
   <g id="patch_29">
    <path clip-path="url(#p043114b144)" d="M 123.994915 99.762353 
L 127.335782 99.762353 
L 127.335782 87.903529 
L 123.994915 87.903529 
z
" style="fill:#4daf4a;"/>
   </g>
   <g id="patch_30">
    <path clip-path="url(#p043114b144)" d="M 127.345759 98.181176 
L 128.75559 98.181176 
L 128.75559 86.322353 
L 127.345759 86.322353 
z
" style="fill:#40cf40;"/>
   </g>
   <g id="patch_31">
    <path clip-path="url(#p043114b144)" d="M 128.756873 99.762353 
L 129.449389 99.762353 
L 129.449389 87.903529 
L 128.756873 87.903529 
z
" style="fill:#4daf4a;"/>
   </g>
   <g id="patch_32">
    <path clip-path="url(#p043114b144)" d="M 129.449531 98.181176 
L 129.850304 98.181176 
L 129.850304 86.322353 
L 129.449531 86.322353 
z
" style="fill:#40cf40;"/>
   </g>
   <g id="patch_33">
    <path clip-path="url(#p043114b144)" d="M 129.87325 99.762353 
L 130.380773 99.762353 
L 130.380773 87.903529 
L 129.87325 87.903529 
z
" style="fill:#4daf4a;"/>
   </g>
   <g id="patch_34">
    <path clip-path="url(#p043114b144)" d="M 130.380915 98.181176 
L 132.334469 98.181176 
L 132.334469 86.322353 
L 130.380915 86.322353 
z
" style="fill:#40cf40;"/>
   </g>
   <g id="patch_35">
    <path clip-path="url(#p043114b144)" d="M 132.359411 99.762353 
L 132.691773 99.762353 
L 132.691773 87.903529 
L 132.359411 87.903529 
z
" style="fill:#4daf4a;"/>
   </g>
   <g id="patch_36">
    <path clip-path="url(#p043114b144)" d="M 132.691915 98.181176 
L 133.237491 98.181176 
L 133.237491 86.322353 
L 132.691915 86.322353 
z
" style="fill:#40cf40;"/>
   </g>
   <g id="patch_37">
    <path clip-path="url(#p043114b144)" d="M 133.316021 99.762353 
L 133.416499 99.762353 
L 133.416499 87.903529 
L 133.316021 87.903529 
z
" style="fill:#4daf4a;"/>
   </g>
   <g id="patch_38">
    <path clip-path="url(#p043114b144)" d="M 133.416642 98.181176 
L 134.726992 98.181176 
L 134.726992 86.322353 
L 133.416642 86.322353 
z
" style="fill:#40cf40;"/>
   </g>
   <g id="patch_39">
    <path clip-path="url(#p043114b144)" d="M 134.885334 99.762353 
L 136.808816 99.762353 
L 136.808816 87.903529 
L 134.885334 87.903529 
z
" style="fill:#4daf4a;"/>
   </g>
   <g id="patch_40">
    <path clip-path="url(#p043114b144)" d="M 136.811239 98.181176 
L 137.490073 98.181176 
L 137.490073 86.322353 
L 136.811239 86.322353 
z
" style="fill:#40cf40;"/>
   </g>
   <g id="patch_41">
    <path clip-path="url(#p043114b144)" d="M 137.490216 99.762353 
L 137.645708 99.762353 
L 137.645708 87.903529 
L 137.490216 87.903529 
z
" style="fill:#4daf4a;"/>
   </g>
   <g id="patch_42">
    <path clip-path="url(#p043114b144)" d="M 137.64585 98.181176 
L 140.321423 98.181176 
L 140.321423 86.322353 
L 137.64585 86.322353 
z
" style="fill:#40cf40;"/>
   </g>
   <g id="patch_43">
    <path clip-path="url(#p043114b144)" d="M 140.329119 102.529412 
L 141.33889 102.529412 
L 141.33889 90.670588 
L 140.329119 90.670588 
z
" style="fill:#e41a1c;"/>
   </g>
   <g id="patch_44">
    <path clip-path="url(#p043114b144)" d="M 141.34174 98.181176 
L 145.882218 98.181176 
L 145.882218 86.322353 
L 141.34174 86.322353 
z
" style="fill:#40cf40;"/>
   </g>
   <g id="patch_45">
    <path clip-path="url(#p043114b144)" d="M 145.88236 99.762353 
L 149.861015 99.762353 
L 149.861015 87.903529 
L 145.88236 87.903529 
z
" style="fill:#4daf4a;"/>
   </g>
   <g id="patch_46">
    <path clip-path="url(#p043114b144)" d="M 149.861157 98.181176 
L 151.372892 98.181176 
L 151.372892 86.322353 
L 149.861157 86.322353 
z
" style="fill:#40cf40;"/>
   </g>
   <g id="patch_47">
    <path clip-path="url(#p043114b144)" d="M 151.387429 99.762353 
L 153.005201 99.762353 
L 153.005201 87.903529 
L 151.387429 87.903529 
z
" style="fill:#4daf4a;"/>
   </g>
   <g id="patch_48">
    <path clip-path="url(#p043114b144)" d="M 153.005343 98.181176 
L 153.569019 98.181176 
L 153.569019 86.322353 
L 153.005343 86.322353 
z
" style="fill:#40cf40;"/>
   </g>
   <g id="patch_49">
    <path clip-path="url(#p043114b144)" d="M 153.569162 99.762353 
L 153.734203 99.762353 
L 153.734203 87.903529 
L 153.569162 87.903529 
z
" style="fill:#4daf4a;"/>
   </g>
   <g id="patch_50">
    <path clip-path="url(#p043114b144)" d="M 153.979484 98.181176 
L 154.161912 98.181176 
L 154.161912 86.322353 
L 153.979484 86.322353 
z
" style="fill:#40cf40;"/>
   </g>
   <g id="patch_51">
    <path clip-path="url(#p043114b144)" d="M 154.162055 99.762353 
L 156.312005 99.762353 
L 156.312005 87.903529 
L 154.162055 87.903529 
z
" style="fill:#4daf4a;"/>
   </g>
   <g id="patch_52">
    <path clip-path="url(#p043114b144)" d="M 156.312147 98.181176 
L 159.678525 98.181176 
L 159.678525 86.322353 
L 156.312147 86.322353 
z
" style="fill:#40cf40;"/>
   </g>
   <g id="patch_53">
    <path clip-path="url(#p043114b144)" d="M 159.835728 99.762353 
L 160.791055 99.762353 
L 160.791055 87.903529 
L 159.835728 87.903529 
z
" style="fill:#4daf4a;"/>
   </g>
   <g id="patch_54">
    <path clip-path="url(#p043114b144)" d="M 160.791197 98.181176 
L 160.851627 98.181176 
L 160.851627 86.322353 
L 160.791197 86.322353 
z
" style="fill:#40cf40;"/>
   </g>
   <g id="patch_55">
    <path clip-path="url(#p043114b144)" d="M 160.940989 99.762353 
L 161.458487 99.762353 
L 161.458487 87.903529 
L 160.940989 87.903529 
z
" style="fill:#4daf4a;"/>
   </g>
   <g id="patch_56">
    <path clip-path="url(#p043114b144)" d="M 161.463761 98.181176 
L 161.60614 98.181176 
L 161.60614 86.322353 
L 161.463761 86.322353 
z
" style="fill:#40cf40;"/>
   </g>
   <g id="patch_57">
    <path clip-path="url(#p043114b144)" d="M 161.606283 99.762353 
L 161.800113 99.762353 
L 161.800113 87.903529 
L 161.606283 87.903529 
z
" style="fill:#4daf4a;"/>
   </g>
   <g id="patch_58">
    <path clip-path="url(#p043114b144)" d="M 161.816503 98.181176 
L 165.554152 98.181176 
L 165.554152 86.322353 
L 161.816503 86.322353 
z
" style="fill:#40cf40;"/>
   </g>
   <g id="patch_59">
    <path clip-path="url(#p043114b144)" d="M 165.724182 99.762353 
L 176.933281 99.762353 
L 176.933281 87.903529 
L 165.724182 87.903529 
z
" style="fill:#4daf4a;"/>
   </g>
   <g id="patch_60">
    <path clip-path="url(#p043114b144)" d="M 177.083214 100.948235 
L 178.178926 100.948235 
L 178.178926 89.089412 
L 177.083214 89.089412 
z
" style="fill:#b82525;"/>
   </g>
   <g id="patch_61">
    <path clip-path="url(#p043114b144)" d="M 178.23508 102.529412 
L 180.847515 102.529412 
L 180.847515 90.670588 
L 178.23508 90.670588 
z
" style="fill:#e41a1c;"/>
   </g>
   <g id="patch_62">
    <path clip-path="url(#p043114b144)" d="M 180.847658 98.181176 
L 182.887723 98.181176 
L 182.887723 86.322353 
L 180.847658 86.322353 
z
" style="fill:#40cf40;"/>
   </g>
   <g id="patch_63">
    <path clip-path="url(#p043114b144)" d="M 183.263839 99.762353 
L 183.349638 99.762353 
L 183.349638 87.903529 
L 183.263839 87.903529 
z
" style="fill:#4daf4a;"/>
   </g>
   <g id="patch_64">
    <path clip-path="url(#p043114b144)" d="M 183.400376 100.948235 
L 183.54133 100.948235 
L 183.54133 89.089412 
L 183.400376 89.089412 
z
" style="fill:#b82525;"/>
   </g>
   <g id="patch_65">
    <path clip-path="url(#p043114b144)" d="M 183.654493 99.762353 
L 183.859298 99.762353 
L 183.859298 87.903529 
L 183.654493 87.903529 
z
" style="fill:#4daf4a;"/>
   </g>
   <g id="patch_66">
    <path clip-path="url(#p043114b144)" d="M 184.150186 98.181176 
L 184.49509 98.181176 
L 184.49509 86.322353 
L 184.150186 86.322353 
z
" style="fill:#40cf40;"/>
   </g>
   <g id="patch_67">
    <path clip-path="url(#p043114b144)" d="M 184.495232 99.762353 
L 187.74688 99.762353 
L 187.74688 87.903529 
L 184.495232 87.903529 
z
" style="fill:#4daf4a;"/>
   </g>
   <g id="patch_68">
    <path clip-path="url(#p043114b144)" d="M 187.7932 98.181176 
L 190.146102 98.181176 
L 190.146102 86.322353 
L 187.7932 86.322353 
z
" style="fill:#40cf40;"/>
   </g>
   <g id="patch_69">
    <path clip-path="url(#p043114b144)" d="M 190.176317 99.762353 
L 190.262115 99.762353 
L 190.262115 87.903529 
L 190.176317 87.903529 
z
" style="fill:#4daf4a;"/>
   </g>
   <g id="patch_70">
    <path clip-path="url(#p043114b144)" d="M 190.308292 98.181176 
L 193.316797 98.181176 
L 193.316797 86.322353 
L 190.308292 86.322353 
z
" style="fill:#40cf40;"/>
   </g>
   <g id="patch_71">
    <path clip-path="url(#p043114b144)" d="M 193.316939 99.762353 
L 195.147354 99.762353 
L 195.147354 87.903529 
L 193.316939 87.903529 
z
" style="fill:#4daf4a;"/>
   </g>
   <g id="patch_72">
    <path clip-path="url(#p043114b144)" d="M 195.147497 98.181176 
L 198.285982 98.181176 
L 198.285982 86.322353 
L 195.147497 86.322353 
z
" style="fill:#40cf40;"/>
   </g>
   <g id="patch_73">
    <path clip-path="url(#p043114b144)" d="M 198.286124 99.762353 
L 199.430721 99.762353 
L 199.430721 87.903529 
L 198.286124 87.903529 
z
" style="fill:#4daf4a;"/>
   </g>
   <g id="patch_74">
    <path clip-path="url(#p043114b144)" d="M 199.430864 98.181176 
L 201.136287 98.181176 
L 201.136287 86.322353 
L 199.430864 86.322353 
z
" style="fill:#40cf40;"/>
   </g>
   <g id="patch_75">
    <path clip-path="url(#p043114b144)" d="M 201.136429 99.762353 
L 203.628005 99.762353 
L 203.628005 87.903529 
L 201.136429 87.903529 
z
" style="fill:#4daf4a;"/>
   </g>
   <g id="patch_76">
    <path clip-path="url(#p043114b144)" d="M 203.63057 98.181176 
L 204.746236 98.181176 
L 204.746236 86.322353 
L 203.63057 86.322353 
z
" style="fill:#40cf40;"/>
   </g>
   <g id="patch_77">
    <path clip-path="url(#p043114b144)" d="M 204.753789 99.762353 
L 207.13149 99.762353 
L 207.13149 87.903529 
L 204.753789 87.903529 
z
" style="fill:#4daf4a;"/>
   </g>
   <g id="patch_78">
    <path clip-path="url(#p043114b144)" d="M 207.131632 98.181176 
L 207.495207 98.181176 
L 207.495207 86.322353 
L 207.131632 86.322353 
z
" style="fill:#40cf40;"/>
   </g>
   <g id="patch_79">
    <path clip-path="url(#p043114b144)" d="M 207.495349 99.762353 
L 209.313935 99.762353 
L 209.313935 87.903529 
L 207.495349 87.903529 
z
" style="fill:#4daf4a;"/>
   </g>
   <g id="patch_80">
    <path clip-path="url(#p043114b144)" d="M 209.324339 98.181176 
L 210.830373 98.181176 
L 210.830373 86.322353 
L 209.324339 86.322353 
z
" style="fill:#40cf40;"/>
   </g>
   <g id="patch_81">
    <path clip-path="url(#p043114b144)" d="M 210.850611 99.762353 
L 214.586977 99.762353 
L 214.586977 87.903529 
L 210.850611 87.903529 
z
" style="fill:#4daf4a;"/>
   </g>
   <g id="patch_82">
    <path clip-path="url(#p043114b144)" d="M 214.58712 98.181176 
L 219.189595 98.181176 
L 219.189595 86.322353 
L 214.58712 86.322353 
z
" style="fill:#40cf40;"/>
   </g>
   <g id="patch_83">
    <path clip-path="url(#p043114b144)" d="M 219.189737 99.762353 
L 228.516543 99.762353 
L 228.516543 87.903529 
L 219.189737 87.903529 
z
" style="fill:#4daf4a;"/>
   </g>
   <g id="patch_84">
    <path clip-path="url(#p043114b144)" d="M 228.604195 98.181176 
L 233.49542 98.181176 
L 233.49542 86.322353 
L 228.604195 86.322353 
z
" style="fill:#40cf40;"/>
   </g>
   <g id="patch_85">
    <path clip-path="url(#p043114b144)" d="M 233.495562 99.762353 
L 234.853943 99.762353 
L 234.853943 87.903529 
L 233.495562 87.903529 
z
" style="fill:#4daf4a;"/>
   </g>
   <g id="patch_86">
    <path clip-path="url(#p043114b144)" d="M 235.011715 98.181176 
L 235.241176 98.181176 
L 235.241176 86.322353 
L 235.011715 86.322353 
z
" style="fill:#40cf40;"/>
   </g>
   <g id="patch_87">
    <path clip-path="url(#p043114b144)" d="M 235.282365 99.762353 
L 235.616723 99.762353 
L 235.616723 87.903529 
L 235.282365 87.903529 
z
" style="fill:#4daf4a;"/>
   </g>
   <g id="patch_88">
    <path clip-path="url(#p043114b144)" d="M 235.62955 98.181176 
L 237.590515 98.181176 
L 237.590515 86.322353 
L 235.62955 86.322353 
z
" style="fill:#40cf40;"/>
   </g>
   <g id="patch_89">
    <path clip-path="url(#p043114b144)" d="M 237.590657 99.762353 
L 242.688682 99.762353 
L 242.688682 87.903529 
L 237.590657 87.903529 
z
" style="fill:#4daf4a;"/>
   </g>
   <g id="patch_90">
    <path clip-path="url(#p043114b144)" d="M 242.721178 98.181176 
L 247.781862 98.181176 
L 247.781862 86.322353 
L 242.721178 86.322353 
z
" style="fill:#40cf40;"/>
   </g>
   <g id="patch_91">
    <path clip-path="url(#p043114b144)" d="M 247.782004 99.762353 
L 249.583059 99.762353 
L 249.583059 87.903529 
L 247.782004 87.903529 
z
" style="fill:#4daf4a;"/>
   </g>
   <g id="patch_92">
    <path clip-path="url(#p043114b144)" d="M 249.611136 98.181176 
L 249.706626 98.181176 
L 249.706626 86.322353 
L 249.611136 86.322353 
z
" style="fill:#40cf40;"/>
   </g>
   <g id="patch_93">
    <path clip-path="url(#p043114b144)" d="M 249.706769 102.529412 
L 251.118595 102.529412 
L 251.118595 90.670588 
L 249.706769 90.670588 
z
" style="fill:#e41a1c;"/>
   </g>
   <g id="patch_94">
    <path clip-path="url(#p043114b144)" d="M 251.152943 98.181176 
L 251.568539 98.181176 
L 251.568539 86.322353 
L 251.152943 86.322353 
z
" style="fill:#40cf40;"/>
   </g>
   <g id="patch_95">
    <path clip-path="url(#p043114b144)" d="M 251.568681 99.762353 
L 259.799348 99.762353 
L 259.799348 87.903529 
L 251.568681 87.903529 
z
" style="fill:#4daf4a;"/>
   </g>
   <g id="patch_96">
    <path clip-path="url(#p043114b144)" d="M 259.97351 98.181176 
L 261.657554 98.181176 
L 261.657554 86.322353 
L 259.97351 86.322353 
z
" style="fill:#40cf40;"/>
   </g>
   <g id="patch_97">
    <path clip-path="url(#p043114b144)" d="M 261.657697 99.762353 
L 261.931625 99.762353 
L 261.931625 87.903529 
L 261.657697 87.903529 
z
" style="fill:#4daf4a;"/>
   </g>
   <g id="patch_98">
    <path clip-path="url(#p043114b144)" d="M 262.005879 98.181176 
L 262.309737 98.181176 
L 262.309737 86.322353 
L 262.005879 86.322353 
z
" style="fill:#40cf40;"/>
   </g>
   <g id="patch_99">
    <path clip-path="url(#p043114b144)" d="M 262.391687 99.762353 
L 264.106659 99.762353 
L 264.106659 87.903529 
L 262.391687 87.903529 
z
" style="fill:#4daf4a;"/>
   </g>
   <g id="patch_100">
    <path clip-path="url(#p043114b144)" d="M 264.25645 98.181176 
L 267.808535 98.181176 
L 267.808535 86.322353 
L 264.25645 86.322353 
z
" style="fill:#40cf40;"/>
   </g>
   <g id="patch_101">
    <path clip-path="url(#p043114b144)" d="M 267.813095 99.762353 
L 271.484044 99.762353 
L 271.484044 87.903529 
L 267.813095 87.903529 
z
" style="fill:#4daf4a;"/>
   </g>
   <g id="patch_102">
    <path clip-path="url(#p043114b144)" d="M 271.484186 98.181176 
L 271.534069 98.181176 
L 271.534069 86.322353 
L 271.484186 86.322353 
z
" style="fill:#40cf40;"/>
   </g>
   <g id="patch_103">
    <path clip-path="url(#p043114b144)" d="M 271.534212 99.762353 
L 277.866623 99.762353 
L 277.866623 87.903529 
L 271.534212 87.903529 
z
" style="fill:#4daf4a;"/>
   </g>
   <g id="patch_104">
    <path clip-path="url(#p043114b144)" d="M 278.016984 98.181176 
L 281.435383 98.181176 
L 281.435383 86.322353 
L 278.016984 86.322353 
z
" style="fill:#40cf40;"/>
   </g>
   <g id="patch_105">
    <path clip-path="url(#p043114b144)" d="M 281.435526 99.762353 
L 281.757341 99.762353 
L 281.757341 87.903529 
L 281.435526 87.903529 
z
" style="fill:#4daf4a;"/>
   </g>
   <g id="patch_106">
    <path clip-path="url(#p043114b144)" d="M 281.768458 98.181176 
L 282.435605 98.181176 
L 282.435605 86.322353 
L 281.768458 86.322353 
z
" style="fill:#40cf40;"/>
   </g>
   <g id="patch_107">
    <path clip-path="url(#p043114b144)" d="M 282.486771 102.529412 
L 282.993153 102.529412 
L 282.993153 90.670588 
L 282.486771 90.670588 
z
" style="fill:#e41a1c;"/>
   </g>
   <g id="patch_108">
    <path clip-path="url(#p043114b144)" d="M 283.320669 98.181176 
L 286.537684 98.181176 
L 286.537684 86.322353 
L 283.320669 86.322353 
z
" style="fill:#40cf40;"/>
   </g>
   <g id="patch_109">
    <path clip-path="url(#p043114b144)" d="M 286.54253 99.762353 
L 287.847037 99.762353 
L 287.847037 87.903529 
L 286.54253 87.903529 
z
" style="fill:#4daf4a;"/>
   </g>
   <g id="patch_110">
    <path clip-path="url(#p043114b144)" d="M 287.931125 98.181176 
L 288.109706 98.181176 
L 288.109706 86.322353 
L 287.931125 86.322353 
z
" style="fill:#40cf40;"/>
   </g>
   <g id="patch_111">
    <path clip-path="url(#p043114b144)" d="M 288.459455 99.762353 
L 297.198072 99.762353 
L 297.198072 87.903529 
L 288.459455 87.903529 
z
" style="fill:#4daf4a;"/>
   </g>
   <g id="patch_112">
    <path clip-path="url(#p043114b144)" d="M 297.328907 98.181176 
L 298.399678 98.181176 
L 298.399678 86.322353 
L 297.328907 86.322353 
z
" style="fill:#40cf40;"/>
   </g>
   <g id="patch_113">
    <path clip-path="url(#p043114b144)" d="M 298.39982 99.762353 
L 299.516056 99.762353 
L 299.516056 87.903529 
L 298.39982 87.903529 
z
" style="fill:#4daf4a;"/>
   </g>
   <g id="patch_114">
    <path clip-path="url(#p043114b144)" d="M 299.516198 98.181176 
L 299.795542 98.181176 
L 299.795542 86.322353 
L 299.516198 86.322353 
z
" style="fill:#40cf40;"/>
   </g>
   <g id="patch_115">
    <path clip-path="url(#p043114b144)" d="M 299.795685 99.762353 
L 300.096407 99.762353 
L 300.096407 87.903529 
L 299.795685 87.903529 
z
" style="fill:#4daf4a;"/>
   </g>
   <g id="patch_116">
    <path clip-path="url(#p043114b144)" d="M 300.099685 98.181176 
L 300.49718 98.181176 
L 300.49718 86.322353 
L 300.099685 86.322353 
z
" style="fill:#40cf40;"/>
   </g>
   <g id="patch_117">
    <path clip-path="url(#p043114b144)" d="M 300.499745 102.529412 
L 302.740197 102.529412 
L 302.740197 90.670588 
L 300.499745 90.670588 
z
" style="fill:#e41a1c;"/>
   </g>
   <g id="patch_118">
    <path clip-path="url(#p043114b144)" d="M 302.909086 98.181176 
L 303.801133 98.181176 
L 303.801133 86.322353 
L 302.909086 86.322353 
z
" style="fill:#40cf40;"/>
   </g>
   <g id="patch_119">
    <path clip-path="url(#p043114b144)" d="M 303.801276 99.762353 
L 308.605562 99.762353 
L 308.605562 87.903529 
L 303.801276 87.903529 
z
" style="fill:#4daf4a;"/>
   </g>
   <g id="patch_120">
    <path clip-path="url(#p043114b144)" d="M 308.605705 98.181176 
L 311.495773 98.181176 
L 311.495773 86.322353 
L 308.605705 86.322353 
z
" style="fill:#40cf40;"/>
   </g>
   <g id="patch_121">
    <path clip-path="url(#p043114b144)" d="M 311.604803 99.762353 
L 311.87474 99.762353 
L 311.87474 87.903529 
L 311.604803 87.903529 
z
" style="fill:#4daf4a;"/>
   </g>
   <g id="patch_122">
    <path clip-path="url(#p043114b144)" d="M 311.874883 100.948235 
L 311.948282 100.948235 
L 311.948282 89.089412 
L 311.874883 89.089412 
z
" style="fill:#b82525;"/>
   </g>
   <g id="patch_123">
    <path clip-path="url(#p043114b144)" d="M 312.166768 99.762353 
L 314.18175 99.762353 
L 314.18175 87.903529 
L 312.166768 87.903529 
z
" style="fill:#4daf4a;"/>
   </g>
   <g id="patch_124">
    <path clip-path="url(#p043114b144)" d="M 314.260565 98.181176 
L 315.926651 98.181176 
L 315.926651 86.322353 
L 314.260565 86.322353 
z
" style="fill:#40cf40;"/>
   </g>
   <g id="patch_125">
    <path clip-path="url(#p043114b144)" d="M 315.926794 99.762353 
L 319.972861 99.762353 
L 319.972861 87.903529 
L 315.926794 87.903529 
z
" style="fill:#4daf4a;"/>
   </g>
   <g id="patch_126">
    <path clip-path="url(#p043114b144)" d="M 319.973004 98.181176 
L 322.430374 98.181176 
L 322.430374 86.322353 
L 319.973004 86.322353 
z
" style="fill:#40cf40;"/>
   </g>
   <g id="patch_127">
    <path clip-path="url(#p043114b144)" d="M 322.434507 99.762353 
L 323.732886 99.762353 
L 323.732886 87.903529 
L 322.434507 87.903529 
z
" style="fill:#4daf4a;"/>
   </g>
   <g id="patch_128">
    <path clip-path="url(#p043114b144)" d="M 323.735594 98.181176 
L 324.577189 98.181176 
L 324.577189 86.322353 
L 323.735594 86.322353 
z
" style="fill:#40cf40;"/>
   </g>
   <g id="patch_129">
    <path clip-path="url(#p043114b144)" d="M 324.577331 99.762353 
L 327.808598 99.762353 
L 327.808598 87.903529 
L 324.577331 87.903529 
z
" style="fill:#4daf4a;"/>
   </g>
   <g id="patch_130">
    <path clip-path="url(#p043114b144)" d="M 327.808741 98.181176 
L 329.923773 98.181176 
L 329.923773 86.322353 
L 327.808741 86.322353 
z
" style="fill:#40cf40;"/>
   </g>
   <g id="patch_131">
    <path clip-path="url(#p043114b144)" d="M 329.923915 99.762353 
L 349.825026 99.762353 
L 349.825026 87.903529 
L 329.923915 87.903529 
z
" style="fill:#4daf4a;"/>
   </g>
   <g id="patch_132">
    <path clip-path="url(#p043114b144)" d="M 349.825168 98.181176 
L 357.453678 98.181176 
L 357.453678 86.322353 
L 349.825168 86.322353 
z
" style="fill:#40cf40;"/>
   </g>
   <g id="patch_133">
    <path clip-path="url(#p043114b144)" d="M 357.453821 99.762353 
L 360.880628 99.762353 
L 360.880628 87.903529 
L 357.453821 87.903529 
z
" style="fill:#4daf4a;"/>
   </g>
   <g id="patch_134">
    <path clip-path="url(#p043114b144)" d="M 360.968422 100.948235 
L 362.796842 100.948235 
L 362.796842 89.089412 
L 360.968422 89.089412 
z
" style="fill:#b82525;"/>
   </g>
   <g id="patch_135">
    <path clip-path="url(#p043114b144)" d="M 362.799407 99.762353 
L 369.598864 99.762353 
L 369.598864 87.903529 
L 362.799407 87.903529 
z
" style="fill:#4daf4a;"/>
   </g>
   <g id="patch_136">
    <path clip-path="url(#p043114b144)" d="M 369.62409 98.181176 
L 373.375992 98.181176 
L 373.375992 86.322353 
L 369.62409 86.322353 
z
" style="fill:#40cf40;"/>
   </g>
   <g id="patch_137">
    <path clip-path="url(#p043114b144)" d="M 373.514381 99.762353 
L 373.769924 99.762353 
L 373.769924 87.903529 
L 373.514381 87.903529 
z
" style="fill:#4daf4a;"/>
   </g>
   <g id="patch_138">
    <path clip-path="url(#p043114b144)" d="M 373.937957 98.181176 
L 377.004469 98.181176 
L 377.004469 86.322353 
L 373.937957 86.322353 
z
" style="fill:#40cf40;"/>
   </g>
   <g id="patch_139">
    <path clip-path="url(#p043114b144)" d="M 377.004611 99.762353 
L 378.445512 99.762353 
L 378.445512 87.903529 
L 377.004611 87.903529 
z
" style="fill:#4daf4a;"/>
   </g>
   <g id="patch_140">
    <path clip-path="url(#p043114b144)" d="M 378.594876 98.181176 
L 383.410849 98.181176 
L 383.410849 86.322353 
L 378.594876 86.322353 
z
" style="fill:#40cf40;"/>
   </g>
   <g id="patch_141">
    <path clip-path="url(#p043114b144)" d="M 383.410992 99.762353 
L 385.817767 99.762353 
L 385.817767 87.903529 
L 383.410992 87.903529 
z
" style="fill:#4daf4a;"/>
   </g>
   <g id="patch_142">
    <path clip-path="url(#p043114b144)" d="M 385.865654 98.181176 
L 386.29878 98.181176 
L 386.29878 86.322353 
L 385.865654 86.322353 
z
" style="fill:#40cf40;"/>
   </g>
   <g id="patch_143">
    <path clip-path="url(#p043114b144)" d="M 386.298922 99.762353 
L 388.19732 99.762353 
L 388.19732 87.903529 
L 386.298922 87.903529 
z
" style="fill:#4daf4a;"/>
   </g>
   <g id="patch_144">
    <path clip-path="url(#p043114b144)" d="M 388.355092 98.181176 
L 391.7514 98.181176 
L 391.7514 86.322353 
L 388.355092 86.322353 
z
" style="fill:#40cf40;"/>
   </g>
   <g id="patch_145">
    <path clip-path="url(#p043114b144)" d="M 391.781473 99.762353 
L 400.44726 99.762353 
L 400.44726 87.903529 
L 391.781473 87.903529 
z
" style="fill:#4daf4a;"/>
   </g>
   <g id="patch_146">
    <path clip-path="url(#p043114b144)" d="M 400.447403 98.181176 
L 405.121851 98.181176 
L 405.121851 86.322353 
L 400.447403 86.322353 
z
" style="fill:#40cf40;"/>
   </g>
   <g id="patch_147">
    <path clip-path="url(#p043114b144)" d="M 405.27036 99.762353 
L 405.449225 99.762353 
L 405.449225 87.903529 
L 405.27036 87.903529 
z
" style="fill:#4daf4a;"/>
   </g>
   <g id="patch_148">
    <path clip-path="url(#p043114b144)" d="M 405.449368 98.181176 
L 407.356887 98.181176 
L 407.356887 86.322353 
L 405.449368 86.322353 
z
" style="fill:#40cf40;"/>
   </g>
   <g id="patch_149">
    <path clip-path="url(#p043114b144)" d="M 407.401354 99.762353 
L 413.434041 99.762353 
L 413.434041 87.903529 
L 407.401354 87.903529 
z
" style="fill:#4daf4a;"/>
   </g>
   <g id="patch_150">
    <path clip-path="url(#p043114b144)" d="M 413.434183 98.181176 
L 413.767971 98.181176 
L 413.767971 86.322353 
L 413.434183 86.322353 
z
" style="fill:#40cf40;"/>
   </g>
   <g id="patch_151">
    <path clip-path="url(#p043114b144)" d="M 413.768113 99.762353 
L 414.927818 99.762353 
L 414.927818 87.903529 
L 413.768113 87.903529 
z
" style="fill:#4daf4a;"/>
   </g>
   <g id="patch_152">
    <path clip-path="url(#p043114b144)" d="M 414.92796 100.948235 
L 431.087431 100.948235 
L 431.087431 89.089412 
L 414.92796 89.089412 
z
" style="fill:#b82525;"/>
   </g>
   <g id="patch_153">
    <path clip-path="url(#p043114b144)" d="M 431.087574 99.762353 
L 431.198171 99.762353 
L 431.198171 87.903529 
L 431.087574 87.903529 
z
" style="fill:#4daf4a;"/>
   </g>
   <g id="patch_154">
    <path clip-path="url(#p043114b144)" d="M 431.211141 98.181176 
L 437.239837 98.181176 
L 437.239837 86.322353 
L 431.211141 86.322353 
z
" style="fill:#40cf40;"/>
   </g>
   <g id="patch_155">
    <path clip-path="url(#p043114b144)" d="M 437.409723 99.762353 
L 438.199725 99.762353 
L 438.199725 87.903529 
L 437.409723 87.903529 
z
" style="fill:#4daf4a;"/>
   </g>
   <g id="patch_156">
    <path clip-path="url(#p043114b144)" d="M 438.251033 98.181176 
L 442.254914 98.181176 
L 442.254914 86.322353 
L 438.251033 86.322353 
z
" style="fill:#40cf40;"/>
   </g>
   <g id="patch_157">
    <path clip-path="url(#p043114b144)" d="M 442.255056 99.762353 
L 443.887222 99.762353 
L 443.887222 87.903529 
L 442.255056 87.903529 
z
" style="fill:#4daf4a;"/>
   </g>
   <g id="patch_158">
    <path clip-path="url(#p043114b144)" d="M 443.887365 98.181176 
L 444.917802 98.181176 
L 444.917802 86.322353 
L 443.887365 86.322353 
z
" style="fill:#40cf40;"/>
   </g>
   <g id="patch_159">
    <path clip-path="url(#p043114b144)" d="M 444.920224 99.762353 
L 449.131475 99.762353 
L 449.131475 87.903529 
L 444.920224 87.903529 
z
" style="fill:#4daf4a;"/>
   </g>
   <g id="patch_160">
    <path clip-path="url(#p043114b144)" d="M 449.131618 98.181176 
L 457.295584 98.181176 
L 457.295584 86.322353 
L 449.131618 86.322353 
z
" style="fill:#40cf40;"/>
   </g>
   <g id="patch_161">
    <path clip-path="url(#p043114b144)" d="M 457.295727 99.762353 
L 458.338135 99.762353 
L 458.338135 87.903529 
L 457.295727 87.903529 
z
" style="fill:#4daf4a;"/>
   </g>
   <g id="patch_162">
    <path clip-path="url(#p043114b144)" d="M 458.342696 98.181176 
L 461.451536 98.181176 
L 461.451536 86.322353 
L 458.342696 86.322353 
z
" style="fill:#40cf40;"/>
   </g>
   <g id="patch_163">
    <path clip-path="url(#p043114b144)" d="M 461.451679 99.762353 
L 465.745593 99.762353 
L 465.745593 87.903529 
L 461.451679 87.903529 
z
" style="fill:#4daf4a;"/>
   </g>
   <g id="patch_164">
    <path clip-path="url(#p043114b144)" d="M 465.745735 98.181176 
L 467.414815 98.181176 
L 467.414815 86.322353 
L 465.745735 86.322353 
z
" style="fill:#40cf40;"/>
   </g>
   <g id="patch_165">
    <path clip-path="url(#p043114b144)" d="M 468.177024 99.762353 
L 472.24447 99.762353 
L 472.24447 87.903529 
L 468.177024 87.903529 
z
" style="fill:#4daf4a;"/>
   </g>
   <g id="patch_166">
    <path clip-path="url(#p043114b144)" d="M 472.262998 100.948235 
L 473.484985 100.948235 
L 473.484985 89.089412 
L 472.262998 89.089412 
z
" style="fill:#b82525;"/>
   </g>
   <g id="patch_167">
    <path clip-path="url(#p043114b144)" d="M 473.655584 99.762353 
L 473.769032 99.762353 
L 473.769032 87.903529 
L 473.655584 87.903529 
z
" style="fill:#4daf4a;"/>
   </g>
   <g id="patch_168">
    <path clip-path="url(#p043114b144)" d="M 473.772167 100.948235 
L 474.770251 100.948235 
L 474.770251 89.089412 
L 473.772167 89.089412 
z
" style="fill:#b82525;"/>
   </g>
   <g id="patch_169">
    <path clip-path="url(#p043114b144)" d="M 474.770394 99.762353 
L 474.853912 99.762353 
L 474.853912 87.903529 
L 474.770394 87.903529 
z
" style="fill:#4daf4a;"/>
   </g>
   <g id="patch_170">
    <path clip-path="url(#p043114b144)" d="M 474.87187 98.181176 
L 475.514218 98.181176 
L 475.514218 86.322353 
L 474.87187 86.322353 
z
" style="fill:#40cf40;"/>
   </g>
   <g id="patch_171">
    <path clip-path="url(#p043114b144)" d="M 475.528328 99.762353 
L 480.482405 99.762353 
L 480.482405 87.903529 
L 475.528328 87.903529 
z
" style="fill:#4daf4a;"/>
   </g>
   <g id="patch_172">
    <path clip-path="url(#p043114b144)" d="M 480.584451 98.181176 
L 488.391684 98.181176 
L 488.391684 86.322353 
L 480.584451 86.322353 
z
" style="fill:#40cf40;"/>
   </g>
   <g id="patch_173">
    <path clip-path="url(#p043114b144)" d="M 488.391827 99.762353 
L 492.417371 99.762353 
L 492.417371 87.903529 
L 488.391827 87.903529 
z
" style="fill:#4daf4a;"/>
   </g>
   <g id="patch_174">
    <path clip-path="url(#p043114b144)" d="M 492.422074 98.181176 
L 498.759759 98.181176 
L 498.759759 86.322353 
L 492.422074 86.322353 
z
" style="fill:#40cf40;"/>
   </g>
   <g id="patch_175">
    <path clip-path="url(#p043114b144)" d="M 498.759901 99.762353 
L 498.95701 99.762353 
L 498.95701 87.903529 
L 498.759901 87.903529 
z
" style="fill:#4daf4a;"/>
   </g>
   <g id="patch_176">
    <path clip-path="url(#p043114b144)" d="M 498.97283 98.181176 
L 502.629954 98.181176 
L 502.629954 86.322353 
L 498.97283 86.322353 
z
" style="fill:#40cf40;"/>
   </g>
   <g id="patch_177">
    <path clip-path="url(#p043114b144)" d="M 502.630096 99.762353 
L 505.948159 99.762353 
L 505.948159 87.903529 
L 502.630096 87.903529 
z
" style="fill:#4daf4a;"/>
   </g>
   <g id="patch_178">
    <path clip-path="url(#p043114b144)" d="M 506.184176 98.181176 
L 508.711525 98.181176 
L 508.711525 86.322353 
L 506.184176 86.322353 
z
" style="fill:#40cf40;"/>
   </g>
   <g id="patch_179">
    <path clip-path="url(#p043114b144)" d="M 508.711668 99.762353 
L 509.8537 99.762353 
L 509.8537 87.903529 
L 508.711668 87.903529 
z
" style="fill:#4daf4a;"/>
   </g>
   <g id="patch_180">
    <path clip-path="url(#p043114b144)" d="M 509.85769 98.181176 
L 515.031537 98.181176 
L 515.031537 86.322353 
L 509.85769 86.322353 
z
" style="fill:#40cf40;"/>
   </g>
   <g id="patch_181">
    <path clip-path="url(#p043114b144)" d="M 515.03168 99.762353 
L 519.861763 99.762353 
L 519.861763 87.903529 
L 515.03168 87.903529 
z
" style="fill:#4daf4a;"/>
   </g>
   <g id="patch_182">
    <path clip-path="url(#p043114b144)" d="M 519.861905 98.181176 
L 522.193856 98.181176 
L 522.193856 86.322353 
L 519.861905 86.322353 
z
" style="fill:#40cf40;"/>
   </g>
   <g id="patch_183">
    <path clip-path="url(#p043114b144)" d="M 522.193999 99.762353 
L 522.773922 99.762353 
L 522.773922 87.903529 
L 522.193999 87.903529 
z
" style="fill:#4daf4a;"/>
   </g>
   <g id="patch_184">
    <path clip-path="url(#p043114b144)" d="M 522.774065 98.181176 
L 523.525158 98.181176 
L 523.525158 86.322353 
L 522.774065 86.322353 
z
" style="fill:#40cf40;"/>
   </g>
   <g id="patch_185">
    <path clip-path="url(#p043114b144)" d="M 523.5253 99.762353 
L 525.014802 99.762353 
L 525.014802 87.903529 
L 523.5253 87.903529 
z
" style="fill:#4daf4a;"/>
   </g>
   <g id="patch_186">
    <path clip-path="url(#p043114b144)" d="M 525.164878 98.181176 
L 526.368051 98.181176 
L 526.368051 86.322353 
L 525.164878 86.322353 
z
" style="fill:#40cf40;"/>
   </g>
   <g id="patch_187">
    <path clip-path="url(#p043114b144)" d="M 526.368194 99.762353 
L 527.921545 99.762353 
L 527.921545 87.903529 
L 526.368194 87.903529 
z
" style="fill:#4daf4a;"/>
   </g>
   <g id="patch_188">
    <path clip-path="url(#p043114b144)" d="M 527.93765 98.181176 
L 533.078717 98.181176 
L 533.078717 86.322353 
L 527.93765 86.322353 
z
" style="fill:#40cf40;"/>
   </g>
   <g id="patch_189">
    <path clip-path="url(#p043114b144)" d="M 533.158102 99.762353 
L 534.583896 99.762353 
L 534.583896 87.903529 
L 533.158102 87.903529 
z
" style="fill:#4daf4a;"/>
   </g>
   <g id="patch_190">
    <path clip-path="url(#p043114b144)" d="M 534.584038 98.181176 
L 537.185356 98.181176 
L 537.185356 86.322353 
L 534.584038 86.322353 
z
" style="fill:#40cf40;"/>
   </g>
   <g id="patch_191">
    <path clip-path="url(#p043114b144)" d="M 537.185499 99.762353 
L 539.445476 99.762353 
L 539.445476 87.903529 
L 537.185499 87.903529 
z
" style="fill:#4daf4a;"/>
   </g>
   <g id="patch_192">
    <path clip-path="url(#p043114b144)" d="M 539.445619 98.181176 
L 542.840787 98.181176 
L 542.840787 86.322353 
L 539.445619 86.322353 
z
" style="fill:#40cf40;"/>
   </g>
   <g id="patch_193">
    <path clip-path="url(#p043114b144)" d="M 542.840929 99.762353 
L 543.661858 99.762353 
L 543.661858 87.903529 
L 542.840929 87.903529 
z
" style="fill:#4daf4a;"/>
   </g>
   <g id="patch_194">
    <path clip-path="url(#p043114b144)" d="M 543.662 98.181176 
L 543.790983 98.181176 
L 543.790983 86.322353 
L 543.662 86.322353 
z
" style="fill:#40cf40;"/>
   </g>
   <g id="patch_195">
    <path clip-path="url(#p043114b144)" d="M 543.794119 99.762353 
L 544.908073 99.762353 
L 544.908073 87.903529 
L 543.794119 87.903529 
z
" style="fill:#4daf4a;"/>
   </g>
   <g id="patch_196">
    <path clip-path="url(#p043114b144)" d="M 544.943989 98.181176 
L 553.47381 98.181176 
L 553.47381 86.322353 
L 544.943989 86.322353 
z
" style="fill:#40cf40;"/>
   </g>
   <g id="patch_197">
    <path clip-path="url(#p043114b144)" d="M 553.48621 99.762353 
L 553.558041 99.762353 
L 553.558041 87.903529 
L 553.48621 87.903529 
z
" style="fill:#4daf4a;"/>
   </g>
   <g id="patch_198">
    <path clip-path="url(#p043114b144)" d="M 553.558183 98.181176 
L 558.566134 98.181176 
L 558.566134 86.322353 
L 553.558183 86.322353 
z
" style="fill:#40cf40;"/>
   </g>
   <g id="patch_199">
    <path clip-path="url(#p043114b144)" d="M 558.715783 99.762353 
L 562.34825 99.762353 
L 562.34825 87.903529 
L 558.715783 87.903529 
z
" style="fill:#4daf4a;"/>
   </g>
   <g id="patch_200">
    <path clip-path="url(#p043114b144)" d="M 562.356944 98.181176 
L 566.82103 98.181176 
L 566.82103 86.322353 
L 562.356944 86.322353 
z
" style="fill:#40cf40;"/>
   </g>
   <g id="patch_201">
    <path clip-path="url(#p043114b144)" d="M 567.574118 99.762353 
L 584.552522 99.762353 
L 584.552522 87.903529 
L 567.574118 87.903529 
z
" style="fill:#4daf4a;"/>
   </g>
   <g id="patch_202">
    <path clip-path="url(#p043114b144)" d="M 584.552665 98.181176 
L 586.792547 98.181176 
L 586.792547 86.322353 
L 584.552665 86.322353 
z
" style="fill:#40cf40;"/>
   </g>
   <g id="patch_203">
    <path clip-path="url(#p043114b144)" d="M 586.792689 99.762353 
L 589.618337 99.762353 
L 589.618337 87.903529 
L 586.792689 87.903529 
z
" style="fill:#4daf4a;"/>
   </g>
   <g id="patch_204">
    <path clip-path="url(#p043114b144)" d="M 589.706559 98.181176 
L 591.760876 98.181176 
L 591.760876 86.322353 
L 589.706559 86.322353 
z
" style="fill:#40cf40;"/>
   </g>
   <g id="patch_205">
    <path clip-path="url(#p043114b144)" d="M 591.761019 99.762353 
L 594.721636 99.762353 
L 594.721636 87.903529 
L 591.761019 87.903529 
z
" style="fill:#4daf4a;"/>
   </g>
   <g id="patch_206">
    <path clip-path="url(#p043114b144)" d="M 594.721778 98.181176 
L 594.855749 98.181176 
L 594.855749 86.322353 
L 594.721778 86.322353 
z
" style="fill:#40cf40;"/>
   </g>
   <g id="patch_207">
    <path clip-path="url(#p043114b144)" d="M 594.865869 99.762353 
L 595.089771 99.762353 
L 595.089771 87.903529 
L 594.865869 87.903529 
z
" style="fill:#4daf4a;"/>
   </g>
   <g id="patch_208">
    <path clip-path="url(#p043114b144)" d="M 595.212483 98.181176 
L 595.338615 98.181176 
L 595.338615 86.322353 
L 595.212483 86.322353 
z
" style="fill:#40cf40;"/>
   </g>
   <g id="patch_209">
    <path clip-path="url(#p043114b144)" d="M 595.619812 99.762353 
L 597.399916 99.762353 
L 597.399916 87.903529 
L 595.619812 87.903529 
z
" style="fill:#4daf4a;"/>
   </g>
   <g id="patch_210">
    <path clip-path="url(#p043114b144)" d="M 597.400059 98.181176 
L 597.562819 98.181176 
L 597.562819 86.322353 
L 597.400059 86.322353 
z
" style="fill:#40cf40;"/>
   </g>
   <g id="patch_211">
    <path clip-path="url(#p043114b144)" d="M 597.56738 99.762353 
L 598.833264 99.762353 
L 598.833264 87.903529 
L 597.56738 87.903529 
z
" style="fill:#4daf4a;"/>
   </g>
   <g id="patch_212">
    <path clip-path="url(#p043114b144)" d="M 598.866329 98.181176 
L 599.213371 98.181176 
L 599.213371 86.322353 
L 598.866329 86.322353 
z
" style="fill:#40cf40;"/>
   </g>
   <g id="patch_213">
    <path clip-path="url(#p043114b144)" d="M 599.213513 99.762353 
L 599.392521 99.762353 
L 599.392521 87.903529 
L 599.213513 87.903529 
z
" style="fill:#4daf4a;"/>
   </g>
   <g id="patch_214">
    <path clip-path="url(#p043114b144)" d="M 599.44554 98.181176 
L 601.415911 98.181176 
L 601.415911 86.322353 
L 599.44554 86.322353 
z
" style="fill:#40cf40;"/>
   </g>
   <g id="patch_215">
    <path clip-path="url(#p043114b144)" d="M 601.416054 102.529412 
L 607.070914 102.529412 
L 607.070914 90.670588 
L 601.416054 90.670588 
z
" style="fill:#e41a1c;"/>
   </g>
   <g id="patch_216">
    <path clip-path="url(#p043114b144)" d="M 607.074619 98.181176 
L 612.076014 98.181176 
L 612.076014 86.322353 
L 607.074619 86.322353 
z
" style="fill:#40cf40;"/>
   </g>
   <g id="patch_217">
    <path clip-path="url(#p043114b144)" d="M 612.076157 99.762353 
L 614.062919 99.762353 
L 614.062919 87.903529 
L 612.076157 87.903529 
z
" style="fill:#4daf4a;"/>
   </g>
   <g id="patch_218">
    <path clip-path="url(#p043114b144)" d="M 614.063061 98.181176 
L 615.083094 98.181176 
L 615.083094 86.322353 
L 614.063061 86.322353 
z
" style="fill:#40cf40;"/>
   </g>
   <g id="patch_219">
    <path clip-path="url(#p043114b144)" d="M 615.592611 102.529412 
L 616.027447 102.529412 
L 616.027447 90.670588 
L 615.592611 90.670588 
z
" style="fill:#e41a1c;"/>
   </g>
   <g id="patch_220">
    <path clip-path="url(#p043114b144)" d="M 616.027589 98.181176 
L 618.526434 98.181176 
L 618.526434 86.322353 
L 616.027589 86.322353 
z
" style="fill:#40cf40;"/>
   </g>
   <g id="patch_221">
    <path clip-path="url(#p043114b144)" d="M 618.555651 99.762353 
L 628.911469 99.762353 
L 628.911469 87.903529 
L 618.555651 87.903529 
z
" style="fill:#4daf4a;"/>
   </g>
   <g id="patch_222">
    <path clip-path="url(#p043114b144)" d="M 628.911611 98.181176 
L 632.343122 98.181176 
L 632.343122 86.322353 
L 628.911611 86.322353 
z
" style="fill:#40cf40;"/>
   </g>
   <g id="patch_223">
    <path clip-path="url(#p043114b144)" d="M 632.343265 99.762353 
L 634.142182 99.762353 
L 634.142182 87.903529 
L 632.343265 87.903529 
z
" style="fill:#4daf4a;"/>
   </g>
   <g id="patch_224">
    <path clip-path="url(#p043114b144)" d="M 634.142325 98.181176 
L 634.87603 98.181176 
L 634.87603 86.322353 
L 634.142325 86.322353 
z
" style="fill:#40cf40;"/>
   </g>
   <g id="patch_225">
    <path clip-path="url(#p043114b144)" d="M 634.876172 99.762353 
L 635.94053 99.762353 
L 635.94053 87.903529 
L 634.876172 87.903529 
z
" style="fill:#4daf4a;"/>
   </g>
   <g id="patch_226">
    <path clip-path="url(#p043114b144)" d="M 635.995686 98.181176 
L 640.64334 98.181176 
L 640.64334 86.322353 
L 635.995686 86.322353 
z
" style="fill:#40cf40;"/>
   </g>
   <g id="patch_227">
    <path clip-path="url(#p043114b144)" d="M 641.406547 99.762353 
L 646.741587 99.762353 
L 646.741587 87.903529 
L 641.406547 87.903529 
z
" style="fill:#4daf4a;"/>
   </g>
   <g id="patch_228">
    <path clip-path="url(#p043114b144)" d="M 646.74173 98.181176 
L 648.506014 98.181176 
L 648.506014 86.322353 
L 646.74173 86.322353 
z
" style="fill:#40cf40;"/>
   </g>
   <g id="patch_229">
    <path clip-path="url(#p043114b144)" d="M 648.506156 99.762353 
L 652.897698 99.762353 
L 652.897698 87.903529 
L 648.506156 87.903529 
z
" style="fill:#4daf4a;"/>
   </g>
   <g id="patch_230">
    <path clip-path="url(#p043114b144)" d="M 652.897841 98.181176 
L 654.032319 98.181176 
L 654.032319 86.322353 
L 652.897841 86.322353 
z
" style="fill:#40cf40;"/>
   </g>
   <g id="patch_231">
    <path clip-path="url(#p043114b144)" d="M 654.782414 99.762353 
L 656.261226 99.762353 
L 656.261226 87.903529 
L 654.782414 87.903529 
z
" style="fill:#4daf4a;"/>
   </g>
   <g id="patch_232">
    <path clip-path="url(#p043114b144)" d="M 656.264504 98.181176 
L 657.293088 98.181176 
L 657.293088 86.322353 
L 656.264504 86.322353 
z
" style="fill:#40cf40;"/>
   </g>
   <g id="patch_233">
    <path clip-path="url(#p043114b144)" d="M 657.294228 99.762353 
L 659.031291 99.762353 
L 659.031291 87.903529 
L 657.294228 87.903529 
z
" style="fill:#4daf4a;"/>
   </g>
   <g id="patch_234">
    <path clip-path="url(#p043114b144)" d="M 659.031433 98.181176 
L 662.434297 98.181176 
L 662.434297 86.322353 
L 659.031433 86.322353 
z
" style="fill:#40cf40;"/>
   </g>
   <g id="patch_235">
    <path clip-path="url(#p043114b144)" d="M 662.43672 99.762353 
L 666.928598 99.762353 
L 666.928598 87.903529 
L 662.43672 87.903529 
z
" style="fill:#4daf4a;"/>
   </g>
   <g id="patch_236">
    <path clip-path="url(#p043114b144)" d="M 666.933158 98.181176 
L 667.701354 98.181176 
L 667.701354 86.322353 
L 666.933158 86.322353 
z
" style="fill:#40cf40;"/>
   </g>
   <g id="patch_237">
    <path clip-path="url(#p043114b144)" d="M 667.701496 99.762353 
L 668.628889 99.762353 
L 668.628889 87.903529 
L 667.701496 87.903529 
z
" style="fill:#4daf4a;"/>
   </g>
   <g id="patch_238">
    <path clip-path="url(#p043114b144)" d="M 668.629032 98.181176 
L 670.865493 98.181176 
L 670.865493 86.322353 
L 668.629032 86.322353 
z
" style="fill:#40cf40;"/>
   </g>
   <g id="patch_239">
    <path clip-path="url(#p043114b144)" d="M 670.867061 99.762353 
L 672.690492 99.762353 
L 672.690492 87.903529 
L 670.867061 87.903529 
z
" style="fill:#4daf4a;"/>
   </g>
   <g id="patch_240">
    <path clip-path="url(#p043114b144)" d="M 672.941759 98.181176 
L 673.021429 98.181176 
L 673.021429 86.322353 
L 672.941759 86.322353 
z
" style="fill:#40cf40;"/>
   </g>
   <g id="patch_241">
    <path clip-path="url(#p043114b144)" d="M 673.47636 99.762353 
L 673.993859 99.762353 
L 673.993859 87.903529 
L 673.47636 87.903529 
z
" style="fill:#4daf4a;"/>
   </g>
   <g id="patch_242">
    <path clip-path="url(#p043114b144)" d="M 674.210065 98.181176 
L 678.621845 98.181176 
L 678.621845 86.322353 
L 674.210065 86.322353 
z
" style="fill:#40cf40;"/>
   </g>
   <g id="patch_243">
    <path clip-path="url(#p043114b144)" d="M 678.623128 99.762353 
L 678.865558 99.762353 
L 678.865558 87.903529 
L 678.623128 87.903529 
z
" style="fill:#4daf4a;"/>
   </g>
   <g id="patch_244">
    <path clip-path="url(#p043114b144)" d="M 679.348139 98.181176 
L 680.131157 98.181176 
L 680.131157 86.322353 
L 679.348139 86.322353 
z
" style="fill:#40cf40;"/>
   </g>
   <g id="patch_245">
    <path clip-path="url(#p043114b144)" d="M 680.1313 99.762353 
L 681.688214 99.762353 
L 681.688214 87.903529 
L 680.1313 87.903529 
z
" style="fill:#4daf4a;"/>
   </g>
   <g id="patch_246">
    <path clip-path="url(#p043114b144)" d="M 681.688356 98.181176 
L 682.536222 98.181176 
L 682.536222 86.322353 
L 681.688356 86.322353 
z
" style="fill:#40cf40;"/>
   </g>
   <g id="patch_247">
    <path clip-path="url(#p043114b144)" d="M 682.536364 99.762353 
L 682.683163 99.762353 
L 682.683163 87.903529 
L 682.536364 87.903529 
z
" style="fill:#4daf4a;"/>
   </g>
   <g id="patch_248">
    <path clip-path="url(#p043114b144)" d="M 682.683305 98.181176 
L 683.927383 98.181176 
L 683.927383 86.322353 
L 682.683305 86.322353 
z
" style="fill:#40cf40;"/>
   </g>
   <g id="patch_249">
    <path clip-path="url(#p043114b144)" d="M 683.927525 99.762353 
L 684.531108 99.762353 
L 684.531108 87.903529 
L 683.927525 87.903529 
z
" style="fill:#4daf4a;"/>
   </g>
   <g id="patch_250">
    <path clip-path="url(#p043114b144)" d="M 684.53125 98.181176 
L 691.165809 98.181176 
L 691.165809 86.322353 
L 684.53125 86.322353 
z
" style="fill:#40cf40;"/>
   </g>
   <g id="patch_251">
    <path clip-path="url(#p043114b144)" d="M 691.208423 99.762353 
L 693.289249 99.762353 
L 693.289249 87.903529 
L 691.208423 87.903529 
z
" style="fill:#4daf4a;"/>
   </g>
   <g id="patch_252">
    <path clip-path="url(#p043114b144)" d="M 693.293525 98.181176 
L 693.781807 98.181176 
L 693.781807 86.322353 
L 693.293525 86.322353 
z
" style="fill:#40cf40;"/>
   </g>
   <g id="patch_253">
    <path clip-path="url(#p043114b144)" d="M 693.781949 102.529412 
L 694.289044 102.529412 
L 694.289044 90.670588 
L 693.781949 90.670588 
z
" style="fill:#e41a1c;"/>
   </g>
   <g id="patch_254">
    <path clip-path="url(#p043114b144)" d="M 694.295457 98.181176 
L 695.423664 98.181176 
L 695.423664 86.322353 
L 694.295457 86.322353 
z
" style="fill:#40cf40;"/>
   </g>
   <g id="patch_255">
    <path clip-path="url(#p043114b144)" d="M 695.423807 99.762353 
L 695.49236 99.762353 
L 695.49236 87.903529 
L 695.423807 87.903529 
z
" style="fill:#4daf4a;"/>
   </g>
   <g id="patch_256">
    <path clip-path="url(#p043114b144)" d="M 695.492503 98.181176 
L 698.346086 98.181176 
L 698.346086 86.322353 
L 695.492503 86.322353 
z
" style="fill:#40cf40;"/>
   </g>
   <g id="patch_257">
    <path clip-path="url(#p043114b144)" d="M 698.346228 99.762353 
L 699.38037 99.762353 
L 699.38037 87.903529 
L 698.346228 87.903529 
z
" style="fill:#4daf4a;"/>
   </g>
   <g id="patch_258">
    <path clip-path="url(#p043114b144)" d="M 699.408162 98.181176 
L 702.18236 98.181176 
L 702.18236 86.322353 
L 699.408162 86.322353 
z
" style="fill:#40cf40;"/>
   </g>
   <g id="patch_259">
    <path clip-path="url(#p043114b144)" d="M 702.182503 102.529412 
L 704.911663 102.529412 
L 704.911663 90.670588 
L 702.182503 90.670588 
z
" style="fill:#e41a1c;"/>
   </g>
   <g id="patch_260">
    <path clip-path="url(#p043114b144)" d="M 704.930334 98.181176 
L 707.296633 98.181176 
L 707.296633 86.322353 
L 704.930334 86.322353 
z
" style="fill:#40cf40;"/>
   </g>
   <g id="patch_261">
    <path clip-path="url(#p043114b144)" d="M 707.296775 99.762353 
L 707.708237 99.762353 
L 707.708237 87.903529 
L 707.296775 87.903529 
z
" style="fill:#4daf4a;"/>
   </g>
   <g id="patch_262">
    <path clip-path="url(#p043114b144)" d="M 707.713653 98.181176 
L 708.006679 98.181176 
L 708.006679 86.322353 
L 707.713653 86.322353 
z
" style="fill:#40cf40;"/>
   </g>
   <g id="patch_263">
    <path clip-path="url(#p043114b144)" d="M 708.010527 99.762353 
L 711.910652 99.762353 
L 711.910652 87.903529 
L 708.010527 87.903529 
z
" style="fill:#4daf4a;"/>
   </g>
   <g id="patch_264">
    <path clip-path="url(#p043114b144)" d="M 711.910794 98.181176 
L 718.616187 98.181176 
L 718.616187 86.322353 
L 711.910794 86.322353 
z
" style="fill:#40cf40;"/>
   </g>
   <g id="patch_265">
    <path clip-path="url(#p043114b144)" d="M 718.616329 99.762353 
L 719.9911 99.762353 
L 719.9911 87.903529 
L 718.616329 87.903529 
z
" style="fill:#4daf4a;"/>
   </g>
   <g id="patch_266">
    <path clip-path="url(#p043114b144)" d="M 720.159134 98.181176 
L 720.766564 98.181176 
L 720.766564 86.322353 
L 720.159134 86.322353 
z
" style="fill:#40cf40;"/>
   </g>
   <g id="patch_267">
    <path clip-path="url(#p043114b144)" d="M 720.766707 99.762353 
L 721.306154 99.762353 
L 721.306154 87.903529 
L 720.766707 87.903529 
z
" style="fill:#4daf4a;"/>
   </g>
   <g id="patch_268">
    <path clip-path="url(#p043114b144)" d="M 721.306296 98.181176 
L 721.476753 98.181176 
L 721.476753 86.322353 
L 721.306296 86.322353 
z
" style="fill:#40cf40;"/>
   </g>
   <g id="patch_269">
    <path clip-path="url(#p043114b144)" d="M 721.476896 102.529412 
L 721.523073 102.529412 
L 721.523073 90.670588 
L 721.476896 90.670588 
z
" style="fill:#e41a1c;"/>
   </g>
   <g id="patch_270">
    <path clip-path="url(#p043114b144)" d="M 721.556281 98.181176 
L 722.900124 98.181176 
L 722.900124 86.322353 
L 721.556281 86.322353 
z
" style="fill:#40cf40;"/>
   </g>
   <g id="patch_271">
    <path clip-path="url(#p043114b144)" d="M 722.963546 99.762353 
L 730.52336 99.762353 
L 730.52336 87.903529 
L 722.963546 87.903529 
z
" style="fill:#4daf4a;"/>
   </g>
   <g id="patch_272">
    <path clip-path="url(#p043114b144)" d="M 730.523503 98.181176 
L 734.429898 98.181176 
L 734.429898 86.322353 
L 730.523503 86.322353 
z
" style="fill:#40cf40;"/>
   </g>
   <g id="patch_273">
    <path clip-path="url(#p043114b144)" d="M 734.430041 99.762353 
L 735.357861 99.762353 
L 735.357861 87.903529 
L 734.430041 87.903529 
z
" style="fill:#4daf4a;"/>
   </g>
   <g id="patch_274">
    <path clip-path="url(#p043114b144)" d="M 735.391639 98.181176 
L 736.528113 98.181176 
L 736.528113 86.322353 
L 735.391639 86.322353 
z
" style="fill:#40cf40;"/>
   </g>
   <g id="patch_275">
    <path clip-path="url(#p043114b144)" d="M 736.568304 99.762353 
L 740.426812 99.762353 
L 740.426812 87.903529 
L 736.568304 87.903529 
z
" style="fill:#4daf4a;"/>
   </g>
   <g id="line2d_1">
    <path clip-path="url(#p043114b144)" d="M 78.888867 59.047059 
L 740.428095 59.047059 
" style="fill:none;stroke:#000000;stroke-linecap:square;stroke-width:0.5;"/>
   </g>
   <g id="line2d_2">
    <path clip-path="url(#p043114b144)" d="M 78.888867 7.658824 
L 78.888867 102.529412 
" style="fill:none;stroke:#808080;stroke-dasharray:0.2,0.33;stroke-dashoffset:0;stroke-width:0.2;"/>
   </g>
   <g id="line2d_3">
    <path clip-path="url(#p043114b144)" d="M 78.888867 59.047059 
L 78.888867 61.418824 
" style="fill:none;stroke:#000000;stroke-linecap:square;stroke-width:0.5;"/>
   </g>
   <g id="line2d_4">
    <path clip-path="url(#p043114b144)" d="M 221.411233 7.658824 
L 221.411233 102.529412 
" style="fill:none;stroke:#808080;stroke-dasharray:0.2,0.33;stroke-dashoffset:0;stroke-width:0.2;"/>
   </g>
   <g id="line2d_5">
    <path clip-path="url(#p043114b144)" d="M 221.411233 59.047059 
L 221.411233 61.418824 
" style="fill:none;stroke:#000000;stroke-linecap:square;stroke-width:0.5;"/>
   </g>
   <g id="line2d_6">
    <path clip-path="url(#p043114b144)" d="M 363.9336 7.658824 
L 363.9336 102.529412 
" style="fill:none;stroke:#808080;stroke-dasharray:0.2,0.33;stroke-dashoffset:0;stroke-width:0.2;"/>
   </g>
   <g id="line2d_7">
    <path clip-path="url(#p043114b144)" d="M 363.9336 59.047059 
L 363.9336 61.418824 
" style="fill:none;stroke:#000000;stroke-linecap:square;stroke-width:0.5;"/>
   </g>
   <g id="line2d_8">
    <path clip-path="url(#p043114b144)" d="M 506.455966 7.658824 
L 506.455966 102.529412 
" style="fill:none;stroke:#808080;stroke-dasharray:0.2,0.33;stroke-dashoffset:0;stroke-width:0.2;"/>
   </g>
   <g id="line2d_9">
    <path clip-path="url(#p043114b144)" d="M 506.455966 59.047059 
L 506.455966 61.418824 
" style="fill:none;stroke:#000000;stroke-linecap:square;stroke-width:0.5;"/>
   </g>
   <g id="line2d_10">
    <path clip-path="url(#p043114b144)" d="M 648.978333 7.658824 
L 648.978333 102.529412 
" style="fill:none;stroke:#808080;stroke-dasharray:0.2,0.33;stroke-dashoffset:0;stroke-width:0.2;"/>
   </g>
   <g id="line2d_11">
    <path clip-path="url(#p043114b144)" d="M 648.978333 59.047059 
L 648.978333 61.418824 
" style="fill:none;stroke:#000000;stroke-linecap:square;stroke-width:0.5;"/>
   </g>
   <g id="line2d_12">
    <path clip-path="url(#p043114b144)" d="M 740.428095 7.658824 
L 740.428095 102.529412 
" style="fill:none;stroke:#808080;stroke-dasharray:0.2,0.33;stroke-dashoffset:0;stroke-width:0.2;"/>
   </g>
   <g id="line2d_13">
    <path clip-path="url(#p043114b144)" d="M 740.428095 59.047059 
L 740.428095 61.418824 
" style="fill:none;stroke:#000000;stroke-linecap:square;stroke-width:0.5;"/>
   </g>
   <g id="text_1">
    <!-- 0.0 -->
    <defs>
     <path d="M 31.78125 66.40625 
Q 24.171875 66.40625 20.328125 58.90625 
Q 16.5 51.421875 16.5 36.375 
Q 16.5 21.390625 20.328125 13.890625 
Q 24.171875 6.390625 31.78125 6.390625 
Q 39.453125 6.390625 43.28125 13.890625 
Q 47.125 21.390625 47.125 36.375 
Q 47.125 51.421875 43.28125 58.90625 
Q 39.453125 66.40625 31.78125 66.40625 
z
M 31.78125 74.21875 
Q 44.046875 74.21875 50.515625 64.515625 
Q 56.984375 54.828125 56.984375 36.375 
Q 56.984375 17.96875 50.515625 8.265625 
Q 44.046875 -1.421875 31.78125 -1.421875 
Q 19.53125 -1.421875 13.0625 8.265625 
Q 6.59375 17.96875 6.59375 36.375 
Q 6.59375 54.828125 13.0625 64.515625 
Q 19.53125 74.21875 31.78125 74.21875 
z
" id="DejaVuSans-30"/>
     <path d="M 10.6875 12.40625 
L 21 12.40625 
L 21 0 
L 10.6875 0 
z
" id="DejaVuSans-2e"/>
    </defs>
    <g transform="translate(81.223711 67.497574)scale(0.08 -0.08)">
     <use xlink:href="#DejaVuSans-30"/>
     <use x="63.623047" xlink:href="#DejaVuSans-2e"/>
     <use x="95.410156" xlink:href="#DejaVuSans-30"/>
    </g>
   </g>
   <g id="text_2">
    <!-- 1.0 -->
    <defs>
     <path d="M 12.40625 8.296875 
L 28.515625 8.296875 
L 28.515625 63.921875 
L 10.984375 60.40625 
L 10.984375 69.390625 
L 28.421875 72.90625 
L 38.28125 72.90625 
L 38.28125 8.296875 
L 54.390625 8.296875 
L 54.390625 0 
L 12.40625 0 
z
" id="DejaVuSans-31"/>
    </defs>
    <g transform="translate(223.746078 67.497574)scale(0.08 -0.08)">
     <use xlink:href="#DejaVuSans-31"/>
     <use x="63.623047" xlink:href="#DejaVuSans-2e"/>
     <use x="95.410156" xlink:href="#DejaVuSans-30"/>
    </g>
   </g>
   <g id="text_3">
    <!-- 2.0 -->
    <defs>
     <path d="M 19.1875 8.296875 
L 53.609375 8.296875 
L 53.609375 0 
L 7.328125 0 
L 7.328125 8.296875 
Q 12.9375 14.109375 22.625 23.890625 
Q 32.328125 33.6875 34.8125 36.53125 
Q 39.546875 41.84375 41.421875 45.53125 
Q 43.3125 49.21875 43.3125 52.78125 
Q 43.3125 58.59375 39.234375 62.25 
Q 35.15625 65.921875 28.609375 65.921875 
Q 23.96875 65.921875 18.8125 64.3125 
Q 13.671875 62.703125 7.8125 59.421875 
L 7.8125 69.390625 
Q 13.765625 71.78125 18.9375 73 
Q 24.125 74.21875 28.421875 74.21875 
Q 39.75 74.21875 46.484375 68.546875 
Q 53.21875 62.890625 53.21875 53.421875 
Q 53.21875 48.921875 51.53125 44.890625 
Q 49.859375 40.875 45.40625 35.40625 
Q 44.1875 33.984375 37.640625 27.21875 
Q 31.109375 20.453125 19.1875 8.296875 
z
" id="DejaVuSans-32"/>
    </defs>
    <g transform="translate(366.268444 67.497574)scale(0.08 -0.08)">
     <use xlink:href="#DejaVuSans-32"/>
     <use x="63.623047" xlink:href="#DejaVuSans-2e"/>
     <use x="95.410156" xlink:href="#DejaVuSans-30"/>
    </g>
   </g>
   <g id="text_4">
    <!-- 3.0 -->
    <defs>
     <path d="M 40.578125 39.3125 
Q 47.65625 37.796875 51.625 33 
Q 55.609375 28.21875 55.609375 21.1875 
Q 55.609375 10.40625 48.1875 4.484375 
Q 40.765625 -1.421875 27.09375 -1.421875 
Q 22.515625 -1.421875 17.65625 -0.515625 
Q 12.796875 0.390625 7.625 2.203125 
L 7.625 11.71875 
Q 11.71875 9.328125 16.59375 8.109375 
Q 21.484375 6.890625 26.8125 6.890625 
Q 36.078125 6.890625 40.9375 10.546875 
Q 45.796875 14.203125 45.796875 21.1875 
Q 45.796875 27.640625 41.28125 31.265625 
Q 36.765625 34.90625 28.71875 34.90625 
L 20.21875 34.90625 
L 20.21875 43.015625 
L 29.109375 43.015625 
Q 36.375 43.015625 40.234375 45.921875 
Q 44.09375 48.828125 44.09375 54.296875 
Q 44.09375 59.90625 40.109375 62.90625 
Q 36.140625 65.921875 28.71875 65.921875 
Q 24.65625 65.921875 20.015625 65.03125 
Q 15.375 64.15625 9.8125 62.3125 
L 9.8125 71.09375 
Q 15.4375 72.65625 20.34375 73.4375 
Q 25.25 74.21875 29.59375 74.21875 
Q 40.828125 74.21875 47.359375 69.109375 
Q 53.90625 64.015625 53.90625 55.328125 
Q 53.90625 49.265625 50.4375 45.09375 
Q 46.96875 40.921875 40.578125 39.3125 
z
" id="DejaVuSans-33"/>
    </defs>
    <g transform="translate(508.790811 67.497574)scale(0.08 -0.08)">
     <use xlink:href="#DejaVuSans-33"/>
     <use x="63.623047" xlink:href="#DejaVuSans-2e"/>
     <use x="95.410156" xlink:href="#DejaVuSans-30"/>
    </g>
   </g>
   <g id="text_5">
    <!-- 4.0 -->
    <defs>
     <path d="M 37.796875 64.3125 
L 12.890625 25.390625 
L 37.796875 25.390625 
z
M 35.203125 72.90625 
L 47.609375 72.90625 
L 47.609375 25.390625 
L 58.015625 25.390625 
L 58.015625 17.1875 
L 47.609375 17.1875 
L 47.609375 0 
L 37.796875 0 
L 37.796875 17.1875 
L 4.890625 17.1875 
L 4.890625 26.703125 
z
" id="DejaVuSans-34"/>
    </defs>
    <g transform="translate(651.313177 67.497574)scale(0.08 -0.08)">
     <use xlink:href="#DejaVuSans-34"/>
     <use x="63.623047" xlink:href="#DejaVuSans-2e"/>
     <use x="95.410156" xlink:href="#DejaVuSans-30"/>
    </g>
   </g>
   <g id="text_6">
    <!-- 4.64 -->
    <defs>
     <path d="M 33.015625 40.375 
Q 26.375 40.375 22.484375 35.828125 
Q 18.609375 31.296875 18.609375 23.390625 
Q 18.609375 15.53125 22.484375 10.953125 
Q 26.375 6.390625 33.015625 6.390625 
Q 39.65625 6.390625 43.53125 10.953125 
Q 47.40625 15.53125 47.40625 23.390625 
Q 47.40625 31.296875 43.53125 35.828125 
Q 39.65625 40.375 33.015625 40.375 
z
M 52.59375 71.296875 
L 52.59375 62.3125 
Q 48.875 64.0625 45.09375 64.984375 
Q 41.3125 65.921875 37.59375 65.921875 
Q 27.828125 65.921875 22.671875 59.328125 
Q 17.53125 52.734375 16.796875 39.40625 
Q 19.671875 43.65625 24.015625 45.921875 
Q 28.375 48.1875 33.59375 48.1875 
Q 44.578125 48.1875 50.953125 41.515625 
Q 57.328125 34.859375 57.328125 23.390625 
Q 57.328125 12.15625 50.6875 5.359375 
Q 44.046875 -1.421875 33.015625 -1.421875 
Q 20.359375 -1.421875 13.671875 8.265625 
Q 6.984375 17.96875 6.984375 36.375 
Q 6.984375 53.65625 15.1875 63.9375 
Q 23.390625 74.21875 37.203125 74.21875 
Q 40.921875 74.21875 44.703125 73.484375 
Q 48.484375 72.75 52.59375 71.296875 
z
" id="DejaVuSans-36"/>
    </defs>
    <g transform="translate(742.762939 67.497574)scale(0.08 -0.08)">
     <use xlink:href="#DejaVuSans-34"/>
     <use x="63.623047" xlink:href="#DejaVuSans-2e"/>
     <use x="95.410156" xlink:href="#DejaVuSans-36"/>
     <use x="159.033203" xlink:href="#DejaVuSans-34"/>
    </g>
   </g>
   <g id="text_7">
    <!-- chr_0 (.._000913.3_) -->
    <defs>
     <path d="M 48.78125 52.59375 
L 48.78125 44.1875 
Q 44.96875 46.296875 41.140625 47.34375 
Q 37.3125 48.390625 33.40625 48.390625 
Q 24.65625 48.390625 19.8125 42.84375 
Q 14.984375 37.3125 14.984375 27.296875 
Q 14.984375 17.28125 19.8125 11.734375 
Q 24.65625 6.203125 33.40625 6.203125 
Q 37.3125 6.203125 41.140625 7.25 
Q 44.96875 8.296875 48.78125 10.40625 
L 48.78125 2.09375 
Q 45.015625 0.34375 40.984375 -0.53125 
Q 36.96875 -1.421875 32.421875 -1.421875 
Q 20.0625 -1.421875 12.78125 6.34375 
Q 5.515625 14.109375 5.515625 27.296875 
Q 5.515625 40.671875 12.859375 48.328125 
Q 20.21875 56 33.015625 56 
Q 37.15625 56 41.109375 55.140625 
Q 45.0625 54.296875 48.78125 52.59375 
z
" id="DejaVuSans-63"/>
     <path d="M 54.890625 33.015625 
L 54.890625 0 
L 45.90625 0 
L 45.90625 32.71875 
Q 45.90625 40.484375 42.875 44.328125 
Q 39.84375 48.1875 33.796875 48.1875 
Q 26.515625 48.1875 22.3125 43.546875 
Q 18.109375 38.921875 18.109375 30.90625 
L 18.109375 0 
L 9.078125 0 
L 9.078125 75.984375 
L 18.109375 75.984375 
L 18.109375 46.1875 
Q 21.34375 51.125 25.703125 53.5625 
Q 30.078125 56 35.796875 56 
Q 45.21875 56 50.046875 50.171875 
Q 54.890625 44.34375 54.890625 33.015625 
z
" id="DejaVuSans-68"/>
     <path d="M 41.109375 46.296875 
Q 39.59375 47.171875 37.8125 47.578125 
Q 36.03125 48 33.890625 48 
Q 26.265625 48 22.1875 43.046875 
Q 18.109375 38.09375 18.109375 28.8125 
L 18.109375 0 
L 9.078125 0 
L 9.078125 54.6875 
L 18.109375 54.6875 
L 18.109375 46.1875 
Q 20.953125 51.171875 25.484375 53.578125 
Q 30.03125 56 36.53125 56 
Q 37.453125 56 38.578125 55.875 
Q 39.703125 55.765625 41.0625 55.515625 
z
" id="DejaVuSans-72"/>
     <path d="M 50.984375 -16.609375 
L 50.984375 -23.578125 
L -0.984375 -23.578125 
L -0.984375 -16.609375 
z
" id="DejaVuSans-5f"/>
     <path id="DejaVuSans-20"/>
     <path d="M 31 75.875 
Q 24.46875 64.65625 21.28125 53.65625 
Q 18.109375 42.671875 18.109375 31.390625 
Q 18.109375 20.125 21.3125 9.0625 
Q 24.515625 -2 31 -13.1875 
L 23.1875 -13.1875 
Q 15.875 -1.703125 12.234375 9.375 
Q 8.59375 20.453125 8.59375 31.390625 
Q 8.59375 42.28125 12.203125 53.3125 
Q 15.828125 64.359375 23.1875 75.875 
z
" id="DejaVuSans-28"/>
     <path d="M 10.984375 1.515625 
L 10.984375 10.5 
Q 14.703125 8.734375 18.5 7.8125 
Q 22.3125 6.890625 25.984375 6.890625 
Q 35.75 6.890625 40.890625 13.453125 
Q 46.046875 20.015625 46.78125 33.40625 
Q 43.953125 29.203125 39.59375 26.953125 
Q 35.25 24.703125 29.984375 24.703125 
Q 19.046875 24.703125 12.671875 31.3125 
Q 6.296875 37.9375 6.296875 49.421875 
Q 6.296875 60.640625 12.9375 67.421875 
Q 19.578125 74.21875 30.609375 74.21875 
Q 43.265625 74.21875 49.921875 64.515625 
Q 56.59375 54.828125 56.59375 36.375 
Q 56.59375 19.140625 48.40625 8.859375 
Q 40.234375 -1.421875 26.421875 -1.421875 
Q 22.703125 -1.421875 18.890625 -0.6875 
Q 15.09375 0.046875 10.984375 1.515625 
z
M 30.609375 32.421875 
Q 37.25 32.421875 41.125 36.953125 
Q 45.015625 41.5 45.015625 49.421875 
Q 45.015625 57.28125 41.125 61.84375 
Q 37.25 66.40625 30.609375 66.40625 
Q 23.96875 66.40625 20.09375 61.84375 
Q 16.21875 57.28125 16.21875 49.421875 
Q 16.21875 41.5 20.09375 36.953125 
Q 23.96875 32.421875 30.609375 32.421875 
z
" id="DejaVuSans-39"/>
     <path d="M 8.015625 75.875 
L 15.828125 75.875 
Q 23.140625 64.359375 26.78125 53.3125 
Q 30.421875 42.28125 30.421875 31.390625 
Q 30.421875 20.453125 26.78125 9.375 
Q 23.140625 -1.703125 15.828125 -13.1875 
L 8.015625 -13.1875 
Q 14.5 -2 17.703125 9.0625 
Q 20.90625 20.125 20.90625 31.390625 
Q 20.90625 42.671875 17.703125 53.65625 
Q 14.5 64.65625 8.015625 75.875 
z
" id="DejaVuSans-29"/>
    </defs>
    <g transform="translate(353.359106 49.024164)scale(0.11 -0.11)">
     <use xlink:href="#DejaVuSans-63"/>
     <use x="54.980469" xlink:href="#DejaVuSans-68"/>
     <use x="118.359375" xlink:href="#DejaVuSans-72"/>
     <use x="159.472656" xlink:href="#DejaVuSans-5f"/>
     <use x="209.472656" xlink:href="#DejaVuSans-30"/>
     <use x="273.095703" xlink:href="#DejaVuSans-20"/>
     <use x="304.882812" xlink:href="#DejaVuSans-28"/>
     <use x="343.896484" xlink:href="#DejaVuSans-2e"/>
     <use x="375.683594" xlink:href="#DejaVuSans-2e"/>
     <use x="407.470703" xlink:href="#DejaVuSans-5f"/>
     <use x="457.470703" xlink:href="#DejaVuSans-30"/>
     <use x="521.09375" xlink:href="#DejaVuSans-30"/>
     <use x="584.716797" xlink:href="#DejaVuSans-30"/>
     <use x="648.339844" xlink:href="#DejaVuSans-39"/>
     <use x="711.962891" xlink:href="#DejaVuSans-31"/>
     <use x="775.585938" xlink:href="#DejaVuSans-33"/>
     <use x="839.208984" xlink:href="#DejaVuSans-2e"/>
     <use x="870.996094" xlink:href="#DejaVuSans-33"/>
     <use x="934.619141" xlink:href="#DejaVuSans-5f"/>
     <use x="984.619141" xlink:href="#DejaVuSans-29"/>
    </g>
   </g>
   <g id="text_8">
    <!-- Genome, Mb -->
    <defs>
     <path d="M 59.515625 10.40625 
L 59.515625 29.984375 
L 43.40625 29.984375 
L 43.40625 38.09375 
L 69.28125 38.09375 
L 69.28125 6.78125 
Q 63.578125 2.734375 56.6875 0.65625 
Q 49.8125 -1.421875 42 -1.421875 
Q 24.90625 -1.421875 15.25 8.5625 
Q 5.609375 18.5625 5.609375 36.375 
Q 5.609375 54.25 15.25 64.234375 
Q 24.90625 74.21875 42 74.21875 
Q 49.125 74.21875 55.546875 72.453125 
Q 61.96875 70.703125 67.390625 67.28125 
L 67.390625 56.78125 
Q 61.921875 61.421875 55.765625 63.765625 
Q 49.609375 66.109375 42.828125 66.109375 
Q 29.4375 66.109375 22.71875 58.640625 
Q 16.015625 51.171875 16.015625 36.375 
Q 16.015625 21.625 22.71875 14.15625 
Q 29.4375 6.6875 42.828125 6.6875 
Q 48.046875 6.6875 52.140625 7.59375 
Q 56.25 8.5 59.515625 10.40625 
z
" id="DejaVuSans-47"/>
     <path d="M 56.203125 29.59375 
L 56.203125 25.203125 
L 14.890625 25.203125 
Q 15.484375 15.921875 20.484375 11.0625 
Q 25.484375 6.203125 34.421875 6.203125 
Q 39.59375 6.203125 44.453125 7.46875 
Q 49.3125 8.734375 54.109375 11.28125 
L 54.109375 2.78125 
Q 49.265625 0.734375 44.1875 -0.34375 
Q 39.109375 -1.421875 33.890625 -1.421875 
Q 20.796875 -1.421875 13.15625 6.1875 
Q 5.515625 13.8125 5.515625 26.8125 
Q 5.515625 40.234375 12.765625 48.109375 
Q 20.015625 56 32.328125 56 
Q 43.359375 56 49.78125 48.890625 
Q 56.203125 41.796875 56.203125 29.59375 
z
M 47.21875 32.234375 
Q 47.125 39.59375 43.09375 43.984375 
Q 39.0625 48.390625 32.421875 48.390625 
Q 24.90625 48.390625 20.390625 44.140625 
Q 15.875 39.890625 15.1875 32.171875 
z
" id="DejaVuSans-65"/>
     <path d="M 54.890625 33.015625 
L 54.890625 0 
L 45.90625 0 
L 45.90625 32.71875 
Q 45.90625 40.484375 42.875 44.328125 
Q 39.84375 48.1875 33.796875 48.1875 
Q 26.515625 48.1875 22.3125 43.546875 
Q 18.109375 38.921875 18.109375 30.90625 
L 18.109375 0 
L 9.078125 0 
L 9.078125 54.6875 
L 18.109375 54.6875 
L 18.109375 46.1875 
Q 21.34375 51.125 25.703125 53.5625 
Q 30.078125 56 35.796875 56 
Q 45.21875 56 50.046875 50.171875 
Q 54.890625 44.34375 54.890625 33.015625 
z
" id="DejaVuSans-6e"/>
     <path d="M 30.609375 48.390625 
Q 23.390625 48.390625 19.1875 42.75 
Q 14.984375 37.109375 14.984375 27.296875 
Q 14.984375 17.484375 19.15625 11.84375 
Q 23.34375 6.203125 30.609375 6.203125 
Q 37.796875 6.203125 41.984375 11.859375 
Q 46.1875 17.53125 46.1875 27.296875 
Q 46.1875 37.015625 41.984375 42.703125 
Q 37.796875 48.390625 30.609375 48.390625 
z
M 30.609375 56 
Q 42.328125 56 49.015625 48.375 
Q 55.71875 40.765625 55.71875 27.296875 
Q 55.71875 13.875 49.015625 6.21875 
Q 42.328125 -1.421875 30.609375 -1.421875 
Q 18.84375 -1.421875 12.171875 6.21875 
Q 5.515625 13.875 5.515625 27.296875 
Q 5.515625 40.765625 12.171875 48.375 
Q 18.84375 56 30.609375 56 
z
" id="DejaVuSans-6f"/>
     <path d="M 52 44.1875 
Q 55.375 50.25 60.0625 53.125 
Q 64.75 56 71.09375 56 
Q 79.640625 56 84.28125 50.015625 
Q 88.921875 44.046875 88.921875 33.015625 
L 88.921875 0 
L 79.890625 0 
L 79.890625 32.71875 
Q 79.890625 40.578125 77.09375 44.375 
Q 74.3125 48.1875 68.609375 48.1875 
Q 61.625 48.1875 57.5625 43.546875 
Q 53.515625 38.921875 53.515625 30.90625 
L 53.515625 0 
L 44.484375 0 
L 44.484375 32.71875 
Q 44.484375 40.625 41.703125 44.40625 
Q 38.921875 48.1875 33.109375 48.1875 
Q 26.21875 48.1875 22.15625 43.53125 
Q 18.109375 38.875 18.109375 30.90625 
L 18.109375 0 
L 9.078125 0 
L 9.078125 54.6875 
L 18.109375 54.6875 
L 18.109375 46.1875 
Q 21.1875 51.21875 25.484375 53.609375 
Q 29.78125 56 35.6875 56 
Q 41.65625 56 45.828125 52.96875 
Q 50 49.953125 52 44.1875 
z
" id="DejaVuSans-6d"/>
     <path d="M 11.71875 12.40625 
L 22.015625 12.40625 
L 22.015625 4 
L 14.015625 -11.625 
L 7.71875 -11.625 
L 11.71875 4 
z
" id="DejaVuSans-2c"/>
     <path d="M 9.8125 72.90625 
L 24.515625 72.90625 
L 43.109375 23.296875 
L 61.8125 72.90625 
L 76.515625 72.90625 
L 76.515625 0 
L 66.890625 0 
L 66.890625 64.015625 
L 48.09375 14.015625 
L 38.1875 14.015625 
L 19.390625 64.015625 
L 19.390625 0 
L 9.8125 0 
z
" id="DejaVuSans-4d"/>
     <path d="M 48.6875 27.296875 
Q 48.6875 37.203125 44.609375 42.84375 
Q 40.53125 48.484375 33.40625 48.484375 
Q 26.265625 48.484375 22.1875 42.84375 
Q 18.109375 37.203125 18.109375 27.296875 
Q 18.109375 17.390625 22.1875 11.75 
Q 26.265625 6.109375 33.40625 6.109375 
Q 40.53125 6.109375 44.609375 11.75 
Q 48.6875 17.390625 48.6875 27.296875 
z
M 18.109375 46.390625 
Q 20.953125 51.265625 25.265625 53.625 
Q 29.59375 56 35.59375 56 
Q 45.5625 56 51.78125 48.09375 
Q 58.015625 40.1875 58.015625 27.296875 
Q 58.015625 14.40625 51.78125 6.484375 
Q 45.5625 -1.421875 35.59375 -1.421875 
Q 29.59375 -1.421875 25.265625 0.953125 
Q 20.953125 3.328125 18.109375 8.203125 
L 18.109375 0 
L 9.078125 0 
L 9.078125 75.984375 
L 18.109375 75.984375 
z
" id="DejaVuSans-62"/>
    </defs>
    <g transform="translate(374.687074 79.659458)scale(0.11 -0.11)">
     <use xlink:href="#DejaVuSans-47"/>
     <use x="77.490234" xlink:href="#DejaVuSans-65"/>
     <use x="139.013672" xlink:href="#DejaVuSans-6e"/>
     <use x="202.392578" xlink:href="#DejaVuSans-6f"/>
     <use x="263.574219" xlink:href="#DejaVuSans-6d"/>
     <use x="360.986328" xlink:href="#DejaVuSans-65"/>
     <use x="422.509766" xlink:href="#DejaVuSans-2c"/>
     <use x="454.296875" xlink:href="#DejaVuSans-20"/>
     <use x="486.083984" xlink:href="#DejaVuSans-4d"/>
     <use x="572.363281" xlink:href="#DejaVuSans-62"/>
    </g>
   </g>
   <g id="text_9">
    <!-- contigs -->
    <defs>
     <path d="M 18.3125 70.21875 
L 18.3125 54.6875 
L 36.8125 54.6875 
L 36.8125 47.703125 
L 18.3125 47.703125 
L 18.3125 18.015625 
Q 18.3125 11.328125 20.140625 9.421875 
Q 21.96875 7.515625 27.59375 7.515625 
L 36.8125 7.515625 
L 36.8125 0 
L 27.59375 0 
Q 17.1875 0 13.234375 3.875 
Q 9.28125 7.765625 9.28125 18.015625 
L 9.28125 47.703125 
L 2.6875 47.703125 
L 2.6875 54.6875 
L 9.28125 54.6875 
L 9.28125 70.21875 
z
" id="DejaVuSans-74"/>
     <path d="M 9.421875 54.6875 
L 18.40625 54.6875 
L 18.40625 0 
L 9.421875 0 
z
M 9.421875 75.984375 
L 18.40625 75.984375 
L 18.40625 64.59375 
L 9.421875 64.59375 
z
" id="DejaVuSans-69"/>
     <path d="M 45.40625 27.984375 
Q 45.40625 37.75 41.375 43.109375 
Q 37.359375 48.484375 30.078125 48.484375 
Q 22.859375 48.484375 18.828125 43.109375 
Q 14.796875 37.75 14.796875 27.984375 
Q 14.796875 18.265625 18.828125 12.890625 
Q 22.859375 7.515625 30.078125 7.515625 
Q 37.359375 7.515625 41.375 12.890625 
Q 45.40625 18.265625 45.40625 27.984375 
z
M 54.390625 6.78125 
Q 54.390625 -7.171875 48.1875 -13.984375 
Q 42 -20.796875 29.203125 -20.796875 
Q 24.46875 -20.796875 20.265625 -20.09375 
Q 16.0625 -19.390625 12.109375 -17.921875 
L 12.109375 -9.1875 
Q 16.0625 -11.328125 19.921875 -12.34375 
Q 23.78125 -13.375 27.78125 -13.375 
Q 36.625 -13.375 41.015625 -8.765625 
Q 45.40625 -4.15625 45.40625 5.171875 
L 45.40625 9.625 
Q 42.625 4.78125 38.28125 2.390625 
Q 33.9375 0 27.875 0 
Q 17.828125 0 11.671875 7.65625 
Q 5.515625 15.328125 5.515625 27.984375 
Q 5.515625 40.671875 11.671875 48.328125 
Q 17.828125 56 27.875 56 
Q 33.9375 56 38.28125 53.609375 
Q 42.625 51.21875 45.40625 46.390625 
L 45.40625 54.6875 
L 54.390625 54.6875 
z
" id="DejaVuSans-67"/>
     <path d="M 44.28125 53.078125 
L 44.28125 44.578125 
Q 40.484375 46.53125 36.375 47.5 
Q 32.28125 48.484375 27.875 48.484375 
Q 21.1875 48.484375 17.84375 46.4375 
Q 14.5 44.390625 14.5 40.28125 
Q 14.5 37.15625 16.890625 35.375 
Q 19.28125 33.59375 26.515625 31.984375 
L 29.59375 31.296875 
Q 39.15625 29.25 43.1875 25.515625 
Q 47.21875 21.78125 47.21875 15.09375 
Q 47.21875 7.46875 41.1875 3.015625 
Q 35.15625 -1.421875 24.609375 -1.421875 
Q 20.21875 -1.421875 15.453125 -0.5625 
Q 10.6875 0.296875 5.421875 2 
L 5.421875 11.28125 
Q 10.40625 8.6875 15.234375 7.390625 
Q 20.0625 6.109375 24.8125 6.109375 
Q 31.15625 6.109375 34.5625 8.28125 
Q 37.984375 10.453125 37.984375 14.40625 
Q 37.984375 18.0625 35.515625 20.015625 
Q 33.0625 21.96875 24.703125 23.78125 
L 21.578125 24.515625 
Q 13.234375 26.265625 9.515625 29.90625 
Q 5.8125 33.546875 5.8125 39.890625 
Q 5.8125 47.609375 11.28125 51.796875 
Q 16.75 56 26.8125 56 
Q 31.78125 56 36.171875 55.265625 
Q 40.578125 54.546875 44.28125 53.078125 
z
" id="DejaVuSans-73"/>
    </defs>
    <g transform="translate(29.598631 94.104375)scale(0.12 -0.12)">
     <use xlink:href="#DejaVuSans-63"/>
     <use x="54.980469" xlink:href="#DejaVuSans-6f"/>
     <use x="116.162109" xlink:href="#DejaVuSans-6e"/>
     <use x="179.541016" xlink:href="#DejaVuSans-74"/>
     <use x="218.75" xlink:href="#DejaVuSans-69"/>
     <use x="246.533203" xlink:href="#DejaVuSans-67"/>
     <use x="310.009766" xlink:href="#DejaVuSans-73"/>
    </g>
   </g>
  </g>
 </g>
 <defs>
  <clipPath id="p043114b144">
   <rect height="113.054118" width="781.2" x="2.52" y="2.52"/>
  </clipPath>
 </defs>
</svg>
