<?xml version="1.0" encoding="utf-8" standalone="no"?>
<!DOCTYPE svg PUBLIC "-//W3C//DTD SVG 1.1//EN"
  "http://www.w3.org/Graphics/SVG/1.1/DTD/svg11.dtd">
<!-- Created with matplotlib (http://matplotlib.org/) -->
<svg height="117pt" version="1.1" viewBox="0 0 781 117" width="781pt" xmlns="http://www.w3.org/2000/svg" xmlns:xlink="http://www.w3.org/1999/xlink">
 <defs>
  <style type="text/css">
*{stroke-linecap:butt;stroke-linejoin:round;}
  </style>
 </defs>
 <g id="figure_1">
  <g id="patch_1">
   <path d="
M0 117.459
L781.2 117.459
L781.2 0
L0 0
z
" style="fill:#ffffff;"/>
  </g>
  <g id="axes_1">
   <g id="patch_2">
    <path clip-path="url(#p6a4ae4428d)" d="
M149.99 117.459
L720.266 117.459
L720.266 15.6612
L149.99 15.6612
z
" style="fill:#ffffff;"/>
   </g>
   <g id="patch_3">
    <path clip-path="url(#p6a4ae4428d)" d="
M182.861 106.888
L183.588 106.888
L183.588 95.1416
L182.861 95.1416
z
" style="fill:#4daf4a;"/>
   </g>
   <g id="patch_4">
    <path clip-path="url(#p6a4ae4428d)" d="
M184.931 105.321
L187.568 105.321
L187.568 93.5755
L184.931 93.5755
z
" style="fill:#40cf40;"/>
   </g>
   <g id="patch_5">
    <path clip-path="url(#p6a4ae4428d)" d="
M187.568 106.888
L187.7 106.888
L187.7 95.1416
L187.568 95.1416
z
" style="fill:#4daf4a;"/>
   </g>
   <g id="patch_6">
    <path clip-path="url(#p6a4ae4428d)" d="
M188.098 105.321
L189.289 105.321
L189.289 93.5755
L188.098 93.5755
z
" style="fill:#40cf40;"/>
   </g>
   <g id="patch_7">
    <path clip-path="url(#p6a4ae4428d)" d="
M189.289 106.888
L189.388 106.888
L189.388 95.1416
L189.289 95.1416
z
" style="fill:#4daf4a;"/>
   </g>
   <g id="patch_8">
    <path clip-path="url(#p6a4ae4428d)" d="
M189.514 105.321
L191.054 105.321
L191.054 93.5755
L189.514 93.5755
z
" style="fill:#40cf40;"/>
   </g>
   <g id="patch_9">
    <path clip-path="url(#p6a4ae4428d)" d="
M191.427 106.888
L191.518 106.888
L191.518 95.1416
L191.427 95.1416
z
" style="fill:#4daf4a;"/>
   </g>
   <g id="patch_10">
    <path clip-path="url(#p6a4ae4428d)" d="
M191.518 105.321
L192.166 105.321
L192.166 93.5755
L191.518 93.5755
z
" style="fill:#40cf40;"/>
   </g>
   <g id="patch_11">
    <path clip-path="url(#p6a4ae4428d)" d="
M192.166 106.888
L194.123 106.888
L194.123 95.1416
L192.166 95.1416
z
" style="fill:#4daf4a;"/>
   </g>
   <g id="patch_12">
    <path clip-path="url(#p6a4ae4428d)" d="
M194.425 105.321
L195.766 105.321
L195.766 93.5755
L194.425 93.5755
z
" style="fill:#40cf40;"/>
   </g>
   <g id="patch_13">
    <path clip-path="url(#p6a4ae4428d)" d="
M196.89 109.628
L199.316 109.628
L199.316 97.8824
L196.89 97.8824
z
" style="fill:#e41a1c;"/>
   </g>
   <g id="patch_14">
    <path clip-path="url(#p6a4ae4428d)" d="
M199.828 105.321
L204.212 105.321
L204.212 93.5755
L199.828 93.5755
z
" style="fill:#40cf40;"/>
   </g>
   <g id="patch_15">
    <path clip-path="url(#p6a4ae4428d)" d="
M204.212 106.888
L204.416 106.888
L204.416 95.1416
L204.212 95.1416
z
" style="fill:#4daf4a;"/>
   </g>
   <g id="patch_16">
    <path clip-path="url(#p6a4ae4428d)" d="
M204.766 105.321
L204.797 105.321
L204.797 93.5755
L204.766 93.5755
z
" style="fill:#40cf40;"/>
   </g>
   <g id="patch_17">
    <path clip-path="url(#p6a4ae4428d)" d="
M204.827 106.888
L205.023 106.888
L205.023 95.1416
L204.827 95.1416
z
" style="fill:#4daf4a;"/>
   </g>
   <g id="patch_18">
    <path clip-path="url(#p6a4ae4428d)" d="
M205.023 105.321
L205.641 105.321
L205.641 93.5755
L205.023 93.5755
z
" style="fill:#40cf40;"/>
   </g>
   <g id="patch_19">
    <path clip-path="url(#p6a4ae4428d)" d="
M206.338 106.888
L206.481 106.888
L206.481 95.1416
L206.338 95.1416
z
" style="fill:#4daf4a;"/>
   </g>
   <g id="patch_20">
    <path clip-path="url(#p6a4ae4428d)" d="
M207.173 105.321
L210.816 105.321
L210.816 93.5755
L207.173 93.5755
z
" style="fill:#40cf40;"/>
   </g>
   <g id="patch_21">
    <path clip-path="url(#p6a4ae4428d)" d="
M212.16 106.888
L214.25 106.888
L214.25 95.1416
L212.16 95.1416
z
" style="fill:#4daf4a;"/>
   </g>
   <g id="patch_22">
    <path clip-path="url(#p6a4ae4428d)" d="
M214.25 105.321
L214.288 105.321
L214.288 93.5755
L214.25 93.5755
z
" style="fill:#40cf40;"/>
   </g>
   <g id="patch_23">
    <path clip-path="url(#p6a4ae4428d)" d="
M214.709 106.888
L219.816 106.888
L219.816 95.1416
L214.709 95.1416
z
" style="fill:#4daf4a;"/>
   </g>
   <g id="patch_24">
    <path clip-path="url(#p6a4ae4428d)" d="
M220.841 105.321
L220.874 105.321
L220.874 93.5755
L220.841 93.5755
z
" style="fill:#40cf40;"/>
   </g>
   <g id="patch_25">
    <path clip-path="url(#p6a4ae4428d)" d="
M221.092 106.888
L222.398 106.888
L222.398 95.1416
L221.092 95.1416
z
" style="fill:#4daf4a;"/>
   </g>
   <g id="patch_26">
    <path clip-path="url(#p6a4ae4428d)" d="
M222.447 105.321
L222.483 105.321
L222.483 93.5755
L222.447 93.5755
z
" style="fill:#40cf40;"/>
   </g>
   <g id="patch_27">
    <path clip-path="url(#p6a4ae4428d)" d="
M222.886 106.888
L223.815 106.888
L223.815 95.1416
L222.886 95.1416
z
" style="fill:#4daf4a;"/>
   </g>
   <g id="patch_28">
    <path clip-path="url(#p6a4ae4428d)" d="
M223.836 105.321
L229.624 105.321
L229.624 93.5755
L223.836 93.5755
z
" style="fill:#40cf40;"/>
   </g>
   <g id="patch_29">
    <path clip-path="url(#p6a4ae4428d)" d="
M230.227 106.888
L232.609 106.888
L232.609 95.1416
L230.227 95.1416
z
" style="fill:#4daf4a;"/>
   </g>
   <g id="patch_30">
    <path clip-path="url(#p6a4ae4428d)" d="
M233.297 105.321
L233.331 105.321
L233.331 93.5755
L233.297 93.5755
z
" style="fill:#40cf40;"/>
   </g>
   <g id="patch_31">
    <path clip-path="url(#p6a4ae4428d)" d="
M236.454 106.888
L236.519 106.888
L236.519 95.1416
L236.454 95.1416
z
" style="fill:#4daf4a;"/>
   </g>
   <g id="patch_32">
    <path clip-path="url(#p6a4ae4428d)" d="
M236.845 105.321
L238.193 105.321
L238.193 93.5755
L236.845 93.5755
z
" style="fill:#40cf40;"/>
   </g>
   <g id="patch_33">
    <path clip-path="url(#p6a4ae4428d)" d="
M238.207 106.888
L238.27 106.888
L238.27 95.1416
L238.207 95.1416
z
" style="fill:#4daf4a;"/>
   </g>
   <g id="patch_34">
    <path clip-path="url(#p6a4ae4428d)" d="
M238.271 105.321
L238.394 105.321
L238.394 93.5755
L238.271 93.5755
z
" style="fill:#40cf40;"/>
   </g>
   <g id="patch_35">
    <path clip-path="url(#p6a4ae4428d)" d="
M238.483 106.888
L240.39 106.888
L240.39 95.1416
L238.483 95.1416
z
" style="fill:#4daf4a;"/>
   </g>
   <g id="patch_36">
    <path clip-path="url(#p6a4ae4428d)" d="
M241.323 105.321
L241.61 105.321
L241.61 93.5755
L241.323 93.5755
z
" style="fill:#40cf40;"/>
   </g>
   <g id="patch_37">
    <path clip-path="url(#p6a4ae4428d)" d="
M241.777 106.888
L242.018 106.888
L242.018 95.1416
L241.777 95.1416
z
" style="fill:#4daf4a;"/>
   </g>
   <g id="patch_38">
    <path clip-path="url(#p6a4ae4428d)" d="
M242.018 105.321
L245.023 105.321
L245.023 93.5755
L242.018 93.5755
z
" style="fill:#40cf40;"/>
   </g>
   <g id="patch_39">
    <path clip-path="url(#p6a4ae4428d)" d="
M245.023 106.888
L245.34 106.888
L245.34 95.1416
L245.023 95.1416
z
" style="fill:#4daf4a;"/>
   </g>
   <g id="patch_40">
    <path clip-path="url(#p6a4ae4428d)" d="
M245.34 105.321
L248.86 105.321
L248.86 93.5755
L245.34 93.5755
z
" style="fill:#40cf40;"/>
   </g>
   <g id="patch_41">
    <path clip-path="url(#p6a4ae4428d)" d="
M248.86 106.888
L249.384 106.888
L249.384 95.1416
L248.86 95.1416
z
" style="fill:#4daf4a;"/>
   </g>
   <g id="patch_42">
    <path clip-path="url(#p6a4ae4428d)" d="
M249.742 105.321
L251.551 105.321
L251.551 93.5755
L249.742 93.5755
z
" style="fill:#40cf40;"/>
   </g>
   <g id="patch_43">
    <path clip-path="url(#p6a4ae4428d)" d="
M251.551 106.888
L251.644 106.888
L251.644 95.1416
L251.551 95.1416
z
" style="fill:#4daf4a;"/>
   </g>
   <g id="patch_44">
    <path clip-path="url(#p6a4ae4428d)" d="
M251.644 105.321
L252.443 105.321
L252.443 93.5755
L251.644 93.5755
z
" style="fill:#40cf40;"/>
   </g>
   <g id="patch_45">
    <path clip-path="url(#p6a4ae4428d)" d="
M253.729 106.888
L255.816 106.888
L255.816 95.1416
L253.729 95.1416
z
" style="fill:#4daf4a;"/>
   </g>
   <g id="patch_46">
    <path clip-path="url(#p6a4ae4428d)" d="
M255.99 105.321
L258.544 105.321
L258.544 93.5755
L255.99 93.5755
z
" style="fill:#40cf40;"/>
   </g>
   <g id="patch_47">
    <path clip-path="url(#p6a4ae4428d)" d="
M258.606 106.888
L261.174 106.888
L261.174 95.1416
L258.606 95.1416
z
" style="fill:#4daf4a;"/>
   </g>
   <g id="patch_48">
    <path clip-path="url(#p6a4ae4428d)" d="
M261.661 105.321
L261.865 105.321
L261.865 93.5755
L261.661 93.5755
z
" style="fill:#40cf40;"/>
   </g>
   <g id="patch_49">
    <path clip-path="url(#p6a4ae4428d)" d="
M262.501 106.888
L262.532 106.888
L262.532 95.1416
L262.501 95.1416
z
" style="fill:#4daf4a;"/>
   </g>
   <g id="patch_50">
    <path clip-path="url(#p6a4ae4428d)" d="
M263.11 105.321
L263.145 105.321
L263.145 93.5755
L263.11 93.5755
z
" style="fill:#40cf40;"/>
   </g>
   <g id="patch_51">
    <path clip-path="url(#p6a4ae4428d)" d="
M263.364 106.888
L264.166 106.888
L264.166 95.1416
L263.364 95.1416
z
" style="fill:#4daf4a;"/>
   </g>
   <g id="patch_52">
    <path clip-path="url(#p6a4ae4428d)" d="
M264.559 105.321
L264.588 105.321
L264.588 93.5755
L264.559 93.5755
z
" style="fill:#40cf40;"/>
   </g>
   <g id="patch_53">
    <path clip-path="url(#p6a4ae4428d)" d="
M265.627 106.888
L266.035 106.888
L266.035 95.1416
L265.627 95.1416
z
" style="fill:#4daf4a;"/>
   </g>
   <g id="patch_54">
    <path clip-path="url(#p6a4ae4428d)" d="
M266.622 105.321
L269.83 105.321
L269.83 93.5755
L266.622 93.5755
z
" style="fill:#40cf40;"/>
   </g>
   <g id="patch_55">
    <path clip-path="url(#p6a4ae4428d)" d="
M270.651 106.888
L270.683 106.888
L270.683 95.1416
L270.651 95.1416
z
" style="fill:#4daf4a;"/>
   </g>
   <g id="patch_56">
    <path clip-path="url(#p6a4ae4428d)" d="
M273.129 105.321
L273.965 105.321
L273.965 93.5755
L273.129 93.5755
z
" style="fill:#40cf40;"/>
   </g>
   <g id="patch_57">
    <path clip-path="url(#p6a4ae4428d)" d="
M274.216 106.888
L274.453 106.888
L274.453 95.1416
L274.216 95.1416
z
" style="fill:#4daf4a;"/>
   </g>
   <g id="patch_58">
    <path clip-path="url(#p6a4ae4428d)" d="
M274.453 105.321
L280.667 105.321
L280.667 93.5755
L274.453 93.5755
z
" style="fill:#40cf40;"/>
   </g>
   <g id="patch_59">
    <path clip-path="url(#p6a4ae4428d)" d="
M281.475 106.888
L282.988 106.888
L282.988 95.1416
L281.475 95.1416
z
" style="fill:#4daf4a;"/>
   </g>
   <g id="patch_60">
    <path clip-path="url(#p6a4ae4428d)" d="
M283.389 105.321
L283.898 105.321
L283.898 93.5755
L283.389 93.5755
z
" style="fill:#40cf40;"/>
   </g>
   <g id="patch_61">
    <path clip-path="url(#p6a4ae4428d)" d="
M283.898 106.888
L283.925 106.888
L283.925 95.1416
L283.898 95.1416
z
" style="fill:#4daf4a;"/>
   </g>
   <g id="patch_62">
    <path clip-path="url(#p6a4ae4428d)" d="
M284.598 105.321
L285.322 105.321
L285.322 93.5755
L284.598 93.5755
z
" style="fill:#40cf40;"/>
   </g>
   <g id="patch_63">
    <path clip-path="url(#p6a4ae4428d)" d="
M285.622 106.888
L288.013 106.888
L288.013 95.1416
L285.622 95.1416
z
" style="fill:#4daf4a;"/>
   </g>
   <g id="patch_64">
    <path clip-path="url(#p6a4ae4428d)" d="
M288.374 105.321
L288.881 105.321
L288.881 93.5755
L288.374 93.5755
z
" style="fill:#40cf40;"/>
   </g>
   <g id="patch_65">
    <path clip-path="url(#p6a4ae4428d)" d="
M288.898 106.888
L289.198 106.888
L289.198 95.1416
L288.898 95.1416
z
" style="fill:#4daf4a;"/>
   </g>
   <g id="patch_66">
    <path clip-path="url(#p6a4ae4428d)" d="
M289.499 105.321
L289.651 105.321
L289.651 93.5755
L289.499 93.5755
z
" style="fill:#40cf40;"/>
   </g>
   <g id="patch_67">
    <path clip-path="url(#p6a4ae4428d)" d="
M289.651 106.888
L289.685 106.888
L289.685 95.1416
L289.651 95.1416
z
" style="fill:#4daf4a;"/>
   </g>
   <g id="patch_68">
    <path clip-path="url(#p6a4ae4428d)" d="
M289.685 105.321
L289.737 105.321
L289.737 93.5755
L289.685 93.5755
z
" style="fill:#40cf40;"/>
   </g>
   <g id="patch_69">
    <path clip-path="url(#p6a4ae4428d)" d="
M289.737 106.888
L290.75 106.888
L290.75 95.1416
L289.737 95.1416
z
" style="fill:#4daf4a;"/>
   </g>
   <g id="patch_70">
    <path clip-path="url(#p6a4ae4428d)" d="
M290.75 105.321
L291.637 105.321
L291.637 93.5755
L290.75 93.5755
z
" style="fill:#40cf40;"/>
   </g>
   <g id="patch_71">
    <path clip-path="url(#p6a4ae4428d)" d="
M291.637 106.888
L291.705 106.888
L291.705 95.1416
L291.637 95.1416
z
" style="fill:#4daf4a;"/>
   </g>
   <g id="patch_72">
    <path clip-path="url(#p6a4ae4428d)" d="
M291.705 105.321
L301.551 105.321
L301.551 93.5755
L291.705 93.5755
z
" style="fill:#40cf40;"/>
   </g>
   <g id="patch_73">
    <path clip-path="url(#p6a4ae4428d)" d="
M302.428 106.888
L313.123 106.888
L313.123 95.1416
L302.428 95.1416
z
" style="fill:#4daf4a;"/>
   </g>
   <g id="patch_74">
    <path clip-path="url(#p6a4ae4428d)" d="
M313.123 105.321
L313.19 105.321
L313.19 93.5755
L313.123 93.5755
z
" style="fill:#40cf40;"/>
   </g>
   <g id="patch_75">
    <path clip-path="url(#p6a4ae4428d)" d="
M313.19 106.888
L314.457 106.888
L314.457 95.1416
L313.19 95.1416
z
" style="fill:#4daf4a;"/>
   </g>
   <g id="patch_76">
    <path clip-path="url(#p6a4ae4428d)" d="
M315.292 105.321
L317.246 105.321
L317.246 93.5755
L315.292 93.5755
z
" style="fill:#40cf40;"/>
   </g>
   <g id="patch_77">
    <path clip-path="url(#p6a4ae4428d)" d="
M317.246 106.888
L317.36 106.888
L317.36 95.1416
L317.246 95.1416
z
" style="fill:#4daf4a;"/>
   </g>
   <g id="patch_78">
    <path clip-path="url(#p6a4ae4428d)" d="
M318.74 105.321
L318.814 105.321
L318.814 93.5755
L318.74 93.5755
z
" style="fill:#40cf40;"/>
   </g>
   <g id="patch_79">
    <path clip-path="url(#p6a4ae4428d)" d="
M319.267 106.888
L319.807 106.888
L319.807 95.1416
L319.267 95.1416
z
" style="fill:#4daf4a;"/>
   </g>
   <g id="patch_80">
    <path clip-path="url(#p6a4ae4428d)" d="
M319.807 105.321
L320.497 105.321
L320.497 93.5755
L319.807 93.5755
z
" style="fill:#40cf40;"/>
   </g>
   <g id="patch_81">
    <path clip-path="url(#p6a4ae4428d)" d="
M320.497 106.888
L321.246 106.888
L321.246 95.1416
L320.497 95.1416
z
" style="fill:#4daf4a;"/>
   </g>
   <g id="patch_82">
    <path clip-path="url(#p6a4ae4428d)" d="
M321.311 105.321
L321.766 105.321
L321.766 93.5755
L321.311 93.5755
z
" style="fill:#40cf40;"/>
   </g>
   <g id="patch_83">
    <path clip-path="url(#p6a4ae4428d)" d="
M321.766 106.888
L321.934 106.888
L321.934 95.1416
L321.766 95.1416
z
" style="fill:#4daf4a;"/>
   </g>
   <g id="patch_84">
    <path clip-path="url(#p6a4ae4428d)" d="
M321.934 105.321
L322.46 105.321
L322.46 93.5755
L321.934 93.5755
z
" style="fill:#40cf40;"/>
   </g>
   <g id="patch_85">
    <path clip-path="url(#p6a4ae4428d)" d="
M322.478 106.888
L323.385 106.888
L323.385 95.1416
L322.478 95.1416
z
" style="fill:#4daf4a;"/>
   </g>
   <g id="patch_86">
    <path clip-path="url(#p6a4ae4428d)" d="
M323.385 105.321
L324.958 105.321
L324.958 93.5755
L323.385 93.5755
z
" style="fill:#40cf40;"/>
   </g>
   <g id="patch_87">
    <path clip-path="url(#p6a4ae4428d)" d="
M324.958 106.888
L325.168 106.888
L325.168 95.1416
L324.958 95.1416
z
" style="fill:#4daf4a;"/>
   </g>
   <g id="patch_88">
    <path clip-path="url(#p6a4ae4428d)" d="
M325.227 105.321
L325.58 105.321
L325.58 93.5755
L325.227 93.5755
z
" style="fill:#40cf40;"/>
   </g>
   <g id="patch_89">
    <path clip-path="url(#p6a4ae4428d)" d="
M325.58 106.888
L327.004 106.888
L327.004 95.1416
L325.58 95.1416
z
" style="fill:#4daf4a;"/>
   </g>
   <g id="patch_90">
    <path clip-path="url(#p6a4ae4428d)" d="
M327.004 105.321
L327.042 105.321
L327.042 93.5755
L327.004 93.5755
z
" style="fill:#40cf40;"/>
   </g>
   <g id="patch_91">
    <path clip-path="url(#p6a4ae4428d)" d="
M327.1 106.888
L327.204 106.888
L327.204 95.1416
L327.1 95.1416
z
" style="fill:#4daf4a;"/>
   </g>
   <g id="patch_92">
    <path clip-path="url(#p6a4ae4428d)" d="
M327.989 105.321
L328.758 105.321
L328.758 93.5755
L327.989 93.5755
z
" style="fill:#40cf40;"/>
   </g>
   <g id="patch_93">
    <path clip-path="url(#p6a4ae4428d)" d="
M328.972 106.888
L329.885 106.888
L329.885 95.1416
L328.972 95.1416
z
" style="fill:#4daf4a;"/>
   </g>
   <g id="patch_94">
    <path clip-path="url(#p6a4ae4428d)" d="
M330.004 105.321
L330.039 105.321
L330.039 93.5755
L330.004 93.5755
z
" style="fill:#40cf40;"/>
   </g>
   <g id="patch_95">
    <path clip-path="url(#p6a4ae4428d)" d="
M330.719 106.888
L331.73 106.888
L331.73 95.1416
L330.719 95.1416
z
" style="fill:#4daf4a;"/>
   </g>
   <g id="patch_96">
    <path clip-path="url(#p6a4ae4428d)" d="
M333.103 105.321
L334.25 105.321
L334.25 93.5755
L333.103 93.5755
z
" style="fill:#40cf40;"/>
   </g>
   <g id="patch_97">
    <path clip-path="url(#p6a4ae4428d)" d="
M334.421 106.888
L334.451 106.888
L334.451 95.1416
L334.421 95.1416
z
" style="fill:#4daf4a;"/>
   </g>
   <g id="patch_98">
    <path clip-path="url(#p6a4ae4428d)" d="
M335.052 105.321
L337.934 105.321
L337.934 93.5755
L335.052 93.5755
z
" style="fill:#40cf40;"/>
   </g>
   <g id="patch_99">
    <path clip-path="url(#p6a4ae4428d)" d="
M338.909 106.888
L341.934 106.888
L341.934 95.1416
L338.909 95.1416
z
" style="fill:#4daf4a;"/>
   </g>
   <g id="patch_100">
    <path clip-path="url(#p6a4ae4428d)" d="
M342.922 105.321
L343.362 105.321
L343.362 93.5755
L342.922 93.5755
z
" style="fill:#40cf40;"/>
   </g>
   <g id="patch_101">
    <path clip-path="url(#p6a4ae4428d)" d="
M344.51 106.888
L344.544 106.888
L344.544 95.1416
L344.51 95.1416
z
" style="fill:#4daf4a;"/>
   </g>
   <g id="patch_102">
    <path clip-path="url(#p6a4ae4428d)" d="
M344.985 105.321
L350.538 105.321
L350.538 93.5755
L344.985 93.5755
z
" style="fill:#40cf40;"/>
   </g>
   <g id="patch_103">
    <path clip-path="url(#p6a4ae4428d)" d="
M350.538 106.888
L350.999 106.888
L350.999 95.1416
L350.538 95.1416
z
" style="fill:#4daf4a;"/>
   </g>
   <g id="patch_104">
    <path clip-path="url(#p6a4ae4428d)" d="
M351.028 105.321
L351.54 105.321
L351.54 93.5755
L351.028 93.5755
z
" style="fill:#40cf40;"/>
   </g>
   <g id="patch_105">
    <path clip-path="url(#p6a4ae4428d)" d="
M351.54 106.888
L351.833 106.888
L351.833 95.1416
L351.54 95.1416
z
" style="fill:#4daf4a;"/>
   </g>
   <g id="patch_106">
    <path clip-path="url(#p6a4ae4428d)" d="
M351.884 105.321
L351.949 105.321
L351.949 93.5755
L351.884 93.5755
z
" style="fill:#40cf40;"/>
   </g>
   <g id="patch_107">
    <path clip-path="url(#p6a4ae4428d)" d="
M352.075 106.888
L352.128 106.888
L352.128 95.1416
L352.075 95.1416
z
" style="fill:#4daf4a;"/>
   </g>
   <g id="patch_108">
    <path clip-path="url(#p6a4ae4428d)" d="
M352.678 105.321
L355.337 105.321
L355.337 93.5755
L352.678 93.5755
z
" style="fill:#40cf40;"/>
   </g>
   <g id="patch_109">
    <path clip-path="url(#p6a4ae4428d)" d="
M355.337 106.888
L356.373 106.888
L356.373 95.1416
L355.337 95.1416
z
" style="fill:#4daf4a;"/>
   </g>
   <g id="patch_110">
    <path clip-path="url(#p6a4ae4428d)" d="
M356.373 105.321
L357.789 105.321
L357.789 93.5755
L356.373 93.5755
z
" style="fill:#40cf40;"/>
   </g>
   <g id="patch_111">
    <path clip-path="url(#p6a4ae4428d)" d="
M357.85 106.888
L357.879 106.888
L357.879 95.1416
L357.85 95.1416
z
" style="fill:#4daf4a;"/>
   </g>
   <g id="patch_112">
    <path clip-path="url(#p6a4ae4428d)" d="
M361.148 105.321
L361.262 105.321
L361.262 93.5755
L361.148 93.5755
z
" style="fill:#40cf40;"/>
   </g>
   <g id="patch_113">
    <path clip-path="url(#p6a4ae4428d)" d="
M361.698 106.888
L361.728 106.888
L361.728 95.1416
L361.698 95.1416
z
" style="fill:#4daf4a;"/>
   </g>
   <g id="patch_114">
    <path clip-path="url(#p6a4ae4428d)" d="
M361.728 105.321
L361.852 105.321
L361.852 93.5755
L361.728 93.5755
z
" style="fill:#40cf40;"/>
   </g>
   <g id="patch_115">
    <path clip-path="url(#p6a4ae4428d)" d="
M363.536 106.888
L363.602 106.888
L363.602 95.1416
L363.536 95.1416
z
" style="fill:#4daf4a;"/>
   </g>
   <g id="patch_116">
    <path clip-path="url(#p6a4ae4428d)" d="
M364.266 105.321
L365.135 105.321
L365.135 93.5755
L364.266 93.5755
z
" style="fill:#40cf40;"/>
   </g>
   <g id="patch_117">
    <path clip-path="url(#p6a4ae4428d)" d="
M365.606 106.888
L366.405 106.888
L366.405 95.1416
L365.606 95.1416
z
" style="fill:#4daf4a;"/>
   </g>
   <g id="patch_118">
    <path clip-path="url(#p6a4ae4428d)" d="
M366.405 105.321
L369.409 105.321
L369.409 93.5755
L366.405 93.5755
z
" style="fill:#40cf40;"/>
   </g>
   <g id="patch_119">
    <path clip-path="url(#p6a4ae4428d)" d="
M370.236 106.888
L371.071 106.888
L371.071 95.1416
L370.236 95.1416
z
" style="fill:#4daf4a;"/>
   </g>
   <g id="patch_120">
    <path clip-path="url(#p6a4ae4428d)" d="
M371.13 105.321
L371.35 105.321
L371.35 93.5755
L371.13 93.5755
z
" style="fill:#40cf40;"/>
   </g>
   <g id="patch_121">
    <path clip-path="url(#p6a4ae4428d)" d="
M371.35 106.888
L375.576 106.888
L375.576 95.1416
L371.35 95.1416
z
" style="fill:#4daf4a;"/>
   </g>
   <g id="patch_122">
    <path clip-path="url(#p6a4ae4428d)" d="
M375.576 105.321
L381.938 105.321
L381.938 93.5755
L375.576 93.5755
z
" style="fill:#40cf40;"/>
   </g>
   <g id="patch_123">
    <path clip-path="url(#p6a4ae4428d)" d="
M382.091 106.888
L382.462 106.888
L382.462 95.1416
L382.091 95.1416
z
" style="fill:#4daf4a;"/>
   </g>
   <g id="patch_124">
    <path clip-path="url(#p6a4ae4428d)" d="
M382.462 105.321
L382.665 105.321
L382.665 93.5755
L382.462 93.5755
z
" style="fill:#40cf40;"/>
   </g>
   <g id="patch_125">
    <path clip-path="url(#p6a4ae4428d)" d="
M382.665 106.888
L382.715 106.888
L382.715 95.1416
L382.665 95.1416
z
" style="fill:#4daf4a;"/>
   </g>
   <g id="patch_126">
    <path clip-path="url(#p6a4ae4428d)" d="
M382.726 105.321
L382.752 105.321
L382.752 93.5755
L382.726 93.5755
z
" style="fill:#40cf40;"/>
   </g>
   <g id="patch_127">
    <path clip-path="url(#p6a4ae4428d)" d="
M382.752 106.888
L382.779 106.888
L382.779 95.1416
L382.752 95.1416
z
" style="fill:#4daf4a;"/>
   </g>
   <g id="patch_128">
    <path clip-path="url(#p6a4ae4428d)" d="
M382.81 105.321
L382.873 105.321
L382.873 93.5755
L382.81 93.5755
z
" style="fill:#40cf40;"/>
   </g>
   <g id="patch_129">
    <path clip-path="url(#p6a4ae4428d)" d="
M383.639 106.888
L384.327 106.888
L384.327 95.1416
L383.639 95.1416
z
" style="fill:#4daf4a;"/>
   </g>
   <g id="patch_130">
    <path clip-path="url(#p6a4ae4428d)" d="
M384.328 105.321
L385.423 105.321
L385.423 93.5755
L384.328 93.5755
z
" style="fill:#40cf40;"/>
   </g>
   <g id="patch_131">
    <path clip-path="url(#p6a4ae4428d)" d="
M385.845 106.888
L386.935 106.888
L386.935 95.1416
L385.845 95.1416
z
" style="fill:#4daf4a;"/>
   </g>
   <g id="patch_132">
    <path clip-path="url(#p6a4ae4428d)" d="
M386.935 105.321
L387.26 105.321
L387.26 93.5755
L386.935 93.5755
z
" style="fill:#40cf40;"/>
   </g>
   <g id="patch_133">
    <path clip-path="url(#p6a4ae4428d)" d="
M387.438 106.888
L397.621 106.888
L397.621 95.1416
L387.438 95.1416
z
" style="fill:#4daf4a;"/>
   </g>
   <g id="patch_134">
    <path clip-path="url(#p6a4ae4428d)" d="
M397.621 105.321
L398.377 105.321
L398.377 93.5755
L397.621 93.5755
z
" style="fill:#40cf40;"/>
   </g>
   <g id="patch_135">
    <path clip-path="url(#p6a4ae4428d)" d="
M399.748 106.888
L400.605 106.888
L400.605 95.1416
L399.748 95.1416
z
" style="fill:#4daf4a;"/>
   </g>
   <g id="patch_136">
    <path clip-path="url(#p6a4ae4428d)" d="
M400.884 105.321
L401.816 105.321
L401.816 93.5755
L400.884 93.5755
z
" style="fill:#40cf40;"/>
   </g>
   <g id="patch_137">
    <path clip-path="url(#p6a4ae4428d)" d="
M402.359 106.888
L403.436 106.888
L403.436 95.1416
L402.359 95.1416
z
" style="fill:#4daf4a;"/>
   </g>
   <g id="patch_138">
    <path clip-path="url(#p6a4ae4428d)" d="
M403.484 105.321
L403.543 105.321
L403.543 93.5755
L403.484 93.5755
z
" style="fill:#40cf40;"/>
   </g>
   <g id="patch_139">
    <path clip-path="url(#p6a4ae4428d)" d="
M403.74 106.888
L404.267 106.888
L404.267 95.1416
L403.74 95.1416
z
" style="fill:#4daf4a;"/>
   </g>
   <g id="patch_140">
    <path clip-path="url(#p6a4ae4428d)" d="
M404.924 105.321
L404.957 105.321
L404.957 93.5755
L404.924 93.5755
z
" style="fill:#40cf40;"/>
   </g>
   <g id="patch_141">
    <path clip-path="url(#p6a4ae4428d)" d="
M405.5 106.888
L405.542 106.888
L405.542 95.1416
L405.5 95.1416
z
" style="fill:#4daf4a;"/>
   </g>
   <g id="patch_142">
    <path clip-path="url(#p6a4ae4428d)" d="
M405.651 105.321
L405.965 105.321
L405.965 93.5755
L405.651 93.5755
z
" style="fill:#40cf40;"/>
   </g>
   <g id="patch_143">
    <path clip-path="url(#p6a4ae4428d)" d="
M406.19 106.888
L410.122 106.888
L410.122 95.1416
L406.19 95.1416
z
" style="fill:#4daf4a;"/>
   </g>
   <g id="patch_144">
    <path clip-path="url(#p6a4ae4428d)" d="
M410.484 105.321
L410.632 105.321
L410.632 93.5755
L410.484 93.5755
z
" style="fill:#40cf40;"/>
   </g>
   <g id="patch_145">
    <path clip-path="url(#p6a4ae4428d)" d="
M410.632 106.888
L410.705 106.888
L410.705 95.1416
L410.632 95.1416
z
" style="fill:#4daf4a;"/>
   </g>
   <g id="patch_146">
    <path clip-path="url(#p6a4ae4428d)" d="
M410.705 105.321
L411.58 105.321
L411.58 93.5755
L410.705 93.5755
z
" style="fill:#40cf40;"/>
   </g>
   <g id="patch_147">
    <path clip-path="url(#p6a4ae4428d)" d="
M412.085 106.888
L412.115 106.888
L412.115 95.1416
L412.085 95.1416
z
" style="fill:#4daf4a;"/>
   </g>
   <g id="patch_148">
    <path clip-path="url(#p6a4ae4428d)" d="
M412.145 105.321
L412.174 105.321
L412.174 93.5755
L412.145 93.5755
z
" style="fill:#40cf40;"/>
   </g>
   <g id="patch_149">
    <path clip-path="url(#p6a4ae4428d)" d="
M412.174 106.888
L412.205 106.888
L412.205 95.1416
L412.174 95.1416
z
" style="fill:#4daf4a;"/>
   </g>
   <g id="patch_150">
    <path clip-path="url(#p6a4ae4428d)" d="
M412.214 105.321
L412.29 105.321
L412.29 93.5755
L412.214 93.5755
z
" style="fill:#40cf40;"/>
   </g>
   <g id="patch_151">
    <path clip-path="url(#p6a4ae4428d)" d="
M412.404 106.888
L412.441 106.888
L412.441 95.1416
L412.404 95.1416
z
" style="fill:#4daf4a;"/>
   </g>
   <g id="patch_152">
    <path clip-path="url(#p6a4ae4428d)" d="
M412.441 105.321
L412.555 105.321
L412.555 93.5755
L412.441 93.5755
z
" style="fill:#40cf40;"/>
   </g>
   <g id="patch_153">
    <path clip-path="url(#p6a4ae4428d)" d="
M413.708 106.888
L414.206 106.888
L414.206 95.1416
L413.708 95.1416
z
" style="fill:#4daf4a;"/>
   </g>
   <g id="patch_154">
    <path clip-path="url(#p6a4ae4428d)" d="
M415.913 105.321
L417.488 105.321
L417.488 93.5755
L415.913 93.5755
z
" style="fill:#40cf40;"/>
   </g>
   <g id="patch_155">
    <path clip-path="url(#p6a4ae4428d)" d="
M418.337 106.888
L418.369 106.888
L418.369 95.1416
L418.337 95.1416
z
" style="fill:#4daf4a;"/>
   </g>
   <g id="patch_156">
    <path clip-path="url(#p6a4ae4428d)" d="
M418.927 105.321
L419.691 105.321
L419.691 93.5755
L418.927 93.5755
z
" style="fill:#40cf40;"/>
   </g>
   <g id="patch_157">
    <path clip-path="url(#p6a4ae4428d)" d="
M419.691 106.888
L420.146 106.888
L420.146 95.1416
L419.691 95.1416
z
" style="fill:#4daf4a;"/>
   </g>
   <g id="patch_158">
    <path clip-path="url(#p6a4ae4428d)" d="
M420.146 105.321
L420.242 105.321
L420.242 93.5755
L420.146 93.5755
z
" style="fill:#40cf40;"/>
   </g>
   <g id="patch_159">
    <path clip-path="url(#p6a4ae4428d)" d="
M420.242 106.888
L420.743 106.888
L420.743 95.1416
L420.242 95.1416
z
" style="fill:#4daf4a;"/>
   </g>
   <g id="patch_160">
    <path clip-path="url(#p6a4ae4428d)" d="
M420.743 105.321
L422.682 105.321
L422.682 93.5755
L420.743 93.5755
z
" style="fill:#40cf40;"/>
   </g>
   <g id="patch_161">
    <path clip-path="url(#p6a4ae4428d)" d="
M422.936 106.888
L422.966 106.888
L422.966 95.1416
L422.936 95.1416
z
" style="fill:#4daf4a;"/>
   </g>
   <g id="patch_162">
    <path clip-path="url(#p6a4ae4428d)" d="
M422.966 105.321
L423.013 105.321
L423.013 93.5755
L422.966 93.5755
z
" style="fill:#40cf40;"/>
   </g>
   <g id="patch_163">
    <path clip-path="url(#p6a4ae4428d)" d="
M423.079 106.888
L423.611 106.888
L423.611 95.1416
L423.079 95.1416
z
" style="fill:#4daf4a;"/>
   </g>
   <g id="patch_164">
    <path clip-path="url(#p6a4ae4428d)" d="
M423.677 105.321
L423.739 105.321
L423.739 93.5755
L423.677 93.5755
z
" style="fill:#40cf40;"/>
   </g>
   <g id="patch_165">
    <path clip-path="url(#p6a4ae4428d)" d="
M423.739 106.888
L425.464 106.888
L425.464 95.1416
L423.739 95.1416
z
" style="fill:#4daf4a;"/>
   </g>
   <g id="patch_166">
    <path clip-path="url(#p6a4ae4428d)" d="
M426.121 105.321
L427.295 105.321
L427.295 93.5755
L426.121 93.5755
z
" style="fill:#40cf40;"/>
   </g>
   <g id="patch_167">
    <path clip-path="url(#p6a4ae4428d)" d="
M427.643 106.888
L427.676 106.888
L427.676 95.1416
L427.643 95.1416
z
" style="fill:#4daf4a;"/>
   </g>
   <g id="patch_168">
    <path clip-path="url(#p6a4ae4428d)" d="
M428.874 105.321
L429.404 105.321
L429.404 93.5755
L428.874 93.5755
z
" style="fill:#40cf40;"/>
   </g>
   <g id="patch_169">
    <path clip-path="url(#p6a4ae4428d)" d="
M429.404 106.888
L429.478 106.888
L429.478 95.1416
L429.404 95.1416
z
" style="fill:#4daf4a;"/>
   </g>
   <g id="patch_170">
    <path clip-path="url(#p6a4ae4428d)" d="
M429.519 105.321
L429.679 105.321
L429.679 93.5755
L429.519 93.5755
z
" style="fill:#40cf40;"/>
   </g>
   <g id="patch_171">
    <path clip-path="url(#p6a4ae4428d)" d="
M429.817 106.888
L429.859 106.888
L429.859 95.1416
L429.817 95.1416
z
" style="fill:#4daf4a;"/>
   </g>
   <g id="patch_172">
    <path clip-path="url(#p6a4ae4428d)" d="
M429.859 105.321
L429.951 105.321
L429.951 93.5755
L429.859 93.5755
z
" style="fill:#40cf40;"/>
   </g>
   <g id="patch_173">
    <path clip-path="url(#p6a4ae4428d)" d="
M430.159 106.888
L430.57 106.888
L430.57 95.1416
L430.159 95.1416
z
" style="fill:#4daf4a;"/>
   </g>
   <g id="patch_174">
    <path clip-path="url(#p6a4ae4428d)" d="
M430.57 105.321
L430.7 105.321
L430.7 93.5755
L430.57 93.5755
z
" style="fill:#40cf40;"/>
   </g>
   <g id="patch_175">
    <path clip-path="url(#p6a4ae4428d)" d="
M430.735 106.888
L431.75 106.888
L431.75 95.1416
L430.735 95.1416
z
" style="fill:#4daf4a;"/>
   </g>
   <g id="patch_176">
    <path clip-path="url(#p6a4ae4428d)" d="
M431.75 105.321
L432.395 105.321
L432.395 93.5755
L431.75 93.5755
z
" style="fill:#40cf40;"/>
   </g>
   <g id="patch_177">
    <path clip-path="url(#p6a4ae4428d)" d="
M433.573 106.888
L434.587 106.888
L434.587 95.1416
L433.573 95.1416
z
" style="fill:#4daf4a;"/>
   </g>
   <g id="patch_178">
    <path clip-path="url(#p6a4ae4428d)" d="
M434.837 105.321
L435.305 105.321
L435.305 93.5755
L434.837 93.5755
z
" style="fill:#40cf40;"/>
   </g>
   <g id="patch_179">
    <path clip-path="url(#p6a4ae4428d)" d="
M435.305 106.888
L436.171 106.888
L436.171 95.1416
L435.305 95.1416
z
" style="fill:#4daf4a;"/>
   </g>
   <g id="patch_180">
    <path clip-path="url(#p6a4ae4428d)" d="
M436.587 105.321
L439.736 105.321
L439.736 93.5755
L436.587 93.5755
z
" style="fill:#40cf40;"/>
   </g>
   <g id="patch_181">
    <path clip-path="url(#p6a4ae4428d)" d="
M442.447 106.888
L442.63 106.888
L442.63 95.1416
L442.447 95.1416
z
" style="fill:#4daf4a;"/>
   </g>
   <g id="patch_182">
    <path clip-path="url(#p6a4ae4428d)" d="
M443.203 105.321
L448.191 105.321
L448.191 93.5755
L443.203 93.5755
z
" style="fill:#40cf40;"/>
   </g>
   <g id="patch_183">
    <path clip-path="url(#p6a4ae4428d)" d="
M448.191 106.888
L448.406 106.888
L448.406 95.1416
L448.191 95.1416
z
" style="fill:#4daf4a;"/>
   </g>
   <g id="patch_184">
    <path clip-path="url(#p6a4ae4428d)" d="
M448.412 105.321
L448.475 105.321
L448.475 93.5755
L448.412 93.5755
z
" style="fill:#40cf40;"/>
   </g>
   <g id="patch_185">
    <path clip-path="url(#p6a4ae4428d)" d="
M448.475 106.888
L449.295 106.888
L449.295 95.1416
L448.475 95.1416
z
" style="fill:#4daf4a;"/>
   </g>
   <g id="patch_186">
    <path clip-path="url(#p6a4ae4428d)" d="
M449.563 105.321
L457.546 105.321
L457.546 93.5755
L449.563 93.5755
z
" style="fill:#40cf40;"/>
   </g>
   <g id="patch_187">
    <path clip-path="url(#p6a4ae4428d)" d="
M457.794 106.888
L457.871 106.888
L457.871 95.1416
L457.794 95.1416
z
" style="fill:#4daf4a;"/>
   </g>
   <g id="patch_188">
    <path clip-path="url(#p6a4ae4428d)" d="
M458.332 105.321
L460.151 105.321
L460.151 93.5755
L458.332 93.5755
z
" style="fill:#40cf40;"/>
   </g>
   <g id="patch_189">
    <path clip-path="url(#p6a4ae4428d)" d="
M460.307 106.888
L461.202 106.888
L461.202 95.1416
L460.307 95.1416
z
" style="fill:#4daf4a;"/>
   </g>
   <g id="patch_190">
    <path clip-path="url(#p6a4ae4428d)" d="
M463.338 105.321
L463.749 105.321
L463.749 93.5755
L463.338 93.5755
z
" style="fill:#40cf40;"/>
   </g>
   <g id="patch_191">
    <path clip-path="url(#p6a4ae4428d)" d="
M463.749 106.888
L463.896 106.888
L463.896 95.1416
L463.749 95.1416
z
" style="fill:#4daf4a;"/>
   </g>
   <g id="patch_192">
    <path clip-path="url(#p6a4ae4428d)" d="
M464.049 105.321
L464.081 105.321
L464.081 93.5755
L464.049 93.5755
z
" style="fill:#40cf40;"/>
   </g>
   <g id="patch_193">
    <path clip-path="url(#p6a4ae4428d)" d="
M464.15 106.888
L464.21 106.888
L464.21 95.1416
L464.15 95.1416
z
" style="fill:#4daf4a;"/>
   </g>
   <g id="patch_194">
    <path clip-path="url(#p6a4ae4428d)" d="
M464.504 105.321
L464.544 105.321
L464.544 93.5755
L464.504 93.5755
z
" style="fill:#40cf40;"/>
   </g>
   <g id="patch_195">
    <path clip-path="url(#p6a4ae4428d)" d="
M465.08 106.888
L467.391 106.888
L467.391 95.1416
L465.08 95.1416
z
" style="fill:#4daf4a;"/>
   </g>
   <g id="patch_196">
    <path clip-path="url(#p6a4ae4428d)" d="
M467.645 105.321
L467.749 105.321
L467.749 93.5755
L467.645 93.5755
z
" style="fill:#40cf40;"/>
   </g>
   <g id="patch_197">
    <path clip-path="url(#p6a4ae4428d)" d="
M467.749 106.888
L467.833 106.888
L467.833 95.1416
L467.749 95.1416
z
" style="fill:#4daf4a;"/>
   </g>
   <g id="patch_198">
    <path clip-path="url(#p6a4ae4428d)" d="
M467.833 105.321
L470.172 105.321
L470.172 93.5755
L467.833 93.5755
z
" style="fill:#40cf40;"/>
   </g>
   <g id="patch_199">
    <path clip-path="url(#p6a4ae4428d)" d="
M470.942 106.888
L473.168 106.888
L473.168 95.1416
L470.942 95.1416
z
" style="fill:#4daf4a;"/>
   </g>
   <g id="patch_200">
    <path clip-path="url(#p6a4ae4428d)" d="
M473.762 105.321
L474.22 105.321
L474.22 93.5755
L473.762 93.5755
z
" style="fill:#40cf40;"/>
   </g>
   <g id="patch_201">
    <path clip-path="url(#p6a4ae4428d)" d="
M474.981 106.888
L475.255 106.888
L475.255 95.1416
L474.981 95.1416
z
" style="fill:#4daf4a;"/>
   </g>
   <g id="patch_202">
    <path clip-path="url(#p6a4ae4428d)" d="
M475.255 105.321
L480.2 105.321
L480.2 93.5755
L475.255 93.5755
z
" style="fill:#40cf40;"/>
   </g>
   <g id="patch_203">
    <path clip-path="url(#p6a4ae4428d)" d="
M480.2 106.888
L480.847 106.888
L480.847 95.1416
L480.2 95.1416
z
" style="fill:#4daf4a;"/>
   </g>
   <g id="patch_204">
    <path clip-path="url(#p6a4ae4428d)" d="
M480.913 105.321
L481.294 105.321
L481.294 93.5755
L480.913 93.5755
z
" style="fill:#40cf40;"/>
   </g>
   <g id="patch_205">
    <path clip-path="url(#p6a4ae4428d)" d="
M481.511 106.888
L481.621 106.888
L481.621 95.1416
L481.511 95.1416
z
" style="fill:#4daf4a;"/>
   </g>
   <g id="patch_206">
    <path clip-path="url(#p6a4ae4428d)" d="
M481.691 105.321
L482.33 105.321
L482.33 93.5755
L481.691 93.5755
z
" style="fill:#40cf40;"/>
   </g>
   <g id="patch_207">
    <path clip-path="url(#p6a4ae4428d)" d="
M482.497 106.888
L482.557 106.888
L482.557 95.1416
L482.497 95.1416
z
" style="fill:#4daf4a;"/>
   </g>
   <g id="patch_208">
    <path clip-path="url(#p6a4ae4428d)" d="
M482.557 105.321
L486.851 105.321
L486.851 93.5755
L482.557 93.5755
z
" style="fill:#40cf40;"/>
   </g>
   <g id="patch_209">
    <path clip-path="url(#p6a4ae4428d)" d="
M488.997 106.888
L489.044 106.888
L489.044 95.1416
L488.997 95.1416
z
" style="fill:#4daf4a;"/>
   </g>
   <g id="patch_210">
    <path clip-path="url(#p6a4ae4428d)" d="
M489.73 105.321
L490.432 105.321
L490.432 93.5755
L489.73 93.5755
z
" style="fill:#40cf40;"/>
   </g>
   <g id="patch_211">
    <path clip-path="url(#p6a4ae4428d)" d="
M490.74 106.888
L490.856 106.888
L490.856 95.1416
L490.74 95.1416
z
" style="fill:#4daf4a;"/>
   </g>
   <g id="patch_212">
    <path clip-path="url(#p6a4ae4428d)" d="
M490.856 105.321
L494.521 105.321
L494.521 93.5755
L490.856 93.5755
z
" style="fill:#40cf40;"/>
   </g>
   <g id="patch_213">
    <path clip-path="url(#p6a4ae4428d)" d="
M494.522 106.888
L495.534 106.888
L495.534 95.1416
L494.522 95.1416
z
" style="fill:#4daf4a;"/>
   </g>
   <g id="patch_214">
    <path clip-path="url(#p6a4ae4428d)" d="
M498.455 105.321
L506.47 105.321
L506.47 93.5755
L498.455 93.5755
z
" style="fill:#40cf40;"/>
   </g>
   <g id="patch_215">
    <path clip-path="url(#p6a4ae4428d)" d="
M506.47 106.888
L506.651 106.888
L506.651 95.1416
L506.47 95.1416
z
" style="fill:#4daf4a;"/>
   </g>
   <g id="patch_216">
    <path clip-path="url(#p6a4ae4428d)" d="
M506.651 105.321
L506.976 105.321
L506.976 93.5755
L506.651 93.5755
z
" style="fill:#40cf40;"/>
   </g>
   <g id="patch_217">
    <path clip-path="url(#p6a4ae4428d)" d="
M508.06 106.888
L508.488 106.888
L508.488 95.1416
L508.06 95.1416
z
" style="fill:#4daf4a;"/>
   </g>
   <g id="patch_218">
    <path clip-path="url(#p6a4ae4428d)" d="
M509.58 105.321
L511.03 105.321
L511.03 93.5755
L509.58 93.5755
z
" style="fill:#40cf40;"/>
   </g>
   <g id="patch_219">
    <path clip-path="url(#p6a4ae4428d)" d="
M511.095 106.888
L511.132 106.888
L511.132 95.1416
L511.095 95.1416
z
" style="fill:#4daf4a;"/>
   </g>
   <g id="patch_220">
    <path clip-path="url(#p6a4ae4428d)" d="
M511.133 105.321
L511.16 105.321
L511.16 93.5755
L511.133 93.5755
z
" style="fill:#40cf40;"/>
   </g>
   <g id="patch_221">
    <path clip-path="url(#p6a4ae4428d)" d="
M511.446 106.888
L511.817 106.888
L511.817 95.1416
L511.446 95.1416
z
" style="fill:#4daf4a;"/>
   </g>
   <g id="patch_222">
    <path clip-path="url(#p6a4ae4428d)" d="
M511.817 105.321
L511.973 105.321
L511.973 93.5755
L511.817 93.5755
z
" style="fill:#40cf40;"/>
   </g>
   <g id="patch_223">
    <path clip-path="url(#p6a4ae4428d)" d="
M512.151 106.888
L514.784 106.888
L514.784 95.1416
L512.151 95.1416
z
" style="fill:#4daf4a;"/>
   </g>
   <g id="patch_224">
    <path clip-path="url(#p6a4ae4428d)" d="
M515.378 105.321
L516.057 105.321
L516.057 93.5755
L515.378 93.5755
z
" style="fill:#40cf40;"/>
   </g>
   <g id="patch_225">
    <path clip-path="url(#p6a4ae4428d)" d="
M516.057 106.888
L519.152 106.888
L519.152 95.1416
L516.057 95.1416
z
" style="fill:#4daf4a;"/>
   </g>
   <g id="patch_226">
    <path clip-path="url(#p6a4ae4428d)" d="
M519.893 105.321
L520.262 105.321
L520.262 93.5755
L519.893 93.5755
z
" style="fill:#40cf40;"/>
   </g>
   <g id="patch_227">
    <path clip-path="url(#p6a4ae4428d)" d="
M520.786 106.888
L521.933 106.888
L521.933 95.1416
L520.786 95.1416
z
" style="fill:#4daf4a;"/>
   </g>
   <g id="patch_228">
    <path clip-path="url(#p6a4ae4428d)" d="
M524.202 105.321
L524.71 105.321
L524.71 93.5755
L524.202 93.5755
z
" style="fill:#40cf40;"/>
   </g>
   <g id="patch_229">
    <path clip-path="url(#p6a4ae4428d)" d="
M525.751 106.888
L528.002 106.888
L528.002 95.1416
L525.751 95.1416
z
" style="fill:#4daf4a;"/>
   </g>
   <g id="patch_230">
    <path clip-path="url(#p6a4ae4428d)" d="
M528.857 105.321
L528.966 105.321
L528.966 93.5755
L528.857 93.5755
z
" style="fill:#40cf40;"/>
   </g>
   <g id="patch_231">
    <path clip-path="url(#p6a4ae4428d)" d="
M528.966 106.888
L530.257 106.888
L530.257 95.1416
L528.966 95.1416
z
" style="fill:#4daf4a;"/>
   </g>
   <g id="patch_232">
    <path clip-path="url(#p6a4ae4428d)" d="
M530.379 105.321
L532.425 105.321
L532.425 93.5755
L530.379 93.5755
z
" style="fill:#40cf40;"/>
   </g>
   <g id="patch_233">
    <path clip-path="url(#p6a4ae4428d)" d="
M532.552 106.888
L532.648 106.888
L532.648 95.1416
L532.552 95.1416
z
" style="fill:#4daf4a;"/>
   </g>
   <g id="patch_234">
    <path clip-path="url(#p6a4ae4428d)" d="
M532.757 108.062
L535.931 108.062
L535.931 96.3162
L532.757 96.3162
z
" style="fill:#b82525;"/>
   </g>
   <g id="patch_235">
    <path clip-path="url(#p6a4ae4428d)" d="
M535.931 106.888
L535.945 106.888
L535.945 95.1416
L535.931 95.1416
z
" style="fill:#4daf4a;"/>
   </g>
   <g id="patch_236">
    <path clip-path="url(#p6a4ae4428d)" d="
M536.594 105.321
L537.05 105.321
L537.05 93.5755
L536.594 93.5755
z
" style="fill:#40cf40;"/>
   </g>
   <g id="patch_237">
    <path clip-path="url(#p6a4ae4428d)" d="
M538.286 106.888
L538.53 106.888
L538.53 95.1416
L538.286 95.1416
z
" style="fill:#4daf4a;"/>
   </g>
   <g id="patch_238">
    <path clip-path="url(#p6a4ae4428d)" d="
M539.562 105.321
L539.937 105.321
L539.937 93.5755
L539.562 93.5755
z
" style="fill:#40cf40;"/>
   </g>
   <g id="patch_239">
    <path clip-path="url(#p6a4ae4428d)" d="
M540.446 106.888
L540.594 106.888
L540.594 95.1416
L540.446 95.1416
z
" style="fill:#4daf4a;"/>
   </g>
   <g id="patch_240">
    <path clip-path="url(#p6a4ae4428d)" d="
M541.227 105.321
L541.783 105.321
L541.783 93.5755
L541.227 93.5755
z
" style="fill:#40cf40;"/>
   </g>
   <g id="patch_241">
    <path clip-path="url(#p6a4ae4428d)" d="
M543.37 106.888
L551.62 106.888
L551.62 95.1416
L543.37 95.1416
z
" style="fill:#4daf4a;"/>
   </g>
   <g id="patch_242">
    <path clip-path="url(#p6a4ae4428d)" d="
M552.019 105.321
L552.324 105.321
L552.324 93.5755
L552.019 93.5755
z
" style="fill:#40cf40;"/>
   </g>
   <g id="patch_243">
    <path clip-path="url(#p6a4ae4428d)" d="
M552.324 106.888
L552.62 106.888
L552.62 95.1416
L552.324 95.1416
z
" style="fill:#4daf4a;"/>
   </g>
   <g id="patch_244">
    <path clip-path="url(#p6a4ae4428d)" d="
M553.078 105.321
L561.129 105.321
L561.129 93.5755
L553.078 93.5755
z
" style="fill:#40cf40;"/>
   </g>
   <g id="patch_245">
    <path clip-path="url(#p6a4ae4428d)" d="
M561.129 106.888
L561.478 106.888
L561.478 95.1416
L561.129 95.1416
z
" style="fill:#4daf4a;"/>
   </g>
   <g id="patch_246">
    <path clip-path="url(#p6a4ae4428d)" d="
M561.478 105.321
L561.638 105.321
L561.638 93.5755
L561.478 93.5755
z
" style="fill:#40cf40;"/>
   </g>
   <g id="patch_247">
    <path clip-path="url(#p6a4ae4428d)" d="
M561.655 106.888
L562.428 106.888
L562.428 95.1416
L561.655 95.1416
z
" style="fill:#4daf4a;"/>
   </g>
   <g id="patch_248">
    <path clip-path="url(#p6a4ae4428d)" d="
M562.428 105.321
L563.904 105.321
L563.904 93.5755
L562.428 93.5755
z
" style="fill:#40cf40;"/>
   </g>
   <g id="patch_249">
    <path clip-path="url(#p6a4ae4428d)" d="
M563.904 106.888
L564.026 106.888
L564.026 95.1416
L563.904 95.1416
z
" style="fill:#4daf4a;"/>
   </g>
   <g id="patch_250">
    <path clip-path="url(#p6a4ae4428d)" d="
M564.026 105.321
L564.936 105.321
L564.936 93.5755
L564.026 93.5755
z
" style="fill:#40cf40;"/>
   </g>
   <g id="patch_251">
    <path clip-path="url(#p6a4ae4428d)" d="
M564.936 106.888
L565.153 106.888
L565.153 95.1416
L564.936 95.1416
z
" style="fill:#4daf4a;"/>
   </g>
   <g id="patch_252">
    <path clip-path="url(#p6a4ae4428d)" d="
M565.154 105.321
L565.919 105.321
L565.919 93.5755
L565.154 93.5755
z
" style="fill:#40cf40;"/>
   </g>
   <g id="patch_253">
    <path clip-path="url(#p6a4ae4428d)" d="
M565.919 106.888
L566.652 106.888
L566.652 95.1416
L565.919 95.1416
z
" style="fill:#4daf4a;"/>
   </g>
   <g id="patch_254">
    <path clip-path="url(#p6a4ae4428d)" d="
M567.786 105.321
L567.958 105.321
L567.958 93.5755
L567.786 93.5755
z
" style="fill:#40cf40;"/>
   </g>
   <g id="patch_255">
    <path clip-path="url(#p6a4ae4428d)" d="
M569.406 106.888
L569.44 106.888
L569.44 95.1416
L569.406 95.1416
z
" style="fill:#4daf4a;"/>
   </g>
   <g id="patch_256">
    <path clip-path="url(#p6a4ae4428d)" d="
M569.947 105.321
L570.029 105.321
L570.029 93.5755
L569.947 93.5755
z
" style="fill:#40cf40;"/>
   </g>
   <g id="patch_257">
    <path clip-path="url(#p6a4ae4428d)" d="
M570.626 106.888
L570.664 106.888
L570.664 95.1416
L570.626 95.1416
z
" style="fill:#4daf4a;"/>
   </g>
   <g id="patch_258">
    <path clip-path="url(#p6a4ae4428d)" d="
M571.601 105.321
L571.633 105.321
L571.633 93.5755
L571.601 93.5755
z
" style="fill:#40cf40;"/>
   </g>
   <g id="patch_259">
    <path clip-path="url(#p6a4ae4428d)" d="
M572.605 106.888
L572.661 106.888
L572.661 95.1416
L572.605 95.1416
z
" style="fill:#4daf4a;"/>
   </g>
   <g id="patch_260">
    <path clip-path="url(#p6a4ae4428d)" d="
M573.411 105.321
L574.104 105.321
L574.104 93.5755
L573.411 93.5755
z
" style="fill:#40cf40;"/>
   </g>
   <g id="patch_261">
    <path clip-path="url(#p6a4ae4428d)" d="
M574.298 106.888
L575.156 106.888
L575.156 95.1416
L574.298 95.1416
z
" style="fill:#4daf4a;"/>
   </g>
   <g id="patch_262">
    <path clip-path="url(#p6a4ae4428d)" d="
M575.156 105.321
L575.424 105.321
L575.424 93.5755
L575.156 93.5755
z
" style="fill:#40cf40;"/>
   </g>
   <g id="patch_263">
    <path clip-path="url(#p6a4ae4428d)" d="
M575.424 106.888
L575.675 106.888
L575.675 95.1416
L575.424 95.1416
z
" style="fill:#4daf4a;"/>
   </g>
   <g id="patch_264">
    <path clip-path="url(#p6a4ae4428d)" d="
M575.675 105.321
L576.478 105.321
L576.478 93.5755
L575.675 93.5755
z
" style="fill:#40cf40;"/>
   </g>
   <g id="patch_265">
    <path clip-path="url(#p6a4ae4428d)" d="
M576.662 106.888
L579.397 106.888
L579.397 95.1416
L576.662 95.1416
z
" style="fill:#4daf4a;"/>
   </g>
   <g id="patch_266">
    <path clip-path="url(#p6a4ae4428d)" d="
M580.785 105.321
L592.287 105.321
L592.287 93.5755
L580.785 93.5755
z
" style="fill:#40cf40;"/>
   </g>
   <g id="patch_267">
    <path clip-path="url(#p6a4ae4428d)" d="
M592.784 106.888
L602.446 106.888
L602.446 95.1416
L592.784 95.1416
z
" style="fill:#4daf4a;"/>
   </g>
   <g id="patch_268">
    <path clip-path="url(#p6a4ae4428d)" d="
M603.278 105.321
L603.955 105.321
L603.955 93.5755
L603.278 93.5755
z
" style="fill:#40cf40;"/>
   </g>
   <g id="patch_269">
    <path clip-path="url(#p6a4ae4428d)" d="
M605.531 106.888
L605.898 106.888
L605.898 95.1416
L605.531 95.1416
z
" style="fill:#4daf4a;"/>
   </g>
   <g id="patch_270">
    <path clip-path="url(#p6a4ae4428d)" d="
M605.898 105.321
L608.286 105.321
L608.286 93.5755
L605.898 93.5755
z
" style="fill:#40cf40;"/>
   </g>
   <g id="patch_271">
    <path clip-path="url(#p6a4ae4428d)" d="
M608.286 106.888
L608.589 106.888
L608.589 95.1416
L608.286 95.1416
z
" style="fill:#4daf4a;"/>
   </g>
   <g id="patch_272">
    <path clip-path="url(#p6a4ae4428d)" d="
M608.589 105.321
L609.31 105.321
L609.31 93.5755
L608.589 93.5755
z
" style="fill:#40cf40;"/>
   </g>
   <g id="patch_273">
    <path clip-path="url(#p6a4ae4428d)" d="
M609.31 106.888
L609.468 106.888
L609.468 95.1416
L609.31 95.1416
z
" style="fill:#4daf4a;"/>
   </g>
   <g id="patch_274">
    <path clip-path="url(#p6a4ae4428d)" d="
M609.468 105.321
L609.651 105.321
L609.651 93.5755
L609.468 93.5755
z
" style="fill:#40cf40;"/>
   </g>
   <g id="patch_275">
    <path clip-path="url(#p6a4ae4428d)" d="
M609.675 106.888
L609.986 106.888
L609.986 95.1416
L609.675 95.1416
z
" style="fill:#4daf4a;"/>
   </g>
   <g id="patch_276">
    <path clip-path="url(#p6a4ae4428d)" d="
M610.01 105.321
L610.519 105.321
L610.519 93.5755
L610.01 93.5755
z
" style="fill:#40cf40;"/>
   </g>
   <g id="patch_277">
    <path clip-path="url(#p6a4ae4428d)" d="
M610.519 106.888
L610.892 106.888
L610.892 95.1416
L610.519 95.1416
z
" style="fill:#4daf4a;"/>
   </g>
   <g id="patch_278">
    <path clip-path="url(#p6a4ae4428d)" d="
M611.06 105.321
L615.622 105.321
L615.622 93.5755
L611.06 93.5755
z
" style="fill:#40cf40;"/>
   </g>
   <g id="patch_279">
    <path clip-path="url(#p6a4ae4428d)" d="
M616.398 106.888
L618.378 106.888
L618.378 95.1416
L616.398 95.1416
z
" style="fill:#4daf4a;"/>
   </g>
   <g id="patch_280">
    <path clip-path="url(#p6a4ae4428d)" d="
M619.578 105.321
L619.61 105.321
L619.61 93.5755
L619.578 93.5755
z
" style="fill:#40cf40;"/>
   </g>
   <g id="patch_281">
    <path clip-path="url(#p6a4ae4428d)" d="
M620.101 106.888
L620.23 106.888
L620.23 95.1416
L620.101 95.1416
z
" style="fill:#4daf4a;"/>
   </g>
   <g id="patch_282">
    <path clip-path="url(#p6a4ae4428d)" d="
M620.23 105.321
L622.171 105.321
L622.171 93.5755
L620.23 93.5755
z
" style="fill:#40cf40;"/>
   </g>
   <g id="patch_283">
    <path clip-path="url(#p6a4ae4428d)" d="
M622.171 106.888
L622.721 106.888
L622.721 95.1416
L622.171 95.1416
z
" style="fill:#4daf4a;"/>
   </g>
   <g id="patch_284">
    <path clip-path="url(#p6a4ae4428d)" d="
M622.721 105.321
L622.969 105.321
L622.969 93.5755
L622.721 93.5755
z
" style="fill:#40cf40;"/>
   </g>
   <g id="patch_285">
    <path clip-path="url(#p6a4ae4428d)" d="
M623.06 106.888
L623.406 106.888
L623.406 95.1416
L623.06 95.1416
z
" style="fill:#4daf4a;"/>
   </g>
   <g id="patch_286">
    <path clip-path="url(#p6a4ae4428d)" d="
M624.027 105.321
L624.287 105.321
L624.287 93.5755
L624.027 93.5755
z
" style="fill:#40cf40;"/>
   </g>
   <g id="patch_287">
    <path clip-path="url(#p6a4ae4428d)" d="
M624.54 106.888
L624.706 106.888
L624.706 95.1416
L624.54 95.1416
z
" style="fill:#4daf4a;"/>
   </g>
   <g id="patch_288">
    <path clip-path="url(#p6a4ae4428d)" d="
M624.771 105.321
L630.177 105.321
L630.177 93.5755
L624.771 93.5755
z
" style="fill:#40cf40;"/>
   </g>
   <g id="patch_289">
    <path clip-path="url(#p6a4ae4428d)" d="
M630.177 106.888
L630.234 106.888
L630.234 95.1416
L630.177 95.1416
z
" style="fill:#4daf4a;"/>
   </g>
   <g id="patch_290">
    <path clip-path="url(#p6a4ae4428d)" d="
M630.25 105.321
L631.073 105.321
L631.073 93.5755
L630.25 93.5755
z
" style="fill:#40cf40;"/>
   </g>
   <g id="patch_291">
    <path clip-path="url(#p6a4ae4428d)" d="
M631.073 106.888
L631.318 106.888
L631.318 95.1416
L631.073 95.1416
z
" style="fill:#4daf4a;"/>
   </g>
   <g id="patch_292">
    <path clip-path="url(#p6a4ae4428d)" d="
M631.377 105.321
L631.663 105.321
L631.663 93.5755
L631.377 93.5755
z
" style="fill:#40cf40;"/>
   </g>
   <g id="patch_293">
    <path clip-path="url(#p6a4ae4428d)" d="
M631.663 106.888
L631.697 106.888
L631.697 95.1416
L631.663 95.1416
z
" style="fill:#4daf4a;"/>
   </g>
   <g id="patch_294">
    <path clip-path="url(#p6a4ae4428d)" d="
M631.743 105.321
L631.772 105.321
L631.772 93.5755
L631.743 93.5755
z
" style="fill:#40cf40;"/>
   </g>
   <g id="patch_295">
    <path clip-path="url(#p6a4ae4428d)" d="
M631.846 106.888
L631.875 106.888
L631.875 95.1416
L631.846 95.1416
z
" style="fill:#4daf4a;"/>
   </g>
   <g id="patch_296">
    <path clip-path="url(#p6a4ae4428d)" d="
M632.065 105.321
L632.228 105.321
L632.228 93.5755
L632.065 93.5755
z
" style="fill:#40cf40;"/>
   </g>
   <g id="patch_297">
    <path clip-path="url(#p6a4ae4428d)" d="
M632.229 106.888
L632.669 106.888
L632.669 95.1416
L632.229 95.1416
z
" style="fill:#4daf4a;"/>
   </g>
   <g id="patch_298">
    <path clip-path="url(#p6a4ae4428d)" d="
M632.736 105.321
L637.349 105.321
L637.349 93.5755
L632.736 93.5755
z
" style="fill:#40cf40;"/>
   </g>
   <g id="patch_299">
    <path clip-path="url(#p6a4ae4428d)" d="
M637.349 106.888
L637.525 106.888
L637.525 95.1416
L637.349 95.1416
z
" style="fill:#4daf4a;"/>
   </g>
   <g id="patch_300">
    <path clip-path="url(#p6a4ae4428d)" d="
M637.525 105.321
L640.999 105.321
L640.999 93.5755
L637.525 93.5755
z
" style="fill:#40cf40;"/>
   </g>
   <g id="patch_301">
    <path clip-path="url(#p6a4ae4428d)" d="
M641.058 106.888
L641.468 106.888
L641.468 95.1416
L641.058 95.1416
z
" style="fill:#4daf4a;"/>
   </g>
   <g id="patch_302">
    <path clip-path="url(#p6a4ae4428d)" d="
M641.469 105.321
L642.267 105.321
L642.267 93.5755
L641.469 93.5755
z
" style="fill:#40cf40;"/>
   </g>
   <g id="patch_303">
    <path clip-path="url(#p6a4ae4428d)" d="
M642.357 106.888
L644.166 106.888
L644.166 95.1416
L642.357 95.1416
z
" style="fill:#4daf4a;"/>
   </g>
   <g id="patch_304">
    <path clip-path="url(#p6a4ae4428d)" d="
M644.166 105.321
L644.327 105.321
L644.327 93.5755
L644.166 93.5755
z
" style="fill:#40cf40;"/>
   </g>
   <g id="patch_305">
    <path clip-path="url(#p6a4ae4428d)" d="
M645.921 106.888
L645.955 106.888
L645.955 95.1416
L645.921 95.1416
z
" style="fill:#4daf4a;"/>
   </g>
   <g id="patch_306">
    <path clip-path="url(#p6a4ae4428d)" d="
M646.203 105.321
L646.235 105.321
L646.235 93.5755
L646.203 93.5755
z
" style="fill:#40cf40;"/>
   </g>
   <g id="patch_307">
    <path clip-path="url(#p6a4ae4428d)" d="
M646.651 106.888
L647.52 106.888
L647.52 95.1416
L646.651 95.1416
z
" style="fill:#4daf4a;"/>
   </g>
   <g id="patch_308">
    <path clip-path="url(#p6a4ae4428d)" d="
M649.145 105.321
L649.178 105.321
L649.178 93.5755
L649.145 93.5755
z
" style="fill:#40cf40;"/>
   </g>
   <g id="patch_309">
    <path clip-path="url(#p6a4ae4428d)" d="
M649.321 106.888
L650.743 106.888
L650.743 95.1416
L649.321 95.1416
z
" style="fill:#4daf4a;"/>
   </g>
   <g id="patch_310">
    <path clip-path="url(#p6a4ae4428d)" d="
M651.89 105.321
L652.131 105.321
L652.131 93.5755
L651.89 93.5755
z
" style="fill:#40cf40;"/>
   </g>
   <g id="patch_311">
    <path clip-path="url(#p6a4ae4428d)" d="
M652.131 106.888
L652.246 106.888
L652.246 95.1416
L652.131 95.1416
z
" style="fill:#4daf4a;"/>
   </g>
   <g id="patch_312">
    <path clip-path="url(#p6a4ae4428d)" d="
M652.246 105.321
L652.302 105.321
L652.302 93.5755
L652.246 93.5755
z
" style="fill:#40cf40;"/>
   </g>
   <g id="patch_313">
    <path clip-path="url(#p6a4ae4428d)" d="
M652.302 106.888
L653.466 106.888
L653.466 95.1416
L652.302 95.1416
z
" style="fill:#4daf4a;"/>
   </g>
   <g id="patch_314">
    <path clip-path="url(#p6a4ae4428d)" d="
M653.518 105.321
L655.425 105.321
L655.425 93.5755
L653.518 93.5755
z
" style="fill:#40cf40;"/>
   </g>
   <g id="patch_315">
    <path clip-path="url(#p6a4ae4428d)" d="
M655.425 106.888
L655.517 106.888
L655.517 95.1416
L655.425 95.1416
z
" style="fill:#4daf4a;"/>
   </g>
   <g id="patch_316">
    <path clip-path="url(#p6a4ae4428d)" d="
M655.715 105.321
L657.063 105.321
L657.063 93.5755
L655.715 93.5755
z
" style="fill:#40cf40;"/>
   </g>
   <g id="patch_317">
    <path clip-path="url(#p6a4ae4428d)" d="
M657.063 106.888
L657.392 106.888
L657.392 95.1416
L657.063 95.1416
z
" style="fill:#4daf4a;"/>
   </g>
   <g id="patch_318">
    <path clip-path="url(#p6a4ae4428d)" d="
M657.451 105.321
L658.026 105.321
L658.026 93.5755
L657.451 93.5755
z
" style="fill:#40cf40;"/>
   </g>
   <g id="patch_319">
    <path clip-path="url(#p6a4ae4428d)" d="
M658.026 106.888
L658.203 106.888
L658.203 95.1416
L658.026 95.1416
z
" style="fill:#4daf4a;"/>
   </g>
   <g id="patch_320">
    <path clip-path="url(#p6a4ae4428d)" d="
M658.267 105.321
L658.306 105.321
L658.306 93.5755
L658.267 93.5755
z
" style="fill:#40cf40;"/>
   </g>
   <g id="patch_321">
    <path clip-path="url(#p6a4ae4428d)" d="
M658.327 106.888
L659.71 106.888
L659.71 95.1416
L658.327 95.1416
z
" style="fill:#4daf4a;"/>
   </g>
   <g id="patch_322">
    <path clip-path="url(#p6a4ae4428d)" d="
M659.848 105.321
L663.824 105.321
L663.824 93.5755
L659.848 93.5755
z
" style="fill:#40cf40;"/>
   </g>
   <g id="patch_323">
    <path clip-path="url(#p6a4ae4428d)" d="
M663.897 106.888
L664.287 106.888
L664.287 95.1416
L663.897 95.1416
z
" style="fill:#4daf4a;"/>
   </g>
   <g id="patch_324">
    <path clip-path="url(#p6a4ae4428d)" d="
M664.489 105.321
L664.529 105.321
L664.529 93.5755
L664.489 93.5755
z
" style="fill:#40cf40;"/>
   </g>
   <g id="patch_325">
    <path clip-path="url(#p6a4ae4428d)" d="
M664.692 106.888
L667.962 106.888
L667.962 95.1416
L664.692 95.1416
z
" style="fill:#4daf4a;"/>
   </g>
   <g id="patch_326">
    <path clip-path="url(#p6a4ae4428d)" d="
M671.019 105.321
L671.428 105.321
L671.428 93.5755
L671.019 93.5755
z
" style="fill:#40cf40;"/>
   </g>
   <g id="patch_327">
    <path clip-path="url(#p6a4ae4428d)" d="
M671.428 106.888
L672.796 106.888
L672.796 95.1416
L671.428 95.1416
z
" style="fill:#4daf4a;"/>
   </g>
   <g id="patch_328">
    <path clip-path="url(#p6a4ae4428d)" d="
M672.803 105.321
L672.841 105.321
L672.841 93.5755
L672.803 93.5755
z
" style="fill:#40cf40;"/>
   </g>
   <g id="patch_329">
    <path clip-path="url(#p6a4ae4428d)" d="
M674.453 106.888
L674.575 106.888
L674.575 95.1416
L674.453 95.1416
z
" style="fill:#4daf4a;"/>
   </g>
   <g id="patch_330">
    <path clip-path="url(#p6a4ae4428d)" d="
M674.801 105.321
L675.473 105.321
L675.473 93.5755
L674.801 93.5755
z
" style="fill:#40cf40;"/>
   </g>
   <g id="patch_331">
    <path clip-path="url(#p6a4ae4428d)" d="
M676.146 106.888
L676.175 106.888
L676.175 95.1416
L676.146 95.1416
z
" style="fill:#4daf4a;"/>
   </g>
   <g id="patch_332">
    <path clip-path="url(#p6a4ae4428d)" d="
M676.618 105.321
L677.392 105.321
L677.392 93.5755
L676.618 93.5755
z
" style="fill:#40cf40;"/>
   </g>
   <g id="patch_333">
    <path clip-path="url(#p6a4ae4428d)" d="
M677.392 106.888
L677.508 106.888
L677.508 95.1416
L677.392 95.1416
z
" style="fill:#4daf4a;"/>
   </g>
   <g id="patch_334">
    <path clip-path="url(#p6a4ae4428d)" d="
M677.508 105.321
L679.013 105.321
L679.013 93.5755
L677.508 93.5755
z
" style="fill:#40cf40;"/>
   </g>
   <g id="patch_335">
    <path clip-path="url(#p6a4ae4428d)" d="
M679.658 106.888
L683.176 106.888
L683.176 95.1416
L679.658 95.1416
z
" style="fill:#4daf4a;"/>
   </g>
   <g id="patch_336">
    <path clip-path="url(#p6a4ae4428d)" d="
M684.037 105.321
L684.126 105.321
L684.126 93.5755
L684.037 93.5755
z
" style="fill:#40cf40;"/>
   </g>
   <g id="patch_337">
    <path clip-path="url(#p6a4ae4428d)" d="
M684.126 106.888
L684.633 106.888
L684.633 95.1416
L684.126 95.1416
z
" style="fill:#4daf4a;"/>
   </g>
   <g id="patch_338">
    <path clip-path="url(#p6a4ae4428d)" d="
M684.711 105.321
L684.739 105.321
L684.739 93.5755
L684.711 93.5755
z
" style="fill:#40cf40;"/>
   </g>
   <g id="patch_339">
    <path clip-path="url(#p6a4ae4428d)" d="
M685.382 106.888
L685.416 106.888
L685.416 95.1416
L685.382 95.1416
z
" style="fill:#4daf4a;"/>
   </g>
   <g id="patch_340">
    <path clip-path="url(#p6a4ae4428d)" d="
M685.763 105.321
L686.012 105.321
L686.012 93.5755
L685.763 93.5755
z
" style="fill:#40cf40;"/>
   </g>
   <g id="patch_341">
    <path clip-path="url(#p6a4ae4428d)" d="
M686.118 106.888
L688.35 106.888
L688.35 95.1416
L686.118 95.1416
z
" style="fill:#4daf4a;"/>
   </g>
   <g id="patch_342">
    <path clip-path="url(#p6a4ae4428d)" d="
M688.398 108.062
L689.755 108.062
L689.755 96.3162
L688.398 96.3162
z
" style="fill:#b82525;"/>
   </g>
   <g id="patch_343">
    <path clip-path="url(#p6a4ae4428d)" d="
M689.755 106.888
L690.106 106.888
L690.106 95.1416
L689.755 95.1416
z
" style="fill:#4daf4a;"/>
   </g>
   <g id="patch_344">
    <path clip-path="url(#p6a4ae4428d)" d="
M690.119 105.321
L690.27 105.321
L690.27 93.5755
L690.119 93.5755
z
" style="fill:#40cf40;"/>
   </g>
   <g id="patch_345">
    <path clip-path="url(#p6a4ae4428d)" d="
M690.27 106.888
L694.652 106.888
L694.652 95.1416
L690.27 95.1416
z
" style="fill:#4daf4a;"/>
   </g>
   <g id="patch_346">
    <path clip-path="url(#p6a4ae4428d)" d="
M695.151 105.321
L695.208 105.321
L695.208 93.5755
L695.151 93.5755
z
" style="fill:#40cf40;"/>
   </g>
   <g id="patch_347">
    <path clip-path="url(#p6a4ae4428d)" d="
M695.208 106.888
L700.234 106.888
L700.234 95.1416
L695.208 95.1416
z
" style="fill:#4daf4a;"/>
   </g>
   <g id="patch_348">
    <path clip-path="url(#p6a4ae4428d)" d="
M700.234 105.321
L700.256 105.321
L700.256 93.5755
L700.234 93.5755
z
" style="fill:#40cf40;"/>
   </g>
   <g id="patch_349">
    <path clip-path="url(#p6a4ae4428d)" d="
M700.256 106.888
L701.745 106.888
L701.745 95.1416
L700.256 95.1416
z
" style="fill:#4daf4a;"/>
   </g>
   <g id="patch_350">
    <path clip-path="url(#p6a4ae4428d)" d="
M702.478 105.321
L703.793 105.321
L703.793 93.5755
L702.478 93.5755
z
" style="fill:#40cf40;"/>
   </g>
   <g id="patch_351">
    <path clip-path="url(#p6a4ae4428d)" d="
M704.378 106.888
L704.548 106.888
L704.548 95.1416
L704.378 95.1416
z
" style="fill:#4daf4a;"/>
   </g>
   <g id="patch_352">
    <path clip-path="url(#p6a4ae4428d)" d="
M705.145 105.321
L705.278 105.321
L705.278 93.5755
L705.145 93.5755
z
" style="fill:#40cf40;"/>
   </g>
   <g id="patch_353">
    <path clip-path="url(#p6a4ae4428d)" d="
M706.126 106.888
L707.786 106.888
L707.786 95.1416
L706.126 95.1416
z
" style="fill:#4daf4a;"/>
   </g>
   <g id="patch_354">
    <path clip-path="url(#p6a4ae4428d)" d="
M708.307 105.321
L710.138 105.321
L710.138 93.5755
L708.307 93.5755
z
" style="fill:#40cf40;"/>
   </g>
   <g id="patch_355">
    <path clip-path="url(#p6a4ae4428d)" d="
M711.034 106.888
L712.868 106.888
L712.868 95.1416
L711.034 95.1416
z
" style="fill:#4daf4a;"/>
   </g>
   <g id="patch_356">
    <path clip-path="url(#p6a4ae4428d)" d="
M712.868 105.321
L712.894 105.321
L712.894 93.5755
L712.868 93.5755
z
" style="fill:#40cf40;"/>
   </g>
   <g id="line2d_1">
    <path clip-path="url(#p6a4ae4428d)" d="
M182.801 66.56
L448.406 66.56" style="fill:none;stroke:#000000;stroke-linecap:square;stroke-width:0.5;"/>
   </g>
   <g id="line2d_2">
    <path clip-path="url(#p6a4ae4428d)" d="
M182.801 15.6612
L182.801 109.628" style="fill:none;stroke:#808080;stroke-dasharray:1.000000,3.000000;stroke-dashoffset:0.0;stroke-width:0.2;"/>
   </g>
   <g id="line2d_3">
    <path clip-path="url(#p6a4ae4428d)" d="
M182.801 66.56
L182.801 68.9092" style="fill:none;stroke:#000000;stroke-linecap:square;stroke-width:0.5;"/>
   </g>
   <g id="line2d_4">
    <path clip-path="url(#p6a4ae4428d)" d="
M240.023 15.6612
L240.023 109.628" style="fill:none;stroke:#808080;stroke-dasharray:1.000000,3.000000;stroke-dashoffset:0.0;stroke-width:0.2;"/>
   </g>
   <g id="line2d_5">
    <path clip-path="url(#p6a4ae4428d)" d="
M240.023 66.56
L240.023 68.9092" style="fill:none;stroke:#000000;stroke-linecap:square;stroke-width:0.5;"/>
   </g>
   <g id="line2d_6">
    <path clip-path="url(#p6a4ae4428d)" d="
M297.245 15.6612
L297.245 109.628" style="fill:none;stroke:#808080;stroke-dasharray:1.000000,3.000000;stroke-dashoffset:0.0;stroke-width:0.2;"/>
   </g>
   <g id="line2d_7">
    <path clip-path="url(#p6a4ae4428d)" d="
M297.245 66.56
L297.245 68.9092" style="fill:none;stroke:#000000;stroke-linecap:square;stroke-width:0.5;"/>
   </g>
   <g id="line2d_8">
    <path clip-path="url(#p6a4ae4428d)" d="
M354.467 15.6612
L354.467 109.628" style="fill:none;stroke:#808080;stroke-dasharray:1.000000,3.000000;stroke-dashoffset:0.0;stroke-width:0.2;"/>
   </g>
   <g id="line2d_9">
    <path clip-path="url(#p6a4ae4428d)" d="
M354.467 66.56
L354.467 68.9092" style="fill:none;stroke:#000000;stroke-linecap:square;stroke-width:0.5;"/>
   </g>
   <g id="line2d_10">
    <path clip-path="url(#p6a4ae4428d)" d="
M411.689 15.6612
L411.689 109.628" style="fill:none;stroke:#808080;stroke-dasharray:1.000000,3.000000;stroke-dashoffset:0.0;stroke-width:0.2;"/>
   </g>
   <g id="line2d_11">
    <path clip-path="url(#p6a4ae4428d)" d="
M411.689 66.56
L411.689 68.9092" style="fill:none;stroke:#000000;stroke-linecap:square;stroke-width:0.5;"/>
   </g>
   <g id="line2d_12">
    <path clip-path="url(#p6a4ae4428d)" d="
M448.406 15.6612
L448.406 109.628" style="fill:none;stroke:#808080;stroke-dasharray:1.000000,3.000000;stroke-dashoffset:0.0;stroke-width:0.2;"/>
   </g>
   <g id="line2d_13">
    <path clip-path="url(#p6a4ae4428d)" d="
M448.406 66.56
L448.406 68.9092" style="fill:none;stroke:#000000;stroke-linecap:square;stroke-width:0.5;"/>
   </g>
   <g id="line2d_14">
    <path clip-path="url(#p6a4ae4428d)" d="
M448.412 66.56
L714.017 66.56" style="fill:none;stroke:#000000;stroke-linecap:square;stroke-width:0.5;"/>
   </g>
   <g id="line2d_15">
    <path clip-path="url(#p6a4ae4428d)" d="
M448.412 15.6612
L448.412 109.628" style="fill:none;stroke:#808080;stroke-dasharray:1.000000,3.000000;stroke-dashoffset:0.0;stroke-width:0.2;"/>
   </g>
   <g id="line2d_16">
    <path clip-path="url(#p6a4ae4428d)" d="
M448.412 66.56
L448.412 68.9092" style="fill:none;stroke:#000000;stroke-linecap:square;stroke-width:0.5;"/>
   </g>
   <g id="line2d_17">
    <path clip-path="url(#p6a4ae4428d)" d="
M505.634 15.6612
L505.634 109.628" style="fill:none;stroke:#808080;stroke-dasharray:1.000000,3.000000;stroke-dashoffset:0.0;stroke-width:0.2;"/>
   </g>
   <g id="line2d_18">
    <path clip-path="url(#p6a4ae4428d)" d="
M505.634 66.56
L505.634 68.9092" style="fill:none;stroke:#000000;stroke-linecap:square;stroke-width:0.5;"/>
   </g>
   <g id="line2d_19">
    <path clip-path="url(#p6a4ae4428d)" d="
M562.856 15.6612
L562.856 109.628" style="fill:none;stroke:#808080;stroke-dasharray:1.000000,3.000000;stroke-dashoffset:0.0;stroke-width:0.2;"/>
   </g>
   <g id="line2d_20">
    <path clip-path="url(#p6a4ae4428d)" d="
M562.856 66.56
L562.856 68.9092" style="fill:none;stroke:#000000;stroke-linecap:square;stroke-width:0.5;"/>
   </g>
   <g id="line2d_21">
    <path clip-path="url(#p6a4ae4428d)" d="
M620.078 15.6612
L620.078 109.628" style="fill:none;stroke:#808080;stroke-dasharray:1.000000,3.000000;stroke-dashoffset:0.0;stroke-width:0.2;"/>
   </g>
   <g id="line2d_22">
    <path clip-path="url(#p6a4ae4428d)" d="
M620.078 66.56
L620.078 68.9092" style="fill:none;stroke:#000000;stroke-linecap:square;stroke-width:0.5;"/>
   </g>
   <g id="line2d_23">
    <path clip-path="url(#p6a4ae4428d)" d="
M677.3 15.6612
L677.3 109.628" style="fill:none;stroke:#808080;stroke-dasharray:1.000000,3.000000;stroke-dashoffset:0.0;stroke-width:0.2;"/>
   </g>
   <g id="line2d_24">
    <path clip-path="url(#p6a4ae4428d)" d="
M677.3 66.56
L677.3 68.9092" style="fill:none;stroke:#000000;stroke-linecap:square;stroke-width:0.5;"/>
   </g>
   <g id="line2d_25">
    <path clip-path="url(#p6a4ae4428d)" d="
M714.017 15.6612
L714.017 109.628" style="fill:none;stroke:#808080;stroke-dasharray:1.000000,3.000000;stroke-dashoffset:0.0;stroke-width:0.2;"/>
   </g>
   <g id="line2d_26">
    <path clip-path="url(#p6a4ae4428d)" d="
M714.017 66.56
L714.017 68.9092" style="fill:none;stroke:#000000;stroke-linecap:square;stroke-width:0.5;"/>
   </g>
   <g id="text_1">
    <!-- 0.0 -->
    <defs>
     <path d="
M31.7812 66.4062
Q24.1719 66.4062 20.3281 58.9062
Q16.5 51.4219 16.5 36.375
Q16.5 21.3906 20.3281 13.8906
Q24.1719 6.39062 31.7812 6.39062
Q39.4531 6.39062 43.2812 13.8906
Q47.125 21.3906 47.125 36.375
Q47.125 51.4219 43.2812 58.9062
Q39.4531 66.4062 31.7812 66.4062
M31.7812 74.2188
Q44.0469 74.2188 50.5156 64.5156
Q56.9844 54.8281 56.9844 36.375
Q56.9844 17.9688 50.5156 8.26562
Q44.0469 -1.42188 31.7812 -1.42188
Q19.5312 -1.42188 13.0625 8.26562
Q6.59375 17.9688 6.59375 36.375
Q6.59375 54.8281 13.0625 64.5156
Q19.5312 74.2188 31.7812 74.2188" id="DejaVuSans-30"/>
     <path d="
M10.6875 12.4062
L21 12.4062
L21 0
L10.6875 0
z
" id="DejaVuSans-2e"/>
    </defs>
    <g transform="translate(184.67568 74.9879264706)scale(0.08 -0.08)">
     <use xlink:href="#DejaVuSans-30"/>
     <use x="63.623046875" xlink:href="#DejaVuSans-2e"/>
     <use x="95.41015625" xlink:href="#DejaVuSans-30"/>
    </g>
   </g>
   <g id="text_2">
    <!-- 1.0 -->
    <defs>
     <path d="
M12.4062 8.29688
L28.5156 8.29688
L28.5156 63.9219
L10.9844 60.4062
L10.9844 69.3906
L28.4219 72.9062
L38.2812 72.9062
L38.2812 8.29688
L54.3906 8.29688
L54.3906 0
L12.4062 0
z
" id="DejaVuSans-31"/>
    </defs>
    <g transform="translate(241.897793785 74.9879264706)scale(0.08 -0.08)">
     <use xlink:href="#DejaVuSans-31"/>
     <use x="63.623046875" xlink:href="#DejaVuSans-2e"/>
     <use x="95.41015625" xlink:href="#DejaVuSans-30"/>
    </g>
   </g>
   <g id="text_3">
    <!-- 2.0 -->
    <defs>
     <path d="
M19.1875 8.29688
L53.6094 8.29688
L53.6094 0
L7.32812 0
L7.32812 8.29688
Q12.9375 14.1094 22.625 23.8906
Q32.3281 33.6875 34.8125 36.5312
Q39.5469 41.8438 41.4219 45.5312
Q43.3125 49.2188 43.3125 52.7812
Q43.3125 58.5938 39.2344 62.25
Q35.1562 65.9219 28.6094 65.9219
Q23.9688 65.9219 18.8125 64.3125
Q13.6719 62.7031 7.8125 59.4219
L7.8125 69.3906
Q13.7656 71.7812 18.9375 73
Q24.125 74.2188 28.4219 74.2188
Q39.75 74.2188 46.4844 68.5469
Q53.2188 62.8906 53.2188 53.4219
Q53.2188 48.9219 51.5312 44.8906
Q49.8594 40.875 45.4062 35.4062
Q44.1875 33.9844 37.6406 27.2188
Q31.1094 20.4531 19.1875 8.29688" id="DejaVuSans-32"/>
    </defs>
    <g transform="translate(299.11990757 74.9879264706)scale(0.08 -0.08)">
     <use xlink:href="#DejaVuSans-32"/>
     <use x="63.623046875" xlink:href="#DejaVuSans-2e"/>
     <use x="95.41015625" xlink:href="#DejaVuSans-30"/>
    </g>
   </g>
   <g id="text_4">
    <!-- 3.0 -->
    <defs>
     <path d="
M40.5781 39.3125
Q47.6562 37.7969 51.625 33
Q55.6094 28.2188 55.6094 21.1875
Q55.6094 10.4062 48.1875 4.48438
Q40.7656 -1.42188 27.0938 -1.42188
Q22.5156 -1.42188 17.6562 -0.515625
Q12.7969 0.390625 7.625 2.20312
L7.625 11.7188
Q11.7188 9.32812 16.5938 8.10938
Q21.4844 6.89062 26.8125 6.89062
Q36.0781 6.89062 40.9375 10.5469
Q45.7969 14.2031 45.7969 21.1875
Q45.7969 27.6406 41.2812 31.2656
Q36.7656 34.9062 28.7188 34.9062
L20.2188 34.9062
L20.2188 43.0156
L29.1094 43.0156
Q36.375 43.0156 40.2344 45.9219
Q44.0938 48.8281 44.0938 54.2969
Q44.0938 59.9062 40.1094 62.9062
Q36.1406 65.9219 28.7188 65.9219
Q24.6562 65.9219 20.0156 65.0312
Q15.375 64.1562 9.8125 62.3125
L9.8125 71.0938
Q15.4375 72.6562 20.3438 73.4375
Q25.25 74.2188 29.5938 74.2188
Q40.8281 74.2188 47.3594 69.1094
Q53.9062 64.0156 53.9062 55.3281
Q53.9062 49.2656 50.4375 45.0938
Q46.9688 40.9219 40.5781 39.3125" id="DejaVuSans-33"/>
    </defs>
    <g transform="translate(356.342021355 74.9879264706)scale(0.08 -0.08)">
     <use xlink:href="#DejaVuSans-33"/>
     <use x="63.623046875" xlink:href="#DejaVuSans-2e"/>
     <use x="95.41015625" xlink:href="#DejaVuSans-30"/>
    </g>
   </g>
   <g id="text_5">
    <!-- 4.0 -->
    <defs>
     <path d="
M37.7969 64.3125
L12.8906 25.3906
L37.7969 25.3906
z

M35.2031 72.9062
L47.6094 72.9062
L47.6094 25.3906
L58.0156 25.3906
L58.0156 17.1875
L47.6094 17.1875
L47.6094 0
L37.7969 0
L37.7969 17.1875
L4.89062 17.1875
L4.89062 26.7031
z
" id="DejaVuSans-34"/>
    </defs>
    <g transform="translate(413.56413514 74.9879264706)scale(0.08 -0.08)">
     <use xlink:href="#DejaVuSans-34"/>
     <use x="63.623046875" xlink:href="#DejaVuSans-2e"/>
     <use x="95.41015625" xlink:href="#DejaVuSans-30"/>
    </g>
   </g>
   <g id="text_6">
    <!-- 4.64 -->
    <defs>
     <path d="
M33.0156 40.375
Q26.375 40.375 22.4844 35.8281
Q18.6094 31.2969 18.6094 23.3906
Q18.6094 15.5312 22.4844 10.9531
Q26.375 6.39062 33.0156 6.39062
Q39.6562 6.39062 43.5312 10.9531
Q47.4062 15.5312 47.4062 23.3906
Q47.4062 31.2969 43.5312 35.8281
Q39.6562 40.375 33.0156 40.375
M52.5938 71.2969
L52.5938 62.3125
Q48.875 64.0625 45.0938 64.9844
Q41.3125 65.9219 37.5938 65.9219
Q27.8281 65.9219 22.6719 59.3281
Q17.5312 52.7344 16.7969 39.4062
Q19.6719 43.6562 24.0156 45.9219
Q28.375 48.1875 33.5938 48.1875
Q44.5781 48.1875 50.9531 41.5156
Q57.3281 34.8594 57.3281 23.3906
Q57.3281 12.1562 50.6875 5.35938
Q44.0469 -1.42188 33.0156 -1.42188
Q20.3594 -1.42188 13.6719 8.26562
Q6.98438 17.9688 6.98438 36.375
Q6.98438 53.6562 15.1875 63.9375
Q23.3906 74.2188 37.2031 74.2188
Q40.9219 74.2188 44.7031 73.4844
Q48.4844 72.75 52.5938 71.2969" id="DejaVuSans-36"/>
    </defs>
    <g transform="translate(450.280818894 74.9879264706)scale(0.08 -0.08)">
     <use xlink:href="#DejaVuSans-34"/>
     <use x="63.623046875" xlink:href="#DejaVuSans-2e"/>
     <use x="95.41015625" xlink:href="#DejaVuSans-36"/>
     <use x="159.033203125" xlink:href="#DejaVuSans-34"/>
    </g>
   </g>
   <g id="text_7">
    <!-- chr_0 (.._Ancestor_) -->
    <defs>
     <path d="
M8.01562 75.875
L15.8281 75.875
Q23.1406 64.3594 26.7812 53.3125
Q30.4219 42.2812 30.4219 31.3906
Q30.4219 20.4531 26.7812 9.375
Q23.1406 -1.70312 15.8281 -13.1875
L8.01562 -13.1875
Q14.5 -2 17.7031 9.0625
Q20.9062 20.125 20.9062 31.3906
Q20.9062 42.6719 17.7031 53.6562
Q14.5 64.6562 8.01562 75.875" id="DejaVuSans-29"/>
     <path d="
M30.6094 48.3906
Q23.3906 48.3906 19.1875 42.75
Q14.9844 37.1094 14.9844 27.2969
Q14.9844 17.4844 19.1562 11.8438
Q23.3438 6.20312 30.6094 6.20312
Q37.7969 6.20312 41.9844 11.8594
Q46.1875 17.5312 46.1875 27.2969
Q46.1875 37.0156 41.9844 42.7031
Q37.7969 48.3906 30.6094 48.3906
M30.6094 56
Q42.3281 56 49.0156 48.375
Q55.7188 40.7656 55.7188 27.2969
Q55.7188 13.875 49.0156 6.21875
Q42.3281 -1.42188 30.6094 -1.42188
Q18.8438 -1.42188 12.1719 6.21875
Q5.51562 13.875 5.51562 27.2969
Q5.51562 40.7656 12.1719 48.375
Q18.8438 56 30.6094 56" id="DejaVuSans-6f"/>
     <path d="
M54.8906 33.0156
L54.8906 0
L45.9062 0
L45.9062 32.7188
Q45.9062 40.4844 42.875 44.3281
Q39.8438 48.1875 33.7969 48.1875
Q26.5156 48.1875 22.3125 43.5469
Q18.1094 38.9219 18.1094 30.9062
L18.1094 0
L9.07812 0
L9.07812 54.6875
L18.1094 54.6875
L18.1094 46.1875
Q21.3438 51.125 25.7031 53.5625
Q30.0781 56 35.7969 56
Q45.2188 56 50.0469 50.1719
Q54.8906 44.3438 54.8906 33.0156" id="DejaVuSans-6e"/>
     <path d="
M50.9844 -16.6094
L50.9844 -23.5781
L-0.984375 -23.5781
L-0.984375 -16.6094
z
" id="DejaVuSans-5f"/>
     <path id="DejaVuSans-20"/>
     <path d="
M34.1875 63.1875
L20.7969 26.9062
L47.6094 26.9062
z

M28.6094 72.9062
L39.7969 72.9062
L67.5781 0
L57.3281 0
L50.6875 18.7031
L17.8281 18.7031
L11.1875 0
L0.78125 0
z
" id="DejaVuSans-41"/>
     <path d="
M54.8906 33.0156
L54.8906 0
L45.9062 0
L45.9062 32.7188
Q45.9062 40.4844 42.875 44.3281
Q39.8438 48.1875 33.7969 48.1875
Q26.5156 48.1875 22.3125 43.5469
Q18.1094 38.9219 18.1094 30.9062
L18.1094 0
L9.07812 0
L9.07812 75.9844
L18.1094 75.9844
L18.1094 46.1875
Q21.3438 51.125 25.7031 53.5625
Q30.0781 56 35.7969 56
Q45.2188 56 50.0469 50.1719
Q54.8906 44.3438 54.8906 33.0156" id="DejaVuSans-68"/>
     <path d="
M18.3125 70.2188
L18.3125 54.6875
L36.8125 54.6875
L36.8125 47.7031
L18.3125 47.7031
L18.3125 18.0156
Q18.3125 11.3281 20.1406 9.42188
Q21.9688 7.51562 27.5938 7.51562
L36.8125 7.51562
L36.8125 0
L27.5938 0
Q17.1875 0 13.2344 3.875
Q9.28125 7.76562 9.28125 18.0156
L9.28125 47.7031
L2.6875 47.7031
L2.6875 54.6875
L9.28125 54.6875
L9.28125 70.2188
z
" id="DejaVuSans-74"/>
     <path d="
M31 75.875
Q24.4688 64.6562 21.2812 53.6562
Q18.1094 42.6719 18.1094 31.3906
Q18.1094 20.125 21.3125 9.0625
Q24.5156 -2 31 -13.1875
L23.1875 -13.1875
Q15.875 -1.70312 12.2344 9.375
Q8.59375 20.4531 8.59375 31.3906
Q8.59375 42.2812 12.2031 53.3125
Q15.8281 64.3594 23.1875 75.875
z
" id="DejaVuSans-28"/>
     <path d="
M56.2031 29.5938
L56.2031 25.2031
L14.8906 25.2031
Q15.4844 15.9219 20.4844 11.0625
Q25.4844 6.20312 34.4219 6.20312
Q39.5938 6.20312 44.4531 7.46875
Q49.3125 8.73438 54.1094 11.2812
L54.1094 2.78125
Q49.2656 0.734375 44.1875 -0.34375
Q39.1094 -1.42188 33.8906 -1.42188
Q20.7969 -1.42188 13.1562 6.1875
Q5.51562 13.8125 5.51562 26.8125
Q5.51562 40.2344 12.7656 48.1094
Q20.0156 56 32.3281 56
Q43.3594 56 49.7812 48.8906
Q56.2031 41.7969 56.2031 29.5938
M47.2188 32.2344
Q47.125 39.5938 43.0938 43.9844
Q39.0625 48.3906 32.4219 48.3906
Q24.9062 48.3906 20.3906 44.1406
Q15.875 39.8906 15.1875 32.1719
z
" id="DejaVuSans-65"/>
     <path d="
M48.7812 52.5938
L48.7812 44.1875
Q44.9688 46.2969 41.1406 47.3438
Q37.3125 48.3906 33.4062 48.3906
Q24.6562 48.3906 19.8125 42.8438
Q14.9844 37.3125 14.9844 27.2969
Q14.9844 17.2812 19.8125 11.7344
Q24.6562 6.20312 33.4062 6.20312
Q37.3125 6.20312 41.1406 7.25
Q44.9688 8.29688 48.7812 10.4062
L48.7812 2.09375
Q45.0156 0.34375 40.9844 -0.53125
Q36.9688 -1.42188 32.4219 -1.42188
Q20.0625 -1.42188 12.7812 6.34375
Q5.51562 14.1094 5.51562 27.2969
Q5.51562 40.6719 12.8594 48.3281
Q20.2188 56 33.0156 56
Q37.1562 56 41.1094 55.1406
Q45.0625 54.2969 48.7812 52.5938" id="DejaVuSans-63"/>
     <path d="
M44.2812 53.0781
L44.2812 44.5781
Q40.4844 46.5312 36.375 47.5
Q32.2812 48.4844 27.875 48.4844
Q21.1875 48.4844 17.8438 46.4375
Q14.5 44.3906 14.5 40.2812
Q14.5 37.1562 16.8906 35.375
Q19.2812 33.5938 26.5156 31.9844
L29.5938 31.2969
Q39.1562 29.25 43.1875 25.5156
Q47.2188 21.7812 47.2188 15.0938
Q47.2188 7.46875 41.1875 3.01562
Q35.1562 -1.42188 24.6094 -1.42188
Q20.2188 -1.42188 15.4531 -0.5625
Q10.6875 0.296875 5.42188 2
L5.42188 11.2812
Q10.4062 8.6875 15.2344 7.39062
Q20.0625 6.10938 24.8125 6.10938
Q31.1562 6.10938 34.5625 8.28125
Q37.9844 10.4531 37.9844 14.4062
Q37.9844 18.0625 35.5156 20.0156
Q33.0625 21.9688 24.7031 23.7812
L21.5781 24.5156
Q13.2344 26.2656 9.51562 29.9062
Q5.8125 33.5469 5.8125 39.8906
Q5.8125 47.6094 11.2812 51.7969
Q16.75 56 26.8125 56
Q31.7812 56 36.1719 55.2656
Q40.5781 54.5469 44.2812 53.0781" id="DejaVuSans-73"/>
     <path d="
M41.1094 46.2969
Q39.5938 47.1719 37.8125 47.5781
Q36.0312 48 33.8906 48
Q26.2656 48 22.1875 43.0469
Q18.1094 38.0938 18.1094 28.8125
L18.1094 0
L9.07812 0
L9.07812 54.6875
L18.1094 54.6875
L18.1094 46.1875
Q20.9531 51.1719 25.4844 53.5781
Q30.0312 56 36.5312 56
Q37.4531 56 38.5781 55.875
Q39.7031 55.7656 41.0625 55.5156
z
" id="DejaVuSans-72"/>
    </defs>
    <g transform="translate(261.716260072 56.7121636029)scale(0.11 -0.11)">
     <use xlink:href="#DejaVuSans-63"/>
     <use x="54.98046875" xlink:href="#DejaVuSans-68"/>
     <use x="118.359375" xlink:href="#DejaVuSans-72"/>
     <use x="159.47265625" xlink:href="#DejaVuSans-5f"/>
     <use x="209.47265625" xlink:href="#DejaVuSans-30"/>
     <use x="273.095703125" xlink:href="#DejaVuSans-20"/>
     <use x="304.8828125" xlink:href="#DejaVuSans-28"/>
     <use x="343.896484375" xlink:href="#DejaVuSans-2e"/>
     <use x="375.68359375" xlink:href="#DejaVuSans-2e"/>
     <use x="407.470703125" xlink:href="#DejaVuSans-5f"/>
     <use x="457.470703125" xlink:href="#DejaVuSans-41"/>
     <use x="525.87890625" xlink:href="#DejaVuSans-6e"/>
     <use x="589.2578125" xlink:href="#DejaVuSans-63"/>
     <use x="644.23828125" xlink:href="#DejaVuSans-65"/>
     <use x="705.76171875" xlink:href="#DejaVuSans-73"/>
     <use x="757.861328125" xlink:href="#DejaVuSans-74"/>
     <use x="797.0703125" xlink:href="#DejaVuSans-6f"/>
     <use x="858.251953125" xlink:href="#DejaVuSans-72"/>
     <use x="899.365234375" xlink:href="#DejaVuSans-5f"/>
     <use x="949.365234375" xlink:href="#DejaVuSans-29"/>
    </g>
   </g>
   <g id="text_8">
    <!-- 0.0 -->
    <g transform="translate(450.286541106 74.9879264706)scale(0.08 -0.08)">
     <use xlink:href="#DejaVuSans-30"/>
     <use x="63.623046875" xlink:href="#DejaVuSans-2e"/>
     <use x="95.41015625" xlink:href="#DejaVuSans-30"/>
    </g>
   </g>
   <g id="text_9">
    <!-- 1.0 -->
    <g transform="translate(507.508654891 74.9879264706)scale(0.08 -0.08)">
     <use xlink:href="#DejaVuSans-31"/>
     <use x="63.623046875" xlink:href="#DejaVuSans-2e"/>
     <use x="95.41015625" xlink:href="#DejaVuSans-30"/>
    </g>
   </g>
   <g id="text_10">
    <!-- 2.0 -->
    <g transform="translate(564.730768676 74.9879264706)scale(0.08 -0.08)">
     <use xlink:href="#DejaVuSans-32"/>
     <use x="63.623046875" xlink:href="#DejaVuSans-2e"/>
     <use x="95.41015625" xlink:href="#DejaVuSans-30"/>
    </g>
   </g>
   <g id="text_11">
    <!-- 3.0 -->
    <g transform="translate(621.952882461 74.9879264706)scale(0.08 -0.08)">
     <use xlink:href="#DejaVuSans-33"/>
     <use x="63.623046875" xlink:href="#DejaVuSans-2e"/>
     <use x="95.41015625" xlink:href="#DejaVuSans-30"/>
    </g>
   </g>
   <g id="text_12">
    <!-- 4.0 -->
    <g transform="translate(679.174996246 74.9879264706)scale(0.08 -0.08)">
     <use xlink:href="#DejaVuSans-34"/>
     <use x="63.623046875" xlink:href="#DejaVuSans-2e"/>
     <use x="95.41015625" xlink:href="#DejaVuSans-30"/>
    </g>
   </g>
   <g id="text_13">
    <!-- 4.64 -->
    <g transform="translate(715.89168 74.9879264706)scale(0.08 -0.08)">
     <use xlink:href="#DejaVuSans-34"/>
     <use x="63.623046875" xlink:href="#DejaVuSans-2e"/>
     <use x="95.41015625" xlink:href="#DejaVuSans-36"/>
     <use x="159.033203125" xlink:href="#DejaVuSans-34"/>
    </g>
   </g>
   <g id="text_14">
    <!-- Ecoli_0975_Taxon016_ -->
    <defs>
     <path d="
M9.42188 75.9844
L18.4062 75.9844
L18.4062 0
L9.42188 0
z
" id="DejaVuSans-6c"/>
     <path d="
M9.8125 72.9062
L55.9062 72.9062
L55.9062 64.5938
L19.6719 64.5938
L19.6719 43.0156
L54.3906 43.0156
L54.3906 34.7188
L19.6719 34.7188
L19.6719 8.29688
L56.7812 8.29688
L56.7812 0
L9.8125 0
z
" id="DejaVuSans-45"/>
     <path d="
M10.7969 72.9062
L49.5156 72.9062
L49.5156 64.5938
L19.8281 64.5938
L19.8281 46.7344
Q21.9688 47.4688 24.1094 47.8281
Q26.2656 48.1875 28.4219 48.1875
Q40.625 48.1875 47.75 41.5
Q54.8906 34.8125 54.8906 23.3906
Q54.8906 11.625 47.5625 5.09375
Q40.2344 -1.42188 26.9062 -1.42188
Q22.3125 -1.42188 17.5469 -0.640625
Q12.7969 0.140625 7.71875 1.70312
L7.71875 11.625
Q12.1094 9.23438 16.7969 8.0625
Q21.4844 6.89062 26.7031 6.89062
Q35.1562 6.89062 40.0781 11.3281
Q45.0156 15.7656 45.0156 23.3906
Q45.0156 31 40.0781 35.4375
Q35.1562 39.8906 26.7031 39.8906
Q22.75 39.8906 18.8125 39.0156
Q14.8906 38.1406 10.7969 36.2812
z
" id="DejaVuSans-35"/>
     <path d="
M54.8906 54.6875
L35.1094 28.0781
L55.9062 0
L45.3125 0
L29.3906 21.4844
L13.4844 0
L2.875 0
L24.125 28.6094
L4.6875 54.6875
L15.2812 54.6875
L29.7812 35.2031
L44.2812 54.6875
z
" id="DejaVuSans-78"/>
     <path d="
M8.20312 72.9062
L55.0781 72.9062
L55.0781 68.7031
L28.6094 0
L18.3125 0
L43.2188 64.5938
L8.20312 64.5938
z
" id="DejaVuSans-37"/>
     <path d="
M9.42188 54.6875
L18.4062 54.6875
L18.4062 0
L9.42188 0
z

M9.42188 75.9844
L18.4062 75.9844
L18.4062 64.5938
L9.42188 64.5938
z
" id="DejaVuSans-69"/>
     <path d="
M10.9844 1.51562
L10.9844 10.5
Q14.7031 8.73438 18.5 7.8125
Q22.3125 6.89062 25.9844 6.89062
Q35.75 6.89062 40.8906 13.4531
Q46.0469 20.0156 46.7812 33.4062
Q43.9531 29.2031 39.5938 26.9531
Q35.25 24.7031 29.9844 24.7031
Q19.0469 24.7031 12.6719 31.3125
Q6.29688 37.9375 6.29688 49.4219
Q6.29688 60.6406 12.9375 67.4219
Q19.5781 74.2188 30.6094 74.2188
Q43.2656 74.2188 49.9219 64.5156
Q56.5938 54.8281 56.5938 36.375
Q56.5938 19.1406 48.4062 8.85938
Q40.2344 -1.42188 26.4219 -1.42188
Q22.7031 -1.42188 18.8906 -0.6875
Q15.0938 0.046875 10.9844 1.51562
M30.6094 32.4219
Q37.25 32.4219 41.125 36.9531
Q45.0156 41.5 45.0156 49.4219
Q45.0156 57.2812 41.125 61.8438
Q37.25 66.4062 30.6094 66.4062
Q23.9688 66.4062 20.0938 61.8438
Q16.2188 57.2812 16.2188 49.4219
Q16.2188 41.5 20.0938 36.9531
Q23.9688 32.4219 30.6094 32.4219" id="DejaVuSans-39"/>
     <path d="
M34.2812 27.4844
Q23.3906 27.4844 19.1875 25
Q14.9844 22.5156 14.9844 16.5
Q14.9844 11.7188 18.1406 8.90625
Q21.2969 6.10938 26.7031 6.10938
Q34.1875 6.10938 38.7031 11.4062
Q43.2188 16.7031 43.2188 25.4844
L43.2188 27.4844
z

M52.2031 31.2031
L52.2031 0
L43.2188 0
L43.2188 8.29688
Q40.1406 3.32812 35.5469 0.953125
Q30.9531 -1.42188 24.3125 -1.42188
Q15.9219 -1.42188 10.9531 3.29688
Q6 8.01562 6 15.9219
Q6 25.1406 12.1719 29.8281
Q18.3594 34.5156 30.6094 34.5156
L43.2188 34.5156
L43.2188 35.4062
Q43.2188 41.6094 39.1406 45
Q35.0625 48.3906 27.6875 48.3906
Q23 48.3906 18.5469 47.2656
Q14.1094 46.1406 10.0156 43.8906
L10.0156 52.2031
Q14.9375 54.1094 19.5781 55.0469
Q24.2188 56 28.6094 56
Q40.4844 56 46.3438 49.8438
Q52.2031 43.7031 52.2031 31.2031" id="DejaVuSans-61"/>
     <path d="
M-0.296875 72.9062
L61.375 72.9062
L61.375 64.5938
L35.5 64.5938
L35.5 0
L25.5938 0
L25.5938 64.5938
L-0.296875 64.5938
z
" id="DejaVuSans-54"/>
    </defs>
    <g transform="translate(520.276808678 56.7121636029)scale(0.11 -0.11)">
     <use xlink:href="#DejaVuSans-45"/>
     <use x="63.18359375" xlink:href="#DejaVuSans-63"/>
     <use x="118.1640625" xlink:href="#DejaVuSans-6f"/>
     <use x="179.345703125" xlink:href="#DejaVuSans-6c"/>
     <use x="207.12890625" xlink:href="#DejaVuSans-69"/>
     <use x="234.912109375" xlink:href="#DejaVuSans-5f"/>
     <use x="284.912109375" xlink:href="#DejaVuSans-30"/>
     <use x="348.53515625" xlink:href="#DejaVuSans-39"/>
     <use x="412.158203125" xlink:href="#DejaVuSans-37"/>
     <use x="475.78125" xlink:href="#DejaVuSans-35"/>
     <use x="539.404296875" xlink:href="#DejaVuSans-5f"/>
     <use x="589.404296875" xlink:href="#DejaVuSans-54"/>
     <use x="633.98828125" xlink:href="#DejaVuSans-61"/>
     <use x="695.267578125" xlink:href="#DejaVuSans-78"/>
     <use x="751.322265625" xlink:href="#DejaVuSans-6f"/>
     <use x="812.50390625" xlink:href="#DejaVuSans-6e"/>
     <use x="875.8828125" xlink:href="#DejaVuSans-30"/>
     <use x="939.505859375" xlink:href="#DejaVuSans-31"/>
     <use x="1003.12890625" xlink:href="#DejaVuSans-36"/>
     <use x="1066.75195312" xlink:href="#DejaVuSans-5f"/>
    </g>
   </g>
   <g id="text_15">
    <!-- Genome, Mb -->
    <defs>
     <path d="
M9.8125 72.9062
L24.5156 72.9062
L43.1094 23.2969
L61.8125 72.9062
L76.5156 72.9062
L76.5156 0
L66.8906 0
L66.8906 64.0156
L48.0938 14.0156
L38.1875 14.0156
L19.3906 64.0156
L19.3906 0
L9.8125 0
z
" id="DejaVuSans-4d"/>
     <path d="
M11.7188 12.4062
L22.0156 12.4062
L22.0156 4
L14.0156 -11.625
L7.71875 -11.625
L11.7188 4
z
" id="DejaVuSans-2c"/>
     <path d="
M52 44.1875
Q55.375 50.25 60.0625 53.125
Q64.75 56 71.0938 56
Q79.6406 56 84.2812 50.0156
Q88.9219 44.0469 88.9219 33.0156
L88.9219 0
L79.8906 0
L79.8906 32.7188
Q79.8906 40.5781 77.0938 44.375
Q74.3125 48.1875 68.6094 48.1875
Q61.625 48.1875 57.5625 43.5469
Q53.5156 38.9219 53.5156 30.9062
L53.5156 0
L44.4844 0
L44.4844 32.7188
Q44.4844 40.625 41.7031 44.4062
Q38.9219 48.1875 33.1094 48.1875
Q26.2188 48.1875 22.1562 43.5312
Q18.1094 38.875 18.1094 30.9062
L18.1094 0
L9.07812 0
L9.07812 54.6875
L18.1094 54.6875
L18.1094 46.1875
Q21.1875 51.2188 25.4844 53.6094
Q29.7812 56 35.6875 56
Q41.6562 56 45.8281 52.9688
Q50 49.9531 52 44.1875" id="DejaVuSans-6d"/>
     <path d="
M59.5156 10.4062
L59.5156 29.9844
L43.4062 29.9844
L43.4062 38.0938
L69.2812 38.0938
L69.2812 6.78125
Q63.5781 2.73438 56.6875 0.65625
Q49.8125 -1.42188 42 -1.42188
Q24.9062 -1.42188 15.25 8.5625
Q5.60938 18.5625 5.60938 36.375
Q5.60938 54.25 15.25 64.2344
Q24.9062 74.2188 42 74.2188
Q49.125 74.2188 55.5469 72.4531
Q61.9688 70.7031 67.3906 67.2812
L67.3906 56.7812
Q61.9219 61.4219 55.7656 63.7656
Q49.6094 66.1094 42.8281 66.1094
Q29.4375 66.1094 22.7188 58.6406
Q16.0156 51.1719 16.0156 36.375
Q16.0156 21.625 22.7188 14.1562
Q29.4375 6.6875 42.8281 6.6875
Q48.0469 6.6875 52.1406 7.59375
Q56.25 8.5 59.5156 10.4062" id="DejaVuSans-47"/>
     <path d="
M48.6875 27.2969
Q48.6875 37.2031 44.6094 42.8438
Q40.5312 48.4844 33.4062 48.4844
Q26.2656 48.4844 22.1875 42.8438
Q18.1094 37.2031 18.1094 27.2969
Q18.1094 17.3906 22.1875 11.75
Q26.2656 6.10938 33.4062 6.10938
Q40.5312 6.10938 44.6094 11.75
Q48.6875 17.3906 48.6875 27.2969
M18.1094 46.3906
Q20.9531 51.2656 25.2656 53.625
Q29.5938 56 35.5938 56
Q45.5625 56 51.7812 48.0938
Q58.0156 40.1875 58.0156 27.2969
Q58.0156 14.4062 51.7812 6.48438
Q45.5625 -1.42188 35.5938 -1.42188
Q29.5938 -1.42188 25.2656 0.953125
Q20.9531 3.32812 18.1094 8.20312
L18.1094 0
L9.07812 0
L9.07812 75.9844
L18.1094 75.9844
z
" id="DejaVuSans-62"/>
    </defs>
    <g transform="translate(413.738175 87.0556930147)scale(0.11 -0.11)">
     <use xlink:href="#DejaVuSans-47"/>
     <use x="77.490234375" xlink:href="#DejaVuSans-65"/>
     <use x="139.013671875" xlink:href="#DejaVuSans-6e"/>
     <use x="202.392578125" xlink:href="#DejaVuSans-6f"/>
     <use x="263.57421875" xlink:href="#DejaVuSans-6d"/>
     <use x="360.986328125" xlink:href="#DejaVuSans-65"/>
     <use x="422.509765625" xlink:href="#DejaVuSans-2c"/>
     <use x="454.296875" xlink:href="#DejaVuSans-20"/>
     <use x="486.083984375" xlink:href="#DejaVuSans-4d"/>
     <use x="572.36328125" xlink:href="#DejaVuSans-62"/>
    </g>
   </g>
   <g id="text_16">
    <!-- scaffolds -->
    <defs>
     <path d="
M37.1094 75.9844
L37.1094 68.5
L28.5156 68.5
Q23.6875 68.5 21.7969 66.5469
Q19.9219 64.5938 19.9219 59.5156
L19.9219 54.6875
L34.7188 54.6875
L34.7188 47.7031
L19.9219 47.7031
L19.9219 0
L10.8906 0
L10.8906 47.7031
L2.29688 47.7031
L2.29688 54.6875
L10.8906 54.6875
L10.8906 58.5
Q10.8906 67.625 15.1406 71.7969
Q19.3906 75.9844 28.6094 75.9844
z
" id="DejaVuSans-66"/>
     <path d="
M45.4062 46.3906
L45.4062 75.9844
L54.3906 75.9844
L54.3906 0
L45.4062 0
L45.4062 8.20312
Q42.5781 3.32812 38.25 0.953125
Q33.9375 -1.42188 27.875 -1.42188
Q17.9688 -1.42188 11.7344 6.48438
Q5.51562 14.4062 5.51562 27.2969
Q5.51562 40.1875 11.7344 48.0938
Q17.9688 56 27.875 56
Q33.9375 56 38.25 53.625
Q42.5781 51.2656 45.4062 46.3906
M14.7969 27.2969
Q14.7969 17.3906 18.875 11.75
Q22.9531 6.10938 30.0781 6.10938
Q37.2031 6.10938 41.2969 11.75
Q45.4062 17.3906 45.4062 27.2969
Q45.4062 37.2031 41.2969 42.8438
Q37.2031 48.4844 30.0781 48.4844
Q22.9531 48.4844 18.875 42.8438
Q14.7969 37.2031 14.7969 27.2969" id="DejaVuSans-64"/>
    </defs>
    <g transform="translate(126.151725 101.259669118)scale(0.12 -0.12)">
     <use xlink:href="#DejaVuSans-73"/>
     <use x="52.099609375" xlink:href="#DejaVuSans-63"/>
     <use x="107.080078125" xlink:href="#DejaVuSans-61"/>
     <use x="168.359375" xlink:href="#DejaVuSans-66"/>
     <use x="203.564453125" xlink:href="#DejaVuSans-66"/>
     <use x="238.76953125" xlink:href="#DejaVuSans-6f"/>
     <use x="299.951171875" xlink:href="#DejaVuSans-6c"/>
     <use x="327.734375" xlink:href="#DejaVuSans-64"/>
     <use x="391.2109375" xlink:href="#DejaVuSans-73"/>
    </g>
   </g>
  </g>
 </g>
 <defs>
  <clipPath id="p6a4ae4428d">
   <rect height="117.458823529" width="781.2" x="0.0" y="0.0"/>
  </clipPath>
 </defs>
</svg>
