<?xml version="1.0" encoding="utf-8" standalone="no"?>
<!DOCTYPE svg PUBLIC "-//W3C//DTD SVG 1.1//EN"
  "http://www.w3.org/Graphics/SVG/1.1/DTD/svg11.dtd">
<!-- Created with matplotlib (http://matplotlib.org/) -->
<svg height="117pt" version="1.1" viewBox="0 0 781 117" width="781pt" xmlns="http://www.w3.org/2000/svg" xmlns:xlink="http://www.w3.org/1999/xlink">
 <defs>
  <style type="text/css">
*{stroke-linecap:butt;stroke-linejoin:round;}
  </style>
 </defs>
 <g id="figure_1">
  <g id="patch_1">
   <path d="
M0 117.459
L781.2 117.459
L781.2 0
L0 0
z
" style="fill:#ffffff;"/>
  </g>
  <g id="axes_1">
   <g id="patch_2">
    <path clip-path="url(#p6a4ae4428d)" d="
M149.99 117.459
L720.266 117.459
L720.266 15.6612
L149.99 15.6612
z
" style="fill:#ffffff;"/>
   </g>
   <g id="patch_3">
    <path clip-path="url(#p6a4ae4428d)" d="
M184.634 106.888
L184.717 106.888
L184.717 95.1416
L184.634 95.1416
z
" style="fill:#4daf4a;"/>
   </g>
   <g id="patch_4">
    <path clip-path="url(#p6a4ae4428d)" d="
M185.05 108.062
L185.066 108.062
L185.066 96.3162
L185.05 96.3162
z
" style="fill:#b82525;"/>
   </g>
   <g id="patch_5">
    <path clip-path="url(#p6a4ae4428d)" d="
M185.815 106.888
L185.881 106.888
L185.881 95.1416
L185.815 95.1416
z
" style="fill:#4daf4a;"/>
   </g>
   <g id="patch_6">
    <path clip-path="url(#p6a4ae4428d)" d="
M186.089 105.321
L186.15 105.321
L186.15 93.5755
L186.089 93.5755
z
" style="fill:#40cf40;"/>
   </g>
   <g id="patch_7">
    <path clip-path="url(#p6a4ae4428d)" d="
M186.973 106.888
L187.039 106.888
L187.039 95.1416
L186.973 95.1416
z
" style="fill:#4daf4a;"/>
   </g>
   <g id="patch_8">
    <path clip-path="url(#p6a4ae4428d)" d="
M188.622 105.321
L188.756 105.321
L188.756 93.5755
L188.622 93.5755
z
" style="fill:#40cf40;"/>
   </g>
   <g id="patch_9">
    <path clip-path="url(#p6a4ae4428d)" d="
M192.419 106.888
L192.503 106.888
L192.503 95.1416
L192.419 95.1416
z
" style="fill:#4daf4a;"/>
   </g>
   <g id="patch_10">
    <path clip-path="url(#p6a4ae4428d)" d="
M195.123 105.321
L195.181 105.321
L195.181 93.5755
L195.123 93.5755
z
" style="fill:#40cf40;"/>
   </g>
   <g id="patch_11">
    <path clip-path="url(#p6a4ae4428d)" d="
M196.283 106.888
L196.356 106.888
L196.356 95.1416
L196.283 95.1416
z
" style="fill:#4daf4a;"/>
   </g>
   <g id="patch_12">
    <path clip-path="url(#p6a4ae4428d)" d="
M199.09 105.321
L199.153 105.321
L199.153 93.5755
L199.09 93.5755
z
" style="fill:#40cf40;"/>
   </g>
   <g id="patch_13">
    <path clip-path="url(#p6a4ae4428d)" d="
M202.792 106.888
L202.87 106.888
L202.87 95.1416
L202.792 95.1416
z
" style="fill:#4daf4a;"/>
   </g>
   <g id="patch_14">
    <path clip-path="url(#p6a4ae4428d)" d="
M204.765 105.321
L204.828 105.321
L204.828 93.5755
L204.765 93.5755
z
" style="fill:#40cf40;"/>
   </g>
   <g id="patch_15">
    <path clip-path="url(#p6a4ae4428d)" d="
M206.934 106.888
L206.995 106.888
L206.995 95.1416
L206.934 95.1416
z
" style="fill:#4daf4a;"/>
   </g>
   <g id="patch_16">
    <path clip-path="url(#p6a4ae4428d)" d="
M208.088 105.321
L208.159 105.321
L208.159 93.5755
L208.088 93.5755
z
" style="fill:#40cf40;"/>
   </g>
   <g id="patch_17">
    <path clip-path="url(#p6a4ae4428d)" d="
M208.627 106.888
L208.698 106.888
L208.698 95.1416
L208.627 95.1416
z
" style="fill:#4daf4a;"/>
   </g>
   <g id="patch_18">
    <path clip-path="url(#p6a4ae4428d)" d="
M208.712 105.321
L208.782 105.321
L208.782 93.5755
L208.712 93.5755
z
" style="fill:#40cf40;"/>
   </g>
   <g id="patch_19">
    <path clip-path="url(#p6a4ae4428d)" d="
M208.782 106.888
L208.821 106.888
L208.821 95.1416
L208.782 95.1416
z
" style="fill:#4daf4a;"/>
   </g>
   <g id="patch_20">
    <path clip-path="url(#p6a4ae4428d)" d="
M211.407 105.321
L211.467 105.321
L211.467 93.5755
L211.407 93.5755
z
" style="fill:#40cf40;"/>
   </g>
   <g id="patch_21">
    <path clip-path="url(#p6a4ae4428d)" d="
M212.317 109.628
L212.428 109.628
L212.428 97.8824
L212.317 97.8824
z
" style="fill:#e41a1c;"/>
   </g>
   <g id="patch_22">
    <path clip-path="url(#p6a4ae4428d)" d="
M214.085 105.321
L214.147 105.321
L214.147 93.5755
L214.085 93.5755
z
" style="fill:#40cf40;"/>
   </g>
   <g id="patch_23">
    <path clip-path="url(#p6a4ae4428d)" d="
M214.528 106.888
L214.609 106.888
L214.609 95.1416
L214.528 95.1416
z
" style="fill:#4daf4a;"/>
   </g>
   <g id="patch_24">
    <path clip-path="url(#p6a4ae4428d)" d="
M216.008 105.321
L216.062 105.321
L216.062 93.5755
L216.008 93.5755
z
" style="fill:#40cf40;"/>
   </g>
   <g id="patch_25">
    <path clip-path="url(#p6a4ae4428d)" d="
M217.326 106.888
L217.393 106.888
L217.393 95.1416
L217.326 95.1416
z
" style="fill:#4daf4a;"/>
   </g>
   <g id="patch_26">
    <path clip-path="url(#p6a4ae4428d)" d="
M218.742 105.321
L218.804 105.321
L218.804 93.5755
L218.742 93.5755
z
" style="fill:#40cf40;"/>
   </g>
   <g id="patch_27">
    <path clip-path="url(#p6a4ae4428d)" d="
M220.707 106.888
L220.764 106.888
L220.764 95.1416
L220.707 95.1416
z
" style="fill:#4daf4a;"/>
   </g>
   <g id="patch_28">
    <path clip-path="url(#p6a4ae4428d)" d="
M220.927 105.321
L220.994 105.321
L220.994 93.5755
L220.927 93.5755
z
" style="fill:#40cf40;"/>
   </g>
   <g id="patch_29">
    <path clip-path="url(#p6a4ae4428d)" d="
M224.607 106.888
L224.666 106.888
L224.666 95.1416
L224.607 95.1416
z
" style="fill:#4daf4a;"/>
   </g>
   <g id="patch_30">
    <path clip-path="url(#p6a4ae4428d)" d="
M226.46 105.321
L226.57 105.321
L226.57 93.5755
L226.46 93.5755
z
" style="fill:#40cf40;"/>
   </g>
   <g id="patch_31">
    <path clip-path="url(#p6a4ae4428d)" d="
M227.224 106.888
L227.309 106.888
L227.309 95.1416
L227.224 95.1416
z
" style="fill:#4daf4a;"/>
   </g>
   <g id="patch_32">
    <path clip-path="url(#p6a4ae4428d)" d="
M227.343 105.321
L227.4 105.321
L227.4 93.5755
L227.343 93.5755
z
" style="fill:#40cf40;"/>
   </g>
   <g id="patch_33">
    <path clip-path="url(#p6a4ae4428d)" d="
M227.629 106.888
L227.78 106.888
L227.78 95.1416
L227.629 95.1416
z
" style="fill:#4daf4a;"/>
   </g>
   <g id="patch_34">
    <path clip-path="url(#p6a4ae4428d)" d="
M228.21 105.321
L228.276 105.321
L228.276 93.5755
L228.21 93.5755
z
" style="fill:#40cf40;"/>
   </g>
   <g id="patch_35">
    <path clip-path="url(#p6a4ae4428d)" d="
M229.308 106.888
L229.372 106.888
L229.372 95.1416
L229.308 95.1416
z
" style="fill:#4daf4a;"/>
   </g>
   <g id="patch_36">
    <path clip-path="url(#p6a4ae4428d)" d="
M230.737 105.321
L230.802 105.321
L230.802 93.5755
L230.737 93.5755
z
" style="fill:#40cf40;"/>
   </g>
   <g id="patch_37">
    <path clip-path="url(#p6a4ae4428d)" d="
M232.4 106.888
L232.466 106.888
L232.466 95.1416
L232.4 95.1416
z
" style="fill:#4daf4a;"/>
   </g>
   <g id="patch_38">
    <path clip-path="url(#p6a4ae4428d)" d="
M232.766 105.321
L232.827 105.321
L232.827 93.5755
L232.766 93.5755
z
" style="fill:#40cf40;"/>
   </g>
   <g id="patch_39">
    <path clip-path="url(#p6a4ae4428d)" d="
M233.244 106.888
L233.311 106.888
L233.311 95.1416
L233.244 95.1416
z
" style="fill:#4daf4a;"/>
   </g>
   <g id="patch_40">
    <path clip-path="url(#p6a4ae4428d)" d="
M234.095 105.321
L234.181 105.321
L234.181 93.5755
L234.095 93.5755
z
" style="fill:#40cf40;"/>
   </g>
   <g id="patch_41">
    <path clip-path="url(#p6a4ae4428d)" d="
M234.701 106.888
L234.781 106.888
L234.781 95.1416
L234.701 95.1416
z
" style="fill:#4daf4a;"/>
   </g>
   <g id="patch_42">
    <path clip-path="url(#p6a4ae4428d)" d="
M234.815 105.321
L234.884 105.321
L234.884 93.5755
L234.815 93.5755
z
" style="fill:#40cf40;"/>
   </g>
   <g id="patch_43">
    <path clip-path="url(#p6a4ae4428d)" d="
M242.069 106.888
L242.156 106.888
L242.156 95.1416
L242.069 95.1416
z
" style="fill:#4daf4a;"/>
   </g>
   <g id="patch_44">
    <path clip-path="url(#p6a4ae4428d)" d="
M243.017 105.321
L243.081 105.321
L243.081 93.5755
L243.017 93.5755
z
" style="fill:#40cf40;"/>
   </g>
   <g id="patch_45">
    <path clip-path="url(#p6a4ae4428d)" d="
M243.702 106.888
L243.766 106.888
L243.766 95.1416
L243.702 95.1416
z
" style="fill:#4daf4a;"/>
   </g>
   <g id="patch_46">
    <path clip-path="url(#p6a4ae4428d)" d="
M247.43 105.321
L247.491 105.321
L247.491 93.5755
L247.43 93.5755
z
" style="fill:#40cf40;"/>
   </g>
   <g id="patch_47">
    <path clip-path="url(#p6a4ae4428d)" d="
M248.32 106.888
L248.38 106.888
L248.38 95.1416
L248.32 95.1416
z
" style="fill:#4daf4a;"/>
   </g>
   <g id="patch_48">
    <path clip-path="url(#p6a4ae4428d)" d="
M249.266 105.321
L249.324 105.321
L249.324 93.5755
L249.266 93.5755
z
" style="fill:#40cf40;"/>
   </g>
   <g id="patch_49">
    <path clip-path="url(#p6a4ae4428d)" d="
M256.477 106.888
L256.542 106.888
L256.542 95.1416
L256.477 95.1416
z
" style="fill:#4daf4a;"/>
   </g>
   <g id="patch_50">
    <path clip-path="url(#p6a4ae4428d)" d="
M256.596 105.321
L256.71 105.321
L256.71 93.5755
L256.596 93.5755
z
" style="fill:#40cf40;"/>
   </g>
   <g id="patch_51">
    <path clip-path="url(#p6a4ae4428d)" d="
M261.597 106.888
L261.69 106.888
L261.69 95.1416
L261.597 95.1416
z
" style="fill:#4daf4a;"/>
   </g>
   <g id="patch_52">
    <path clip-path="url(#p6a4ae4428d)" d="
M261.843 105.321
L261.904 105.321
L261.904 93.5755
L261.843 93.5755
z
" style="fill:#40cf40;"/>
   </g>
   <g id="patch_53">
    <path clip-path="url(#p6a4ae4428d)" d="
M262.02 106.888
L262.079 106.888
L262.079 95.1416
L262.02 95.1416
z
" style="fill:#4daf4a;"/>
   </g>
   <g id="patch_54">
    <path clip-path="url(#p6a4ae4428d)" d="
M263.491 105.321
L263.551 105.321
L263.551 93.5755
L263.491 93.5755
z
" style="fill:#40cf40;"/>
   </g>
   <g id="patch_55">
    <path clip-path="url(#p6a4ae4428d)" d="
M265.422 106.888
L265.495 106.888
L265.495 95.1416
L265.422 95.1416
z
" style="fill:#4daf4a;"/>
   </g>
   <g id="patch_56">
    <path clip-path="url(#p6a4ae4428d)" d="
M266.703 105.321
L266.762 105.321
L266.762 93.5755
L266.703 93.5755
z
" style="fill:#40cf40;"/>
   </g>
   <g id="patch_57">
    <path clip-path="url(#p6a4ae4428d)" d="
M266.968 106.888
L267.044 106.888
L267.044 95.1416
L266.968 95.1416
z
" style="fill:#4daf4a;"/>
   </g>
   <g id="patch_58">
    <path clip-path="url(#p6a4ae4428d)" d="
M267.235 105.321
L267.299 105.321
L267.299 93.5755
L267.235 93.5755
z
" style="fill:#40cf40;"/>
   </g>
   <g id="patch_59">
    <path clip-path="url(#p6a4ae4428d)" d="
M270.143 106.888
L270.213 106.888
L270.213 95.1416
L270.143 95.1416
z
" style="fill:#4daf4a;"/>
   </g>
   <g id="patch_60">
    <path clip-path="url(#p6a4ae4428d)" d="
M270.882 105.321
L270.943 105.321
L270.943 93.5755
L270.882 93.5755
z
" style="fill:#40cf40;"/>
   </g>
   <g id="patch_61">
    <path clip-path="url(#p6a4ae4428d)" d="
M273.805 106.888
L273.894 106.888
L273.894 95.1416
L273.805 95.1416
z
" style="fill:#4daf4a;"/>
   </g>
   <g id="patch_62">
    <path clip-path="url(#p6a4ae4428d)" d="
M276.868 105.321
L276.927 105.321
L276.927 93.5755
L276.868 93.5755
z
" style="fill:#40cf40;"/>
   </g>
   <g id="patch_63">
    <path clip-path="url(#p6a4ae4428d)" d="
M279.868 106.888
L279.925 106.888
L279.925 95.1416
L279.868 95.1416
z
" style="fill:#4daf4a;"/>
   </g>
   <g id="patch_64">
    <path clip-path="url(#p6a4ae4428d)" d="
M282.516 105.321
L282.574 105.321
L282.574 93.5755
L282.516 93.5755
z
" style="fill:#40cf40;"/>
   </g>
   <g id="patch_65">
    <path clip-path="url(#p6a4ae4428d)" d="
M282.8 106.888
L282.867 106.888
L282.867 95.1416
L282.8 95.1416
z
" style="fill:#4daf4a;"/>
   </g>
   <g id="patch_66">
    <path clip-path="url(#p6a4ae4428d)" d="
M285.183 105.321
L285.259 105.321
L285.259 93.5755
L285.183 93.5755
z
" style="fill:#40cf40;"/>
   </g>
   <g id="patch_67">
    <path clip-path="url(#p6a4ae4428d)" d="
M286.909 106.888
L286.967 106.888
L286.967 95.1416
L286.909 95.1416
z
" style="fill:#4daf4a;"/>
   </g>
   <g id="patch_68">
    <path clip-path="url(#p6a4ae4428d)" d="
M288.236 105.321
L288.311 105.321
L288.311 93.5755
L288.236 93.5755
z
" style="fill:#40cf40;"/>
   </g>
   <g id="patch_69">
    <path clip-path="url(#p6a4ae4428d)" d="
M291.592 106.888
L291.657 106.888
L291.657 95.1416
L291.592 95.1416
z
" style="fill:#4daf4a;"/>
   </g>
   <g id="patch_70">
    <path clip-path="url(#p6a4ae4428d)" d="
M297.824 105.321
L297.889 105.321
L297.889 93.5755
L297.824 93.5755
z
" style="fill:#40cf40;"/>
   </g>
   <g id="patch_71">
    <path clip-path="url(#p6a4ae4428d)" d="
M297.978 106.888
L298.037 106.888
L298.037 95.1416
L297.978 95.1416
z
" style="fill:#4daf4a;"/>
   </g>
   <g id="patch_72">
    <path clip-path="url(#p6a4ae4428d)" d="
M299.309 105.321
L299.377 105.321
L299.377 93.5755
L299.309 93.5755
z
" style="fill:#40cf40;"/>
   </g>
   <g id="patch_73">
    <path clip-path="url(#p6a4ae4428d)" d="
M300.15 106.888
L300.209 106.888
L300.209 95.1416
L300.15 95.1416
z
" style="fill:#4daf4a;"/>
   </g>
   <g id="patch_74">
    <path clip-path="url(#p6a4ae4428d)" d="
M304.636 105.321
L304.698 105.321
L304.698 93.5755
L304.636 93.5755
z
" style="fill:#40cf40;"/>
   </g>
   <g id="patch_75">
    <path clip-path="url(#p6a4ae4428d)" d="
M305.563 106.888
L305.644 106.888
L305.644 95.1416
L305.563 95.1416
z
" style="fill:#4daf4a;"/>
   </g>
   <g id="patch_76">
    <path clip-path="url(#p6a4ae4428d)" d="
M305.95 105.321
L306.022 105.321
L306.022 93.5755
L305.95 93.5755
z
" style="fill:#40cf40;"/>
   </g>
   <g id="patch_77">
    <path clip-path="url(#p6a4ae4428d)" d="
M306.728 106.888
L306.79 106.888
L306.79 95.1416
L306.728 95.1416
z
" style="fill:#4daf4a;"/>
   </g>
   <g id="patch_78">
    <path clip-path="url(#p6a4ae4428d)" d="
M308.474 105.321
L308.537 105.321
L308.537 93.5755
L308.474 93.5755
z
" style="fill:#40cf40;"/>
   </g>
   <g id="patch_79">
    <path clip-path="url(#p6a4ae4428d)" d="
M310.797 106.888
L310.866 106.888
L310.866 95.1416
L310.797 95.1416
z
" style="fill:#4daf4a;"/>
   </g>
   <g id="patch_80">
    <path clip-path="url(#p6a4ae4428d)" d="
M313.499 105.321
L313.594 105.321
L313.594 93.5755
L313.499 93.5755
z
" style="fill:#40cf40;"/>
   </g>
   <g id="patch_81">
    <path clip-path="url(#p6a4ae4428d)" d="
M315.139 106.888
L315.204 106.888
L315.204 95.1416
L315.139 95.1416
z
" style="fill:#4daf4a;"/>
   </g>
   <g id="patch_82">
    <path clip-path="url(#p6a4ae4428d)" d="
M315.62 105.321
L315.72 105.321
L315.72 93.5755
L315.62 93.5755
z
" style="fill:#40cf40;"/>
   </g>
   <g id="patch_83">
    <path clip-path="url(#p6a4ae4428d)" d="
M316.45 106.888
L316.509 106.888
L316.509 95.1416
L316.45 95.1416
z
" style="fill:#4daf4a;"/>
   </g>
   <g id="patch_84">
    <path clip-path="url(#p6a4ae4428d)" d="
M317.095 105.321
L317.168 105.321
L317.168 93.5755
L317.095 93.5755
z
" style="fill:#40cf40;"/>
   </g>
   <g id="patch_85">
    <path clip-path="url(#p6a4ae4428d)" d="
M318.204 106.888
L318.267 106.888
L318.267 95.1416
L318.204 95.1416
z
" style="fill:#4daf4a;"/>
   </g>
   <g id="patch_86">
    <path clip-path="url(#p6a4ae4428d)" d="
M320.289 105.321
L320.365 105.321
L320.365 93.5755
L320.289 93.5755
z
" style="fill:#40cf40;"/>
   </g>
   <g id="patch_87">
    <path clip-path="url(#p6a4ae4428d)" d="
M321.573 106.888
L321.651 106.888
L321.651 95.1416
L321.573 95.1416
z
" style="fill:#4daf4a;"/>
   </g>
   <g id="patch_88">
    <path clip-path="url(#p6a4ae4428d)" d="
M323.858 105.321
L323.925 105.321
L323.925 93.5755
L323.858 93.5755
z
" style="fill:#40cf40;"/>
   </g>
   <g id="patch_89">
    <path clip-path="url(#p6a4ae4428d)" d="
M327.843 106.888
L327.905 106.888
L327.905 95.1416
L327.843 95.1416
z
" style="fill:#4daf4a;"/>
   </g>
   <g id="patch_90">
    <path clip-path="url(#p6a4ae4428d)" d="
M330.451 105.321
L330.52 105.321
L330.52 93.5755
L330.451 93.5755
z
" style="fill:#40cf40;"/>
   </g>
   <g id="patch_91">
    <path clip-path="url(#p6a4ae4428d)" d="
M331.11 106.888
L331.187 106.888
L331.187 95.1416
L331.11 95.1416
z
" style="fill:#4daf4a;"/>
   </g>
   <g id="patch_92">
    <path clip-path="url(#p6a4ae4428d)" d="
M333.074 105.321
L333.133 105.321
L333.133 93.5755
L333.074 93.5755
z
" style="fill:#40cf40;"/>
   </g>
   <g id="patch_93">
    <path clip-path="url(#p6a4ae4428d)" d="
M333.868 106.888
L333.933 106.888
L333.933 95.1416
L333.868 95.1416
z
" style="fill:#4daf4a;"/>
   </g>
   <g id="patch_94">
    <path clip-path="url(#p6a4ae4428d)" d="
M337.843 105.321
L337.915 105.321
L337.915 93.5755
L337.843 93.5755
z
" style="fill:#40cf40;"/>
   </g>
   <g id="patch_95">
    <path clip-path="url(#p6a4ae4428d)" d="
M343.635 106.888
L343.692 106.888
L343.692 95.1416
L343.635 95.1416
z
" style="fill:#4daf4a;"/>
   </g>
   <g id="patch_96">
    <path clip-path="url(#p6a4ae4428d)" d="
M344.616 105.321
L344.678 105.321
L344.678 93.5755
L344.616 93.5755
z
" style="fill:#40cf40;"/>
   </g>
   <g id="patch_97">
    <path clip-path="url(#p6a4ae4428d)" d="
M345.493 106.888
L345.554 106.888
L345.554 95.1416
L345.493 95.1416
z
" style="fill:#4daf4a;"/>
   </g>
   <g id="patch_98">
    <path clip-path="url(#p6a4ae4428d)" d="
M347.3 105.321
L347.36 105.321
L347.36 93.5755
L347.3 93.5755
z
" style="fill:#40cf40;"/>
   </g>
   <g id="patch_99">
    <path clip-path="url(#p6a4ae4428d)" d="
M348.086 106.888
L348.158 106.888
L348.158 95.1416
L348.086 95.1416
z
" style="fill:#4daf4a;"/>
   </g>
   <g id="patch_100">
    <path clip-path="url(#p6a4ae4428d)" d="
M348.206 105.321
L348.27 105.321
L348.27 93.5755
L348.206 93.5755
z
" style="fill:#40cf40;"/>
   </g>
   <g id="patch_101">
    <path clip-path="url(#p6a4ae4428d)" d="
M349.017 106.888
L349.077 106.888
L349.077 95.1416
L349.017 95.1416
z
" style="fill:#4daf4a;"/>
   </g>
   <g id="patch_102">
    <path clip-path="url(#p6a4ae4428d)" d="
M349.835 105.321
L349.924 105.321
L349.924 93.5755
L349.835 93.5755
z
" style="fill:#40cf40;"/>
   </g>
   <g id="patch_103">
    <path clip-path="url(#p6a4ae4428d)" d="
M356.967 106.888
L357.036 106.888
L357.036 95.1416
L356.967 95.1416
z
" style="fill:#4daf4a;"/>
   </g>
   <g id="patch_104">
    <path clip-path="url(#p6a4ae4428d)" d="
M362.528 105.321
L362.608 105.321
L362.608 93.5755
L362.528 93.5755
z
" style="fill:#40cf40;"/>
   </g>
   <g id="patch_105">
    <path clip-path="url(#p6a4ae4428d)" d="
M362.819 106.888
L362.895 106.888
L362.895 95.1416
L362.819 95.1416
z
" style="fill:#4daf4a;"/>
   </g>
   <g id="patch_106">
    <path clip-path="url(#p6a4ae4428d)" d="
M363.446 105.321
L363.504 105.321
L363.504 93.5755
L363.446 93.5755
z
" style="fill:#40cf40;"/>
   </g>
   <g id="patch_107">
    <path clip-path="url(#p6a4ae4428d)" d="
M363.606 106.888
L363.677 106.888
L363.677 95.1416
L363.606 95.1416
z
" style="fill:#4daf4a;"/>
   </g>
   <g id="patch_108">
    <path clip-path="url(#p6a4ae4428d)" d="
M369.802 105.321
L369.885 105.321
L369.885 93.5755
L369.802 93.5755
z
" style="fill:#40cf40;"/>
   </g>
   <g id="patch_109">
    <path clip-path="url(#p6a4ae4428d)" d="
M377.045 106.888
L377.103 106.888
L377.103 95.1416
L377.045 95.1416
z
" style="fill:#4daf4a;"/>
   </g>
   <g id="patch_110">
    <path clip-path="url(#p6a4ae4428d)" d="
M377.249 105.321
L377.309 105.321
L377.309 93.5755
L377.249 93.5755
z
" style="fill:#40cf40;"/>
   </g>
   <g id="patch_111">
    <path clip-path="url(#p6a4ae4428d)" d="
M379.295 106.888
L379.355 106.888
L379.355 95.1416
L379.295 95.1416
z
" style="fill:#4daf4a;"/>
   </g>
   <g id="patch_112">
    <path clip-path="url(#p6a4ae4428d)" d="
M382.202 105.321
L382.289 105.321
L382.289 93.5755
L382.202 93.5755
z
" style="fill:#40cf40;"/>
   </g>
   <g id="patch_113">
    <path clip-path="url(#p6a4ae4428d)" d="
M382.682 106.888
L382.716 106.888
L382.716 95.1416
L382.682 95.1416
z
" style="fill:#4daf4a;"/>
   </g>
   <g id="patch_114">
    <path clip-path="url(#p6a4ae4428d)" d="
M383.43 105.321
L383.529 105.321
L383.529 93.5755
L383.43 93.5755
z
" style="fill:#40cf40;"/>
   </g>
   <g id="patch_115">
    <path clip-path="url(#p6a4ae4428d)" d="
M384.031 106.888
L384.102 106.888
L384.102 95.1416
L384.031 95.1416
z
" style="fill:#4daf4a;"/>
   </g>
   <g id="patch_116">
    <path clip-path="url(#p6a4ae4428d)" d="
M384.291 105.321
L384.349 105.321
L384.349 93.5755
L384.291 93.5755
z
" style="fill:#40cf40;"/>
   </g>
   <g id="patch_117">
    <path clip-path="url(#p6a4ae4428d)" d="
M384.619 106.888
L384.695 106.888
L384.695 95.1416
L384.619 95.1416
z
" style="fill:#4daf4a;"/>
   </g>
   <g id="patch_118">
    <path clip-path="url(#p6a4ae4428d)" d="
M385.458 105.321
L385.515 105.321
L385.515 93.5755
L385.458 93.5755
z
" style="fill:#40cf40;"/>
   </g>
   <g id="patch_119">
    <path clip-path="url(#p6a4ae4428d)" d="
M388.235 106.888
L388.306 106.888
L388.306 95.1416
L388.235 95.1416
z
" style="fill:#4daf4a;"/>
   </g>
   <g id="patch_120">
    <path clip-path="url(#p6a4ae4428d)" d="
M390.222 105.321
L390.295 105.321
L390.295 93.5755
L390.222 93.5755
z
" style="fill:#40cf40;"/>
   </g>
   <g id="patch_121">
    <path clip-path="url(#p6a4ae4428d)" d="
M394.748 106.888
L394.812 106.888
L394.812 95.1416
L394.748 95.1416
z
" style="fill:#4daf4a;"/>
   </g>
   <g id="patch_122">
    <path clip-path="url(#p6a4ae4428d)" d="
M396.022 105.321
L396.082 105.321
L396.082 93.5755
L396.022 93.5755
z
" style="fill:#40cf40;"/>
   </g>
   <g id="patch_123">
    <path clip-path="url(#p6a4ae4428d)" d="
M397.1 106.888
L397.166 106.888
L397.166 95.1416
L397.1 95.1416
z
" style="fill:#4daf4a;"/>
   </g>
   <g id="patch_124">
    <path clip-path="url(#p6a4ae4428d)" d="
M398.576 105.321
L398.641 105.321
L398.641 93.5755
L398.576 93.5755
z
" style="fill:#40cf40;"/>
   </g>
   <g id="patch_125">
    <path clip-path="url(#p6a4ae4428d)" d="
M399.607 106.888
L399.665 106.888
L399.665 95.1416
L399.607 95.1416
z
" style="fill:#4daf4a;"/>
   </g>
   <g id="patch_126">
    <path clip-path="url(#p6a4ae4428d)" d="
M399.693 105.321
L399.759 105.321
L399.759 93.5755
L399.693 93.5755
z
" style="fill:#40cf40;"/>
   </g>
   <g id="patch_127">
    <path clip-path="url(#p6a4ae4428d)" d="
M400.789 106.888
L400.872 106.888
L400.872 95.1416
L400.789 95.1416
z
" style="fill:#4daf4a;"/>
   </g>
   <g id="patch_128">
    <path clip-path="url(#p6a4ae4428d)" d="
M402.689 105.321
L402.766 105.321
L402.766 93.5755
L402.689 93.5755
z
" style="fill:#40cf40;"/>
   </g>
   <g id="patch_129">
    <path clip-path="url(#p6a4ae4428d)" d="
M406.413 106.888
L406.48 106.888
L406.48 95.1416
L406.413 95.1416
z
" style="fill:#4daf4a;"/>
   </g>
   <g id="patch_130">
    <path clip-path="url(#p6a4ae4428d)" d="
M410.514 105.321
L410.574 105.321
L410.574 93.5755
L410.514 93.5755
z
" style="fill:#40cf40;"/>
   </g>
   <g id="patch_131">
    <path clip-path="url(#p6a4ae4428d)" d="
M411.671 106.888
L411.742 106.888
L411.742 95.1416
L411.671 95.1416
z
" style="fill:#4daf4a;"/>
   </g>
   <g id="patch_132">
    <path clip-path="url(#p6a4ae4428d)" d="
M412.767 105.321
L412.829 105.321
L412.829 93.5755
L412.767 93.5755
z
" style="fill:#40cf40;"/>
   </g>
   <g id="patch_133">
    <path clip-path="url(#p6a4ae4428d)" d="
M414.652 106.888
L414.709 106.888
L414.709 95.1416
L414.652 95.1416
z
" style="fill:#4daf4a;"/>
   </g>
   <g id="patch_134">
    <path clip-path="url(#p6a4ae4428d)" d="
M415.536 105.321
L415.6 105.321
L415.6 93.5755
L415.536 93.5755
z
" style="fill:#40cf40;"/>
   </g>
   <g id="patch_135">
    <path clip-path="url(#p6a4ae4428d)" d="
M416.591 106.888
L416.657 106.888
L416.657 95.1416
L416.591 95.1416
z
" style="fill:#4daf4a;"/>
   </g>
   <g id="patch_136">
    <path clip-path="url(#p6a4ae4428d)" d="
M417.817 105.321
L417.882 105.321
L417.882 93.5755
L417.817 93.5755
z
" style="fill:#40cf40;"/>
   </g>
   <g id="patch_137">
    <path clip-path="url(#p6a4ae4428d)" d="
M419.155 106.888
L419.216 106.888
L419.216 95.1416
L419.155 95.1416
z
" style="fill:#4daf4a;"/>
   </g>
   <g id="patch_138">
    <path clip-path="url(#p6a4ae4428d)" d="
M419.559 105.321
L419.627 105.321
L419.627 93.5755
L419.559 93.5755
z
" style="fill:#40cf40;"/>
   </g>
   <g id="patch_139">
    <path clip-path="url(#p6a4ae4428d)" d="
M420.187 106.888
L420.253 106.888
L420.253 95.1416
L420.187 95.1416
z
" style="fill:#4daf4a;"/>
   </g>
   <g id="patch_140">
    <path clip-path="url(#p6a4ae4428d)" d="
M421.037 105.321
L421.094 105.321
L421.094 93.5755
L421.037 93.5755
z
" style="fill:#40cf40;"/>
   </g>
   <g id="patch_141">
    <path clip-path="url(#p6a4ae4428d)" d="
M422.386 106.888
L422.445 106.888
L422.445 95.1416
L422.386 95.1416
z
" style="fill:#4daf4a;"/>
   </g>
   <g id="patch_142">
    <path clip-path="url(#p6a4ae4428d)" d="
M422.988 105.321
L423.092 105.321
L423.092 93.5755
L422.988 93.5755
z
" style="fill:#40cf40;"/>
   </g>
   <g id="patch_143">
    <path clip-path="url(#p6a4ae4428d)" d="
M425.222 106.888
L425.26 106.888
L425.26 95.1416
L425.222 95.1416
z
" style="fill:#4daf4a;"/>
   </g>
   <g id="patch_144">
    <path clip-path="url(#p6a4ae4428d)" d="
M427.626 105.321
L427.684 105.321
L427.684 93.5755
L427.626 93.5755
z
" style="fill:#40cf40;"/>
   </g>
   <g id="patch_145">
    <path clip-path="url(#p6a4ae4428d)" d="
M429.526 106.888
L429.588 106.888
L429.588 95.1416
L429.526 95.1416
z
" style="fill:#4daf4a;"/>
   </g>
   <g id="patch_146">
    <path clip-path="url(#p6a4ae4428d)" d="
M434.549 105.321
L434.607 105.321
L434.607 93.5755
L434.549 93.5755
z
" style="fill:#40cf40;"/>
   </g>
   <g id="patch_147">
    <path clip-path="url(#p6a4ae4428d)" d="
M436.899 106.888
L436.959 106.888
L436.959 95.1416
L436.899 95.1416
z
" style="fill:#4daf4a;"/>
   </g>
   <g id="patch_148">
    <path clip-path="url(#p6a4ae4428d)" d="
M441.189 105.321
L441.269 105.321
L441.269 93.5755
L441.189 93.5755
z
" style="fill:#40cf40;"/>
   </g>
   <g id="patch_149">
    <path clip-path="url(#p6a4ae4428d)" d="
M446.199 106.888
L446.275 106.888
L446.275 95.1416
L446.199 95.1416
z
" style="fill:#4daf4a;"/>
   </g>
   <g id="patch_150">
    <path clip-path="url(#p6a4ae4428d)" d="
M446.379 105.321
L446.442 105.321
L446.442 93.5755
L446.379 93.5755
z
" style="fill:#40cf40;"/>
   </g>
   <g id="patch_151">
    <path clip-path="url(#p6a4ae4428d)" d="
M447.014 106.888
L447.089 106.888
L447.089 95.1416
L447.014 95.1416
z
" style="fill:#4daf4a;"/>
   </g>
   <g id="patch_152">
    <path clip-path="url(#p6a4ae4428d)" d="
M447.188 105.321
L447.256 105.321
L447.256 93.5755
L447.188 93.5755
z
" style="fill:#40cf40;"/>
   </g>
   <g id="patch_153">
    <path clip-path="url(#p6a4ae4428d)" d="
M447.446 106.888
L447.512 106.888
L447.512 95.1416
L447.446 95.1416
z
" style="fill:#4daf4a;"/>
   </g>
   <g id="patch_154">
    <path clip-path="url(#p6a4ae4428d)" d="
M448.097 105.321
L448.163 105.321
L448.163 93.5755
L448.097 93.5755
z
" style="fill:#40cf40;"/>
   </g>
   <g id="patch_155">
    <path clip-path="url(#p6a4ae4428d)" d="
M450.56 106.888
L450.641 106.888
L450.641 95.1416
L450.56 95.1416
z
" style="fill:#4daf4a;"/>
   </g>
   <g id="patch_156">
    <path clip-path="url(#p6a4ae4428d)" d="
M452.198 105.321
L452.26 105.321
L452.26 93.5755
L452.198 93.5755
z
" style="fill:#40cf40;"/>
   </g>
   <g id="patch_157">
    <path clip-path="url(#p6a4ae4428d)" d="
M454.42 106.888
L454.524 106.888
L454.524 95.1416
L454.42 95.1416
z
" style="fill:#4daf4a;"/>
   </g>
   <g id="patch_158">
    <path clip-path="url(#p6a4ae4428d)" d="
M456.581 105.321
L456.668 105.321
L456.668 93.5755
L456.581 93.5755
z
" style="fill:#40cf40;"/>
   </g>
   <g id="patch_159">
    <path clip-path="url(#p6a4ae4428d)" d="
M461.797 106.888
L461.861 106.888
L461.861 95.1416
L461.797 95.1416
z
" style="fill:#4daf4a;"/>
   </g>
   <g id="patch_160">
    <path clip-path="url(#p6a4ae4428d)" d="
M464.726 105.321
L464.794 105.321
L464.794 93.5755
L464.726 93.5755
z
" style="fill:#40cf40;"/>
   </g>
   <g id="patch_161">
    <path clip-path="url(#p6a4ae4428d)" d="
M466.012 106.888
L466.086 106.888
L466.086 95.1416
L466.012 95.1416
z
" style="fill:#4daf4a;"/>
   </g>
   <g id="patch_162">
    <path clip-path="url(#p6a4ae4428d)" d="
M466.555 105.321
L466.639 105.321
L466.639 93.5755
L466.555 93.5755
z
" style="fill:#40cf40;"/>
   </g>
   <g id="patch_163">
    <path clip-path="url(#p6a4ae4428d)" d="
M468.914 106.888
L468.973 106.888
L468.973 95.1416
L468.914 95.1416
z
" style="fill:#4daf4a;"/>
   </g>
   <g id="patch_164">
    <path clip-path="url(#p6a4ae4428d)" d="
M475.393 105.321
L475.456 105.321
L475.456 93.5755
L475.393 93.5755
z
" style="fill:#40cf40;"/>
   </g>
   <g id="patch_165">
    <path clip-path="url(#p6a4ae4428d)" d="
M477.417 106.888
L477.498 106.888
L477.498 95.1416
L477.417 95.1416
z
" style="fill:#4daf4a;"/>
   </g>
   <g id="patch_166">
    <path clip-path="url(#p6a4ae4428d)" d="
M481.707 105.321
L481.766 105.321
L481.766 93.5755
L481.707 93.5755
z
" style="fill:#40cf40;"/>
   </g>
   <g id="patch_167">
    <path clip-path="url(#p6a4ae4428d)" d="
M482.238 106.888
L482.327 106.888
L482.327 95.1416
L482.238 95.1416
z
" style="fill:#4daf4a;"/>
   </g>
   <g id="patch_168">
    <path clip-path="url(#p6a4ae4428d)" d="
M482.452 105.321
L482.513 105.321
L482.513 93.5755
L482.452 93.5755
z
" style="fill:#40cf40;"/>
   </g>
   <g id="patch_169">
    <path clip-path="url(#p6a4ae4428d)" d="
M484.471 106.888
L484.531 106.888
L484.531 95.1416
L484.471 95.1416
z
" style="fill:#4daf4a;"/>
   </g>
   <g id="patch_170">
    <path clip-path="url(#p6a4ae4428d)" d="
M484.787 105.321
L484.85 105.321
L484.85 93.5755
L484.787 93.5755
z
" style="fill:#40cf40;"/>
   </g>
   <g id="patch_171">
    <path clip-path="url(#p6a4ae4428d)" d="
M490.599 106.888
L490.664 106.888
L490.664 95.1416
L490.599 95.1416
z
" style="fill:#4daf4a;"/>
   </g>
   <g id="patch_172">
    <path clip-path="url(#p6a4ae4428d)" d="
M491.471 105.321
L491.532 105.321
L491.532 93.5755
L491.471 93.5755
z
" style="fill:#40cf40;"/>
   </g>
   <g id="patch_173">
    <path clip-path="url(#p6a4ae4428d)" d="
M492.974 106.888
L493.035 106.888
L493.035 95.1416
L492.974 95.1416
z
" style="fill:#4daf4a;"/>
   </g>
   <g id="patch_174">
    <path clip-path="url(#p6a4ae4428d)" d="
M493.225 105.321
L493.291 105.321
L493.291 93.5755
L493.225 93.5755
z
" style="fill:#40cf40;"/>
   </g>
   <g id="patch_175">
    <path clip-path="url(#p6a4ae4428d)" d="
M495.044 106.888
L495.106 106.888
L495.106 95.1416
L495.044 95.1416
z
" style="fill:#4daf4a;"/>
   </g>
   <g id="patch_176">
    <path clip-path="url(#p6a4ae4428d)" d="
M495.191 105.321
L495.258 105.321
L495.258 93.5755
L495.191 93.5755
z
" style="fill:#40cf40;"/>
   </g>
   <g id="patch_177">
    <path clip-path="url(#p6a4ae4428d)" d="
M495.309 106.888
L495.369 106.888
L495.369 95.1416
L495.309 95.1416
z
" style="fill:#4daf4a;"/>
   </g>
   <g id="patch_178">
    <path clip-path="url(#p6a4ae4428d)" d="
M498.398 105.321
L498.456 105.321
L498.456 93.5755
L498.398 93.5755
z
" style="fill:#40cf40;"/>
   </g>
   <g id="patch_179">
    <path clip-path="url(#p6a4ae4428d)" d="
M499.437 106.888
L499.509 106.888
L499.509 95.1416
L499.437 95.1416
z
" style="fill:#4daf4a;"/>
   </g>
   <g id="patch_180">
    <path clip-path="url(#p6a4ae4428d)" d="
M502.807 105.321
L502.894 105.321
L502.894 93.5755
L502.807 93.5755
z
" style="fill:#40cf40;"/>
   </g>
   <g id="patch_181">
    <path clip-path="url(#p6a4ae4428d)" d="
M505.185 106.888
L505.259 106.888
L505.259 95.1416
L505.185 95.1416
z
" style="fill:#4daf4a;"/>
   </g>
   <g id="patch_182">
    <path clip-path="url(#p6a4ae4428d)" d="
M506.682 105.321
L506.752 105.321
L506.752 93.5755
L506.682 93.5755
z
" style="fill:#40cf40;"/>
   </g>
   <g id="patch_183">
    <path clip-path="url(#p6a4ae4428d)" d="
M507.024 106.888
L507.089 106.888
L507.089 95.1416
L507.024 95.1416
z
" style="fill:#4daf4a;"/>
   </g>
   <g id="patch_184">
    <path clip-path="url(#p6a4ae4428d)" d="
M507.268 105.321
L507.326 105.321
L507.326 93.5755
L507.268 93.5755
z
" style="fill:#40cf40;"/>
   </g>
   <g id="patch_185">
    <path clip-path="url(#p6a4ae4428d)" d="
M508.748 106.888
L508.816 106.888
L508.816 95.1416
L508.748 95.1416
z
" style="fill:#4daf4a;"/>
   </g>
   <g id="patch_186">
    <path clip-path="url(#p6a4ae4428d)" d="
M509.433 105.321
L509.507 105.321
L509.507 93.5755
L509.433 93.5755
z
" style="fill:#40cf40;"/>
   </g>
   <g id="patch_187">
    <path clip-path="url(#p6a4ae4428d)" d="
M510.159 106.888
L510.222 106.888
L510.222 95.1416
L510.159 95.1416
z
" style="fill:#4daf4a;"/>
   </g>
   <g id="patch_188">
    <path clip-path="url(#p6a4ae4428d)" d="
M510.222 105.321
L510.286 105.321
L510.286 93.5755
L510.222 93.5755
z
" style="fill:#40cf40;"/>
   </g>
   <g id="patch_189">
    <path clip-path="url(#p6a4ae4428d)" d="
M519.433 106.888
L519.504 106.888
L519.504 95.1416
L519.433 95.1416
z
" style="fill:#4daf4a;"/>
   </g>
   <g id="patch_190">
    <path clip-path="url(#p6a4ae4428d)" d="
M519.545 105.321
L519.624 105.321
L519.624 93.5755
L519.545 93.5755
z
" style="fill:#40cf40;"/>
   </g>
   <g id="patch_191">
    <path clip-path="url(#p6a4ae4428d)" d="
M521.098 106.888
L521.166 106.888
L521.166 95.1416
L521.098 95.1416
z
" style="fill:#4daf4a;"/>
   </g>
   <g id="patch_192">
    <path clip-path="url(#p6a4ae4428d)" d="
M523.486 105.321
L523.57 105.321
L523.57 93.5755
L523.486 93.5755
z
" style="fill:#40cf40;"/>
   </g>
   <g id="patch_193">
    <path clip-path="url(#p6a4ae4428d)" d="
M526.325 106.888
L526.384 106.888
L526.384 95.1416
L526.325 95.1416
z
" style="fill:#4daf4a;"/>
   </g>
   <g id="patch_194">
    <path clip-path="url(#p6a4ae4428d)" d="
M527.545 105.321
L527.604 105.321
L527.604 93.5755
L527.545 93.5755
z
" style="fill:#40cf40;"/>
   </g>
   <g id="patch_195">
    <path clip-path="url(#p6a4ae4428d)" d="
M529.197 106.888
L529.257 106.888
L529.257 95.1416
L529.197 95.1416
z
" style="fill:#4daf4a;"/>
   </g>
   <g id="patch_196">
    <path clip-path="url(#p6a4ae4428d)" d="
M531.232 105.321
L531.299 105.321
L531.299 93.5755
L531.232 93.5755
z
" style="fill:#40cf40;"/>
   </g>
   <g id="patch_197">
    <path clip-path="url(#p6a4ae4428d)" d="
M537.356 106.888
L537.421 106.888
L537.421 95.1416
L537.356 95.1416
z
" style="fill:#4daf4a;"/>
   </g>
   <g id="patch_198">
    <path clip-path="url(#p6a4ae4428d)" d="
M537.565 105.321
L537.625 105.321
L537.625 93.5755
L537.565 93.5755
z
" style="fill:#40cf40;"/>
   </g>
   <g id="patch_199">
    <path clip-path="url(#p6a4ae4428d)" d="
M538.277 106.888
L538.352 106.888
L538.352 95.1416
L538.277 95.1416
z
" style="fill:#4daf4a;"/>
   </g>
   <g id="patch_200">
    <path clip-path="url(#p6a4ae4428d)" d="
M541.077 105.321
L541.181 105.321
L541.181 93.5755
L541.077 93.5755
z
" style="fill:#40cf40;"/>
   </g>
   <g id="patch_201">
    <path clip-path="url(#p6a4ae4428d)" d="
M541.337 106.888
L541.415 106.888
L541.415 95.1416
L541.337 95.1416
z
" style="fill:#4daf4a;"/>
   </g>
   <g id="patch_202">
    <path clip-path="url(#p6a4ae4428d)" d="
M543.608 105.321
L543.665 105.321
L543.665 93.5755
L543.608 93.5755
z
" style="fill:#40cf40;"/>
   </g>
   <g id="patch_203">
    <path clip-path="url(#p6a4ae4428d)" d="
M543.665 106.888
L543.74 106.888
L543.74 95.1416
L543.665 95.1416
z
" style="fill:#4daf4a;"/>
   </g>
   <g id="patch_204">
    <path clip-path="url(#p6a4ae4428d)" d="
M544.549 105.321
L544.636 105.321
L544.636 93.5755
L544.549 93.5755
z
" style="fill:#40cf40;"/>
   </g>
   <g id="patch_205">
    <path clip-path="url(#p6a4ae4428d)" d="
M546.527 106.888
L546.586 106.888
L546.586 95.1416
L546.527 95.1416
z
" style="fill:#4daf4a;"/>
   </g>
   <g id="patch_206">
    <path clip-path="url(#p6a4ae4428d)" d="
M550.417 105.321
L550.484 105.321
L550.484 93.5755
L550.417 93.5755
z
" style="fill:#40cf40;"/>
   </g>
   <g id="patch_207">
    <path clip-path="url(#p6a4ae4428d)" d="
M550.931 106.888
L550.988 106.888
L550.988 95.1416
L550.931 95.1416
z
" style="fill:#4daf4a;"/>
   </g>
   <g id="patch_208">
    <path clip-path="url(#p6a4ae4428d)" d="
M553.042 105.321
L553.146 105.321
L553.146 93.5755
L553.042 93.5755
z
" style="fill:#40cf40;"/>
   </g>
   <g id="patch_209">
    <path clip-path="url(#p6a4ae4428d)" d="
M555.316 106.888
L555.375 106.888
L555.375 95.1416
L555.316 95.1416
z
" style="fill:#4daf4a;"/>
   </g>
   <g id="patch_210">
    <path clip-path="url(#p6a4ae4428d)" d="
M555.988 105.321
L556.07 105.321
L556.07 93.5755
L555.988 93.5755
z
" style="fill:#40cf40;"/>
   </g>
   <g id="patch_211">
    <path clip-path="url(#p6a4ae4428d)" d="
M561.824 106.888
L561.905 106.888
L561.905 95.1416
L561.824 95.1416
z
" style="fill:#4daf4a;"/>
   </g>
   <g id="patch_212">
    <path clip-path="url(#p6a4ae4428d)" d="
M562.408 105.321
L562.477 105.321
L562.477 93.5755
L562.408 93.5755
z
" style="fill:#40cf40;"/>
   </g>
   <g id="patch_213">
    <path clip-path="url(#p6a4ae4428d)" d="
M567.206 106.888
L567.344 106.888
L567.344 95.1416
L567.206 95.1416
z
" style="fill:#4daf4a;"/>
   </g>
   <g id="patch_214">
    <path clip-path="url(#p6a4ae4428d)" d="
M569.646 105.321
L569.71 105.321
L569.71 93.5755
L569.646 93.5755
z
" style="fill:#40cf40;"/>
   </g>
   <g id="patch_215">
    <path clip-path="url(#p6a4ae4428d)" d="
M572.923 106.888
L572.982 106.888
L572.982 95.1416
L572.923 95.1416
z
" style="fill:#4daf4a;"/>
   </g>
   <g id="patch_216">
    <path clip-path="url(#p6a4ae4428d)" d="
M574.649 105.321
L574.8 105.321
L574.8 93.5755
L574.649 93.5755
z
" style="fill:#40cf40;"/>
   </g>
   <g id="patch_217">
    <path clip-path="url(#p6a4ae4428d)" d="
M575.334 106.888
L575.438 106.888
L575.438 95.1416
L575.334 95.1416
z
" style="fill:#4daf4a;"/>
   </g>
   <g id="patch_218">
    <path clip-path="url(#p6a4ae4428d)" d="
M575.771 105.321
L575.832 105.321
L575.832 93.5755
L575.771 93.5755
z
" style="fill:#40cf40;"/>
   </g>
   <g id="patch_219">
    <path clip-path="url(#p6a4ae4428d)" d="
M578.124 106.888
L578.185 106.888
L578.185 95.1416
L578.124 95.1416
z
" style="fill:#4daf4a;"/>
   </g>
   <g id="patch_220">
    <path clip-path="url(#p6a4ae4428d)" d="
M578.617 105.321
L578.71 105.321
L578.71 93.5755
L578.617 93.5755
z
" style="fill:#40cf40;"/>
   </g>
   <g id="patch_221">
    <path clip-path="url(#p6a4ae4428d)" d="
M579.687 106.888
L579.762 106.888
L579.762 95.1416
L579.687 95.1416
z
" style="fill:#4daf4a;"/>
   </g>
   <g id="patch_222">
    <path clip-path="url(#p6a4ae4428d)" d="
M580.66 105.321
L580.723 105.321
L580.723 93.5755
L580.66 93.5755
z
" style="fill:#40cf40;"/>
   </g>
   <g id="patch_223">
    <path clip-path="url(#p6a4ae4428d)" d="
M581.51 106.888
L581.601 106.888
L581.601 95.1416
L581.51 95.1416
z
" style="fill:#4daf4a;"/>
   </g>
   <g id="patch_224">
    <path clip-path="url(#p6a4ae4428d)" d="
M581.656 105.321
L581.715 105.321
L581.715 93.5755
L581.656 93.5755
z
" style="fill:#40cf40;"/>
   </g>
   <g id="patch_225">
    <path clip-path="url(#p6a4ae4428d)" d="
M582.151 106.888
L582.236 106.888
L582.236 95.1416
L582.151 95.1416
z
" style="fill:#4daf4a;"/>
   </g>
   <g id="patch_226">
    <path clip-path="url(#p6a4ae4428d)" d="
M584.112 105.321
L584.211 105.321
L584.211 93.5755
L584.112 93.5755
z
" style="fill:#40cf40;"/>
   </g>
   <g id="patch_227">
    <path clip-path="url(#p6a4ae4428d)" d="
M584.658 106.888
L584.738 106.888
L584.738 95.1416
L584.658 95.1416
z
" style="fill:#4daf4a;"/>
   </g>
   <g id="patch_228">
    <path clip-path="url(#p6a4ae4428d)" d="
M586.084 105.321
L586.155 105.321
L586.155 93.5755
L586.084 93.5755
z
" style="fill:#40cf40;"/>
   </g>
   <g id="patch_229">
    <path clip-path="url(#p6a4ae4428d)" d="
M587.689 106.888
L587.752 106.888
L587.752 95.1416
L587.689 95.1416
z
" style="fill:#4daf4a;"/>
   </g>
   <g id="patch_230">
    <path clip-path="url(#p6a4ae4428d)" d="
M590.547 105.321
L590.618 105.321
L590.618 93.5755
L590.547 93.5755
z
" style="fill:#40cf40;"/>
   </g>
   <g id="patch_231">
    <path clip-path="url(#p6a4ae4428d)" d="
M591.633 106.888
L591.691 106.888
L591.691 95.1416
L591.633 95.1416
z
" style="fill:#4daf4a;"/>
   </g>
   <g id="patch_232">
    <path clip-path="url(#p6a4ae4428d)" d="
M592.848 105.321
L592.916 105.321
L592.916 93.5755
L592.848 93.5755
z
" style="fill:#40cf40;"/>
   </g>
   <g id="patch_233">
    <path clip-path="url(#p6a4ae4428d)" d="
M595.04 106.888
L595.104 106.888
L595.104 95.1416
L595.04 95.1416
z
" style="fill:#4daf4a;"/>
   </g>
   <g id="patch_234">
    <path clip-path="url(#p6a4ae4428d)" d="
M597.418 105.321
L597.481 105.321
L597.481 93.5755
L597.418 93.5755
z
" style="fill:#40cf40;"/>
   </g>
   <g id="patch_235">
    <path clip-path="url(#p6a4ae4428d)" d="
M601.297 106.888
L601.355 106.888
L601.355 95.1416
L601.297 95.1416
z
" style="fill:#4daf4a;"/>
   </g>
   <g id="patch_236">
    <path clip-path="url(#p6a4ae4428d)" d="
M606.822 105.321
L606.881 105.321
L606.881 93.5755
L606.822 93.5755
z
" style="fill:#40cf40;"/>
   </g>
   <g id="patch_237">
    <path clip-path="url(#p6a4ae4428d)" d="
M607.684 106.888
L607.744 106.888
L607.744 95.1416
L607.684 95.1416
z
" style="fill:#4daf4a;"/>
   </g>
   <g id="patch_238">
    <path clip-path="url(#p6a4ae4428d)" d="
M608.046 105.321
L608.11 105.321
L608.11 93.5755
L608.046 93.5755
z
" style="fill:#40cf40;"/>
   </g>
   <g id="patch_239">
    <path clip-path="url(#p6a4ae4428d)" d="
M608.199 106.888
L608.263 106.888
L608.263 95.1416
L608.199 95.1416
z
" style="fill:#4daf4a;"/>
   </g>
   <g id="patch_240">
    <path clip-path="url(#p6a4ae4428d)" d="
M609.679 105.321
L609.738 105.321
L609.738 93.5755
L609.679 93.5755
z
" style="fill:#40cf40;"/>
   </g>
   <g id="patch_241">
    <path clip-path="url(#p6a4ae4428d)" d="
M611.709 106.888
L611.81 106.888
L611.81 95.1416
L611.709 95.1416
z
" style="fill:#4daf4a;"/>
   </g>
   <g id="patch_242">
    <path clip-path="url(#p6a4ae4428d)" d="
M612.363 105.321
L612.438 105.321
L612.438 93.5755
L612.363 93.5755
z
" style="fill:#40cf40;"/>
   </g>
   <g id="patch_243">
    <path clip-path="url(#p6a4ae4428d)" d="
M613.783 106.888
L613.843 106.888
L613.843 95.1416
L613.783 95.1416
z
" style="fill:#4daf4a;"/>
   </g>
   <g id="patch_244">
    <path clip-path="url(#p6a4ae4428d)" d="
M613.843 105.321
L613.894 105.321
L613.894 93.5755
L613.843 93.5755
z
" style="fill:#40cf40;"/>
   </g>
   <g id="patch_245">
    <path clip-path="url(#p6a4ae4428d)" d="
M613.941 106.888
L613.988 106.888
L613.988 95.1416
L613.941 95.1416
z
" style="fill:#4daf4a;"/>
   </g>
   <g id="patch_246">
    <path clip-path="url(#p6a4ae4428d)" d="
M615.438 105.321
L615.498 105.321
L615.498 93.5755
L615.438 93.5755
z
" style="fill:#40cf40;"/>
   </g>
   <g id="patch_247">
    <path clip-path="url(#p6a4ae4428d)" d="
M617.36 106.888
L617.442 106.888
L617.442 95.1416
L617.36 95.1416
z
" style="fill:#4daf4a;"/>
   </g>
   <g id="patch_248">
    <path clip-path="url(#p6a4ae4428d)" d="
M618.175 105.321
L618.235 105.321
L618.235 93.5755
L618.175 93.5755
z
" style="fill:#40cf40;"/>
   </g>
   <g id="patch_249">
    <path clip-path="url(#p6a4ae4428d)" d="
M622.669 106.888
L622.733 106.888
L622.733 95.1416
L622.669 95.1416
z
" style="fill:#4daf4a;"/>
   </g>
   <g id="patch_250">
    <path clip-path="url(#p6a4ae4428d)" d="
M622.782 105.321
L622.843 105.321
L622.843 93.5755
L622.782 93.5755
z
" style="fill:#40cf40;"/>
   </g>
   <g id="patch_251">
    <path clip-path="url(#p6a4ae4428d)" d="
M622.916 106.888
L623.007 106.888
L623.007 95.1416
L622.916 95.1416
z
" style="fill:#4daf4a;"/>
   </g>
   <g id="patch_252">
    <path clip-path="url(#p6a4ae4428d)" d="
M625.091 105.321
L625.153 105.321
L625.153 93.5755
L625.091 93.5755
z
" style="fill:#40cf40;"/>
   </g>
   <g id="patch_253">
    <path clip-path="url(#p6a4ae4428d)" d="
M626.725 106.888
L626.783 106.888
L626.783 95.1416
L626.725 95.1416
z
" style="fill:#4daf4a;"/>
   </g>
   <g id="patch_254">
    <path clip-path="url(#p6a4ae4428d)" d="
M628.898 105.321
L628.96 105.321
L628.96 93.5755
L628.898 93.5755
z
" style="fill:#40cf40;"/>
   </g>
   <g id="patch_255">
    <path clip-path="url(#p6a4ae4428d)" d="
M630.792 106.888
L630.85 106.888
L630.85 95.1416
L630.792 95.1416
z
" style="fill:#4daf4a;"/>
   </g>
   <g id="patch_256">
    <path clip-path="url(#p6a4ae4428d)" d="
M633.382 105.321
L633.456 105.321
L633.456 93.5755
L633.382 93.5755
z
" style="fill:#40cf40;"/>
   </g>
   <g id="patch_257">
    <path clip-path="url(#p6a4ae4428d)" d="
M636.668 106.888
L636.749 106.888
L636.749 95.1416
L636.668 95.1416
z
" style="fill:#4daf4a;"/>
   </g>
   <g id="patch_258">
    <path clip-path="url(#p6a4ae4428d)" d="
M639.075 105.321
L639.135 105.321
L639.135 93.5755
L639.075 93.5755
z
" style="fill:#40cf40;"/>
   </g>
   <g id="patch_259">
    <path clip-path="url(#p6a4ae4428d)" d="
M639.543 106.888
L639.613 106.888
L639.613 95.1416
L639.543 95.1416
z
" style="fill:#4daf4a;"/>
   </g>
   <g id="patch_260">
    <path clip-path="url(#p6a4ae4428d)" d="
M643.221 105.321
L643.284 105.321
L643.284 93.5755
L643.221 93.5755
z
" style="fill:#40cf40;"/>
   </g>
   <g id="patch_261">
    <path clip-path="url(#p6a4ae4428d)" d="
M646.552 106.888
L646.63 106.888
L646.63 95.1416
L646.552 95.1416
z
" style="fill:#4daf4a;"/>
   </g>
   <g id="patch_262">
    <path clip-path="url(#p6a4ae4428d)" d="
M647.36 105.321
L647.426 105.321
L647.426 93.5755
L647.36 93.5755
z
" style="fill:#40cf40;"/>
   </g>
   <g id="patch_263">
    <path clip-path="url(#p6a4ae4428d)" d="
M653.053 106.888
L653.111 106.888
L653.111 95.1416
L653.053 95.1416
z
" style="fill:#4daf4a;"/>
   </g>
   <g id="patch_264">
    <path clip-path="url(#p6a4ae4428d)" d="
M655.603 105.321
L655.665 105.321
L655.665 93.5755
L655.603 93.5755
z
" style="fill:#40cf40;"/>
   </g>
   <g id="patch_265">
    <path clip-path="url(#p6a4ae4428d)" d="
M656.126 106.888
L656.194 106.888
L656.194 95.1416
L656.126 95.1416
z
" style="fill:#4daf4a;"/>
   </g>
   <g id="patch_266">
    <path clip-path="url(#p6a4ae4428d)" d="
M657.768 105.321
L657.844 105.321
L657.844 93.5755
L657.768 93.5755
z
" style="fill:#40cf40;"/>
   </g>
   <g id="patch_267">
    <path clip-path="url(#p6a4ae4428d)" d="
M658.038 106.888
L658.1 106.888
L658.1 95.1416
L658.038 95.1416
z
" style="fill:#4daf4a;"/>
   </g>
   <g id="patch_268">
    <path clip-path="url(#p6a4ae4428d)" d="
M658.214 105.321
L658.302 105.321
L658.302 93.5755
L658.214 93.5755
z
" style="fill:#40cf40;"/>
   </g>
   <g id="patch_269">
    <path clip-path="url(#p6a4ae4428d)" d="
M661.715 106.888
L661.784 106.888
L661.784 95.1416
L661.715 95.1416
z
" style="fill:#4daf4a;"/>
   </g>
   <g id="patch_270">
    <path clip-path="url(#p6a4ae4428d)" d="
M661.94 105.321
L661.998 105.321
L661.998 93.5755
L661.94 93.5755
z
" style="fill:#40cf40;"/>
   </g>
   <g id="patch_271">
    <path clip-path="url(#p6a4ae4428d)" d="
M663.484 106.888
L663.554 106.888
L663.554 95.1416
L663.484 95.1416
z
" style="fill:#4daf4a;"/>
   </g>
   <g id="patch_272">
    <path clip-path="url(#p6a4ae4428d)" d="
M663.646 105.321
L663.731 105.321
L663.731 93.5755
L663.646 93.5755
z
" style="fill:#40cf40;"/>
   </g>
   <g id="patch_273">
    <path clip-path="url(#p6a4ae4428d)" d="
M666.818 106.888
L666.885 106.888
L666.885 95.1416
L666.818 95.1416
z
" style="fill:#4daf4a;"/>
   </g>
   <g id="patch_274">
    <path clip-path="url(#p6a4ae4428d)" d="
M669.477 105.321
L669.538 105.321
L669.538 93.5755
L669.477 93.5755
z
" style="fill:#40cf40;"/>
   </g>
   <g id="patch_275">
    <path clip-path="url(#p6a4ae4428d)" d="
M670.504 106.888
L670.567 106.888
L670.567 95.1416
L670.504 95.1416
z
" style="fill:#4daf4a;"/>
   </g>
   <g id="patch_276">
    <path clip-path="url(#p6a4ae4428d)" d="
M671.272 105.321
L671.336 105.321
L671.336 93.5755
L671.272 93.5755
z
" style="fill:#40cf40;"/>
   </g>
   <g id="patch_277">
    <path clip-path="url(#p6a4ae4428d)" d="
M671.657 106.888
L671.742 106.888
L671.742 95.1416
L671.657 95.1416
z
" style="fill:#4daf4a;"/>
   </g>
   <g id="patch_278">
    <path clip-path="url(#p6a4ae4428d)" d="
M673.677 105.321
L673.734 105.321
L673.734 93.5755
L673.677 93.5755
z
" style="fill:#40cf40;"/>
   </g>
   <g id="patch_279">
    <path clip-path="url(#p6a4ae4428d)" d="
M674.354 106.888
L674.418 106.888
L674.418 95.1416
L674.354 95.1416
z
" style="fill:#4daf4a;"/>
   </g>
   <g id="patch_280">
    <path clip-path="url(#p6a4ae4428d)" d="
M675.172 105.321
L675.235 105.321
L675.235 93.5755
L675.172 93.5755
z
" style="fill:#40cf40;"/>
   </g>
   <g id="patch_281">
    <path clip-path="url(#p6a4ae4428d)" d="
M676.973 106.888
L677.031 106.888
L677.031 95.1416
L676.973 95.1416
z
" style="fill:#4daf4a;"/>
   </g>
   <g id="patch_282">
    <path clip-path="url(#p6a4ae4428d)" d="
M677.138 105.321
L677.199 105.321
L677.199 93.5755
L677.138 93.5755
z
" style="fill:#40cf40;"/>
   </g>
   <g id="patch_283">
    <path clip-path="url(#p6a4ae4428d)" d="
M677.966 106.888
L678.038 106.888
L678.038 95.1416
L677.966 95.1416
z
" style="fill:#4daf4a;"/>
   </g>
   <g id="patch_284">
    <path clip-path="url(#p6a4ae4428d)" d="
M683.974 105.321
L684.037 105.321
L684.037 93.5755
L683.974 93.5755
z
" style="fill:#40cf40;"/>
   </g>
   <g id="patch_285">
    <path clip-path="url(#p6a4ae4428d)" d="
M686.121 106.888
L686.204 106.888
L686.204 95.1416
L686.121 95.1416
z
" style="fill:#4daf4a;"/>
   </g>
   <g id="patch_286">
    <path clip-path="url(#p6a4ae4428d)" d="
M687.627 105.321
L687.692 105.321
L687.692 93.5755
L687.627 93.5755
z
" style="fill:#40cf40;"/>
   </g>
   <g id="patch_287">
    <path clip-path="url(#p6a4ae4428d)" d="
M689.484 106.888
L689.549 106.888
L689.549 95.1416
L689.484 95.1416
z
" style="fill:#4daf4a;"/>
   </g>
   <g id="patch_288">
    <path clip-path="url(#p6a4ae4428d)" d="
M689.627 105.321
L689.689 105.321
L689.689 93.5755
L689.627 93.5755
z
" style="fill:#40cf40;"/>
   </g>
   <g id="patch_289">
    <path clip-path="url(#p6a4ae4428d)" d="
M689.689 106.888
L689.737 106.888
L689.737 95.1416
L689.689 95.1416
z
" style="fill:#4daf4a;"/>
   </g>
   <g id="patch_290">
    <path clip-path="url(#p6a4ae4428d)" d="
M691.009 105.321
L691.073 105.321
L691.073 93.5755
L691.009 93.5755
z
" style="fill:#40cf40;"/>
   </g>
   <g id="patch_291">
    <path clip-path="url(#p6a4ae4428d)" d="
M691.679 106.888
L691.738 106.888
L691.738 95.1416
L691.679 95.1416
z
" style="fill:#4daf4a;"/>
   </g>
   <g id="patch_292">
    <path clip-path="url(#p6a4ae4428d)" d="
M692.425 105.321
L692.509 105.321
L692.509 93.5755
L692.425 93.5755
z
" style="fill:#40cf40;"/>
   </g>
   <g id="patch_293">
    <path clip-path="url(#p6a4ae4428d)" d="
M693.742 106.888
L693.808 106.888
L693.808 95.1416
L693.742 95.1416
z
" style="fill:#4daf4a;"/>
   </g>
   <g id="patch_294">
    <path clip-path="url(#p6a4ae4428d)" d="
M694.132 105.321
L694.199 105.321
L694.199 93.5755
L694.132 93.5755
z
" style="fill:#40cf40;"/>
   </g>
   <g id="patch_295">
    <path clip-path="url(#p6a4ae4428d)" d="
M696.723 106.888
L696.787 106.888
L696.787 95.1416
L696.723 95.1416
z
" style="fill:#4daf4a;"/>
   </g>
   <g id="patch_296">
    <path clip-path="url(#p6a4ae4428d)" d="
M699.819 105.321
L699.879 105.321
L699.879 93.5755
L699.819 93.5755
z
" style="fill:#40cf40;"/>
   </g>
   <g id="patch_297">
    <path clip-path="url(#p6a4ae4428d)" d="
M702.763 106.888
L702.821 106.888
L702.821 95.1416
L702.763 95.1416
z
" style="fill:#4daf4a;"/>
   </g>
   <g id="patch_298">
    <path clip-path="url(#p6a4ae4428d)" d="
M704.689 105.321
L704.777 105.321
L704.777 93.5755
L704.689 93.5755
z
" style="fill:#40cf40;"/>
   </g>
   <g id="patch_299">
    <path clip-path="url(#p6a4ae4428d)" d="
M709.565 106.888
L709.628 106.888
L709.628 95.1416
L709.565 95.1416
z
" style="fill:#4daf4a;"/>
   </g>
   <g id="patch_300">
    <path clip-path="url(#p6a4ae4428d)" d="
M711.531 105.321
L711.611 105.321
L711.611 93.5755
L711.531 93.5755
z
" style="fill:#40cf40;"/>
   </g>
   <g id="patch_301">
    <path clip-path="url(#p6a4ae4428d)" d="
M711.796 106.888
L711.855 106.888
L711.855 95.1416
L711.796 95.1416
z
" style="fill:#4daf4a;"/>
   </g>
   <g id="patch_302">
    <path clip-path="url(#p6a4ae4428d)" d="
M713.209 105.321
L713.293 105.321
L713.293 93.5755
L713.209 93.5755
z
" style="fill:#40cf40;"/>
   </g>
   <g id="line2d_1">
    <path clip-path="url(#p6a4ae4428d)" d="
M182.801 66.56
L714.017 66.56" style="fill:none;stroke:#000000;stroke-linecap:square;stroke-width:0.5;"/>
   </g>
   <g id="line2d_2">
    <path clip-path="url(#p6a4ae4428d)" d="
M182.801 15.6612
L182.801 109.628" style="fill:none;stroke:#808080;stroke-dasharray:1.000000,3.000000;stroke-dashoffset:0.0;stroke-width:0.2;"/>
   </g>
   <g id="line2d_3">
    <path clip-path="url(#p6a4ae4428d)" d="
M182.801 66.56
L182.801 68.9092" style="fill:none;stroke:#000000;stroke-linecap:square;stroke-width:0.5;"/>
   </g>
   <g id="line2d_4">
    <path clip-path="url(#p6a4ae4428d)" d="
M297.246 15.6612
L297.246 109.628" style="fill:none;stroke:#808080;stroke-dasharray:1.000000,3.000000;stroke-dashoffset:0.0;stroke-width:0.2;"/>
   </g>
   <g id="line2d_5">
    <path clip-path="url(#p6a4ae4428d)" d="
M297.246 66.56
L297.246 68.9092" style="fill:none;stroke:#000000;stroke-linecap:square;stroke-width:0.5;"/>
   </g>
   <g id="line2d_6">
    <path clip-path="url(#p6a4ae4428d)" d="
M411.692 15.6612
L411.692 109.628" style="fill:none;stroke:#808080;stroke-dasharray:1.000000,3.000000;stroke-dashoffset:0.0;stroke-width:0.2;"/>
   </g>
   <g id="line2d_7">
    <path clip-path="url(#p6a4ae4428d)" d="
M411.692 66.56
L411.692 68.9092" style="fill:none;stroke:#000000;stroke-linecap:square;stroke-width:0.5;"/>
   </g>
   <g id="line2d_8">
    <path clip-path="url(#p6a4ae4428d)" d="
M526.137 15.6612
L526.137 109.628" style="fill:none;stroke:#808080;stroke-dasharray:1.000000,3.000000;stroke-dashoffset:0.0;stroke-width:0.2;"/>
   </g>
   <g id="line2d_9">
    <path clip-path="url(#p6a4ae4428d)" d="
M526.137 66.56
L526.137 68.9092" style="fill:none;stroke:#000000;stroke-linecap:square;stroke-width:0.5;"/>
   </g>
   <g id="line2d_10">
    <path clip-path="url(#p6a4ae4428d)" d="
M640.583 15.6612
L640.583 109.628" style="fill:none;stroke:#808080;stroke-dasharray:1.000000,3.000000;stroke-dashoffset:0.0;stroke-width:0.2;"/>
   </g>
   <g id="line2d_11">
    <path clip-path="url(#p6a4ae4428d)" d="
M640.583 66.56
L640.583 68.9092" style="fill:none;stroke:#000000;stroke-linecap:square;stroke-width:0.5;"/>
   </g>
   <g id="line2d_12">
    <path clip-path="url(#p6a4ae4428d)" d="
M714.017 15.6612
L714.017 109.628" style="fill:none;stroke:#808080;stroke-dasharray:1.000000,3.000000;stroke-dashoffset:0.0;stroke-width:0.2;"/>
   </g>
   <g id="line2d_13">
    <path clip-path="url(#p6a4ae4428d)" d="
M714.017 66.56
L714.017 68.9092" style="fill:none;stroke:#000000;stroke-linecap:square;stroke-width:0.5;"/>
   </g>
   <g id="text_1">
    <!-- 0.0 -->
    <defs>
     <path d="
M31.7812 66.4062
Q24.1719 66.4062 20.3281 58.9062
Q16.5 51.4219 16.5 36.375
Q16.5 21.3906 20.3281 13.8906
Q24.1719 6.39062 31.7812 6.39062
Q39.4531 6.39062 43.2812 13.8906
Q47.125 21.3906 47.125 36.375
Q47.125 51.4219 43.2812 58.9062
Q39.4531 66.4062 31.7812 66.4062
M31.7812 74.2188
Q44.0469 74.2188 50.5156 64.5156
Q56.9844 54.8281 56.9844 36.375
Q56.9844 17.9688 50.5156 8.26562
Q44.0469 -1.42188 31.7812 -1.42188
Q19.5312 -1.42188 13.0625 8.26562
Q6.59375 17.9688 6.59375 36.375
Q6.59375 54.8281 13.0625 64.5156
Q19.5312 74.2188 31.7812 74.2188" id="DejaVuSans-30"/>
     <path d="
M10.6875 12.4062
L21 12.4062
L21 0
L10.6875 0
z
" id="DejaVuSans-2e"/>
    </defs>
    <g transform="translate(184.67568 74.9879264706)scale(0.08 -0.08)">
     <use xlink:href="#DejaVuSans-30"/>
     <use x="63.623046875" xlink:href="#DejaVuSans-2e"/>
     <use x="95.41015625" xlink:href="#DejaVuSans-30"/>
    </g>
   </g>
   <g id="text_2">
    <!-- 1.0 -->
    <defs>
     <path d="
M12.4062 8.29688
L28.5156 8.29688
L28.5156 63.9219
L10.9844 60.4062
L10.9844 69.3906
L28.4219 72.9062
L38.2812 72.9062
L38.2812 8.29688
L54.3906 8.29688
L54.3906 0
L12.4062 0
z
" id="DejaVuSans-31"/>
    </defs>
    <g transform="translate(299.121140366 74.9879264706)scale(0.08 -0.08)">
     <use xlink:href="#DejaVuSans-31"/>
     <use x="63.623046875" xlink:href="#DejaVuSans-2e"/>
     <use x="95.41015625" xlink:href="#DejaVuSans-30"/>
    </g>
   </g>
   <g id="text_3">
    <!-- 2.0 -->
    <defs>
     <path d="
M19.1875 8.29688
L53.6094 8.29688
L53.6094 0
L7.32812 0
L7.32812 8.29688
Q12.9375 14.1094 22.625 23.8906
Q32.3281 33.6875 34.8125 36.5312
Q39.5469 41.8438 41.4219 45.5312
Q43.3125 49.2188 43.3125 52.7812
Q43.3125 58.5938 39.2344 62.25
Q35.1562 65.9219 28.6094 65.9219
Q23.9688 65.9219 18.8125 64.3125
Q13.6719 62.7031 7.8125 59.4219
L7.8125 69.3906
Q13.7656 71.7812 18.9375 73
Q24.125 74.2188 28.4219 74.2188
Q39.75 74.2188 46.4844 68.5469
Q53.2188 62.8906 53.2188 53.4219
Q53.2188 48.9219 51.5312 44.8906
Q49.8594 40.875 45.4062 35.4062
Q44.1875 33.9844 37.6406 27.2188
Q31.1094 20.4531 19.1875 8.29688" id="DejaVuSans-32"/>
    </defs>
    <g transform="translate(413.566600733 74.9879264706)scale(0.08 -0.08)">
     <use xlink:href="#DejaVuSans-32"/>
     <use x="63.623046875" xlink:href="#DejaVuSans-2e"/>
     <use x="95.41015625" xlink:href="#DejaVuSans-30"/>
    </g>
   </g>
   <g id="text_4">
    <!-- 3.0 -->
    <defs>
     <path d="
M40.5781 39.3125
Q47.6562 37.7969 51.625 33
Q55.6094 28.2188 55.6094 21.1875
Q55.6094 10.4062 48.1875 4.48438
Q40.7656 -1.42188 27.0938 -1.42188
Q22.5156 -1.42188 17.6562 -0.515625
Q12.7969 0.390625 7.625 2.20312
L7.625 11.7188
Q11.7188 9.32812 16.5938 8.10938
Q21.4844 6.89062 26.8125 6.89062
Q36.0781 6.89062 40.9375 10.5469
Q45.7969 14.2031 45.7969 21.1875
Q45.7969 27.6406 41.2812 31.2656
Q36.7656 34.9062 28.7188 34.9062
L20.2188 34.9062
L20.2188 43.0156
L29.1094 43.0156
Q36.375 43.0156 40.2344 45.9219
Q44.0938 48.8281 44.0938 54.2969
Q44.0938 59.9062 40.1094 62.9062
Q36.1406 65.9219 28.7188 65.9219
Q24.6562 65.9219 20.0156 65.0312
Q15.375 64.1562 9.8125 62.3125
L9.8125 71.0938
Q15.4375 72.6562 20.3438 73.4375
Q25.25 74.2188 29.5938 74.2188
Q40.8281 74.2188 47.3594 69.1094
Q53.9062 64.0156 53.9062 55.3281
Q53.9062 49.2656 50.4375 45.0938
Q46.9688 40.9219 40.5781 39.3125" id="DejaVuSans-33"/>
    </defs>
    <g transform="translate(528.012061099 74.9879264706)scale(0.08 -0.08)">
     <use xlink:href="#DejaVuSans-33"/>
     <use x="63.623046875" xlink:href="#DejaVuSans-2e"/>
     <use x="95.41015625" xlink:href="#DejaVuSans-30"/>
    </g>
   </g>
   <g id="text_5">
    <!-- 4.0 -->
    <defs>
     <path d="
M37.7969 64.3125
L12.8906 25.3906
L37.7969 25.3906
z

M35.2031 72.9062
L47.6094 72.9062
L47.6094 25.3906
L58.0156 25.3906
L58.0156 17.1875
L47.6094 17.1875
L47.6094 0
L37.7969 0
L37.7969 17.1875
L4.89062 17.1875
L4.89062 26.7031
z
" id="DejaVuSans-34"/>
    </defs>
    <g transform="translate(642.457521465 74.9879264706)scale(0.08 -0.08)">
     <use xlink:href="#DejaVuSans-34"/>
     <use x="63.623046875" xlink:href="#DejaVuSans-2e"/>
     <use x="95.41015625" xlink:href="#DejaVuSans-30"/>
    </g>
   </g>
   <g id="text_6">
    <!-- 4.64 -->
    <defs>
     <path d="
M33.0156 40.375
Q26.375 40.375 22.4844 35.8281
Q18.6094 31.2969 18.6094 23.3906
Q18.6094 15.5312 22.4844 10.9531
Q26.375 6.39062 33.0156 6.39062
Q39.6562 6.39062 43.5312 10.9531
Q47.4062 15.5312 47.4062 23.3906
Q47.4062 31.2969 43.5312 35.8281
Q39.6562 40.375 33.0156 40.375
M52.5938 71.2969
L52.5938 62.3125
Q48.875 64.0625 45.0938 64.9844
Q41.3125 65.9219 37.5938 65.9219
Q27.8281 65.9219 22.6719 59.3281
Q17.5312 52.7344 16.7969 39.4062
Q19.6719 43.6562 24.0156 45.9219
Q28.375 48.1875 33.5938 48.1875
Q44.5781 48.1875 50.9531 41.5156
Q57.3281 34.8594 57.3281 23.3906
Q57.3281 12.1562 50.6875 5.35938
Q44.0469 -1.42188 33.0156 -1.42188
Q20.3594 -1.42188 13.6719 8.26562
Q6.98438 17.9688 6.98438 36.375
Q6.98438 53.6562 15.1875 63.9375
Q23.3906 74.2188 37.2031 74.2188
Q40.9219 74.2188 44.7031 73.4844
Q48.4844 72.75 52.5938 71.2969" id="DejaVuSans-36"/>
    </defs>
    <g transform="translate(715.89168 74.9879264706)scale(0.08 -0.08)">
     <use xlink:href="#DejaVuSans-34"/>
     <use x="63.623046875" xlink:href="#DejaVuSans-2e"/>
     <use x="95.41015625" xlink:href="#DejaVuSans-36"/>
     <use x="159.033203125" xlink:href="#DejaVuSans-34"/>
    </g>
   </g>
   <g id="text_7">
    <!-- chr_0 (.._000913.3_) -->
    <defs>
     <path d="
M50.9844 -16.6094
L50.9844 -23.5781
L-0.984375 -23.5781
L-0.984375 -16.6094
z
" id="DejaVuSans-5f"/>
     <path id="DejaVuSans-20"/>
     <path d="
M54.8906 33.0156
L54.8906 0
L45.9062 0
L45.9062 32.7188
Q45.9062 40.4844 42.875 44.3281
Q39.8438 48.1875 33.7969 48.1875
Q26.5156 48.1875 22.3125 43.5469
Q18.1094 38.9219 18.1094 30.9062
L18.1094 0
L9.07812 0
L9.07812 75.9844
L18.1094 75.9844
L18.1094 46.1875
Q21.3438 51.125 25.7031 53.5625
Q30.0781 56 35.7969 56
Q45.2188 56 50.0469 50.1719
Q54.8906 44.3438 54.8906 33.0156" id="DejaVuSans-68"/>
     <path d="
M10.9844 1.51562
L10.9844 10.5
Q14.7031 8.73438 18.5 7.8125
Q22.3125 6.89062 25.9844 6.89062
Q35.75 6.89062 40.8906 13.4531
Q46.0469 20.0156 46.7812 33.4062
Q43.9531 29.2031 39.5938 26.9531
Q35.25 24.7031 29.9844 24.7031
Q19.0469 24.7031 12.6719 31.3125
Q6.29688 37.9375 6.29688 49.4219
Q6.29688 60.6406 12.9375 67.4219
Q19.5781 74.2188 30.6094 74.2188
Q43.2656 74.2188 49.9219 64.5156
Q56.5938 54.8281 56.5938 36.375
Q56.5938 19.1406 48.4062 8.85938
Q40.2344 -1.42188 26.4219 -1.42188
Q22.7031 -1.42188 18.8906 -0.6875
Q15.0938 0.046875 10.9844 1.51562
M30.6094 32.4219
Q37.25 32.4219 41.125 36.9531
Q45.0156 41.5 45.0156 49.4219
Q45.0156 57.2812 41.125 61.8438
Q37.25 66.4062 30.6094 66.4062
Q23.9688 66.4062 20.0938 61.8438
Q16.2188 57.2812 16.2188 49.4219
Q16.2188 41.5 20.0938 36.9531
Q23.9688 32.4219 30.6094 32.4219" id="DejaVuSans-39"/>
     <path d="
M31 75.875
Q24.4688 64.6562 21.2812 53.6562
Q18.1094 42.6719 18.1094 31.3906
Q18.1094 20.125 21.3125 9.0625
Q24.5156 -2 31 -13.1875
L23.1875 -13.1875
Q15.875 -1.70312 12.2344 9.375
Q8.59375 20.4531 8.59375 31.3906
Q8.59375 42.2812 12.2031 53.3125
Q15.8281 64.3594 23.1875 75.875
z
" id="DejaVuSans-28"/>
     <path d="
M8.01562 75.875
L15.8281 75.875
Q23.1406 64.3594 26.7812 53.3125
Q30.4219 42.2812 30.4219 31.3906
Q30.4219 20.4531 26.7812 9.375
Q23.1406 -1.70312 15.8281 -13.1875
L8.01562 -13.1875
Q14.5 -2 17.7031 9.0625
Q20.9062 20.125 20.9062 31.3906
Q20.9062 42.6719 17.7031 53.6562
Q14.5 64.6562 8.01562 75.875" id="DejaVuSans-29"/>
     <path d="
M48.7812 52.5938
L48.7812 44.1875
Q44.9688 46.2969 41.1406 47.3438
Q37.3125 48.3906 33.4062 48.3906
Q24.6562 48.3906 19.8125 42.8438
Q14.9844 37.3125 14.9844 27.2969
Q14.9844 17.2812 19.8125 11.7344
Q24.6562 6.20312 33.4062 6.20312
Q37.3125 6.20312 41.1406 7.25
Q44.9688 8.29688 48.7812 10.4062
L48.7812 2.09375
Q45.0156 0.34375 40.9844 -0.53125
Q36.9688 -1.42188 32.4219 -1.42188
Q20.0625 -1.42188 12.7812 6.34375
Q5.51562 14.1094 5.51562 27.2969
Q5.51562 40.6719 12.8594 48.3281
Q20.2188 56 33.0156 56
Q37.1562 56 41.1094 55.1406
Q45.0625 54.2969 48.7812 52.5938" id="DejaVuSans-63"/>
     <path d="
M41.1094 46.2969
Q39.5938 47.1719 37.8125 47.5781
Q36.0312 48 33.8906 48
Q26.2656 48 22.1875 43.0469
Q18.1094 38.0938 18.1094 28.8125
L18.1094 0
L9.07812 0
L9.07812 54.6875
L18.1094 54.6875
L18.1094 46.1875
Q20.9531 51.1719 25.4844 53.5781
Q30.0312 56 36.5312 56
Q37.4531 56 38.5781 55.875
Q39.7031 55.7656 41.0625 55.5156
z
" id="DejaVuSans-72"/>
    </defs>
    <g transform="translate(392.58208125 56.7121636029)scale(0.11 -0.11)">
     <use xlink:href="#DejaVuSans-63"/>
     <use x="54.98046875" xlink:href="#DejaVuSans-68"/>
     <use x="118.359375" xlink:href="#DejaVuSans-72"/>
     <use x="159.47265625" xlink:href="#DejaVuSans-5f"/>
     <use x="209.47265625" xlink:href="#DejaVuSans-30"/>
     <use x="273.095703125" xlink:href="#DejaVuSans-20"/>
     <use x="304.8828125" xlink:href="#DejaVuSans-28"/>
     <use x="343.896484375" xlink:href="#DejaVuSans-2e"/>
     <use x="375.68359375" xlink:href="#DejaVuSans-2e"/>
     <use x="407.470703125" xlink:href="#DejaVuSans-5f"/>
     <use x="457.470703125" xlink:href="#DejaVuSans-30"/>
     <use x="521.09375" xlink:href="#DejaVuSans-30"/>
     <use x="584.716796875" xlink:href="#DejaVuSans-30"/>
     <use x="648.33984375" xlink:href="#DejaVuSans-39"/>
     <use x="711.962890625" xlink:href="#DejaVuSans-31"/>
     <use x="775.5859375" xlink:href="#DejaVuSans-33"/>
     <use x="839.208984375" xlink:href="#DejaVuSans-2e"/>
     <use x="870.99609375" xlink:href="#DejaVuSans-33"/>
     <use x="934.619140625" xlink:href="#DejaVuSans-5f"/>
     <use x="984.619140625" xlink:href="#DejaVuSans-29"/>
    </g>
   </g>
   <g id="text_8">
    <!-- Genome, Mb -->
    <defs>
     <path d="
M9.8125 72.9062
L24.5156 72.9062
L43.1094 23.2969
L61.8125 72.9062
L76.5156 72.9062
L76.5156 0
L66.8906 0
L66.8906 64.0156
L48.0938 14.0156
L38.1875 14.0156
L19.3906 64.0156
L19.3906 0
L9.8125 0
z
" id="DejaVuSans-4d"/>
     <path d="
M11.7188 12.4062
L22.0156 12.4062
L22.0156 4
L14.0156 -11.625
L7.71875 -11.625
L11.7188 4
z
" id="DejaVuSans-2c"/>
     <path d="
M30.6094 48.3906
Q23.3906 48.3906 19.1875 42.75
Q14.9844 37.1094 14.9844 27.2969
Q14.9844 17.4844 19.1562 11.8438
Q23.3438 6.20312 30.6094 6.20312
Q37.7969 6.20312 41.9844 11.8594
Q46.1875 17.5312 46.1875 27.2969
Q46.1875 37.0156 41.9844 42.7031
Q37.7969 48.3906 30.6094 48.3906
M30.6094 56
Q42.3281 56 49.0156 48.375
Q55.7188 40.7656 55.7188 27.2969
Q55.7188 13.875 49.0156 6.21875
Q42.3281 -1.42188 30.6094 -1.42188
Q18.8438 -1.42188 12.1719 6.21875
Q5.51562 13.875 5.51562 27.2969
Q5.51562 40.7656 12.1719 48.375
Q18.8438 56 30.6094 56" id="DejaVuSans-6f"/>
     <path d="
M52 44.1875
Q55.375 50.25 60.0625 53.125
Q64.75 56 71.0938 56
Q79.6406 56 84.2812 50.0156
Q88.9219 44.0469 88.9219 33.0156
L88.9219 0
L79.8906 0
L79.8906 32.7188
Q79.8906 40.5781 77.0938 44.375
Q74.3125 48.1875 68.6094 48.1875
Q61.625 48.1875 57.5625 43.5469
Q53.5156 38.9219 53.5156 30.9062
L53.5156 0
L44.4844 0
L44.4844 32.7188
Q44.4844 40.625 41.7031 44.4062
Q38.9219 48.1875 33.1094 48.1875
Q26.2188 48.1875 22.1562 43.5312
Q18.1094 38.875 18.1094 30.9062
L18.1094 0
L9.07812 0
L9.07812 54.6875
L18.1094 54.6875
L18.1094 46.1875
Q21.1875 51.2188 25.4844 53.6094
Q29.7812 56 35.6875 56
Q41.6562 56 45.8281 52.9688
Q50 49.9531 52 44.1875" id="DejaVuSans-6d"/>
     <path d="
M54.8906 33.0156
L54.8906 0
L45.9062 0
L45.9062 32.7188
Q45.9062 40.4844 42.875 44.3281
Q39.8438 48.1875 33.7969 48.1875
Q26.5156 48.1875 22.3125 43.5469
Q18.1094 38.9219 18.1094 30.9062
L18.1094 0
L9.07812 0
L9.07812 54.6875
L18.1094 54.6875
L18.1094 46.1875
Q21.3438 51.125 25.7031 53.5625
Q30.0781 56 35.7969 56
Q45.2188 56 50.0469 50.1719
Q54.8906 44.3438 54.8906 33.0156" id="DejaVuSans-6e"/>
     <path d="
M59.5156 10.4062
L59.5156 29.9844
L43.4062 29.9844
L43.4062 38.0938
L69.2812 38.0938
L69.2812 6.78125
Q63.5781 2.73438 56.6875 0.65625
Q49.8125 -1.42188 42 -1.42188
Q24.9062 -1.42188 15.25 8.5625
Q5.60938 18.5625 5.60938 36.375
Q5.60938 54.25 15.25 64.2344
Q24.9062 74.2188 42 74.2188
Q49.125 74.2188 55.5469 72.4531
Q61.9688 70.7031 67.3906 67.2812
L67.3906 56.7812
Q61.9219 61.4219 55.7656 63.7656
Q49.6094 66.1094 42.8281 66.1094
Q29.4375 66.1094 22.7188 58.6406
Q16.0156 51.1719 16.0156 36.375
Q16.0156 21.625 22.7188 14.1562
Q29.4375 6.6875 42.8281 6.6875
Q48.0469 6.6875 52.1406 7.59375
Q56.25 8.5 59.5156 10.4062" id="DejaVuSans-47"/>
     <path d="
M56.2031 29.5938
L56.2031 25.2031
L14.8906 25.2031
Q15.4844 15.9219 20.4844 11.0625
Q25.4844 6.20312 34.4219 6.20312
Q39.5938 6.20312 44.4531 7.46875
Q49.3125 8.73438 54.1094 11.2812
L54.1094 2.78125
Q49.2656 0.734375 44.1875 -0.34375
Q39.1094 -1.42188 33.8906 -1.42188
Q20.7969 -1.42188 13.1562 6.1875
Q5.51562 13.8125 5.51562 26.8125
Q5.51562 40.2344 12.7656 48.1094
Q20.0156 56 32.3281 56
Q43.3594 56 49.7812 48.8906
Q56.2031 41.7969 56.2031 29.5938
M47.2188 32.2344
Q47.125 39.5938 43.0938 43.9844
Q39.0625 48.3906 32.4219 48.3906
Q24.9062 48.3906 20.3906 44.1406
Q15.875 39.8906 15.1875 32.1719
z
" id="DejaVuSans-65"/>
     <path d="
M48.6875 27.2969
Q48.6875 37.2031 44.6094 42.8438
Q40.5312 48.4844 33.4062 48.4844
Q26.2656 48.4844 22.1875 42.8438
Q18.1094 37.2031 18.1094 27.2969
Q18.1094 17.3906 22.1875 11.75
Q26.2656 6.10938 33.4062 6.10938
Q40.5312 6.10938 44.6094 11.75
Q48.6875 17.3906 48.6875 27.2969
M18.1094 46.3906
Q20.9531 51.2656 25.2656 53.625
Q29.5938 56 35.5938 56
Q45.5625 56 51.7812 48.0938
Q58.0156 40.1875 58.0156 27.2969
Q58.0156 14.4062 51.7812 6.48438
Q45.5625 -1.42188 35.5938 -1.42188
Q29.5938 -1.42188 25.2656 0.953125
Q20.9531 3.32812 18.1094 8.20312
L18.1094 0
L9.07812 0
L9.07812 75.9844
L18.1094 75.9844
z
" id="DejaVuSans-62"/>
    </defs>
    <g transform="translate(413.738175 87.0556930147)scale(0.11 -0.11)">
     <use xlink:href="#DejaVuSans-47"/>
     <use x="77.490234375" xlink:href="#DejaVuSans-65"/>
     <use x="139.013671875" xlink:href="#DejaVuSans-6e"/>
     <use x="202.392578125" xlink:href="#DejaVuSans-6f"/>
     <use x="263.57421875" xlink:href="#DejaVuSans-6d"/>
     <use x="360.986328125" xlink:href="#DejaVuSans-65"/>
     <use x="422.509765625" xlink:href="#DejaVuSans-2c"/>
     <use x="454.296875" xlink:href="#DejaVuSans-20"/>
     <use x="486.083984375" xlink:href="#DejaVuSans-4d"/>
     <use x="572.36328125" xlink:href="#DejaVuSans-62"/>
    </g>
   </g>
   <g id="text_9">
    <!-- final.contigs -->
    <defs>
     <path d="
M9.42188 54.6875
L18.4062 54.6875
L18.4062 0
L9.42188 0
z

M9.42188 75.9844
L18.4062 75.9844
L18.4062 64.5938
L9.42188 64.5938
z
" id="DejaVuSans-69"/>
     <path d="
M9.42188 75.9844
L18.4062 75.9844
L18.4062 0
L9.42188 0
z
" id="DejaVuSans-6c"/>
     <path d="
M45.4062 27.9844
Q45.4062 37.75 41.375 43.1094
Q37.3594 48.4844 30.0781 48.4844
Q22.8594 48.4844 18.8281 43.1094
Q14.7969 37.75 14.7969 27.9844
Q14.7969 18.2656 18.8281 12.8906
Q22.8594 7.51562 30.0781 7.51562
Q37.3594 7.51562 41.375 12.8906
Q45.4062 18.2656 45.4062 27.9844
M54.3906 6.78125
Q54.3906 -7.17188 48.1875 -13.9844
Q42 -20.7969 29.2031 -20.7969
Q24.4688 -20.7969 20.2656 -20.0938
Q16.0625 -19.3906 12.1094 -17.9219
L12.1094 -9.1875
Q16.0625 -11.3281 19.9219 -12.3438
Q23.7812 -13.375 27.7812 -13.375
Q36.625 -13.375 41.0156 -8.76562
Q45.4062 -4.15625 45.4062 5.17188
L45.4062 9.625
Q42.625 4.78125 38.2812 2.39062
Q33.9375 0 27.875 0
Q17.8281 0 11.6719 7.65625
Q5.51562 15.3281 5.51562 27.9844
Q5.51562 40.6719 11.6719 48.3281
Q17.8281 56 27.875 56
Q33.9375 56 38.2812 53.6094
Q42.625 51.2188 45.4062 46.3906
L45.4062 54.6875
L54.3906 54.6875
z
" id="DejaVuSans-67"/>
     <path d="
M37.1094 75.9844
L37.1094 68.5
L28.5156 68.5
Q23.6875 68.5 21.7969 66.5469
Q19.9219 64.5938 19.9219 59.5156
L19.9219 54.6875
L34.7188 54.6875
L34.7188 47.7031
L19.9219 47.7031
L19.9219 0
L10.8906 0
L10.8906 47.7031
L2.29688 47.7031
L2.29688 54.6875
L10.8906 54.6875
L10.8906 58.5
Q10.8906 67.625 15.1406 71.7969
Q19.3906 75.9844 28.6094 75.9844
z
" id="DejaVuSans-66"/>
     <path d="
M18.3125 70.2188
L18.3125 54.6875
L36.8125 54.6875
L36.8125 47.7031
L18.3125 47.7031
L18.3125 18.0156
Q18.3125 11.3281 20.1406 9.42188
Q21.9688 7.51562 27.5938 7.51562
L36.8125 7.51562
L36.8125 0
L27.5938 0
Q17.1875 0 13.2344 3.875
Q9.28125 7.76562 9.28125 18.0156
L9.28125 47.7031
L2.6875 47.7031
L2.6875 54.6875
L9.28125 54.6875
L9.28125 70.2188
z
" id="DejaVuSans-74"/>
     <path d="
M44.2812 53.0781
L44.2812 44.5781
Q40.4844 46.5312 36.375 47.5
Q32.2812 48.4844 27.875 48.4844
Q21.1875 48.4844 17.8438 46.4375
Q14.5 44.3906 14.5 40.2812
Q14.5 37.1562 16.8906 35.375
Q19.2812 33.5938 26.5156 31.9844
L29.5938 31.2969
Q39.1562 29.25 43.1875 25.5156
Q47.2188 21.7812 47.2188 15.0938
Q47.2188 7.46875 41.1875 3.01562
Q35.1562 -1.42188 24.6094 -1.42188
Q20.2188 -1.42188 15.4531 -0.5625
Q10.6875 0.296875 5.42188 2
L5.42188 11.2812
Q10.4062 8.6875 15.2344 7.39062
Q20.0625 6.10938 24.8125 6.10938
Q31.1562 6.10938 34.5625 8.28125
Q37.9844 10.4531 37.9844 14.4062
Q37.9844 18.0625 35.5156 20.0156
Q33.0625 21.9688 24.7031 23.7812
L21.5781 24.5156
Q13.2344 26.2656 9.51562 29.9062
Q5.8125 33.5469 5.8125 39.8906
Q5.8125 47.6094 11.2812 51.7969
Q16.75 56 26.8125 56
Q31.7812 56 36.1719 55.2656
Q40.5781 54.5469 44.2812 53.0781" id="DejaVuSans-73"/>
     <path d="
M34.2812 27.4844
Q23.3906 27.4844 19.1875 25
Q14.9844 22.5156 14.9844 16.5
Q14.9844 11.7188 18.1406 8.90625
Q21.2969 6.10938 26.7031 6.10938
Q34.1875 6.10938 38.7031 11.4062
Q43.2188 16.7031 43.2188 25.4844
L43.2188 27.4844
z

M52.2031 31.2031
L52.2031 0
L43.2188 0
L43.2188 8.29688
Q40.1406 3.32812 35.5469 0.953125
Q30.9531 -1.42188 24.3125 -1.42188
Q15.9219 -1.42188 10.9531 3.29688
Q6 8.01562 6 15.9219
Q6 25.1406 12.1719 29.8281
Q18.3594 34.5156 30.6094 34.5156
L43.2188 34.5156
L43.2188 35.4062
Q43.2188 41.6094 39.1406 45
Q35.0625 48.3906 27.6875 48.3906
Q23 48.3906 18.5469 47.2656
Q14.1094 46.1406 10.0156 43.8906
L10.0156 52.2031
Q14.9375 54.1094 19.5781 55.0469
Q24.2188 56 28.6094 56
Q40.4844 56 46.3438 49.8438
Q52.2031 43.7031 52.2031 31.2031" id="DejaVuSans-61"/>
    </defs>
    <g transform="translate(105.856725 101.259669118)scale(0.12 -0.12)">
     <use xlink:href="#DejaVuSans-66"/>
     <use x="35.205078125" xlink:href="#DejaVuSans-69"/>
     <use x="62.98828125" xlink:href="#DejaVuSans-6e"/>
     <use x="126.3671875" xlink:href="#DejaVuSans-61"/>
     <use x="187.646484375" xlink:href="#DejaVuSans-6c"/>
     <use x="215.4296875" xlink:href="#DejaVuSans-2e"/>
     <use x="247.216796875" xlink:href="#DejaVuSans-63"/>
     <use x="302.197265625" xlink:href="#DejaVuSans-6f"/>
     <use x="363.37890625" xlink:href="#DejaVuSans-6e"/>
     <use x="426.7578125" xlink:href="#DejaVuSans-74"/>
     <use x="465.966796875" xlink:href="#DejaVuSans-69"/>
     <use x="493.75" xlink:href="#DejaVuSans-67"/>
     <use x="557.2265625" xlink:href="#DejaVuSans-73"/>
    </g>
   </g>
  </g>
 </g>
 <defs>
  <clipPath id="p6a4ae4428d">
   <rect height="117.458823529" width="781.2" x="0.0" y="0.0"/>
  </clipPath>
 </defs>
</svg>
