<?xml version="1.0" encoding="utf-8" standalone="no"?>
<!DOCTYPE svg PUBLIC "-//W3C//DTD SVG 1.1//EN"
  "http://www.w3.org/Graphics/SVG/1.1/DTD/svg11.dtd">
<!-- Created with matplotlib (http://matplotlib.org/) -->
<svg height="117pt" version="1.1" viewBox="0 0 781 117" width="781pt" xmlns="http://www.w3.org/2000/svg" xmlns:xlink="http://www.w3.org/1999/xlink">
 <defs>
  <style type="text/css">
*{stroke-linecap:butt;stroke-linejoin:round;}
  </style>
 </defs>
 <g id="figure_1">
  <g id="patch_1">
   <path d="
M0 117.459
L781.2 117.459
L781.2 0
L0 0
z
" style="fill:#ffffff;"/>
  </g>
  <g id="axes_1">
   <g id="patch_2">
    <path clip-path="url(#p6a4ae4428d)" d="
M149.99 117.459
L720.266 117.459
L720.266 15.6612
L149.99 15.6612
z
" style="fill:#ffffff;"/>
   </g>
   <g id="patch_3">
    <path clip-path="url(#p6a4ae4428d)" d="
M182.811 106.888
L189.189 106.888
L189.189 95.1416
L182.811 95.1416
z
" style="fill:#4daf4a;"/>
   </g>
   <g id="patch_4">
    <path clip-path="url(#p6a4ae4428d)" d="
M189.189 105.321
L192.826 105.321
L192.826 93.5755
L189.189 93.5755
z
" style="fill:#40cf40;"/>
   </g>
   <g id="patch_5">
    <path clip-path="url(#p6a4ae4428d)" d="
M192.826 106.888
L193.563 106.888
L193.563 95.1416
L192.826 95.1416
z
" style="fill:#4daf4a;"/>
   </g>
   <g id="patch_6">
    <path clip-path="url(#p6a4ae4428d)" d="
M193.563 105.321
L198.839 105.321
L198.839 93.5755
L193.563 93.5755
z
" style="fill:#40cf40;"/>
   </g>
   <g id="patch_7">
    <path clip-path="url(#p6a4ae4428d)" d="
M198.839 106.888
L201.341 106.888
L201.341 95.1416
L198.839 95.1416
z
" style="fill:#4daf4a;"/>
   </g>
   <g id="patch_8">
    <path clip-path="url(#p6a4ae4428d)" d="
M201.341 105.321
L207.676 105.321
L207.676 93.5755
L201.341 93.5755
z
" style="fill:#40cf40;"/>
   </g>
   <g id="patch_9">
    <path clip-path="url(#p6a4ae4428d)" d="
M207.676 106.888
L208.449 106.888
L208.449 95.1416
L207.676 95.1416
z
" style="fill:#4daf4a;"/>
   </g>
   <g id="patch_10">
    <path clip-path="url(#p6a4ae4428d)" d="
M208.449 105.321
L217.151 105.321
L217.151 93.5755
L208.449 93.5755
z
" style="fill:#40cf40;"/>
   </g>
   <g id="patch_11">
    <path clip-path="url(#p6a4ae4428d)" d="
M217.151 106.888
L219.173 106.888
L219.173 95.1416
L217.151 95.1416
z
" style="fill:#4daf4a;"/>
   </g>
   <g id="patch_12">
    <path clip-path="url(#p6a4ae4428d)" d="
M219.174 105.321
L221.169 105.321
L221.169 93.5755
L219.174 93.5755
z
" style="fill:#40cf40;"/>
   </g>
   <g id="patch_13">
    <path clip-path="url(#p6a4ae4428d)" d="
M221.169 106.888
L230.754 106.888
L230.754 95.1416
L221.169 95.1416
z
" style="fill:#4daf4a;"/>
   </g>
   <g id="patch_14">
    <path clip-path="url(#p6a4ae4428d)" d="
M230.754 105.321
L235.342 105.321
L235.342 93.5755
L230.754 93.5755
z
" style="fill:#40cf40;"/>
   </g>
   <g id="patch_15">
    <path clip-path="url(#p6a4ae4428d)" d="
M235.342 106.888
L237.654 106.888
L237.654 95.1416
L235.342 95.1416
z
" style="fill:#4daf4a;"/>
   </g>
   <g id="patch_16">
    <path clip-path="url(#p6a4ae4428d)" d="
M237.654 105.321
L241.048 105.321
L241.048 93.5755
L237.654 93.5755
z
" style="fill:#40cf40;"/>
   </g>
   <g id="patch_17">
    <path clip-path="url(#p6a4ae4428d)" d="
M241.048 106.888
L247.918 106.888
L247.918 95.1416
L241.048 95.1416
z
" style="fill:#4daf4a;"/>
   </g>
   <g id="patch_18">
    <path clip-path="url(#p6a4ae4428d)" d="
M247.919 105.321
L249.155 105.321
L249.155 93.5755
L247.919 93.5755
z
" style="fill:#40cf40;"/>
   </g>
   <g id="patch_19">
    <path clip-path="url(#p6a4ae4428d)" d="
M249.156 106.888
L252.983 106.888
L252.983 95.1416
L249.156 95.1416
z
" style="fill:#4daf4a;"/>
   </g>
   <g id="patch_20">
    <path clip-path="url(#p6a4ae4428d)" d="
M252.984 105.321
L254.022 105.321
L254.022 93.5755
L252.984 93.5755
z
" style="fill:#40cf40;"/>
   </g>
   <g id="patch_21">
    <path clip-path="url(#p6a4ae4428d)" d="
M254.022 106.888
L260.08 106.888
L260.08 95.1416
L254.022 95.1416
z
" style="fill:#4daf4a;"/>
   </g>
   <g id="patch_22">
    <path clip-path="url(#p6a4ae4428d)" d="
M260.08 105.321
L260.08 105.321
L260.08 93.5755
L260.08 93.5755
z
" style="fill:#40cf40;"/>
   </g>
   <g id="patch_23">
    <path clip-path="url(#p6a4ae4428d)" d="
M260.081 106.888
L260.081 106.888
L260.081 95.1416
L260.081 95.1416
z
" style="fill:#4daf4a;"/>
   </g>
   <g id="patch_24">
    <path clip-path="url(#p6a4ae4428d)" d="
M260.082 105.321
L260.082 105.321
L260.082 93.5755
L260.082 93.5755
z
" style="fill:#40cf40;"/>
   </g>
   <g id="patch_25">
    <path clip-path="url(#p6a4ae4428d)" d="
M260.083 106.888
L260.087 106.888
L260.087 95.1416
L260.083 95.1416
z
" style="fill:#4daf4a;"/>
   </g>
   <g id="patch_26">
    <path clip-path="url(#p6a4ae4428d)" d="
M260.087 105.321
L260.105 105.321
L260.105 93.5755
L260.087 93.5755
z
" style="fill:#40cf40;"/>
   </g>
   <g id="patch_27">
    <path clip-path="url(#p6a4ae4428d)" d="
M260.105 106.888
L260.106 106.888
L260.106 95.1416
L260.105 95.1416
z
" style="fill:#4daf4a;"/>
   </g>
   <g id="patch_28">
    <path clip-path="url(#p6a4ae4428d)" d="
M260.106 105.321
L264.07 105.321
L264.07 93.5755
L260.106 93.5755
z
" style="fill:#40cf40;"/>
   </g>
   <g id="patch_29">
    <path clip-path="url(#p6a4ae4428d)" d="
M264.07 106.888
L272.925 106.888
L272.925 95.1416
L264.07 95.1416
z
" style="fill:#4daf4a;"/>
   </g>
   <g id="patch_30">
    <path clip-path="url(#p6a4ae4428d)" d="
M272.925 105.321
L278.26 105.321
L278.26 93.5755
L272.925 93.5755
z
" style="fill:#40cf40;"/>
   </g>
   <g id="patch_31">
    <path clip-path="url(#p6a4ae4428d)" d="
M278.261 106.888
L284.008 106.888
L284.008 95.1416
L278.261 95.1416
z
" style="fill:#4daf4a;"/>
   </g>
   <g id="patch_32">
    <path clip-path="url(#p6a4ae4428d)" d="
M284.009 105.321
L285.152 105.321
L285.152 93.5755
L284.009 93.5755
z
" style="fill:#40cf40;"/>
   </g>
   <g id="patch_33">
    <path clip-path="url(#p6a4ae4428d)" d="
M285.152 106.888
L288.906 106.888
L288.906 95.1416
L285.152 95.1416
z
" style="fill:#4daf4a;"/>
   </g>
   <g id="patch_34">
    <path clip-path="url(#p6a4ae4428d)" d="
M288.906 105.321
L291.389 105.321
L291.389 93.5755
L288.906 93.5755
z
" style="fill:#40cf40;"/>
   </g>
   <g id="patch_35">
    <path clip-path="url(#p6a4ae4428d)" d="
M291.389 106.888
L292.601 106.888
L292.601 95.1416
L291.389 95.1416
z
" style="fill:#4daf4a;"/>
   </g>
   <g id="patch_36">
    <path clip-path="url(#p6a4ae4428d)" d="
M292.602 105.321
L298.313 105.321
L298.313 93.5755
L292.602 93.5755
z
" style="fill:#40cf40;"/>
   </g>
   <g id="patch_37">
    <path clip-path="url(#p6a4ae4428d)" d="
M298.313 106.888
L299.54 106.888
L299.54 95.1416
L298.313 95.1416
z
" style="fill:#4daf4a;"/>
   </g>
   <g id="patch_38">
    <path clip-path="url(#p6a4ae4428d)" d="
M299.553 105.321
L299.636 105.321
L299.636 93.5755
L299.553 93.5755
z
" style="fill:#40cf40;"/>
   </g>
   <g id="patch_39">
    <path clip-path="url(#p6a4ae4428d)" d="
M299.636 106.888
L301.656 106.888
L301.656 95.1416
L299.636 95.1416
z
" style="fill:#4daf4a;"/>
   </g>
   <g id="patch_40">
    <path clip-path="url(#p6a4ae4428d)" d="
M301.657 105.321
L304.005 105.321
L304.005 93.5755
L301.657 93.5755
z
" style="fill:#40cf40;"/>
   </g>
   <g id="patch_41">
    <path clip-path="url(#p6a4ae4428d)" d="
M304.005 106.888
L305.622 106.888
L305.622 95.1416
L304.005 95.1416
z
" style="fill:#4daf4a;"/>
   </g>
   <g id="patch_42">
    <path clip-path="url(#p6a4ae4428d)" d="
M305.622 105.321
L307.379 105.321
L307.379 93.5755
L305.622 93.5755
z
" style="fill:#40cf40;"/>
   </g>
   <g id="patch_43">
    <path clip-path="url(#p6a4ae4428d)" d="
M307.379 106.888
L309.797 106.888
L309.797 95.1416
L307.379 95.1416
z
" style="fill:#4daf4a;"/>
   </g>
   <g id="patch_44">
    <path clip-path="url(#p6a4ae4428d)" d="
M309.797 105.321
L310.036 105.321
L310.036 93.5755
L309.797 93.5755
z
" style="fill:#40cf40;"/>
   </g>
   <g id="patch_45">
    <path clip-path="url(#p6a4ae4428d)" d="
M310.036 106.888
L313.605 106.888
L313.605 95.1416
L310.036 95.1416
z
" style="fill:#4daf4a;"/>
   </g>
   <g id="patch_46">
    <path clip-path="url(#p6a4ae4428d)" d="
M313.605 105.321
L319.138 105.321
L319.138 93.5755
L313.605 93.5755
z
" style="fill:#40cf40;"/>
   </g>
   <g id="patch_47">
    <path clip-path="url(#p6a4ae4428d)" d="
M319.138 106.888
L323.812 106.888
L323.812 95.1416
L319.138 95.1416
z
" style="fill:#4daf4a;"/>
   </g>
   <g id="patch_48">
    <path clip-path="url(#p6a4ae4428d)" d="
M323.812 105.321
L324.099 105.321
L324.099 93.5755
L323.812 93.5755
z
" style="fill:#40cf40;"/>
   </g>
   <g id="patch_49">
    <path clip-path="url(#p6a4ae4428d)" d="
M324.1 106.888
L324.92 106.888
L324.92 95.1416
L324.1 95.1416
z
" style="fill:#4daf4a;"/>
   </g>
   <g id="patch_50">
    <path clip-path="url(#p6a4ae4428d)" d="
M324.92 105.321
L325.439 105.321
L325.439 93.5755
L324.92 93.5755
z
" style="fill:#40cf40;"/>
   </g>
   <g id="patch_51">
    <path clip-path="url(#p6a4ae4428d)" d="
M325.439 106.888
L329.927 106.888
L329.927 95.1416
L325.439 95.1416
z
" style="fill:#4daf4a;"/>
   </g>
   <g id="patch_52">
    <path clip-path="url(#p6a4ae4428d)" d="
M329.927 105.321
L331.838 105.321
L331.838 93.5755
L329.927 93.5755
z
" style="fill:#40cf40;"/>
   </g>
   <g id="patch_53">
    <path clip-path="url(#p6a4ae4428d)" d="
M331.839 106.888
L337.195 106.888
L337.195 95.1416
L331.839 95.1416
z
" style="fill:#4daf4a;"/>
   </g>
   <g id="patch_54">
    <path clip-path="url(#p6a4ae4428d)" d="
M337.196 105.321
L343.84 105.321
L343.84 93.5755
L337.196 93.5755
z
" style="fill:#40cf40;"/>
   </g>
   <g id="patch_55">
    <path clip-path="url(#p6a4ae4428d)" d="
M343.841 106.888
L345.582 106.888
L345.582 95.1416
L343.841 95.1416
z
" style="fill:#4daf4a;"/>
   </g>
   <g id="patch_56">
    <path clip-path="url(#p6a4ae4428d)" d="
M345.582 105.321
L347.907 105.321
L347.907 93.5755
L345.582 93.5755
z
" style="fill:#40cf40;"/>
   </g>
   <g id="patch_57">
    <path clip-path="url(#p6a4ae4428d)" d="
M347.907 106.888
L348.868 106.888
L348.868 95.1416
L347.907 95.1416
z
" style="fill:#4daf4a;"/>
   </g>
   <g id="patch_58">
    <path clip-path="url(#p6a4ae4428d)" d="
M348.869 105.321
L355.96 105.321
L355.96 93.5755
L348.869 93.5755
z
" style="fill:#40cf40;"/>
   </g>
   <g id="patch_59">
    <path clip-path="url(#p6a4ae4428d)" d="
M355.961 106.888
L362.23 106.888
L362.23 95.1416
L355.961 95.1416
z
" style="fill:#4daf4a;"/>
   </g>
   <g id="patch_60">
    <path clip-path="url(#p6a4ae4428d)" d="
M362.231 105.321
L362.746 105.321
L362.746 93.5755
L362.231 93.5755
z
" style="fill:#40cf40;"/>
   </g>
   <g id="patch_61">
    <path clip-path="url(#p6a4ae4428d)" d="
M362.747 106.888
L369.594 106.888
L369.594 95.1416
L362.747 95.1416
z
" style="fill:#4daf4a;"/>
   </g>
   <g id="patch_62">
    <path clip-path="url(#p6a4ae4428d)" d="
M369.594 105.321
L369.851 105.321
L369.851 93.5755
L369.594 93.5755
z
" style="fill:#40cf40;"/>
   </g>
   <g id="patch_63">
    <path clip-path="url(#p6a4ae4428d)" d="
M369.851 106.888
L371.582 106.888
L371.582 95.1416
L369.851 95.1416
z
" style="fill:#4daf4a;"/>
   </g>
   <g id="patch_64">
    <path clip-path="url(#p6a4ae4428d)" d="
M371.582 105.321
L374.378 105.321
L374.378 93.5755
L371.582 93.5755
z
" style="fill:#40cf40;"/>
   </g>
   <g id="patch_65">
    <path clip-path="url(#p6a4ae4428d)" d="
M374.378 106.888
L374.685 106.888
L374.685 95.1416
L374.378 95.1416
z
" style="fill:#4daf4a;"/>
   </g>
   <g id="patch_66">
    <path clip-path="url(#p6a4ae4428d)" d="
M374.685 105.321
L374.939 105.321
L374.939 93.5755
L374.685 93.5755
z
" style="fill:#40cf40;"/>
   </g>
   <g id="patch_67">
    <path clip-path="url(#p6a4ae4428d)" d="
M374.94 106.888
L374.972 106.888
L374.972 95.1416
L374.94 95.1416
z
" style="fill:#4daf4a;"/>
   </g>
   <g id="patch_68">
    <path clip-path="url(#p6a4ae4428d)" d="
M374.973 105.321
L378.262 105.321
L378.262 93.5755
L374.973 93.5755
z
" style="fill:#40cf40;"/>
   </g>
   <g id="patch_69">
    <path clip-path="url(#p6a4ae4428d)" d="
M378.262 106.888
L378.39 106.888
L378.39 95.1416
L378.262 95.1416
z
" style="fill:#4daf4a;"/>
   </g>
   <g id="patch_70">
    <path clip-path="url(#p6a4ae4428d)" d="
M378.401 105.321
L383.877 105.321
L383.877 93.5755
L378.401 93.5755
z
" style="fill:#40cf40;"/>
   </g>
   <g id="patch_71">
    <path clip-path="url(#p6a4ae4428d)" d="
M383.877 106.888
L385.089 106.888
L385.089 95.1416
L383.877 95.1416
z
" style="fill:#4daf4a;"/>
   </g>
   <g id="patch_72">
    <path clip-path="url(#p6a4ae4428d)" d="
M385.09 105.321
L385.869 105.321
L385.869 93.5755
L385.09 93.5755
z
" style="fill:#40cf40;"/>
   </g>
   <g id="patch_73">
    <path clip-path="url(#p6a4ae4428d)" d="
M385.869 106.888
L386.155 106.888
L386.155 95.1416
L385.869 95.1416
z
" style="fill:#4daf4a;"/>
   </g>
   <g id="patch_74">
    <path clip-path="url(#p6a4ae4428d)" d="
M386.155 105.321
L389.882 105.321
L389.882 93.5755
L386.155 93.5755
z
" style="fill:#40cf40;"/>
   </g>
   <g id="patch_75">
    <path clip-path="url(#p6a4ae4428d)" d="
M389.882 106.888
L393.189 106.888
L393.189 95.1416
L389.882 95.1416
z
" style="fill:#4daf4a;"/>
   </g>
   <g id="patch_76">
    <path clip-path="url(#p6a4ae4428d)" d="
M393.189 105.321
L398.443 105.321
L398.443 93.5755
L393.189 93.5755
z
" style="fill:#40cf40;"/>
   </g>
   <g id="patch_77">
    <path clip-path="url(#p6a4ae4428d)" d="
M398.444 106.888
L401.38 106.888
L401.38 95.1416
L398.444 95.1416
z
" style="fill:#4daf4a;"/>
   </g>
   <g id="patch_78">
    <path clip-path="url(#p6a4ae4428d)" d="
M401.439 105.321
L401.761 105.321
L401.761 93.5755
L401.439 93.5755
z
" style="fill:#40cf40;"/>
   </g>
   <g id="patch_79">
    <path clip-path="url(#p6a4ae4428d)" d="
M401.762 106.888
L411.013 106.888
L411.013 95.1416
L401.762 95.1416
z
" style="fill:#4daf4a;"/>
   </g>
   <g id="patch_80">
    <path clip-path="url(#p6a4ae4428d)" d="
M411.013 105.321
L418.636 105.321
L418.636 93.5755
L411.013 93.5755
z
" style="fill:#40cf40;"/>
   </g>
   <g id="patch_81">
    <path clip-path="url(#p6a4ae4428d)" d="
M418.636 106.888
L418.877 106.888
L418.877 95.1416
L418.636 95.1416
z
" style="fill:#4daf4a;"/>
   </g>
   <g id="patch_82">
    <path clip-path="url(#p6a4ae4428d)" d="
M418.877 105.321
L421.978 105.321
L421.978 93.5755
L418.877 93.5755
z
" style="fill:#40cf40;"/>
   </g>
   <g id="patch_83">
    <path clip-path="url(#p6a4ae4428d)" d="
M421.978 106.888
L425.994 106.888
L425.994 95.1416
L421.978 95.1416
z
" style="fill:#4daf4a;"/>
   </g>
   <g id="patch_84">
    <path clip-path="url(#p6a4ae4428d)" d="
M425.995 105.321
L431.094 105.321
L431.094 93.5755
L425.995 93.5755
z
" style="fill:#40cf40;"/>
   </g>
   <g id="patch_85">
    <path clip-path="url(#p6a4ae4428d)" d="
M431.095 106.888
L437.769 106.888
L437.769 95.1416
L431.095 95.1416
z
" style="fill:#4daf4a;"/>
   </g>
   <g id="patch_86">
    <path clip-path="url(#p6a4ae4428d)" d="
M437.769 105.321
L441.531 105.321
L441.531 93.5755
L437.769 93.5755
z
" style="fill:#40cf40;"/>
   </g>
   <g id="patch_87">
    <path clip-path="url(#p6a4ae4428d)" d="
M441.532 106.888
L442.214 106.888
L442.214 95.1416
L441.532 95.1416
z
" style="fill:#4daf4a;"/>
   </g>
   <g id="patch_88">
    <path clip-path="url(#p6a4ae4428d)" d="
M442.214 105.321
L459.356 105.321
L459.356 93.5755
L442.214 93.5755
z
" style="fill:#40cf40;"/>
   </g>
   <g id="patch_89">
    <path clip-path="url(#p6a4ae4428d)" d="
M459.356 106.888
L461.161 106.888
L461.161 95.1416
L459.356 95.1416
z
" style="fill:#4daf4a;"/>
   </g>
   <g id="patch_90">
    <path clip-path="url(#p6a4ae4428d)" d="
M461.161 105.321
L473.353 105.321
L473.353 93.5755
L461.161 93.5755
z
" style="fill:#40cf40;"/>
   </g>
   <g id="patch_91">
    <path clip-path="url(#p6a4ae4428d)" d="
M473.353 106.888
L480.964 106.888
L480.964 95.1416
L473.353 95.1416
z
" style="fill:#4daf4a;"/>
   </g>
   <g id="patch_92">
    <path clip-path="url(#p6a4ae4428d)" d="
M480.964 105.321
L494.183 105.321
L494.183 93.5755
L480.964 93.5755
z
" style="fill:#40cf40;"/>
   </g>
   <g id="patch_93">
    <path clip-path="url(#p6a4ae4428d)" d="
M494.183 106.888
L496.637 106.888
L496.637 95.1416
L494.183 95.1416
z
" style="fill:#4daf4a;"/>
   </g>
   <g id="patch_94">
    <path clip-path="url(#p6a4ae4428d)" d="
M496.637 105.321
L503.574 105.321
L503.574 93.5755
L496.637 93.5755
z
" style="fill:#40cf40;"/>
   </g>
   <g id="patch_95">
    <path clip-path="url(#p6a4ae4428d)" d="
M503.574 106.888
L505.626 106.888
L505.626 95.1416
L503.574 95.1416
z
" style="fill:#4daf4a;"/>
   </g>
   <g id="patch_96">
    <path clip-path="url(#p6a4ae4428d)" d="
M505.626 105.321
L506.661 105.321
L506.661 93.5755
L505.626 93.5755
z
" style="fill:#40cf40;"/>
   </g>
   <g id="patch_97">
    <path clip-path="url(#p6a4ae4428d)" d="
M506.661 106.888
L508.118 106.888
L508.118 95.1416
L506.661 95.1416
z
" style="fill:#4daf4a;"/>
   </g>
   <g id="patch_98">
    <path clip-path="url(#p6a4ae4428d)" d="
M508.118 105.321
L509.426 105.321
L509.426 93.5755
L508.118 93.5755
z
" style="fill:#40cf40;"/>
   </g>
   <g id="patch_99">
    <path clip-path="url(#p6a4ae4428d)" d="
M509.427 106.888
L513.311 106.888
L513.311 95.1416
L509.427 95.1416
z
" style="fill:#4daf4a;"/>
   </g>
   <g id="patch_100">
    <path clip-path="url(#p6a4ae4428d)" d="
M513.311 105.321
L517.213 105.321
L517.213 93.5755
L513.311 93.5755
z
" style="fill:#40cf40;"/>
   </g>
   <g id="patch_101">
    <path clip-path="url(#p6a4ae4428d)" d="
M517.213 106.888
L521.143 106.888
L521.143 95.1416
L517.213 95.1416
z
" style="fill:#4daf4a;"/>
   </g>
   <g id="patch_102">
    <path clip-path="url(#p6a4ae4428d)" d="
M521.143 105.321
L525.222 105.321
L525.222 93.5755
L521.143 93.5755
z
" style="fill:#40cf40;"/>
   </g>
   <g id="patch_103">
    <path clip-path="url(#p6a4ae4428d)" d="
M525.222 106.888
L529.367 106.888
L529.367 95.1416
L525.222 95.1416
z
" style="fill:#4daf4a;"/>
   </g>
   <g id="patch_104">
    <path clip-path="url(#p6a4ae4428d)" d="
M529.367 105.321
L534.574 105.321
L534.574 93.5755
L529.367 93.5755
z
" style="fill:#40cf40;"/>
   </g>
   <g id="patch_105">
    <path clip-path="url(#p6a4ae4428d)" d="
M534.575 106.888
L536.234 106.888
L536.234 95.1416
L534.575 95.1416
z
" style="fill:#4daf4a;"/>
   </g>
   <g id="patch_106">
    <path clip-path="url(#p6a4ae4428d)" d="
M536.234 105.321
L536.875 105.321
L536.875 93.5755
L536.234 93.5755
z
" style="fill:#40cf40;"/>
   </g>
   <g id="patch_107">
    <path clip-path="url(#p6a4ae4428d)" d="
M536.875 106.888
L539.778 106.888
L539.778 95.1416
L536.875 95.1416
z
" style="fill:#4daf4a;"/>
   </g>
   <g id="patch_108">
    <path clip-path="url(#p6a4ae4428d)" d="
M539.779 105.321
L543.452 105.321
L543.452 93.5755
L539.779 93.5755
z
" style="fill:#40cf40;"/>
   </g>
   <g id="patch_109">
    <path clip-path="url(#p6a4ae4428d)" d="
M543.452 106.888
L548.052 106.888
L548.052 95.1416
L543.452 95.1416
z
" style="fill:#4daf4a;"/>
   </g>
   <g id="patch_110">
    <path clip-path="url(#p6a4ae4428d)" d="
M548.053 105.321
L551.261 105.321
L551.261 93.5755
L548.053 93.5755
z
" style="fill:#40cf40;"/>
   </g>
   <g id="patch_111">
    <path clip-path="url(#p6a4ae4428d)" d="
M551.262 106.888
L560.717 106.888
L560.717 95.1416
L551.262 95.1416
z
" style="fill:#4daf4a;"/>
   </g>
   <g id="patch_112">
    <path clip-path="url(#p6a4ae4428d)" d="
M560.718 105.321
L562.665 105.321
L562.665 93.5755
L560.718 93.5755
z
" style="fill:#40cf40;"/>
   </g>
   <g id="patch_113">
    <path clip-path="url(#p6a4ae4428d)" d="
M562.665 106.888
L563.844 106.888
L563.844 95.1416
L562.665 95.1416
z
" style="fill:#4daf4a;"/>
   </g>
   <g id="patch_114">
    <path clip-path="url(#p6a4ae4428d)" d="
M563.844 105.321
L566.781 105.321
L566.781 93.5755
L563.844 93.5755
z
" style="fill:#40cf40;"/>
   </g>
   <g id="patch_115">
    <path clip-path="url(#p6a4ae4428d)" d="
M566.781 106.888
L574.53 106.888
L574.53 95.1416
L566.781 95.1416
z
" style="fill:#4daf4a;"/>
   </g>
   <g id="patch_116">
    <path clip-path="url(#p6a4ae4428d)" d="
M574.53 105.321
L577.932 105.321
L577.932 93.5755
L574.53 93.5755
z
" style="fill:#40cf40;"/>
   </g>
   <g id="patch_117">
    <path clip-path="url(#p6a4ae4428d)" d="
M577.932 106.888
L578.101 106.888
L578.101 95.1416
L577.932 95.1416
z
" style="fill:#4daf4a;"/>
   </g>
   <g id="patch_118">
    <path clip-path="url(#p6a4ae4428d)" d="
M578.101 105.321
L580.652 105.321
L580.652 93.5755
L578.101 93.5755
z
" style="fill:#40cf40;"/>
   </g>
   <g id="patch_119">
    <path clip-path="url(#p6a4ae4428d)" d="
M580.737 106.888
L582.485 106.888
L582.485 95.1416
L580.737 95.1416
z
" style="fill:#4daf4a;"/>
   </g>
   <g id="patch_120">
    <path clip-path="url(#p6a4ae4428d)" d="
M582.486 105.321
L583.868 105.321
L583.868 93.5755
L582.486 93.5755
z
" style="fill:#40cf40;"/>
   </g>
   <g id="patch_121">
    <path clip-path="url(#p6a4ae4428d)" d="
M583.868 106.888
L584.991 106.888
L584.991 95.1416
L583.868 95.1416
z
" style="fill:#4daf4a;"/>
   </g>
   <g id="patch_122">
    <path clip-path="url(#p6a4ae4428d)" d="
M585.056 105.321
L587.776 105.321
L587.776 93.5755
L585.056 93.5755
z
" style="fill:#40cf40;"/>
   </g>
   <g id="patch_123">
    <path clip-path="url(#p6a4ae4428d)" d="
M587.776 106.888
L591.425 106.888
L591.425 95.1416
L587.776 95.1416
z
" style="fill:#4daf4a;"/>
   </g>
   <g id="patch_124">
    <path clip-path="url(#p6a4ae4428d)" d="
M591.425 105.321
L591.816 105.321
L591.816 93.5755
L591.425 93.5755
z
" style="fill:#40cf40;"/>
   </g>
   <g id="patch_125">
    <path clip-path="url(#p6a4ae4428d)" d="
M591.816 106.888
L599.719 106.888
L599.719 95.1416
L591.816 95.1416
z
" style="fill:#4daf4a;"/>
   </g>
   <g id="patch_126">
    <path clip-path="url(#p6a4ae4428d)" d="
M599.72 105.321
L602.391 105.321
L602.391 93.5755
L599.72 93.5755
z
" style="fill:#40cf40;"/>
   </g>
   <g id="patch_127">
    <path clip-path="url(#p6a4ae4428d)" d="
M602.391 106.888
L605.114 106.888
L605.114 95.1416
L602.391 95.1416
z
" style="fill:#4daf4a;"/>
   </g>
   <g id="patch_128">
    <path clip-path="url(#p6a4ae4428d)" d="
M605.114 105.321
L610.948 105.321
L610.948 93.5755
L605.114 93.5755
z
" style="fill:#40cf40;"/>
   </g>
   <g id="patch_129">
    <path clip-path="url(#p6a4ae4428d)" d="
M610.948 106.888
L615.304 106.888
L615.304 95.1416
L610.948 95.1416
z
" style="fill:#4daf4a;"/>
   </g>
   <g id="patch_130">
    <path clip-path="url(#p6a4ae4428d)" d="
M615.304 105.321
L622.118 105.321
L622.118 93.5755
L615.304 93.5755
z
" style="fill:#40cf40;"/>
   </g>
   <g id="patch_131">
    <path clip-path="url(#p6a4ae4428d)" d="
M622.118 106.888
L622.914 106.888
L622.914 95.1416
L622.118 95.1416
z
" style="fill:#4daf4a;"/>
   </g>
   <g id="patch_132">
    <path clip-path="url(#p6a4ae4428d)" d="
M622.914 105.321
L623.223 105.321
L623.223 93.5755
L622.914 93.5755
z
" style="fill:#40cf40;"/>
   </g>
   <g id="patch_133">
    <path clip-path="url(#p6a4ae4428d)" d="
M623.223 106.888
L624.556 106.888
L624.556 95.1416
L623.223 95.1416
z
" style="fill:#4daf4a;"/>
   </g>
   <g id="patch_134">
    <path clip-path="url(#p6a4ae4428d)" d="
M624.557 105.321
L624.627 105.321
L624.627 93.5755
L624.557 93.5755
z
" style="fill:#40cf40;"/>
   </g>
   <g id="patch_135">
    <path clip-path="url(#p6a4ae4428d)" d="
M624.628 106.888
L626.502 106.888
L626.502 95.1416
L624.628 95.1416
z
" style="fill:#4daf4a;"/>
   </g>
   <g id="patch_136">
    <path clip-path="url(#p6a4ae4428d)" d="
M626.503 105.321
L631.789 105.321
L631.789 93.5755
L626.503 93.5755
z
" style="fill:#40cf40;"/>
   </g>
   <g id="patch_137">
    <path clip-path="url(#p6a4ae4428d)" d="
M631.789 106.888
L635.088 106.888
L635.088 95.1416
L631.789 95.1416
z
" style="fill:#4daf4a;"/>
   </g>
   <g id="patch_138">
    <path clip-path="url(#p6a4ae4428d)" d="
M635.088 105.321
L637.129 105.321
L637.129 93.5755
L635.088 93.5755
z
" style="fill:#40cf40;"/>
   </g>
   <g id="patch_139">
    <path clip-path="url(#p6a4ae4428d)" d="
M637.129 106.888
L639.839 106.888
L639.839 95.1416
L637.129 95.1416
z
" style="fill:#4daf4a;"/>
   </g>
   <g id="patch_140">
    <path clip-path="url(#p6a4ae4428d)" d="
M639.839 105.321
L641.138 105.321
L641.138 93.5755
L639.839 93.5755
z
" style="fill:#40cf40;"/>
   </g>
   <g id="patch_141">
    <path clip-path="url(#p6a4ae4428d)" d="
M641.138 106.888
L644.817 106.888
L644.817 95.1416
L641.138 95.1416
z
" style="fill:#4daf4a;"/>
   </g>
   <g id="patch_142">
    <path clip-path="url(#p6a4ae4428d)" d="
M644.817 105.321
L649.472 105.321
L649.472 93.5755
L644.817 93.5755
z
" style="fill:#40cf40;"/>
   </g>
   <g id="patch_143">
    <path clip-path="url(#p6a4ae4428d)" d="
M649.472 106.888
L651.288 106.888
L651.288 95.1416
L649.472 95.1416
z
" style="fill:#4daf4a;"/>
   </g>
   <g id="patch_144">
    <path clip-path="url(#p6a4ae4428d)" d="
M651.289 105.321
L652.797 105.321
L652.797 93.5755
L651.289 93.5755
z
" style="fill:#40cf40;"/>
   </g>
   <g id="patch_145">
    <path clip-path="url(#p6a4ae4428d)" d="
M652.798 106.888
L656.43 106.888
L656.43 95.1416
L652.798 95.1416
z
" style="fill:#4daf4a;"/>
   </g>
   <g id="patch_146">
    <path clip-path="url(#p6a4ae4428d)" d="
M656.43 105.321
L656.825 105.321
L656.825 93.5755
L656.43 93.5755
z
" style="fill:#40cf40;"/>
   </g>
   <g id="patch_147">
    <path clip-path="url(#p6a4ae4428d)" d="
M656.826 106.888
L658.814 106.888
L658.814 95.1416
L656.826 95.1416
z
" style="fill:#4daf4a;"/>
   </g>
   <g id="patch_148">
    <path clip-path="url(#p6a4ae4428d)" d="
M658.815 105.321
L660.451 105.321
L660.451 93.5755
L658.815 93.5755
z
" style="fill:#40cf40;"/>
   </g>
   <g id="patch_149">
    <path clip-path="url(#p6a4ae4428d)" d="
M660.451 106.888
L660.476 106.888
L660.476 95.1416
L660.451 95.1416
z
" style="fill:#4daf4a;"/>
   </g>
   <g id="patch_150">
    <path clip-path="url(#p6a4ae4428d)" d="
M660.476 105.321
L660.477 105.321
L660.477 93.5755
L660.476 93.5755
z
" style="fill:#40cf40;"/>
   </g>
   <g id="patch_151">
    <path clip-path="url(#p6a4ae4428d)" d="
M660.477 106.888
L664.241 106.888
L664.241 95.1416
L660.477 95.1416
z
" style="fill:#4daf4a;"/>
   </g>
   <g id="patch_152">
    <path clip-path="url(#p6a4ae4428d)" d="
M664.241 105.321
L665.339 105.321
L665.339 93.5755
L664.241 93.5755
z
" style="fill:#40cf40;"/>
   </g>
   <g id="patch_153">
    <path clip-path="url(#p6a4ae4428d)" d="
M665.339 106.888
L666.715 106.888
L666.715 95.1416
L665.339 95.1416
z
" style="fill:#4daf4a;"/>
   </g>
   <g id="patch_154">
    <path clip-path="url(#p6a4ae4428d)" d="
M666.715 105.321
L668.517 105.321
L668.517 93.5755
L666.715 93.5755
z
" style="fill:#40cf40;"/>
   </g>
   <g id="patch_155">
    <path clip-path="url(#p6a4ae4428d)" d="
M668.517 106.888
L673.369 106.888
L673.369 95.1416
L668.517 95.1416
z
" style="fill:#4daf4a;"/>
   </g>
   <g id="patch_156">
    <path clip-path="url(#p6a4ae4428d)" d="
M673.369 105.321
L676.948 105.321
L676.948 93.5755
L673.369 93.5755
z
" style="fill:#40cf40;"/>
   </g>
   <g id="patch_157">
    <path clip-path="url(#p6a4ae4428d)" d="
M676.948 106.888
L677.377 106.888
L677.377 95.1416
L676.948 95.1416
z
" style="fill:#4daf4a;"/>
   </g>
   <g id="patch_158">
    <path clip-path="url(#p6a4ae4428d)" d="
M677.377 105.321
L680.363 105.321
L680.363 93.5755
L677.377 93.5755
z
" style="fill:#40cf40;"/>
   </g>
   <g id="patch_159">
    <path clip-path="url(#p6a4ae4428d)" d="
M680.363 106.888
L683.822 106.888
L683.822 95.1416
L680.363 95.1416
z
" style="fill:#4daf4a;"/>
   </g>
   <g id="patch_160">
    <path clip-path="url(#p6a4ae4428d)" d="
M683.822 105.321
L684.4 105.321
L684.4 93.5755
L683.822 93.5755
z
" style="fill:#40cf40;"/>
   </g>
   <g id="patch_161">
    <path clip-path="url(#p6a4ae4428d)" d="
M684.401 106.888
L685.469 106.888
L685.469 95.1416
L684.401 95.1416
z
" style="fill:#4daf4a;"/>
   </g>
   <g id="patch_162">
    <path clip-path="url(#p6a4ae4428d)" d="
M685.47 105.321
L687.341 105.321
L687.341 93.5755
L685.47 93.5755
z
" style="fill:#40cf40;"/>
   </g>
   <g id="patch_163">
    <path clip-path="url(#p6a4ae4428d)" d="
M687.345 106.888
L694.206 106.888
L694.206 95.1416
L687.345 95.1416
z
" style="fill:#4daf4a;"/>
   </g>
   <g id="patch_164">
    <path clip-path="url(#p6a4ae4428d)" d="
M694.206 105.321
L695.334 105.321
L695.334 93.5755
L694.206 93.5755
z
" style="fill:#40cf40;"/>
   </g>
   <g id="patch_165">
    <path clip-path="url(#p6a4ae4428d)" d="
M695.334 106.888
L696.772 106.888
L696.772 95.1416
L695.334 95.1416
z
" style="fill:#4daf4a;"/>
   </g>
   <g id="patch_166">
    <path clip-path="url(#p6a4ae4428d)" d="
M696.772 105.321
L698.659 105.321
L698.659 93.5755
L696.772 93.5755
z
" style="fill:#40cf40;"/>
   </g>
   <g id="patch_167">
    <path clip-path="url(#p6a4ae4428d)" d="
M698.659 106.888
L699.646 106.888
L699.646 95.1416
L698.659 95.1416
z
" style="fill:#4daf4a;"/>
   </g>
   <g id="patch_168">
    <path clip-path="url(#p6a4ae4428d)" d="
M699.647 105.321
L700.748 105.321
L700.748 93.5755
L699.647 93.5755
z
" style="fill:#40cf40;"/>
   </g>
   <g id="patch_169">
    <path clip-path="url(#p6a4ae4428d)" d="
M700.749 106.888
L712.018 106.888
L712.018 95.1416
L700.749 95.1416
z
" style="fill:#4daf4a;"/>
   </g>
   <g id="patch_170">
    <path clip-path="url(#p6a4ae4428d)" d="
M712.019 105.321
L714.015 105.321
L714.015 93.5755
L712.019 93.5755
z
" style="fill:#40cf40;"/>
   </g>
   <g id="line2d_1">
    <path clip-path="url(#p6a4ae4428d)" d="
M182.801 66.56
L714.017 66.56" style="fill:none;stroke:#000000;stroke-linecap:square;stroke-width:0.5;"/>
   </g>
   <g id="line2d_2">
    <path clip-path="url(#p6a4ae4428d)" d="
M182.801 15.6612
L182.801 109.628" style="fill:none;stroke:#808080;stroke-dasharray:1.000000,3.000000;stroke-dashoffset:0.0;stroke-width:0.2;"/>
   </g>
   <g id="line2d_3">
    <path clip-path="url(#p6a4ae4428d)" d="
M182.801 66.56
L182.801 68.9092" style="fill:none;stroke:#000000;stroke-linecap:square;stroke-width:0.5;"/>
   </g>
   <g id="line2d_4">
    <path clip-path="url(#p6a4ae4428d)" d="
M323.128 15.6612
L323.128 109.628" style="fill:none;stroke:#808080;stroke-dasharray:1.000000,3.000000;stroke-dashoffset:0.0;stroke-width:0.2;"/>
   </g>
   <g id="line2d_5">
    <path clip-path="url(#p6a4ae4428d)" d="
M323.128 66.56
L323.128 68.9092" style="fill:none;stroke:#000000;stroke-linecap:square;stroke-width:0.5;"/>
   </g>
   <g id="line2d_6">
    <path clip-path="url(#p6a4ae4428d)" d="
M463.455 15.6612
L463.455 109.628" style="fill:none;stroke:#808080;stroke-dasharray:1.000000,3.000000;stroke-dashoffset:0.0;stroke-width:0.2;"/>
   </g>
   <g id="line2d_7">
    <path clip-path="url(#p6a4ae4428d)" d="
M463.455 66.56
L463.455 68.9092" style="fill:none;stroke:#000000;stroke-linecap:square;stroke-width:0.5;"/>
   </g>
   <g id="line2d_8">
    <path clip-path="url(#p6a4ae4428d)" d="
M603.783 15.6612
L603.783 109.628" style="fill:none;stroke:#808080;stroke-dasharray:1.000000,3.000000;stroke-dashoffset:0.0;stroke-width:0.2;"/>
   </g>
   <g id="line2d_9">
    <path clip-path="url(#p6a4ae4428d)" d="
M603.783 66.56
L603.783 68.9092" style="fill:none;stroke:#000000;stroke-linecap:square;stroke-width:0.5;"/>
   </g>
   <g id="line2d_10">
    <path clip-path="url(#p6a4ae4428d)" d="
M714.017 15.6612
L714.017 109.628" style="fill:none;stroke:#808080;stroke-dasharray:1.000000,3.000000;stroke-dashoffset:0.0;stroke-width:0.2;"/>
   </g>
   <g id="line2d_11">
    <path clip-path="url(#p6a4ae4428d)" d="
M714.017 66.56
L714.017 68.9092" style="fill:none;stroke:#000000;stroke-linecap:square;stroke-width:0.5;"/>
   </g>
   <g id="text_1">
    <!-- 0.0 -->
    <defs>
     <path d="
M31.7812 66.4062
Q24.1719 66.4062 20.3281 58.9062
Q16.5 51.4219 16.5 36.375
Q16.5 21.3906 20.3281 13.8906
Q24.1719 6.39062 31.7812 6.39062
Q39.4531 6.39062 43.2812 13.8906
Q47.125 21.3906 47.125 36.375
Q47.125 51.4219 43.2812 58.9062
Q39.4531 66.4062 31.7812 66.4062
M31.7812 74.2188
Q44.0469 74.2188 50.5156 64.5156
Q56.9844 54.8281 56.9844 36.375
Q56.9844 17.9688 50.5156 8.26562
Q44.0469 -1.42188 31.7812 -1.42188
Q19.5312 -1.42188 13.0625 8.26562
Q6.59375 17.9688 6.59375 36.375
Q6.59375 54.8281 13.0625 64.5156
Q19.5312 74.2188 31.7812 74.2188" id="BitstreamVeraSans-Roman-30"/>
     <path d="
M10.6875 12.4062
L21 12.4062
L21 0
L10.6875 0
z
" id="BitstreamVeraSans-Roman-2e"/>
    </defs>
    <g transform="translate(184.67568 74.9879264706)scale(0.08 -0.08)">
     <use xlink:href="#BitstreamVeraSans-Roman-30"/>
     <use x="63.623046875" xlink:href="#BitstreamVeraSans-Roman-2e"/>
     <use x="95.41015625" xlink:href="#BitstreamVeraSans-Roman-30"/>
    </g>
   </g>
   <g id="text_2">
    <!-- 0.5 -->
    <defs>
     <path d="
M10.7969 72.9062
L49.5156 72.9062
L49.5156 64.5938
L19.8281 64.5938
L19.8281 46.7344
Q21.9688 47.4688 24.1094 47.8281
Q26.2656 48.1875 28.4219 48.1875
Q40.625 48.1875 47.75 41.5
Q54.8906 34.8125 54.8906 23.3906
Q54.8906 11.625 47.5625 5.09375
Q40.2344 -1.42188 26.9062 -1.42188
Q22.3125 -1.42188 17.5469 -0.640625
Q12.7969 0.140625 7.71875 1.70312
L7.71875 11.625
Q12.1094 9.23438 16.7969 8.0625
Q21.4844 6.89062 26.7031 6.89062
Q35.1562 6.89062 40.0781 11.3281
Q45.0156 15.7656 45.0156 23.3906
Q45.0156 31 40.0781 35.4375
Q35.1562 39.8906 26.7031 39.8906
Q22.75 39.8906 18.8125 39.0156
Q14.8906 38.1406 10.7969 36.2812
z
" id="BitstreamVeraSans-Roman-35"/>
    </defs>
    <g transform="translate(325.002977222 74.9879264706)scale(0.08 -0.08)">
     <use xlink:href="#BitstreamVeraSans-Roman-30"/>
     <use x="63.623046875" xlink:href="#BitstreamVeraSans-Roman-2e"/>
     <use x="95.41015625" xlink:href="#BitstreamVeraSans-Roman-35"/>
    </g>
   </g>
   <g id="text_3">
    <!-- 1.0 -->
    <defs>
     <path d="
M12.4062 8.29688
L28.5156 8.29688
L28.5156 63.9219
L10.9844 60.4062
L10.9844 69.3906
L28.4219 72.9062
L38.2812 72.9062
L38.2812 8.29688
L54.3906 8.29688
L54.3906 0
L12.4062 0
z
" id="BitstreamVeraSans-Roman-31"/>
    </defs>
    <g transform="translate(465.330274445 74.9879264706)scale(0.08 -0.08)">
     <use xlink:href="#BitstreamVeraSans-Roman-31"/>
     <use x="63.623046875" xlink:href="#BitstreamVeraSans-Roman-2e"/>
     <use x="95.41015625" xlink:href="#BitstreamVeraSans-Roman-30"/>
    </g>
   </g>
   <g id="text_4">
    <!-- 1.5 -->
    <g transform="translate(605.657571667 74.9879264706)scale(0.08 -0.08)">
     <use xlink:href="#BitstreamVeraSans-Roman-31"/>
     <use x="63.623046875" xlink:href="#BitstreamVeraSans-Roman-2e"/>
     <use x="95.41015625" xlink:href="#BitstreamVeraSans-Roman-35"/>
    </g>
   </g>
   <g id="text_5">
    <!-- 1.89 -->
    <defs>
     <path d="
M31.7812 34.625
Q24.75 34.625 20.7188 30.8594
Q16.7031 27.0938 16.7031 20.5156
Q16.7031 13.9219 20.7188 10.1562
Q24.75 6.39062 31.7812 6.39062
Q38.8125 6.39062 42.8594 10.1719
Q46.9219 13.9688 46.9219 20.5156
Q46.9219 27.0938 42.8906 30.8594
Q38.875 34.625 31.7812 34.625
M21.9219 38.8125
Q15.5781 40.375 12.0312 44.7188
Q8.5 49.0781 8.5 55.3281
Q8.5 64.0625 14.7188 69.1406
Q20.9531 74.2188 31.7812 74.2188
Q42.6719 74.2188 48.875 69.1406
Q55.0781 64.0625 55.0781 55.3281
Q55.0781 49.0781 51.5312 44.7188
Q48 40.375 41.7031 38.8125
Q48.8281 37.1562 52.7969 32.3125
Q56.7812 27.4844 56.7812 20.5156
Q56.7812 9.90625 50.3125 4.23438
Q43.8438 -1.42188 31.7812 -1.42188
Q19.7344 -1.42188 13.25 4.23438
Q6.78125 9.90625 6.78125 20.5156
Q6.78125 27.4844 10.7812 32.3125
Q14.7969 37.1562 21.9219 38.8125
M18.3125 54.3906
Q18.3125 48.7344 21.8438 45.5625
Q25.3906 42.3906 31.7812 42.3906
Q38.1406 42.3906 41.7188 45.5625
Q45.3125 48.7344 45.3125 54.3906
Q45.3125 60.0625 41.7188 63.2344
Q38.1406 66.4062 31.7812 66.4062
Q25.3906 66.4062 21.8438 63.2344
Q18.3125 60.0625 18.3125 54.3906" id="BitstreamVeraSans-Roman-38"/>
     <path d="
M10.9844 1.51562
L10.9844 10.5
Q14.7031 8.73438 18.5 7.8125
Q22.3125 6.89062 25.9844 6.89062
Q35.75 6.89062 40.8906 13.4531
Q46.0469 20.0156 46.7812 33.4062
Q43.9531 29.2031 39.5938 26.9531
Q35.25 24.7031 29.9844 24.7031
Q19.0469 24.7031 12.6719 31.3125
Q6.29688 37.9375 6.29688 49.4219
Q6.29688 60.6406 12.9375 67.4219
Q19.5781 74.2188 30.6094 74.2188
Q43.2656 74.2188 49.9219 64.5156
Q56.5938 54.8281 56.5938 36.375
Q56.5938 19.1406 48.4062 8.85938
Q40.2344 -1.42188 26.4219 -1.42188
Q22.7031 -1.42188 18.8906 -0.6875
Q15.0938 0.046875 10.9844 1.51562
M30.6094 32.4219
Q37.25 32.4219 41.125 36.9531
Q45.0156 41.5 45.0156 49.4219
Q45.0156 57.2812 41.125 61.8438
Q37.25 66.4062 30.6094 66.4062
Q23.9688 66.4062 20.0938 61.8438
Q16.2188 57.2812 16.2188 49.4219
Q16.2188 41.5 20.0938 36.9531
Q23.9688 32.4219 30.6094 32.4219" id="BitstreamVeraSans-Roman-39"/>
    </defs>
    <g transform="translate(715.89168 74.9879264706)scale(0.08 -0.08)">
     <use xlink:href="#BitstreamVeraSans-Roman-31"/>
     <use x="63.623046875" xlink:href="#BitstreamVeraSans-Roman-2e"/>
     <use x="95.41015625" xlink:href="#BitstreamVeraSans-Roman-38"/>
     <use x="159.033203125" xlink:href="#BitstreamVeraSans-Roman-39"/>
    </g>
   </g>
   <g id="text_6">
    <!-- chr_0 (..minum_0915) -->
    <defs>
     <path id="BitstreamVeraSans-Roman-20"/>
     <path d="
M50.9844 -16.6094
L50.9844 -23.5781
L-0.984375 -23.5781
L-0.984375 -16.6094
z
" id="BitstreamVeraSans-Roman-5f"/>
     <path d="
M54.8906 33.0156
L54.8906 0
L45.9062 0
L45.9062 32.7188
Q45.9062 40.4844 42.875 44.3281
Q39.8438 48.1875 33.7969 48.1875
Q26.5156 48.1875 22.3125 43.5469
Q18.1094 38.9219 18.1094 30.9062
L18.1094 0
L9.07812 0
L9.07812 54.6875
L18.1094 54.6875
L18.1094 46.1875
Q21.3438 51.125 25.7031 53.5625
Q30.0781 56 35.7969 56
Q45.2188 56 50.0469 50.1719
Q54.8906 44.3438 54.8906 33.0156" id="BitstreamVeraSans-Roman-6e"/>
     <path d="
M31 75.875
Q24.4688 64.6562 21.2812 53.6562
Q18.1094 42.6719 18.1094 31.3906
Q18.1094 20.125 21.3125 9.0625
Q24.5156 -2 31 -13.1875
L23.1875 -13.1875
Q15.875 -1.70312 12.2344 9.375
Q8.59375 20.4531 8.59375 31.3906
Q8.59375 42.2812 12.2031 53.3125
Q15.8281 64.3594 23.1875 75.875
z
" id="BitstreamVeraSans-Roman-28"/>
     <path d="
M8.01562 75.875
L15.8281 75.875
Q23.1406 64.3594 26.7812 53.3125
Q30.4219 42.2812 30.4219 31.3906
Q30.4219 20.4531 26.7812 9.375
Q23.1406 -1.70312 15.8281 -13.1875
L8.01562 -13.1875
Q14.5 -2 17.7031 9.0625
Q20.9062 20.125 20.9062 31.3906
Q20.9062 42.6719 17.7031 53.6562
Q14.5 64.6562 8.01562 75.875" id="BitstreamVeraSans-Roman-29"/>
     <path d="
M9.42188 54.6875
L18.4062 54.6875
L18.4062 0
L9.42188 0
z

M9.42188 75.9844
L18.4062 75.9844
L18.4062 64.5938
L9.42188 64.5938
z
" id="BitstreamVeraSans-Roman-69"/>
     <path d="
M54.8906 33.0156
L54.8906 0
L45.9062 0
L45.9062 32.7188
Q45.9062 40.4844 42.875 44.3281
Q39.8438 48.1875 33.7969 48.1875
Q26.5156 48.1875 22.3125 43.5469
Q18.1094 38.9219 18.1094 30.9062
L18.1094 0
L9.07812 0
L9.07812 75.9844
L18.1094 75.9844
L18.1094 46.1875
Q21.3438 51.125 25.7031 53.5625
Q30.0781 56 35.7969 56
Q45.2188 56 50.0469 50.1719
Q54.8906 44.3438 54.8906 33.0156" id="BitstreamVeraSans-Roman-68"/>
     <path d="
M52 44.1875
Q55.375 50.25 60.0625 53.125
Q64.75 56 71.0938 56
Q79.6406 56 84.2812 50.0156
Q88.9219 44.0469 88.9219 33.0156
L88.9219 0
L79.8906 0
L79.8906 32.7188
Q79.8906 40.5781 77.0938 44.375
Q74.3125 48.1875 68.6094 48.1875
Q61.625 48.1875 57.5625 43.5469
Q53.5156 38.9219 53.5156 30.9062
L53.5156 0
L44.4844 0
L44.4844 32.7188
Q44.4844 40.625 41.7031 44.4062
Q38.9219 48.1875 33.1094 48.1875
Q26.2188 48.1875 22.1562 43.5312
Q18.1094 38.875 18.1094 30.9062
L18.1094 0
L9.07812 0
L9.07812 54.6875
L18.1094 54.6875
L18.1094 46.1875
Q21.1875 51.2188 25.4844 53.6094
Q29.7812 56 35.6875 56
Q41.6562 56 45.8281 52.9688
Q50 49.9531 52 44.1875" id="BitstreamVeraSans-Roman-6d"/>
     <path d="
M8.5 21.5781
L8.5 54.6875
L17.4844 54.6875
L17.4844 21.9219
Q17.4844 14.1562 20.5 10.2656
Q23.5312 6.39062 29.5938 6.39062
Q36.8594 6.39062 41.0781 11.0312
Q45.3125 15.6719 45.3125 23.6875
L45.3125 54.6875
L54.2969 54.6875
L54.2969 0
L45.3125 0
L45.3125 8.40625
Q42.0469 3.42188 37.7188 1
Q33.4062 -1.42188 27.6875 -1.42188
Q18.2656 -1.42188 13.375 4.4375
Q8.5 10.2969 8.5 21.5781" id="BitstreamVeraSans-Roman-75"/>
     <path d="
M41.1094 46.2969
Q39.5938 47.1719 37.8125 47.5781
Q36.0312 48 33.8906 48
Q26.2656 48 22.1875 43.0469
Q18.1094 38.0938 18.1094 28.8125
L18.1094 0
L9.07812 0
L9.07812 54.6875
L18.1094 54.6875
L18.1094 46.1875
Q20.9531 51.1719 25.4844 53.5781
Q30.0312 56 36.5312 56
Q37.4531 56 38.5781 55.875
Q39.7031 55.7656 41.0625 55.5156
z
" id="BitstreamVeraSans-Roman-72"/>
     <path d="
M48.7812 52.5938
L48.7812 44.1875
Q44.9688 46.2969 41.1406 47.3438
Q37.3125 48.3906 33.4062 48.3906
Q24.6562 48.3906 19.8125 42.8438
Q14.9844 37.3125 14.9844 27.2969
Q14.9844 17.2812 19.8125 11.7344
Q24.6562 6.20312 33.4062 6.20312
Q37.3125 6.20312 41.1406 7.25
Q44.9688 8.29688 48.7812 10.4062
L48.7812 2.09375
Q45.0156 0.34375 40.9844 -0.53125
Q36.9688 -1.42188 32.4219 -1.42188
Q20.0625 -1.42188 12.7812 6.34375
Q5.51562 14.1094 5.51562 27.2969
Q5.51562 40.6719 12.8594 48.3281
Q20.2188 56 33.0156 56
Q37.1562 56 41.1094 55.1406
Q45.0625 54.2969 48.7812 52.5938" id="BitstreamVeraSans-Roman-63"/>
    </defs>
    <g transform="translate(388.36426875 56.7121636029)scale(0.11 -0.11)">
     <use xlink:href="#BitstreamVeraSans-Roman-63"/>
     <use x="54.98046875" xlink:href="#BitstreamVeraSans-Roman-68"/>
     <use x="118.359375" xlink:href="#BitstreamVeraSans-Roman-72"/>
     <use x="159.47265625" xlink:href="#BitstreamVeraSans-Roman-5f"/>
     <use x="209.47265625" xlink:href="#BitstreamVeraSans-Roman-30"/>
     <use x="273.095703125" xlink:href="#BitstreamVeraSans-Roman-20"/>
     <use x="304.8828125" xlink:href="#BitstreamVeraSans-Roman-28"/>
     <use x="343.896484375" xlink:href="#BitstreamVeraSans-Roman-2e"/>
     <use x="375.68359375" xlink:href="#BitstreamVeraSans-Roman-2e"/>
     <use x="407.470703125" xlink:href="#BitstreamVeraSans-Roman-6d"/>
     <use x="504.8828125" xlink:href="#BitstreamVeraSans-Roman-69"/>
     <use x="532.666015625" xlink:href="#BitstreamVeraSans-Roman-6e"/>
     <use x="596.044921875" xlink:href="#BitstreamVeraSans-Roman-75"/>
     <use x="659.423828125" xlink:href="#BitstreamVeraSans-Roman-6d"/>
     <use x="756.8359375" xlink:href="#BitstreamVeraSans-Roman-5f"/>
     <use x="806.8359375" xlink:href="#BitstreamVeraSans-Roman-30"/>
     <use x="870.458984375" xlink:href="#BitstreamVeraSans-Roman-39"/>
     <use x="934.08203125" xlink:href="#BitstreamVeraSans-Roman-31"/>
     <use x="997.705078125" xlink:href="#BitstreamVeraSans-Roman-35"/>
     <use x="1061.328125" xlink:href="#BitstreamVeraSans-Roman-29"/>
    </g>
   </g>
   <g id="text_7">
    <!-- Genome, Mb -->
    <defs>
     <path d="
M9.8125 72.9062
L24.5156 72.9062
L43.1094 23.2969
L61.8125 72.9062
L76.5156 72.9062
L76.5156 0
L66.8906 0
L66.8906 64.0156
L48.0938 14.0156
L38.1875 14.0156
L19.3906 64.0156
L19.3906 0
L9.8125 0
z
" id="BitstreamVeraSans-Roman-4d"/>
     <path d="
M30.6094 48.3906
Q23.3906 48.3906 19.1875 42.75
Q14.9844 37.1094 14.9844 27.2969
Q14.9844 17.4844 19.1562 11.8438
Q23.3438 6.20312 30.6094 6.20312
Q37.7969 6.20312 41.9844 11.8594
Q46.1875 17.5312 46.1875 27.2969
Q46.1875 37.0156 41.9844 42.7031
Q37.7969 48.3906 30.6094 48.3906
M30.6094 56
Q42.3281 56 49.0156 48.375
Q55.7188 40.7656 55.7188 27.2969
Q55.7188 13.875 49.0156 6.21875
Q42.3281 -1.42188 30.6094 -1.42188
Q18.8438 -1.42188 12.1719 6.21875
Q5.51562 13.875 5.51562 27.2969
Q5.51562 40.7656 12.1719 48.375
Q18.8438 56 30.6094 56" id="BitstreamVeraSans-Roman-6f"/>
     <path d="
M59.5156 10.4062
L59.5156 29.9844
L43.4062 29.9844
L43.4062 38.0938
L69.2812 38.0938
L69.2812 6.78125
Q63.5781 2.73438 56.6875 0.65625
Q49.8125 -1.42188 42 -1.42188
Q24.9062 -1.42188 15.25 8.5625
Q5.60938 18.5625 5.60938 36.375
Q5.60938 54.25 15.25 64.2344
Q24.9062 74.2188 42 74.2188
Q49.125 74.2188 55.5469 72.4531
Q61.9688 70.7031 67.3906 67.2812
L67.3906 56.7812
Q61.9219 61.4219 55.7656 63.7656
Q49.6094 66.1094 42.8281 66.1094
Q29.4375 66.1094 22.7188 58.6406
Q16.0156 51.1719 16.0156 36.375
Q16.0156 21.625 22.7188 14.1562
Q29.4375 6.6875 42.8281 6.6875
Q48.0469 6.6875 52.1406 7.59375
Q56.25 8.5 59.5156 10.4062" id="BitstreamVeraSans-Roman-47"/>
     <path d="
M11.7188 12.4062
L22.0156 12.4062
L22.0156 4
L14.0156 -11.625
L7.71875 -11.625
L11.7188 4
z
" id="BitstreamVeraSans-Roman-2c"/>
     <path d="
M56.2031 29.5938
L56.2031 25.2031
L14.8906 25.2031
Q15.4844 15.9219 20.4844 11.0625
Q25.4844 6.20312 34.4219 6.20312
Q39.5938 6.20312 44.4531 7.46875
Q49.3125 8.73438 54.1094 11.2812
L54.1094 2.78125
Q49.2656 0.734375 44.1875 -0.34375
Q39.1094 -1.42188 33.8906 -1.42188
Q20.7969 -1.42188 13.1562 6.1875
Q5.51562 13.8125 5.51562 26.8125
Q5.51562 40.2344 12.7656 48.1094
Q20.0156 56 32.3281 56
Q43.3594 56 49.7812 48.8906
Q56.2031 41.7969 56.2031 29.5938
M47.2188 32.2344
Q47.125 39.5938 43.0938 43.9844
Q39.0625 48.3906 32.4219 48.3906
Q24.9062 48.3906 20.3906 44.1406
Q15.875 39.8906 15.1875 32.1719
z
" id="BitstreamVeraSans-Roman-65"/>
     <path d="
M48.6875 27.2969
Q48.6875 37.2031 44.6094 42.8438
Q40.5312 48.4844 33.4062 48.4844
Q26.2656 48.4844 22.1875 42.8438
Q18.1094 37.2031 18.1094 27.2969
Q18.1094 17.3906 22.1875 11.75
Q26.2656 6.10938 33.4062 6.10938
Q40.5312 6.10938 44.6094 11.75
Q48.6875 17.3906 48.6875 27.2969
M18.1094 46.3906
Q20.9531 51.2656 25.2656 53.625
Q29.5938 56 35.5938 56
Q45.5625 56 51.7812 48.0938
Q58.0156 40.1875 58.0156 27.2969
Q58.0156 14.4062 51.7812 6.48438
Q45.5625 -1.42188 35.5938 -1.42188
Q29.5938 -1.42188 25.2656 0.953125
Q20.9531 3.32812 18.1094 8.20312
L18.1094 0
L9.07812 0
L9.07812 75.9844
L18.1094 75.9844
z
" id="BitstreamVeraSans-Roman-62"/>
    </defs>
    <g transform="translate(413.738175 87.0556930147)scale(0.11 -0.11)">
     <use xlink:href="#BitstreamVeraSans-Roman-47"/>
     <use x="77.490234375" xlink:href="#BitstreamVeraSans-Roman-65"/>
     <use x="139.013671875" xlink:href="#BitstreamVeraSans-Roman-6e"/>
     <use x="202.392578125" xlink:href="#BitstreamVeraSans-Roman-6f"/>
     <use x="263.57421875" xlink:href="#BitstreamVeraSans-Roman-6d"/>
     <use x="360.986328125" xlink:href="#BitstreamVeraSans-Roman-65"/>
     <use x="422.509765625" xlink:href="#BitstreamVeraSans-Roman-2c"/>
     <use x="454.296875" xlink:href="#BitstreamVeraSans-Roman-20"/>
     <use x="486.083984375" xlink:href="#BitstreamVeraSans-Roman-4d"/>
     <use x="572.36328125" xlink:href="#BitstreamVeraSans-Roman-62"/>
    </g>
   </g>
   <g id="text_8">
    <!-- final.contigs -->
    <defs>
     <path d="
M9.42188 75.9844
L18.4062 75.9844
L18.4062 0
L9.42188 0
z
" id="BitstreamVeraSans-Roman-6c"/>
     <path d="
M44.2812 53.0781
L44.2812 44.5781
Q40.4844 46.5312 36.375 47.5
Q32.2812 48.4844 27.875 48.4844
Q21.1875 48.4844 17.8438 46.4375
Q14.5 44.3906 14.5 40.2812
Q14.5 37.1562 16.8906 35.375
Q19.2812 33.5938 26.5156 31.9844
L29.5938 31.2969
Q39.1562 29.25 43.1875 25.5156
Q47.2188 21.7812 47.2188 15.0938
Q47.2188 7.46875 41.1875 3.01562
Q35.1562 -1.42188 24.6094 -1.42188
Q20.2188 -1.42188 15.4531 -0.5625
Q10.6875 0.296875 5.42188 2
L5.42188 11.2812
Q10.4062 8.6875 15.2344 7.39062
Q20.0625 6.10938 24.8125 6.10938
Q31.1562 6.10938 34.5625 8.28125
Q37.9844 10.4531 37.9844 14.4062
Q37.9844 18.0625 35.5156 20.0156
Q33.0625 21.9688 24.7031 23.7812
L21.5781 24.5156
Q13.2344 26.2656 9.51562 29.9062
Q5.8125 33.5469 5.8125 39.8906
Q5.8125 47.6094 11.2812 51.7969
Q16.75 56 26.8125 56
Q31.7812 56 36.1719 55.2656
Q40.5781 54.5469 44.2812 53.0781" id="BitstreamVeraSans-Roman-73"/>
     <path d="
M18.3125 70.2188
L18.3125 54.6875
L36.8125 54.6875
L36.8125 47.7031
L18.3125 47.7031
L18.3125 18.0156
Q18.3125 11.3281 20.1406 9.42188
Q21.9688 7.51562 27.5938 7.51562
L36.8125 7.51562
L36.8125 0
L27.5938 0
Q17.1875 0 13.2344 3.875
Q9.28125 7.76562 9.28125 18.0156
L9.28125 47.7031
L2.6875 47.7031
L2.6875 54.6875
L9.28125 54.6875
L9.28125 70.2188
z
" id="BitstreamVeraSans-Roman-74"/>
     <path d="
M37.1094 75.9844
L37.1094 68.5
L28.5156 68.5
Q23.6875 68.5 21.7969 66.5469
Q19.9219 64.5938 19.9219 59.5156
L19.9219 54.6875
L34.7188 54.6875
L34.7188 47.7031
L19.9219 47.7031
L19.9219 0
L10.8906 0
L10.8906 47.7031
L2.29688 47.7031
L2.29688 54.6875
L10.8906 54.6875
L10.8906 58.5
Q10.8906 67.625 15.1406 71.7969
Q19.3906 75.9844 28.6094 75.9844
z
" id="BitstreamVeraSans-Roman-66"/>
     <path d="
M34.2812 27.4844
Q23.3906 27.4844 19.1875 25
Q14.9844 22.5156 14.9844 16.5
Q14.9844 11.7188 18.1406 8.90625
Q21.2969 6.10938 26.7031 6.10938
Q34.1875 6.10938 38.7031 11.4062
Q43.2188 16.7031 43.2188 25.4844
L43.2188 27.4844
z

M52.2031 31.2031
L52.2031 0
L43.2188 0
L43.2188 8.29688
Q40.1406 3.32812 35.5469 0.953125
Q30.9531 -1.42188 24.3125 -1.42188
Q15.9219 -1.42188 10.9531 3.29688
Q6 8.01562 6 15.9219
Q6 25.1406 12.1719 29.8281
Q18.3594 34.5156 30.6094 34.5156
L43.2188 34.5156
L43.2188 35.4062
Q43.2188 41.6094 39.1406 45
Q35.0625 48.3906 27.6875 48.3906
Q23 48.3906 18.5469 47.2656
Q14.1094 46.1406 10.0156 43.8906
L10.0156 52.2031
Q14.9375 54.1094 19.5781 55.0469
Q24.2188 56 28.6094 56
Q40.4844 56 46.3438 49.8438
Q52.2031 43.7031 52.2031 31.2031" id="BitstreamVeraSans-Roman-61"/>
     <path d="
M45.4062 27.9844
Q45.4062 37.75 41.375 43.1094
Q37.3594 48.4844 30.0781 48.4844
Q22.8594 48.4844 18.8281 43.1094
Q14.7969 37.75 14.7969 27.9844
Q14.7969 18.2656 18.8281 12.8906
Q22.8594 7.51562 30.0781 7.51562
Q37.3594 7.51562 41.375 12.8906
Q45.4062 18.2656 45.4062 27.9844
M54.3906 6.78125
Q54.3906 -7.17188 48.1875 -13.9844
Q42 -20.7969 29.2031 -20.7969
Q24.4688 -20.7969 20.2656 -20.0938
Q16.0625 -19.3906 12.1094 -17.9219
L12.1094 -9.1875
Q16.0625 -11.3281 19.9219 -12.3438
Q23.7812 -13.375 27.7812 -13.375
Q36.625 -13.375 41.0156 -8.76562
Q45.4062 -4.15625 45.4062 5.17188
L45.4062 9.625
Q42.625 4.78125 38.2812 2.39062
Q33.9375 0 27.875 0
Q17.8281 0 11.6719 7.65625
Q5.51562 15.3281 5.51562 27.9844
Q5.51562 40.6719 11.6719 48.3281
Q17.8281 56 27.875 56
Q33.9375 56 38.2812 53.6094
Q42.625 51.2188 45.4062 46.3906
L45.4062 54.6875
L54.3906 54.6875
z
" id="BitstreamVeraSans-Roman-67"/>
    </defs>
    <g transform="translate(105.856725 101.259669118)scale(0.12 -0.12)">
     <use xlink:href="#BitstreamVeraSans-Roman-66"/>
     <use x="35.205078125" xlink:href="#BitstreamVeraSans-Roman-69"/>
     <use x="62.98828125" xlink:href="#BitstreamVeraSans-Roman-6e"/>
     <use x="126.3671875" xlink:href="#BitstreamVeraSans-Roman-61"/>
     <use x="187.646484375" xlink:href="#BitstreamVeraSans-Roman-6c"/>
     <use x="215.4296875" xlink:href="#BitstreamVeraSans-Roman-2e"/>
     <use x="247.216796875" xlink:href="#BitstreamVeraSans-Roman-63"/>
     <use x="302.197265625" xlink:href="#BitstreamVeraSans-Roman-6f"/>
     <use x="363.37890625" xlink:href="#BitstreamVeraSans-Roman-6e"/>
     <use x="426.7578125" xlink:href="#BitstreamVeraSans-Roman-74"/>
     <use x="465.966796875" xlink:href="#BitstreamVeraSans-Roman-69"/>
     <use x="493.75" xlink:href="#BitstreamVeraSans-Roman-67"/>
     <use x="557.2265625" xlink:href="#BitstreamVeraSans-Roman-73"/>
    </g>
   </g>
  </g>
 </g>
 <defs>
  <clipPath id="p6a4ae4428d">
   <rect height="117.458823529" width="781.2" x="0.0" y="0.0"/>
  </clipPath>
 </defs>
</svg>
