<?xml version="1.0" encoding="utf-8" standalone="no"?>
<!DOCTYPE svg PUBLIC "-//W3C//DTD SVG 1.1//EN"
  "http://www.w3.org/Graphics/SVG/1.1/DTD/svg11.dtd">
<!-- Created with matplotlib (http://matplotlib.org/) -->
<svg height="118pt" version="1.1" viewBox="0 0 786 118" width="786pt" xmlns="http://www.w3.org/2000/svg" xmlns:xlink="http://www.w3.org/1999/xlink">
 <defs>
  <style type="text/css">
*{stroke-linecap:butt;stroke-linejoin:round;}
  </style>
 </defs>
 <g id="figure_1">
  <g id="patch_1">
   <path d="M 0 118.094118 
L 786.24 118.094118 
L 786.24 -0 
L 0 -0 
z
" style="fill:#ffffff;"/>
  </g>
  <g id="axes_1">
   <g id="patch_2">
    <path clip-path="url(#pf95a1ecfe0)" d="M 38.029091 110.435294 
L 748.210909 110.435294 
L 748.210909 7.658824 
L 38.029091 7.658824 
z
" style="fill:#ffffff;"/>
   </g>
   <g id="patch_3">
    <path clip-path="url(#pf95a1ecfe0)" d="M 78.891005 99.762353 
L 81.09269 99.762353 
L 81.09269 87.903529 
L 78.891005 87.903529 
z
" style="fill:#4daf4a;"/>
   </g>
   <g id="patch_4">
    <path clip-path="url(#pf95a1ecfe0)" d="M 81.092833 98.181176 
L 81.273408 98.181176 
L 81.273408 86.322353 
L 81.092833 86.322353 
z
" style="fill:#40cf40;"/>
   </g>
   <g id="patch_5">
    <path clip-path="url(#pf95a1ecfe0)" d="M 81.273551 99.762353 
L 81.721071 99.762353 
L 81.721071 87.903529 
L 81.273551 87.903529 
z
" style="fill:#4daf4a;"/>
   </g>
   <g id="patch_6">
    <path clip-path="url(#pf95a1ecfe0)" d="M 81.721214 98.181176 
L 81.801454 98.181176 
L 81.801454 86.322353 
L 81.721214 86.322353 
z
" style="fill:#40cf40;"/>
   </g>
   <g id="patch_7">
    <path clip-path="url(#pf95a1ecfe0)" d="M 81.808865 99.762353 
L 82.568937 99.762353 
L 82.568937 87.903529 
L 81.808865 87.903529 
z
" style="fill:#4daf4a;"/>
   </g>
   <g id="patch_8">
    <path clip-path="url(#pf95a1ecfe0)" d="M 82.569079 98.181176 
L 88.386557 98.181176 
L 88.386557 86.322353 
L 82.569079 86.322353 
z
" style="fill:#40cf40;"/>
   </g>
   <g id="patch_9">
    <path clip-path="url(#pf95a1ecfe0)" d="M 88.3867 99.762353 
L 100.94406 99.762353 
L 100.94406 87.903529 
L 88.3867 87.903529 
z
" style="fill:#4daf4a;"/>
   </g>
   <g id="patch_10">
    <path clip-path="url(#pf95a1ecfe0)" d="M 100.944631 98.181176 
L 110.771263 98.181176 
L 110.771263 86.322353 
L 100.944631 86.322353 
z
" style="fill:#40cf40;"/>
   </g>
   <g id="patch_11">
    <path clip-path="url(#pf95a1ecfe0)" d="M 110.996305 99.762353 
L 111.072555 99.762353 
L 111.072555 87.903529 
L 110.996305 87.903529 
z
" style="fill:#4daf4a;"/>
   </g>
   <g id="patch_12">
    <path clip-path="url(#pf95a1ecfe0)" d="M 111.072697 98.181176 
L 111.480026 98.181176 
L 111.480026 86.322353 
L 111.072697 86.322353 
z
" style="fill:#40cf40;"/>
   </g>
   <g id="patch_13">
    <path clip-path="url(#pf95a1ecfe0)" d="M 111.498839 99.762353 
L 112.995182 99.762353 
L 112.995182 87.903529 
L 111.498839 87.903529 
z
" style="fill:#4daf4a;"/>
   </g>
   <g id="patch_14">
    <path clip-path="url(#pf95a1ecfe0)" d="M 112.995324 98.181176 
L 115.657357 98.181176 
L 115.657357 86.322353 
L 112.995324 86.322353 
z
" style="fill:#40cf40;"/>
   </g>
   <g id="patch_15">
    <path clip-path="url(#pf95a1ecfe0)" d="M 115.745151 99.762353 
L 116.368544 99.762353 
L 116.368544 87.903529 
L 115.745151 87.903529 
z
" style="fill:#4daf4a;"/>
   </g>
   <g id="patch_16">
    <path clip-path="url(#pf95a1ecfe0)" d="M 116.368686 98.181176 
L 116.537575 98.181176 
L 116.537575 86.322353 
L 116.368686 86.322353 
z
" style="fill:#40cf40;"/>
   </g>
   <g id="patch_17">
    <path clip-path="url(#pf95a1ecfe0)" d="M 116.537718 99.762353 
L 117.065906 99.762353 
L 117.065906 87.903529 
L 116.537718 87.903529 
z
" style="fill:#4daf4a;"/>
   </g>
   <g id="patch_18">
    <path clip-path="url(#pf95a1ecfe0)" d="M 117.066048 98.181176 
L 117.149851 98.181176 
L 117.149851 86.322353 
L 117.066048 86.322353 
z
" style="fill:#40cf40;"/>
   </g>
   <g id="patch_19">
    <path clip-path="url(#pf95a1ecfe0)" d="M 117.149994 99.762353 
L 117.457842 99.762353 
L 117.457842 87.903529 
L 117.149994 87.903529 
z
" style="fill:#4daf4a;"/>
   </g>
   <g id="patch_20">
    <path clip-path="url(#pf95a1ecfe0)" d="M 117.610056 98.181176 
L 117.944413 98.181176 
L 117.944413 86.322353 
L 117.610056 86.322353 
z
" style="fill:#40cf40;"/>
   </g>
   <g id="patch_21">
    <path clip-path="url(#pf95a1ecfe0)" d="M 117.944556 99.762353 
L 118.103753 99.762353 
L 118.103753 87.903529 
L 117.944556 87.903529 
z
" style="fill:#4daf4a;"/>
   </g>
   <g id="patch_22">
    <path clip-path="url(#pf95a1ecfe0)" d="M 118.103896 98.181176 
L 118.68667 98.181176 
L 118.68667 86.322353 
L 118.103896 86.322353 
z
" style="fill:#40cf40;"/>
   </g>
   <g id="patch_23">
    <path clip-path="url(#pf95a1ecfe0)" d="M 118.80026 99.762353 
L 120.294037 99.762353 
L 120.294037 87.903529 
L 118.80026 87.903529 
z
" style="fill:#4daf4a;"/>
   </g>
   <g id="patch_24">
    <path clip-path="url(#pf95a1ecfe0)" d="M 120.409195 98.181176 
L 121.256776 98.181176 
L 121.256776 86.322353 
L 120.409195 86.322353 
z
" style="fill:#40cf40;"/>
   </g>
   <g id="patch_25">
    <path clip-path="url(#pf95a1ecfe0)" d="M 121.256918 99.762353 
L 123.826882 99.762353 
L 123.826882 87.903529 
L 121.256918 87.903529 
z
" style="fill:#4daf4a;"/>
   </g>
   <g id="patch_26">
    <path clip-path="url(#pf95a1ecfe0)" d="M 123.827024 98.181176 
L 123.994773 98.181176 
L 123.994773 86.322353 
L 123.827024 86.322353 
z
" style="fill:#40cf40;"/>
   </g>
   <g id="patch_27">
    <path clip-path="url(#pf95a1ecfe0)" d="M 123.994915 99.762353 
L 127.322528 99.762353 
L 127.322528 87.903529 
L 123.994915 87.903529 
z
" style="fill:#4daf4a;"/>
   </g>
   <g id="patch_28">
    <path clip-path="url(#pf95a1ecfe0)" d="M 127.332504 98.181176 
L 128.727798 98.181176 
L 128.727798 86.322353 
L 127.332504 86.322353 
z
" style="fill:#40cf40;"/>
   </g>
   <g id="patch_29">
    <path clip-path="url(#pf95a1ecfe0)" d="M 128.743618 99.762353 
L 129.864842 99.762353 
L 129.864842 87.903529 
L 128.743618 87.903529 
z
" style="fill:#4daf4a;"/>
   </g>
   <g id="patch_30">
    <path clip-path="url(#pf95a1ecfe0)" d="M 129.864984 98.181176 
L 132.330336 98.181176 
L 132.330336 86.322353 
L 129.864984 86.322353 
z
" style="fill:#40cf40;"/>
   </g>
   <g id="patch_31">
    <path clip-path="url(#pf95a1ecfe0)" d="M 132.345016 99.762353 
L 132.355848 99.762353 
L 132.355848 87.903529 
L 132.345016 87.903529 
z
" style="fill:#4daf4a;"/>
   </g>
   <g id="patch_32">
    <path clip-path="url(#pf95a1ecfe0)" d="M 132.35599 98.181176 
L 133.237776 98.181176 
L 133.237776 86.322353 
L 132.35599 86.322353 
z
" style="fill:#40cf40;"/>
   </g>
   <g id="patch_33">
    <path clip-path="url(#pf95a1ecfe0)" d="M 133.316021 99.762353 
L 133.416499 99.762353 
L 133.416499 87.903529 
L 133.316021 87.903529 
z
" style="fill:#4daf4a;"/>
   </g>
   <g id="patch_34">
    <path clip-path="url(#pf95a1ecfe0)" d="M 133.416642 98.181176 
L 134.72685 98.181176 
L 134.72685 86.322353 
L 133.416642 86.322353 
z
" style="fill:#40cf40;"/>
   </g>
   <g id="patch_35">
    <path clip-path="url(#pf95a1ecfe0)" d="M 134.884622 99.762353 
L 150.375805 99.762353 
L 150.375805 87.903529 
L 134.884622 87.903529 
z
" style="fill:#4daf4a;"/>
   </g>
   <g id="patch_36">
    <path clip-path="url(#pf95a1ecfe0)" d="M 150.375948 98.181176 
L 151.372892 98.181176 
L 151.372892 86.322353 
L 150.375948 86.322353 
z
" style="fill:#40cf40;"/>
   </g>
   <g id="patch_37">
    <path clip-path="url(#pf95a1ecfe0)" d="M 151.387429 99.762353 
L 153.821569 99.762353 
L 153.821569 87.903529 
L 151.387429 87.903529 
z
" style="fill:#4daf4a;"/>
   </g>
   <g id="patch_38">
    <path clip-path="url(#pf95a1ecfe0)" d="M 153.977061 98.181176 
L 154.167043 98.181176 
L 154.167043 86.322353 
L 153.977061 86.322353 
z
" style="fill:#40cf40;"/>
   </g>
   <g id="patch_39">
    <path clip-path="url(#pf95a1ecfe0)" d="M 154.167185 99.762353 
L 159.677243 99.762353 
L 159.677243 87.903529 
L 154.167185 87.903529 
z
" style="fill:#4daf4a;"/>
   </g>
   <g id="patch_40">
    <path clip-path="url(#pf95a1ecfe0)" d="M 159.835728 98.181176 
L 160.791055 98.181176 
L 160.791055 86.322353 
L 159.835728 86.322353 
z
" style="fill:#40cf40;"/>
   </g>
   <g id="patch_41">
    <path clip-path="url(#pf95a1ecfe0)" d="M 160.940846 99.762353 
L 161.60671 99.762353 
L 161.60671 87.903529 
L 160.940846 87.903529 
z
" style="fill:#4daf4a;"/>
   </g>
   <g id="patch_42">
    <path clip-path="url(#pf95a1ecfe0)" d="M 161.655881 98.181176 
L 161.745955 98.181176 
L 161.745955 86.322353 
L 161.655881 86.322353 
z
" style="fill:#40cf40;"/>
   </g>
   <g id="patch_43">
    <path clip-path="url(#pf95a1ecfe0)" d="M 161.746097 99.762353 
L 165.554295 99.762353 
L 165.554295 87.903529 
L 161.746097 87.903529 
z
" style="fill:#4daf4a;"/>
   </g>
   <g id="patch_44">
    <path clip-path="url(#pf95a1ecfe0)" d="M 165.724182 98.181176 
L 176.933281 98.181176 
L 176.933281 86.322353 
L 165.724182 86.322353 
z
" style="fill:#40cf40;"/>
   </g>
   <g id="patch_45">
    <path clip-path="url(#pf95a1ecfe0)" d="M 177.082787 99.762353 
L 182.912807 99.762353 
L 182.912807 87.903529 
L 177.082787 87.903529 
z
" style="fill:#4daf4a;"/>
   </g>
   <g id="patch_46">
    <path clip-path="url(#pf95a1ecfe0)" d="M 183.379282 98.181176 
L 183.532209 98.181176 
L 183.532209 86.322353 
L 183.379282 86.322353 
z
" style="fill:#40cf40;"/>
   </g>
   <g id="patch_47">
    <path clip-path="url(#pf95a1ecfe0)" d="M 183.645229 99.762353 
L 183.869844 99.762353 
L 183.869844 87.903529 
L 183.645229 87.903529 
z
" style="fill:#4daf4a;"/>
   </g>
   <g id="patch_48">
    <path clip-path="url(#pf95a1ecfe0)" d="M 183.974741 98.181176 
L 184.099875 98.181176 
L 184.099875 86.322353 
L 183.974741 86.322353 
z
" style="fill:#40cf40;"/>
   </g>
   <g id="patch_49">
    <path clip-path="url(#pf95a1ecfe0)" d="M 184.155317 99.762353 
L 190.291902 99.762353 
L 190.291902 87.903529 
L 184.155317 87.903529 
z
" style="fill:#4daf4a;"/>
   </g>
   <g id="patch_50">
    <path clip-path="url(#pf95a1ecfe0)" d="M 190.308292 98.181176 
L 207.133628 98.181176 
L 207.133628 86.322353 
L 190.308292 86.322353 
z
" style="fill:#40cf40;"/>
   </g>
   <g id="patch_51">
    <path clip-path="url(#pf95a1ecfe0)" d="M 207.13377 99.762353 
L 209.31308 99.762353 
L 209.31308 87.903529 
L 207.13377 87.903529 
z
" style="fill:#4daf4a;"/>
   </g>
   <g id="patch_52">
    <path clip-path="url(#pf95a1ecfe0)" d="M 209.321061 98.181176 
L 228.534644 98.181176 
L 228.534644 86.322353 
L 209.321061 86.322353 
z
" style="fill:#40cf40;"/>
   </g>
   <g id="patch_53">
    <path clip-path="url(#pf95a1ecfe0)" d="M 228.604195 99.762353 
L 234.854085 99.762353 
L 234.854085 87.903529 
L 228.604195 87.903529 
z
" style="fill:#4daf4a;"/>
   </g>
   <g id="patch_54">
    <path clip-path="url(#pf95a1ecfe0)" d="M 235.011145 98.181176 
L 235.241176 98.181176 
L 235.241176 86.322353 
L 235.011145 86.322353 
z
" style="fill:#40cf40;"/>
   </g>
   <g id="patch_55">
    <path clip-path="url(#pf95a1ecfe0)" d="M 235.282365 99.762353 
L 251.00415 99.762353 
L 251.00415 87.903529 
L 235.282365 87.903529 
z
" style="fill:#4daf4a;"/>
   </g>
   <g id="patch_56">
    <path clip-path="url(#pf95a1ecfe0)" d="M 251.017119 98.181176 
L 259.773836 98.181176 
L 259.773836 86.322353 
L 251.017119 86.322353 
z
" style="fill:#40cf40;"/>
   </g>
   <g id="patch_57">
    <path clip-path="url(#pf95a1ecfe0)" d="M 259.95541 99.762353 
L 261.939036 99.762353 
L 261.939036 87.903529 
L 259.95541 87.903529 
z
" style="fill:#4daf4a;"/>
   </g>
   <g id="patch_58">
    <path clip-path="url(#pf95a1ecfe0)" d="M 261.939179 98.181176 
L 262.285508 98.181176 
L 262.285508 86.322353 
L 261.939179 86.322353 
z
" style="fill:#40cf40;"/>
   </g>
   <g id="patch_59">
    <path clip-path="url(#pf95a1ecfe0)" d="M 262.28565 99.762353 
L 264.106801 99.762353 
L 264.106801 87.903529 
L 262.28565 87.903529 
z
" style="fill:#4daf4a;"/>
   </g>
   <g id="patch_60">
    <path clip-path="url(#pf95a1ecfe0)" d="M 264.25645 98.181176 
L 277.866481 98.181176 
L 277.866481 86.322353 
L 264.25645 86.322353 
z
" style="fill:#40cf40;"/>
   </g>
   <g id="patch_61">
    <path clip-path="url(#pf95a1ecfe0)" d="M 278.016414 99.762353 
L 282.429192 99.762353 
L 282.429192 87.903529 
L 278.016414 87.903529 
z
" style="fill:#4daf4a;"/>
   </g>
   <g id="patch_62">
    <path clip-path="url(#pf95a1ecfe0)" d="M 282.438456 98.181176 
L 283.030779 98.181176 
L 283.030779 86.322353 
L 282.438456 86.322353 
z
" style="fill:#40cf40;"/>
   </g>
   <g id="patch_63">
    <path clip-path="url(#pf95a1ecfe0)" d="M 283.360005 99.762353 
L 287.894069 99.762353 
L 287.894069 87.903529 
L 283.360005 87.903529 
z
" style="fill:#4daf4a;"/>
   </g>
   <g id="patch_64">
    <path clip-path="url(#pf95a1ecfe0)" d="M 287.943952 98.181176 
L 288.109706 98.181176 
L 288.109706 86.322353 
L 287.943952 86.322353 
z
" style="fill:#40cf40;"/>
   </g>
   <g id="patch_65">
    <path clip-path="url(#pf95a1ecfe0)" d="M 288.29641 99.762353 
L 288.470287 99.762353 
L 288.470287 87.903529 
L 288.29641 87.903529 
z
" style="fill:#4daf4a;"/>
   </g>
   <g id="patch_66">
    <path clip-path="url(#pf95a1ecfe0)" d="M 288.47043 98.181176 
L 296.693685 98.181176 
L 296.693685 86.322353 
L 288.47043 86.322353 
z
" style="fill:#40cf40;"/>
   </g>
   <g id="patch_67">
    <path clip-path="url(#pf95a1ecfe0)" d="M 296.693828 99.762353 
L 296.858441 99.762353 
L 296.858441 87.903529 
L 296.693828 87.903529 
z
" style="fill:#4daf4a;"/>
   </g>
   <g id="patch_68">
    <path clip-path="url(#pf95a1ecfe0)" d="M 296.858584 98.181176 
L 297.260639 98.181176 
L 297.260639 86.322353 
L 296.858584 86.322353 
z
" style="fill:#40cf40;"/>
   </g>
   <g id="patch_69">
    <path clip-path="url(#pf95a1ecfe0)" d="M 297.359407 99.762353 
L 298.120049 99.762353 
L 298.120049 87.903529 
L 297.359407 87.903529 
z
" style="fill:#4daf4a;"/>
   </g>
   <g id="patch_70">
    <path clip-path="url(#pf95a1ecfe0)" d="M 298.120192 98.181176 
L 299.521044 98.181176 
L 299.521044 86.322353 
L 298.120192 86.322353 
z
" style="fill:#40cf40;"/>
   </g>
   <g id="patch_71">
    <path clip-path="url(#pf95a1ecfe0)" d="M 299.521186 99.762353 
L 302.755304 99.762353 
L 302.755304 87.903529 
L 299.521186 87.903529 
z
" style="fill:#4daf4a;"/>
   </g>
   <g id="patch_72">
    <path clip-path="url(#pf95a1ecfe0)" d="M 302.755446 98.181176 
L 302.919917 98.181176 
L 302.919917 86.322353 
L 302.755446 86.322353 
z
" style="fill:#40cf40;"/>
   </g>
   <g id="patch_73">
    <path clip-path="url(#pf95a1ecfe0)" d="M 302.92006 99.762353 
L 311.576013 99.762353 
L 311.576013 87.903529 
L 302.92006 87.903529 
z
" style="fill:#4daf4a;"/>
   </g>
   <g id="patch_74">
    <path clip-path="url(#pf95a1ecfe0)" d="M 311.576156 98.181176 
L 311.860203 98.181176 
L 311.860203 86.322353 
L 311.576156 86.322353 
z
" style="fill:#40cf40;"/>
   </g>
   <g id="patch_75">
    <path clip-path="url(#pf95a1ecfe0)" d="M 311.90524 99.762353 
L 312.043344 99.762353 
L 312.043344 87.903529 
L 311.90524 87.903529 
z
" style="fill:#4daf4a;"/>
   </g>
   <g id="patch_76">
    <path clip-path="url(#pf95a1ecfe0)" d="M 312.171757 98.181176 
L 314.18175 98.181176 
L 314.18175 86.322353 
L 312.171757 86.322353 
z
" style="fill:#40cf40;"/>
   </g>
   <g id="patch_77">
    <path clip-path="url(#pf95a1ecfe0)" d="M 314.260565 99.762353 
L 360.889892 99.762353 
L 360.889892 87.903529 
L 314.260565 87.903529 
z
" style="fill:#4daf4a;"/>
   </g>
   <g id="patch_78">
    <path clip-path="url(#pf95a1ecfe0)" d="M 360.96828 100.948235 
L 370.295086 100.948235 
L 370.295086 89.089412 
L 360.96828 89.089412 
z
" style="fill:#b82525;"/>
   </g>
   <g id="patch_79">
    <path clip-path="url(#pf95a1ecfe0)" d="M 370.295228 99.762353 
L 372.815451 99.762353 
L 372.815451 87.903529 
L 370.295228 87.903529 
z
" style="fill:#4daf4a;"/>
   </g>
   <g id="patch_80">
    <path clip-path="url(#pf95a1ecfe0)" d="M 372.819442 100.948235 
L 373.376277 100.948235 
L 373.376277 89.089412 
L 372.819442 89.089412 
z
" style="fill:#b82525;"/>
   </g>
   <g id="patch_81">
    <path clip-path="url(#pf95a1ecfe0)" d="M 373.522077 99.762353 
L 373.769924 99.762353 
L 373.769924 87.903529 
L 373.522077 87.903529 
z
" style="fill:#4daf4a;"/>
   </g>
   <g id="patch_82">
    <path clip-path="url(#pf95a1ecfe0)" d="M 373.938242 98.181176 
L 378.445512 98.181176 
L 378.445512 86.322353 
L 373.938242 86.322353 
z
" style="fill:#40cf40;"/>
   </g>
   <g id="patch_83">
    <path clip-path="url(#pf95a1ecfe0)" d="M 378.595161 99.762353 
L 388.19732 99.762353 
L 388.19732 87.903529 
L 378.595161 87.903529 
z
" style="fill:#4daf4a;"/>
   </g>
   <g id="patch_84">
    <path clip-path="url(#pf95a1ecfe0)" d="M 388.355092 98.181176 
L 405.121851 98.181176 
L 405.121851 86.322353 
L 388.355092 86.322353 
z
" style="fill:#40cf40;"/>
   </g>
   <g id="patch_85">
    <path clip-path="url(#pf95a1ecfe0)" d="M 405.27036 99.762353 
L 407.353324 99.762353 
L 407.353324 87.903529 
L 405.27036 87.903529 
z
" style="fill:#4daf4a;"/>
   </g>
   <g id="patch_86">
    <path clip-path="url(#pf95a1ecfe0)" d="M 407.385249 98.181176 
L 437.239837 98.181176 
L 437.239837 86.322353 
L 407.385249 86.322353 
z
" style="fill:#40cf40;"/>
   </g>
   <g id="patch_87">
    <path clip-path="url(#pf95a1ecfe0)" d="M 437.409723 99.762353 
L 438.205853 99.762353 
L 438.205853 87.903529 
L 437.409723 87.903529 
z
" style="fill:#4daf4a;"/>
   </g>
   <g id="patch_88">
    <path clip-path="url(#pf95a1ecfe0)" d="M 438.251033 98.181176 
L 444.925783 98.181176 
L 444.925783 86.322353 
L 438.251033 86.322353 
z
" style="fill:#40cf40;"/>
   </g>
   <g id="patch_89">
    <path clip-path="url(#pf95a1ecfe0)" d="M 444.925925 102.529412 
L 458.341271 102.529412 
L 458.341271 90.670588 
L 444.925925 90.670588 
z
" style="fill:#e41a1c;"/>
   </g>
   <g id="patch_90">
    <path clip-path="url(#pf95a1ecfe0)" d="M 458.342696 98.181176 
L 467.424506 98.181176 
L 467.424506 86.322353 
L 458.342696 86.322353 
z
" style="fill:#40cf40;"/>
   </g>
   <g id="patch_91">
    <path clip-path="url(#pf95a1ecfe0)" d="M 468.175742 99.762353 
L 473.434247 99.762353 
L 473.434247 87.903529 
L 468.175742 87.903529 
z
" style="fill:#4daf4a;"/>
   </g>
   <g id="patch_92">
    <path clip-path="url(#pf95a1ecfe0)" d="M 473.434389 98.181176 
L 473.515199 98.181176 
L 473.515199 86.322353 
L 473.434389 86.322353 
z
" style="fill:#40cf40;"/>
   </g>
   <g id="patch_93">
    <path clip-path="url(#pf95a1ecfe0)" d="M 473.515342 99.762353 
L 474.67918 99.762353 
L 474.67918 87.903529 
L 473.515342 87.903529 
z
" style="fill:#4daf4a;"/>
   </g>
   <g id="patch_94">
    <path clip-path="url(#pf95a1ecfe0)" d="M 474.679322 98.181176 
L 475.516784 98.181176 
L 475.516784 86.322353 
L 474.679322 86.322353 
z
" style="fill:#40cf40;"/>
   </g>
   <g id="patch_95">
    <path clip-path="url(#pf95a1ecfe0)" d="M 475.516926 99.762353 
L 480.482405 99.762353 
L 480.482405 87.903529 
L 475.516926 87.903529 
z
" style="fill:#4daf4a;"/>
   </g>
   <g id="patch_96">
    <path clip-path="url(#pf95a1ecfe0)" d="M 480.487394 98.181176 
L 480.580746 98.181176 
L 480.580746 86.322353 
L 480.487394 86.322353 
z
" style="fill:#40cf40;"/>
   </g>
   <g id="patch_97">
    <path clip-path="url(#pf95a1ecfe0)" d="M 480.584451 99.762353 
L 498.752918 99.762353 
L 498.752918 87.903529 
L 480.584451 87.903529 
z
" style="fill:#4daf4a;"/>
   </g>
   <g id="patch_98">
    <path clip-path="url(#pf95a1ecfe0)" d="M 498.75306 98.181176 
L 505.948159 98.181176 
L 505.948159 86.322353 
L 498.75306 86.322353 
z
" style="fill:#40cf40;"/>
   </g>
   <g id="patch_99">
    <path clip-path="url(#pf95a1ecfe0)" d="M 506.116193 99.762353 
L 508.256737 99.762353 
L 508.256737 87.903529 
L 506.116193 87.903529 
z
" style="fill:#4daf4a;"/>
   </g>
   <g id="patch_100">
    <path clip-path="url(#pf95a1ecfe0)" d="M 508.256879 98.181176 
L 525.015514 98.181176 
L 525.015514 86.322353 
L 508.256879 86.322353 
z
" style="fill:#40cf40;"/>
   </g>
   <g id="patch_101">
    <path clip-path="url(#pf95a1ecfe0)" d="M 525.164878 99.762353 
L 532.989641 99.762353 
L 532.989641 87.903529 
L 525.164878 87.903529 
z
" style="fill:#4daf4a;"/>
   </g>
   <g id="patch_102">
    <path clip-path="url(#pf95a1ecfe0)" d="M 533.157674 98.181176 
L 534.276618 98.181176 
L 534.276618 86.322353 
L 533.157674 86.322353 
z
" style="fill:#40cf40;"/>
   </g>
   <g id="patch_103">
    <path clip-path="url(#pf95a1ecfe0)" d="M 534.27676 102.529412 
L 539.414264 102.529412 
L 539.414264 90.670588 
L 534.27676 90.670588 
z
" style="fill:#e41a1c;"/>
   </g>
   <g id="patch_104">
    <path clip-path="url(#pf95a1ecfe0)" d="M 539.423385 98.181176 
L 544.914915 98.181176 
L 544.914915 86.322353 
L 539.423385 86.322353 
z
" style="fill:#40cf40;"/>
   </g>
   <g id="patch_105">
    <path clip-path="url(#pf95a1ecfe0)" d="M 544.931162 99.762353 
L 558.566704 99.762353 
L 558.566704 87.903529 
L 544.931162 87.903529 
z
" style="fill:#4daf4a;"/>
   </g>
   <g id="patch_106">
    <path clip-path="url(#pf95a1ecfe0)" d="M 558.713788 98.181176 
L 562.334568 98.181176 
L 562.334568 86.322353 
L 558.713788 86.322353 
z
" style="fill:#40cf40;"/>
   </g>
   <g id="patch_107">
    <path clip-path="url(#pf95a1ecfe0)" d="M 562.347823 99.762353 
L 566.813334 99.762353 
L 566.813334 87.903529 
L 562.347823 87.903529 
z
" style="fill:#4daf4a;"/>
   </g>
   <g id="patch_108">
    <path clip-path="url(#pf95a1ecfe0)" d="M 567.586375 98.181176 
L 573.475684 98.181176 
L 573.475684 86.322353 
L 567.586375 86.322353 
z
" style="fill:#40cf40;"/>
   </g>
   <g id="patch_109">
    <path clip-path="url(#pf95a1ecfe0)" d="M 573.475827 99.762353 
L 573.61165 99.762353 
L 573.61165 87.903529 
L 573.475827 87.903529 
z
" style="fill:#4daf4a;"/>
   </g>
   <g id="patch_110">
    <path clip-path="url(#pf95a1ecfe0)" d="M 573.611793 98.181176 
L 589.636438 98.181176 
L 589.636438 86.322353 
L 573.611793 86.322353 
z
" style="fill:#40cf40;"/>
   </g>
   <g id="patch_111">
    <path clip-path="url(#pf95a1ecfe0)" d="M 589.706559 99.762353 
L 594.727052 99.762353 
L 594.727052 87.903529 
L 589.706559 87.903529 
z
" style="fill:#4daf4a;"/>
   </g>
   <g id="patch_112">
    <path clip-path="url(#pf95a1ecfe0)" d="M 594.735888 98.181176 
L 594.899361 98.181176 
L 594.899361 86.322353 
L 594.735888 86.322353 
z
" style="fill:#40cf40;"/>
   </g>
   <g id="patch_113">
    <path clip-path="url(#pf95a1ecfe0)" d="M 594.899504 99.762353 
L 595.183551 99.762353 
L 595.183551 87.903529 
L 594.899504 87.903529 
z
" style="fill:#4daf4a;"/>
   </g>
   <g id="patch_114">
    <path clip-path="url(#pf95a1ecfe0)" d="M 595.216901 98.181176 
L 595.382655 98.181176 
L 595.382655 86.322353 
L 595.216901 86.322353 
z
" style="fill:#40cf40;"/>
   </g>
   <g id="patch_115">
    <path clip-path="url(#pf95a1ecfe0)" d="M 595.550974 99.762353 
L 599.395657 99.762353 
L 599.395657 87.903529 
L 595.550974 87.903529 
z
" style="fill:#4daf4a;"/>
   </g>
   <g id="patch_116">
    <path clip-path="url(#pf95a1ecfe0)" d="M 599.545875 98.181176 
L 601.415911 98.181176 
L 601.415911 86.322353 
L 599.545875 86.322353 
z
" style="fill:#40cf40;"/>
   </g>
   <g id="patch_117">
    <path clip-path="url(#pf95a1ecfe0)" d="M 601.570121 99.762353 
L 615.126136 99.762353 
L 615.126136 87.903529 
L 601.570121 87.903529 
z
" style="fill:#4daf4a;"/>
   </g>
   <g id="patch_118">
    <path clip-path="url(#pf95a1ecfe0)" d="M 615.602303 98.181176 
L 615.684966 98.181176 
L 615.684966 86.322353 
L 615.602303 86.322353 
z
" style="fill:#40cf40;"/>
   </g>
   <g id="patch_119">
    <path clip-path="url(#pf95a1ecfe0)" d="M 615.71461 99.762353 
L 615.812808 99.762353 
L 615.812808 87.903529 
L 615.71461 87.903529 
z
" style="fill:#4daf4a;"/>
   </g>
   <g id="patch_120">
    <path clip-path="url(#pf95a1ecfe0)" d="M 615.84231 98.181176 
L 640.674695 98.181176 
L 640.674695 86.322353 
L 615.84231 86.322353 
z
" style="fill:#40cf40;"/>
   </g>
   <g id="patch_121">
    <path clip-path="url(#pf95a1ecfe0)" d="M 641.406547 99.762353 
L 652.881736 99.762353 
L 652.881736 87.903529 
L 641.406547 87.903529 
z
" style="fill:#4daf4a;"/>
   </g>
   <g id="patch_122">
    <path clip-path="url(#pf95a1ecfe0)" d="M 652.893422 98.181176 
L 654.000964 98.181176 
L 654.000964 86.322353 
L 652.893422 86.322353 
z
" style="fill:#40cf40;"/>
   </g>
   <g id="patch_123">
    <path clip-path="url(#pf95a1ecfe0)" d="M 654.782414 99.762353 
L 661.127795 99.762353 
L 661.127795 87.903529 
L 654.782414 87.903529 
z
" style="fill:#4daf4a;"/>
   </g>
   <g id="patch_124">
    <path clip-path="url(#pf95a1ecfe0)" d="M 661.127937 98.181176 
L 662.419475 98.181176 
L 662.419475 86.322353 
L 661.127937 86.322353 
z
" style="fill:#40cf40;"/>
   </g>
   <g id="patch_125">
    <path clip-path="url(#pf95a1ecfe0)" d="M 662.43273 99.762353 
L 664.462818 99.762353 
L 664.462818 87.903529 
L 662.43273 87.903529 
z
" style="fill:#4daf4a;"/>
   </g>
   <g id="patch_126">
    <path clip-path="url(#pf95a1ecfe0)" d="M 664.462961 98.181176 
L 670.854234 98.181176 
L 670.854234 86.322353 
L 664.462961 86.322353 
z
" style="fill:#40cf40;"/>
   </g>
   <g id="patch_127">
    <path clip-path="url(#pf95a1ecfe0)" d="M 670.854661 99.762353 
L 672.690492 99.762353 
L 672.690492 87.903529 
L 670.854661 87.903529 
z
" style="fill:#4daf4a;"/>
   </g>
   <g id="patch_128">
    <path clip-path="url(#pf95a1ecfe0)" d="M 673.47636 98.181176 
L 674.084361 98.181176 
L 674.084361 86.322353 
L 673.47636 86.322353 
z
" style="fill:#40cf40;"/>
   </g>
   <g id="patch_129">
    <path clip-path="url(#pf95a1ecfe0)" d="M 674.209495 99.762353 
L 678.611441 99.762353 
L 678.611441 87.903529 
L 674.209495 87.903529 
z
" style="fill:#4daf4a;"/>
   </g>
   <g id="patch_130">
    <path clip-path="url(#pf95a1ecfe0)" d="M 678.623128 98.181176 
L 678.869834 98.181176 
L 678.869834 86.322353 
L 678.623128 86.322353 
z
" style="fill:#40cf40;"/>
   </g>
   <g id="patch_131">
    <path clip-path="url(#pf95a1ecfe0)" d="M 679.31878 99.762353 
L 691.20315 99.762353 
L 691.20315 87.903529 
L 679.31878 87.903529 
z
" style="fill:#4daf4a;"/>
   </g>
   <g id="patch_132">
    <path clip-path="url(#pf95a1ecfe0)" d="M 691.208423 98.181176 
L 695.42623 98.181176 
L 695.42623 86.322353 
L 691.208423 86.322353 
z
" style="fill:#40cf40;"/>
   </g>
   <g id="patch_133">
    <path clip-path="url(#pf95a1ecfe0)" d="M 695.477965 99.762353 
L 704.925203 99.762353 
L 704.925203 87.903529 
L 695.477965 87.903529 
z
" style="fill:#4daf4a;"/>
   </g>
   <g id="patch_134">
    <path clip-path="url(#pf95a1ecfe0)" d="M 704.930334 98.181176 
L 720.080176 98.181176 
L 720.080176 86.322353 
L 704.930334 86.322353 
z
" style="fill:#40cf40;"/>
   </g>
   <g id="patch_135">
    <path clip-path="url(#pf95a1ecfe0)" d="M 720.159134 99.762353 
L 721.313422 99.762353 
L 721.313422 87.903529 
L 720.159134 87.903529 
z
" style="fill:#4daf4a;"/>
   </g>
   <g id="patch_136">
    <path clip-path="url(#pf95a1ecfe0)" d="M 721.465921 98.181176 
L 721.546304 98.181176 
L 721.546304 86.322353 
L 721.465921 86.322353 
z
" style="fill:#40cf40;"/>
   </g>
   <g id="patch_137">
    <path clip-path="url(#pf95a1ecfe0)" d="M 721.546446 99.762353 
L 735.368836 99.762353 
L 735.368836 87.903529 
L 721.546446 87.903529 
z
" style="fill:#4daf4a;"/>
   </g>
   <g id="patch_138">
    <path clip-path="url(#pf95a1ecfe0)" d="M 735.393492 98.181176 
L 736.523267 98.181176 
L 736.523267 86.322353 
L 735.393492 86.322353 
z
" style="fill:#40cf40;"/>
   </g>
   <g id="patch_139">
    <path clip-path="url(#pf95a1ecfe0)" d="M 736.552199 99.762353 
L 740.427667 99.762353 
L 740.427667 87.903529 
L 736.552199 87.903529 
z
" style="fill:#4daf4a;"/>
   </g>
   <g id="line2d_1">
    <path clip-path="url(#pf95a1ecfe0)" d="M 78.888867 59.047059 
L 740.428095 59.047059 
" style="fill:none;stroke:#000000;stroke-linecap:square;stroke-width:0.5;"/>
   </g>
   <g id="line2d_2">
    <path clip-path="url(#pf95a1ecfe0)" d="M 78.888867 7.658824 
L 78.888867 102.529412 
" style="fill:none;stroke:#808080;stroke-dasharray:0.2,0.33;stroke-dashoffset:0;stroke-width:0.2;"/>
   </g>
   <g id="line2d_3">
    <path clip-path="url(#pf95a1ecfe0)" d="M 78.888867 59.047059 
L 78.888867 61.418824 
" style="fill:none;stroke:#000000;stroke-linecap:square;stroke-width:0.5;"/>
   </g>
   <g id="line2d_4">
    <path clip-path="url(#pf95a1ecfe0)" d="M 221.411233 7.658824 
L 221.411233 102.529412 
" style="fill:none;stroke:#808080;stroke-dasharray:0.2,0.33;stroke-dashoffset:0;stroke-width:0.2;"/>
   </g>
   <g id="line2d_5">
    <path clip-path="url(#pf95a1ecfe0)" d="M 221.411233 59.047059 
L 221.411233 61.418824 
" style="fill:none;stroke:#000000;stroke-linecap:square;stroke-width:0.5;"/>
   </g>
   <g id="line2d_6">
    <path clip-path="url(#pf95a1ecfe0)" d="M 363.9336 7.658824 
L 363.9336 102.529412 
" style="fill:none;stroke:#808080;stroke-dasharray:0.2,0.33;stroke-dashoffset:0;stroke-width:0.2;"/>
   </g>
   <g id="line2d_7">
    <path clip-path="url(#pf95a1ecfe0)" d="M 363.9336 59.047059 
L 363.9336 61.418824 
" style="fill:none;stroke:#000000;stroke-linecap:square;stroke-width:0.5;"/>
   </g>
   <g id="line2d_8">
    <path clip-path="url(#pf95a1ecfe0)" d="M 506.455966 7.658824 
L 506.455966 102.529412 
" style="fill:none;stroke:#808080;stroke-dasharray:0.2,0.33;stroke-dashoffset:0;stroke-width:0.2;"/>
   </g>
   <g id="line2d_9">
    <path clip-path="url(#pf95a1ecfe0)" d="M 506.455966 59.047059 
L 506.455966 61.418824 
" style="fill:none;stroke:#000000;stroke-linecap:square;stroke-width:0.5;"/>
   </g>
   <g id="line2d_10">
    <path clip-path="url(#pf95a1ecfe0)" d="M 648.978333 7.658824 
L 648.978333 102.529412 
" style="fill:none;stroke:#808080;stroke-dasharray:0.2,0.33;stroke-dashoffset:0;stroke-width:0.2;"/>
   </g>
   <g id="line2d_11">
    <path clip-path="url(#pf95a1ecfe0)" d="M 648.978333 59.047059 
L 648.978333 61.418824 
" style="fill:none;stroke:#000000;stroke-linecap:square;stroke-width:0.5;"/>
   </g>
   <g id="line2d_12">
    <path clip-path="url(#pf95a1ecfe0)" d="M 740.428095 7.658824 
L 740.428095 102.529412 
" style="fill:none;stroke:#808080;stroke-dasharray:0.2,0.33;stroke-dashoffset:0;stroke-width:0.2;"/>
   </g>
   <g id="line2d_13">
    <path clip-path="url(#pf95a1ecfe0)" d="M 740.428095 59.047059 
L 740.428095 61.418824 
" style="fill:none;stroke:#000000;stroke-linecap:square;stroke-width:0.5;"/>
   </g>
   <g id="text_1">
    <!-- 0.0 -->
    <defs>
     <path d="M 31.78125 66.40625 
Q 24.171875 66.40625 20.328125 58.90625 
Q 16.5 51.421875 16.5 36.375 
Q 16.5 21.390625 20.328125 13.890625 
Q 24.171875 6.390625 31.78125 6.390625 
Q 39.453125 6.390625 43.28125 13.890625 
Q 47.125 21.390625 47.125 36.375 
Q 47.125 51.421875 43.28125 58.90625 
Q 39.453125 66.40625 31.78125 66.40625 
z
M 31.78125 74.21875 
Q 44.046875 74.21875 50.515625 64.515625 
Q 56.984375 54.828125 56.984375 36.375 
Q 56.984375 17.96875 50.515625 8.265625 
Q 44.046875 -1.421875 31.78125 -1.421875 
Q 19.53125 -1.421875 13.0625 8.265625 
Q 6.59375 17.96875 6.59375 36.375 
Q 6.59375 54.828125 13.0625 64.515625 
Q 19.53125 74.21875 31.78125 74.21875 
z
" id="DejaVuSans-30"/>
     <path d="M 10.6875 12.40625 
L 21 12.40625 
L 21 0 
L 10.6875 0 
z
" id="DejaVuSans-2e"/>
    </defs>
    <g transform="translate(81.223711 67.497574)scale(0.08 -0.08)">
     <use xlink:href="#DejaVuSans-30"/>
     <use x="63.623047" xlink:href="#DejaVuSans-2e"/>
     <use x="95.410156" xlink:href="#DejaVuSans-30"/>
    </g>
   </g>
   <g id="text_2">
    <!-- 1.0 -->
    <defs>
     <path d="M 12.40625 8.296875 
L 28.515625 8.296875 
L 28.515625 63.921875 
L 10.984375 60.40625 
L 10.984375 69.390625 
L 28.421875 72.90625 
L 38.28125 72.90625 
L 38.28125 8.296875 
L 54.390625 8.296875 
L 54.390625 0 
L 12.40625 0 
z
" id="DejaVuSans-31"/>
    </defs>
    <g transform="translate(223.746078 67.497574)scale(0.08 -0.08)">
     <use xlink:href="#DejaVuSans-31"/>
     <use x="63.623047" xlink:href="#DejaVuSans-2e"/>
     <use x="95.410156" xlink:href="#DejaVuSans-30"/>
    </g>
   </g>
   <g id="text_3">
    <!-- 2.0 -->
    <defs>
     <path d="M 19.1875 8.296875 
L 53.609375 8.296875 
L 53.609375 0 
L 7.328125 0 
L 7.328125 8.296875 
Q 12.9375 14.109375 22.625 23.890625 
Q 32.328125 33.6875 34.8125 36.53125 
Q 39.546875 41.84375 41.421875 45.53125 
Q 43.3125 49.21875 43.3125 52.78125 
Q 43.3125 58.59375 39.234375 62.25 
Q 35.15625 65.921875 28.609375 65.921875 
Q 23.96875 65.921875 18.8125 64.3125 
Q 13.671875 62.703125 7.8125 59.421875 
L 7.8125 69.390625 
Q 13.765625 71.78125 18.9375 73 
Q 24.125 74.21875 28.421875 74.21875 
Q 39.75 74.21875 46.484375 68.546875 
Q 53.21875 62.890625 53.21875 53.421875 
Q 53.21875 48.921875 51.53125 44.890625 
Q 49.859375 40.875 45.40625 35.40625 
Q 44.1875 33.984375 37.640625 27.21875 
Q 31.109375 20.453125 19.1875 8.296875 
z
" id="DejaVuSans-32"/>
    </defs>
    <g transform="translate(366.268444 67.497574)scale(0.08 -0.08)">
     <use xlink:href="#DejaVuSans-32"/>
     <use x="63.623047" xlink:href="#DejaVuSans-2e"/>
     <use x="95.410156" xlink:href="#DejaVuSans-30"/>
    </g>
   </g>
   <g id="text_4">
    <!-- 3.0 -->
    <defs>
     <path d="M 40.578125 39.3125 
Q 47.65625 37.796875 51.625 33 
Q 55.609375 28.21875 55.609375 21.1875 
Q 55.609375 10.40625 48.1875 4.484375 
Q 40.765625 -1.421875 27.09375 -1.421875 
Q 22.515625 -1.421875 17.65625 -0.515625 
Q 12.796875 0.390625 7.625 2.203125 
L 7.625 11.71875 
Q 11.71875 9.328125 16.59375 8.109375 
Q 21.484375 6.890625 26.8125 6.890625 
Q 36.078125 6.890625 40.9375 10.546875 
Q 45.796875 14.203125 45.796875 21.1875 
Q 45.796875 27.640625 41.28125 31.265625 
Q 36.765625 34.90625 28.71875 34.90625 
L 20.21875 34.90625 
L 20.21875 43.015625 
L 29.109375 43.015625 
Q 36.375 43.015625 40.234375 45.921875 
Q 44.09375 48.828125 44.09375 54.296875 
Q 44.09375 59.90625 40.109375 62.90625 
Q 36.140625 65.921875 28.71875 65.921875 
Q 24.65625 65.921875 20.015625 65.03125 
Q 15.375 64.15625 9.8125 62.3125 
L 9.8125 71.09375 
Q 15.4375 72.65625 20.34375 73.4375 
Q 25.25 74.21875 29.59375 74.21875 
Q 40.828125 74.21875 47.359375 69.109375 
Q 53.90625 64.015625 53.90625 55.328125 
Q 53.90625 49.265625 50.4375 45.09375 
Q 46.96875 40.921875 40.578125 39.3125 
z
" id="DejaVuSans-33"/>
    </defs>
    <g transform="translate(508.790811 67.497574)scale(0.08 -0.08)">
     <use xlink:href="#DejaVuSans-33"/>
     <use x="63.623047" xlink:href="#DejaVuSans-2e"/>
     <use x="95.410156" xlink:href="#DejaVuSans-30"/>
    </g>
   </g>
   <g id="text_5">
    <!-- 4.0 -->
    <defs>
     <path d="M 37.796875 64.3125 
L 12.890625 25.390625 
L 37.796875 25.390625 
z
M 35.203125 72.90625 
L 47.609375 72.90625 
L 47.609375 25.390625 
L 58.015625 25.390625 
L 58.015625 17.1875 
L 47.609375 17.1875 
L 47.609375 0 
L 37.796875 0 
L 37.796875 17.1875 
L 4.890625 17.1875 
L 4.890625 26.703125 
z
" id="DejaVuSans-34"/>
    </defs>
    <g transform="translate(651.313177 67.497574)scale(0.08 -0.08)">
     <use xlink:href="#DejaVuSans-34"/>
     <use x="63.623047" xlink:href="#DejaVuSans-2e"/>
     <use x="95.410156" xlink:href="#DejaVuSans-30"/>
    </g>
   </g>
   <g id="text_6">
    <!-- 4.64 -->
    <defs>
     <path d="M 33.015625 40.375 
Q 26.375 40.375 22.484375 35.828125 
Q 18.609375 31.296875 18.609375 23.390625 
Q 18.609375 15.53125 22.484375 10.953125 
Q 26.375 6.390625 33.015625 6.390625 
Q 39.65625 6.390625 43.53125 10.953125 
Q 47.40625 15.53125 47.40625 23.390625 
Q 47.40625 31.296875 43.53125 35.828125 
Q 39.65625 40.375 33.015625 40.375 
z
M 52.59375 71.296875 
L 52.59375 62.3125 
Q 48.875 64.0625 45.09375 64.984375 
Q 41.3125 65.921875 37.59375 65.921875 
Q 27.828125 65.921875 22.671875 59.328125 
Q 17.53125 52.734375 16.796875 39.40625 
Q 19.671875 43.65625 24.015625 45.921875 
Q 28.375 48.1875 33.59375 48.1875 
Q 44.578125 48.1875 50.953125 41.515625 
Q 57.328125 34.859375 57.328125 23.390625 
Q 57.328125 12.15625 50.6875 5.359375 
Q 44.046875 -1.421875 33.015625 -1.421875 
Q 20.359375 -1.421875 13.671875 8.265625 
Q 6.984375 17.96875 6.984375 36.375 
Q 6.984375 53.65625 15.1875 63.9375 
Q 23.390625 74.21875 37.203125 74.21875 
Q 40.921875 74.21875 44.703125 73.484375 
Q 48.484375 72.75 52.59375 71.296875 
z
" id="DejaVuSans-36"/>
    </defs>
    <g transform="translate(742.762939 67.497574)scale(0.08 -0.08)">
     <use xlink:href="#DejaVuSans-34"/>
     <use x="63.623047" xlink:href="#DejaVuSans-2e"/>
     <use x="95.410156" xlink:href="#DejaVuSans-36"/>
     <use x="159.033203" xlink:href="#DejaVuSans-34"/>
    </g>
   </g>
   <g id="text_7">
    <!-- chr_0 (.._000913.3_) -->
    <defs>
     <path d="M 48.78125 52.59375 
L 48.78125 44.1875 
Q 44.96875 46.296875 41.140625 47.34375 
Q 37.3125 48.390625 33.40625 48.390625 
Q 24.65625 48.390625 19.8125 42.84375 
Q 14.984375 37.3125 14.984375 27.296875 
Q 14.984375 17.28125 19.8125 11.734375 
Q 24.65625 6.203125 33.40625 6.203125 
Q 37.3125 6.203125 41.140625 7.25 
Q 44.96875 8.296875 48.78125 10.40625 
L 48.78125 2.09375 
Q 45.015625 0.34375 40.984375 -0.53125 
Q 36.96875 -1.421875 32.421875 -1.421875 
Q 20.0625 -1.421875 12.78125 6.34375 
Q 5.515625 14.109375 5.515625 27.296875 
Q 5.515625 40.671875 12.859375 48.328125 
Q 20.21875 56 33.015625 56 
Q 37.15625 56 41.109375 55.140625 
Q 45.0625 54.296875 48.78125 52.59375 
z
" id="DejaVuSans-63"/>
     <path d="M 54.890625 33.015625 
L 54.890625 0 
L 45.90625 0 
L 45.90625 32.71875 
Q 45.90625 40.484375 42.875 44.328125 
Q 39.84375 48.1875 33.796875 48.1875 
Q 26.515625 48.1875 22.3125 43.546875 
Q 18.109375 38.921875 18.109375 30.90625 
L 18.109375 0 
L 9.078125 0 
L 9.078125 75.984375 
L 18.109375 75.984375 
L 18.109375 46.1875 
Q 21.34375 51.125 25.703125 53.5625 
Q 30.078125 56 35.796875 56 
Q 45.21875 56 50.046875 50.171875 
Q 54.890625 44.34375 54.890625 33.015625 
z
" id="DejaVuSans-68"/>
     <path d="M 41.109375 46.296875 
Q 39.59375 47.171875 37.8125 47.578125 
Q 36.03125 48 33.890625 48 
Q 26.265625 48 22.1875 43.046875 
Q 18.109375 38.09375 18.109375 28.8125 
L 18.109375 0 
L 9.078125 0 
L 9.078125 54.6875 
L 18.109375 54.6875 
L 18.109375 46.1875 
Q 20.953125 51.171875 25.484375 53.578125 
Q 30.03125 56 36.53125 56 
Q 37.453125 56 38.578125 55.875 
Q 39.703125 55.765625 41.0625 55.515625 
z
" id="DejaVuSans-72"/>
     <path d="M 50.984375 -16.609375 
L 50.984375 -23.578125 
L -0.984375 -23.578125 
L -0.984375 -16.609375 
z
" id="DejaVuSans-5f"/>
     <path id="DejaVuSans-20"/>
     <path d="M 31 75.875 
Q 24.46875 64.65625 21.28125 53.65625 
Q 18.109375 42.671875 18.109375 31.390625 
Q 18.109375 20.125 21.3125 9.0625 
Q 24.515625 -2 31 -13.1875 
L 23.1875 -13.1875 
Q 15.875 -1.703125 12.234375 9.375 
Q 8.59375 20.453125 8.59375 31.390625 
Q 8.59375 42.28125 12.203125 53.3125 
Q 15.828125 64.359375 23.1875 75.875 
z
" id="DejaVuSans-28"/>
     <path d="M 10.984375 1.515625 
L 10.984375 10.5 
Q 14.703125 8.734375 18.5 7.8125 
Q 22.3125 6.890625 25.984375 6.890625 
Q 35.75 6.890625 40.890625 13.453125 
Q 46.046875 20.015625 46.78125 33.40625 
Q 43.953125 29.203125 39.59375 26.953125 
Q 35.25 24.703125 29.984375 24.703125 
Q 19.046875 24.703125 12.671875 31.3125 
Q 6.296875 37.9375 6.296875 49.421875 
Q 6.296875 60.640625 12.9375 67.421875 
Q 19.578125 74.21875 30.609375 74.21875 
Q 43.265625 74.21875 49.921875 64.515625 
Q 56.59375 54.828125 56.59375 36.375 
Q 56.59375 19.140625 48.40625 8.859375 
Q 40.234375 -1.421875 26.421875 -1.421875 
Q 22.703125 -1.421875 18.890625 -0.6875 
Q 15.09375 0.046875 10.984375 1.515625 
z
M 30.609375 32.421875 
Q 37.25 32.421875 41.125 36.953125 
Q 45.015625 41.5 45.015625 49.421875 
Q 45.015625 57.28125 41.125 61.84375 
Q 37.25 66.40625 30.609375 66.40625 
Q 23.96875 66.40625 20.09375 61.84375 
Q 16.21875 57.28125 16.21875 49.421875 
Q 16.21875 41.5 20.09375 36.953125 
Q 23.96875 32.421875 30.609375 32.421875 
z
" id="DejaVuSans-39"/>
     <path d="M 8.015625 75.875 
L 15.828125 75.875 
Q 23.140625 64.359375 26.78125 53.3125 
Q 30.421875 42.28125 30.421875 31.390625 
Q 30.421875 20.453125 26.78125 9.375 
Q 23.140625 -1.703125 15.828125 -13.1875 
L 8.015625 -13.1875 
Q 14.5 -2 17.703125 9.0625 
Q 20.90625 20.125 20.90625 31.390625 
Q 20.90625 42.671875 17.703125 53.65625 
Q 14.5 64.65625 8.015625 75.875 
z
" id="DejaVuSans-29"/>
    </defs>
    <g transform="translate(353.359106 49.024164)scale(0.11 -0.11)">
     <use xlink:href="#DejaVuSans-63"/>
     <use x="54.980469" xlink:href="#DejaVuSans-68"/>
     <use x="118.359375" xlink:href="#DejaVuSans-72"/>
     <use x="159.472656" xlink:href="#DejaVuSans-5f"/>
     <use x="209.472656" xlink:href="#DejaVuSans-30"/>
     <use x="273.095703" xlink:href="#DejaVuSans-20"/>
     <use x="304.882812" xlink:href="#DejaVuSans-28"/>
     <use x="343.896484" xlink:href="#DejaVuSans-2e"/>
     <use x="375.683594" xlink:href="#DejaVuSans-2e"/>
     <use x="407.470703" xlink:href="#DejaVuSans-5f"/>
     <use x="457.470703" xlink:href="#DejaVuSans-30"/>
     <use x="521.09375" xlink:href="#DejaVuSans-30"/>
     <use x="584.716797" xlink:href="#DejaVuSans-30"/>
     <use x="648.339844" xlink:href="#DejaVuSans-39"/>
     <use x="711.962891" xlink:href="#DejaVuSans-31"/>
     <use x="775.585938" xlink:href="#DejaVuSans-33"/>
     <use x="839.208984" xlink:href="#DejaVuSans-2e"/>
     <use x="870.996094" xlink:href="#DejaVuSans-33"/>
     <use x="934.619141" xlink:href="#DejaVuSans-5f"/>
     <use x="984.619141" xlink:href="#DejaVuSans-29"/>
    </g>
   </g>
   <g id="text_8">
    <!-- Genome, Mb -->
    <defs>
     <path d="M 59.515625 10.40625 
L 59.515625 29.984375 
L 43.40625 29.984375 
L 43.40625 38.09375 
L 69.28125 38.09375 
L 69.28125 6.78125 
Q 63.578125 2.734375 56.6875 0.65625 
Q 49.8125 -1.421875 42 -1.421875 
Q 24.90625 -1.421875 15.25 8.5625 
Q 5.609375 18.5625 5.609375 36.375 
Q 5.609375 54.25 15.25 64.234375 
Q 24.90625 74.21875 42 74.21875 
Q 49.125 74.21875 55.546875 72.453125 
Q 61.96875 70.703125 67.390625 67.28125 
L 67.390625 56.78125 
Q 61.921875 61.421875 55.765625 63.765625 
Q 49.609375 66.109375 42.828125 66.109375 
Q 29.4375 66.109375 22.71875 58.640625 
Q 16.015625 51.171875 16.015625 36.375 
Q 16.015625 21.625 22.71875 14.15625 
Q 29.4375 6.6875 42.828125 6.6875 
Q 48.046875 6.6875 52.140625 7.59375 
Q 56.25 8.5 59.515625 10.40625 
z
" id="DejaVuSans-47"/>
     <path d="M 56.203125 29.59375 
L 56.203125 25.203125 
L 14.890625 25.203125 
Q 15.484375 15.921875 20.484375 11.0625 
Q 25.484375 6.203125 34.421875 6.203125 
Q 39.59375 6.203125 44.453125 7.46875 
Q 49.3125 8.734375 54.109375 11.28125 
L 54.109375 2.78125 
Q 49.265625 0.734375 44.1875 -0.34375 
Q 39.109375 -1.421875 33.890625 -1.421875 
Q 20.796875 -1.421875 13.15625 6.1875 
Q 5.515625 13.8125 5.515625 26.8125 
Q 5.515625 40.234375 12.765625 48.109375 
Q 20.015625 56 32.328125 56 
Q 43.359375 56 49.78125 48.890625 
Q 56.203125 41.796875 56.203125 29.59375 
z
M 47.21875 32.234375 
Q 47.125 39.59375 43.09375 43.984375 
Q 39.0625 48.390625 32.421875 48.390625 
Q 24.90625 48.390625 20.390625 44.140625 
Q 15.875 39.890625 15.1875 32.171875 
z
" id="DejaVuSans-65"/>
     <path d="M 54.890625 33.015625 
L 54.890625 0 
L 45.90625 0 
L 45.90625 32.71875 
Q 45.90625 40.484375 42.875 44.328125 
Q 39.84375 48.1875 33.796875 48.1875 
Q 26.515625 48.1875 22.3125 43.546875 
Q 18.109375 38.921875 18.109375 30.90625 
L 18.109375 0 
L 9.078125 0 
L 9.078125 54.6875 
L 18.109375 54.6875 
L 18.109375 46.1875 
Q 21.34375 51.125 25.703125 53.5625 
Q 30.078125 56 35.796875 56 
Q 45.21875 56 50.046875 50.171875 
Q 54.890625 44.34375 54.890625 33.015625 
z
" id="DejaVuSans-6e"/>
     <path d="M 30.609375 48.390625 
Q 23.390625 48.390625 19.1875 42.75 
Q 14.984375 37.109375 14.984375 27.296875 
Q 14.984375 17.484375 19.15625 11.84375 
Q 23.34375 6.203125 30.609375 6.203125 
Q 37.796875 6.203125 41.984375 11.859375 
Q 46.1875 17.53125 46.1875 27.296875 
Q 46.1875 37.015625 41.984375 42.703125 
Q 37.796875 48.390625 30.609375 48.390625 
z
M 30.609375 56 
Q 42.328125 56 49.015625 48.375 
Q 55.71875 40.765625 55.71875 27.296875 
Q 55.71875 13.875 49.015625 6.21875 
Q 42.328125 -1.421875 30.609375 -1.421875 
Q 18.84375 -1.421875 12.171875 6.21875 
Q 5.515625 13.875 5.515625 27.296875 
Q 5.515625 40.765625 12.171875 48.375 
Q 18.84375 56 30.609375 56 
z
" id="DejaVuSans-6f"/>
     <path d="M 52 44.1875 
Q 55.375 50.25 60.0625 53.125 
Q 64.75 56 71.09375 56 
Q 79.640625 56 84.28125 50.015625 
Q 88.921875 44.046875 88.921875 33.015625 
L 88.921875 0 
L 79.890625 0 
L 79.890625 32.71875 
Q 79.890625 40.578125 77.09375 44.375 
Q 74.3125 48.1875 68.609375 48.1875 
Q 61.625 48.1875 57.5625 43.546875 
Q 53.515625 38.921875 53.515625 30.90625 
L 53.515625 0 
L 44.484375 0 
L 44.484375 32.71875 
Q 44.484375 40.625 41.703125 44.40625 
Q 38.921875 48.1875 33.109375 48.1875 
Q 26.21875 48.1875 22.15625 43.53125 
Q 18.109375 38.875 18.109375 30.90625 
L 18.109375 0 
L 9.078125 0 
L 9.078125 54.6875 
L 18.109375 54.6875 
L 18.109375 46.1875 
Q 21.1875 51.21875 25.484375 53.609375 
Q 29.78125 56 35.6875 56 
Q 41.65625 56 45.828125 52.96875 
Q 50 49.953125 52 44.1875 
z
" id="DejaVuSans-6d"/>
     <path d="M 11.71875 12.40625 
L 22.015625 12.40625 
L 22.015625 4 
L 14.015625 -11.625 
L 7.71875 -11.625 
L 11.71875 4 
z
" id="DejaVuSans-2c"/>
     <path d="M 9.8125 72.90625 
L 24.515625 72.90625 
L 43.109375 23.296875 
L 61.8125 72.90625 
L 76.515625 72.90625 
L 76.515625 0 
L 66.890625 0 
L 66.890625 64.015625 
L 48.09375 14.015625 
L 38.1875 14.015625 
L 19.390625 64.015625 
L 19.390625 0 
L 9.8125 0 
z
" id="DejaVuSans-4d"/>
     <path d="M 48.6875 27.296875 
Q 48.6875 37.203125 44.609375 42.84375 
Q 40.53125 48.484375 33.40625 48.484375 
Q 26.265625 48.484375 22.1875 42.84375 
Q 18.109375 37.203125 18.109375 27.296875 
Q 18.109375 17.390625 22.1875 11.75 
Q 26.265625 6.109375 33.40625 6.109375 
Q 40.53125 6.109375 44.609375 11.75 
Q 48.6875 17.390625 48.6875 27.296875 
z
M 18.109375 46.390625 
Q 20.953125 51.265625 25.265625 53.625 
Q 29.59375 56 35.59375 56 
Q 45.5625 56 51.78125 48.09375 
Q 58.015625 40.1875 58.015625 27.296875 
Q 58.015625 14.40625 51.78125 6.484375 
Q 45.5625 -1.421875 35.59375 -1.421875 
Q 29.59375 -1.421875 25.265625 0.953125 
Q 20.953125 3.328125 18.109375 8.203125 
L 18.109375 0 
L 9.078125 0 
L 9.078125 75.984375 
L 18.109375 75.984375 
z
" id="DejaVuSans-62"/>
    </defs>
    <g transform="translate(374.687074 79.659458)scale(0.11 -0.11)">
     <use xlink:href="#DejaVuSans-47"/>
     <use x="77.490234" xlink:href="#DejaVuSans-65"/>
     <use x="139.013672" xlink:href="#DejaVuSans-6e"/>
     <use x="202.392578" xlink:href="#DejaVuSans-6f"/>
     <use x="263.574219" xlink:href="#DejaVuSans-6d"/>
     <use x="360.986328" xlink:href="#DejaVuSans-65"/>
     <use x="422.509766" xlink:href="#DejaVuSans-2c"/>
     <use x="454.296875" xlink:href="#DejaVuSans-20"/>
     <use x="486.083984" xlink:href="#DejaVuSans-4d"/>
     <use x="572.363281" xlink:href="#DejaVuSans-62"/>
    </g>
   </g>
   <g id="text_9">
    <!-- contigs -->
    <defs>
     <path d="M 18.3125 70.21875 
L 18.3125 54.6875 
L 36.8125 54.6875 
L 36.8125 47.703125 
L 18.3125 47.703125 
L 18.3125 18.015625 
Q 18.3125 11.328125 20.140625 9.421875 
Q 21.96875 7.515625 27.59375 7.515625 
L 36.8125 7.515625 
L 36.8125 0 
L 27.59375 0 
Q 17.1875 0 13.234375 3.875 
Q 9.28125 7.765625 9.28125 18.015625 
L 9.28125 47.703125 
L 2.6875 47.703125 
L 2.6875 54.6875 
L 9.28125 54.6875 
L 9.28125 70.21875 
z
" id="DejaVuSans-74"/>
     <path d="M 9.421875 54.6875 
L 18.40625 54.6875 
L 18.40625 0 
L 9.421875 0 
z
M 9.421875 75.984375 
L 18.40625 75.984375 
L 18.40625 64.59375 
L 9.421875 64.59375 
z
" id="DejaVuSans-69"/>
     <path d="M 45.40625 27.984375 
Q 45.40625 37.75 41.375 43.109375 
Q 37.359375 48.484375 30.078125 48.484375 
Q 22.859375 48.484375 18.828125 43.109375 
Q 14.796875 37.75 14.796875 27.984375 
Q 14.796875 18.265625 18.828125 12.890625 
Q 22.859375 7.515625 30.078125 7.515625 
Q 37.359375 7.515625 41.375 12.890625 
Q 45.40625 18.265625 45.40625 27.984375 
z
M 54.390625 6.78125 
Q 54.390625 -7.171875 48.1875 -13.984375 
Q 42 -20.796875 29.203125 -20.796875 
Q 24.46875 -20.796875 20.265625 -20.09375 
Q 16.0625 -19.390625 12.109375 -17.921875 
L 12.109375 -9.1875 
Q 16.0625 -11.328125 19.921875 -12.34375 
Q 23.78125 -13.375 27.78125 -13.375 
Q 36.625 -13.375 41.015625 -8.765625 
Q 45.40625 -4.15625 45.40625 5.171875 
L 45.40625 9.625 
Q 42.625 4.78125 38.28125 2.390625 
Q 33.9375 0 27.875 0 
Q 17.828125 0 11.671875 7.65625 
Q 5.515625 15.328125 5.515625 27.984375 
Q 5.515625 40.671875 11.671875 48.328125 
Q 17.828125 56 27.875 56 
Q 33.9375 56 38.28125 53.609375 
Q 42.625 51.21875 45.40625 46.390625 
L 45.40625 54.6875 
L 54.390625 54.6875 
z
" id="DejaVuSans-67"/>
     <path d="M 44.28125 53.078125 
L 44.28125 44.578125 
Q 40.484375 46.53125 36.375 47.5 
Q 32.28125 48.484375 27.875 48.484375 
Q 21.1875 48.484375 17.84375 46.4375 
Q 14.5 44.390625 14.5 40.28125 
Q 14.5 37.15625 16.890625 35.375 
Q 19.28125 33.59375 26.515625 31.984375 
L 29.59375 31.296875 
Q 39.15625 29.25 43.1875 25.515625 
Q 47.21875 21.78125 47.21875 15.09375 
Q 47.21875 7.46875 41.1875 3.015625 
Q 35.15625 -1.421875 24.609375 -1.421875 
Q 20.21875 -1.421875 15.453125 -0.5625 
Q 10.6875 0.296875 5.421875 2 
L 5.421875 11.28125 
Q 10.40625 8.6875 15.234375 7.390625 
Q 20.0625 6.109375 24.8125 6.109375 
Q 31.15625 6.109375 34.5625 8.28125 
Q 37.984375 10.453125 37.984375 14.40625 
Q 37.984375 18.0625 35.515625 20.015625 
Q 33.0625 21.96875 24.703125 23.78125 
L 21.578125 24.515625 
Q 13.234375 26.265625 9.515625 29.90625 
Q 5.8125 33.546875 5.8125 39.890625 
Q 5.8125 47.609375 11.28125 51.796875 
Q 16.75 56 26.8125 56 
Q 31.78125 56 36.171875 55.265625 
Q 40.578125 54.546875 44.28125 53.078125 
z
" id="DejaVuSans-73"/>
    </defs>
    <g transform="translate(29.598631 94.104375)scale(0.12 -0.12)">
     <use xlink:href="#DejaVuSans-63"/>
     <use x="54.980469" xlink:href="#DejaVuSans-6f"/>
     <use x="116.162109" xlink:href="#DejaVuSans-6e"/>
     <use x="179.541016" xlink:href="#DejaVuSans-74"/>
     <use x="218.75" xlink:href="#DejaVuSans-69"/>
     <use x="246.533203" xlink:href="#DejaVuSans-67"/>
     <use x="310.009766" xlink:href="#DejaVuSans-73"/>
    </g>
   </g>
  </g>
 </g>
 <defs>
  <clipPath id="pf95a1ecfe0">
   <rect height="113.054118" width="781.2" x="2.52" y="2.52"/>
  </clipPath>
 </defs>
</svg>
