<?xml version="1.0" encoding="utf-8" standalone="no"?>
<!DOCTYPE svg PUBLIC "-//W3C//DTD SVG 1.1//EN"
  "http://www.w3.org/Graphics/SVG/1.1/DTD/svg11.dtd">
<!-- Created with matplotlib (http://matplotlib.sourceforge.net/) -->
<svg height="117pt" version="1.1" viewBox="0 0 781 117" width="781pt" xmlns="http://www.w3.org/2000/svg" xmlns:xlink="http://www.w3.org/1999/xlink">
 <defs>
  <style type="text/css">
*{stroke-linecap:square;stroke-linejoin:round;}
  </style>
 </defs>
 <g id="figure_1">
  <g id="patch_1">
   <path d="
M0 117.459
L781.2 117.459
L781.2 0
L0 0
z
" style="fill:#ffffff;"/>
  </g>
  <g id="axes_1">
   <g id="patch_2">
    <path clip-path="url(#p6a4ae4428d)" d="
M149.99 117.459
L720.266 117.459
L720.266 15.6612
L149.99 15.6612
z
" style="fill:#ffffff;"/>
   </g>
   <g id="patch_3">
    <path clip-path="url(#p6a4ae4428d)" d="
M182.803 106.888
L183.415 106.888
L183.415 95.1416
L182.803 95.1416
z
" style="fill:#4daf4a;"/>
   </g>
   <g id="patch_4">
    <path clip-path="url(#p6a4ae4428d)" d="
M183.446 105.321
L184.566 105.321
L184.566 93.5755
L183.446 93.5755
z
" style="fill:#40cf40;"/>
   </g>
   <g id="patch_5">
    <path clip-path="url(#p6a4ae4428d)" d="
M184.717 109.628
L185.041 109.628
L185.041 97.8824
L184.717 97.8824
z
" style="fill:#e41a1c;"/>
   </g>
   <g id="patch_6">
    <path clip-path="url(#p6a4ae4428d)" d="
M185.149 105.321
L188.831 105.321
L188.831 93.5755
L185.149 93.5755
z
" style="fill:#40cf40;"/>
   </g>
   <g id="patch_7">
    <path clip-path="url(#p6a4ae4428d)" d="
M188.855 106.888
L190.439 106.888
L190.439 95.1416
L188.855 95.1416
z
" style="fill:#4daf4a;"/>
   </g>
   <g id="patch_8">
    <path clip-path="url(#p6a4ae4428d)" d="
M190.449 105.321
L191.06 105.321
L191.06 93.5755
L190.449 93.5755
z
" style="fill:#40cf40;"/>
   </g>
   <g id="patch_9">
    <path clip-path="url(#p6a4ae4428d)" d="
M191.117 106.888
L195.767 106.888
L195.767 95.1416
L191.117 95.1416
z
" style="fill:#4daf4a;"/>
   </g>
   <g id="patch_10">
    <path clip-path="url(#p6a4ae4428d)" d="
M195.778 105.321
L202.773 105.321
L202.773 93.5755
L195.778 93.5755
z
" style="fill:#40cf40;"/>
   </g>
   <g id="patch_11">
    <path clip-path="url(#p6a4ae4428d)" d="
M202.798 106.888
L202.875 106.888
L202.875 95.1416
L202.798 95.1416
z
" style="fill:#4daf4a;"/>
   </g>
   <g id="patch_12">
    <path clip-path="url(#p6a4ae4428d)" d="
M202.896 105.321
L203.678 105.321
L203.678 93.5755
L202.896 93.5755
z
" style="fill:#40cf40;"/>
   </g>
   <g id="patch_13">
    <path clip-path="url(#p6a4ae4428d)" d="
M203.702 106.888
L206.691 106.888
L206.691 95.1416
L203.702 95.1416
z
" style="fill:#4daf4a;"/>
   </g>
   <g id="patch_14">
    <path clip-path="url(#p6a4ae4428d)" d="
M206.707 105.321
L208.379 105.321
L208.379 93.5755
L206.707 93.5755
z
" style="fill:#40cf40;"/>
   </g>
   <g id="patch_15">
    <path clip-path="url(#p6a4ae4428d)" d="
M209.004 106.888
L209.486 106.888
L209.486 95.1416
L209.004 95.1416
z
" style="fill:#4daf4a;"/>
   </g>
   <g id="patch_16">
    <path clip-path="url(#p6a4ae4428d)" d="
M209.5 105.321
L210.17 105.321
L210.17 93.5755
L209.5 93.5755
z
" style="fill:#40cf40;"/>
   </g>
   <g id="patch_17">
    <path clip-path="url(#p6a4ae4428d)" d="
M210.188 106.888
L211.174 106.888
L211.174 95.1416
L210.188 95.1416
z
" style="fill:#4daf4a;"/>
   </g>
   <g id="patch_18">
    <path clip-path="url(#p6a4ae4428d)" d="
M211.21 105.321
L212.321 105.321
L212.321 93.5755
L211.21 93.5755
z
" style="fill:#40cf40;"/>
   </g>
   <g id="patch_19">
    <path clip-path="url(#p6a4ae4428d)" d="
M212.399 106.888
L213.034 106.888
L213.034 95.1416
L212.399 95.1416
z
" style="fill:#4daf4a;"/>
   </g>
   <g id="patch_20">
    <path clip-path="url(#p6a4ae4428d)" d="
M213.048 105.321
L213.345 105.321
L213.345 93.5755
L213.048 93.5755
z
" style="fill:#40cf40;"/>
   </g>
   <g id="patch_21">
    <path clip-path="url(#p6a4ae4428d)" d="
M213.477 109.628
L213.55 109.628
L213.55 97.8824
L213.477 97.8824
z
" style="fill:#e41a1c;"/>
   </g>
   <g id="patch_22">
    <path clip-path="url(#p6a4ae4428d)" d="
M213.55 108.062
L213.882 108.062
L213.882 96.3162
L213.55 96.3162
z
" style="fill:#b82525;"/>
   </g>
   <g id="patch_23">
    <path clip-path="url(#p6a4ae4428d)" d="
M213.899 106.888
L214.155 106.888
L214.155 95.1416
L213.899 95.1416
z
" style="fill:#4daf4a;"/>
   </g>
   <g id="patch_24">
    <path clip-path="url(#p6a4ae4428d)" d="
M214.436 105.321
L214.754 105.321
L214.754 93.5755
L214.436 93.5755
z
" style="fill:#40cf40;"/>
   </g>
   <g id="patch_25">
    <path clip-path="url(#p6a4ae4428d)" d="
M214.838 109.628
L215.976 109.628
L215.976 97.8824
L214.838 97.8824
z
" style="fill:#e41a1c;"/>
   </g>
   <g id="patch_26">
    <path clip-path="url(#p6a4ae4428d)" d="
M215.987 108.062
L216.045 108.062
L216.045 96.3162
L215.987 96.3162
z
" style="fill:#b82525;"/>
   </g>
   <g id="patch_27">
    <path clip-path="url(#p6a4ae4428d)" d="
M216.144 106.888
L216.646 106.888
L216.646 95.1416
L216.144 95.1416
z
" style="fill:#4daf4a;"/>
   </g>
   <g id="patch_28">
    <path clip-path="url(#p6a4ae4428d)" d="
M216.656 105.321
L216.761 105.321
L216.761 93.5755
L216.656 93.5755
z
" style="fill:#40cf40;"/>
   </g>
   <g id="patch_29">
    <path clip-path="url(#p6a4ae4428d)" d="
M216.776 106.888
L218.881 106.888
L218.881 95.1416
L216.776 95.1416
z
" style="fill:#4daf4a;"/>
   </g>
   <g id="patch_30">
    <path clip-path="url(#p6a4ae4428d)" d="
M219.015 105.321
L219.501 105.321
L219.501 93.5755
L219.015 93.5755
z
" style="fill:#40cf40;"/>
   </g>
   <g id="patch_31">
    <path clip-path="url(#p6a4ae4428d)" d="
M219.502 106.888
L220.231 106.888
L220.231 95.1416
L219.502 95.1416
z
" style="fill:#4daf4a;"/>
   </g>
   <g id="patch_32">
    <path clip-path="url(#p6a4ae4428d)" d="
M220.231 105.321
L221.678 105.321
L221.678 93.5755
L220.231 93.5755
z
" style="fill:#40cf40;"/>
   </g>
   <g id="patch_33">
    <path clip-path="url(#p6a4ae4428d)" d="
M221.71 106.888
L222.079 106.888
L222.079 95.1416
L221.71 95.1416
z
" style="fill:#4daf4a;"/>
   </g>
   <g id="patch_34">
    <path clip-path="url(#p6a4ae4428d)" d="
M222.108 105.321
L222.835 105.321
L222.835 93.5755
L222.108 93.5755
z
" style="fill:#40cf40;"/>
   </g>
   <g id="patch_35">
    <path clip-path="url(#p6a4ae4428d)" d="
M222.847 106.888
L223.712 106.888
L223.712 95.1416
L222.847 95.1416
z
" style="fill:#4daf4a;"/>
   </g>
   <g id="patch_36">
    <path clip-path="url(#p6a4ae4428d)" d="
M223.735 105.321
L225.212 105.321
L225.212 93.5755
L223.735 93.5755
z
" style="fill:#40cf40;"/>
   </g>
   <g id="patch_37">
    <path clip-path="url(#p6a4ae4428d)" d="
M225.215 106.888
L225.734 106.888
L225.734 95.1416
L225.215 95.1416
z
" style="fill:#4daf4a;"/>
   </g>
   <g id="patch_38">
    <path clip-path="url(#p6a4ae4428d)" d="
M225.75 105.321
L226.44 105.321
L226.44 93.5755
L225.75 93.5755
z
" style="fill:#40cf40;"/>
   </g>
   <g id="patch_39">
    <path clip-path="url(#p6a4ae4428d)" d="
M226.441 106.888
L226.586 106.888
L226.586 95.1416
L226.441 95.1416
z
" style="fill:#4daf4a;"/>
   </g>
   <g id="patch_40">
    <path clip-path="url(#p6a4ae4428d)" d="
M226.594 105.321
L227.634 105.321
L227.634 93.5755
L226.594 93.5755
z
" style="fill:#40cf40;"/>
   </g>
   <g id="patch_41">
    <path clip-path="url(#p6a4ae4428d)" d="
M227.771 106.888
L230.891 106.888
L230.891 95.1416
L227.771 95.1416
z
" style="fill:#4daf4a;"/>
   </g>
   <g id="patch_42">
    <path clip-path="url(#p6a4ae4428d)" d="
M230.891 105.321
L236.275 105.321
L236.275 93.5755
L230.891 93.5755
z
" style="fill:#40cf40;"/>
   </g>
   <g id="patch_43">
    <path clip-path="url(#p6a4ae4428d)" d="
M236.315 106.888
L236.553 106.888
L236.553 95.1416
L236.315 95.1416
z
" style="fill:#4daf4a;"/>
   </g>
   <g id="patch_44">
    <path clip-path="url(#p6a4ae4428d)" d="
M236.566 105.321
L236.96 105.321
L236.96 93.5755
L236.566 93.5755
z
" style="fill:#40cf40;"/>
   </g>
   <g id="patch_45">
    <path clip-path="url(#p6a4ae4428d)" d="
M236.96 106.888
L238.863 106.888
L238.863 95.1416
L236.96 95.1416
z
" style="fill:#4daf4a;"/>
   </g>
   <g id="patch_46">
    <path clip-path="url(#p6a4ae4428d)" d="
M238.874 105.321
L240.843 105.321
L240.843 93.5755
L238.874 93.5755
z
" style="fill:#40cf40;"/>
   </g>
   <g id="patch_47">
    <path clip-path="url(#p6a4ae4428d)" d="
M240.86 106.888
L241.005 106.888
L241.005 95.1416
L240.86 95.1416
z
" style="fill:#4daf4a;"/>
   </g>
   <g id="patch_48">
    <path clip-path="url(#p6a4ae4428d)" d="
M241.017 105.321
L242.005 105.321
L242.005 93.5755
L241.017 93.5755
z
" style="fill:#40cf40;"/>
   </g>
   <g id="patch_49">
    <path clip-path="url(#p6a4ae4428d)" d="
M242.021 106.888
L242.947 106.888
L242.947 95.1416
L242.021 95.1416
z
" style="fill:#4daf4a;"/>
   </g>
   <g id="patch_50">
    <path clip-path="url(#p6a4ae4428d)" d="
M242.974 105.321
L244.14 105.321
L244.14 93.5755
L242.974 93.5755
z
" style="fill:#40cf40;"/>
   </g>
   <g id="patch_51">
    <path clip-path="url(#p6a4ae4428d)" d="
M244.162 109.628
L244.959 109.628
L244.959 97.8824
L244.162 97.8824
z
" style="fill:#e41a1c;"/>
   </g>
   <g id="patch_52">
    <path clip-path="url(#p6a4ae4428d)" d="
M244.962 105.321
L245.901 105.321
L245.901 93.5755
L244.962 93.5755
z
" style="fill:#40cf40;"/>
   </g>
   <g id="patch_53">
    <path clip-path="url(#p6a4ae4428d)" d="
M245.909 106.888
L247.668 106.888
L247.668 95.1416
L245.909 95.1416
z
" style="fill:#4daf4a;"/>
   </g>
   <g id="patch_54">
    <path clip-path="url(#p6a4ae4428d)" d="
M247.813 105.321
L248.564 105.321
L248.564 93.5755
L247.813 93.5755
z
" style="fill:#40cf40;"/>
   </g>
   <g id="patch_55">
    <path clip-path="url(#p6a4ae4428d)" d="
M248.564 106.888
L248.697 106.888
L248.697 95.1416
L248.564 95.1416
z
" style="fill:#4daf4a;"/>
   </g>
   <g id="patch_56">
    <path clip-path="url(#p6a4ae4428d)" d="
M248.697 105.321
L249.007 105.321
L249.007 93.5755
L248.697 93.5755
z
" style="fill:#40cf40;"/>
   </g>
   <g id="patch_57">
    <path clip-path="url(#p6a4ae4428d)" d="
M249.007 106.888
L249.221 106.888
L249.221 95.1416
L249.007 95.1416
z
" style="fill:#4daf4a;"/>
   </g>
   <g id="patch_58">
    <path clip-path="url(#p6a4ae4428d)" d="
M249.396 108.062
L251.137 108.062
L251.137 96.3162
L249.396 96.3162
z
" style="fill:#b82525;"/>
   </g>
   <g id="patch_59">
    <path clip-path="url(#p6a4ae4428d)" d="
M251.137 106.888
L252.387 106.888
L252.387 95.1416
L251.137 95.1416
z
" style="fill:#4daf4a;"/>
   </g>
   <g id="patch_60">
    <path clip-path="url(#p6a4ae4428d)" d="
M252.532 105.321
L255.174 105.321
L255.174 93.5755
L252.532 93.5755
z
" style="fill:#40cf40;"/>
   </g>
   <g id="patch_61">
    <path clip-path="url(#p6a4ae4428d)" d="
M255.188 106.888
L257.858 106.888
L257.858 95.1416
L255.188 95.1416
z
" style="fill:#4daf4a;"/>
   </g>
   <g id="patch_62">
    <path clip-path="url(#p6a4ae4428d)" d="
M257.858 105.321
L261.528 105.321
L261.528 93.5755
L257.858 93.5755
z
" style="fill:#40cf40;"/>
   </g>
   <g id="patch_63">
    <path clip-path="url(#p6a4ae4428d)" d="
M261.656 106.888
L262.513 106.888
L262.513 95.1416
L261.656 95.1416
z
" style="fill:#4daf4a;"/>
   </g>
   <g id="patch_64">
    <path clip-path="url(#p6a4ae4428d)" d="
M262.526 105.321
L262.534 105.321
L262.534 93.5755
L262.526 93.5755
z
" style="fill:#40cf40;"/>
   </g>
   <g id="patch_65">
    <path clip-path="url(#p6a4ae4428d)" d="
M262.551 106.888
L262.727 106.888
L262.727 95.1416
L262.551 95.1416
z
" style="fill:#4daf4a;"/>
   </g>
   <g id="patch_66">
    <path clip-path="url(#p6a4ae4428d)" d="
M262.748 105.321
L263.814 105.321
L263.814 93.5755
L262.748 93.5755
z
" style="fill:#40cf40;"/>
   </g>
   <g id="patch_67">
    <path clip-path="url(#p6a4ae4428d)" d="
M263.912 106.888
L266.306 106.888
L266.306 95.1416
L263.912 95.1416
z
" style="fill:#4daf4a;"/>
   </g>
   <g id="patch_68">
    <path clip-path="url(#p6a4ae4428d)" d="
M266.725 105.321
L266.824 105.321
L266.824 93.5755
L266.725 93.5755
z
" style="fill:#40cf40;"/>
   </g>
   <g id="patch_69">
    <path clip-path="url(#p6a4ae4428d)" d="
M266.932 106.888
L267.076 106.888
L267.076 95.1416
L266.932 95.1416
z
" style="fill:#4daf4a;"/>
   </g>
   <g id="patch_70">
    <path clip-path="url(#p6a4ae4428d)" d="
M267.353 105.321
L269.531 105.321
L269.531 93.5755
L267.353 93.5755
z
" style="fill:#40cf40;"/>
   </g>
   <g id="patch_71">
    <path clip-path="url(#p6a4ae4428d)" d="
M269.598 106.888
L271.015 106.888
L271.015 95.1416
L269.598 95.1416
z
" style="fill:#4daf4a;"/>
   </g>
   <g id="patch_72">
    <path clip-path="url(#p6a4ae4428d)" d="
M271.042 105.321
L272.067 105.321
L272.067 93.5755
L271.042 93.5755
z
" style="fill:#40cf40;"/>
   </g>
   <g id="patch_73">
    <path clip-path="url(#p6a4ae4428d)" d="
M272.297 106.888
L274.703 106.888
L274.703 95.1416
L272.297 95.1416
z
" style="fill:#4daf4a;"/>
   </g>
   <g id="patch_74">
    <path clip-path="url(#p6a4ae4428d)" d="
M274.715 105.321
L274.743 105.321
L274.743 93.5755
L274.715 93.5755
z
" style="fill:#40cf40;"/>
   </g>
   <g id="patch_75">
    <path clip-path="url(#p6a4ae4428d)" d="
M274.752 109.628
L275.678 109.628
L275.678 97.8824
L274.752 97.8824
z
" style="fill:#e41a1c;"/>
   </g>
   <g id="patch_76">
    <path clip-path="url(#p6a4ae4428d)" d="
M275.697 105.321
L276.19 105.321
L276.19 93.5755
L275.697 93.5755
z
" style="fill:#40cf40;"/>
   </g>
   <g id="patch_77">
    <path clip-path="url(#p6a4ae4428d)" d="
M276.198 106.888
L277.977 106.888
L277.977 95.1416
L276.198 95.1416
z
" style="fill:#4daf4a;"/>
   </g>
   <g id="patch_78">
    <path clip-path="url(#p6a4ae4428d)" d="
M278.049 105.321
L279.558 105.321
L279.558 93.5755
L278.049 93.5755
z
" style="fill:#40cf40;"/>
   </g>
   <g id="patch_79">
    <path clip-path="url(#p6a4ae4428d)" d="
M279.583 106.888
L280.929 106.888
L280.929 95.1416
L279.583 95.1416
z
" style="fill:#4daf4a;"/>
   </g>
   <g id="patch_80">
    <path clip-path="url(#p6a4ae4428d)" d="
M280.99 105.321
L281.547 105.321
L281.547 93.5755
L280.99 93.5755
z
" style="fill:#40cf40;"/>
   </g>
   <g id="patch_81">
    <path clip-path="url(#p6a4ae4428d)" d="
M281.568 106.888
L282.682 106.888
L282.682 95.1416
L281.568 95.1416
z
" style="fill:#4daf4a;"/>
   </g>
   <g id="patch_82">
    <path clip-path="url(#p6a4ae4428d)" d="
M282.714 105.321
L283.896 105.321
L283.896 93.5755
L282.714 93.5755
z
" style="fill:#40cf40;"/>
   </g>
   <g id="patch_83">
    <path clip-path="url(#p6a4ae4428d)" d="
M283.912 106.888
L284.508 106.888
L284.508 95.1416
L283.912 95.1416
z
" style="fill:#4daf4a;"/>
   </g>
   <g id="patch_84">
    <path clip-path="url(#p6a4ae4428d)" d="
M284.53 105.321
L285.265 105.321
L285.265 93.5755
L284.53 93.5755
z
" style="fill:#40cf40;"/>
   </g>
   <g id="patch_85">
    <path clip-path="url(#p6a4ae4428d)" d="
M285.316 106.888
L285.735 106.888
L285.735 95.1416
L285.316 95.1416
z
" style="fill:#4daf4a;"/>
   </g>
   <g id="patch_86">
    <path clip-path="url(#p6a4ae4428d)" d="
M285.755 105.321
L285.912 105.321
L285.912 93.5755
L285.755 93.5755
z
" style="fill:#40cf40;"/>
   </g>
   <g id="patch_87">
    <path clip-path="url(#p6a4ae4428d)" d="
M285.912 106.888
L287.53 106.888
L287.53 95.1416
L285.912 95.1416
z
" style="fill:#4daf4a;"/>
   </g>
   <g id="patch_88">
    <path clip-path="url(#p6a4ae4428d)" d="
M287.542 105.321
L287.939 105.321
L287.939 93.5755
L287.542 93.5755
z
" style="fill:#40cf40;"/>
   </g>
   <g id="patch_89">
    <path clip-path="url(#p6a4ae4428d)" d="
M287.949 106.888
L288.159 106.888
L288.159 95.1416
L287.949 95.1416
z
" style="fill:#4daf4a;"/>
   </g>
   <g id="patch_90">
    <path clip-path="url(#p6a4ae4428d)" d="
M288.169 105.321
L288.511 105.321
L288.511 93.5755
L288.169 93.5755
z
" style="fill:#40cf40;"/>
   </g>
   <g id="patch_91">
    <path clip-path="url(#p6a4ae4428d)" d="
M288.527 106.888
L290.997 106.888
L290.997 95.1416
L288.527 95.1416
z
" style="fill:#4daf4a;"/>
   </g>
   <g id="patch_92">
    <path clip-path="url(#p6a4ae4428d)" d="
M291.016 105.321
L296.05 105.321
L296.05 93.5755
L291.016 93.5755
z
" style="fill:#40cf40;"/>
   </g>
   <g id="patch_93">
    <path clip-path="url(#p6a4ae4428d)" d="
M296.064 106.888
L297.759 106.888
L297.759 95.1416
L296.064 95.1416
z
" style="fill:#4daf4a;"/>
   </g>
   <g id="patch_94">
    <path clip-path="url(#p6a4ae4428d)" d="
M297.774 105.321
L302.75 105.321
L302.75 93.5755
L297.774 93.5755
z
" style="fill:#40cf40;"/>
   </g>
   <g id="patch_95">
    <path clip-path="url(#p6a4ae4428d)" d="
M302.759 106.888
L302.951 106.888
L302.951 95.1416
L302.759 95.1416
z
" style="fill:#4daf4a;"/>
   </g>
   <g id="patch_96">
    <path clip-path="url(#p6a4ae4428d)" d="
M303.025 105.321
L303.142 105.321
L303.142 93.5755
L303.025 93.5755
z
" style="fill:#40cf40;"/>
   </g>
   <g id="patch_97">
    <path clip-path="url(#p6a4ae4428d)" d="
M303.144 106.888
L308.038 106.888
L308.038 95.1416
L303.144 95.1416
z
" style="fill:#4daf4a;"/>
   </g>
   <g id="patch_98">
    <path clip-path="url(#p6a4ae4428d)" d="
M308.171 105.321
L308.37 105.321
L308.37 93.5755
L308.171 93.5755
z
" style="fill:#40cf40;"/>
   </g>
   <g id="patch_99">
    <path clip-path="url(#p6a4ae4428d)" d="
M308.42 106.888
L311.289 106.888
L311.289 95.1416
L308.42 95.1416
z
" style="fill:#4daf4a;"/>
   </g>
   <g id="patch_100">
    <path clip-path="url(#p6a4ae4428d)" d="
M311.31 105.321
L314.896 105.321
L314.896 93.5755
L311.31 93.5755
z
" style="fill:#40cf40;"/>
   </g>
   <g id="patch_101">
    <path clip-path="url(#p6a4ae4428d)" d="
M314.915 106.888
L316.955 106.888
L316.955 95.1416
L314.915 95.1416
z
" style="fill:#4daf4a;"/>
   </g>
   <g id="patch_102">
    <path clip-path="url(#p6a4ae4428d)" d="
M316.995 105.321
L317.707 105.321
L317.707 93.5755
L316.995 93.5755
z
" style="fill:#40cf40;"/>
   </g>
   <g id="patch_103">
    <path clip-path="url(#p6a4ae4428d)" d="
M317.73 109.628
L321.028 109.628
L321.028 97.8824
L317.73 97.8824
z
" style="fill:#e41a1c;"/>
   </g>
   <g id="patch_104">
    <path clip-path="url(#p6a4ae4428d)" d="
M321.031 105.321
L321.409 105.321
L321.409 93.5755
L321.031 93.5755
z
" style="fill:#40cf40;"/>
   </g>
   <g id="patch_105">
    <path clip-path="url(#p6a4ae4428d)" d="
M321.456 109.628
L322.832 109.628
L322.832 97.8824
L321.456 97.8824
z
" style="fill:#e41a1c;"/>
   </g>
   <g id="patch_106">
    <path clip-path="url(#p6a4ae4428d)" d="
M322.832 105.321
L324.596 105.321
L324.596 93.5755
L322.832 93.5755
z
" style="fill:#40cf40;"/>
   </g>
   <g id="patch_107">
    <path clip-path="url(#p6a4ae4428d)" d="
M324.615 106.888
L328.048 106.888
L328.048 95.1416
L324.615 95.1416
z
" style="fill:#4daf4a;"/>
   </g>
   <g id="patch_108">
    <path clip-path="url(#p6a4ae4428d)" d="
M328.155 105.321
L330.065 105.321
L330.065 93.5755
L328.155 93.5755
z
" style="fill:#40cf40;"/>
   </g>
   <g id="patch_109">
    <path clip-path="url(#p6a4ae4428d)" d="
M330.124 106.888
L331.528 106.888
L331.528 95.1416
L330.124 95.1416
z
" style="fill:#4daf4a;"/>
   </g>
   <g id="patch_110">
    <path clip-path="url(#p6a4ae4428d)" d="
M331.655 105.321
L332.349 105.321
L332.349 93.5755
L331.655 93.5755
z
" style="fill:#40cf40;"/>
   </g>
   <g id="patch_111">
    <path clip-path="url(#p6a4ae4428d)" d="
M332.378 106.888
L332.77 106.888
L332.77 95.1416
L332.378 95.1416
z
" style="fill:#4daf4a;"/>
   </g>
   <g id="patch_112">
    <path clip-path="url(#p6a4ae4428d)" d="
M332.789 105.321
L333.688 105.321
L333.688 93.5755
L332.789 93.5755
z
" style="fill:#40cf40;"/>
   </g>
   <g id="patch_113">
    <path clip-path="url(#p6a4ae4428d)" d="
M333.706 106.888
L336.189 106.888
L336.189 95.1416
L333.706 95.1416
z
" style="fill:#4daf4a;"/>
   </g>
   <g id="patch_114">
    <path clip-path="url(#p6a4ae4428d)" d="
M336.2 105.321
L337.987 105.321
L337.987 93.5755
L336.2 93.5755
z
" style="fill:#40cf40;"/>
   </g>
   <g id="patch_115">
    <path clip-path="url(#p6a4ae4428d)" d="
M338.007 106.888
L338.183 106.888
L338.183 95.1416
L338.007 95.1416
z
" style="fill:#4daf4a;"/>
   </g>
   <g id="patch_116">
    <path clip-path="url(#p6a4ae4428d)" d="
M338.219 105.321
L340.141 105.321
L340.141 93.5755
L338.219 93.5755
z
" style="fill:#40cf40;"/>
   </g>
   <g id="patch_117">
    <path clip-path="url(#p6a4ae4428d)" d="
M340.141 106.888
L342.577 106.888
L342.577 95.1416
L340.141 95.1416
z
" style="fill:#4daf4a;"/>
   </g>
   <g id="patch_118">
    <path clip-path="url(#p6a4ae4428d)" d="
M342.703 105.321
L343.65 105.321
L343.65 93.5755
L342.703 93.5755
z
" style="fill:#40cf40;"/>
   </g>
   <g id="patch_119">
    <path clip-path="url(#p6a4ae4428d)" d="
M343.666 106.888
L344.161 106.888
L344.161 95.1416
L343.666 95.1416
z
" style="fill:#4daf4a;"/>
   </g>
   <g id="patch_120">
    <path clip-path="url(#p6a4ae4428d)" d="
M344.182 105.321
L345.098 105.321
L345.098 93.5755
L344.182 93.5755
z
" style="fill:#40cf40;"/>
   </g>
   <g id="patch_121">
    <path clip-path="url(#p6a4ae4428d)" d="
M345.099 106.888
L345.691 106.888
L345.691 95.1416
L345.099 95.1416
z
" style="fill:#4daf4a;"/>
   </g>
   <g id="patch_122">
    <path clip-path="url(#p6a4ae4428d)" d="
M345.716 105.321
L346.207 105.321
L346.207 93.5755
L345.716 93.5755
z
" style="fill:#40cf40;"/>
   </g>
   <g id="patch_123">
    <path clip-path="url(#p6a4ae4428d)" d="
M346.402 106.888
L346.514 106.888
L346.514 95.1416
L346.402 95.1416
z
" style="fill:#4daf4a;"/>
   </g>
   <g id="patch_124">
    <path clip-path="url(#p6a4ae4428d)" d="
M346.552 105.321
L346.784 105.321
L346.784 93.5755
L346.552 93.5755
z
" style="fill:#40cf40;"/>
   </g>
   <g id="patch_125">
    <path clip-path="url(#p6a4ae4428d)" d="
M346.994 106.888
L350.626 106.888
L350.626 95.1416
L346.994 95.1416
z
" style="fill:#4daf4a;"/>
   </g>
   <g id="patch_126">
    <path clip-path="url(#p6a4ae4428d)" d="
M350.693 105.321
L350.803 105.321
L350.803 93.5755
L350.693 93.5755
z
" style="fill:#40cf40;"/>
   </g>
   <g id="patch_127">
    <path clip-path="url(#p6a4ae4428d)" d="
M351.183 106.888
L355.825 106.888
L355.825 95.1416
L351.183 95.1416
z
" style="fill:#4daf4a;"/>
   </g>
   <g id="patch_128">
    <path clip-path="url(#p6a4ae4428d)" d="
M355.842 105.321
L356.164 105.321
L356.164 93.5755
L355.842 93.5755
z
" style="fill:#40cf40;"/>
   </g>
   <g id="patch_129">
    <path clip-path="url(#p6a4ae4428d)" d="
M356.168 106.888
L357.698 106.888
L357.698 95.1416
L356.168 95.1416
z
" style="fill:#4daf4a;"/>
   </g>
   <g id="patch_130">
    <path clip-path="url(#p6a4ae4428d)" d="
M357.85 105.321
L358.197 105.321
L358.197 93.5755
L357.85 93.5755
z
" style="fill:#40cf40;"/>
   </g>
   <g id="patch_131">
    <path clip-path="url(#p6a4ae4428d)" d="
M358.232 109.628
L360.055 109.628
L360.055 97.8824
L358.232 97.8824
z
" style="fill:#e41a1c;"/>
   </g>
   <g id="patch_132">
    <path clip-path="url(#p6a4ae4428d)" d="
M360.055 105.321
L360.422 105.321
L360.422 93.5755
L360.055 93.5755
z
" style="fill:#40cf40;"/>
   </g>
   <g id="patch_133">
    <path clip-path="url(#p6a4ae4428d)" d="
M360.442 106.888
L362.561 106.888
L362.561 95.1416
L360.442 95.1416
z
" style="fill:#4daf4a;"/>
   </g>
   <g id="patch_134">
    <path clip-path="url(#p6a4ae4428d)" d="
M362.698 105.321
L365.198 105.321
L365.198 93.5755
L362.698 93.5755
z
" style="fill:#40cf40;"/>
   </g>
   <g id="patch_135">
    <path clip-path="url(#p6a4ae4428d)" d="
M365.217 106.888
L369.862 106.888
L369.862 95.1416
L365.217 95.1416
z
" style="fill:#4daf4a;"/>
   </g>
   <g id="patch_136">
    <path clip-path="url(#p6a4ae4428d)" d="
M369.979 105.321
L370.136 105.321
L370.136 93.5755
L369.979 93.5755
z
" style="fill:#40cf40;"/>
   </g>
   <g id="patch_137">
    <path clip-path="url(#p6a4ae4428d)" d="
M370.136 106.888
L370.195 106.888
L370.195 95.1416
L370.136 95.1416
z
" style="fill:#4daf4a;"/>
   </g>
   <g id="patch_138">
    <path clip-path="url(#p6a4ae4428d)" d="
M370.22 105.321
L371.718 105.321
L371.718 93.5755
L370.22 93.5755
z
" style="fill:#40cf40;"/>
   </g>
   <g id="patch_139">
    <path clip-path="url(#p6a4ae4428d)" d="
M371.808 106.888
L372.129 106.888
L372.129 95.1416
L371.808 95.1416
z
" style="fill:#4daf4a;"/>
   </g>
   <g id="patch_140">
    <path clip-path="url(#p6a4ae4428d)" d="
M372.133 105.321
L372.207 105.321
L372.207 93.5755
L372.133 93.5755
z
" style="fill:#40cf40;"/>
   </g>
   <g id="patch_141">
    <path clip-path="url(#p6a4ae4428d)" d="
M372.216 106.888
L373.138 106.888
L373.138 95.1416
L372.216 95.1416
z
" style="fill:#4daf4a;"/>
   </g>
   <g id="patch_142">
    <path clip-path="url(#p6a4ae4428d)" d="
M373.141 105.321
L378.355 105.321
L378.355 93.5755
L373.141 93.5755
z
" style="fill:#40cf40;"/>
   </g>
   <g id="patch_143">
    <path clip-path="url(#p6a4ae4428d)" d="
M378.37 106.888
L383.395 106.888
L383.395 95.1416
L378.37 95.1416
z
" style="fill:#4daf4a;"/>
   </g>
   <g id="patch_144">
    <path clip-path="url(#p6a4ae4428d)" d="
M383.412 105.321
L387.413 105.321
L387.413 93.5755
L383.412 93.5755
z
" style="fill:#40cf40;"/>
   </g>
   <g id="patch_145">
    <path clip-path="url(#p6a4ae4428d)" d="
M387.43 106.888
L395.362 106.888
L395.362 95.1416
L387.43 95.1416
z
" style="fill:#4daf4a;"/>
   </g>
   <g id="patch_146">
    <path clip-path="url(#p6a4ae4428d)" d="
M395.363 105.321
L396.857 105.321
L396.857 93.5755
L395.363 93.5755
z
" style="fill:#40cf40;"/>
   </g>
   <g id="patch_147">
    <path clip-path="url(#p6a4ae4428d)" d="
M396.871 106.888
L399.901 106.888
L399.901 95.1416
L396.871 95.1416
z
" style="fill:#4daf4a;"/>
   </g>
   <g id="patch_148">
    <path clip-path="url(#p6a4ae4428d)" d="
M399.912 105.321
L406.7 105.321
L406.7 93.5755
L399.912 93.5755
z
" style="fill:#40cf40;"/>
   </g>
   <g id="patch_149">
    <path clip-path="url(#p6a4ae4428d)" d="
M406.708 106.888
L409.235 106.888
L409.235 95.1416
L406.708 95.1416
z
" style="fill:#4daf4a;"/>
   </g>
   <g id="patch_150">
    <path clip-path="url(#p6a4ae4428d)" d="
M409.314 105.321
L411.904 105.321
L411.904 93.5755
L409.314 93.5755
z
" style="fill:#40cf40;"/>
   </g>
   <g id="patch_151">
    <path clip-path="url(#p6a4ae4428d)" d="
M411.923 106.888
L415.808 106.888
L415.808 95.1416
L411.923 95.1416
z
" style="fill:#4daf4a;"/>
   </g>
   <g id="patch_152">
    <path clip-path="url(#p6a4ae4428d)" d="
M415.829 105.321
L416.794 105.321
L416.794 93.5755
L415.829 93.5755
z
" style="fill:#40cf40;"/>
   </g>
   <g id="patch_153">
    <path clip-path="url(#p6a4ae4428d)" d="
M416.794 109.628
L418.344 109.628
L418.344 97.8824
L416.794 97.8824
z
" style="fill:#e41a1c;"/>
   </g>
   <g id="patch_154">
    <path clip-path="url(#p6a4ae4428d)" d="
M418.344 108.062
L418.814 108.062
L418.814 96.3162
L418.344 96.3162
z
" style="fill:#b82525;"/>
   </g>
   <g id="patch_155">
    <path clip-path="url(#p6a4ae4428d)" d="
M418.823 106.888
L419.098 106.888
L419.098 95.1416
L418.823 95.1416
z
" style="fill:#4daf4a;"/>
   </g>
   <g id="patch_156">
    <path clip-path="url(#p6a4ae4428d)" d="
M419.109 105.321
L419.269 105.321
L419.269 93.5755
L419.109 93.5755
z
" style="fill:#40cf40;"/>
   </g>
   <g id="patch_157">
    <path clip-path="url(#p6a4ae4428d)" d="
M419.408 106.888
L419.538 106.888
L419.538 95.1416
L419.408 95.1416
z
" style="fill:#4daf4a;"/>
   </g>
   <g id="patch_158">
    <path clip-path="url(#p6a4ae4428d)" d="
M419.729 105.321
L423.2 105.321
L423.2 93.5755
L419.729 93.5755
z
" style="fill:#40cf40;"/>
   </g>
   <g id="patch_159">
    <path clip-path="url(#p6a4ae4428d)" d="
M423.2 106.888
L423.323 106.888
L423.323 95.1416
L423.2 95.1416
z
" style="fill:#4daf4a;"/>
   </g>
   <g id="patch_160">
    <path clip-path="url(#p6a4ae4428d)" d="
M423.47 105.321
L423.881 105.321
L423.881 93.5755
L423.47 93.5755
z
" style="fill:#40cf40;"/>
   </g>
   <g id="patch_161">
    <path clip-path="url(#p6a4ae4428d)" d="
M423.881 106.888
L426.958 106.888
L426.958 95.1416
L423.881 95.1416
z
" style="fill:#4daf4a;"/>
   </g>
   <g id="patch_162">
    <path clip-path="url(#p6a4ae4428d)" d="
M426.982 105.321
L428.36 105.321
L428.36 93.5755
L426.982 93.5755
z
" style="fill:#40cf40;"/>
   </g>
   <g id="patch_163">
    <path clip-path="url(#p6a4ae4428d)" d="
M428.372 106.888
L428.789 106.888
L428.789 95.1416
L428.372 95.1416
z
" style="fill:#4daf4a;"/>
   </g>
   <g id="patch_164">
    <path clip-path="url(#p6a4ae4428d)" d="
M428.789 105.321
L430.196 105.321
L430.196 93.5755
L428.789 93.5755
z
" style="fill:#40cf40;"/>
   </g>
   <g id="patch_165">
    <path clip-path="url(#p6a4ae4428d)" d="
M430.217 106.888
L431.311 106.888
L431.311 95.1416
L430.217 95.1416
z
" style="fill:#4daf4a;"/>
   </g>
   <g id="patch_166">
    <path clip-path="url(#p6a4ae4428d)" d="
M431.311 105.321
L435.871 105.321
L435.871 93.5755
L431.311 93.5755
z
" style="fill:#40cf40;"/>
   </g>
   <g id="patch_167">
    <path clip-path="url(#p6a4ae4428d)" d="
M435.872 106.888
L436.506 106.888
L436.506 95.1416
L435.872 95.1416
z
" style="fill:#4daf4a;"/>
   </g>
   <g id="patch_168">
    <path clip-path="url(#p6a4ae4428d)" d="
M436.528 105.321
L437.941 105.321
L437.941 93.5755
L436.528 93.5755
z
" style="fill:#40cf40;"/>
   </g>
   <g id="patch_169">
    <path clip-path="url(#p6a4ae4428d)" d="
M437.941 106.888
L444.668 106.888
L444.668 95.1416
L437.941 95.1416
z
" style="fill:#4daf4a;"/>
   </g>
   <g id="patch_170">
    <path clip-path="url(#p6a4ae4428d)" d="
M444.888 105.321
L446.568 105.321
L446.568 93.5755
L444.888 93.5755
z
" style="fill:#40cf40;"/>
   </g>
   <g id="patch_171">
    <path clip-path="url(#p6a4ae4428d)" d="
M446.594 106.888
L448.167 106.888
L448.167 95.1416
L446.594 95.1416
z
" style="fill:#4daf4a;"/>
   </g>
   <g id="patch_172">
    <path clip-path="url(#p6a4ae4428d)" d="
M448.178 105.321
L452.625 105.321
L452.625 93.5755
L448.178 93.5755
z
" style="fill:#40cf40;"/>
   </g>
   <g id="patch_173">
    <path clip-path="url(#p6a4ae4428d)" d="
M452.658 106.888
L458.197 106.888
L458.197 95.1416
L452.658 95.1416
z
" style="fill:#4daf4a;"/>
   </g>
   <g id="patch_174">
    <path clip-path="url(#p6a4ae4428d)" d="
M458.212 105.321
L460.988 105.321
L460.988 93.5755
L458.212 93.5755
z
" style="fill:#40cf40;"/>
   </g>
   <g id="patch_175">
    <path clip-path="url(#p6a4ae4428d)" d="
M461.008 106.888
L462.705 106.888
L462.705 95.1416
L461.008 95.1416
z
" style="fill:#4daf4a;"/>
   </g>
   <g id="patch_176">
    <path clip-path="url(#p6a4ae4428d)" d="
M462.724 105.321
L465.58 105.321
L465.58 93.5755
L462.724 93.5755
z
" style="fill:#40cf40;"/>
   </g>
   <g id="patch_177">
    <path clip-path="url(#p6a4ae4428d)" d="
M465.609 109.628
L465.696 109.628
L465.696 97.8824
L465.609 97.8824
z
" style="fill:#e41a1c;"/>
   </g>
   <g id="patch_178">
    <path clip-path="url(#p6a4ae4428d)" d="
M465.721 105.321
L468.584 105.321
L468.584 93.5755
L465.721 93.5755
z
" style="fill:#40cf40;"/>
   </g>
   <g id="patch_179">
    <path clip-path="url(#p6a4ae4428d)" d="
M468.605 109.628
L470.703 109.628
L470.703 97.8824
L468.605 97.8824
z
" style="fill:#e41a1c;"/>
   </g>
   <g id="patch_180">
    <path clip-path="url(#p6a4ae4428d)" d="
M470.703 105.321
L470.978 105.321
L470.978 93.5755
L470.703 93.5755
z
" style="fill:#40cf40;"/>
   </g>
   <g id="patch_181">
    <path clip-path="url(#p6a4ae4428d)" d="
M470.992 106.888
L471.314 106.888
L471.314 95.1416
L470.992 95.1416
z
" style="fill:#4daf4a;"/>
   </g>
   <g id="patch_182">
    <path clip-path="url(#p6a4ae4428d)" d="
M471.401 105.321
L473.049 105.321
L473.049 93.5755
L471.401 93.5755
z
" style="fill:#40cf40;"/>
   </g>
   <g id="patch_183">
    <path clip-path="url(#p6a4ae4428d)" d="
M473.062 106.888
L473.329 106.888
L473.329 95.1416
L473.062 95.1416
z
" style="fill:#4daf4a;"/>
   </g>
   <g id="patch_184">
    <path clip-path="url(#p6a4ae4428d)" d="
M473.333 105.321
L474.219 105.321
L474.219 93.5755
L473.333 93.5755
z
" style="fill:#40cf40;"/>
   </g>
   <g id="patch_185">
    <path clip-path="url(#p6a4ae4428d)" d="
M474.231 106.888
L475.137 106.888
L475.137 95.1416
L474.231 95.1416
z
" style="fill:#4daf4a;"/>
   </g>
   <g id="patch_186">
    <path clip-path="url(#p6a4ae4428d)" d="
M475.159 105.321
L476.699 105.321
L476.699 93.5755
L475.159 93.5755
z
" style="fill:#40cf40;"/>
   </g>
   <g id="patch_187">
    <path clip-path="url(#p6a4ae4428d)" d="
M476.729 106.888
L479.547 106.888
L479.547 95.1416
L476.729 95.1416
z
" style="fill:#4daf4a;"/>
   </g>
   <g id="patch_188">
    <path clip-path="url(#p6a4ae4428d)" d="
M479.57 105.321
L483.88 105.321
L483.88 93.5755
L479.57 93.5755
z
" style="fill:#40cf40;"/>
   </g>
   <g id="patch_189">
    <path clip-path="url(#p6a4ae4428d)" d="
M483.894 106.888
L487.479 106.888
L487.479 95.1416
L483.894 95.1416
z
" style="fill:#4daf4a;"/>
   </g>
   <g id="patch_190">
    <path clip-path="url(#p6a4ae4428d)" d="
M487.518 105.321
L488.248 105.321
L488.248 93.5755
L487.518 93.5755
z
" style="fill:#40cf40;"/>
   </g>
   <g id="patch_191">
    <path clip-path="url(#p6a4ae4428d)" d="
M488.267 106.888
L494.786 106.888
L494.786 95.1416
L488.267 95.1416
z
" style="fill:#4daf4a;"/>
   </g>
   <g id="patch_192">
    <path clip-path="url(#p6a4ae4428d)" d="
M495.403 105.321
L497.831 105.321
L497.831 93.5755
L495.403 93.5755
z
" style="fill:#40cf40;"/>
   </g>
   <g id="patch_193">
    <path clip-path="url(#p6a4ae4428d)" d="
M497.838 106.888
L499.716 106.888
L499.716 95.1416
L497.838 95.1416
z
" style="fill:#4daf4a;"/>
   </g>
   <g id="patch_194">
    <path clip-path="url(#p6a4ae4428d)" d="
M499.716 108.062
L500.266 108.062
L500.266 96.3162
L499.716 96.3162
z
" style="fill:#b82525;"/>
   </g>
   <g id="patch_195">
    <path clip-path="url(#p6a4ae4428d)" d="
M500.282 106.888
L500.529 106.888
L500.529 95.1416
L500.282 95.1416
z
" style="fill:#4daf4a;"/>
   </g>
   <g id="patch_196">
    <path clip-path="url(#p6a4ae4428d)" d="
M500.541 105.321
L500.757 105.321
L500.757 93.5755
L500.541 93.5755
z
" style="fill:#40cf40;"/>
   </g>
   <g id="patch_197">
    <path clip-path="url(#p6a4ae4428d)" d="
M500.784 109.628
L501.275 109.628
L501.275 97.8824
L500.784 97.8824
z
" style="fill:#e41a1c;"/>
   </g>
   <g id="patch_198">
    <path clip-path="url(#p6a4ae4428d)" d="
M501.304 108.062
L501.619 108.062
L501.619 96.3162
L501.304 96.3162
z
" style="fill:#b82525;"/>
   </g>
   <g id="patch_199">
    <path clip-path="url(#p6a4ae4428d)" d="
M501.621 106.888
L505.324 106.888
L505.324 95.1416
L501.621 95.1416
z
" style="fill:#4daf4a;"/>
   </g>
   <g id="patch_200">
    <path clip-path="url(#p6a4ae4428d)" d="
M505.37 105.321
L507.283 105.321
L507.283 93.5755
L505.37 93.5755
z
" style="fill:#40cf40;"/>
   </g>
   <g id="patch_201">
    <path clip-path="url(#p6a4ae4428d)" d="
M507.295 106.888
L507.719 106.888
L507.719 95.1416
L507.295 95.1416
z
" style="fill:#4daf4a;"/>
   </g>
   <g id="patch_202">
    <path clip-path="url(#p6a4ae4428d)" d="
M507.74 105.321
L511.724 105.321
L511.724 93.5755
L507.74 93.5755
z
" style="fill:#40cf40;"/>
   </g>
   <g id="patch_203">
    <path clip-path="url(#p6a4ae4428d)" d="
M511.734 109.628
L516.987 109.628
L516.987 97.8824
L511.734 97.8824
z
" style="fill:#e41a1c;"/>
   </g>
   <g id="patch_204">
    <path clip-path="url(#p6a4ae4428d)" d="
M516.987 108.062
L519.417 108.062
L519.417 96.3162
L516.987 96.3162
z
" style="fill:#b82525;"/>
   </g>
   <g id="patch_205">
    <path clip-path="url(#p6a4ae4428d)" d="
M519.417 109.628
L520.128 109.628
L520.128 97.8824
L519.417 97.8824
z
" style="fill:#e41a1c;"/>
   </g>
   <g id="patch_206">
    <path clip-path="url(#p6a4ae4428d)" d="
M520.147 105.321
L520.571 105.321
L520.571 93.5755
L520.147 93.5755
z
" style="fill:#40cf40;"/>
   </g>
   <g id="patch_207">
    <path clip-path="url(#p6a4ae4428d)" d="
M520.59 106.888
L525.727 106.888
L525.727 95.1416
L520.59 95.1416
z
" style="fill:#4daf4a;"/>
   </g>
   <g id="patch_208">
    <path clip-path="url(#p6a4ae4428d)" d="
M525.869 105.321
L527.084 105.321
L527.084 93.5755
L525.869 93.5755
z
" style="fill:#40cf40;"/>
   </g>
   <g id="patch_209">
    <path clip-path="url(#p6a4ae4428d)" d="
M527.094 106.888
L527.557 106.888
L527.557 95.1416
L527.094 95.1416
z
" style="fill:#4daf4a;"/>
   </g>
   <g id="patch_210">
    <path clip-path="url(#p6a4ae4428d)" d="
M527.619 105.321
L529.65 105.321
L529.65 93.5755
L527.619 93.5755
z
" style="fill:#40cf40;"/>
   </g>
   <g id="patch_211">
    <path clip-path="url(#p6a4ae4428d)" d="
M529.663 106.888
L530.984 106.888
L530.984 95.1416
L529.663 95.1416
z
" style="fill:#4daf4a;"/>
   </g>
   <g id="patch_212">
    <path clip-path="url(#p6a4ae4428d)" d="
M531.021 105.321
L532.109 105.321
L532.109 93.5755
L531.021 93.5755
z
" style="fill:#40cf40;"/>
   </g>
   <g id="patch_213">
    <path clip-path="url(#p6a4ae4428d)" d="
M532.121 106.888
L534.162 106.888
L534.162 95.1416
L532.121 95.1416
z
" style="fill:#4daf4a;"/>
   </g>
   <g id="patch_214">
    <path clip-path="url(#p6a4ae4428d)" d="
M534.187 105.321
L535.382 105.321
L535.382 93.5755
L534.187 93.5755
z
" style="fill:#40cf40;"/>
   </g>
   <g id="patch_215">
    <path clip-path="url(#p6a4ae4428d)" d="
M535.396 106.888
L537.731 106.888
L537.731 95.1416
L535.396 95.1416
z
" style="fill:#4daf4a;"/>
   </g>
   <g id="patch_216">
    <path clip-path="url(#p6a4ae4428d)" d="
M537.748 105.321
L538.772 105.321
L538.772 93.5755
L537.748 93.5755
z
" style="fill:#40cf40;"/>
   </g>
   <g id="patch_217">
    <path clip-path="url(#p6a4ae4428d)" d="
M538.777 109.628
L539.204 109.628
L539.204 97.8824
L538.777 97.8824
z
" style="fill:#e41a1c;"/>
   </g>
   <g id="patch_218">
    <path clip-path="url(#p6a4ae4428d)" d="
M539.243 105.321
L541.036 105.321
L541.036 93.5755
L539.243 93.5755
z
" style="fill:#40cf40;"/>
   </g>
   <g id="patch_219">
    <path clip-path="url(#p6a4ae4428d)" d="
M541.163 106.888
L542.12 106.888
L542.12 95.1416
L541.163 95.1416
z
" style="fill:#4daf4a;"/>
   </g>
   <g id="patch_220">
    <path clip-path="url(#p6a4ae4428d)" d="
M542.151 105.321
L547.441 105.321
L547.441 93.5755
L542.151 93.5755
z
" style="fill:#40cf40;"/>
   </g>
   <g id="patch_221">
    <path clip-path="url(#p6a4ae4428d)" d="
M547.581 106.888
L548.386 106.888
L548.386 95.1416
L547.581 95.1416
z
" style="fill:#4daf4a;"/>
   </g>
   <g id="patch_222">
    <path clip-path="url(#p6a4ae4428d)" d="
M548.416 105.321
L549.189 105.321
L549.189 93.5755
L548.416 93.5755
z
" style="fill:#40cf40;"/>
   </g>
   <g id="patch_223">
    <path clip-path="url(#p6a4ae4428d)" d="
M549.209 106.888
L550.259 106.888
L550.259 95.1416
L549.209 95.1416
z
" style="fill:#4daf4a;"/>
   </g>
   <g id="patch_224">
    <path clip-path="url(#p6a4ae4428d)" d="
M550.269 108.062
L550.82 108.062
L550.82 96.3162
L550.269 96.3162
z
" style="fill:#b82525;"/>
   </g>
   <g id="patch_225">
    <path clip-path="url(#p6a4ae4428d)" d="
M550.82 106.888
L552.609 106.888
L552.609 95.1416
L550.82 95.1416
z
" style="fill:#4daf4a;"/>
   </g>
   <g id="patch_226">
    <path clip-path="url(#p6a4ae4428d)" d="
M552.638 105.321
L555.894 105.321
L555.894 93.5755
L552.638 93.5755
z
" style="fill:#40cf40;"/>
   </g>
   <g id="patch_227">
    <path clip-path="url(#p6a4ae4428d)" d="
M555.909 106.888
L557.03 106.888
L557.03 95.1416
L555.909 95.1416
z
" style="fill:#4daf4a;"/>
   </g>
   <g id="patch_228">
    <path clip-path="url(#p6a4ae4428d)" d="
M557.048 108.062
L562.564 108.062
L562.564 96.3162
L557.048 96.3162
z
" style="fill:#b82525;"/>
   </g>
   <g id="patch_229">
    <path clip-path="url(#p6a4ae4428d)" d="
M562.564 106.888
L566.816 106.888
L566.816 95.1416
L562.564 95.1416
z
" style="fill:#4daf4a;"/>
   </g>
   <g id="patch_230">
    <path clip-path="url(#p6a4ae4428d)" d="
M566.816 105.321
L567.979 105.321
L567.979 93.5755
L566.816 93.5755
z
" style="fill:#40cf40;"/>
   </g>
   <g id="patch_231">
    <path clip-path="url(#p6a4ae4428d)" d="
M568.104 106.888
L571.022 106.888
L571.022 95.1416
L568.104 95.1416
z
" style="fill:#4daf4a;"/>
   </g>
   <g id="patch_232">
    <path clip-path="url(#p6a4ae4428d)" d="
M571.036 105.321
L571.078 105.321
L571.078 93.5755
L571.036 93.5755
z
" style="fill:#40cf40;"/>
   </g>
   <g id="patch_233">
    <path clip-path="url(#p6a4ae4428d)" d="
M571.078 106.888
L574.583 106.888
L574.583 95.1416
L571.078 95.1416
z
" style="fill:#4daf4a;"/>
   </g>
   <g id="patch_234">
    <path clip-path="url(#p6a4ae4428d)" d="
M575.218 105.321
L578.262 105.321
L578.262 93.5755
L575.218 93.5755
z
" style="fill:#40cf40;"/>
   </g>
   <g id="patch_235">
    <path clip-path="url(#p6a4ae4428d)" d="
M578.272 106.888
L579.089 106.888
L579.089 95.1416
L578.272 95.1416
z
" style="fill:#4daf4a;"/>
   </g>
   <g id="patch_236">
    <path clip-path="url(#p6a4ae4428d)" d="
M579.135 105.321
L580.063 105.321
L580.063 93.5755
L579.135 93.5755
z
" style="fill:#40cf40;"/>
   </g>
   <g id="patch_237">
    <path clip-path="url(#p6a4ae4428d)" d="
M580.063 106.888
L582.342 106.888
L582.342 95.1416
L580.063 95.1416
z
" style="fill:#4daf4a;"/>
   </g>
   <g id="patch_238">
    <path clip-path="url(#p6a4ae4428d)" d="
M582.342 105.321
L586.442 105.321
L586.442 93.5755
L582.342 93.5755
z
" style="fill:#40cf40;"/>
   </g>
   <g id="patch_239">
    <path clip-path="url(#p6a4ae4428d)" d="
M586.442 106.888
L587.459 106.888
L587.459 95.1416
L586.442 95.1416
z
" style="fill:#4daf4a;"/>
   </g>
   <g id="patch_240">
    <path clip-path="url(#p6a4ae4428d)" d="
M587.48 105.321
L587.684 105.321
L587.684 93.5755
L587.48 93.5755
z
" style="fill:#40cf40;"/>
   </g>
   <g id="patch_241">
    <path clip-path="url(#p6a4ae4428d)" d="
M587.7 106.888
L588.816 106.888
L588.816 95.1416
L587.7 95.1416
z
" style="fill:#4daf4a;"/>
   </g>
   <g id="patch_242">
    <path clip-path="url(#p6a4ae4428d)" d="
M588.828 105.321
L590.624 105.321
L590.624 93.5755
L588.828 93.5755
z
" style="fill:#40cf40;"/>
   </g>
   <g id="patch_243">
    <path clip-path="url(#p6a4ae4428d)" d="
M590.65 106.888
L592.881 106.888
L592.881 95.1416
L590.65 95.1416
z
" style="fill:#4daf4a;"/>
   </g>
   <g id="patch_244">
    <path clip-path="url(#p6a4ae4428d)" d="
M592.908 105.321
L592.996 105.321
L592.996 93.5755
L592.908 93.5755
z
" style="fill:#40cf40;"/>
   </g>
   <g id="patch_245">
    <path clip-path="url(#p6a4ae4428d)" d="
M592.996 106.888
L593.196 106.888
L593.196 95.1416
L592.996 95.1416
z
" style="fill:#4daf4a;"/>
   </g>
   <g id="patch_246">
    <path clip-path="url(#p6a4ae4428d)" d="
M593.231 105.321
L596.559 105.321
L596.559 93.5755
L593.231 93.5755
z
" style="fill:#40cf40;"/>
   </g>
   <g id="patch_247">
    <path clip-path="url(#p6a4ae4428d)" d="
M596.58 106.888
L596.992 106.888
L596.992 95.1416
L596.58 95.1416
z
" style="fill:#4daf4a;"/>
   </g>
   <g id="patch_248">
    <path clip-path="url(#p6a4ae4428d)" d="
M597.429 105.321
L597.489 105.321
L597.489 93.5755
L597.429 93.5755
z
" style="fill:#40cf40;"/>
   </g>
   <g id="patch_249">
    <path clip-path="url(#p6a4ae4428d)" d="
M597.715 106.888
L600.76 106.888
L600.76 95.1416
L597.715 95.1416
z
" style="fill:#4daf4a;"/>
   </g>
   <g id="patch_250">
    <path clip-path="url(#p6a4ae4428d)" d="
M600.891 105.321
L601.243 105.321
L601.243 93.5755
L600.891 93.5755
z
" style="fill:#40cf40;"/>
   </g>
   <g id="patch_251">
    <path clip-path="url(#p6a4ae4428d)" d="
M601.248 106.888
L602.063 106.888
L602.063 95.1416
L601.248 95.1416
z
" style="fill:#4daf4a;"/>
   </g>
   <g id="patch_252">
    <path clip-path="url(#p6a4ae4428d)" d="
M602.066 105.321
L606.265 105.321
L606.265 93.5755
L602.066 93.5755
z
" style="fill:#40cf40;"/>
   </g>
   <g id="patch_253">
    <path clip-path="url(#p6a4ae4428d)" d="
M606.274 106.888
L606.784 106.888
L606.784 95.1416
L606.274 95.1416
z
" style="fill:#4daf4a;"/>
   </g>
   <g id="patch_254">
    <path clip-path="url(#p6a4ae4428d)" d="
M606.805 105.321
L607.206 105.321
L607.206 93.5755
L606.805 93.5755
z
" style="fill:#40cf40;"/>
   </g>
   <g id="patch_255">
    <path clip-path="url(#p6a4ae4428d)" d="
M607.225 106.888
L608.654 106.888
L608.654 95.1416
L607.225 95.1416
z
" style="fill:#4daf4a;"/>
   </g>
   <g id="patch_256">
    <path clip-path="url(#p6a4ae4428d)" d="
M608.672 105.321
L610.17 105.321
L610.17 93.5755
L608.672 93.5755
z
" style="fill:#40cf40;"/>
   </g>
   <g id="patch_257">
    <path clip-path="url(#p6a4ae4428d)" d="
M610.193 106.888
L613.881 106.888
L613.881 95.1416
L610.193 95.1416
z
" style="fill:#4daf4a;"/>
   </g>
   <g id="patch_258">
    <path clip-path="url(#p6a4ae4428d)" d="
M614.04 105.321
L614.099 105.321
L614.099 93.5755
L614.04 93.5755
z
" style="fill:#40cf40;"/>
   </g>
   <g id="patch_259">
    <path clip-path="url(#p6a4ae4428d)" d="
M614.105 106.888
L614.69 106.888
L614.69 95.1416
L614.105 95.1416
z
" style="fill:#4daf4a;"/>
   </g>
   <g id="patch_260">
    <path clip-path="url(#p6a4ae4428d)" d="
M614.734 105.321
L617.988 105.321
L617.988 93.5755
L614.734 93.5755
z
" style="fill:#40cf40;"/>
   </g>
   <g id="patch_261">
    <path clip-path="url(#p6a4ae4428d)" d="
M617.988 106.888
L619.264 106.888
L619.264 95.1416
L617.988 95.1416
z
" style="fill:#4daf4a;"/>
   </g>
   <g id="patch_262">
    <path clip-path="url(#p6a4ae4428d)" d="
M619.287 105.321
L620.14 105.321
L620.14 93.5755
L619.287 93.5755
z
" style="fill:#40cf40;"/>
   </g>
   <g id="patch_263">
    <path clip-path="url(#p6a4ae4428d)" d="
M620.149 106.888
L625.348 106.888
L625.348 95.1416
L620.149 95.1416
z
" style="fill:#4daf4a;"/>
   </g>
   <g id="patch_264">
    <path clip-path="url(#p6a4ae4428d)" d="
M625.359 105.321
L626.434 105.321
L626.434 93.5755
L625.359 93.5755
z
" style="fill:#40cf40;"/>
   </g>
   <g id="patch_265">
    <path clip-path="url(#p6a4ae4428d)" d="
M626.458 106.888
L631.673 106.888
L631.673 95.1416
L626.458 95.1416
z
" style="fill:#4daf4a;"/>
   </g>
   <g id="patch_266">
    <path clip-path="url(#p6a4ae4428d)" d="
M631.686 105.321
L632.083 105.321
L632.083 93.5755
L631.686 93.5755
z
" style="fill:#40cf40;"/>
   </g>
   <g id="patch_267">
    <path clip-path="url(#p6a4ae4428d)" d="
M632.101 106.888
L633.127 106.888
L633.127 95.1416
L632.101 95.1416
z
" style="fill:#4daf4a;"/>
   </g>
   <g id="patch_268">
    <path clip-path="url(#p6a4ae4428d)" d="
M633.14 105.321
L633.455 105.321
L633.455 93.5755
L633.14 93.5755
z
" style="fill:#40cf40;"/>
   </g>
   <g id="patch_269">
    <path clip-path="url(#p6a4ae4428d)" d="
M633.456 106.888
L633.887 106.888
L633.887 95.1416
L633.456 95.1416
z
" style="fill:#4daf4a;"/>
   </g>
   <g id="patch_270">
    <path clip-path="url(#p6a4ae4428d)" d="
M634.126 105.321
L634.497 105.321
L634.497 93.5755
L634.126 93.5755
z
" style="fill:#40cf40;"/>
   </g>
   <g id="patch_271">
    <path clip-path="url(#p6a4ae4428d)" d="
M634.497 106.888
L635.387 106.888
L635.387 95.1416
L634.497 95.1416
z
" style="fill:#4daf4a;"/>
   </g>
   <g id="patch_272">
    <path clip-path="url(#p6a4ae4428d)" d="
M635.401 105.321
L635.674 105.321
L635.674 93.5755
L635.401 93.5755
z
" style="fill:#40cf40;"/>
   </g>
   <g id="patch_273">
    <path clip-path="url(#p6a4ae4428d)" d="
M635.7 106.888
L637.283 106.888
L637.283 95.1416
L635.7 95.1416
z
" style="fill:#4daf4a;"/>
   </g>
   <g id="patch_274">
    <path clip-path="url(#p6a4ae4428d)" d="
M637.283 105.321
L637.427 105.321
L637.427 93.5755
L637.283 93.5755
z
" style="fill:#40cf40;"/>
   </g>
   <g id="patch_275">
    <path clip-path="url(#p6a4ae4428d)" d="
M637.437 106.888
L641.068 106.888
L641.068 95.1416
L637.437 95.1416
z
" style="fill:#4daf4a;"/>
   </g>
   <g id="patch_276">
    <path clip-path="url(#p6a4ae4428d)" d="
M641.091 105.321
L643.473 105.321
L643.473 93.5755
L641.091 93.5755
z
" style="fill:#40cf40;"/>
   </g>
   <g id="patch_277">
    <path clip-path="url(#p6a4ae4428d)" d="
M643.483 106.888
L643.716 106.888
L643.716 95.1416
L643.483 95.1416
z
" style="fill:#4daf4a;"/>
   </g>
   <g id="patch_278">
    <path clip-path="url(#p6a4ae4428d)" d="
M643.732 105.321
L644.613 105.321
L644.613 93.5755
L643.732 93.5755
z
" style="fill:#40cf40;"/>
   </g>
   <g id="patch_279">
    <path clip-path="url(#p6a4ae4428d)" d="
M644.632 106.888
L644.869 106.888
L644.869 95.1416
L644.632 95.1416
z
" style="fill:#4daf4a;"/>
   </g>
   <g id="patch_280">
    <path clip-path="url(#p6a4ae4428d)" d="
M645.246 105.321
L645.494 105.321
L645.494 93.5755
L645.246 93.5755
z
" style="fill:#40cf40;"/>
   </g>
   <g id="patch_281">
    <path clip-path="url(#p6a4ae4428d)" d="
M645.497 106.888
L647.142 106.888
L647.142 95.1416
L645.497 95.1416
z
" style="fill:#4daf4a;"/>
   </g>
   <g id="patch_282">
    <path clip-path="url(#p6a4ae4428d)" d="
M647.164 105.321
L647.815 105.321
L647.815 93.5755
L647.164 93.5755
z
" style="fill:#40cf40;"/>
   </g>
   <g id="patch_283">
    <path clip-path="url(#p6a4ae4428d)" d="
M647.906 106.888
L649.723 106.888
L649.723 95.1416
L647.906 95.1416
z
" style="fill:#4daf4a;"/>
   </g>
   <g id="patch_284">
    <path clip-path="url(#p6a4ae4428d)" d="
M649.756 108.062
L650.243 108.062
L650.243 96.3162
L649.756 96.3162
z
" style="fill:#b82525;"/>
   </g>
   <g id="patch_285">
    <path clip-path="url(#p6a4ae4428d)" d="
M650.335 106.888
L651.355 106.888
L651.355 95.1416
L650.335 95.1416
z
" style="fill:#4daf4a;"/>
   </g>
   <g id="patch_286">
    <path clip-path="url(#p6a4ae4428d)" d="
M651.377 108.062
L653.014 108.062
L653.014 96.3162
L651.377 96.3162
z
" style="fill:#b82525;"/>
   </g>
   <g id="patch_287">
    <path clip-path="url(#p6a4ae4428d)" d="
M653.028 106.888
L653.177 106.888
L653.177 95.1416
L653.028 95.1416
z
" style="fill:#4daf4a;"/>
   </g>
   <g id="patch_288">
    <path clip-path="url(#p6a4ae4428d)" d="
M653.221 105.321
L653.654 105.321
L653.654 93.5755
L653.221 93.5755
z
" style="fill:#40cf40;"/>
   </g>
   <g id="patch_289">
    <path clip-path="url(#p6a4ae4428d)" d="
M653.685 106.888
L658.144 106.888
L658.144 95.1416
L653.685 95.1416
z
" style="fill:#4daf4a;"/>
   </g>
   <g id="patch_290">
    <path clip-path="url(#p6a4ae4428d)" d="
M658.172 105.321
L659.621 105.321
L659.621 93.5755
L658.172 93.5755
z
" style="fill:#40cf40;"/>
   </g>
   <g id="patch_291">
    <path clip-path="url(#p6a4ae4428d)" d="
M660.259 106.888
L660.7 106.888
L660.7 95.1416
L660.259 95.1416
z
" style="fill:#4daf4a;"/>
   </g>
   <g id="patch_292">
    <path clip-path="url(#p6a4ae4428d)" d="
M660.846 105.321
L661.541 105.321
L661.541 93.5755
L660.846 93.5755
z
" style="fill:#40cf40;"/>
   </g>
   <g id="patch_293">
    <path clip-path="url(#p6a4ae4428d)" d="
M661.551 106.888
L662.478 106.888
L662.478 95.1416
L661.551 95.1416
z
" style="fill:#4daf4a;"/>
   </g>
   <g id="patch_294">
    <path clip-path="url(#p6a4ae4428d)" d="
M662.511 105.321
L664.394 105.321
L664.394 93.5755
L662.511 93.5755
z
" style="fill:#40cf40;"/>
   </g>
   <g id="patch_295">
    <path clip-path="url(#p6a4ae4428d)" d="
M665.013 106.888
L665.247 106.888
L665.247 95.1416
L665.013 95.1416
z
" style="fill:#4daf4a;"/>
   </g>
   <g id="patch_296">
    <path clip-path="url(#p6a4ae4428d)" d="
M665.261 105.321
L668.593 105.321
L668.593 93.5755
L665.261 93.5755
z
" style="fill:#40cf40;"/>
   </g>
   <g id="patch_297">
    <path clip-path="url(#p6a4ae4428d)" d="
M668.602 106.888
L669.033 106.888
L669.033 95.1416
L668.602 95.1416
z
" style="fill:#4daf4a;"/>
   </g>
   <g id="patch_298">
    <path clip-path="url(#p6a4ae4428d)" d="
M669.054 105.321
L670.241 105.321
L670.241 93.5755
L669.054 93.5755
z
" style="fill:#40cf40;"/>
   </g>
   <g id="patch_299">
    <path clip-path="url(#p6a4ae4428d)" d="
M670.253 106.888
L671.673 106.888
L671.673 95.1416
L670.253 95.1416
z
" style="fill:#4daf4a;"/>
   </g>
   <g id="patch_300">
    <path clip-path="url(#p6a4ae4428d)" d="
M671.694 105.321
L672.154 105.321
L672.154 93.5755
L671.694 93.5755
z
" style="fill:#40cf40;"/>
   </g>
   <g id="patch_301">
    <path clip-path="url(#p6a4ae4428d)" d="
M672.17 109.628
L673.234 109.628
L673.234 97.8824
L672.17 97.8824
z
" style="fill:#e41a1c;"/>
   </g>
   <g id="patch_302">
    <path clip-path="url(#p6a4ae4428d)" d="
M673.323 105.321
L674.469 105.321
L674.469 93.5755
L673.323 93.5755
z
" style="fill:#40cf40;"/>
   </g>
   <g id="patch_303">
    <path clip-path="url(#p6a4ae4428d)" d="
M674.508 106.888
L675.19 106.888
L675.19 95.1416
L674.508 95.1416
z
" style="fill:#4daf4a;"/>
   </g>
   <g id="patch_304">
    <path clip-path="url(#p6a4ae4428d)" d="
M675.203 105.321
L676.551 105.321
L676.551 93.5755
L675.203 93.5755
z
" style="fill:#40cf40;"/>
   </g>
   <g id="patch_305">
    <path clip-path="url(#p6a4ae4428d)" d="
M676.566 106.888
L677.889 106.888
L677.889 95.1416
L676.566 95.1416
z
" style="fill:#4daf4a;"/>
   </g>
   <g id="patch_306">
    <path clip-path="url(#p6a4ae4428d)" d="
M677.926 105.321
L678.174 105.321
L678.174 93.5755
L677.926 93.5755
z
" style="fill:#40cf40;"/>
   </g>
   <g id="patch_307">
    <path clip-path="url(#p6a4ae4428d)" d="
M678.197 106.888
L682.079 106.888
L682.079 95.1416
L678.197 95.1416
z
" style="fill:#4daf4a;"/>
   </g>
   <g id="patch_308">
    <path clip-path="url(#p6a4ae4428d)" d="
M682.079 108.062
L685.518 108.062
L685.518 96.3162
L682.079 96.3162
z
" style="fill:#b82525;"/>
   </g>
   <g id="patch_309">
    <path clip-path="url(#p6a4ae4428d)" d="
M685.518 106.888
L692.41 106.888
L692.41 95.1416
L685.518 95.1416
z
" style="fill:#4daf4a;"/>
   </g>
   <g id="patch_310">
    <path clip-path="url(#p6a4ae4428d)" d="
M692.434 105.321
L694.427 105.321
L694.427 93.5755
L692.434 93.5755
z
" style="fill:#40cf40;"/>
   </g>
   <g id="patch_311">
    <path clip-path="url(#p6a4ae4428d)" d="
M694.449 106.888
L696.471 106.888
L696.471 95.1416
L694.449 95.1416
z
" style="fill:#4daf4a;"/>
   </g>
   <g id="patch_312">
    <path clip-path="url(#p6a4ae4428d)" d="
M696.487 105.321
L697.602 105.321
L697.602 93.5755
L696.487 93.5755
z
" style="fill:#40cf40;"/>
   </g>
   <g id="patch_313">
    <path clip-path="url(#p6a4ae4428d)" d="
M697.743 106.888
L698.664 106.888
L698.664 95.1416
L697.743 95.1416
z
" style="fill:#4daf4a;"/>
   </g>
   <g id="patch_314">
    <path clip-path="url(#p6a4ae4428d)" d="
M698.857 105.321
L699.937 105.321
L699.937 93.5755
L698.857 93.5755
z
" style="fill:#40cf40;"/>
   </g>
   <g id="patch_315">
    <path clip-path="url(#p6a4ae4428d)" d="
M700.003 106.888
L702.95 106.888
L702.95 95.1416
L700.003 95.1416
z
" style="fill:#4daf4a;"/>
   </g>
   <g id="patch_316">
    <path clip-path="url(#p6a4ae4428d)" d="
M702.962 105.321
L706.209 105.321
L706.209 93.5755
L702.962 93.5755
z
" style="fill:#40cf40;"/>
   </g>
   <g id="patch_317">
    <path clip-path="url(#p6a4ae4428d)" d="
M706.244 106.888
L706.928 106.888
L706.928 95.1416
L706.244 95.1416
z
" style="fill:#4daf4a;"/>
   </g>
   <g id="patch_318">
    <path clip-path="url(#p6a4ae4428d)" d="
M706.98 105.321
L707.243 105.321
L707.243 93.5755
L706.98 93.5755
z
" style="fill:#40cf40;"/>
   </g>
   <g id="patch_319">
    <path clip-path="url(#p6a4ae4428d)" d="
M707.261 106.888
L709.95 106.888
L709.95 95.1416
L707.261 95.1416
z
" style="fill:#4daf4a;"/>
   </g>
   <g id="patch_320">
    <path clip-path="url(#p6a4ae4428d)" d="
M709.979 105.321
L710.894 105.321
L710.894 93.5755
L709.979 93.5755
z
" style="fill:#40cf40;"/>
   </g>
   <g id="patch_321">
    <path clip-path="url(#p6a4ae4428d)" d="
M710.925 106.888
L714.012 106.888
L714.012 95.1416
L710.925 95.1416
z
" style="fill:#4daf4a;"/>
   </g>
   <g id="line2d_1">
    <path clip-path="url(#p6a4ae4428d)" d="
M182.801 66.56
L714.017 66.56" style="fill:none;stroke:#000000;stroke-width:0.5;"/>
   </g>
   <g id="line2d_2">
    <path clip-path="url(#p6a4ae4428d)" d="
M182.801 15.6612
L182.801 109.628" style="fill:none;stroke:#808080;stroke-dasharray:1.000000,3.000000;stroke-dashoffset:0.0;stroke-linecap:butt;stroke-width:0.2;"/>
   </g>
   <g id="line2d_3">
    <path clip-path="url(#p6a4ae4428d)" d="
M182.801 66.56
L182.801 68.9092" style="fill:none;stroke:#000000;stroke-width:0.5;"/>
   </g>
   <g id="line2d_4">
    <path clip-path="url(#p6a4ae4428d)" d="
M297.246 15.6612
L297.246 109.628" style="fill:none;stroke:#808080;stroke-dasharray:1.000000,3.000000;stroke-dashoffset:0.0;stroke-linecap:butt;stroke-width:0.2;"/>
   </g>
   <g id="line2d_5">
    <path clip-path="url(#p6a4ae4428d)" d="
M297.246 66.56
L297.246 68.9092" style="fill:none;stroke:#000000;stroke-width:0.5;"/>
   </g>
   <g id="line2d_6">
    <path clip-path="url(#p6a4ae4428d)" d="
M411.692 15.6612
L411.692 109.628" style="fill:none;stroke:#808080;stroke-dasharray:1.000000,3.000000;stroke-dashoffset:0.0;stroke-linecap:butt;stroke-width:0.2;"/>
   </g>
   <g id="line2d_7">
    <path clip-path="url(#p6a4ae4428d)" d="
M411.692 66.56
L411.692 68.9092" style="fill:none;stroke:#000000;stroke-width:0.5;"/>
   </g>
   <g id="line2d_8">
    <path clip-path="url(#p6a4ae4428d)" d="
M526.137 15.6612
L526.137 109.628" style="fill:none;stroke:#808080;stroke-dasharray:1.000000,3.000000;stroke-dashoffset:0.0;stroke-linecap:butt;stroke-width:0.2;"/>
   </g>
   <g id="line2d_9">
    <path clip-path="url(#p6a4ae4428d)" d="
M526.137 66.56
L526.137 68.9092" style="fill:none;stroke:#000000;stroke-width:0.5;"/>
   </g>
   <g id="line2d_10">
    <path clip-path="url(#p6a4ae4428d)" d="
M640.583 15.6612
L640.583 109.628" style="fill:none;stroke:#808080;stroke-dasharray:1.000000,3.000000;stroke-dashoffset:0.0;stroke-linecap:butt;stroke-width:0.2;"/>
   </g>
   <g id="line2d_11">
    <path clip-path="url(#p6a4ae4428d)" d="
M640.583 66.56
L640.583 68.9092" style="fill:none;stroke:#000000;stroke-width:0.5;"/>
   </g>
   <g id="line2d_12">
    <path clip-path="url(#p6a4ae4428d)" d="
M714.017 15.6612
L714.017 109.628" style="fill:none;stroke:#808080;stroke-dasharray:1.000000,3.000000;stroke-dashoffset:0.0;stroke-linecap:butt;stroke-width:0.2;"/>
   </g>
   <g id="line2d_13">
    <path clip-path="url(#p6a4ae4428d)" d="
M714.017 66.56
L714.017 68.9092" style="fill:none;stroke:#000000;stroke-width:0.5;"/>
   </g>
   <g id="text_1">
    <!-- 0.0 -->
    <defs>
     <path d="
M31.7812 66.4062
Q24.1719 66.4062 20.3281 58.9062
Q16.5 51.4219 16.5 36.375
Q16.5 21.3906 20.3281 13.8906
Q24.1719 6.39062 31.7812 6.39062
Q39.4531 6.39062 43.2812 13.8906
Q47.125 21.3906 47.125 36.375
Q47.125 51.4219 43.2812 58.9062
Q39.4531 66.4062 31.7812 66.4062
M31.7812 74.2188
Q44.0469 74.2188 50.5156 64.5156
Q56.9844 54.8281 56.9844 36.375
Q56.9844 17.9688 50.5156 8.26562
Q44.0469 -1.42188 31.7812 -1.42188
Q19.5312 -1.42188 13.0625 8.26562
Q6.59375 17.9688 6.59375 36.375
Q6.59375 54.8281 13.0625 64.5156
Q19.5312 74.2188 31.7812 74.2188" id="DejaVuSans-30"/>
     <path d="
M10.6875 12.4062
L21 12.4062
L21 0
L10.6875 0
z
" id="DejaVuSans-2e"/>
    </defs>
    <g transform="translate(184.67568 74.8466764706)scale(0.08 -0.08)">
     <use xlink:href="#DejaVuSans-30"/>
     <use x="63.623046875" xlink:href="#DejaVuSans-2e"/>
     <use x="95.41015625" xlink:href="#DejaVuSans-30"/>
    </g>
   </g>
   <g id="text_2">
    <!-- 1.0 -->
    <defs>
     <path d="
M12.4062 8.29688
L28.5156 8.29688
L28.5156 63.9219
L10.9844 60.4062
L10.9844 69.3906
L28.4219 72.9062
L38.2812 72.9062
L38.2812 8.29688
L54.3906 8.29688
L54.3906 0
L12.4062 0
z
" id="DejaVuSans-31"/>
    </defs>
    <g transform="translate(299.121140366 74.8466764706)scale(0.08 -0.08)">
     <use xlink:href="#DejaVuSans-31"/>
     <use x="63.623046875" xlink:href="#DejaVuSans-2e"/>
     <use x="95.41015625" xlink:href="#DejaVuSans-30"/>
    </g>
   </g>
   <g id="text_3">
    <!-- 2.0 -->
    <defs>
     <path d="
M19.1875 8.29688
L53.6094 8.29688
L53.6094 0
L7.32812 0
L7.32812 8.29688
Q12.9375 14.1094 22.625 23.8906
Q32.3281 33.6875 34.8125 36.5312
Q39.5469 41.8438 41.4219 45.5312
Q43.3125 49.2188 43.3125 52.7812
Q43.3125 58.5938 39.2344 62.25
Q35.1562 65.9219 28.6094 65.9219
Q23.9688 65.9219 18.8125 64.3125
Q13.6719 62.7031 7.8125 59.4219
L7.8125 69.3906
Q13.7656 71.7812 18.9375 73
Q24.125 74.2188 28.4219 74.2188
Q39.75 74.2188 46.4844 68.5469
Q53.2188 62.8906 53.2188 53.4219
Q53.2188 48.9219 51.5312 44.8906
Q49.8594 40.875 45.4062 35.4062
Q44.1875 33.9844 37.6406 27.2188
Q31.1094 20.4531 19.1875 8.29688" id="DejaVuSans-32"/>
    </defs>
    <g transform="translate(413.566600733 74.8466764706)scale(0.08 -0.08)">
     <use xlink:href="#DejaVuSans-32"/>
     <use x="63.623046875" xlink:href="#DejaVuSans-2e"/>
     <use x="95.41015625" xlink:href="#DejaVuSans-30"/>
    </g>
   </g>
   <g id="text_4">
    <!-- 3.0 -->
    <defs>
     <path d="
M40.5781 39.3125
Q47.6562 37.7969 51.625 33
Q55.6094 28.2188 55.6094 21.1875
Q55.6094 10.4062 48.1875 4.48438
Q40.7656 -1.42188 27.0938 -1.42188
Q22.5156 -1.42188 17.6562 -0.515625
Q12.7969 0.390625 7.625 2.20312
L7.625 11.7188
Q11.7188 9.32812 16.5938 8.10938
Q21.4844 6.89062 26.8125 6.89062
Q36.0781 6.89062 40.9375 10.5469
Q45.7969 14.2031 45.7969 21.1875
Q45.7969 27.6406 41.2812 31.2656
Q36.7656 34.9062 28.7188 34.9062
L20.2188 34.9062
L20.2188 43.0156
L29.1094 43.0156
Q36.375 43.0156 40.2344 45.9219
Q44.0938 48.8281 44.0938 54.2969
Q44.0938 59.9062 40.1094 62.9062
Q36.1406 65.9219 28.7188 65.9219
Q24.6562 65.9219 20.0156 65.0312
Q15.375 64.1562 9.8125 62.3125
L9.8125 71.0938
Q15.4375 72.6562 20.3438 73.4375
Q25.25 74.2188 29.5938 74.2188
Q40.8281 74.2188 47.3594 69.1094
Q53.9062 64.0156 53.9062 55.3281
Q53.9062 49.2656 50.4375 45.0938
Q46.9688 40.9219 40.5781 39.3125" id="DejaVuSans-33"/>
    </defs>
    <g transform="translate(528.012061099 74.8466764706)scale(0.08 -0.08)">
     <use xlink:href="#DejaVuSans-33"/>
     <use x="63.623046875" xlink:href="#DejaVuSans-2e"/>
     <use x="95.41015625" xlink:href="#DejaVuSans-30"/>
    </g>
   </g>
   <g id="text_5">
    <!-- 4.0 -->
    <defs>
     <path d="
M37.7969 64.3125
L12.8906 25.3906
L37.7969 25.3906
z

M35.2031 72.9062
L47.6094 72.9062
L47.6094 25.3906
L58.0156 25.3906
L58.0156 17.1875
L47.6094 17.1875
L47.6094 0
L37.7969 0
L37.7969 17.1875
L4.89062 17.1875
L4.89062 26.7031
z
" id="DejaVuSans-34"/>
    </defs>
    <g transform="translate(642.457521465 74.8466764706)scale(0.08 -0.08)">
     <use xlink:href="#DejaVuSans-34"/>
     <use x="63.623046875" xlink:href="#DejaVuSans-2e"/>
     <use x="95.41015625" xlink:href="#DejaVuSans-30"/>
    </g>
   </g>
   <g id="text_6">
    <!-- 4.64 -->
    <defs>
     <path d="
M33.0156 40.375
Q26.375 40.375 22.4844 35.8281
Q18.6094 31.2969 18.6094 23.3906
Q18.6094 15.5312 22.4844 10.9531
Q26.375 6.39062 33.0156 6.39062
Q39.6562 6.39062 43.5312 10.9531
Q47.4062 15.5312 47.4062 23.3906
Q47.4062 31.2969 43.5312 35.8281
Q39.6562 40.375 33.0156 40.375
M52.5938 71.2969
L52.5938 62.3125
Q48.875 64.0625 45.0938 64.9844
Q41.3125 65.9219 37.5938 65.9219
Q27.8281 65.9219 22.6719 59.3281
Q17.5312 52.7344 16.7969 39.4062
Q19.6719 43.6562 24.0156 45.9219
Q28.375 48.1875 33.5938 48.1875
Q44.5781 48.1875 50.9531 41.5156
Q57.3281 34.8594 57.3281 23.3906
Q57.3281 12.1562 50.6875 5.35938
Q44.0469 -1.42188 33.0156 -1.42188
Q20.3594 -1.42188 13.6719 8.26562
Q6.98438 17.9688 6.98438 36.375
Q6.98438 53.6562 15.1875 63.9375
Q23.3906 74.2188 37.2031 74.2188
Q40.9219 74.2188 44.7031 73.4844
Q48.4844 72.75 52.5938 71.2969" id="DejaVuSans-36"/>
    </defs>
    <g transform="translate(715.89168 74.8466764706)scale(0.08 -0.08)">
     <use xlink:href="#DejaVuSans-34"/>
     <use x="63.623046875" xlink:href="#DejaVuSans-2e"/>
     <use x="95.41015625" xlink:href="#DejaVuSans-36"/>
     <use x="159.033203125" xlink:href="#DejaVuSans-34"/>
    </g>
   </g>
   <g id="text_7">
    <!-- chr_0 (..34_ref_NC_) -->
    <defs>
     <path d="
M9.8125 72.9062
L23.0938 72.9062
L55.4219 11.9219
L55.4219 72.9062
L64.9844 72.9062
L64.9844 0
L51.7031 0
L19.3906 60.9844
L19.3906 0
L9.8125 0
z
" id="DejaVuSans-4e"/>
     <path d="
M8.01562 75.875
L15.8281 75.875
Q23.1406 64.3594 26.7812 53.3125
Q30.4219 42.2812 30.4219 31.3906
Q30.4219 20.4531 26.7812 9.375
Q23.1406 -1.70312 15.8281 -13.1875
L8.01562 -13.1875
Q14.5 -2 17.7031 9.0625
Q20.9062 20.125 20.9062 31.3906
Q20.9062 42.6719 17.7031 53.6562
Q14.5 64.6562 8.01562 75.875" id="DejaVuSans-29"/>
     <path d="
M50.9844 -16.6094
L50.9844 -23.5781
L-0.984375 -23.5781
L-0.984375 -16.6094
z
" id="DejaVuSans-5f"/>
     <path id="DejaVuSans-20"/>
     <path d="
M54.8906 33.0156
L54.8906 0
L45.9062 0
L45.9062 32.7188
Q45.9062 40.4844 42.875 44.3281
Q39.8438 48.1875 33.7969 48.1875
Q26.5156 48.1875 22.3125 43.5469
Q18.1094 38.9219 18.1094 30.9062
L18.1094 0
L9.07812 0
L9.07812 75.9844
L18.1094 75.9844
L18.1094 46.1875
Q21.3438 51.125 25.7031 53.5625
Q30.0781 56 35.7969 56
Q45.2188 56 50.0469 50.1719
Q54.8906 44.3438 54.8906 33.0156" id="DejaVuSans-68"/>
     <path d="
M64.4062 67.2812
L64.4062 56.8906
Q59.4219 61.5312 53.7812 63.8125
Q48.1406 66.1094 41.7969 66.1094
Q29.2969 66.1094 22.6562 58.4688
Q16.0156 50.8281 16.0156 36.375
Q16.0156 21.9688 22.6562 14.3281
Q29.2969 6.6875 41.7969 6.6875
Q48.1406 6.6875 53.7812 8.98438
Q59.4219 11.2812 64.4062 15.9219
L64.4062 5.60938
Q59.2344 2.09375 53.4375 0.328125
Q47.6562 -1.42188 41.2188 -1.42188
Q24.6562 -1.42188 15.125 8.70312
Q5.60938 18.8438 5.60938 36.375
Q5.60938 53.9531 15.125 64.0781
Q24.6562 74.2188 41.2188 74.2188
Q47.75 74.2188 53.5312 72.4844
Q59.3281 70.75 64.4062 67.2812" id="DejaVuSans-43"/>
     <path d="
M37.1094 75.9844
L37.1094 68.5
L28.5156 68.5
Q23.6875 68.5 21.7969 66.5469
Q19.9219 64.5938 19.9219 59.5156
L19.9219 54.6875
L34.7188 54.6875
L34.7188 47.7031
L19.9219 47.7031
L19.9219 0
L10.8906 0
L10.8906 47.7031
L2.29688 47.7031
L2.29688 54.6875
L10.8906 54.6875
L10.8906 58.5
Q10.8906 67.625 15.1406 71.7969
Q19.3906 75.9844 28.6094 75.9844
z
" id="DejaVuSans-66"/>
     <path d="
M31 75.875
Q24.4688 64.6562 21.2812 53.6562
Q18.1094 42.6719 18.1094 31.3906
Q18.1094 20.125 21.3125 9.0625
Q24.5156 -2 31 -13.1875
L23.1875 -13.1875
Q15.875 -1.70312 12.2344 9.375
Q8.59375 20.4531 8.59375 31.3906
Q8.59375 42.2812 12.2031 53.3125
Q15.8281 64.3594 23.1875 75.875
z
" id="DejaVuSans-28"/>
     <path d="
M56.2031 29.5938
L56.2031 25.2031
L14.8906 25.2031
Q15.4844 15.9219 20.4844 11.0625
Q25.4844 6.20312 34.4219 6.20312
Q39.5938 6.20312 44.4531 7.46875
Q49.3125 8.73438 54.1094 11.2812
L54.1094 2.78125
Q49.2656 0.734375 44.1875 -0.34375
Q39.1094 -1.42188 33.8906 -1.42188
Q20.7969 -1.42188 13.1562 6.1875
Q5.51562 13.8125 5.51562 26.8125
Q5.51562 40.2344 12.7656 48.1094
Q20.0156 56 32.3281 56
Q43.3594 56 49.7812 48.8906
Q56.2031 41.7969 56.2031 29.5938
M47.2188 32.2344
Q47.125 39.5938 43.0938 43.9844
Q39.0625 48.3906 32.4219 48.3906
Q24.9062 48.3906 20.3906 44.1406
Q15.875 39.8906 15.1875 32.1719
z
" id="DejaVuSans-65"/>
     <path d="
M48.7812 52.5938
L48.7812 44.1875
Q44.9688 46.2969 41.1406 47.3438
Q37.3125 48.3906 33.4062 48.3906
Q24.6562 48.3906 19.8125 42.8438
Q14.9844 37.3125 14.9844 27.2969
Q14.9844 17.2812 19.8125 11.7344
Q24.6562 6.20312 33.4062 6.20312
Q37.3125 6.20312 41.1406 7.25
Q44.9688 8.29688 48.7812 10.4062
L48.7812 2.09375
Q45.0156 0.34375 40.9844 -0.53125
Q36.9688 -1.42188 32.4219 -1.42188
Q20.0625 -1.42188 12.7812 6.34375
Q5.51562 14.1094 5.51562 27.2969
Q5.51562 40.6719 12.8594 48.3281
Q20.2188 56 33.0156 56
Q37.1562 56 41.1094 55.1406
Q45.0625 54.2969 48.7812 52.5938" id="DejaVuSans-63"/>
     <path d="
M41.1094 46.2969
Q39.5938 47.1719 37.8125 47.5781
Q36.0312 48 33.8906 48
Q26.2656 48 22.1875 43.0469
Q18.1094 38.0938 18.1094 28.8125
L18.1094 0
L9.07812 0
L9.07812 54.6875
L18.1094 54.6875
L18.1094 46.1875
Q20.9531 51.1719 25.4844 53.5781
Q30.0312 56 36.5312 56
Q37.4531 56 38.5781 55.875
Q39.7031 55.7656 41.0625 55.5156
z
" id="DejaVuSans-72"/>
    </defs>
    <g transform="translate(393.664034375 56.7121636029)scale(0.11 -0.11)">
     <use xlink:href="#DejaVuSans-63"/>
     <use x="54.98046875" xlink:href="#DejaVuSans-68"/>
     <use x="118.359375" xlink:href="#DejaVuSans-72"/>
     <use x="159.47265625" xlink:href="#DejaVuSans-5f"/>
     <use x="209.47265625" xlink:href="#DejaVuSans-30"/>
     <use x="273.095703125" xlink:href="#DejaVuSans-20"/>
     <use x="304.8828125" xlink:href="#DejaVuSans-28"/>
     <use x="343.896484375" xlink:href="#DejaVuSans-2e"/>
     <use x="375.68359375" xlink:href="#DejaVuSans-2e"/>
     <use x="407.470703125" xlink:href="#DejaVuSans-33"/>
     <use x="471.09375" xlink:href="#DejaVuSans-34"/>
     <use x="534.716796875" xlink:href="#DejaVuSans-5f"/>
     <use x="584.716796875" xlink:href="#DejaVuSans-72"/>
     <use x="623.580078125" xlink:href="#DejaVuSans-65"/>
     <use x="685.103515625" xlink:href="#DejaVuSans-66"/>
     <use x="720.30859375" xlink:href="#DejaVuSans-5f"/>
     <use x="770.30859375" xlink:href="#DejaVuSans-4e"/>
     <use x="845.11328125" xlink:href="#DejaVuSans-43"/>
     <use x="914.9375" xlink:href="#DejaVuSans-5f"/>
     <use x="964.9375" xlink:href="#DejaVuSans-29"/>
    </g>
   </g>
   <g id="text_8">
    <!-- Genome, Mb -->
    <defs>
     <path d="
M9.8125 72.9062
L24.5156 72.9062
L43.1094 23.2969
L61.8125 72.9062
L76.5156 72.9062
L76.5156 0
L66.8906 0
L66.8906 64.0156
L48.0938 14.0156
L38.1875 14.0156
L19.3906 64.0156
L19.3906 0
L9.8125 0
z
" id="DejaVuSans-4d"/>
     <path d="
M11.7188 12.4062
L22.0156 12.4062
L22.0156 4
L14.0156 -11.625
L7.71875 -11.625
L11.7188 4
z
" id="DejaVuSans-2c"/>
     <path d="
M30.6094 48.3906
Q23.3906 48.3906 19.1875 42.75
Q14.9844 37.1094 14.9844 27.2969
Q14.9844 17.4844 19.1562 11.8438
Q23.3438 6.20312 30.6094 6.20312
Q37.7969 6.20312 41.9844 11.8594
Q46.1875 17.5312 46.1875 27.2969
Q46.1875 37.0156 41.9844 42.7031
Q37.7969 48.3906 30.6094 48.3906
M30.6094 56
Q42.3281 56 49.0156 48.375
Q55.7188 40.7656 55.7188 27.2969
Q55.7188 13.875 49.0156 6.21875
Q42.3281 -1.42188 30.6094 -1.42188
Q18.8438 -1.42188 12.1719 6.21875
Q5.51562 13.875 5.51562 27.2969
Q5.51562 40.7656 12.1719 48.375
Q18.8438 56 30.6094 56" id="DejaVuSans-6f"/>
     <path d="
M52 44.1875
Q55.375 50.25 60.0625 53.125
Q64.75 56 71.0938 56
Q79.6406 56 84.2812 50.0156
Q88.9219 44.0469 88.9219 33.0156
L88.9219 0
L79.8906 0
L79.8906 32.7188
Q79.8906 40.5781 77.0938 44.375
Q74.3125 48.1875 68.6094 48.1875
Q61.625 48.1875 57.5625 43.5469
Q53.5156 38.9219 53.5156 30.9062
L53.5156 0
L44.4844 0
L44.4844 32.7188
Q44.4844 40.625 41.7031 44.4062
Q38.9219 48.1875 33.1094 48.1875
Q26.2188 48.1875 22.1562 43.5312
Q18.1094 38.875 18.1094 30.9062
L18.1094 0
L9.07812 0
L9.07812 54.6875
L18.1094 54.6875
L18.1094 46.1875
Q21.1875 51.2188 25.4844 53.6094
Q29.7812 56 35.6875 56
Q41.6562 56 45.8281 52.9688
Q50 49.9531 52 44.1875" id="DejaVuSans-6d"/>
     <path d="
M54.8906 33.0156
L54.8906 0
L45.9062 0
L45.9062 32.7188
Q45.9062 40.4844 42.875 44.3281
Q39.8438 48.1875 33.7969 48.1875
Q26.5156 48.1875 22.3125 43.5469
Q18.1094 38.9219 18.1094 30.9062
L18.1094 0
L9.07812 0
L9.07812 54.6875
L18.1094 54.6875
L18.1094 46.1875
Q21.3438 51.125 25.7031 53.5625
Q30.0781 56 35.7969 56
Q45.2188 56 50.0469 50.1719
Q54.8906 44.3438 54.8906 33.0156" id="DejaVuSans-6e"/>
     <path d="
M59.5156 10.4062
L59.5156 29.9844
L43.4062 29.9844
L43.4062 38.0938
L69.2812 38.0938
L69.2812 6.78125
Q63.5781 2.73438 56.6875 0.65625
Q49.8125 -1.42188 42 -1.42188
Q24.9062 -1.42188 15.25 8.5625
Q5.60938 18.5625 5.60938 36.375
Q5.60938 54.25 15.25 64.2344
Q24.9062 74.2188 42 74.2188
Q49.125 74.2188 55.5469 72.4531
Q61.9688 70.7031 67.3906 67.2812
L67.3906 56.7812
Q61.9219 61.4219 55.7656 63.7656
Q49.6094 66.1094 42.8281 66.1094
Q29.4375 66.1094 22.7188 58.6406
Q16.0156 51.1719 16.0156 36.375
Q16.0156 21.625 22.7188 14.1562
Q29.4375 6.6875 42.8281 6.6875
Q48.0469 6.6875 52.1406 7.59375
Q56.25 8.5 59.5156 10.4062" id="DejaVuSans-47"/>
     <path d="
M48.6875 27.2969
Q48.6875 37.2031 44.6094 42.8438
Q40.5312 48.4844 33.4062 48.4844
Q26.2656 48.4844 22.1875 42.8438
Q18.1094 37.2031 18.1094 27.2969
Q18.1094 17.3906 22.1875 11.75
Q26.2656 6.10938 33.4062 6.10938
Q40.5312 6.10938 44.6094 11.75
Q48.6875 17.3906 48.6875 27.2969
M18.1094 46.3906
Q20.9531 51.2656 25.2656 53.625
Q29.5938 56 35.5938 56
Q45.5625 56 51.7812 48.0938
Q58.0156 40.1875 58.0156 27.2969
Q58.0156 14.4062 51.7812 6.48438
Q45.5625 -1.42188 35.5938 -1.42188
Q29.5938 -1.42188 25.2656 0.953125
Q20.9531 3.32812 18.1094 8.20312
L18.1094 0
L9.07812 0
L9.07812 75.9844
L18.1094 75.9844
z
" id="DejaVuSans-62"/>
    </defs>
    <g transform="translate(413.738175 87.0556930147)scale(0.11 -0.11)">
     <use xlink:href="#DejaVuSans-47"/>
     <use x="77.490234375" xlink:href="#DejaVuSans-65"/>
     <use x="139.013671875" xlink:href="#DejaVuSans-6e"/>
     <use x="202.392578125" xlink:href="#DejaVuSans-6f"/>
     <use x="263.57421875" xlink:href="#DejaVuSans-6d"/>
     <use x="360.986328125" xlink:href="#DejaVuSans-65"/>
     <use x="422.509765625" xlink:href="#DejaVuSans-2c"/>
     <use x="454.296875" xlink:href="#DejaVuSans-20"/>
     <use x="486.083984375" xlink:href="#DejaVuSans-4d"/>
     <use x="572.36328125" xlink:href="#DejaVuSans-62"/>
    </g>
   </g>
   <g id="text_9">
    <!-- scaffolds -->
    <defs>
     <path d="
M45.4062 46.3906
L45.4062 75.9844
L54.3906 75.9844
L54.3906 0
L45.4062 0
L45.4062 8.20312
Q42.5781 3.32812 38.25 0.953125
Q33.9375 -1.42188 27.875 -1.42188
Q17.9688 -1.42188 11.7344 6.48438
Q5.51562 14.4062 5.51562 27.2969
Q5.51562 40.1875 11.7344 48.0938
Q17.9688 56 27.875 56
Q33.9375 56 38.25 53.625
Q42.5781 51.2656 45.4062 46.3906
M14.7969 27.2969
Q14.7969 17.3906 18.875 11.75
Q22.9531 6.10938 30.0781 6.10938
Q37.2031 6.10938 41.2969 11.75
Q45.4062 17.3906 45.4062 27.2969
Q45.4062 37.2031 41.2969 42.8438
Q37.2031 48.4844 30.0781 48.4844
Q22.9531 48.4844 18.875 42.8438
Q14.7969 37.2031 14.7969 27.2969" id="DejaVuSans-64"/>
     <path d="
M9.42188 75.9844
L18.4062 75.9844
L18.4062 0
L9.42188 0
z
" id="DejaVuSans-6c"/>
     <path d="
M44.2812 53.0781
L44.2812 44.5781
Q40.4844 46.5312 36.375 47.5
Q32.2812 48.4844 27.875 48.4844
Q21.1875 48.4844 17.8438 46.4375
Q14.5 44.3906 14.5 40.2812
Q14.5 37.1562 16.8906 35.375
Q19.2812 33.5938 26.5156 31.9844
L29.5938 31.2969
Q39.1562 29.25 43.1875 25.5156
Q47.2188 21.7812 47.2188 15.0938
Q47.2188 7.46875 41.1875 3.01562
Q35.1562 -1.42188 24.6094 -1.42188
Q20.2188 -1.42188 15.4531 -0.5625
Q10.6875 0.296875 5.42188 2
L5.42188 11.2812
Q10.4062 8.6875 15.2344 7.39062
Q20.0625 6.10938 24.8125 6.10938
Q31.1562 6.10938 34.5625 8.28125
Q37.9844 10.4531 37.9844 14.4062
Q37.9844 18.0625 35.5156 20.0156
Q33.0625 21.9688 24.7031 23.7812
L21.5781 24.5156
Q13.2344 26.2656 9.51562 29.9062
Q5.8125 33.5469 5.8125 39.8906
Q5.8125 47.6094 11.2812 51.7969
Q16.75 56 26.8125 56
Q31.7812 56 36.1719 55.2656
Q40.5781 54.5469 44.2812 53.0781" id="DejaVuSans-73"/>
     <path d="
M34.2812 27.4844
Q23.3906 27.4844 19.1875 25
Q14.9844 22.5156 14.9844 16.5
Q14.9844 11.7188 18.1406 8.90625
Q21.2969 6.10938 26.7031 6.10938
Q34.1875 6.10938 38.7031 11.4062
Q43.2188 16.7031 43.2188 25.4844
L43.2188 27.4844
z

M52.2031 31.2031
L52.2031 0
L43.2188 0
L43.2188 8.29688
Q40.1406 3.32812 35.5469 0.953125
Q30.9531 -1.42188 24.3125 -1.42188
Q15.9219 -1.42188 10.9531 3.29688
Q6 8.01562 6 15.9219
Q6 25.1406 12.1719 29.8281
Q18.3594 34.5156 30.6094 34.5156
L43.2188 34.5156
L43.2188 35.4062
Q43.2188 41.6094 39.1406 45
Q35.0625 48.3906 27.6875 48.3906
Q23 48.3906 18.5469 47.2656
Q14.1094 46.1406 10.0156 43.8906
L10.0156 52.2031
Q14.9375 54.1094 19.5781 55.0469
Q24.2188 56 28.6094 56
Q40.4844 56 46.3438 49.8438
Q52.2031 43.7031 52.2031 31.2031" id="DejaVuSans-61"/>
    </defs>
    <g transform="translate(126.151725 103.584669118)scale(0.12 -0.12)">
     <use xlink:href="#DejaVuSans-73"/>
     <use x="52.099609375" xlink:href="#DejaVuSans-63"/>
     <use x="107.080078125" xlink:href="#DejaVuSans-61"/>
     <use x="168.359375" xlink:href="#DejaVuSans-66"/>
     <use x="203.564453125" xlink:href="#DejaVuSans-66"/>
     <use x="238.76953125" xlink:href="#DejaVuSans-6f"/>
     <use x="299.951171875" xlink:href="#DejaVuSans-6c"/>
     <use x="327.734375" xlink:href="#DejaVuSans-64"/>
     <use x="391.2109375" xlink:href="#DejaVuSans-73"/>
    </g>
   </g>
  </g>
 </g>
 <defs>
  <clipPath id="p6a4ae4428d">
   <rect height="117.458823529" width="781.2" x="0.0" y="0.0"/>
  </clipPath>
 </defs>
</svg>
