<?xml version="1.0" encoding="utf-8" standalone="no"?>
<!DOCTYPE svg PUBLIC "-//W3C//DTD SVG 1.1//EN"
  "http://www.w3.org/Graphics/SVG/1.1/DTD/svg11.dtd">
<!-- Created with matplotlib (http://matplotlib.org/) -->
<svg height="117pt" version="1.1" viewBox="0 0 781 117" width="781pt" xmlns="http://www.w3.org/2000/svg" xmlns:xlink="http://www.w3.org/1999/xlink">
 <defs>
  <style type="text/css">
*{stroke-linecap:butt;stroke-linejoin:round;}
  </style>
 </defs>
 <g id="figure_1">
  <g id="patch_1">
   <path d="
M0 117.459
L781.2 117.459
L781.2 0
L0 0
z
" style="fill:#ffffff;"/>
  </g>
  <g id="axes_1">
   <g id="patch_2">
    <path clip-path="url(#p6a4ae4428d)" d="
M149.99 117.459
L720.266 117.459
L720.266 15.6612
L149.99 15.6612
z
" style="fill:#ffffff;"/>
   </g>
   <g id="patch_3">
    <path clip-path="url(#p6a4ae4428d)" d="
M182.801 106.888
L183.569 106.888
L183.569 95.1416
L182.801 95.1416
z
" style="fill:#4daf4a;"/>
   </g>
   <g id="patch_4">
    <path clip-path="url(#p6a4ae4428d)" d="
M183.569 105.321
L184.778 105.321
L184.778 93.5755
L183.569 93.5755
z
" style="fill:#40cf40;"/>
   </g>
   <g id="patch_5">
    <path clip-path="url(#p6a4ae4428d)" d="
M184.778 106.888
L185.199 106.888
L185.199 95.1416
L184.778 95.1416
z
" style="fill:#4daf4a;"/>
   </g>
   <g id="patch_6">
    <path clip-path="url(#p6a4ae4428d)" d="
M185.216 105.321
L185.729 105.321
L185.729 93.5755
L185.216 93.5755
z
" style="fill:#40cf40;"/>
   </g>
   <g id="patch_7">
    <path clip-path="url(#p6a4ae4428d)" d="
M185.729 106.888
L186.224 106.888
L186.224 95.1416
L185.729 95.1416
z
" style="fill:#4daf4a;"/>
   </g>
   <g id="patch_8">
    <path clip-path="url(#p6a4ae4428d)" d="
M186.224 105.321
L188.314 105.321
L188.314 93.5755
L186.224 93.5755
z
" style="fill:#40cf40;"/>
   </g>
   <g id="patch_9">
    <path clip-path="url(#p6a4ae4428d)" d="
M188.314 106.888
L189.262 106.888
L189.262 95.1416
L188.314 95.1416
z
" style="fill:#4daf4a;"/>
   </g>
   <g id="patch_10">
    <path clip-path="url(#p6a4ae4428d)" d="
M189.262 105.321
L189.319 105.321
L189.319 93.5755
L189.262 93.5755
z
" style="fill:#40cf40;"/>
   </g>
   <g id="patch_11">
    <path clip-path="url(#p6a4ae4428d)" d="
M189.319 106.888
L190.472 106.888
L190.472 95.1416
L189.319 95.1416
z
" style="fill:#4daf4a;"/>
   </g>
   <g id="patch_12">
    <path clip-path="url(#p6a4ae4428d)" d="
M190.472 105.321
L191.573 105.321
L191.573 93.5755
L190.472 93.5755
z
" style="fill:#40cf40;"/>
   </g>
   <g id="patch_13">
    <path clip-path="url(#p6a4ae4428d)" d="
M191.573 106.888
L192.566 106.888
L192.566 95.1416
L191.573 95.1416
z
" style="fill:#4daf4a;"/>
   </g>
   <g id="patch_14">
    <path clip-path="url(#p6a4ae4428d)" d="
M192.566 105.321
L192.713 105.321
L192.713 93.5755
L192.566 93.5755
z
" style="fill:#40cf40;"/>
   </g>
   <g id="patch_15">
    <path clip-path="url(#p6a4ae4428d)" d="
M192.723 106.888
L194.259 106.888
L194.259 95.1416
L192.723 95.1416
z
" style="fill:#4daf4a;"/>
   </g>
   <g id="patch_16">
    <path clip-path="url(#p6a4ae4428d)" d="
M194.259 105.321
L195.862 105.321
L195.862 93.5755
L194.259 93.5755
z
" style="fill:#40cf40;"/>
   </g>
   <g id="patch_17">
    <path clip-path="url(#p6a4ae4428d)" d="
M195.863 106.888
L196.227 106.888
L196.227 95.1416
L195.863 95.1416
z
" style="fill:#4daf4a;"/>
   </g>
   <g id="patch_18">
    <path clip-path="url(#p6a4ae4428d)" d="
M196.228 105.321
L196.918 105.321
L196.918 93.5755
L196.228 93.5755
z
" style="fill:#40cf40;"/>
   </g>
   <g id="patch_19">
    <path clip-path="url(#p6a4ae4428d)" d="
M196.918 106.888
L196.98 106.888
L196.98 95.1416
L196.918 95.1416
z
" style="fill:#4daf4a;"/>
   </g>
   <g id="patch_20">
    <path clip-path="url(#p6a4ae4428d)" d="
M196.98 105.321
L198.115 105.321
L198.115 93.5755
L196.98 93.5755
z
" style="fill:#40cf40;"/>
   </g>
   <g id="patch_21">
    <path clip-path="url(#p6a4ae4428d)" d="
M198.115 106.888
L200.98 106.888
L200.98 95.1416
L198.115 95.1416
z
" style="fill:#4daf4a;"/>
   </g>
   <g id="patch_22">
    <path clip-path="url(#p6a4ae4428d)" d="
M200.98 105.321
L202.465 105.321
L202.465 93.5755
L200.98 93.5755
z
" style="fill:#40cf40;"/>
   </g>
   <g id="patch_23">
    <path clip-path="url(#p6a4ae4428d)" d="
M202.465 106.888
L202.79 106.888
L202.79 95.1416
L202.465 95.1416
z
" style="fill:#4daf4a;"/>
   </g>
   <g id="patch_24">
    <path clip-path="url(#p6a4ae4428d)" d="
M202.79 105.321
L202.922 105.321
L202.922 93.5755
L202.79 93.5755
z
" style="fill:#40cf40;"/>
   </g>
   <g id="patch_25">
    <path clip-path="url(#p6a4ae4428d)" d="
M202.922 106.888
L204.788 106.888
L204.788 95.1416
L202.922 95.1416
z
" style="fill:#4daf4a;"/>
   </g>
   <g id="patch_26">
    <path clip-path="url(#p6a4ae4428d)" d="
M204.788 105.321
L208.503 105.321
L208.503 93.5755
L204.788 93.5755
z
" style="fill:#40cf40;"/>
   </g>
   <g id="patch_27">
    <path clip-path="url(#p6a4ae4428d)" d="
M208.503 106.888
L209.779 106.888
L209.779 95.1416
L208.503 95.1416
z
" style="fill:#4daf4a;"/>
   </g>
   <g id="patch_28">
    <path clip-path="url(#p6a4ae4428d)" d="
M209.779 105.321
L214.09 105.321
L214.09 93.5755
L209.779 93.5755
z
" style="fill:#40cf40;"/>
   </g>
   <g id="patch_29">
    <path clip-path="url(#p6a4ae4428d)" d="
M214.091 106.888
L214.208 106.888
L214.208 95.1416
L214.091 95.1416
z
" style="fill:#4daf4a;"/>
   </g>
   <g id="patch_30">
    <path clip-path="url(#p6a4ae4428d)" d="
M214.208 105.321
L214.276 105.321
L214.276 93.5755
L214.208 93.5755
z
" style="fill:#40cf40;"/>
   </g>
   <g id="patch_31">
    <path clip-path="url(#p6a4ae4428d)" d="
M214.276 106.888
L217.8 106.888
L217.8 95.1416
L214.276 95.1416
z
" style="fill:#4daf4a;"/>
   </g>
   <g id="patch_32">
    <path clip-path="url(#p6a4ae4428d)" d="
M217.801 105.321
L218.08 105.321
L218.08 93.5755
L217.801 93.5755
z
" style="fill:#40cf40;"/>
   </g>
   <g id="patch_33">
    <path clip-path="url(#p6a4ae4428d)" d="
M218.081 106.888
L224.592 106.888
L224.592 95.1416
L218.081 95.1416
z
" style="fill:#4daf4a;"/>
   </g>
   <g id="patch_34">
    <path clip-path="url(#p6a4ae4428d)" d="
M224.592 105.321
L225.851 105.321
L225.851 93.5755
L224.592 93.5755
z
" style="fill:#40cf40;"/>
   </g>
   <g id="patch_35">
    <path clip-path="url(#p6a4ae4428d)" d="
M225.851 106.888
L225.971 106.888
L225.971 95.1416
L225.851 95.1416
z
" style="fill:#4daf4a;"/>
   </g>
   <g id="patch_36">
    <path clip-path="url(#p6a4ae4428d)" d="
M225.971 105.321
L227.122 105.321
L227.122 93.5755
L225.971 93.5755
z
" style="fill:#40cf40;"/>
   </g>
   <g id="patch_37">
    <path clip-path="url(#p6a4ae4428d)" d="
M227.122 106.888
L227.416 106.888
L227.416 95.1416
L227.122 95.1416
z
" style="fill:#4daf4a;"/>
   </g>
   <g id="patch_38">
    <path clip-path="url(#p6a4ae4428d)" d="
M227.416 105.321
L228.246 105.321
L228.246 93.5755
L227.416 93.5755
z
" style="fill:#40cf40;"/>
   </g>
   <g id="patch_39">
    <path clip-path="url(#p6a4ae4428d)" d="
M228.246 106.888
L229.759 106.888
L229.759 95.1416
L228.246 95.1416
z
" style="fill:#4daf4a;"/>
   </g>
   <g id="patch_40">
    <path clip-path="url(#p6a4ae4428d)" d="
M229.759 105.321
L229.909 105.321
L229.909 93.5755
L229.759 93.5755
z
" style="fill:#40cf40;"/>
   </g>
   <g id="patch_41">
    <path clip-path="url(#p6a4ae4428d)" d="
M229.909 106.888
L230.14 106.888
L230.14 95.1416
L229.909 95.1416
z
" style="fill:#4daf4a;"/>
   </g>
   <g id="patch_42">
    <path clip-path="url(#p6a4ae4428d)" d="
M230.14 105.321
L231.366 105.321
L231.366 93.5755
L230.14 93.5755
z
" style="fill:#40cf40;"/>
   </g>
   <g id="patch_43">
    <path clip-path="url(#p6a4ae4428d)" d="
M231.366 106.888
L231.578 106.888
L231.578 95.1416
L231.366 95.1416
z
" style="fill:#4daf4a;"/>
   </g>
   <g id="patch_44">
    <path clip-path="url(#p6a4ae4428d)" d="
M231.578 105.321
L232.019 105.321
L232.019 93.5755
L231.578 93.5755
z
" style="fill:#40cf40;"/>
   </g>
   <g id="patch_45">
    <path clip-path="url(#p6a4ae4428d)" d="
M232.019 106.888
L233.334 106.888
L233.334 95.1416
L232.019 95.1416
z
" style="fill:#4daf4a;"/>
   </g>
   <g id="patch_46">
    <path clip-path="url(#p6a4ae4428d)" d="
M233.334 105.321
L233.411 105.321
L233.411 93.5755
L233.334 93.5755
z
" style="fill:#40cf40;"/>
   </g>
   <g id="patch_47">
    <path clip-path="url(#p6a4ae4428d)" d="
M233.412 106.888
L233.58 106.888
L233.58 95.1416
L233.412 95.1416
z
" style="fill:#4daf4a;"/>
   </g>
   <g id="patch_48">
    <path clip-path="url(#p6a4ae4428d)" d="
M233.58 105.321
L234.244 105.321
L234.244 93.5755
L233.58 93.5755
z
" style="fill:#40cf40;"/>
   </g>
   <g id="patch_49">
    <path clip-path="url(#p6a4ae4428d)" d="
M234.245 106.888
L237.325 106.888
L237.325 95.1416
L234.245 95.1416
z
" style="fill:#4daf4a;"/>
   </g>
   <g id="patch_50">
    <path clip-path="url(#p6a4ae4428d)" d="
M237.325 105.321
L238.896 105.321
L238.896 93.5755
L237.325 93.5755
z
" style="fill:#40cf40;"/>
   </g>
   <g id="patch_51">
    <path clip-path="url(#p6a4ae4428d)" d="
M238.896 106.888
L239.341 106.888
L239.341 95.1416
L238.896 95.1416
z
" style="fill:#4daf4a;"/>
   </g>
   <g id="patch_52">
    <path clip-path="url(#p6a4ae4428d)" d="
M239.352 105.321
L239.745 105.321
L239.745 93.5755
L239.352 93.5755
z
" style="fill:#40cf40;"/>
   </g>
   <g id="patch_53">
    <path clip-path="url(#p6a4ae4428d)" d="
M239.745 106.888
L240.08 106.888
L240.08 95.1416
L239.745 95.1416
z
" style="fill:#4daf4a;"/>
   </g>
   <g id="patch_54">
    <path clip-path="url(#p6a4ae4428d)" d="
M240.08 105.321
L241.374 105.321
L241.374 93.5755
L240.08 93.5755
z
" style="fill:#40cf40;"/>
   </g>
   <g id="patch_55">
    <path clip-path="url(#p6a4ae4428d)" d="
M241.374 106.888
L242.141 106.888
L242.141 95.1416
L241.374 95.1416
z
" style="fill:#4daf4a;"/>
   </g>
   <g id="patch_56">
    <path clip-path="url(#p6a4ae4428d)" d="
M242.141 105.321
L243.316 105.321
L243.316 93.5755
L242.141 93.5755
z
" style="fill:#40cf40;"/>
   </g>
   <g id="patch_57">
    <path clip-path="url(#p6a4ae4428d)" d="
M243.316 106.888
L245.454 106.888
L245.454 95.1416
L243.316 95.1416
z
" style="fill:#4daf4a;"/>
   </g>
   <g id="patch_58">
    <path clip-path="url(#p6a4ae4428d)" d="
M245.454 105.321
L247.535 105.321
L247.535 93.5755
L245.454 93.5755
z
" style="fill:#40cf40;"/>
   </g>
   <g id="patch_59">
    <path clip-path="url(#p6a4ae4428d)" d="
M247.535 106.888
L247.929 106.888
L247.929 95.1416
L247.535 95.1416
z
" style="fill:#4daf4a;"/>
   </g>
   <g id="patch_60">
    <path clip-path="url(#p6a4ae4428d)" d="
M247.944 105.321
L251.265 105.321
L251.265 93.5755
L247.944 93.5755
z
" style="fill:#40cf40;"/>
   </g>
   <g id="patch_61">
    <path clip-path="url(#p6a4ae4428d)" d="
M251.266 106.888
L252.608 106.888
L252.608 95.1416
L251.266 95.1416
z
" style="fill:#4daf4a;"/>
   </g>
   <g id="patch_62">
    <path clip-path="url(#p6a4ae4428d)" d="
M252.608 105.321
L253.254 105.321
L253.254 93.5755
L252.608 93.5755
z
" style="fill:#40cf40;"/>
   </g>
   <g id="patch_63">
    <path clip-path="url(#p6a4ae4428d)" d="
M253.254 106.888
L256.558 106.888
L256.558 95.1416
L253.254 95.1416
z
" style="fill:#4daf4a;"/>
   </g>
   <g id="patch_64">
    <path clip-path="url(#p6a4ae4428d)" d="
M256.558 105.321
L257.161 105.321
L257.161 93.5755
L256.558 93.5755
z
" style="fill:#40cf40;"/>
   </g>
   <g id="patch_65">
    <path clip-path="url(#p6a4ae4428d)" d="
M257.161 106.888
L258.564 106.888
L258.564 95.1416
L257.161 95.1416
z
" style="fill:#4daf4a;"/>
   </g>
   <g id="patch_66">
    <path clip-path="url(#p6a4ae4428d)" d="
M258.564 105.321
L259.769 105.321
L259.769 93.5755
L258.564 93.5755
z
" style="fill:#40cf40;"/>
   </g>
   <g id="patch_67">
    <path clip-path="url(#p6a4ae4428d)" d="
M259.769 106.888
L261.799 106.888
L261.799 95.1416
L259.769 95.1416
z
" style="fill:#4daf4a;"/>
   </g>
   <g id="patch_68">
    <path clip-path="url(#p6a4ae4428d)" d="
M261.799 105.321
L263.823 105.321
L263.823 93.5755
L261.799 93.5755
z
" style="fill:#40cf40;"/>
   </g>
   <g id="patch_69">
    <path clip-path="url(#p6a4ae4428d)" d="
M263.823 106.888
L265.562 106.888
L265.562 95.1416
L263.823 95.1416
z
" style="fill:#4daf4a;"/>
   </g>
   <g id="patch_70">
    <path clip-path="url(#p6a4ae4428d)" d="
M265.563 105.321
L269.504 105.321
L269.504 93.5755
L265.563 93.5755
z
" style="fill:#40cf40;"/>
   </g>
   <g id="patch_71">
    <path clip-path="url(#p6a4ae4428d)" d="
M269.504 106.888
L269.672 106.888
L269.672 95.1416
L269.504 95.1416
z
" style="fill:#4daf4a;"/>
   </g>
   <g id="patch_72">
    <path clip-path="url(#p6a4ae4428d)" d="
M269.672 105.321
L270.164 105.321
L270.164 93.5755
L269.672 93.5755
z
" style="fill:#40cf40;"/>
   </g>
   <g id="patch_73">
    <path clip-path="url(#p6a4ae4428d)" d="
M270.164 106.888
L270.426 106.888
L270.426 95.1416
L270.164 95.1416
z
" style="fill:#4daf4a;"/>
   </g>
   <g id="patch_74">
    <path clip-path="url(#p6a4ae4428d)" d="
M270.426 105.321
L271.888 105.321
L271.888 93.5755
L270.426 93.5755
z
" style="fill:#40cf40;"/>
   </g>
   <g id="patch_75">
    <path clip-path="url(#p6a4ae4428d)" d="
M271.888 106.888
L273.761 106.888
L273.761 95.1416
L271.888 95.1416
z
" style="fill:#4daf4a;"/>
   </g>
   <g id="patch_76">
    <path clip-path="url(#p6a4ae4428d)" d="
M273.762 105.321
L275.133 105.321
L275.133 93.5755
L273.762 93.5755
z
" style="fill:#40cf40;"/>
   </g>
   <g id="patch_77">
    <path clip-path="url(#p6a4ae4428d)" d="
M275.133 106.888
L275.88 106.888
L275.88 95.1416
L275.133 95.1416
z
" style="fill:#4daf4a;"/>
   </g>
   <g id="patch_78">
    <path clip-path="url(#p6a4ae4428d)" d="
M275.88 105.321
L282.103 105.321
L282.103 93.5755
L275.88 93.5755
z
" style="fill:#40cf40;"/>
   </g>
   <g id="patch_79">
    <path clip-path="url(#p6a4ae4428d)" d="
M282.104 106.888
L282.658 106.888
L282.658 95.1416
L282.104 95.1416
z
" style="fill:#4daf4a;"/>
   </g>
   <g id="patch_80">
    <path clip-path="url(#p6a4ae4428d)" d="
M282.658 105.321
L283.233 105.321
L283.233 93.5755
L282.658 93.5755
z
" style="fill:#40cf40;"/>
   </g>
   <g id="patch_81">
    <path clip-path="url(#p6a4ae4428d)" d="
M283.233 106.888
L283.459 106.888
L283.459 95.1416
L283.233 95.1416
z
" style="fill:#4daf4a;"/>
   </g>
   <g id="patch_82">
    <path clip-path="url(#p6a4ae4428d)" d="
M283.459 105.321
L283.891 105.321
L283.891 93.5755
L283.459 93.5755
z
" style="fill:#40cf40;"/>
   </g>
   <g id="patch_83">
    <path clip-path="url(#p6a4ae4428d)" d="
M283.891 106.888
L284.526 106.888
L284.526 95.1416
L283.891 95.1416
z
" style="fill:#4daf4a;"/>
   </g>
   <g id="patch_84">
    <path clip-path="url(#p6a4ae4428d)" d="
M284.526 105.321
L286.09 105.321
L286.09 93.5755
L284.526 93.5755
z
" style="fill:#40cf40;"/>
   </g>
   <g id="patch_85">
    <path clip-path="url(#p6a4ae4428d)" d="
M286.091 106.888
L286.32 106.888
L286.32 95.1416
L286.091 95.1416
z
" style="fill:#4daf4a;"/>
   </g>
   <g id="patch_86">
    <path clip-path="url(#p6a4ae4428d)" d="
M286.32 105.321
L288.154 105.321
L288.154 93.5755
L286.32 93.5755
z
" style="fill:#40cf40;"/>
   </g>
   <g id="patch_87">
    <path clip-path="url(#p6a4ae4428d)" d="
M288.154 106.888
L289.808 106.888
L289.808 95.1416
L288.154 95.1416
z
" style="fill:#4daf4a;"/>
   </g>
   <g id="patch_88">
    <path clip-path="url(#p6a4ae4428d)" d="
M289.808 105.321
L292.763 105.321
L292.763 93.5755
L289.808 93.5755
z
" style="fill:#40cf40;"/>
   </g>
   <g id="patch_89">
    <path clip-path="url(#p6a4ae4428d)" d="
M292.763 106.888
L295.231 106.888
L295.231 95.1416
L292.763 95.1416
z
" style="fill:#4daf4a;"/>
   </g>
   <g id="patch_90">
    <path clip-path="url(#p6a4ae4428d)" d="
M295.231 105.321
L296.731 105.321
L296.731 93.5755
L295.231 93.5755
z
" style="fill:#40cf40;"/>
   </g>
   <g id="patch_91">
    <path clip-path="url(#p6a4ae4428d)" d="
M296.731 106.888
L297.378 106.888
L297.378 95.1416
L296.731 95.1416
z
" style="fill:#4daf4a;"/>
   </g>
   <g id="patch_92">
    <path clip-path="url(#p6a4ae4428d)" d="
M297.379 105.321
L299.04 105.321
L299.04 93.5755
L297.379 93.5755
z
" style="fill:#40cf40;"/>
   </g>
   <g id="patch_93">
    <path clip-path="url(#p6a4ae4428d)" d="
M299.04 106.888
L310.986 106.888
L310.986 95.1416
L299.04 95.1416
z
" style="fill:#4daf4a;"/>
   </g>
   <g id="patch_94">
    <path clip-path="url(#p6a4ae4428d)" d="
M310.986 105.321
L311.185 105.321
L311.185 93.5755
L310.986 93.5755
z
" style="fill:#40cf40;"/>
   </g>
   <g id="patch_95">
    <path clip-path="url(#p6a4ae4428d)" d="
M311.185 106.888
L311.698 106.888
L311.698 95.1416
L311.185 95.1416
z
" style="fill:#4daf4a;"/>
   </g>
   <g id="patch_96">
    <path clip-path="url(#p6a4ae4428d)" d="
M311.731 105.321
L312.185 105.321
L312.185 93.5755
L311.731 93.5755
z
" style="fill:#40cf40;"/>
   </g>
   <g id="patch_97">
    <path clip-path="url(#p6a4ae4428d)" d="
M312.185 106.888
L312.775 106.888
L312.775 95.1416
L312.185 95.1416
z
" style="fill:#4daf4a;"/>
   </g>
   <g id="patch_98">
    <path clip-path="url(#p6a4ae4428d)" d="
M312.775 105.321
L313.148 105.321
L313.148 93.5755
L312.775 93.5755
z
" style="fill:#40cf40;"/>
   </g>
   <g id="patch_99">
    <path clip-path="url(#p6a4ae4428d)" d="
M313.148 106.888
L313.354 106.888
L313.354 95.1416
L313.148 95.1416
z
" style="fill:#4daf4a;"/>
   </g>
   <g id="patch_100">
    <path clip-path="url(#p6a4ae4428d)" d="
M313.354 105.321
L313.915 105.321
L313.915 93.5755
L313.354 93.5755
z
" style="fill:#40cf40;"/>
   </g>
   <g id="patch_101">
    <path clip-path="url(#p6a4ae4428d)" d="
M313.915 106.888
L314.376 106.888
L314.376 95.1416
L313.915 95.1416
z
" style="fill:#4daf4a;"/>
   </g>
   <g id="patch_102">
    <path clip-path="url(#p6a4ae4428d)" d="
M314.376 105.321
L314.483 105.321
L314.483 93.5755
L314.376 93.5755
z
" style="fill:#40cf40;"/>
   </g>
   <g id="patch_103">
    <path clip-path="url(#p6a4ae4428d)" d="
M314.483 106.888
L316.717 106.888
L316.717 95.1416
L314.483 95.1416
z
" style="fill:#4daf4a;"/>
   </g>
   <g id="patch_104">
    <path clip-path="url(#p6a4ae4428d)" d="
M316.717 105.321
L318.393 105.321
L318.393 93.5755
L316.717 93.5755
z
" style="fill:#40cf40;"/>
   </g>
   <g id="patch_105">
    <path clip-path="url(#p6a4ae4428d)" d="
M318.393 106.888
L321.999 106.888
L321.999 95.1416
L318.393 95.1416
z
" style="fill:#4daf4a;"/>
   </g>
   <g id="patch_106">
    <path clip-path="url(#p6a4ae4428d)" d="
M321.999 105.321
L322.517 105.321
L322.517 93.5755
L321.999 93.5755
z
" style="fill:#40cf40;"/>
   </g>
   <g id="patch_107">
    <path clip-path="url(#p6a4ae4428d)" d="
M322.517 106.888
L322.672 106.888
L322.672 95.1416
L322.517 95.1416
z
" style="fill:#4daf4a;"/>
   </g>
   <g id="patch_108">
    <path clip-path="url(#p6a4ae4428d)" d="
M322.672 105.321
L323.993 105.321
L323.993 93.5755
L322.672 93.5755
z
" style="fill:#40cf40;"/>
   </g>
   <g id="patch_109">
    <path clip-path="url(#p6a4ae4428d)" d="
M323.993 106.888
L324.449 106.888
L324.449 95.1416
L323.993 95.1416
z
" style="fill:#4daf4a;"/>
   </g>
   <g id="patch_110">
    <path clip-path="url(#p6a4ae4428d)" d="
M324.449 105.321
L324.689 105.321
L324.689 93.5755
L324.449 93.5755
z
" style="fill:#40cf40;"/>
   </g>
   <g id="patch_111">
    <path clip-path="url(#p6a4ae4428d)" d="
M324.689 106.888
L326.496 106.888
L326.496 95.1416
L324.689 95.1416
z
" style="fill:#4daf4a;"/>
   </g>
   <g id="patch_112">
    <path clip-path="url(#p6a4ae4428d)" d="
M326.496 105.321
L326.547 105.321
L326.547 93.5755
L326.496 93.5755
z
" style="fill:#40cf40;"/>
   </g>
   <g id="patch_113">
    <path clip-path="url(#p6a4ae4428d)" d="
M326.547 106.888
L326.819 106.888
L326.819 95.1416
L326.547 95.1416
z
" style="fill:#4daf4a;"/>
   </g>
   <g id="patch_114">
    <path clip-path="url(#p6a4ae4428d)" d="
M326.82 105.321
L327.131 105.321
L327.131 93.5755
L326.82 93.5755
z
" style="fill:#40cf40;"/>
   </g>
   <g id="patch_115">
    <path clip-path="url(#p6a4ae4428d)" d="
M327.131 106.888
L329.947 106.888
L329.947 95.1416
L327.131 95.1416
z
" style="fill:#4daf4a;"/>
   </g>
   <g id="patch_116">
    <path clip-path="url(#p6a4ae4428d)" d="
M329.947 105.321
L336.056 105.321
L336.056 93.5755
L329.947 93.5755
z
" style="fill:#40cf40;"/>
   </g>
   <g id="patch_117">
    <path clip-path="url(#p6a4ae4428d)" d="
M336.057 106.888
L338.11 106.888
L338.11 95.1416
L336.057 95.1416
z
" style="fill:#4daf4a;"/>
   </g>
   <g id="patch_118">
    <path clip-path="url(#p6a4ae4428d)" d="
M338.11 105.321
L338.844 105.321
L338.844 93.5755
L338.11 93.5755
z
" style="fill:#40cf40;"/>
   </g>
   <g id="patch_119">
    <path clip-path="url(#p6a4ae4428d)" d="
M338.844 106.888
L339.483 106.888
L339.483 95.1416
L338.844 95.1416
z
" style="fill:#4daf4a;"/>
   </g>
   <g id="patch_120">
    <path clip-path="url(#p6a4ae4428d)" d="
M339.484 105.321
L340.393 105.321
L340.393 93.5755
L339.484 93.5755
z
" style="fill:#40cf40;"/>
   </g>
   <g id="patch_121">
    <path clip-path="url(#p6a4ae4428d)" d="
M340.393 106.888
L341.601 106.888
L341.601 95.1416
L340.393 95.1416
z
" style="fill:#4daf4a;"/>
   </g>
   <g id="patch_122">
    <path clip-path="url(#p6a4ae4428d)" d="
M341.601 105.321
L342.602 105.321
L342.602 93.5755
L341.601 93.5755
z
" style="fill:#40cf40;"/>
   </g>
   <g id="patch_123">
    <path clip-path="url(#p6a4ae4428d)" d="
M342.602 106.888
L346.061 106.888
L346.061 95.1416
L342.602 95.1416
z
" style="fill:#4daf4a;"/>
   </g>
   <g id="patch_124">
    <path clip-path="url(#p6a4ae4428d)" d="
M346.061 105.321
L348.683 105.321
L348.683 93.5755
L346.061 93.5755
z
" style="fill:#40cf40;"/>
   </g>
   <g id="patch_125">
    <path clip-path="url(#p6a4ae4428d)" d="
M348.683 106.888
L349.24 106.888
L349.24 95.1416
L348.683 95.1416
z
" style="fill:#4daf4a;"/>
   </g>
   <g id="patch_126">
    <path clip-path="url(#p6a4ae4428d)" d="
M349.24 105.321
L354.681 105.321
L354.681 93.5755
L349.24 93.5755
z
" style="fill:#40cf40;"/>
   </g>
   <g id="patch_127">
    <path clip-path="url(#p6a4ae4428d)" d="
M354.681 106.888
L355.961 106.888
L355.961 95.1416
L354.681 95.1416
z
" style="fill:#4daf4a;"/>
   </g>
   <g id="patch_128">
    <path clip-path="url(#p6a4ae4428d)" d="
M355.961 105.321
L356.878 105.321
L356.878 93.5755
L355.961 93.5755
z
" style="fill:#40cf40;"/>
   </g>
   <g id="patch_129">
    <path clip-path="url(#p6a4ae4428d)" d="
M356.879 106.888
L357.018 106.888
L357.018 95.1416
L356.879 95.1416
z
" style="fill:#4daf4a;"/>
   </g>
   <g id="patch_130">
    <path clip-path="url(#p6a4ae4428d)" d="
M357.018 105.321
L357.401 105.321
L357.401 93.5755
L357.018 93.5755
z
" style="fill:#40cf40;"/>
   </g>
   <g id="patch_131">
    <path clip-path="url(#p6a4ae4428d)" d="
M357.401 106.888
L357.538 106.888
L357.538 95.1416
L357.401 95.1416
z
" style="fill:#4daf4a;"/>
   </g>
   <g id="patch_132">
    <path clip-path="url(#p6a4ae4428d)" d="
M357.539 105.321
L357.581 105.321
L357.581 93.5755
L357.539 93.5755
z
" style="fill:#40cf40;"/>
   </g>
   <g id="patch_133">
    <path clip-path="url(#p6a4ae4428d)" d="
M357.581 106.888
L358.675 106.888
L358.675 95.1416
L357.581 95.1416
z
" style="fill:#4daf4a;"/>
   </g>
   <g id="patch_134">
    <path clip-path="url(#p6a4ae4428d)" d="
M358.675 105.321
L359.16 105.321
L359.16 93.5755
L358.675 93.5755
z
" style="fill:#40cf40;"/>
   </g>
   <g id="patch_135">
    <path clip-path="url(#p6a4ae4428d)" d="
M359.16 106.888
L361.535 106.888
L361.535 95.1416
L359.16 95.1416
z
" style="fill:#4daf4a;"/>
   </g>
   <g id="patch_136">
    <path clip-path="url(#p6a4ae4428d)" d="
M361.535 105.321
L361.785 105.321
L361.785 93.5755
L361.535 93.5755
z
" style="fill:#40cf40;"/>
   </g>
   <g id="patch_137">
    <path clip-path="url(#p6a4ae4428d)" d="
M361.785 106.888
L362.17 106.888
L362.17 95.1416
L361.785 95.1416
z
" style="fill:#4daf4a;"/>
   </g>
   <g id="patch_138">
    <path clip-path="url(#p6a4ae4428d)" d="
M362.17 105.321
L364.739 105.321
L364.739 93.5755
L362.17 93.5755
z
" style="fill:#40cf40;"/>
   </g>
   <g id="patch_139">
    <path clip-path="url(#p6a4ae4428d)" d="
M364.739 106.888
L366.804 106.888
L366.804 95.1416
L364.739 95.1416
z
" style="fill:#4daf4a;"/>
   </g>
   <g id="patch_140">
    <path clip-path="url(#p6a4ae4428d)" d="
M366.805 105.321
L367.58 105.321
L367.58 93.5755
L366.805 93.5755
z
" style="fill:#40cf40;"/>
   </g>
   <g id="patch_141">
    <path clip-path="url(#p6a4ae4428d)" d="
M367.581 106.888
L368.542 106.888
L368.542 95.1416
L367.581 95.1416
z
" style="fill:#4daf4a;"/>
   </g>
   <g id="patch_142">
    <path clip-path="url(#p6a4ae4428d)" d="
M368.543 105.321
L370.896 105.321
L370.896 93.5755
L368.543 93.5755
z
" style="fill:#40cf40;"/>
   </g>
   <g id="patch_143">
    <path clip-path="url(#p6a4ae4428d)" d="
M370.896 106.888
L371.6 106.888
L371.6 95.1416
L370.896 95.1416
z
" style="fill:#4daf4a;"/>
   </g>
   <g id="patch_144">
    <path clip-path="url(#p6a4ae4428d)" d="
M371.6 105.321
L372.253 105.321
L372.253 93.5755
L371.6 93.5755
z
" style="fill:#40cf40;"/>
   </g>
   <g id="patch_145">
    <path clip-path="url(#p6a4ae4428d)" d="
M372.253 106.888
L374.138 106.888
L374.138 95.1416
L372.253 95.1416
z
" style="fill:#4daf4a;"/>
   </g>
   <g id="patch_146">
    <path clip-path="url(#p6a4ae4428d)" d="
M374.139 105.321
L376.272 105.321
L376.272 93.5755
L374.139 93.5755
z
" style="fill:#40cf40;"/>
   </g>
   <g id="patch_147">
    <path clip-path="url(#p6a4ae4428d)" d="
M376.272 106.888
L376.958 106.888
L376.958 95.1416
L376.272 95.1416
z
" style="fill:#4daf4a;"/>
   </g>
   <g id="patch_148">
    <path clip-path="url(#p6a4ae4428d)" d="
M376.958 105.321
L378.908 105.321
L378.908 93.5755
L376.958 93.5755
z
" style="fill:#40cf40;"/>
   </g>
   <g id="patch_149">
    <path clip-path="url(#p6a4ae4428d)" d="
M378.908 106.888
L382.502 106.888
L382.502 95.1416
L378.908 95.1416
z
" style="fill:#4daf4a;"/>
   </g>
   <g id="patch_150">
    <path clip-path="url(#p6a4ae4428d)" d="
M382.502 105.321
L383.484 105.321
L383.484 93.5755
L382.502 93.5755
z
" style="fill:#40cf40;"/>
   </g>
   <g id="patch_151">
    <path clip-path="url(#p6a4ae4428d)" d="
M383.484 106.888
L385.429 106.888
L385.429 95.1416
L383.484 95.1416
z
" style="fill:#4daf4a;"/>
   </g>
   <g id="patch_152">
    <path clip-path="url(#p6a4ae4428d)" d="
M385.429 105.321
L385.885 105.321
L385.885 93.5755
L385.429 93.5755
z
" style="fill:#40cf40;"/>
   </g>
   <g id="patch_153">
    <path clip-path="url(#p6a4ae4428d)" d="
M385.885 106.888
L387.781 106.888
L387.781 95.1416
L385.885 95.1416
z
" style="fill:#4daf4a;"/>
   </g>
   <g id="patch_154">
    <path clip-path="url(#p6a4ae4428d)" d="
M387.781 105.321
L388.306 105.321
L388.306 93.5755
L387.781 93.5755
z
" style="fill:#40cf40;"/>
   </g>
   <g id="patch_155">
    <path clip-path="url(#p6a4ae4428d)" d="
M388.306 106.888
L391.915 106.888
L391.915 95.1416
L388.306 95.1416
z
" style="fill:#4daf4a;"/>
   </g>
   <g id="patch_156">
    <path clip-path="url(#p6a4ae4428d)" d="
M391.915 105.321
L394.75 105.321
L394.75 93.5755
L391.915 93.5755
z
" style="fill:#40cf40;"/>
   </g>
   <g id="patch_157">
    <path clip-path="url(#p6a4ae4428d)" d="
M394.75 106.888
L396.913 106.888
L396.913 95.1416
L394.75 95.1416
z
" style="fill:#4daf4a;"/>
   </g>
   <g id="patch_158">
    <path clip-path="url(#p6a4ae4428d)" d="
M396.913 105.321
L397.424 105.321
L397.424 93.5755
L396.913 93.5755
z
" style="fill:#40cf40;"/>
   </g>
   <g id="patch_159">
    <path clip-path="url(#p6a4ae4428d)" d="
M397.424 106.888
L397.7 106.888
L397.7 95.1416
L397.424 95.1416
z
" style="fill:#4daf4a;"/>
   </g>
   <g id="patch_160">
    <path clip-path="url(#p6a4ae4428d)" d="
M397.7 105.321
L398.485 105.321
L398.485 93.5755
L397.7 93.5755
z
" style="fill:#40cf40;"/>
   </g>
   <g id="patch_161">
    <path clip-path="url(#p6a4ae4428d)" d="
M398.485 106.888
L399.268 106.888
L399.268 95.1416
L398.485 95.1416
z
" style="fill:#4daf4a;"/>
   </g>
   <g id="patch_162">
    <path clip-path="url(#p6a4ae4428d)" d="
M399.268 105.321
L400.531 105.321
L400.531 93.5755
L399.268 93.5755
z
" style="fill:#40cf40;"/>
   </g>
   <g id="patch_163">
    <path clip-path="url(#p6a4ae4428d)" d="
M400.562 106.888
L401.634 106.888
L401.634 95.1416
L400.562 95.1416
z
" style="fill:#4daf4a;"/>
   </g>
   <g id="patch_164">
    <path clip-path="url(#p6a4ae4428d)" d="
M401.634 105.321
L402.759 105.321
L402.759 93.5755
L401.634 93.5755
z
" style="fill:#40cf40;"/>
   </g>
   <g id="patch_165">
    <path clip-path="url(#p6a4ae4428d)" d="
M402.759 106.888
L403.044 106.888
L403.044 95.1416
L402.759 95.1416
z
" style="fill:#4daf4a;"/>
   </g>
   <g id="patch_166">
    <path clip-path="url(#p6a4ae4428d)" d="
M403.044 105.321
L408.98 105.321
L408.98 93.5755
L403.044 93.5755
z
" style="fill:#40cf40;"/>
   </g>
   <g id="patch_167">
    <path clip-path="url(#p6a4ae4428d)" d="
M408.98 106.888
L409.176 106.888
L409.176 95.1416
L408.98 95.1416
z
" style="fill:#4daf4a;"/>
   </g>
   <g id="patch_168">
    <path clip-path="url(#p6a4ae4428d)" d="
M409.176 105.321
L409.466 105.321
L409.466 93.5755
L409.176 93.5755
z
" style="fill:#40cf40;"/>
   </g>
   <g id="patch_169">
    <path clip-path="url(#p6a4ae4428d)" d="
M409.466 106.888
L409.585 106.888
L409.585 95.1416
L409.466 95.1416
z
" style="fill:#4daf4a;"/>
   </g>
   <g id="patch_170">
    <path clip-path="url(#p6a4ae4428d)" d="
M409.585 105.321
L410.257 105.321
L410.257 93.5755
L409.585 93.5755
z
" style="fill:#40cf40;"/>
   </g>
   <g id="patch_171">
    <path clip-path="url(#p6a4ae4428d)" d="
M410.257 106.888
L410.31 106.888
L410.31 95.1416
L410.257 95.1416
z
" style="fill:#4daf4a;"/>
   </g>
   <g id="patch_172">
    <path clip-path="url(#p6a4ae4428d)" d="
M410.31 105.321
L410.551 105.321
L410.551 93.5755
L410.31 93.5755
z
" style="fill:#40cf40;"/>
   </g>
   <g id="patch_173">
    <path clip-path="url(#p6a4ae4428d)" d="
M410.551 106.888
L411.975 106.888
L411.975 95.1416
L410.551 95.1416
z
" style="fill:#4daf4a;"/>
   </g>
   <g id="patch_174">
    <path clip-path="url(#p6a4ae4428d)" d="
M411.975 105.321
L412.327 105.321
L412.327 93.5755
L411.975 93.5755
z
" style="fill:#40cf40;"/>
   </g>
   <g id="patch_175">
    <path clip-path="url(#p6a4ae4428d)" d="
M412.327 106.888
L413.781 106.888
L413.781 95.1416
L412.327 95.1416
z
" style="fill:#4daf4a;"/>
   </g>
   <g id="patch_176">
    <path clip-path="url(#p6a4ae4428d)" d="
M413.781 105.321
L415.399 105.321
L415.399 93.5755
L413.781 93.5755
z
" style="fill:#40cf40;"/>
   </g>
   <g id="patch_177">
    <path clip-path="url(#p6a4ae4428d)" d="
M415.4 106.888
L418.225 106.888
L418.225 95.1416
L415.4 95.1416
z
" style="fill:#4daf4a;"/>
   </g>
   <g id="patch_178">
    <path clip-path="url(#p6a4ae4428d)" d="
M418.225 105.321
L422.86 105.321
L422.86 93.5755
L418.225 93.5755
z
" style="fill:#40cf40;"/>
   </g>
   <g id="patch_179">
    <path clip-path="url(#p6a4ae4428d)" d="
M422.86 106.888
L424.886 106.888
L424.886 95.1416
L422.86 95.1416
z
" style="fill:#4daf4a;"/>
   </g>
   <g id="patch_180">
    <path clip-path="url(#p6a4ae4428d)" d="
M424.886 105.321
L425.701 105.321
L425.701 93.5755
L424.886 93.5755
z
" style="fill:#40cf40;"/>
   </g>
   <g id="patch_181">
    <path clip-path="url(#p6a4ae4428d)" d="
M425.701 106.888
L426.188 106.888
L426.188 95.1416
L425.701 95.1416
z
" style="fill:#4daf4a;"/>
   </g>
   <g id="patch_182">
    <path clip-path="url(#p6a4ae4428d)" d="
M426.188 105.321
L426.79 105.321
L426.79 93.5755
L426.188 93.5755
z
" style="fill:#40cf40;"/>
   </g>
   <g id="patch_183">
    <path clip-path="url(#p6a4ae4428d)" d="
M426.79 106.888
L426.969 106.888
L426.969 95.1416
L426.79 95.1416
z
" style="fill:#4daf4a;"/>
   </g>
   <g id="patch_184">
    <path clip-path="url(#p6a4ae4428d)" d="
M426.97 105.321
L427.424 105.321
L427.424 93.5755
L426.97 93.5755
z
" style="fill:#40cf40;"/>
   </g>
   <g id="patch_185">
    <path clip-path="url(#p6a4ae4428d)" d="
M427.424 106.888
L427.651 106.888
L427.651 95.1416
L427.424 95.1416
z
" style="fill:#4daf4a;"/>
   </g>
   <g id="patch_186">
    <path clip-path="url(#p6a4ae4428d)" d="
M427.651 105.321
L429.033 105.321
L429.033 93.5755
L427.651 93.5755
z
" style="fill:#40cf40;"/>
   </g>
   <g id="patch_187">
    <path clip-path="url(#p6a4ae4428d)" d="
M429.034 106.888
L432.41 106.888
L432.41 95.1416
L429.034 95.1416
z
" style="fill:#4daf4a;"/>
   </g>
   <g id="patch_188">
    <path clip-path="url(#p6a4ae4428d)" d="
M432.41 105.321
L432.75 105.321
L432.75 93.5755
L432.41 93.5755
z
" style="fill:#40cf40;"/>
   </g>
   <g id="patch_189">
    <path clip-path="url(#p6a4ae4428d)" d="
M432.75 106.888
L433.947 106.888
L433.947 95.1416
L432.75 95.1416
z
" style="fill:#4daf4a;"/>
   </g>
   <g id="patch_190">
    <path clip-path="url(#p6a4ae4428d)" d="
M433.947 105.321
L435.951 105.321
L435.951 93.5755
L433.947 93.5755
z
" style="fill:#40cf40;"/>
   </g>
   <g id="patch_191">
    <path clip-path="url(#p6a4ae4428d)" d="
M435.951 106.888
L436.383 106.888
L436.383 95.1416
L435.951 95.1416
z
" style="fill:#4daf4a;"/>
   </g>
   <g id="patch_192">
    <path clip-path="url(#p6a4ae4428d)" d="
M436.383 105.321
L436.706 105.321
L436.706 93.5755
L436.383 93.5755
z
" style="fill:#40cf40;"/>
   </g>
   <g id="patch_193">
    <path clip-path="url(#p6a4ae4428d)" d="
M436.706 106.888
L438.174 106.888
L438.174 95.1416
L436.706 95.1416
z
" style="fill:#4daf4a;"/>
   </g>
   <g id="patch_194">
    <path clip-path="url(#p6a4ae4428d)" d="
M438.175 105.321
L441.82 105.321
L441.82 93.5755
L438.175 93.5755
z
" style="fill:#40cf40;"/>
   </g>
   <g id="patch_195">
    <path clip-path="url(#p6a4ae4428d)" d="
M441.82 106.888
L446.296 106.888
L446.296 95.1416
L441.82 95.1416
z
" style="fill:#4daf4a;"/>
   </g>
   <g id="patch_196">
    <path clip-path="url(#p6a4ae4428d)" d="
M446.296 105.321
L446.704 105.321
L446.704 93.5755
L446.296 93.5755
z
" style="fill:#40cf40;"/>
   </g>
   <g id="patch_197">
    <path clip-path="url(#p6a4ae4428d)" d="
M446.704 106.888
L448.461 106.888
L448.461 95.1416
L446.704 95.1416
z
" style="fill:#4daf4a;"/>
   </g>
   <g id="patch_198">
    <path clip-path="url(#p6a4ae4428d)" d="
M448.461 105.321
L452.029 105.321
L452.029 93.5755
L448.461 93.5755
z
" style="fill:#40cf40;"/>
   </g>
   <g id="patch_199">
    <path clip-path="url(#p6a4ae4428d)" d="
M452.029 106.888
L452.82 106.888
L452.82 95.1416
L452.029 95.1416
z
" style="fill:#4daf4a;"/>
   </g>
   <g id="patch_200">
    <path clip-path="url(#p6a4ae4428d)" d="
M452.82 105.321
L453.651 105.321
L453.651 93.5755
L452.82 93.5755
z
" style="fill:#40cf40;"/>
   </g>
   <g id="patch_201">
    <path clip-path="url(#p6a4ae4428d)" d="
M453.651 106.888
L453.995 106.888
L453.995 95.1416
L453.651 95.1416
z
" style="fill:#4daf4a;"/>
   </g>
   <g id="patch_202">
    <path clip-path="url(#p6a4ae4428d)" d="
M453.995 105.321
L454.928 105.321
L454.928 93.5755
L453.995 93.5755
z
" style="fill:#40cf40;"/>
   </g>
   <g id="patch_203">
    <path clip-path="url(#p6a4ae4428d)" d="
M454.928 106.888
L457.955 106.888
L457.955 95.1416
L454.928 95.1416
z
" style="fill:#4daf4a;"/>
   </g>
   <g id="patch_204">
    <path clip-path="url(#p6a4ae4428d)" d="
M457.955 105.321
L458.804 105.321
L458.804 93.5755
L457.955 93.5755
z
" style="fill:#40cf40;"/>
   </g>
   <g id="patch_205">
    <path clip-path="url(#p6a4ae4428d)" d="
M458.822 106.888
L463.259 106.888
L463.259 95.1416
L458.822 95.1416
z
" style="fill:#4daf4a;"/>
   </g>
   <g id="patch_206">
    <path clip-path="url(#p6a4ae4428d)" d="
M463.259 105.321
L463.362 105.321
L463.362 93.5755
L463.259 93.5755
z
" style="fill:#40cf40;"/>
   </g>
   <g id="patch_207">
    <path clip-path="url(#p6a4ae4428d)" d="
M463.362 106.888
L465.351 106.888
L465.351 95.1416
L463.362 95.1416
z
" style="fill:#4daf4a;"/>
   </g>
   <g id="patch_208">
    <path clip-path="url(#p6a4ae4428d)" d="
M465.351 105.321
L466.305 105.321
L466.305 93.5755
L465.351 93.5755
z
" style="fill:#40cf40;"/>
   </g>
   <g id="patch_209">
    <path clip-path="url(#p6a4ae4428d)" d="
M466.305 106.888
L466.557 106.888
L466.557 95.1416
L466.305 95.1416
z
" style="fill:#4daf4a;"/>
   </g>
   <g id="patch_210">
    <path clip-path="url(#p6a4ae4428d)" d="
M466.557 105.321
L468.211 105.321
L468.211 93.5755
L466.557 93.5755
z
" style="fill:#40cf40;"/>
   </g>
   <g id="patch_211">
    <path clip-path="url(#p6a4ae4428d)" d="
M468.211 106.888
L468.519 106.888
L468.519 95.1416
L468.211 95.1416
z
" style="fill:#4daf4a;"/>
   </g>
   <g id="patch_212">
    <path clip-path="url(#p6a4ae4428d)" d="
M468.519 105.321
L469.708 105.321
L469.708 93.5755
L468.519 93.5755
z
" style="fill:#40cf40;"/>
   </g>
   <g id="patch_213">
    <path clip-path="url(#p6a4ae4428d)" d="
M469.708 106.888
L470.634 106.888
L470.634 95.1416
L469.708 95.1416
z
" style="fill:#4daf4a;"/>
   </g>
   <g id="patch_214">
    <path clip-path="url(#p6a4ae4428d)" d="
M470.634 105.321
L471.162 105.321
L471.162 93.5755
L470.634 93.5755
z
" style="fill:#40cf40;"/>
   </g>
   <g id="patch_215">
    <path clip-path="url(#p6a4ae4428d)" d="
M471.162 106.888
L477.119 106.888
L477.119 95.1416
L471.162 95.1416
z
" style="fill:#4daf4a;"/>
   </g>
   <g id="patch_216">
    <path clip-path="url(#p6a4ae4428d)" d="
M477.12 105.321
L477.287 105.321
L477.287 93.5755
L477.12 93.5755
z
" style="fill:#40cf40;"/>
   </g>
   <g id="patch_217">
    <path clip-path="url(#p6a4ae4428d)" d="
M477.287 106.888
L481.512 106.888
L481.512 95.1416
L477.287 95.1416
z
" style="fill:#4daf4a;"/>
   </g>
   <g id="patch_218">
    <path clip-path="url(#p6a4ae4428d)" d="
M481.514 105.321
L482.203 105.321
L482.203 93.5755
L481.514 93.5755
z
" style="fill:#40cf40;"/>
   </g>
   <g id="patch_219">
    <path clip-path="url(#p6a4ae4428d)" d="
M482.203 106.888
L483.023 106.888
L483.023 95.1416
L482.203 95.1416
z
" style="fill:#4daf4a;"/>
   </g>
   <g id="patch_220">
    <path clip-path="url(#p6a4ae4428d)" d="
M483.023 105.321
L485.19 105.321
L485.19 93.5755
L483.023 93.5755
z
" style="fill:#40cf40;"/>
   </g>
   <g id="patch_221">
    <path clip-path="url(#p6a4ae4428d)" d="
M485.19 106.888
L485.493 106.888
L485.493 95.1416
L485.19 95.1416
z
" style="fill:#4daf4a;"/>
   </g>
   <g id="patch_222">
    <path clip-path="url(#p6a4ae4428d)" d="
M485.493 105.321
L486.186 105.321
L486.186 93.5755
L485.493 93.5755
z
" style="fill:#40cf40;"/>
   </g>
   <g id="patch_223">
    <path clip-path="url(#p6a4ae4428d)" d="
M486.186 106.888
L490.683 106.888
L490.683 95.1416
L486.186 95.1416
z
" style="fill:#4daf4a;"/>
   </g>
   <g id="patch_224">
    <path clip-path="url(#p6a4ae4428d)" d="
M490.683 105.321
L491.908 105.321
L491.908 93.5755
L490.683 93.5755
z
" style="fill:#40cf40;"/>
   </g>
   <g id="patch_225">
    <path clip-path="url(#p6a4ae4428d)" d="
M491.908 106.888
L492.558 106.888
L492.558 95.1416
L491.908 95.1416
z
" style="fill:#4daf4a;"/>
   </g>
   <g id="patch_226">
    <path clip-path="url(#p6a4ae4428d)" d="
M492.558 105.321
L492.801 105.321
L492.801 93.5755
L492.558 93.5755
z
" style="fill:#40cf40;"/>
   </g>
   <g id="patch_227">
    <path clip-path="url(#p6a4ae4428d)" d="
M492.801 106.888
L492.871 106.888
L492.871 95.1416
L492.801 95.1416
z
" style="fill:#4daf4a;"/>
   </g>
   <g id="patch_228">
    <path clip-path="url(#p6a4ae4428d)" d="
M492.871 105.321
L493.135 105.321
L493.135 93.5755
L492.871 93.5755
z
" style="fill:#40cf40;"/>
   </g>
   <g id="patch_229">
    <path clip-path="url(#p6a4ae4428d)" d="
M493.136 106.888
L493.911 106.888
L493.911 95.1416
L493.136 95.1416
z
" style="fill:#4daf4a;"/>
   </g>
   <g id="patch_230">
    <path clip-path="url(#p6a4ae4428d)" d="
M493.911 105.321
L494.996 105.321
L494.996 93.5755
L493.911 93.5755
z
" style="fill:#40cf40;"/>
   </g>
   <g id="patch_231">
    <path clip-path="url(#p6a4ae4428d)" d="
M494.996 106.888
L495.143 106.888
L495.143 95.1416
L494.996 95.1416
z
" style="fill:#4daf4a;"/>
   </g>
   <g id="patch_232">
    <path clip-path="url(#p6a4ae4428d)" d="
M495.143 105.321
L496.04 105.321
L496.04 93.5755
L495.143 93.5755
z
" style="fill:#40cf40;"/>
   </g>
   <g id="patch_233">
    <path clip-path="url(#p6a4ae4428d)" d="
M496.041 106.888
L503.075 106.888
L503.075 95.1416
L496.041 95.1416
z
" style="fill:#4daf4a;"/>
   </g>
   <g id="patch_234">
    <path clip-path="url(#p6a4ae4428d)" d="
M503.075 105.321
L503.972 105.321
L503.972 93.5755
L503.075 93.5755
z
" style="fill:#40cf40;"/>
   </g>
   <g id="patch_235">
    <path clip-path="url(#p6a4ae4428d)" d="
M503.972 106.888
L504.871 106.888
L504.871 95.1416
L503.972 95.1416
z
" style="fill:#4daf4a;"/>
   </g>
   <g id="patch_236">
    <path clip-path="url(#p6a4ae4428d)" d="
M504.871 105.321
L505.035 105.321
L505.035 93.5755
L504.871 93.5755
z
" style="fill:#40cf40;"/>
   </g>
   <g id="patch_237">
    <path clip-path="url(#p6a4ae4428d)" d="
M505.035 106.888
L505.649 106.888
L505.649 95.1416
L505.035 95.1416
z
" style="fill:#4daf4a;"/>
   </g>
   <g id="patch_238">
    <path clip-path="url(#p6a4ae4428d)" d="
M505.649 105.321
L507.007 105.321
L507.007 93.5755
L505.649 93.5755
z
" style="fill:#40cf40;"/>
   </g>
   <g id="patch_239">
    <path clip-path="url(#p6a4ae4428d)" d="
M507.007 106.888
L510.778 106.888
L510.778 95.1416
L507.007 95.1416
z
" style="fill:#4daf4a;"/>
   </g>
   <g id="patch_240">
    <path clip-path="url(#p6a4ae4428d)" d="
M510.778 105.321
L511.247 105.321
L511.247 93.5755
L510.778 93.5755
z
" style="fill:#40cf40;"/>
   </g>
   <g id="patch_241">
    <path clip-path="url(#p6a4ae4428d)" d="
M511.247 106.888
L513.917 106.888
L513.917 95.1416
L511.247 95.1416
z
" style="fill:#4daf4a;"/>
   </g>
   <g id="patch_242">
    <path clip-path="url(#p6a4ae4428d)" d="
M513.917 105.321
L515.007 105.321
L515.007 93.5755
L513.917 93.5755
z
" style="fill:#40cf40;"/>
   </g>
   <g id="patch_243">
    <path clip-path="url(#p6a4ae4428d)" d="
M515.007 106.888
L517.699 106.888
L517.699 95.1416
L515.007 95.1416
z
" style="fill:#4daf4a;"/>
   </g>
   <g id="patch_244">
    <path clip-path="url(#p6a4ae4428d)" d="
M517.699 105.321
L520.038 105.321
L520.038 93.5755
L517.699 93.5755
z
" style="fill:#40cf40;"/>
   </g>
   <g id="patch_245">
    <path clip-path="url(#p6a4ae4428d)" d="
M520.038 106.888
L520.905 106.888
L520.905 95.1416
L520.038 95.1416
z
" style="fill:#4daf4a;"/>
   </g>
   <g id="patch_246">
    <path clip-path="url(#p6a4ae4428d)" d="
M520.905 105.321
L526.287 105.321
L526.287 93.5755
L520.905 93.5755
z
" style="fill:#40cf40;"/>
   </g>
   <g id="patch_247">
    <path clip-path="url(#p6a4ae4428d)" d="
M526.287 106.888
L527.018 106.888
L527.018 95.1416
L526.287 95.1416
z
" style="fill:#4daf4a;"/>
   </g>
   <g id="patch_248">
    <path clip-path="url(#p6a4ae4428d)" d="
M527.018 105.321
L527.503 105.321
L527.503 93.5755
L527.018 93.5755
z
" style="fill:#40cf40;"/>
   </g>
   <g id="patch_249">
    <path clip-path="url(#p6a4ae4428d)" d="
M527.503 106.888
L527.91 106.888
L527.91 95.1416
L527.503 95.1416
z
" style="fill:#4daf4a;"/>
   </g>
   <g id="patch_250">
    <path clip-path="url(#p6a4ae4428d)" d="
M527.911 105.321
L528.625 105.321
L528.625 93.5755
L527.911 93.5755
z
" style="fill:#40cf40;"/>
   </g>
   <g id="patch_251">
    <path clip-path="url(#p6a4ae4428d)" d="
M528.625 106.888
L528.698 106.888
L528.698 95.1416
L528.625 95.1416
z
" style="fill:#4daf4a;"/>
   </g>
   <g id="patch_252">
    <path clip-path="url(#p6a4ae4428d)" d="
M528.698 105.321
L529.264 105.321
L529.264 93.5755
L528.698 93.5755
z
" style="fill:#40cf40;"/>
   </g>
   <g id="patch_253">
    <path clip-path="url(#p6a4ae4428d)" d="
M529.265 106.888
L532.608 106.888
L532.608 95.1416
L529.265 95.1416
z
" style="fill:#4daf4a;"/>
   </g>
   <g id="patch_254">
    <path clip-path="url(#p6a4ae4428d)" d="
M532.608 105.321
L532.762 105.321
L532.762 93.5755
L532.608 93.5755
z
" style="fill:#40cf40;"/>
   </g>
   <g id="patch_255">
    <path clip-path="url(#p6a4ae4428d)" d="
M532.762 106.888
L533.15 106.888
L533.15 95.1416
L532.762 95.1416
z
" style="fill:#4daf4a;"/>
   </g>
   <g id="patch_256">
    <path clip-path="url(#p6a4ae4428d)" d="
M533.15 105.321
L535.849 105.321
L535.849 93.5755
L533.15 93.5755
z
" style="fill:#40cf40;"/>
   </g>
   <g id="patch_257">
    <path clip-path="url(#p6a4ae4428d)" d="
M535.849 106.888
L536.088 106.888
L536.088 95.1416
L535.849 95.1416
z
" style="fill:#4daf4a;"/>
   </g>
   <g id="patch_258">
    <path clip-path="url(#p6a4ae4428d)" d="
M536.088 105.321
L537.865 105.321
L537.865 93.5755
L536.088 93.5755
z
" style="fill:#40cf40;"/>
   </g>
   <g id="patch_259">
    <path clip-path="url(#p6a4ae4428d)" d="
M537.865 106.888
L539.173 106.888
L539.173 95.1416
L537.865 95.1416
z
" style="fill:#4daf4a;"/>
   </g>
   <g id="patch_260">
    <path clip-path="url(#p6a4ae4428d)" d="
M539.173 105.321
L541.311 105.321
L541.311 93.5755
L539.173 93.5755
z
" style="fill:#40cf40;"/>
   </g>
   <g id="patch_261">
    <path clip-path="url(#p6a4ae4428d)" d="
M541.311 106.888
L542.164 106.888
L542.164 95.1416
L541.311 95.1416
z
" style="fill:#4daf4a;"/>
   </g>
   <g id="patch_262">
    <path clip-path="url(#p6a4ae4428d)" d="
M542.164 105.321
L542.44 105.321
L542.44 93.5755
L542.164 93.5755
z
" style="fill:#40cf40;"/>
   </g>
   <g id="patch_263">
    <path clip-path="url(#p6a4ae4428d)" d="
M542.44 106.888
L546.932 106.888
L546.932 95.1416
L542.44 95.1416
z
" style="fill:#4daf4a;"/>
   </g>
   <g id="patch_264">
    <path clip-path="url(#p6a4ae4428d)" d="
M546.932 105.321
L547.136 105.321
L547.136 93.5755
L546.932 93.5755
z
" style="fill:#40cf40;"/>
   </g>
   <g id="patch_265">
    <path clip-path="url(#p6a4ae4428d)" d="
M547.137 106.888
L547.923 106.888
L547.923 95.1416
L547.137 95.1416
z
" style="fill:#4daf4a;"/>
   </g>
   <g id="patch_266">
    <path clip-path="url(#p6a4ae4428d)" d="
M547.923 105.321
L554.27 105.321
L554.27 93.5755
L547.923 93.5755
z
" style="fill:#40cf40;"/>
   </g>
   <g id="patch_267">
    <path clip-path="url(#p6a4ae4428d)" d="
M554.278 106.888
L555.412 106.888
L555.412 95.1416
L554.278 95.1416
z
" style="fill:#4daf4a;"/>
   </g>
   <g id="patch_268">
    <path clip-path="url(#p6a4ae4428d)" d="
M555.412 105.321
L555.79 105.321
L555.79 93.5755
L555.412 93.5755
z
" style="fill:#40cf40;"/>
   </g>
   <g id="patch_269">
    <path clip-path="url(#p6a4ae4428d)" d="
M555.79 106.888
L556.971 106.888
L556.971 95.1416
L555.79 95.1416
z
" style="fill:#4daf4a;"/>
   </g>
   <g id="patch_270">
    <path clip-path="url(#p6a4ae4428d)" d="
M556.971 105.321
L557.489 105.321
L557.489 93.5755
L556.971 93.5755
z
" style="fill:#40cf40;"/>
   </g>
   <g id="patch_271">
    <path clip-path="url(#p6a4ae4428d)" d="
M557.489 106.888
L559.028 106.888
L559.028 95.1416
L557.489 95.1416
z
" style="fill:#4daf4a;"/>
   </g>
   <g id="patch_272">
    <path clip-path="url(#p6a4ae4428d)" d="
M559.028 105.321
L562.43 105.321
L562.43 93.5755
L559.028 93.5755
z
" style="fill:#40cf40;"/>
   </g>
   <g id="patch_273">
    <path clip-path="url(#p6a4ae4428d)" d="
M562.43 106.888
L563.721 106.888
L563.721 95.1416
L562.43 95.1416
z
" style="fill:#4daf4a;"/>
   </g>
   <g id="patch_274">
    <path clip-path="url(#p6a4ae4428d)" d="
M563.721 105.321
L563.974 105.321
L563.974 93.5755
L563.721 93.5755
z
" style="fill:#40cf40;"/>
   </g>
   <g id="patch_275">
    <path clip-path="url(#p6a4ae4428d)" d="
M563.974 106.888
L565.722 106.888
L565.722 95.1416
L563.974 95.1416
z
" style="fill:#4daf4a;"/>
   </g>
   <g id="patch_276">
    <path clip-path="url(#p6a4ae4428d)" d="
M565.722 105.321
L567.98 105.321
L567.98 93.5755
L565.722 93.5755
z
" style="fill:#40cf40;"/>
   </g>
   <g id="patch_277">
    <path clip-path="url(#p6a4ae4428d)" d="
M567.98 106.888
L573.743 106.888
L573.743 95.1416
L567.98 95.1416
z
" style="fill:#4daf4a;"/>
   </g>
   <g id="patch_278">
    <path clip-path="url(#p6a4ae4428d)" d="
M573.743 105.321
L574.343 105.321
L574.343 93.5755
L573.743 93.5755
z
" style="fill:#40cf40;"/>
   </g>
   <g id="patch_279">
    <path clip-path="url(#p6a4ae4428d)" d="
M574.343 106.888
L581.319 106.888
L581.319 95.1416
L574.343 95.1416
z
" style="fill:#4daf4a;"/>
   </g>
   <g id="patch_280">
    <path clip-path="url(#p6a4ae4428d)" d="
M581.319 105.321
L581.371 105.321
L581.371 93.5755
L581.319 93.5755
z
" style="fill:#40cf40;"/>
   </g>
   <g id="patch_281">
    <path clip-path="url(#p6a4ae4428d)" d="
M581.371 106.888
L581.504 106.888
L581.504 95.1416
L581.371 95.1416
z
" style="fill:#4daf4a;"/>
   </g>
   <g id="patch_282">
    <path clip-path="url(#p6a4ae4428d)" d="
M581.504 105.321
L582.622 105.321
L582.622 93.5755
L581.504 93.5755
z
" style="fill:#40cf40;"/>
   </g>
   <g id="patch_283">
    <path clip-path="url(#p6a4ae4428d)" d="
M582.622 106.888
L584.355 106.888
L584.355 95.1416
L582.622 95.1416
z
" style="fill:#4daf4a;"/>
   </g>
   <g id="patch_284">
    <path clip-path="url(#p6a4ae4428d)" d="
M584.355 105.321
L585.737 105.321
L585.737 93.5755
L584.355 93.5755
z
" style="fill:#40cf40;"/>
   </g>
   <g id="patch_285">
    <path clip-path="url(#p6a4ae4428d)" d="
M585.737 106.888
L586.271 106.888
L586.271 95.1416
L585.737 95.1416
z
" style="fill:#4daf4a;"/>
   </g>
   <g id="patch_286">
    <path clip-path="url(#p6a4ae4428d)" d="
M586.271 105.321
L587.088 105.321
L587.088 93.5755
L586.271 93.5755
z
" style="fill:#40cf40;"/>
   </g>
   <g id="patch_287">
    <path clip-path="url(#p6a4ae4428d)" d="
M587.088 106.888
L587.639 106.888
L587.639 95.1416
L587.088 95.1416
z
" style="fill:#4daf4a;"/>
   </g>
   <g id="patch_288">
    <path clip-path="url(#p6a4ae4428d)" d="
M587.639 105.321
L588.242 105.321
L588.242 93.5755
L587.639 93.5755
z
" style="fill:#40cf40;"/>
   </g>
   <g id="patch_289">
    <path clip-path="url(#p6a4ae4428d)" d="
M588.242 106.888
L588.529 106.888
L588.529 95.1416
L588.242 95.1416
z
" style="fill:#4daf4a;"/>
   </g>
   <g id="patch_290">
    <path clip-path="url(#p6a4ae4428d)" d="
M588.529 105.321
L589.254 105.321
L589.254 93.5755
L588.529 93.5755
z
" style="fill:#40cf40;"/>
   </g>
   <g id="patch_291">
    <path clip-path="url(#p6a4ae4428d)" d="
M589.254 106.888
L589.551 106.888
L589.551 95.1416
L589.254 95.1416
z
" style="fill:#4daf4a;"/>
   </g>
   <g id="patch_292">
    <path clip-path="url(#p6a4ae4428d)" d="
M589.552 105.321
L592.853 105.321
L592.853 93.5755
L589.552 93.5755
z
" style="fill:#40cf40;"/>
   </g>
   <g id="patch_293">
    <path clip-path="url(#p6a4ae4428d)" d="
M592.853 106.888
L595.948 106.888
L595.948 95.1416
L592.853 95.1416
z
" style="fill:#4daf4a;"/>
   </g>
   <g id="patch_294">
    <path clip-path="url(#p6a4ae4428d)" d="
M595.948 105.321
L596.045 105.321
L596.045 93.5755
L595.948 93.5755
z
" style="fill:#40cf40;"/>
   </g>
   <g id="patch_295">
    <path clip-path="url(#p6a4ae4428d)" d="
M596.045 106.888
L596.422 106.888
L596.422 95.1416
L596.045 95.1416
z
" style="fill:#4daf4a;"/>
   </g>
   <g id="patch_296">
    <path clip-path="url(#p6a4ae4428d)" d="
M596.422 105.321
L596.539 105.321
L596.539 93.5755
L596.422 93.5755
z
" style="fill:#40cf40;"/>
   </g>
   <g id="patch_297">
    <path clip-path="url(#p6a4ae4428d)" d="
M596.539 106.888
L596.673 106.888
L596.673 95.1416
L596.539 95.1416
z
" style="fill:#4daf4a;"/>
   </g>
   <g id="patch_298">
    <path clip-path="url(#p6a4ae4428d)" d="
M596.673 105.321
L597.038 105.321
L597.038 93.5755
L596.673 93.5755
z
" style="fill:#40cf40;"/>
   </g>
   <g id="patch_299">
    <path clip-path="url(#p6a4ae4428d)" d="
M597.038 106.888
L600.674 106.888
L600.674 95.1416
L597.038 95.1416
z
" style="fill:#4daf4a;"/>
   </g>
   <g id="patch_300">
    <path clip-path="url(#p6a4ae4428d)" d="
M600.674 105.321
L601.548 105.321
L601.548 93.5755
L600.674 93.5755
z
" style="fill:#40cf40;"/>
   </g>
   <g id="patch_301">
    <path clip-path="url(#p6a4ae4428d)" d="
M601.548 106.888
L601.953 106.888
L601.953 95.1416
L601.548 95.1416
z
" style="fill:#4daf4a;"/>
   </g>
   <g id="patch_302">
    <path clip-path="url(#p6a4ae4428d)" d="
M601.953 105.321
L602.239 105.321
L602.239 93.5755
L601.953 93.5755
z
" style="fill:#40cf40;"/>
   </g>
   <g id="patch_303">
    <path clip-path="url(#p6a4ae4428d)" d="
M602.239 106.888
L604.855 106.888
L604.855 95.1416
L602.239 95.1416
z
" style="fill:#4daf4a;"/>
   </g>
   <g id="patch_304">
    <path clip-path="url(#p6a4ae4428d)" d="
M604.855 105.321
L609.182 105.321
L609.182 93.5755
L604.855 93.5755
z
" style="fill:#40cf40;"/>
   </g>
   <g id="patch_305">
    <path clip-path="url(#p6a4ae4428d)" d="
M609.182 106.888
L611.795 106.888
L611.795 95.1416
L609.182 95.1416
z
" style="fill:#4daf4a;"/>
   </g>
   <g id="patch_306">
    <path clip-path="url(#p6a4ae4428d)" d="
M611.795 105.321
L611.894 105.321
L611.894 93.5755
L611.795 93.5755
z
" style="fill:#40cf40;"/>
   </g>
   <g id="patch_307">
    <path clip-path="url(#p6a4ae4428d)" d="
M611.894 106.888
L612.62 106.888
L612.62 95.1416
L611.894 95.1416
z
" style="fill:#4daf4a;"/>
   </g>
   <g id="patch_308">
    <path clip-path="url(#p6a4ae4428d)" d="
M612.62 105.321
L615.625 105.321
L615.625 93.5755
L612.62 93.5755
z
" style="fill:#40cf40;"/>
   </g>
   <g id="patch_309">
    <path clip-path="url(#p6a4ae4428d)" d="
M615.625 106.888
L616.686 106.888
L616.686 95.1416
L615.625 95.1416
z
" style="fill:#4daf4a;"/>
   </g>
   <g id="patch_310">
    <path clip-path="url(#p6a4ae4428d)" d="
M616.686 105.321
L617.148 105.321
L617.148 93.5755
L616.686 93.5755
z
" style="fill:#40cf40;"/>
   </g>
   <g id="patch_311">
    <path clip-path="url(#p6a4ae4428d)" d="
M617.149 106.888
L617.289 106.888
L617.289 95.1416
L617.149 95.1416
z
" style="fill:#4daf4a;"/>
   </g>
   <g id="patch_312">
    <path clip-path="url(#p6a4ae4428d)" d="
M617.289 105.321
L618.224 105.321
L618.224 93.5755
L617.289 93.5755
z
" style="fill:#40cf40;"/>
   </g>
   <g id="patch_313">
    <path clip-path="url(#p6a4ae4428d)" d="
M618.224 106.888
L619.149 106.888
L619.149 95.1416
L618.224 95.1416
z
" style="fill:#4daf4a;"/>
   </g>
   <g id="patch_314">
    <path clip-path="url(#p6a4ae4428d)" d="
M619.149 105.321
L619.971 105.321
L619.971 93.5755
L619.149 93.5755
z
" style="fill:#40cf40;"/>
   </g>
   <g id="patch_315">
    <path clip-path="url(#p6a4ae4428d)" d="
M619.971 106.888
L621.131 106.888
L621.131 95.1416
L619.971 95.1416
z
" style="fill:#4daf4a;"/>
   </g>
   <g id="patch_316">
    <path clip-path="url(#p6a4ae4428d)" d="
M621.132 105.321
L621.993 105.321
L621.993 93.5755
L621.132 93.5755
z
" style="fill:#40cf40;"/>
   </g>
   <g id="patch_317">
    <path clip-path="url(#p6a4ae4428d)" d="
M621.994 106.888
L622.085 106.888
L622.085 95.1416
L621.994 95.1416
z
" style="fill:#4daf4a;"/>
   </g>
   <g id="patch_318">
    <path clip-path="url(#p6a4ae4428d)" d="
M622.085 105.321
L622.132 105.321
L622.132 93.5755
L622.085 93.5755
z
" style="fill:#40cf40;"/>
   </g>
   <g id="patch_319">
    <path clip-path="url(#p6a4ae4428d)" d="
M622.132 106.888
L623.305 106.888
L623.305 95.1416
L622.132 95.1416
z
" style="fill:#4daf4a;"/>
   </g>
   <g id="patch_320">
    <path clip-path="url(#p6a4ae4428d)" d="
M623.305 105.321
L626.668 105.321
L626.668 93.5755
L623.305 93.5755
z
" style="fill:#40cf40;"/>
   </g>
   <g id="patch_321">
    <path clip-path="url(#p6a4ae4428d)" d="
M626.668 106.888
L632.587 106.888
L632.587 95.1416
L626.668 95.1416
z
" style="fill:#4daf4a;"/>
   </g>
   <g id="patch_322">
    <path clip-path="url(#p6a4ae4428d)" d="
M632.619 105.321
L634.317 105.321
L634.317 93.5755
L632.619 93.5755
z
" style="fill:#40cf40;"/>
   </g>
   <g id="patch_323">
    <path clip-path="url(#p6a4ae4428d)" d="
M634.33 106.888
L636.632 106.888
L636.632 95.1416
L634.33 95.1416
z
" style="fill:#4daf4a;"/>
   </g>
   <g id="patch_324">
    <path clip-path="url(#p6a4ae4428d)" d="
M636.632 105.321
L636.819 105.321
L636.819 93.5755
L636.632 93.5755
z
" style="fill:#40cf40;"/>
   </g>
   <g id="patch_325">
    <path clip-path="url(#p6a4ae4428d)" d="
M636.819 106.888
L640.111 106.888
L640.111 95.1416
L636.819 95.1416
z
" style="fill:#4daf4a;"/>
   </g>
   <g id="patch_326">
    <path clip-path="url(#p6a4ae4428d)" d="
M640.111 105.321
L641.624 105.321
L641.624 93.5755
L640.111 93.5755
z
" style="fill:#40cf40;"/>
   </g>
   <g id="patch_327">
    <path clip-path="url(#p6a4ae4428d)" d="
M641.624 106.888
L643.504 106.888
L643.504 95.1416
L641.624 95.1416
z
" style="fill:#4daf4a;"/>
   </g>
   <g id="patch_328">
    <path clip-path="url(#p6a4ae4428d)" d="
M643.504 105.321
L645.034 105.321
L645.034 93.5755
L643.504 93.5755
z
" style="fill:#40cf40;"/>
   </g>
   <g id="patch_329">
    <path clip-path="url(#p6a4ae4428d)" d="
M645.034 106.888
L646.216 106.888
L646.216 95.1416
L645.034 95.1416
z
" style="fill:#4daf4a;"/>
   </g>
   <g id="patch_330">
    <path clip-path="url(#p6a4ae4428d)" d="
M646.216 105.321
L647.03 105.321
L647.03 93.5755
L646.216 93.5755
z
" style="fill:#40cf40;"/>
   </g>
   <g id="patch_331">
    <path clip-path="url(#p6a4ae4428d)" d="
M647.03 106.888
L649.37 106.888
L649.37 95.1416
L647.03 95.1416
z
" style="fill:#4daf4a;"/>
   </g>
   <g id="patch_332">
    <path clip-path="url(#p6a4ae4428d)" d="
M649.37 105.321
L652.028 105.321
L652.028 93.5755
L649.37 93.5755
z
" style="fill:#40cf40;"/>
   </g>
   <g id="patch_333">
    <path clip-path="url(#p6a4ae4428d)" d="
M652.028 106.888
L652.36 106.888
L652.36 95.1416
L652.028 95.1416
z
" style="fill:#4daf4a;"/>
   </g>
   <g id="patch_334">
    <path clip-path="url(#p6a4ae4428d)" d="
M652.36 105.321
L652.423 105.321
L652.423 93.5755
L652.36 93.5755
z
" style="fill:#40cf40;"/>
   </g>
   <g id="patch_335">
    <path clip-path="url(#p6a4ae4428d)" d="
M652.423 106.888
L656.754 106.888
L656.754 95.1416
L652.423 95.1416
z
" style="fill:#4daf4a;"/>
   </g>
   <g id="patch_336">
    <path clip-path="url(#p6a4ae4428d)" d="
M656.754 105.321
L656.943 105.321
L656.943 93.5755
L656.754 93.5755
z
" style="fill:#40cf40;"/>
   </g>
   <g id="patch_337">
    <path clip-path="url(#p6a4ae4428d)" d="
M656.943 106.888
L657.787 106.888
L657.787 95.1416
L656.943 95.1416
z
" style="fill:#4daf4a;"/>
   </g>
   <g id="patch_338">
    <path clip-path="url(#p6a4ae4428d)" d="
M657.788 105.321
L663.025 105.321
L663.025 93.5755
L657.788 93.5755
z
" style="fill:#40cf40;"/>
   </g>
   <g id="patch_339">
    <path clip-path="url(#p6a4ae4428d)" d="
M663.025 106.888
L663.333 106.888
L663.333 95.1416
L663.025 95.1416
z
" style="fill:#4daf4a;"/>
   </g>
   <g id="patch_340">
    <path clip-path="url(#p6a4ae4428d)" d="
M663.333 105.321
L663.393 105.321
L663.393 93.5755
L663.333 93.5755
z
" style="fill:#40cf40;"/>
   </g>
   <g id="patch_341">
    <path clip-path="url(#p6a4ae4428d)" d="
M663.393 106.888
L665.719 106.888
L665.719 95.1416
L663.393 95.1416
z
" style="fill:#4daf4a;"/>
   </g>
   <g id="patch_342">
    <path clip-path="url(#p6a4ae4428d)" d="
M665.719 105.321
L665.795 105.321
L665.795 93.5755
L665.719 93.5755
z
" style="fill:#40cf40;"/>
   </g>
   <g id="patch_343">
    <path clip-path="url(#p6a4ae4428d)" d="
M665.795 106.888
L666.852 106.888
L666.852 95.1416
L665.795 95.1416
z
" style="fill:#4daf4a;"/>
   </g>
   <g id="patch_344">
    <path clip-path="url(#p6a4ae4428d)" d="
M666.852 105.321
L667.727 105.321
L667.727 93.5755
L666.852 93.5755
z
" style="fill:#40cf40;"/>
   </g>
   <g id="patch_345">
    <path clip-path="url(#p6a4ae4428d)" d="
M667.727 106.888
L669.453 106.888
L669.453 95.1416
L667.727 95.1416
z
" style="fill:#4daf4a;"/>
   </g>
   <g id="patch_346">
    <path clip-path="url(#p6a4ae4428d)" d="
M669.453 105.321
L670.038 105.321
L670.038 93.5755
L669.453 93.5755
z
" style="fill:#40cf40;"/>
   </g>
   <g id="patch_347">
    <path clip-path="url(#p6a4ae4428d)" d="
M670.038 106.888
L671.7 106.888
L671.7 95.1416
L670.038 95.1416
z
" style="fill:#4daf4a;"/>
   </g>
   <g id="patch_348">
    <path clip-path="url(#p6a4ae4428d)" d="
M671.7 105.321
L671.841 105.321
L671.841 93.5755
L671.7 93.5755
z
" style="fill:#40cf40;"/>
   </g>
   <g id="patch_349">
    <path clip-path="url(#p6a4ae4428d)" d="
M671.842 106.888
L672.518 106.888
L672.518 95.1416
L671.842 95.1416
z
" style="fill:#4daf4a;"/>
   </g>
   <g id="patch_350">
    <path clip-path="url(#p6a4ae4428d)" d="
M672.518 105.321
L673.653 105.321
L673.653 93.5755
L672.518 93.5755
z
" style="fill:#40cf40;"/>
   </g>
   <g id="patch_351">
    <path clip-path="url(#p6a4ae4428d)" d="
M673.654 106.888
L674.398 106.888
L674.398 95.1416
L673.654 95.1416
z
" style="fill:#4daf4a;"/>
   </g>
   <g id="patch_352">
    <path clip-path="url(#p6a4ae4428d)" d="
M674.398 105.321
L677.614 105.321
L677.614 93.5755
L674.398 93.5755
z
" style="fill:#40cf40;"/>
   </g>
   <g id="patch_353">
    <path clip-path="url(#p6a4ae4428d)" d="
M677.615 106.888
L677.913 106.888
L677.913 95.1416
L677.615 95.1416
z
" style="fill:#4daf4a;"/>
   </g>
   <g id="patch_354">
    <path clip-path="url(#p6a4ae4428d)" d="
M677.913 105.321
L683.292 105.321
L683.292 93.5755
L677.913 93.5755
z
" style="fill:#40cf40;"/>
   </g>
   <g id="patch_355">
    <path clip-path="url(#p6a4ae4428d)" d="
M683.292 106.888
L683.508 106.888
L683.508 95.1416
L683.292 95.1416
z
" style="fill:#4daf4a;"/>
   </g>
   <g id="patch_356">
    <path clip-path="url(#p6a4ae4428d)" d="
M683.508 105.321
L685.032 105.321
L685.032 93.5755
L683.508 93.5755
z
" style="fill:#40cf40;"/>
   </g>
   <g id="patch_357">
    <path clip-path="url(#p6a4ae4428d)" d="
M685.032 106.888
L687.37 106.888
L687.37 95.1416
L685.032 95.1416
z
" style="fill:#4daf4a;"/>
   </g>
   <g id="patch_358">
    <path clip-path="url(#p6a4ae4428d)" d="
M687.37 105.321
L687.627 105.321
L687.627 93.5755
L687.37 93.5755
z
" style="fill:#40cf40;"/>
   </g>
   <g id="patch_359">
    <path clip-path="url(#p6a4ae4428d)" d="
M687.627 106.888
L689.418 106.888
L689.418 95.1416
L687.627 95.1416
z
" style="fill:#4daf4a;"/>
   </g>
   <g id="patch_360">
    <path clip-path="url(#p6a4ae4428d)" d="
M689.418 105.321
L689.535 105.321
L689.535 93.5755
L689.418 93.5755
z
" style="fill:#40cf40;"/>
   </g>
   <g id="patch_361">
    <path clip-path="url(#p6a4ae4428d)" d="
M689.546 106.888
L690.126 106.888
L690.126 95.1416
L689.546 95.1416
z
" style="fill:#4daf4a;"/>
   </g>
   <g id="patch_362">
    <path clip-path="url(#p6a4ae4428d)" d="
M690.126 105.321
L690.723 105.321
L690.723 93.5755
L690.126 93.5755
z
" style="fill:#40cf40;"/>
   </g>
   <g id="patch_363">
    <path clip-path="url(#p6a4ae4428d)" d="
M690.724 106.888
L692.048 106.888
L692.048 95.1416
L690.724 95.1416
z
" style="fill:#4daf4a;"/>
   </g>
   <g id="patch_364">
    <path clip-path="url(#p6a4ae4428d)" d="
M692.049 105.321
L692.855 105.321
L692.855 93.5755
L692.049 93.5755
z
" style="fill:#40cf40;"/>
   </g>
   <g id="patch_365">
    <path clip-path="url(#p6a4ae4428d)" d="
M692.855 106.888
L695.556 106.888
L695.556 95.1416
L692.855 95.1416
z
" style="fill:#4daf4a;"/>
   </g>
   <g id="patch_366">
    <path clip-path="url(#p6a4ae4428d)" d="
M695.556 105.321
L696.277 105.321
L696.277 93.5755
L695.556 93.5755
z
" style="fill:#40cf40;"/>
   </g>
   <g id="patch_367">
    <path clip-path="url(#p6a4ae4428d)" d="
M696.277 106.888
L696.935 106.888
L696.935 95.1416
L696.277 95.1416
z
" style="fill:#4daf4a;"/>
   </g>
   <g id="patch_368">
    <path clip-path="url(#p6a4ae4428d)" d="
M696.935 105.321
L700.634 105.321
L700.634 93.5755
L696.935 93.5755
z
" style="fill:#40cf40;"/>
   </g>
   <g id="patch_369">
    <path clip-path="url(#p6a4ae4428d)" d="
M700.634 106.888
L701.712 106.888
L701.712 95.1416
L700.634 95.1416
z
" style="fill:#4daf4a;"/>
   </g>
   <g id="patch_370">
    <path clip-path="url(#p6a4ae4428d)" d="
M701.712 105.321
L702.76 105.321
L702.76 93.5755
L701.712 93.5755
z
" style="fill:#40cf40;"/>
   </g>
   <g id="patch_371">
    <path clip-path="url(#p6a4ae4428d)" d="
M702.76 106.888
L703.901 106.888
L703.901 95.1416
L702.76 95.1416
z
" style="fill:#4daf4a;"/>
   </g>
   <g id="patch_372">
    <path clip-path="url(#p6a4ae4428d)" d="
M703.901 105.321
L705.33 105.321
L705.33 93.5755
L703.901 93.5755
z
" style="fill:#40cf40;"/>
   </g>
   <g id="patch_373">
    <path clip-path="url(#p6a4ae4428d)" d="
M705.33 106.888
L706.234 106.888
L706.234 95.1416
L705.33 95.1416
z
" style="fill:#4daf4a;"/>
   </g>
   <g id="patch_374">
    <path clip-path="url(#p6a4ae4428d)" d="
M706.234 105.321
L708.321 105.321
L708.321 93.5755
L706.234 93.5755
z
" style="fill:#40cf40;"/>
   </g>
   <g id="patch_375">
    <path clip-path="url(#p6a4ae4428d)" d="
M708.321 106.888
L708.389 106.888
L708.389 95.1416
L708.321 95.1416
z
" style="fill:#4daf4a;"/>
   </g>
   <g id="patch_376">
    <path clip-path="url(#p6a4ae4428d)" d="
M708.389 105.321
L711.766 105.321
L711.766 93.5755
L708.389 93.5755
z
" style="fill:#40cf40;"/>
   </g>
   <g id="patch_377">
    <path clip-path="url(#p6a4ae4428d)" d="
M711.766 106.888
L713.18 106.888
L713.18 95.1416
L711.766 95.1416
z
" style="fill:#4daf4a;"/>
   </g>
   <g id="patch_378">
    <path clip-path="url(#p6a4ae4428d)" d="
M713.181 105.321
L714.017 105.321
L714.017 93.5755
L713.181 93.5755
z
" style="fill:#40cf40;"/>
   </g>
   <g id="line2d_1">
    <path clip-path="url(#p6a4ae4428d)" d="
M182.801 66.56
L714.017 66.56" style="fill:none;stroke:#000000;stroke-linecap:square;stroke-width:0.5;"/>
   </g>
   <g id="line2d_2">
    <path clip-path="url(#p6a4ae4428d)" d="
M182.801 15.6612
L182.801 109.628" style="fill:none;stroke:#808080;stroke-dasharray:1.000000,3.000000;stroke-dashoffset:0.0;stroke-width:0.2;"/>
   </g>
   <g id="line2d_3">
    <path clip-path="url(#p6a4ae4428d)" d="
M182.801 66.56
L182.801 68.9092" style="fill:none;stroke:#000000;stroke-linecap:square;stroke-width:0.5;"/>
   </g>
   <g id="line2d_4">
    <path clip-path="url(#p6a4ae4428d)" d="
M279.761 15.6612
L279.761 109.628" style="fill:none;stroke:#808080;stroke-dasharray:1.000000,3.000000;stroke-dashoffset:0.0;stroke-width:0.2;"/>
   </g>
   <g id="line2d_5">
    <path clip-path="url(#p6a4ae4428d)" d="
M279.761 66.56
L279.761 68.9092" style="fill:none;stroke:#000000;stroke-linecap:square;stroke-width:0.5;"/>
   </g>
   <g id="line2d_6">
    <path clip-path="url(#p6a4ae4428d)" d="
M376.722 15.6612
L376.722 109.628" style="fill:none;stroke:#808080;stroke-dasharray:1.000000,3.000000;stroke-dashoffset:0.0;stroke-width:0.2;"/>
   </g>
   <g id="line2d_7">
    <path clip-path="url(#p6a4ae4428d)" d="
M376.722 66.56
L376.722 68.9092" style="fill:none;stroke:#000000;stroke-linecap:square;stroke-width:0.5;"/>
   </g>
   <g id="line2d_8">
    <path clip-path="url(#p6a4ae4428d)" d="
M473.682 15.6612
L473.682 109.628" style="fill:none;stroke:#808080;stroke-dasharray:1.000000,3.000000;stroke-dashoffset:0.0;stroke-width:0.2;"/>
   </g>
   <g id="line2d_9">
    <path clip-path="url(#p6a4ae4428d)" d="
M473.682 66.56
L473.682 68.9092" style="fill:none;stroke:#000000;stroke-linecap:square;stroke-width:0.5;"/>
   </g>
   <g id="line2d_10">
    <path clip-path="url(#p6a4ae4428d)" d="
M570.643 15.6612
L570.643 109.628" style="fill:none;stroke:#808080;stroke-dasharray:1.000000,3.000000;stroke-dashoffset:0.0;stroke-width:0.2;"/>
   </g>
   <g id="line2d_11">
    <path clip-path="url(#p6a4ae4428d)" d="
M570.643 66.56
L570.643 68.9092" style="fill:none;stroke:#000000;stroke-linecap:square;stroke-width:0.5;"/>
   </g>
   <g id="line2d_12">
    <path clip-path="url(#p6a4ae4428d)" d="
M667.603 15.6612
L667.603 109.628" style="fill:none;stroke:#808080;stroke-dasharray:1.000000,3.000000;stroke-dashoffset:0.0;stroke-width:0.2;"/>
   </g>
   <g id="line2d_13">
    <path clip-path="url(#p6a4ae4428d)" d="
M667.603 66.56
L667.603 68.9092" style="fill:none;stroke:#000000;stroke-linecap:square;stroke-width:0.5;"/>
   </g>
   <g id="line2d_14">
    <path clip-path="url(#p6a4ae4428d)" d="
M714.017 15.6612
L714.017 109.628" style="fill:none;stroke:#808080;stroke-dasharray:1.000000,3.000000;stroke-dashoffset:0.0;stroke-width:0.2;"/>
   </g>
   <g id="line2d_15">
    <path clip-path="url(#p6a4ae4428d)" d="
M714.017 66.56
L714.017 68.9092" style="fill:none;stroke:#000000;stroke-linecap:square;stroke-width:0.5;"/>
   </g>
   <g id="text_1">
    <!-- 0.0 -->
    <defs>
     <path d="
M31.7812 66.4062
Q24.1719 66.4062 20.3281 58.9062
Q16.5 51.4219 16.5 36.375
Q16.5 21.3906 20.3281 13.8906
Q24.1719 6.39062 31.7812 6.39062
Q39.4531 6.39062 43.2812 13.8906
Q47.125 21.3906 47.125 36.375
Q47.125 51.4219 43.2812 58.9062
Q39.4531 66.4062 31.7812 66.4062
M31.7812 74.2188
Q44.0469 74.2188 50.5156 64.5156
Q56.9844 54.8281 56.9844 36.375
Q56.9844 17.9688 50.5156 8.26562
Q44.0469 -1.42188 31.7812 -1.42188
Q19.5312 -1.42188 13.0625 8.26562
Q6.59375 17.9688 6.59375 36.375
Q6.59375 54.8281 13.0625 64.5156
Q19.5312 74.2188 31.7812 74.2188" id="BitstreamVeraSans-Roman-30"/>
     <path d="
M10.6875 12.4062
L21 12.4062
L21 0
L10.6875 0
z
" id="BitstreamVeraSans-Roman-2e"/>
    </defs>
    <g transform="translate(184.67568 74.9879264706)scale(0.08 -0.08)">
     <use xlink:href="#BitstreamVeraSans-Roman-30"/>
     <use x="63.623046875" xlink:href="#BitstreamVeraSans-Roman-2e"/>
     <use x="95.41015625" xlink:href="#BitstreamVeraSans-Roman-30"/>
    </g>
   </g>
   <g id="text_2">
    <!-- 1.0 -->
    <defs>
     <path d="
M12.4062 8.29688
L28.5156 8.29688
L28.5156 63.9219
L10.9844 60.4062
L10.9844 69.3906
L28.4219 72.9062
L38.2812 72.9062
L38.2812 8.29688
L54.3906 8.29688
L54.3906 0
L12.4062 0
z
" id="BitstreamVeraSans-Roman-31"/>
    </defs>
    <g transform="translate(281.636208653 74.9879264706)scale(0.08 -0.08)">
     <use xlink:href="#BitstreamVeraSans-Roman-31"/>
     <use x="63.623046875" xlink:href="#BitstreamVeraSans-Roman-2e"/>
     <use x="95.41015625" xlink:href="#BitstreamVeraSans-Roman-30"/>
    </g>
   </g>
   <g id="text_3">
    <!-- 2.0 -->
    <defs>
     <path d="
M19.1875 8.29688
L53.6094 8.29688
L53.6094 0
L7.32812 0
L7.32812 8.29688
Q12.9375 14.1094 22.625 23.8906
Q32.3281 33.6875 34.8125 36.5312
Q39.5469 41.8438 41.4219 45.5312
Q43.3125 49.2188 43.3125 52.7812
Q43.3125 58.5938 39.2344 62.25
Q35.1562 65.9219 28.6094 65.9219
Q23.9688 65.9219 18.8125 64.3125
Q13.6719 62.7031 7.8125 59.4219
L7.8125 69.3906
Q13.7656 71.7812 18.9375 73
Q24.125 74.2188 28.4219 74.2188
Q39.75 74.2188 46.4844 68.5469
Q53.2188 62.8906 53.2188 53.4219
Q53.2188 48.9219 51.5312 44.8906
Q49.8594 40.875 45.4062 35.4062
Q44.1875 33.9844 37.6406 27.2188
Q31.1094 20.4531 19.1875 8.29688" id="BitstreamVeraSans-Roman-32"/>
    </defs>
    <g transform="translate(378.596737305 74.9879264706)scale(0.08 -0.08)">
     <use xlink:href="#BitstreamVeraSans-Roman-32"/>
     <use x="63.623046875" xlink:href="#BitstreamVeraSans-Roman-2e"/>
     <use x="95.41015625" xlink:href="#BitstreamVeraSans-Roman-30"/>
    </g>
   </g>
   <g id="text_4">
    <!-- 3.0 -->
    <defs>
     <path d="
M40.5781 39.3125
Q47.6562 37.7969 51.625 33
Q55.6094 28.2188 55.6094 21.1875
Q55.6094 10.4062 48.1875 4.48438
Q40.7656 -1.42188 27.0938 -1.42188
Q22.5156 -1.42188 17.6562 -0.515625
Q12.7969 0.390625 7.625 2.20312
L7.625 11.7188
Q11.7188 9.32812 16.5938 8.10938
Q21.4844 6.89062 26.8125 6.89062
Q36.0781 6.89062 40.9375 10.5469
Q45.7969 14.2031 45.7969 21.1875
Q45.7969 27.6406 41.2812 31.2656
Q36.7656 34.9062 28.7188 34.9062
L20.2188 34.9062
L20.2188 43.0156
L29.1094 43.0156
Q36.375 43.0156 40.2344 45.9219
Q44.0938 48.8281 44.0938 54.2969
Q44.0938 59.9062 40.1094 62.9062
Q36.1406 65.9219 28.7188 65.9219
Q24.6562 65.9219 20.0156 65.0312
Q15.375 64.1562 9.8125 62.3125
L9.8125 71.0938
Q15.4375 72.6562 20.3438 73.4375
Q25.25 74.2188 29.5938 74.2188
Q40.8281 74.2188 47.3594 69.1094
Q53.9062 64.0156 53.9062 55.3281
Q53.9062 49.2656 50.4375 45.0938
Q46.9688 40.9219 40.5781 39.3125" id="BitstreamVeraSans-Roman-33"/>
    </defs>
    <g transform="translate(475.557265958 74.9879264706)scale(0.08 -0.08)">
     <use xlink:href="#BitstreamVeraSans-Roman-33"/>
     <use x="63.623046875" xlink:href="#BitstreamVeraSans-Roman-2e"/>
     <use x="95.41015625" xlink:href="#BitstreamVeraSans-Roman-30"/>
    </g>
   </g>
   <g id="text_5">
    <!-- 4.0 -->
    <defs>
     <path d="
M37.7969 64.3125
L12.8906 25.3906
L37.7969 25.3906
z

M35.2031 72.9062
L47.6094 72.9062
L47.6094 25.3906
L58.0156 25.3906
L58.0156 17.1875
L47.6094 17.1875
L47.6094 0
L37.7969 0
L37.7969 17.1875
L4.89062 17.1875
L4.89062 26.7031
z
" id="BitstreamVeraSans-Roman-34"/>
    </defs>
    <g transform="translate(572.51779461 74.9879264706)scale(0.08 -0.08)">
     <use xlink:href="#BitstreamVeraSans-Roman-34"/>
     <use x="63.623046875" xlink:href="#BitstreamVeraSans-Roman-2e"/>
     <use x="95.41015625" xlink:href="#BitstreamVeraSans-Roman-30"/>
    </g>
   </g>
   <g id="text_6">
    <!-- 5.0 -->
    <defs>
     <path d="
M10.7969 72.9062
L49.5156 72.9062
L49.5156 64.5938
L19.8281 64.5938
L19.8281 46.7344
Q21.9688 47.4688 24.1094 47.8281
Q26.2656 48.1875 28.4219 48.1875
Q40.625 48.1875 47.75 41.5
Q54.8906 34.8125 54.8906 23.3906
Q54.8906 11.625 47.5625 5.09375
Q40.2344 -1.42188 26.9062 -1.42188
Q22.3125 -1.42188 17.5469 -0.640625
Q12.7969 0.140625 7.71875 1.70312
L7.71875 11.625
Q12.1094 9.23438 16.7969 8.0625
Q21.4844 6.89062 26.7031 6.89062
Q35.1562 6.89062 40.0781 11.3281
Q45.0156 15.7656 45.0156 23.3906
Q45.0156 31 40.0781 35.4375
Q35.1562 39.8906 26.7031 39.8906
Q22.75 39.8906 18.8125 39.0156
Q14.8906 38.1406 10.7969 36.2812
z
" id="BitstreamVeraSans-Roman-35"/>
    </defs>
    <g transform="translate(669.478323263 74.9879264706)scale(0.08 -0.08)">
     <use xlink:href="#BitstreamVeraSans-Roman-35"/>
     <use x="63.623046875" xlink:href="#BitstreamVeraSans-Roman-2e"/>
     <use x="95.41015625" xlink:href="#BitstreamVeraSans-Roman-30"/>
    </g>
   </g>
   <g id="text_7">
    <!-- 5.48 -->
    <defs>
     <path d="
M31.7812 34.625
Q24.75 34.625 20.7188 30.8594
Q16.7031 27.0938 16.7031 20.5156
Q16.7031 13.9219 20.7188 10.1562
Q24.75 6.39062 31.7812 6.39062
Q38.8125 6.39062 42.8594 10.1719
Q46.9219 13.9688 46.9219 20.5156
Q46.9219 27.0938 42.8906 30.8594
Q38.875 34.625 31.7812 34.625
M21.9219 38.8125
Q15.5781 40.375 12.0312 44.7188
Q8.5 49.0781 8.5 55.3281
Q8.5 64.0625 14.7188 69.1406
Q20.9531 74.2188 31.7812 74.2188
Q42.6719 74.2188 48.875 69.1406
Q55.0781 64.0625 55.0781 55.3281
Q55.0781 49.0781 51.5312 44.7188
Q48 40.375 41.7031 38.8125
Q48.8281 37.1562 52.7969 32.3125
Q56.7812 27.4844 56.7812 20.5156
Q56.7812 9.90625 50.3125 4.23438
Q43.8438 -1.42188 31.7812 -1.42188
Q19.7344 -1.42188 13.25 4.23438
Q6.78125 9.90625 6.78125 20.5156
Q6.78125 27.4844 10.7812 32.3125
Q14.7969 37.1562 21.9219 38.8125
M18.3125 54.3906
Q18.3125 48.7344 21.8438 45.5625
Q25.3906 42.3906 31.7812 42.3906
Q38.1406 42.3906 41.7188 45.5625
Q45.3125 48.7344 45.3125 54.3906
Q45.3125 60.0625 41.7188 63.2344
Q38.1406 66.4062 31.7812 66.4062
Q25.3906 66.4062 21.8438 63.2344
Q18.3125 60.0625 18.3125 54.3906" id="BitstreamVeraSans-Roman-38"/>
    </defs>
    <g transform="translate(715.89168 74.9879264706)scale(0.08 -0.08)">
     <use xlink:href="#BitstreamVeraSans-Roman-35"/>
     <use x="63.623046875" xlink:href="#BitstreamVeraSans-Roman-2e"/>
     <use x="95.41015625" xlink:href="#BitstreamVeraSans-Roman-34"/>
     <use x="159.033203125" xlink:href="#BitstreamVeraSans-Roman-38"/>
    </g>
   </g>
   <g id="text_8">
    <!-- chr_0 (..57_H7_0915) -->
    <defs>
     <path id="BitstreamVeraSans-Roman-20"/>
     <path d="
M8.20312 72.9062
L55.0781 72.9062
L55.0781 68.7031
L28.6094 0
L18.3125 0
L43.2188 64.5938
L8.20312 64.5938
z
" id="BitstreamVeraSans-Roman-37"/>
     <path d="
M50.9844 -16.6094
L50.9844 -23.5781
L-0.984375 -23.5781
L-0.984375 -16.6094
z
" id="BitstreamVeraSans-Roman-5f"/>
     <path d="
M8.01562 75.875
L15.8281 75.875
Q23.1406 64.3594 26.7812 53.3125
Q30.4219 42.2812 30.4219 31.3906
Q30.4219 20.4531 26.7812 9.375
Q23.1406 -1.70312 15.8281 -13.1875
L8.01562 -13.1875
Q14.5 -2 17.7031 9.0625
Q20.9062 20.125 20.9062 31.3906
Q20.9062 42.6719 17.7031 53.6562
Q14.5 64.6562 8.01562 75.875" id="BitstreamVeraSans-Roman-29"/>
     <path d="
M31 75.875
Q24.4688 64.6562 21.2812 53.6562
Q18.1094 42.6719 18.1094 31.3906
Q18.1094 20.125 21.3125 9.0625
Q24.5156 -2 31 -13.1875
L23.1875 -13.1875
Q15.875 -1.70312 12.2344 9.375
Q8.59375 20.4531 8.59375 31.3906
Q8.59375 42.2812 12.2031 53.3125
Q15.8281 64.3594 23.1875 75.875
z
" id="BitstreamVeraSans-Roman-28"/>
     <path d="
M10.9844 1.51562
L10.9844 10.5
Q14.7031 8.73438 18.5 7.8125
Q22.3125 6.89062 25.9844 6.89062
Q35.75 6.89062 40.8906 13.4531
Q46.0469 20.0156 46.7812 33.4062
Q43.9531 29.2031 39.5938 26.9531
Q35.25 24.7031 29.9844 24.7031
Q19.0469 24.7031 12.6719 31.3125
Q6.29688 37.9375 6.29688 49.4219
Q6.29688 60.6406 12.9375 67.4219
Q19.5781 74.2188 30.6094 74.2188
Q43.2656 74.2188 49.9219 64.5156
Q56.5938 54.8281 56.5938 36.375
Q56.5938 19.1406 48.4062 8.85938
Q40.2344 -1.42188 26.4219 -1.42188
Q22.7031 -1.42188 18.8906 -0.6875
Q15.0938 0.046875 10.9844 1.51562
M30.6094 32.4219
Q37.25 32.4219 41.125 36.9531
Q45.0156 41.5 45.0156 49.4219
Q45.0156 57.2812 41.125 61.8438
Q37.25 66.4062 30.6094 66.4062
Q23.9688 66.4062 20.0938 61.8438
Q16.2188 57.2812 16.2188 49.4219
Q16.2188 41.5 20.0938 36.9531
Q23.9688 32.4219 30.6094 32.4219" id="BitstreamVeraSans-Roman-39"/>
     <path d="
M54.8906 33.0156
L54.8906 0
L45.9062 0
L45.9062 32.7188
Q45.9062 40.4844 42.875 44.3281
Q39.8438 48.1875 33.7969 48.1875
Q26.5156 48.1875 22.3125 43.5469
Q18.1094 38.9219 18.1094 30.9062
L18.1094 0
L9.07812 0
L9.07812 75.9844
L18.1094 75.9844
L18.1094 46.1875
Q21.3438 51.125 25.7031 53.5625
Q30.0781 56 35.7969 56
Q45.2188 56 50.0469 50.1719
Q54.8906 44.3438 54.8906 33.0156" id="BitstreamVeraSans-Roman-68"/>
     <path d="
M41.1094 46.2969
Q39.5938 47.1719 37.8125 47.5781
Q36.0312 48 33.8906 48
Q26.2656 48 22.1875 43.0469
Q18.1094 38.0938 18.1094 28.8125
L18.1094 0
L9.07812 0
L9.07812 54.6875
L18.1094 54.6875
L18.1094 46.1875
Q20.9531 51.1719 25.4844 53.5781
Q30.0312 56 36.5312 56
Q37.4531 56 38.5781 55.875
Q39.7031 55.7656 41.0625 55.5156
z
" id="BitstreamVeraSans-Roman-72"/>
     <path d="
M48.7812 52.5938
L48.7812 44.1875
Q44.9688 46.2969 41.1406 47.3438
Q37.3125 48.3906 33.4062 48.3906
Q24.6562 48.3906 19.8125 42.8438
Q14.9844 37.3125 14.9844 27.2969
Q14.9844 17.2812 19.8125 11.7344
Q24.6562 6.20312 33.4062 6.20312
Q37.3125 6.20312 41.1406 7.25
Q44.9688 8.29688 48.7812 10.4062
L48.7812 2.09375
Q45.0156 0.34375 40.9844 -0.53125
Q36.9688 -1.42188 32.4219 -1.42188
Q20.0625 -1.42188 12.7812 6.34375
Q5.51562 14.1094 5.51562 27.2969
Q5.51562 40.6719 12.8594 48.3281
Q20.2188 56 33.0156 56
Q37.1562 56 41.1094 55.1406
Q45.0625 54.2969 48.7812 52.5938" id="BitstreamVeraSans-Roman-63"/>
     <path d="
M9.8125 72.9062
L19.6719 72.9062
L19.6719 43.0156
L55.5156 43.0156
L55.5156 72.9062
L65.375 72.9062
L65.375 0
L55.5156 0
L55.5156 34.7188
L19.6719 34.7188
L19.6719 0
L9.8125 0
z
" id="BitstreamVeraSans-Roman-48"/>
    </defs>
    <g transform="translate(390.193878125 56.7121636029)scale(0.11 -0.11)">
     <use xlink:href="#BitstreamVeraSans-Roman-63"/>
     <use x="54.98046875" xlink:href="#BitstreamVeraSans-Roman-68"/>
     <use x="118.359375" xlink:href="#BitstreamVeraSans-Roman-72"/>
     <use x="159.47265625" xlink:href="#BitstreamVeraSans-Roman-5f"/>
     <use x="209.47265625" xlink:href="#BitstreamVeraSans-Roman-30"/>
     <use x="273.095703125" xlink:href="#BitstreamVeraSans-Roman-20"/>
     <use x="304.8828125" xlink:href="#BitstreamVeraSans-Roman-28"/>
     <use x="343.896484375" xlink:href="#BitstreamVeraSans-Roman-2e"/>
     <use x="375.68359375" xlink:href="#BitstreamVeraSans-Roman-2e"/>
     <use x="407.470703125" xlink:href="#BitstreamVeraSans-Roman-35"/>
     <use x="471.09375" xlink:href="#BitstreamVeraSans-Roman-37"/>
     <use x="534.716796875" xlink:href="#BitstreamVeraSans-Roman-5f"/>
     <use x="584.716796875" xlink:href="#BitstreamVeraSans-Roman-48"/>
     <use x="659.912109375" xlink:href="#BitstreamVeraSans-Roman-37"/>
     <use x="723.53515625" xlink:href="#BitstreamVeraSans-Roman-5f"/>
     <use x="773.53515625" xlink:href="#BitstreamVeraSans-Roman-30"/>
     <use x="837.158203125" xlink:href="#BitstreamVeraSans-Roman-39"/>
     <use x="900.78125" xlink:href="#BitstreamVeraSans-Roman-31"/>
     <use x="964.404296875" xlink:href="#BitstreamVeraSans-Roman-35"/>
     <use x="1028.02734375" xlink:href="#BitstreamVeraSans-Roman-29"/>
    </g>
   </g>
   <g id="text_9">
    <!-- Genome, Mb -->
    <defs>
     <path d="
M9.8125 72.9062
L24.5156 72.9062
L43.1094 23.2969
L61.8125 72.9062
L76.5156 72.9062
L76.5156 0
L66.8906 0
L66.8906 64.0156
L48.0938 14.0156
L38.1875 14.0156
L19.3906 64.0156
L19.3906 0
L9.8125 0
z
" id="BitstreamVeraSans-Roman-4d"/>
     <path d="
M54.8906 33.0156
L54.8906 0
L45.9062 0
L45.9062 32.7188
Q45.9062 40.4844 42.875 44.3281
Q39.8438 48.1875 33.7969 48.1875
Q26.5156 48.1875 22.3125 43.5469
Q18.1094 38.9219 18.1094 30.9062
L18.1094 0
L9.07812 0
L9.07812 54.6875
L18.1094 54.6875
L18.1094 46.1875
Q21.3438 51.125 25.7031 53.5625
Q30.0781 56 35.7969 56
Q45.2188 56 50.0469 50.1719
Q54.8906 44.3438 54.8906 33.0156" id="BitstreamVeraSans-Roman-6e"/>
     <path d="
M52 44.1875
Q55.375 50.25 60.0625 53.125
Q64.75 56 71.0938 56
Q79.6406 56 84.2812 50.0156
Q88.9219 44.0469 88.9219 33.0156
L88.9219 0
L79.8906 0
L79.8906 32.7188
Q79.8906 40.5781 77.0938 44.375
Q74.3125 48.1875 68.6094 48.1875
Q61.625 48.1875 57.5625 43.5469
Q53.5156 38.9219 53.5156 30.9062
L53.5156 0
L44.4844 0
L44.4844 32.7188
Q44.4844 40.625 41.7031 44.4062
Q38.9219 48.1875 33.1094 48.1875
Q26.2188 48.1875 22.1562 43.5312
Q18.1094 38.875 18.1094 30.9062
L18.1094 0
L9.07812 0
L9.07812 54.6875
L18.1094 54.6875
L18.1094 46.1875
Q21.1875 51.2188 25.4844 53.6094
Q29.7812 56 35.6875 56
Q41.6562 56 45.8281 52.9688
Q50 49.9531 52 44.1875" id="BitstreamVeraSans-Roman-6d"/>
     <path d="
M30.6094 48.3906
Q23.3906 48.3906 19.1875 42.75
Q14.9844 37.1094 14.9844 27.2969
Q14.9844 17.4844 19.1562 11.8438
Q23.3438 6.20312 30.6094 6.20312
Q37.7969 6.20312 41.9844 11.8594
Q46.1875 17.5312 46.1875 27.2969
Q46.1875 37.0156 41.9844 42.7031
Q37.7969 48.3906 30.6094 48.3906
M30.6094 56
Q42.3281 56 49.0156 48.375
Q55.7188 40.7656 55.7188 27.2969
Q55.7188 13.875 49.0156 6.21875
Q42.3281 -1.42188 30.6094 -1.42188
Q18.8438 -1.42188 12.1719 6.21875
Q5.51562 13.875 5.51562 27.2969
Q5.51562 40.7656 12.1719 48.375
Q18.8438 56 30.6094 56" id="BitstreamVeraSans-Roman-6f"/>
     <path d="
M59.5156 10.4062
L59.5156 29.9844
L43.4062 29.9844
L43.4062 38.0938
L69.2812 38.0938
L69.2812 6.78125
Q63.5781 2.73438 56.6875 0.65625
Q49.8125 -1.42188 42 -1.42188
Q24.9062 -1.42188 15.25 8.5625
Q5.60938 18.5625 5.60938 36.375
Q5.60938 54.25 15.25 64.2344
Q24.9062 74.2188 42 74.2188
Q49.125 74.2188 55.5469 72.4531
Q61.9688 70.7031 67.3906 67.2812
L67.3906 56.7812
Q61.9219 61.4219 55.7656 63.7656
Q49.6094 66.1094 42.8281 66.1094
Q29.4375 66.1094 22.7188 58.6406
Q16.0156 51.1719 16.0156 36.375
Q16.0156 21.625 22.7188 14.1562
Q29.4375 6.6875 42.8281 6.6875
Q48.0469 6.6875 52.1406 7.59375
Q56.25 8.5 59.5156 10.4062" id="BitstreamVeraSans-Roman-47"/>
     <path d="
M11.7188 12.4062
L22.0156 12.4062
L22.0156 4
L14.0156 -11.625
L7.71875 -11.625
L11.7188 4
z
" id="BitstreamVeraSans-Roman-2c"/>
     <path d="
M56.2031 29.5938
L56.2031 25.2031
L14.8906 25.2031
Q15.4844 15.9219 20.4844 11.0625
Q25.4844 6.20312 34.4219 6.20312
Q39.5938 6.20312 44.4531 7.46875
Q49.3125 8.73438 54.1094 11.2812
L54.1094 2.78125
Q49.2656 0.734375 44.1875 -0.34375
Q39.1094 -1.42188 33.8906 -1.42188
Q20.7969 -1.42188 13.1562 6.1875
Q5.51562 13.8125 5.51562 26.8125
Q5.51562 40.2344 12.7656 48.1094
Q20.0156 56 32.3281 56
Q43.3594 56 49.7812 48.8906
Q56.2031 41.7969 56.2031 29.5938
M47.2188 32.2344
Q47.125 39.5938 43.0938 43.9844
Q39.0625 48.3906 32.4219 48.3906
Q24.9062 48.3906 20.3906 44.1406
Q15.875 39.8906 15.1875 32.1719
z
" id="BitstreamVeraSans-Roman-65"/>
     <path d="
M48.6875 27.2969
Q48.6875 37.2031 44.6094 42.8438
Q40.5312 48.4844 33.4062 48.4844
Q26.2656 48.4844 22.1875 42.8438
Q18.1094 37.2031 18.1094 27.2969
Q18.1094 17.3906 22.1875 11.75
Q26.2656 6.10938 33.4062 6.10938
Q40.5312 6.10938 44.6094 11.75
Q48.6875 17.3906 48.6875 27.2969
M18.1094 46.3906
Q20.9531 51.2656 25.2656 53.625
Q29.5938 56 35.5938 56
Q45.5625 56 51.7812 48.0938
Q58.0156 40.1875 58.0156 27.2969
Q58.0156 14.4062 51.7812 6.48438
Q45.5625 -1.42188 35.5938 -1.42188
Q29.5938 -1.42188 25.2656 0.953125
Q20.9531 3.32812 18.1094 8.20312
L18.1094 0
L9.07812 0
L9.07812 75.9844
L18.1094 75.9844
z
" id="BitstreamVeraSans-Roman-62"/>
    </defs>
    <g transform="translate(413.738175 87.0556930147)scale(0.11 -0.11)">
     <use xlink:href="#BitstreamVeraSans-Roman-47"/>
     <use x="77.490234375" xlink:href="#BitstreamVeraSans-Roman-65"/>
     <use x="139.013671875" xlink:href="#BitstreamVeraSans-Roman-6e"/>
     <use x="202.392578125" xlink:href="#BitstreamVeraSans-Roman-6f"/>
     <use x="263.57421875" xlink:href="#BitstreamVeraSans-Roman-6d"/>
     <use x="360.986328125" xlink:href="#BitstreamVeraSans-Roman-65"/>
     <use x="422.509765625" xlink:href="#BitstreamVeraSans-Roman-2c"/>
     <use x="454.296875" xlink:href="#BitstreamVeraSans-Roman-20"/>
     <use x="486.083984375" xlink:href="#BitstreamVeraSans-Roman-4d"/>
     <use x="572.36328125" xlink:href="#BitstreamVeraSans-Roman-62"/>
    </g>
   </g>
   <g id="text_10">
    <!-- final.contigs -->
    <defs>
     <path d="
M9.42188 75.9844
L18.4062 75.9844
L18.4062 0
L9.42188 0
z
" id="BitstreamVeraSans-Roman-6c"/>
     <path d="
M44.2812 53.0781
L44.2812 44.5781
Q40.4844 46.5312 36.375 47.5
Q32.2812 48.4844 27.875 48.4844
Q21.1875 48.4844 17.8438 46.4375
Q14.5 44.3906 14.5 40.2812
Q14.5 37.1562 16.8906 35.375
Q19.2812 33.5938 26.5156 31.9844
L29.5938 31.2969
Q39.1562 29.25 43.1875 25.5156
Q47.2188 21.7812 47.2188 15.0938
Q47.2188 7.46875 41.1875 3.01562
Q35.1562 -1.42188 24.6094 -1.42188
Q20.2188 -1.42188 15.4531 -0.5625
Q10.6875 0.296875 5.42188 2
L5.42188 11.2812
Q10.4062 8.6875 15.2344 7.39062
Q20.0625 6.10938 24.8125 6.10938
Q31.1562 6.10938 34.5625 8.28125
Q37.9844 10.4531 37.9844 14.4062
Q37.9844 18.0625 35.5156 20.0156
Q33.0625 21.9688 24.7031 23.7812
L21.5781 24.5156
Q13.2344 26.2656 9.51562 29.9062
Q5.8125 33.5469 5.8125 39.8906
Q5.8125 47.6094 11.2812 51.7969
Q16.75 56 26.8125 56
Q31.7812 56 36.1719 55.2656
Q40.5781 54.5469 44.2812 53.0781" id="BitstreamVeraSans-Roman-73"/>
     <path d="
M9.42188 54.6875
L18.4062 54.6875
L18.4062 0
L9.42188 0
z

M9.42188 75.9844
L18.4062 75.9844
L18.4062 64.5938
L9.42188 64.5938
z
" id="BitstreamVeraSans-Roman-69"/>
     <path d="
M18.3125 70.2188
L18.3125 54.6875
L36.8125 54.6875
L36.8125 47.7031
L18.3125 47.7031
L18.3125 18.0156
Q18.3125 11.3281 20.1406 9.42188
Q21.9688 7.51562 27.5938 7.51562
L36.8125 7.51562
L36.8125 0
L27.5938 0
Q17.1875 0 13.2344 3.875
Q9.28125 7.76562 9.28125 18.0156
L9.28125 47.7031
L2.6875 47.7031
L2.6875 54.6875
L9.28125 54.6875
L9.28125 70.2188
z
" id="BitstreamVeraSans-Roman-74"/>
     <path d="
M37.1094 75.9844
L37.1094 68.5
L28.5156 68.5
Q23.6875 68.5 21.7969 66.5469
Q19.9219 64.5938 19.9219 59.5156
L19.9219 54.6875
L34.7188 54.6875
L34.7188 47.7031
L19.9219 47.7031
L19.9219 0
L10.8906 0
L10.8906 47.7031
L2.29688 47.7031
L2.29688 54.6875
L10.8906 54.6875
L10.8906 58.5
Q10.8906 67.625 15.1406 71.7969
Q19.3906 75.9844 28.6094 75.9844
z
" id="BitstreamVeraSans-Roman-66"/>
     <path d="
M34.2812 27.4844
Q23.3906 27.4844 19.1875 25
Q14.9844 22.5156 14.9844 16.5
Q14.9844 11.7188 18.1406 8.90625
Q21.2969 6.10938 26.7031 6.10938
Q34.1875 6.10938 38.7031 11.4062
Q43.2188 16.7031 43.2188 25.4844
L43.2188 27.4844
z

M52.2031 31.2031
L52.2031 0
L43.2188 0
L43.2188 8.29688
Q40.1406 3.32812 35.5469 0.953125
Q30.9531 -1.42188 24.3125 -1.42188
Q15.9219 -1.42188 10.9531 3.29688
Q6 8.01562 6 15.9219
Q6 25.1406 12.1719 29.8281
Q18.3594 34.5156 30.6094 34.5156
L43.2188 34.5156
L43.2188 35.4062
Q43.2188 41.6094 39.1406 45
Q35.0625 48.3906 27.6875 48.3906
Q23 48.3906 18.5469 47.2656
Q14.1094 46.1406 10.0156 43.8906
L10.0156 52.2031
Q14.9375 54.1094 19.5781 55.0469
Q24.2188 56 28.6094 56
Q40.4844 56 46.3438 49.8438
Q52.2031 43.7031 52.2031 31.2031" id="BitstreamVeraSans-Roman-61"/>
     <path d="
M45.4062 27.9844
Q45.4062 37.75 41.375 43.1094
Q37.3594 48.4844 30.0781 48.4844
Q22.8594 48.4844 18.8281 43.1094
Q14.7969 37.75 14.7969 27.9844
Q14.7969 18.2656 18.8281 12.8906
Q22.8594 7.51562 30.0781 7.51562
Q37.3594 7.51562 41.375 12.8906
Q45.4062 18.2656 45.4062 27.9844
M54.3906 6.78125
Q54.3906 -7.17188 48.1875 -13.9844
Q42 -20.7969 29.2031 -20.7969
Q24.4688 -20.7969 20.2656 -20.0938
Q16.0625 -19.3906 12.1094 -17.9219
L12.1094 -9.1875
Q16.0625 -11.3281 19.9219 -12.3438
Q23.7812 -13.375 27.7812 -13.375
Q36.625 -13.375 41.0156 -8.76562
Q45.4062 -4.15625 45.4062 5.17188
L45.4062 9.625
Q42.625 4.78125 38.2812 2.39062
Q33.9375 0 27.875 0
Q17.8281 0 11.6719 7.65625
Q5.51562 15.3281 5.51562 27.9844
Q5.51562 40.6719 11.6719 48.3281
Q17.8281 56 27.875 56
Q33.9375 56 38.2812 53.6094
Q42.625 51.2188 45.4062 46.3906
L45.4062 54.6875
L54.3906 54.6875
z
" id="BitstreamVeraSans-Roman-67"/>
    </defs>
    <g transform="translate(105.856725 101.259669118)scale(0.12 -0.12)">
     <use xlink:href="#BitstreamVeraSans-Roman-66"/>
     <use x="35.205078125" xlink:href="#BitstreamVeraSans-Roman-69"/>
     <use x="62.98828125" xlink:href="#BitstreamVeraSans-Roman-6e"/>
     <use x="126.3671875" xlink:href="#BitstreamVeraSans-Roman-61"/>
     <use x="187.646484375" xlink:href="#BitstreamVeraSans-Roman-6c"/>
     <use x="215.4296875" xlink:href="#BitstreamVeraSans-Roman-2e"/>
     <use x="247.216796875" xlink:href="#BitstreamVeraSans-Roman-63"/>
     <use x="302.197265625" xlink:href="#BitstreamVeraSans-Roman-6f"/>
     <use x="363.37890625" xlink:href="#BitstreamVeraSans-Roman-6e"/>
     <use x="426.7578125" xlink:href="#BitstreamVeraSans-Roman-74"/>
     <use x="465.966796875" xlink:href="#BitstreamVeraSans-Roman-69"/>
     <use x="493.75" xlink:href="#BitstreamVeraSans-Roman-67"/>
     <use x="557.2265625" xlink:href="#BitstreamVeraSans-Roman-73"/>
    </g>
   </g>
  </g>
 </g>
 <defs>
  <clipPath id="p6a4ae4428d">
   <rect height="117.458823529" width="781.2" x="0.0" y="0.0"/>
  </clipPath>
 </defs>
</svg>
