<?xml version="1.0" encoding="utf-8" standalone="no"?>
<!DOCTYPE svg PUBLIC "-//W3C//DTD SVG 1.1//EN"
  "http://www.w3.org/Graphics/SVG/1.1/DTD/svg11.dtd">
<!-- Created with matplotlib (http://matplotlib.org/) -->
<svg height="117pt" version="1.1" viewBox="0 0 781 117" width="781pt" xmlns="http://www.w3.org/2000/svg" xmlns:xlink="http://www.w3.org/1999/xlink">
 <defs>
  <style type="text/css">
*{stroke-linecap:butt;stroke-linejoin:round;}
  </style>
 </defs>
 <g id="figure_1">
  <g id="patch_1">
   <path d="
M0 117.459
L781.2 117.459
L781.2 0
L0 0
z
" style="fill:#ffffff;"/>
  </g>
  <g id="axes_1">
   <g id="patch_2">
    <path clip-path="url(#p6a4ae4428d)" d="
M149.99 117.459
L720.266 117.459
L720.266 15.6612
L149.99 15.6612
z
" style="fill:#ffffff;"/>
   </g>
   <g id="patch_3">
    <path clip-path="url(#p6a4ae4428d)" d="
M448.412 106.888
L449.295 106.888
L449.295 95.1416
L448.412 95.1416
z
" style="fill:#4daf4a;"/>
   </g>
   <g id="patch_4">
    <path clip-path="url(#p6a4ae4428d)" d="
M449.295 105.321
L449.369 105.321
L449.369 93.5755
L449.295 93.5755
z
" style="fill:#40cf40;"/>
   </g>
   <g id="patch_5">
    <path clip-path="url(#p6a4ae4428d)" d="
M449.369 106.888
L449.548 106.888
L449.548 95.1416
L449.369 95.1416
z
" style="fill:#4daf4a;"/>
   </g>
   <g id="patch_6">
    <path clip-path="url(#p6a4ae4428d)" d="
M449.582 105.321
L454.951 105.321
L454.951 93.5755
L449.582 93.5755
z
" style="fill:#40cf40;"/>
   </g>
   <g id="patch_7">
    <path clip-path="url(#p6a4ae4428d)" d="
M454.956 106.888
L455.651 106.888
L455.651 95.1416
L454.956 95.1416
z
" style="fill:#4daf4a;"/>
   </g>
   <g id="patch_8">
    <path clip-path="url(#p6a4ae4428d)" d="
M455.653 105.321
L455.771 105.321
L455.771 93.5755
L455.653 93.5755
z
" style="fill:#40cf40;"/>
   </g>
   <g id="patch_9">
    <path clip-path="url(#p6a4ae4428d)" d="
M455.771 109.628
L456.815 109.628
L456.815 97.8824
L455.771 97.8824
z
" style="fill:#e41a1c;"/>
   </g>
   <g id="patch_10">
    <path clip-path="url(#p6a4ae4428d)" d="
M456.815 108.062
L460.124 108.062
L460.124 96.3162
L456.815 96.3162
z
" style="fill:#b82525;"/>
   </g>
   <g id="patch_11">
    <path clip-path="url(#p6a4ae4428d)" d="
M460.124 106.888
L461.211 106.888
L461.211 95.1416
L460.124 95.1416
z
" style="fill:#4daf4a;"/>
   </g>
   <g id="patch_12">
    <path clip-path="url(#p6a4ae4428d)" d="
M461.513 105.321
L461.973 105.321
L461.973 93.5755
L461.513 93.5755
z
" style="fill:#40cf40;"/>
   </g>
   <g id="patch_13">
    <path clip-path="url(#p6a4ae4428d)" d="
M461.974 106.888
L463.173 106.888
L463.173 95.1416
L461.974 95.1416
z
" style="fill:#4daf4a;"/>
   </g>
   <g id="patch_14">
    <path clip-path="url(#p6a4ae4428d)" d="
M463.208 105.321
L463.896 105.321
L463.896 93.5755
L463.208 93.5755
z
" style="fill:#40cf40;"/>
   </g>
   <g id="patch_15">
    <path clip-path="url(#p6a4ae4428d)" d="
M463.959 106.888
L464.091 106.888
L464.091 95.1416
L463.959 95.1416
z
" style="fill:#4daf4a;"/>
   </g>
   <g id="patch_16">
    <path clip-path="url(#p6a4ae4428d)" d="
M464.153 105.321
L464.389 105.321
L464.389 93.5755
L464.153 93.5755
z
" style="fill:#40cf40;"/>
   </g>
   <g id="patch_17">
    <path clip-path="url(#p6a4ae4428d)" d="
M464.424 106.888
L465.034 106.888
L465.034 95.1416
L464.424 95.1416
z
" style="fill:#4daf4a;"/>
   </g>
   <g id="patch_18">
    <path clip-path="url(#p6a4ae4428d)" d="
M465.08 105.321
L466.453 105.321
L466.453 93.5755
L465.08 93.5755
z
" style="fill:#40cf40;"/>
   </g>
   <g id="patch_19">
    <path clip-path="url(#p6a4ae4428d)" d="
M466.518 106.888
L470.231 106.888
L470.231 95.1416
L466.518 95.1416
z
" style="fill:#4daf4a;"/>
   </g>
   <g id="patch_20">
    <path clip-path="url(#p6a4ae4428d)" d="
M470.301 105.321
L470.829 105.321
L470.829 93.5755
L470.301 93.5755
z
" style="fill:#40cf40;"/>
   </g>
   <g id="patch_21">
    <path clip-path="url(#p6a4ae4428d)" d="
M470.895 106.888
L471.624 106.888
L471.624 95.1416
L470.895 95.1416
z
" style="fill:#4daf4a;"/>
   </g>
   <g id="patch_22">
    <path clip-path="url(#p6a4ae4428d)" d="
M471.624 105.321
L471.677 105.321
L471.677 93.5755
L471.624 93.5755
z
" style="fill:#40cf40;"/>
   </g>
   <g id="patch_23">
    <path clip-path="url(#p6a4ae4428d)" d="
M471.677 106.888
L478.498 106.888
L478.498 95.1416
L471.677 95.1416
z
" style="fill:#4daf4a;"/>
   </g>
   <g id="patch_24">
    <path clip-path="url(#p6a4ae4428d)" d="
M478.549 105.321
L479.269 105.321
L479.269 93.5755
L478.549 93.5755
z
" style="fill:#40cf40;"/>
   </g>
   <g id="patch_25">
    <path clip-path="url(#p6a4ae4428d)" d="
M479.269 106.888
L480.847 106.888
L480.847 95.1416
L479.269 95.1416
z
" style="fill:#4daf4a;"/>
   </g>
   <g id="patch_26">
    <path clip-path="url(#p6a4ae4428d)" d="
M480.847 105.321
L480.916 105.321
L480.916 93.5755
L480.847 93.5755
z
" style="fill:#40cf40;"/>
   </g>
   <g id="patch_27">
    <path clip-path="url(#p6a4ae4428d)" d="
M480.916 106.888
L481.294 106.888
L481.294 95.1416
L480.916 95.1416
z
" style="fill:#4daf4a;"/>
   </g>
   <g id="patch_28">
    <path clip-path="url(#p6a4ae4428d)" d="
M481.356 105.321
L483.206 105.321
L483.206 93.5755
L481.356 93.5755
z
" style="fill:#40cf40;"/>
   </g>
   <g id="patch_29">
    <path clip-path="url(#p6a4ae4428d)" d="
M483.277 106.888
L483.432 106.888
L483.432 95.1416
L483.277 95.1416
z
" style="fill:#4daf4a;"/>
   </g>
   <g id="patch_30">
    <path clip-path="url(#p6a4ae4428d)" d="
M483.434 105.321
L483.525 105.321
L483.525 93.5755
L483.434 93.5755
z
" style="fill:#40cf40;"/>
   </g>
   <g id="patch_31">
    <path clip-path="url(#p6a4ae4428d)" d="
M483.525 106.888
L487.775 106.888
L487.775 95.1416
L483.525 95.1416
z
" style="fill:#4daf4a;"/>
   </g>
   <g id="patch_32">
    <path clip-path="url(#p6a4ae4428d)" d="
M487.775 105.321
L487.84 105.321
L487.84 93.5755
L487.775 93.5755
z
" style="fill:#40cf40;"/>
   </g>
   <g id="patch_33">
    <path clip-path="url(#p6a4ae4428d)" d="
M487.84 109.628
L487.941 109.628
L487.941 97.8824
L487.84 97.8824
z
" style="fill:#e41a1c;"/>
   </g>
   <g id="patch_34">
    <path clip-path="url(#p6a4ae4428d)" d="
M487.941 108.062
L488.964 108.062
L488.964 96.3162
L487.941 96.3162
z
" style="fill:#b82525;"/>
   </g>
   <g id="patch_35">
    <path clip-path="url(#p6a4ae4428d)" d="
M488.964 106.888
L490.172 106.888
L490.172 95.1416
L488.964 95.1416
z
" style="fill:#4daf4a;"/>
   </g>
   <g id="patch_36">
    <path clip-path="url(#p6a4ae4428d)" d="
M490.365 105.321
L490.424 105.321
L490.424 93.5755
L490.365 93.5755
z
" style="fill:#40cf40;"/>
   </g>
   <g id="patch_37">
    <path clip-path="url(#p6a4ae4428d)" d="
M490.424 106.888
L490.459 106.888
L490.459 95.1416
L490.424 95.1416
z
" style="fill:#4daf4a;"/>
   </g>
   <g id="patch_38">
    <path clip-path="url(#p6a4ae4428d)" d="
M490.472 105.321
L492.101 105.321
L492.101 93.5755
L490.472 93.5755
z
" style="fill:#40cf40;"/>
   </g>
   <g id="patch_39">
    <path clip-path="url(#p6a4ae4428d)" d="
M492.101 106.888
L497.26 106.888
L497.26 95.1416
L492.101 95.1416
z
" style="fill:#4daf4a;"/>
   </g>
   <g id="patch_40">
    <path clip-path="url(#p6a4ae4428d)" d="
M497.274 105.321
L497.856 105.321
L497.856 93.5755
L497.274 93.5755
z
" style="fill:#40cf40;"/>
   </g>
   <g id="patch_41">
    <path clip-path="url(#p6a4ae4428d)" d="
M497.87 106.888
L498.261 106.888
L498.261 95.1416
L497.87 95.1416
z
" style="fill:#4daf4a;"/>
   </g>
   <g id="patch_42">
    <path clip-path="url(#p6a4ae4428d)" d="
M498.261 105.321
L500.178 105.321
L500.178 93.5755
L498.261 93.5755
z
" style="fill:#40cf40;"/>
   </g>
   <g id="patch_43">
    <path clip-path="url(#p6a4ae4428d)" d="
M500.179 106.888
L500.557 106.888
L500.557 95.1416
L500.179 95.1416
z
" style="fill:#4daf4a;"/>
   </g>
   <g id="patch_44">
    <path clip-path="url(#p6a4ae4428d)" d="
M500.557 108.062
L501.936 108.062
L501.936 96.3162
L500.557 96.3162
z
" style="fill:#b82525;"/>
   </g>
   <g id="patch_45">
    <path clip-path="url(#p6a4ae4428d)" d="
M501.936 109.628
L502.105 109.628
L502.105 97.8824
L501.936 97.8824
z
" style="fill:#e41a1c;"/>
   </g>
   <g id="patch_46">
    <path clip-path="url(#p6a4ae4428d)" d="
M502.105 108.062
L508.488 108.062
L508.488 96.3162
L502.105 96.3162
z
" style="fill:#b82525;"/>
   </g>
   <g id="patch_47">
    <path clip-path="url(#p6a4ae4428d)" d="
M508.523 106.888
L511.03 106.888
L511.03 95.1416
L508.523 95.1416
z
" style="fill:#4daf4a;"/>
   </g>
   <g id="patch_48">
    <path clip-path="url(#p6a4ae4428d)" d="
M511.095 105.321
L511.182 105.321
L511.182 93.5755
L511.095 93.5755
z
" style="fill:#40cf40;"/>
   </g>
   <g id="patch_49">
    <path clip-path="url(#p6a4ae4428d)" d="
M511.192 106.888
L516.238 106.888
L516.238 95.1416
L511.192 95.1416
z
" style="fill:#4daf4a;"/>
   </g>
   <g id="patch_50">
    <path clip-path="url(#p6a4ae4428d)" d="
M516.238 105.321
L516.781 105.321
L516.781 93.5755
L516.238 93.5755
z
" style="fill:#40cf40;"/>
   </g>
   <g id="patch_51">
    <path clip-path="url(#p6a4ae4428d)" d="
M516.782 106.888
L518.696 106.888
L518.696 95.1416
L516.782 95.1416
z
" style="fill:#4daf4a;"/>
   </g>
   <g id="patch_52">
    <path clip-path="url(#p6a4ae4428d)" d="
M518.697 105.321
L519 105.321
L519 93.5755
L518.697 93.5755
z
" style="fill:#40cf40;"/>
   </g>
   <g id="patch_53">
    <path clip-path="url(#p6a4ae4428d)" d="
M519.063 109.628
L527.095 109.628
L527.095 97.8824
L519.063 97.8824
z
" style="fill:#e41a1c;"/>
   </g>
   <g id="patch_54">
    <path clip-path="url(#p6a4ae4428d)" d="
M527.095 105.321
L528.118 105.321
L528.118 93.5755
L527.095 93.5755
z
" style="fill:#40cf40;"/>
   </g>
   <g id="patch_55">
    <path clip-path="url(#p6a4ae4428d)" d="
M528.18 109.628
L529.384 109.628
L529.384 97.8824
L528.18 97.8824
z
" style="fill:#e41a1c;"/>
   </g>
   <g id="patch_56">
    <path clip-path="url(#p6a4ae4428d)" d="
M529.384 105.321
L529.783 105.321
L529.783 93.5755
L529.384 93.5755
z
" style="fill:#40cf40;"/>
   </g>
   <g id="patch_57">
    <path clip-path="url(#p6a4ae4428d)" d="
M529.783 106.888
L530.122 106.888
L530.122 95.1416
L529.783 95.1416
z
" style="fill:#4daf4a;"/>
   </g>
   <g id="patch_58">
    <path clip-path="url(#p6a4ae4428d)" d="
M530.137 105.321
L530.375 105.321
L530.375 93.5755
L530.137 93.5755
z
" style="fill:#40cf40;"/>
   </g>
   <g id="patch_59">
    <path clip-path="url(#p6a4ae4428d)" d="
M530.507 106.888
L531.144 106.888
L531.144 95.1416
L530.507 95.1416
z
" style="fill:#4daf4a;"/>
   </g>
   <g id="patch_60">
    <path clip-path="url(#p6a4ae4428d)" d="
M531.144 108.062
L532.345 108.062
L532.345 96.3162
L531.144 96.3162
z
" style="fill:#b82525;"/>
   </g>
   <g id="patch_61">
    <path clip-path="url(#p6a4ae4428d)" d="
M532.349 106.888
L532.411 106.888
L532.411 95.1416
L532.349 95.1416
z
" style="fill:#4daf4a;"/>
   </g>
   <g id="patch_62">
    <path clip-path="url(#p6a4ae4428d)" d="
M532.488 105.321
L533.761 105.321
L533.761 93.5755
L532.488 93.5755
z
" style="fill:#40cf40;"/>
   </g>
   <g id="patch_63">
    <path clip-path="url(#p6a4ae4428d)" d="
M533.761 109.628
L535.861 109.628
L535.861 97.8824
L533.761 97.8824
z
" style="fill:#e41a1c;"/>
   </g>
   <g id="patch_64">
    <path clip-path="url(#p6a4ae4428d)" d="
M535.861 105.321
L535.914 105.321
L535.914 93.5755
L535.861 93.5755
z
" style="fill:#40cf40;"/>
   </g>
   <g id="patch_65">
    <path clip-path="url(#p6a4ae4428d)" d="
M535.914 106.888
L538.292 106.888
L538.292 95.1416
L535.914 95.1416
z
" style="fill:#4daf4a;"/>
   </g>
   <g id="patch_66">
    <path clip-path="url(#p6a4ae4428d)" d="
M538.292 105.321
L538.359 105.321
L538.359 93.5755
L538.292 93.5755
z
" style="fill:#40cf40;"/>
   </g>
   <g id="patch_67">
    <path clip-path="url(#p6a4ae4428d)" d="
M538.359 106.888
L541.833 106.888
L541.833 95.1416
L538.359 95.1416
z
" style="fill:#4daf4a;"/>
   </g>
   <g id="patch_68">
    <path clip-path="url(#p6a4ae4428d)" d="
M541.833 105.321
L541.873 105.321
L541.873 93.5755
L541.833 93.5755
z
" style="fill:#40cf40;"/>
   </g>
   <g id="patch_69">
    <path clip-path="url(#p6a4ae4428d)" d="
M541.874 106.888
L542.879 106.888
L542.879 95.1416
L541.874 95.1416
z
" style="fill:#4daf4a;"/>
   </g>
   <g id="patch_70">
    <path clip-path="url(#p6a4ae4428d)" d="
M542.914 105.321
L551.053 105.321
L551.053 93.5755
L542.914 93.5755
z
" style="fill:#40cf40;"/>
   </g>
   <g id="patch_71">
    <path clip-path="url(#p6a4ae4428d)" d="
M551.054 106.888
L557.751 106.888
L557.751 95.1416
L551.054 95.1416
z
" style="fill:#4daf4a;"/>
   </g>
   <g id="patch_72">
    <path clip-path="url(#p6a4ae4428d)" d="
M557.751 105.321
L557.846 105.321
L557.846 93.5755
L557.751 93.5755
z
" style="fill:#40cf40;"/>
   </g>
   <g id="patch_73">
    <path clip-path="url(#p6a4ae4428d)" d="
M557.846 106.888
L558.64 106.888
L558.64 95.1416
L557.846 95.1416
z
" style="fill:#4daf4a;"/>
   </g>
   <g id="patch_74">
    <path clip-path="url(#p6a4ae4428d)" d="
M558.641 105.321
L559.241 105.321
L559.241 93.5755
L558.641 93.5755
z
" style="fill:#40cf40;"/>
   </g>
   <g id="patch_75">
    <path clip-path="url(#p6a4ae4428d)" d="
M559.241 106.888
L561.231 106.888
L561.231 95.1416
L559.241 95.1416
z
" style="fill:#4daf4a;"/>
   </g>
   <g id="patch_76">
    <path clip-path="url(#p6a4ae4428d)" d="
M561.231 105.321
L561.629 105.321
L561.629 93.5755
L561.231 93.5755
z
" style="fill:#40cf40;"/>
   </g>
   <g id="patch_77">
    <path clip-path="url(#p6a4ae4428d)" d="
M561.629 106.888
L561.667 106.888
L561.667 95.1416
L561.629 95.1416
z
" style="fill:#4daf4a;"/>
   </g>
   <g id="patch_78">
    <path clip-path="url(#p6a4ae4428d)" d="
M561.667 105.321
L562.407 105.321
L562.407 93.5755
L561.667 93.5755
z
" style="fill:#40cf40;"/>
   </g>
   <g id="patch_79">
    <path clip-path="url(#p6a4ae4428d)" d="
M562.428 106.888
L566.646 106.888
L566.646 95.1416
L562.428 95.1416
z
" style="fill:#4daf4a;"/>
   </g>
   <g id="patch_80">
    <path clip-path="url(#p6a4ae4428d)" d="
M566.704 105.321
L566.804 105.321
L566.804 93.5755
L566.704 93.5755
z
" style="fill:#40cf40;"/>
   </g>
   <g id="patch_81">
    <path clip-path="url(#p6a4ae4428d)" d="
M566.838 106.888
L568.681 106.888
L568.681 95.1416
L566.838 95.1416
z
" style="fill:#4daf4a;"/>
   </g>
   <g id="patch_82">
    <path clip-path="url(#p6a4ae4428d)" d="
M568.743 105.321
L573.313 105.321
L573.313 93.5755
L568.743 93.5755
z
" style="fill:#40cf40;"/>
   </g>
   <g id="patch_83">
    <path clip-path="url(#p6a4ae4428d)" d="
M573.378 106.888
L579.392 106.888
L579.392 95.1416
L573.378 95.1416
z
" style="fill:#4daf4a;"/>
   </g>
   <g id="patch_84">
    <path clip-path="url(#p6a4ae4428d)" d="
M579.454 105.321
L580.512 105.321
L580.512 93.5755
L579.454 93.5755
z
" style="fill:#40cf40;"/>
   </g>
   <g id="patch_85">
    <path clip-path="url(#p6a4ae4428d)" d="
M580.512 109.628
L581.928 109.628
L581.928 97.8824
L580.512 97.8824
z
" style="fill:#e41a1c;"/>
   </g>
   <g id="patch_86">
    <path clip-path="url(#p6a4ae4428d)" d="
M581.929 105.321
L582.388 105.321
L582.388 93.5755
L581.929 93.5755
z
" style="fill:#40cf40;"/>
   </g>
   <g id="patch_87">
    <path clip-path="url(#p6a4ae4428d)" d="
M582.391 106.888
L582.795 106.888
L582.795 95.1416
L582.391 95.1416
z
" style="fill:#4daf4a;"/>
   </g>
   <g id="patch_88">
    <path clip-path="url(#p6a4ae4428d)" d="
M582.795 105.321
L586.968 105.321
L586.968 93.5755
L582.795 93.5755
z
" style="fill:#40cf40;"/>
   </g>
   <g id="patch_89">
    <path clip-path="url(#p6a4ae4428d)" d="
M586.968 106.888
L588.719 106.888
L588.719 95.1416
L586.968 95.1416
z
" style="fill:#4daf4a;"/>
   </g>
   <g id="patch_90">
    <path clip-path="url(#p6a4ae4428d)" d="
M588.719 108.062
L591.643 108.062
L591.643 96.3162
L588.719 96.3162
z
" style="fill:#b82525;"/>
   </g>
   <g id="patch_91">
    <path clip-path="url(#p6a4ae4428d)" d="
M591.644 106.888
L592.287 106.888
L592.287 95.1416
L591.644 95.1416
z
" style="fill:#4daf4a;"/>
   </g>
   <g id="patch_92">
    <path clip-path="url(#p6a4ae4428d)" d="
M592.357 105.321
L594.101 105.321
L594.101 93.5755
L592.357 93.5755
z
" style="fill:#40cf40;"/>
   </g>
   <g id="patch_93">
    <path clip-path="url(#p6a4ae4428d)" d="
M594.101 109.628
L595.918 109.628
L595.918 97.8824
L594.101 97.8824
z
" style="fill:#e41a1c;"/>
   </g>
   <g id="patch_94">
    <path clip-path="url(#p6a4ae4428d)" d="
M595.919 108.062
L597.888 108.062
L597.888 96.3162
L595.919 96.3162
z
" style="fill:#b82525;"/>
   </g>
   <g id="patch_95">
    <path clip-path="url(#p6a4ae4428d)" d="
M597.888 106.888
L601.28 106.888
L601.28 95.1416
L597.888 95.1416
z
" style="fill:#4daf4a;"/>
   </g>
   <g id="patch_96">
    <path clip-path="url(#p6a4ae4428d)" d="
M601.28 108.062
L605.922 108.062
L605.922 96.3162
L601.28 96.3162
z
" style="fill:#b82525;"/>
   </g>
   <g id="patch_97">
    <path clip-path="url(#p6a4ae4428d)" d="
M606.226 109.628
L607.019 109.628
L607.019 97.8824
L606.226 97.8824
z
" style="fill:#e41a1c;"/>
   </g>
   <g id="patch_98">
    <path clip-path="url(#p6a4ae4428d)" d="
M607.019 108.062
L608.645 108.062
L608.645 96.3162
L607.019 96.3162
z
" style="fill:#b82525;"/>
   </g>
   <g id="patch_99">
    <path clip-path="url(#p6a4ae4428d)" d="
M608.645 109.628
L609.355 109.628
L609.355 97.8824
L608.645 97.8824
z
" style="fill:#e41a1c;"/>
   </g>
   <g id="patch_100">
    <path clip-path="url(#p6a4ae4428d)" d="
M609.356 108.062
L609.651 108.062
L609.651 96.3162
L609.356 96.3162
z
" style="fill:#b82525;"/>
   </g>
   <g id="patch_101">
    <path clip-path="url(#p6a4ae4428d)" d="
M609.675 109.628
L619.873 109.628
L619.873 97.8824
L609.675 97.8824
z
" style="fill:#e41a1c;"/>
   </g>
   <g id="patch_102">
    <path clip-path="url(#p6a4ae4428d)" d="
M619.873 105.321
L619.91 105.321
L619.91 93.5755
L619.873 93.5755
z
" style="fill:#40cf40;"/>
   </g>
   <g id="patch_103">
    <path clip-path="url(#p6a4ae4428d)" d="
M619.943 106.888
L622.91 106.888
L622.91 95.1416
L619.943 95.1416
z
" style="fill:#4daf4a;"/>
   </g>
   <g id="patch_104">
    <path clip-path="url(#p6a4ae4428d)" d="
M622.925 105.321
L623.516 105.321
L623.516 93.5755
L622.925 93.5755
z
" style="fill:#40cf40;"/>
   </g>
   <g id="patch_105">
    <path clip-path="url(#p6a4ae4428d)" d="
M623.516 106.888
L626.65 106.888
L626.65 95.1416
L623.516 95.1416
z
" style="fill:#4daf4a;"/>
   </g>
   <g id="patch_106">
    <path clip-path="url(#p6a4ae4428d)" d="
M626.65 105.321
L627.528 105.321
L627.528 93.5755
L626.65 93.5755
z
" style="fill:#40cf40;"/>
   </g>
   <g id="patch_107">
    <path clip-path="url(#p6a4ae4428d)" d="
M627.59 106.888
L630.731 106.888
L630.731 95.1416
L627.59 95.1416
z
" style="fill:#4daf4a;"/>
   </g>
   <g id="patch_108">
    <path clip-path="url(#p6a4ae4428d)" d="
M630.8 105.321
L634.214 105.321
L634.214 93.5755
L630.8 93.5755
z
" style="fill:#40cf40;"/>
   </g>
   <g id="patch_109">
    <path clip-path="url(#p6a4ae4428d)" d="
M634.214 106.888
L640.974 106.888
L640.974 95.1416
L634.214 95.1416
z
" style="fill:#4daf4a;"/>
   </g>
   <g id="patch_110">
    <path clip-path="url(#p6a4ae4428d)" d="
M640.974 105.321
L641.396 105.321
L641.396 93.5755
L640.974 93.5755
z
" style="fill:#40cf40;"/>
   </g>
   <g id="patch_111">
    <path clip-path="url(#p6a4ae4428d)" d="
M641.399 106.888
L641.642 106.888
L641.642 95.1416
L641.399 95.1416
z
" style="fill:#4daf4a;"/>
   </g>
   <g id="patch_112">
    <path clip-path="url(#p6a4ae4428d)" d="
M641.642 108.062
L642.157 108.062
L642.157 96.3162
L641.642 96.3162
z
" style="fill:#b82525;"/>
   </g>
   <g id="patch_113">
    <path clip-path="url(#p6a4ae4428d)" d="
M642.337 109.628
L642.577 109.628
L642.577 97.8824
L642.337 97.8824
z
" style="fill:#e41a1c;"/>
   </g>
   <g id="patch_114">
    <path clip-path="url(#p6a4ae4428d)" d="
M642.628 105.321
L645.867 105.321
L645.867 93.5755
L642.628 93.5755
z
" style="fill:#40cf40;"/>
   </g>
   <g id="patch_115">
    <path clip-path="url(#p6a4ae4428d)" d="
M645.923 106.888
L645.955 106.888
L645.955 95.1416
L645.923 95.1416
z
" style="fill:#4daf4a;"/>
   </g>
   <g id="patch_116">
    <path clip-path="url(#p6a4ae4428d)" d="
M645.955 105.321
L646.137 105.321
L646.137 93.5755
L645.955 93.5755
z
" style="fill:#40cf40;"/>
   </g>
   <g id="patch_117">
    <path clip-path="url(#p6a4ae4428d)" d="
M646.137 106.888
L646.192 106.888
L646.192 95.1416
L646.137 95.1416
z
" style="fill:#4daf4a;"/>
   </g>
   <g id="patch_118">
    <path clip-path="url(#p6a4ae4428d)" d="
M646.192 105.321
L646.883 105.321
L646.883 93.5755
L646.192 93.5755
z
" style="fill:#40cf40;"/>
   </g>
   <g id="patch_119">
    <path clip-path="url(#p6a4ae4428d)" d="
M646.884 106.888
L647.144 106.888
L647.144 95.1416
L646.884 95.1416
z
" style="fill:#4daf4a;"/>
   </g>
   <g id="patch_120">
    <path clip-path="url(#p6a4ae4428d)" d="
M647.144 105.321
L647.44 105.321
L647.44 93.5755
L647.144 93.5755
z
" style="fill:#40cf40;"/>
   </g>
   <g id="patch_121">
    <path clip-path="url(#p6a4ae4428d)" d="
M647.448 106.888
L647.801 106.888
L647.801 95.1416
L647.448 95.1416
z
" style="fill:#4daf4a;"/>
   </g>
   <g id="patch_122">
    <path clip-path="url(#p6a4ae4428d)" d="
M647.801 105.321
L648.556 105.321
L648.556 93.5755
L647.801 93.5755
z
" style="fill:#40cf40;"/>
   </g>
   <g id="patch_123">
    <path clip-path="url(#p6a4ae4428d)" d="
M648.642 109.628
L653.469 109.628
L653.469 97.8824
L648.642 97.8824
z
" style="fill:#e41a1c;"/>
   </g>
   <g id="patch_124">
    <path clip-path="url(#p6a4ae4428d)" d="
M653.504 105.321
L655.521 105.321
L655.521 93.5755
L653.504 93.5755
z
" style="fill:#40cf40;"/>
   </g>
   <g id="patch_125">
    <path clip-path="url(#p6a4ae4428d)" d="
M655.521 106.888
L655.628 106.888
L655.628 95.1416
L655.521 95.1416
z
" style="fill:#4daf4a;"/>
   </g>
   <g id="patch_126">
    <path clip-path="url(#p6a4ae4428d)" d="
M655.696 108.062
L655.803 108.062
L655.803 96.3162
L655.696 96.3162
z
" style="fill:#b82525;"/>
   </g>
   <g id="patch_127">
    <path clip-path="url(#p6a4ae4428d)" d="
M655.866 106.888
L657.392 106.888
L657.392 95.1416
L655.866 95.1416
z
" style="fill:#4daf4a;"/>
   </g>
   <g id="patch_128">
    <path clip-path="url(#p6a4ae4428d)" d="
M657.454 105.321
L658.203 105.321
L658.203 93.5755
L657.454 93.5755
z
" style="fill:#40cf40;"/>
   </g>
   <g id="patch_129">
    <path clip-path="url(#p6a4ae4428d)" d="
M658.267 106.888
L659.71 106.888
L659.71 95.1416
L658.267 95.1416
z
" style="fill:#4daf4a;"/>
   </g>
   <g id="patch_130">
    <path clip-path="url(#p6a4ae4428d)" d="
M659.825 105.321
L663.816 105.321
L663.816 93.5755
L659.825 93.5755
z
" style="fill:#40cf40;"/>
   </g>
   <g id="patch_131">
    <path clip-path="url(#p6a4ae4428d)" d="
M663.819 106.888
L663.849 106.888
L663.849 95.1416
L663.819 95.1416
z
" style="fill:#4daf4a;"/>
   </g>
   <g id="patch_132">
    <path clip-path="url(#p6a4ae4428d)" d="
M663.897 108.062
L663.979 108.062
L663.979 96.3162
L663.897 96.3162
z
" style="fill:#b82525;"/>
   </g>
   <g id="patch_133">
    <path clip-path="url(#p6a4ae4428d)" d="
M663.997 106.888
L669.407 106.888
L669.407 95.1416
L663.997 95.1416
z
" style="fill:#4daf4a;"/>
   </g>
   <g id="patch_134">
    <path clip-path="url(#p6a4ae4428d)" d="
M669.407 105.321
L673.955 105.321
L673.955 93.5755
L669.407 93.5755
z
" style="fill:#40cf40;"/>
   </g>
   <g id="patch_135">
    <path clip-path="url(#p6a4ae4428d)" d="
M673.962 106.888
L674.059 106.888
L674.059 95.1416
L673.962 95.1416
z
" style="fill:#4daf4a;"/>
   </g>
   <g id="patch_136">
    <path clip-path="url(#p6a4ae4428d)" d="
M674.078 105.321
L674.257 105.321
L674.257 93.5755
L674.078 93.5755
z
" style="fill:#40cf40;"/>
   </g>
   <g id="patch_137">
    <path clip-path="url(#p6a4ae4428d)" d="
M674.261 106.888
L679.316 106.888
L679.316 95.1416
L674.261 95.1416
z
" style="fill:#4daf4a;"/>
   </g>
   <g id="patch_138">
    <path clip-path="url(#p6a4ae4428d)" d="
M679.632 105.321
L682.701 105.321
L682.701 93.5755
L679.632 93.5755
z
" style="fill:#40cf40;"/>
   </g>
   <g id="patch_139">
    <path clip-path="url(#p6a4ae4428d)" d="
M682.704 106.888
L683.165 106.888
L683.165 95.1416
L682.704 95.1416
z
" style="fill:#4daf4a;"/>
   </g>
   <g id="patch_140">
    <path clip-path="url(#p6a4ae4428d)" d="
M683.166 105.321
L683.462 105.321
L683.462 93.5755
L683.166 93.5755
z
" style="fill:#40cf40;"/>
   </g>
   <g id="patch_141">
    <path clip-path="url(#p6a4ae4428d)" d="
M683.463 106.888
L683.725 106.888
L683.725 95.1416
L683.463 95.1416
z
" style="fill:#4daf4a;"/>
   </g>
   <g id="patch_142">
    <path clip-path="url(#p6a4ae4428d)" d="
M684.039 105.321
L684.433 105.321
L684.433 93.5755
L684.039 93.5755
z
" style="fill:#40cf40;"/>
   </g>
   <g id="patch_143">
    <path clip-path="url(#p6a4ae4428d)" d="
M684.433 106.888
L686.943 106.888
L686.943 95.1416
L684.433 95.1416
z
" style="fill:#4daf4a;"/>
   </g>
   <g id="patch_144">
    <path clip-path="url(#p6a4ae4428d)" d="
M686.943 105.321
L687.13 105.321
L687.13 93.5755
L686.943 93.5755
z
" style="fill:#40cf40;"/>
   </g>
   <g id="patch_145">
    <path clip-path="url(#p6a4ae4428d)" d="
M687.135 106.888
L687.379 106.888
L687.379 95.1416
L687.135 95.1416
z
" style="fill:#4daf4a;"/>
   </g>
   <g id="patch_146">
    <path clip-path="url(#p6a4ae4428d)" d="
M687.432 105.321
L689.205 105.321
L689.205 93.5755
L687.432 93.5755
z
" style="fill:#40cf40;"/>
   </g>
   <g id="patch_147">
    <path clip-path="url(#p6a4ae4428d)" d="
M689.495 106.888
L694.25 106.888
L694.25 95.1416
L689.495 95.1416
z
" style="fill:#4daf4a;"/>
   </g>
   <g id="patch_148">
    <path clip-path="url(#p6a4ae4428d)" d="
M694.263 105.321
L697.265 105.321
L697.265 93.5755
L694.263 93.5755
z
" style="fill:#40cf40;"/>
   </g>
   <g id="patch_149">
    <path clip-path="url(#p6a4ae4428d)" d="
M697.265 106.888
L703.331 106.888
L703.331 95.1416
L697.265 95.1416
z
" style="fill:#4daf4a;"/>
   </g>
   <g id="patch_150">
    <path clip-path="url(#p6a4ae4428d)" d="
M703.331 105.321
L705.811 105.321
L705.811 93.5755
L703.331 93.5755
z
" style="fill:#40cf40;"/>
   </g>
   <g id="patch_151">
    <path clip-path="url(#p6a4ae4428d)" d="
M705.88 106.888
L706.341 106.888
L706.341 95.1416
L705.88 95.1416
z
" style="fill:#4daf4a;"/>
   </g>
   <g id="patch_152">
    <path clip-path="url(#p6a4ae4428d)" d="
M706.405 105.321
L713.763 105.321
L713.763 93.5755
L706.405 93.5755
z
" style="fill:#40cf40;"/>
   </g>
   <g id="patch_153">
    <path clip-path="url(#p6a4ae4428d)" d="
M713.763 106.888
L714.017 106.888
L714.017 95.1416
L713.763 95.1416
z
" style="fill:#4daf4a;"/>
   </g>
   <g id="line2d_1">
    <path clip-path="url(#p6a4ae4428d)" d="
M182.801 66.56
L448.406 66.56" style="fill:none;stroke:#000000;stroke-linecap:square;stroke-width:0.5;"/>
   </g>
   <g id="line2d_2">
    <path clip-path="url(#p6a4ae4428d)" d="
M182.801 15.6612
L182.801 109.628" style="fill:none;stroke:#808080;stroke-dasharray:1.000000,3.000000;stroke-dashoffset:0.0;stroke-width:0.2;"/>
   </g>
   <g id="line2d_3">
    <path clip-path="url(#p6a4ae4428d)" d="
M182.801 66.56
L182.801 68.9092" style="fill:none;stroke:#000000;stroke-linecap:square;stroke-width:0.5;"/>
   </g>
   <g id="line2d_4">
    <path clip-path="url(#p6a4ae4428d)" d="
M240.023 15.6612
L240.023 109.628" style="fill:none;stroke:#808080;stroke-dasharray:1.000000,3.000000;stroke-dashoffset:0.0;stroke-width:0.2;"/>
   </g>
   <g id="line2d_5">
    <path clip-path="url(#p6a4ae4428d)" d="
M240.023 66.56
L240.023 68.9092" style="fill:none;stroke:#000000;stroke-linecap:square;stroke-width:0.5;"/>
   </g>
   <g id="line2d_6">
    <path clip-path="url(#p6a4ae4428d)" d="
M297.245 15.6612
L297.245 109.628" style="fill:none;stroke:#808080;stroke-dasharray:1.000000,3.000000;stroke-dashoffset:0.0;stroke-width:0.2;"/>
   </g>
   <g id="line2d_7">
    <path clip-path="url(#p6a4ae4428d)" d="
M297.245 66.56
L297.245 68.9092" style="fill:none;stroke:#000000;stroke-linecap:square;stroke-width:0.5;"/>
   </g>
   <g id="line2d_8">
    <path clip-path="url(#p6a4ae4428d)" d="
M354.467 15.6612
L354.467 109.628" style="fill:none;stroke:#808080;stroke-dasharray:1.000000,3.000000;stroke-dashoffset:0.0;stroke-width:0.2;"/>
   </g>
   <g id="line2d_9">
    <path clip-path="url(#p6a4ae4428d)" d="
M354.467 66.56
L354.467 68.9092" style="fill:none;stroke:#000000;stroke-linecap:square;stroke-width:0.5;"/>
   </g>
   <g id="line2d_10">
    <path clip-path="url(#p6a4ae4428d)" d="
M411.689 15.6612
L411.689 109.628" style="fill:none;stroke:#808080;stroke-dasharray:1.000000,3.000000;stroke-dashoffset:0.0;stroke-width:0.2;"/>
   </g>
   <g id="line2d_11">
    <path clip-path="url(#p6a4ae4428d)" d="
M411.689 66.56
L411.689 68.9092" style="fill:none;stroke:#000000;stroke-linecap:square;stroke-width:0.5;"/>
   </g>
   <g id="line2d_12">
    <path clip-path="url(#p6a4ae4428d)" d="
M448.406 15.6612
L448.406 109.628" style="fill:none;stroke:#808080;stroke-dasharray:1.000000,3.000000;stroke-dashoffset:0.0;stroke-width:0.2;"/>
   </g>
   <g id="line2d_13">
    <path clip-path="url(#p6a4ae4428d)" d="
M448.406 66.56
L448.406 68.9092" style="fill:none;stroke:#000000;stroke-linecap:square;stroke-width:0.5;"/>
   </g>
   <g id="line2d_14">
    <path clip-path="url(#p6a4ae4428d)" d="
M448.412 66.56
L714.017 66.56" style="fill:none;stroke:#000000;stroke-linecap:square;stroke-width:0.5;"/>
   </g>
   <g id="line2d_15">
    <path clip-path="url(#p6a4ae4428d)" d="
M448.412 15.6612
L448.412 109.628" style="fill:none;stroke:#808080;stroke-dasharray:1.000000,3.000000;stroke-dashoffset:0.0;stroke-width:0.2;"/>
   </g>
   <g id="line2d_16">
    <path clip-path="url(#p6a4ae4428d)" d="
M448.412 66.56
L448.412 68.9092" style="fill:none;stroke:#000000;stroke-linecap:square;stroke-width:0.5;"/>
   </g>
   <g id="line2d_17">
    <path clip-path="url(#p6a4ae4428d)" d="
M505.634 15.6612
L505.634 109.628" style="fill:none;stroke:#808080;stroke-dasharray:1.000000,3.000000;stroke-dashoffset:0.0;stroke-width:0.2;"/>
   </g>
   <g id="line2d_18">
    <path clip-path="url(#p6a4ae4428d)" d="
M505.634 66.56
L505.634 68.9092" style="fill:none;stroke:#000000;stroke-linecap:square;stroke-width:0.5;"/>
   </g>
   <g id="line2d_19">
    <path clip-path="url(#p6a4ae4428d)" d="
M562.856 15.6612
L562.856 109.628" style="fill:none;stroke:#808080;stroke-dasharray:1.000000,3.000000;stroke-dashoffset:0.0;stroke-width:0.2;"/>
   </g>
   <g id="line2d_20">
    <path clip-path="url(#p6a4ae4428d)" d="
M562.856 66.56
L562.856 68.9092" style="fill:none;stroke:#000000;stroke-linecap:square;stroke-width:0.5;"/>
   </g>
   <g id="line2d_21">
    <path clip-path="url(#p6a4ae4428d)" d="
M620.078 15.6612
L620.078 109.628" style="fill:none;stroke:#808080;stroke-dasharray:1.000000,3.000000;stroke-dashoffset:0.0;stroke-width:0.2;"/>
   </g>
   <g id="line2d_22">
    <path clip-path="url(#p6a4ae4428d)" d="
M620.078 66.56
L620.078 68.9092" style="fill:none;stroke:#000000;stroke-linecap:square;stroke-width:0.5;"/>
   </g>
   <g id="line2d_23">
    <path clip-path="url(#p6a4ae4428d)" d="
M677.3 15.6612
L677.3 109.628" style="fill:none;stroke:#808080;stroke-dasharray:1.000000,3.000000;stroke-dashoffset:0.0;stroke-width:0.2;"/>
   </g>
   <g id="line2d_24">
    <path clip-path="url(#p6a4ae4428d)" d="
M677.3 66.56
L677.3 68.9092" style="fill:none;stroke:#000000;stroke-linecap:square;stroke-width:0.5;"/>
   </g>
   <g id="line2d_25">
    <path clip-path="url(#p6a4ae4428d)" d="
M714.017 15.6612
L714.017 109.628" style="fill:none;stroke:#808080;stroke-dasharray:1.000000,3.000000;stroke-dashoffset:0.0;stroke-width:0.2;"/>
   </g>
   <g id="line2d_26">
    <path clip-path="url(#p6a4ae4428d)" d="
M714.017 66.56
L714.017 68.9092" style="fill:none;stroke:#000000;stroke-linecap:square;stroke-width:0.5;"/>
   </g>
   <g id="text_1">
    <!-- 0.0 -->
    <defs>
     <path d="
M31.7812 66.4062
Q24.1719 66.4062 20.3281 58.9062
Q16.5 51.4219 16.5 36.375
Q16.5 21.3906 20.3281 13.8906
Q24.1719 6.39062 31.7812 6.39062
Q39.4531 6.39062 43.2812 13.8906
Q47.125 21.3906 47.125 36.375
Q47.125 51.4219 43.2812 58.9062
Q39.4531 66.4062 31.7812 66.4062
M31.7812 74.2188
Q44.0469 74.2188 50.5156 64.5156
Q56.9844 54.8281 56.9844 36.375
Q56.9844 17.9688 50.5156 8.26562
Q44.0469 -1.42188 31.7812 -1.42188
Q19.5312 -1.42188 13.0625 8.26562
Q6.59375 17.9688 6.59375 36.375
Q6.59375 54.8281 13.0625 64.5156
Q19.5312 74.2188 31.7812 74.2188" id="DejaVuSans-30"/>
     <path d="
M10.6875 12.4062
L21 12.4062
L21 0
L10.6875 0
z
" id="DejaVuSans-2e"/>
    </defs>
    <g transform="translate(184.67568 74.9879264706)scale(0.08 -0.08)">
     <use xlink:href="#DejaVuSans-30"/>
     <use x="63.623046875" xlink:href="#DejaVuSans-2e"/>
     <use x="95.41015625" xlink:href="#DejaVuSans-30"/>
    </g>
   </g>
   <g id="text_2">
    <!-- 1.0 -->
    <defs>
     <path d="
M12.4062 8.29688
L28.5156 8.29688
L28.5156 63.9219
L10.9844 60.4062
L10.9844 69.3906
L28.4219 72.9062
L38.2812 72.9062
L38.2812 8.29688
L54.3906 8.29688
L54.3906 0
L12.4062 0
z
" id="DejaVuSans-31"/>
    </defs>
    <g transform="translate(241.897793785 74.9879264706)scale(0.08 -0.08)">
     <use xlink:href="#DejaVuSans-31"/>
     <use x="63.623046875" xlink:href="#DejaVuSans-2e"/>
     <use x="95.41015625" xlink:href="#DejaVuSans-30"/>
    </g>
   </g>
   <g id="text_3">
    <!-- 2.0 -->
    <defs>
     <path d="
M19.1875 8.29688
L53.6094 8.29688
L53.6094 0
L7.32812 0
L7.32812 8.29688
Q12.9375 14.1094 22.625 23.8906
Q32.3281 33.6875 34.8125 36.5312
Q39.5469 41.8438 41.4219 45.5312
Q43.3125 49.2188 43.3125 52.7812
Q43.3125 58.5938 39.2344 62.25
Q35.1562 65.9219 28.6094 65.9219
Q23.9688 65.9219 18.8125 64.3125
Q13.6719 62.7031 7.8125 59.4219
L7.8125 69.3906
Q13.7656 71.7812 18.9375 73
Q24.125 74.2188 28.4219 74.2188
Q39.75 74.2188 46.4844 68.5469
Q53.2188 62.8906 53.2188 53.4219
Q53.2188 48.9219 51.5312 44.8906
Q49.8594 40.875 45.4062 35.4062
Q44.1875 33.9844 37.6406 27.2188
Q31.1094 20.4531 19.1875 8.29688" id="DejaVuSans-32"/>
    </defs>
    <g transform="translate(299.11990757 74.9879264706)scale(0.08 -0.08)">
     <use xlink:href="#DejaVuSans-32"/>
     <use x="63.623046875" xlink:href="#DejaVuSans-2e"/>
     <use x="95.41015625" xlink:href="#DejaVuSans-30"/>
    </g>
   </g>
   <g id="text_4">
    <!-- 3.0 -->
    <defs>
     <path d="
M40.5781 39.3125
Q47.6562 37.7969 51.625 33
Q55.6094 28.2188 55.6094 21.1875
Q55.6094 10.4062 48.1875 4.48438
Q40.7656 -1.42188 27.0938 -1.42188
Q22.5156 -1.42188 17.6562 -0.515625
Q12.7969 0.390625 7.625 2.20312
L7.625 11.7188
Q11.7188 9.32812 16.5938 8.10938
Q21.4844 6.89062 26.8125 6.89062
Q36.0781 6.89062 40.9375 10.5469
Q45.7969 14.2031 45.7969 21.1875
Q45.7969 27.6406 41.2812 31.2656
Q36.7656 34.9062 28.7188 34.9062
L20.2188 34.9062
L20.2188 43.0156
L29.1094 43.0156
Q36.375 43.0156 40.2344 45.9219
Q44.0938 48.8281 44.0938 54.2969
Q44.0938 59.9062 40.1094 62.9062
Q36.1406 65.9219 28.7188 65.9219
Q24.6562 65.9219 20.0156 65.0312
Q15.375 64.1562 9.8125 62.3125
L9.8125 71.0938
Q15.4375 72.6562 20.3438 73.4375
Q25.25 74.2188 29.5938 74.2188
Q40.8281 74.2188 47.3594 69.1094
Q53.9062 64.0156 53.9062 55.3281
Q53.9062 49.2656 50.4375 45.0938
Q46.9688 40.9219 40.5781 39.3125" id="DejaVuSans-33"/>
    </defs>
    <g transform="translate(356.342021355 74.9879264706)scale(0.08 -0.08)">
     <use xlink:href="#DejaVuSans-33"/>
     <use x="63.623046875" xlink:href="#DejaVuSans-2e"/>
     <use x="95.41015625" xlink:href="#DejaVuSans-30"/>
    </g>
   </g>
   <g id="text_5">
    <!-- 4.0 -->
    <defs>
     <path d="
M37.7969 64.3125
L12.8906 25.3906
L37.7969 25.3906
z

M35.2031 72.9062
L47.6094 72.9062
L47.6094 25.3906
L58.0156 25.3906
L58.0156 17.1875
L47.6094 17.1875
L47.6094 0
L37.7969 0
L37.7969 17.1875
L4.89062 17.1875
L4.89062 26.7031
z
" id="DejaVuSans-34"/>
    </defs>
    <g transform="translate(413.56413514 74.9879264706)scale(0.08 -0.08)">
     <use xlink:href="#DejaVuSans-34"/>
     <use x="63.623046875" xlink:href="#DejaVuSans-2e"/>
     <use x="95.41015625" xlink:href="#DejaVuSans-30"/>
    </g>
   </g>
   <g id="text_6">
    <!-- 4.64 -->
    <defs>
     <path d="
M33.0156 40.375
Q26.375 40.375 22.4844 35.8281
Q18.6094 31.2969 18.6094 23.3906
Q18.6094 15.5312 22.4844 10.9531
Q26.375 6.39062 33.0156 6.39062
Q39.6562 6.39062 43.5312 10.9531
Q47.4062 15.5312 47.4062 23.3906
Q47.4062 31.2969 43.5312 35.8281
Q39.6562 40.375 33.0156 40.375
M52.5938 71.2969
L52.5938 62.3125
Q48.875 64.0625 45.0938 64.9844
Q41.3125 65.9219 37.5938 65.9219
Q27.8281 65.9219 22.6719 59.3281
Q17.5312 52.7344 16.7969 39.4062
Q19.6719 43.6562 24.0156 45.9219
Q28.375 48.1875 33.5938 48.1875
Q44.5781 48.1875 50.9531 41.5156
Q57.3281 34.8594 57.3281 23.3906
Q57.3281 12.1562 50.6875 5.35938
Q44.0469 -1.42188 33.0156 -1.42188
Q20.3594 -1.42188 13.6719 8.26562
Q6.98438 17.9688 6.98438 36.375
Q6.98438 53.6562 15.1875 63.9375
Q23.3906 74.2188 37.2031 74.2188
Q40.9219 74.2188 44.7031 73.4844
Q48.4844 72.75 52.5938 71.2969" id="DejaVuSans-36"/>
    </defs>
    <g transform="translate(450.280818894 74.9879264706)scale(0.08 -0.08)">
     <use xlink:href="#DejaVuSans-34"/>
     <use x="63.623046875" xlink:href="#DejaVuSans-2e"/>
     <use x="95.41015625" xlink:href="#DejaVuSans-36"/>
     <use x="159.033203125" xlink:href="#DejaVuSans-34"/>
    </g>
   </g>
   <g id="text_7">
    <!-- Ecoli_0920_Taxon005_ -->
    <defs>
     <path d="
M30.6094 48.3906
Q23.3906 48.3906 19.1875 42.75
Q14.9844 37.1094 14.9844 27.2969
Q14.9844 17.4844 19.1562 11.8438
Q23.3438 6.20312 30.6094 6.20312
Q37.7969 6.20312 41.9844 11.8594
Q46.1875 17.5312 46.1875 27.2969
Q46.1875 37.0156 41.9844 42.7031
Q37.7969 48.3906 30.6094 48.3906
M30.6094 56
Q42.3281 56 49.0156 48.375
Q55.7188 40.7656 55.7188 27.2969
Q55.7188 13.875 49.0156 6.21875
Q42.3281 -1.42188 30.6094 -1.42188
Q18.8438 -1.42188 12.1719 6.21875
Q5.51562 13.875 5.51562 27.2969
Q5.51562 40.7656 12.1719 48.375
Q18.8438 56 30.6094 56" id="DejaVuSans-6f"/>
     <path d="
M54.8906 33.0156
L54.8906 0
L45.9062 0
L45.9062 32.7188
Q45.9062 40.4844 42.875 44.3281
Q39.8438 48.1875 33.7969 48.1875
Q26.5156 48.1875 22.3125 43.5469
Q18.1094 38.9219 18.1094 30.9062
L18.1094 0
L9.07812 0
L9.07812 54.6875
L18.1094 54.6875
L18.1094 46.1875
Q21.3438 51.125 25.7031 53.5625
Q30.0781 56 35.7969 56
Q45.2188 56 50.0469 50.1719
Q54.8906 44.3438 54.8906 33.0156" id="DejaVuSans-6e"/>
     <path d="
M50.9844 -16.6094
L50.9844 -23.5781
L-0.984375 -23.5781
L-0.984375 -16.6094
z
" id="DejaVuSans-5f"/>
     <path d="
M9.42188 75.9844
L18.4062 75.9844
L18.4062 0
L9.42188 0
z
" id="DejaVuSans-6c"/>
     <path d="
M9.8125 72.9062
L55.9062 72.9062
L55.9062 64.5938
L19.6719 64.5938
L19.6719 43.0156
L54.3906 43.0156
L54.3906 34.7188
L19.6719 34.7188
L19.6719 8.29688
L56.7812 8.29688
L56.7812 0
L9.8125 0
z
" id="DejaVuSans-45"/>
     <path d="
M10.7969 72.9062
L49.5156 72.9062
L49.5156 64.5938
L19.8281 64.5938
L19.8281 46.7344
Q21.9688 47.4688 24.1094 47.8281
Q26.2656 48.1875 28.4219 48.1875
Q40.625 48.1875 47.75 41.5
Q54.8906 34.8125 54.8906 23.3906
Q54.8906 11.625 47.5625 5.09375
Q40.2344 -1.42188 26.9062 -1.42188
Q22.3125 -1.42188 17.5469 -0.640625
Q12.7969 0.140625 7.71875 1.70312
L7.71875 11.625
Q12.1094 9.23438 16.7969 8.0625
Q21.4844 6.89062 26.7031 6.89062
Q35.1562 6.89062 40.0781 11.3281
Q45.0156 15.7656 45.0156 23.3906
Q45.0156 31 40.0781 35.4375
Q35.1562 39.8906 26.7031 39.8906
Q22.75 39.8906 18.8125 39.0156
Q14.8906 38.1406 10.7969 36.2812
z
" id="DejaVuSans-35"/>
     <path d="
M54.8906 54.6875
L35.1094 28.0781
L55.9062 0
L45.3125 0
L29.3906 21.4844
L13.4844 0
L2.875 0
L24.125 28.6094
L4.6875 54.6875
L15.2812 54.6875
L29.7812 35.2031
L44.2812 54.6875
z
" id="DejaVuSans-78"/>
     <path d="
M9.42188 54.6875
L18.4062 54.6875
L18.4062 0
L9.42188 0
z

M9.42188 75.9844
L18.4062 75.9844
L18.4062 64.5938
L9.42188 64.5938
z
" id="DejaVuSans-69"/>
     <path d="
M10.9844 1.51562
L10.9844 10.5
Q14.7031 8.73438 18.5 7.8125
Q22.3125 6.89062 25.9844 6.89062
Q35.75 6.89062 40.8906 13.4531
Q46.0469 20.0156 46.7812 33.4062
Q43.9531 29.2031 39.5938 26.9531
Q35.25 24.7031 29.9844 24.7031
Q19.0469 24.7031 12.6719 31.3125
Q6.29688 37.9375 6.29688 49.4219
Q6.29688 60.6406 12.9375 67.4219
Q19.5781 74.2188 30.6094 74.2188
Q43.2656 74.2188 49.9219 64.5156
Q56.5938 54.8281 56.5938 36.375
Q56.5938 19.1406 48.4062 8.85938
Q40.2344 -1.42188 26.4219 -1.42188
Q22.7031 -1.42188 18.8906 -0.6875
Q15.0938 0.046875 10.9844 1.51562
M30.6094 32.4219
Q37.25 32.4219 41.125 36.9531
Q45.0156 41.5 45.0156 49.4219
Q45.0156 57.2812 41.125 61.8438
Q37.25 66.4062 30.6094 66.4062
Q23.9688 66.4062 20.0938 61.8438
Q16.2188 57.2812 16.2188 49.4219
Q16.2188 41.5 20.0938 36.9531
Q23.9688 32.4219 30.6094 32.4219" id="DejaVuSans-39"/>
     <path d="
M34.2812 27.4844
Q23.3906 27.4844 19.1875 25
Q14.9844 22.5156 14.9844 16.5
Q14.9844 11.7188 18.1406 8.90625
Q21.2969 6.10938 26.7031 6.10938
Q34.1875 6.10938 38.7031 11.4062
Q43.2188 16.7031 43.2188 25.4844
L43.2188 27.4844
z

M52.2031 31.2031
L52.2031 0
L43.2188 0
L43.2188 8.29688
Q40.1406 3.32812 35.5469 0.953125
Q30.9531 -1.42188 24.3125 -1.42188
Q15.9219 -1.42188 10.9531 3.29688
Q6 8.01562 6 15.9219
Q6 25.1406 12.1719 29.8281
Q18.3594 34.5156 30.6094 34.5156
L43.2188 34.5156
L43.2188 35.4062
Q43.2188 41.6094 39.1406 45
Q35.0625 48.3906 27.6875 48.3906
Q23 48.3906 18.5469 47.2656
Q14.1094 46.1406 10.0156 43.8906
L10.0156 52.2031
Q14.9375 54.1094 19.5781 55.0469
Q24.2188 56 28.6094 56
Q40.4844 56 46.3438 49.8438
Q52.2031 43.7031 52.2031 31.2031" id="DejaVuSans-61"/>
     <path d="
M48.7812 52.5938
L48.7812 44.1875
Q44.9688 46.2969 41.1406 47.3438
Q37.3125 48.3906 33.4062 48.3906
Q24.6562 48.3906 19.8125 42.8438
Q14.9844 37.3125 14.9844 27.2969
Q14.9844 17.2812 19.8125 11.7344
Q24.6562 6.20312 33.4062 6.20312
Q37.3125 6.20312 41.1406 7.25
Q44.9688 8.29688 48.7812 10.4062
L48.7812 2.09375
Q45.0156 0.34375 40.9844 -0.53125
Q36.9688 -1.42188 32.4219 -1.42188
Q20.0625 -1.42188 12.7812 6.34375
Q5.51562 14.1094 5.51562 27.2969
Q5.51562 40.6719 12.8594 48.3281
Q20.2188 56 33.0156 56
Q37.1562 56 41.1094 55.1406
Q45.0625 54.2969 48.7812 52.5938" id="DejaVuSans-63"/>
     <path d="
M-0.296875 72.9062
L61.375 72.9062
L61.375 64.5938
L35.5 64.5938
L35.5 0
L25.5938 0
L25.5938 64.5938
L-0.296875 64.5938
z
" id="DejaVuSans-54"/>
    </defs>
    <g transform="translate(254.665947572 56.7121636029)scale(0.11 -0.11)">
     <use xlink:href="#DejaVuSans-45"/>
     <use x="63.18359375" xlink:href="#DejaVuSans-63"/>
     <use x="118.1640625" xlink:href="#DejaVuSans-6f"/>
     <use x="179.345703125" xlink:href="#DejaVuSans-6c"/>
     <use x="207.12890625" xlink:href="#DejaVuSans-69"/>
     <use x="234.912109375" xlink:href="#DejaVuSans-5f"/>
     <use x="284.912109375" xlink:href="#DejaVuSans-30"/>
     <use x="348.53515625" xlink:href="#DejaVuSans-39"/>
     <use x="412.158203125" xlink:href="#DejaVuSans-32"/>
     <use x="475.78125" xlink:href="#DejaVuSans-30"/>
     <use x="539.404296875" xlink:href="#DejaVuSans-5f"/>
     <use x="589.404296875" xlink:href="#DejaVuSans-54"/>
     <use x="633.98828125" xlink:href="#DejaVuSans-61"/>
     <use x="695.267578125" xlink:href="#DejaVuSans-78"/>
     <use x="751.322265625" xlink:href="#DejaVuSans-6f"/>
     <use x="812.50390625" xlink:href="#DejaVuSans-6e"/>
     <use x="875.8828125" xlink:href="#DejaVuSans-30"/>
     <use x="939.505859375" xlink:href="#DejaVuSans-30"/>
     <use x="1003.12890625" xlink:href="#DejaVuSans-35"/>
     <use x="1066.75195312" xlink:href="#DejaVuSans-5f"/>
    </g>
   </g>
   <g id="text_8">
    <!-- 0.0 -->
    <g transform="translate(450.286541106 74.9879264706)scale(0.08 -0.08)">
     <use xlink:href="#DejaVuSans-30"/>
     <use x="63.623046875" xlink:href="#DejaVuSans-2e"/>
     <use x="95.41015625" xlink:href="#DejaVuSans-30"/>
    </g>
   </g>
   <g id="text_9">
    <!-- 1.0 -->
    <g transform="translate(507.508654891 74.9879264706)scale(0.08 -0.08)">
     <use xlink:href="#DejaVuSans-31"/>
     <use x="63.623046875" xlink:href="#DejaVuSans-2e"/>
     <use x="95.41015625" xlink:href="#DejaVuSans-30"/>
    </g>
   </g>
   <g id="text_10">
    <!-- 2.0 -->
    <g transform="translate(564.730768676 74.9879264706)scale(0.08 -0.08)">
     <use xlink:href="#DejaVuSans-32"/>
     <use x="63.623046875" xlink:href="#DejaVuSans-2e"/>
     <use x="95.41015625" xlink:href="#DejaVuSans-30"/>
    </g>
   </g>
   <g id="text_11">
    <!-- 3.0 -->
    <g transform="translate(621.952882461 74.9879264706)scale(0.08 -0.08)">
     <use xlink:href="#DejaVuSans-33"/>
     <use x="63.623046875" xlink:href="#DejaVuSans-2e"/>
     <use x="95.41015625" xlink:href="#DejaVuSans-30"/>
    </g>
   </g>
   <g id="text_12">
    <!-- 4.0 -->
    <g transform="translate(679.174996246 74.9879264706)scale(0.08 -0.08)">
     <use xlink:href="#DejaVuSans-34"/>
     <use x="63.623046875" xlink:href="#DejaVuSans-2e"/>
     <use x="95.41015625" xlink:href="#DejaVuSans-30"/>
    </g>
   </g>
   <g id="text_13">
    <!-- 4.64 -->
    <g transform="translate(715.89168 74.9879264706)scale(0.08 -0.08)">
     <use xlink:href="#DejaVuSans-34"/>
     <use x="63.623046875" xlink:href="#DejaVuSans-2e"/>
     <use x="95.41015625" xlink:href="#DejaVuSans-36"/>
     <use x="159.033203125" xlink:href="#DejaVuSans-34"/>
    </g>
   </g>
   <g id="text_14">
    <!-- Ecoli_0995_Taxon020_ -->
    <g transform="translate(520.276808678 56.7121636029)scale(0.11 -0.11)">
     <use xlink:href="#DejaVuSans-45"/>
     <use x="63.18359375" xlink:href="#DejaVuSans-63"/>
     <use x="118.1640625" xlink:href="#DejaVuSans-6f"/>
     <use x="179.345703125" xlink:href="#DejaVuSans-6c"/>
     <use x="207.12890625" xlink:href="#DejaVuSans-69"/>
     <use x="234.912109375" xlink:href="#DejaVuSans-5f"/>
     <use x="284.912109375" xlink:href="#DejaVuSans-30"/>
     <use x="348.53515625" xlink:href="#DejaVuSans-39"/>
     <use x="412.158203125" xlink:href="#DejaVuSans-39"/>
     <use x="475.78125" xlink:href="#DejaVuSans-35"/>
     <use x="539.404296875" xlink:href="#DejaVuSans-5f"/>
     <use x="589.404296875" xlink:href="#DejaVuSans-54"/>
     <use x="633.98828125" xlink:href="#DejaVuSans-61"/>
     <use x="695.267578125" xlink:href="#DejaVuSans-78"/>
     <use x="751.322265625" xlink:href="#DejaVuSans-6f"/>
     <use x="812.50390625" xlink:href="#DejaVuSans-6e"/>
     <use x="875.8828125" xlink:href="#DejaVuSans-30"/>
     <use x="939.505859375" xlink:href="#DejaVuSans-32"/>
     <use x="1003.12890625" xlink:href="#DejaVuSans-30"/>
     <use x="1066.75195312" xlink:href="#DejaVuSans-5f"/>
    </g>
   </g>
   <g id="text_15">
    <!-- Genome, Mb -->
    <defs>
     <path d="
M9.8125 72.9062
L24.5156 72.9062
L43.1094 23.2969
L61.8125 72.9062
L76.5156 72.9062
L76.5156 0
L66.8906 0
L66.8906 64.0156
L48.0938 14.0156
L38.1875 14.0156
L19.3906 64.0156
L19.3906 0
L9.8125 0
z
" id="DejaVuSans-4d"/>
     <path d="
M11.7188 12.4062
L22.0156 12.4062
L22.0156 4
L14.0156 -11.625
L7.71875 -11.625
L11.7188 4
z
" id="DejaVuSans-2c"/>
     <path d="
M52 44.1875
Q55.375 50.25 60.0625 53.125
Q64.75 56 71.0938 56
Q79.6406 56 84.2812 50.0156
Q88.9219 44.0469 88.9219 33.0156
L88.9219 0
L79.8906 0
L79.8906 32.7188
Q79.8906 40.5781 77.0938 44.375
Q74.3125 48.1875 68.6094 48.1875
Q61.625 48.1875 57.5625 43.5469
Q53.5156 38.9219 53.5156 30.9062
L53.5156 0
L44.4844 0
L44.4844 32.7188
Q44.4844 40.625 41.7031 44.4062
Q38.9219 48.1875 33.1094 48.1875
Q26.2188 48.1875 22.1562 43.5312
Q18.1094 38.875 18.1094 30.9062
L18.1094 0
L9.07812 0
L9.07812 54.6875
L18.1094 54.6875
L18.1094 46.1875
Q21.1875 51.2188 25.4844 53.6094
Q29.7812 56 35.6875 56
Q41.6562 56 45.8281 52.9688
Q50 49.9531 52 44.1875" id="DejaVuSans-6d"/>
     <path id="DejaVuSans-20"/>
     <path d="
M59.5156 10.4062
L59.5156 29.9844
L43.4062 29.9844
L43.4062 38.0938
L69.2812 38.0938
L69.2812 6.78125
Q63.5781 2.73438 56.6875 0.65625
Q49.8125 -1.42188 42 -1.42188
Q24.9062 -1.42188 15.25 8.5625
Q5.60938 18.5625 5.60938 36.375
Q5.60938 54.25 15.25 64.2344
Q24.9062 74.2188 42 74.2188
Q49.125 74.2188 55.5469 72.4531
Q61.9688 70.7031 67.3906 67.2812
L67.3906 56.7812
Q61.9219 61.4219 55.7656 63.7656
Q49.6094 66.1094 42.8281 66.1094
Q29.4375 66.1094 22.7188 58.6406
Q16.0156 51.1719 16.0156 36.375
Q16.0156 21.625 22.7188 14.1562
Q29.4375 6.6875 42.8281 6.6875
Q48.0469 6.6875 52.1406 7.59375
Q56.25 8.5 59.5156 10.4062" id="DejaVuSans-47"/>
     <path d="
M56.2031 29.5938
L56.2031 25.2031
L14.8906 25.2031
Q15.4844 15.9219 20.4844 11.0625
Q25.4844 6.20312 34.4219 6.20312
Q39.5938 6.20312 44.4531 7.46875
Q49.3125 8.73438 54.1094 11.2812
L54.1094 2.78125
Q49.2656 0.734375 44.1875 -0.34375
Q39.1094 -1.42188 33.8906 -1.42188
Q20.7969 -1.42188 13.1562 6.1875
Q5.51562 13.8125 5.51562 26.8125
Q5.51562 40.2344 12.7656 48.1094
Q20.0156 56 32.3281 56
Q43.3594 56 49.7812 48.8906
Q56.2031 41.7969 56.2031 29.5938
M47.2188 32.2344
Q47.125 39.5938 43.0938 43.9844
Q39.0625 48.3906 32.4219 48.3906
Q24.9062 48.3906 20.3906 44.1406
Q15.875 39.8906 15.1875 32.1719
z
" id="DejaVuSans-65"/>
     <path d="
M48.6875 27.2969
Q48.6875 37.2031 44.6094 42.8438
Q40.5312 48.4844 33.4062 48.4844
Q26.2656 48.4844 22.1875 42.8438
Q18.1094 37.2031 18.1094 27.2969
Q18.1094 17.3906 22.1875 11.75
Q26.2656 6.10938 33.4062 6.10938
Q40.5312 6.10938 44.6094 11.75
Q48.6875 17.3906 48.6875 27.2969
M18.1094 46.3906
Q20.9531 51.2656 25.2656 53.625
Q29.5938 56 35.5938 56
Q45.5625 56 51.7812 48.0938
Q58.0156 40.1875 58.0156 27.2969
Q58.0156 14.4062 51.7812 6.48438
Q45.5625 -1.42188 35.5938 -1.42188
Q29.5938 -1.42188 25.2656 0.953125
Q20.9531 3.32812 18.1094 8.20312
L18.1094 0
L9.07812 0
L9.07812 75.9844
L18.1094 75.9844
z
" id="DejaVuSans-62"/>
    </defs>
    <g transform="translate(413.738175 87.0556930147)scale(0.11 -0.11)">
     <use xlink:href="#DejaVuSans-47"/>
     <use x="77.490234375" xlink:href="#DejaVuSans-65"/>
     <use x="139.013671875" xlink:href="#DejaVuSans-6e"/>
     <use x="202.392578125" xlink:href="#DejaVuSans-6f"/>
     <use x="263.57421875" xlink:href="#DejaVuSans-6d"/>
     <use x="360.986328125" xlink:href="#DejaVuSans-65"/>
     <use x="422.509765625" xlink:href="#DejaVuSans-2c"/>
     <use x="454.296875" xlink:href="#DejaVuSans-20"/>
     <use x="486.083984375" xlink:href="#DejaVuSans-4d"/>
     <use x="572.36328125" xlink:href="#DejaVuSans-62"/>
    </g>
   </g>
   <g id="text_16">
    <!-- scaffolds -->
    <defs>
     <path d="
M37.1094 75.9844
L37.1094 68.5
L28.5156 68.5
Q23.6875 68.5 21.7969 66.5469
Q19.9219 64.5938 19.9219 59.5156
L19.9219 54.6875
L34.7188 54.6875
L34.7188 47.7031
L19.9219 47.7031
L19.9219 0
L10.8906 0
L10.8906 47.7031
L2.29688 47.7031
L2.29688 54.6875
L10.8906 54.6875
L10.8906 58.5
Q10.8906 67.625 15.1406 71.7969
Q19.3906 75.9844 28.6094 75.9844
z
" id="DejaVuSans-66"/>
     <path d="
M45.4062 46.3906
L45.4062 75.9844
L54.3906 75.9844
L54.3906 0
L45.4062 0
L45.4062 8.20312
Q42.5781 3.32812 38.25 0.953125
Q33.9375 -1.42188 27.875 -1.42188
Q17.9688 -1.42188 11.7344 6.48438
Q5.51562 14.4062 5.51562 27.2969
Q5.51562 40.1875 11.7344 48.0938
Q17.9688 56 27.875 56
Q33.9375 56 38.25 53.625
Q42.5781 51.2656 45.4062 46.3906
M14.7969 27.2969
Q14.7969 17.3906 18.875 11.75
Q22.9531 6.10938 30.0781 6.10938
Q37.2031 6.10938 41.2969 11.75
Q45.4062 17.3906 45.4062 27.2969
Q45.4062 37.2031 41.2969 42.8438
Q37.2031 48.4844 30.0781 48.4844
Q22.9531 48.4844 18.875 42.8438
Q14.7969 37.2031 14.7969 27.2969" id="DejaVuSans-64"/>
     <path d="
M44.2812 53.0781
L44.2812 44.5781
Q40.4844 46.5312 36.375 47.5
Q32.2812 48.4844 27.875 48.4844
Q21.1875 48.4844 17.8438 46.4375
Q14.5 44.3906 14.5 40.2812
Q14.5 37.1562 16.8906 35.375
Q19.2812 33.5938 26.5156 31.9844
L29.5938 31.2969
Q39.1562 29.25 43.1875 25.5156
Q47.2188 21.7812 47.2188 15.0938
Q47.2188 7.46875 41.1875 3.01562
Q35.1562 -1.42188 24.6094 -1.42188
Q20.2188 -1.42188 15.4531 -0.5625
Q10.6875 0.296875 5.42188 2
L5.42188 11.2812
Q10.4062 8.6875 15.2344 7.39062
Q20.0625 6.10938 24.8125 6.10938
Q31.1562 6.10938 34.5625 8.28125
Q37.9844 10.4531 37.9844 14.4062
Q37.9844 18.0625 35.5156 20.0156
Q33.0625 21.9688 24.7031 23.7812
L21.5781 24.5156
Q13.2344 26.2656 9.51562 29.9062
Q5.8125 33.5469 5.8125 39.8906
Q5.8125 47.6094 11.2812 51.7969
Q16.75 56 26.8125 56
Q31.7812 56 36.1719 55.2656
Q40.5781 54.5469 44.2812 53.0781" id="DejaVuSans-73"/>
    </defs>
    <g transform="translate(126.151725 101.259669118)scale(0.12 -0.12)">
     <use xlink:href="#DejaVuSans-73"/>
     <use x="52.099609375" xlink:href="#DejaVuSans-63"/>
     <use x="107.080078125" xlink:href="#DejaVuSans-61"/>
     <use x="168.359375" xlink:href="#DejaVuSans-66"/>
     <use x="203.564453125" xlink:href="#DejaVuSans-66"/>
     <use x="238.76953125" xlink:href="#DejaVuSans-6f"/>
     <use x="299.951171875" xlink:href="#DejaVuSans-6c"/>
     <use x="327.734375" xlink:href="#DejaVuSans-64"/>
     <use x="391.2109375" xlink:href="#DejaVuSans-73"/>
    </g>
   </g>
  </g>
 </g>
 <defs>
  <clipPath id="p6a4ae4428d">
   <rect height="117.458823529" width="781.2" x="0.0" y="0.0"/>
  </clipPath>
 </defs>
</svg>
