<?xml version="1.0" encoding="utf-8" standalone="no"?>
<!DOCTYPE svg PUBLIC "-//W3C//DTD SVG 1.1//EN"
  "http://www.w3.org/Graphics/SVG/1.1/DTD/svg11.dtd">
<!-- Created with matplotlib (http://matplotlib.org/) -->
<svg height="117pt" version="1.1" viewBox="0 0 781 117" width="781pt" xmlns="http://www.w3.org/2000/svg" xmlns:xlink="http://www.w3.org/1999/xlink">
 <defs>
  <style type="text/css">
*{stroke-linecap:butt;stroke-linejoin:round;}
  </style>
 </defs>
 <g id="figure_1">
  <g id="patch_1">
   <path d="
M0 117.459
L781.2 117.459
L781.2 0
L0 0
z
" style="fill:#ffffff;"/>
  </g>
  <g id="axes_1">
   <g id="patch_2">
    <path clip-path="url(#p6a4ae4428d)" d="
M149.99 117.459
L720.266 117.459
L720.266 15.6612
L149.99 15.6612
z
" style="fill:#ffffff;"/>
   </g>
   <g id="patch_3">
    <path clip-path="url(#p6a4ae4428d)" d="
M182.802 106.888
L186.536 106.888
L186.536 95.1416
L182.802 95.1416
z
" style="fill:#4daf4a;"/>
   </g>
   <g id="patch_4">
    <path clip-path="url(#p6a4ae4428d)" d="
M186.536 105.321
L189.382 105.321
L189.382 93.5755
L186.536 93.5755
z
" style="fill:#40cf40;"/>
   </g>
   <g id="patch_5">
    <path clip-path="url(#p6a4ae4428d)" d="
M189.383 106.888
L189.753 106.888
L189.753 95.1416
L189.383 95.1416
z
" style="fill:#4daf4a;"/>
   </g>
   <g id="patch_6">
    <path clip-path="url(#p6a4ae4428d)" d="
M189.753 105.321
L191.228 105.321
L191.228 93.5755
L189.753 93.5755
z
" style="fill:#40cf40;"/>
   </g>
   <g id="patch_7">
    <path clip-path="url(#p6a4ae4428d)" d="
M191.228 106.888
L192.327 106.888
L192.327 95.1416
L191.228 95.1416
z
" style="fill:#4daf4a;"/>
   </g>
   <g id="patch_8">
    <path clip-path="url(#p6a4ae4428d)" d="
M192.327 105.321
L194.707 105.321
L194.707 93.5755
L192.327 93.5755
z
" style="fill:#40cf40;"/>
   </g>
   <g id="patch_9">
    <path clip-path="url(#p6a4ae4428d)" d="
M194.708 106.888
L198.414 106.888
L198.414 95.1416
L194.708 95.1416
z
" style="fill:#4daf4a;"/>
   </g>
   <g id="patch_10">
    <path clip-path="url(#p6a4ae4428d)" d="
M198.415 105.321
L199.334 105.321
L199.334 93.5755
L198.415 93.5755
z
" style="fill:#40cf40;"/>
   </g>
   <g id="patch_11">
    <path clip-path="url(#p6a4ae4428d)" d="
M199.334 106.888
L204.233 106.888
L204.233 95.1416
L199.334 95.1416
z
" style="fill:#4daf4a;"/>
   </g>
   <g id="patch_12">
    <path clip-path="url(#p6a4ae4428d)" d="
M204.233 105.321
L205.163 105.321
L205.163 93.5755
L204.233 93.5755
z
" style="fill:#40cf40;"/>
   </g>
   <g id="patch_13">
    <path clip-path="url(#p6a4ae4428d)" d="
M205.164 106.888
L206.683 106.888
L206.683 95.1416
L205.164 95.1416
z
" style="fill:#4daf4a;"/>
   </g>
   <g id="patch_14">
    <path clip-path="url(#p6a4ae4428d)" d="
M206.683 105.321
L207.363 105.321
L207.363 93.5755
L206.683 93.5755
z
" style="fill:#40cf40;"/>
   </g>
   <g id="patch_15">
    <path clip-path="url(#p6a4ae4428d)" d="
M207.363 106.888
L210.934 106.888
L210.934 95.1416
L207.363 95.1416
z
" style="fill:#4daf4a;"/>
   </g>
   <g id="patch_16">
    <path clip-path="url(#p6a4ae4428d)" d="
M210.934 105.321
L212.844 105.321
L212.844 93.5755
L210.934 93.5755
z
" style="fill:#40cf40;"/>
   </g>
   <g id="patch_17">
    <path clip-path="url(#p6a4ae4428d)" d="
M212.844 106.888
L214.702 106.888
L214.702 95.1416
L212.844 95.1416
z
" style="fill:#4daf4a;"/>
   </g>
   <g id="patch_18">
    <path clip-path="url(#p6a4ae4428d)" d="
M214.702 105.321
L215.174 105.321
L215.174 93.5755
L214.702 93.5755
z
" style="fill:#40cf40;"/>
   </g>
   <g id="patch_19">
    <path clip-path="url(#p6a4ae4428d)" d="
M215.174 106.888
L217.879 106.888
L217.879 95.1416
L215.174 95.1416
z
" style="fill:#4daf4a;"/>
   </g>
   <g id="patch_20">
    <path clip-path="url(#p6a4ae4428d)" d="
M217.917 105.321
L226.192 105.321
L226.192 93.5755
L217.917 93.5755
z
" style="fill:#40cf40;"/>
   </g>
   <g id="patch_21">
    <path clip-path="url(#p6a4ae4428d)" d="
M226.192 106.888
L226.391 106.888
L226.391 95.1416
L226.192 95.1416
z
" style="fill:#4daf4a;"/>
   </g>
   <g id="patch_22">
    <path clip-path="url(#p6a4ae4428d)" d="
M226.391 105.321
L226.464 105.321
L226.464 93.5755
L226.391 93.5755
z
" style="fill:#40cf40;"/>
   </g>
   <g id="patch_23">
    <path clip-path="url(#p6a4ae4428d)" d="
M226.464 106.888
L228.804 106.888
L228.804 95.1416
L226.464 95.1416
z
" style="fill:#4daf4a;"/>
   </g>
   <g id="patch_24">
    <path clip-path="url(#p6a4ae4428d)" d="
M228.804 105.321
L232.71 105.321
L232.71 93.5755
L228.804 93.5755
z
" style="fill:#40cf40;"/>
   </g>
   <g id="patch_25">
    <path clip-path="url(#p6a4ae4428d)" d="
M232.71 106.888
L235.306 106.888
L235.306 95.1416
L232.71 95.1416
z
" style="fill:#4daf4a;"/>
   </g>
   <g id="patch_26">
    <path clip-path="url(#p6a4ae4428d)" d="
M235.307 105.321
L236.35 105.321
L236.35 93.5755
L235.307 93.5755
z
" style="fill:#40cf40;"/>
   </g>
   <g id="patch_27">
    <path clip-path="url(#p6a4ae4428d)" d="
M236.351 106.888
L236.826 106.888
L236.826 95.1416
L236.351 95.1416
z
" style="fill:#4daf4a;"/>
   </g>
   <g id="patch_28">
    <path clip-path="url(#p6a4ae4428d)" d="
M236.826 105.321
L238.629 105.321
L238.629 93.5755
L236.826 93.5755
z
" style="fill:#40cf40;"/>
   </g>
   <g id="patch_29">
    <path clip-path="url(#p6a4ae4428d)" d="
M238.629 106.888
L239.427 106.888
L239.427 95.1416
L238.629 95.1416
z
" style="fill:#4daf4a;"/>
   </g>
   <g id="patch_30">
    <path clip-path="url(#p6a4ae4428d)" d="
M239.427 105.321
L240.526 105.321
L240.526 93.5755
L239.427 93.5755
z
" style="fill:#40cf40;"/>
   </g>
   <g id="patch_31">
    <path clip-path="url(#p6a4ae4428d)" d="
M240.526 106.888
L242.257 106.888
L242.257 95.1416
L240.526 95.1416
z
" style="fill:#4daf4a;"/>
   </g>
   <g id="patch_32">
    <path clip-path="url(#p6a4ae4428d)" d="
M242.257 105.321
L247.4 105.321
L247.4 93.5755
L242.257 93.5755
z
" style="fill:#40cf40;"/>
   </g>
   <g id="patch_33">
    <path clip-path="url(#p6a4ae4428d)" d="
M247.4 106.888
L249.676 106.888
L249.676 95.1416
L247.4 95.1416
z
" style="fill:#4daf4a;"/>
   </g>
   <g id="patch_34">
    <path clip-path="url(#p6a4ae4428d)" d="
M249.676 105.321
L252.239 105.321
L252.239 93.5755
L249.676 93.5755
z
" style="fill:#40cf40;"/>
   </g>
   <g id="patch_35">
    <path clip-path="url(#p6a4ae4428d)" d="
M252.239 106.888
L253.203 106.888
L253.203 95.1416
L252.239 95.1416
z
" style="fill:#4daf4a;"/>
   </g>
   <g id="patch_36">
    <path clip-path="url(#p6a4ae4428d)" d="
M253.203 105.321
L259.038 105.321
L259.038 93.5755
L253.203 93.5755
z
" style="fill:#40cf40;"/>
   </g>
   <g id="patch_37">
    <path clip-path="url(#p6a4ae4428d)" d="
M259.064 106.888
L262.797 106.888
L262.797 95.1416
L259.064 95.1416
z
" style="fill:#4daf4a;"/>
   </g>
   <g id="patch_38">
    <path clip-path="url(#p6a4ae4428d)" d="
M262.797 105.321
L264.477 105.321
L264.477 93.5755
L262.797 93.5755
z
" style="fill:#40cf40;"/>
   </g>
   <g id="patch_39">
    <path clip-path="url(#p6a4ae4428d)" d="
M264.477 106.888
L265.997 106.888
L265.997 95.1416
L264.477 95.1416
z
" style="fill:#4daf4a;"/>
   </g>
   <g id="patch_40">
    <path clip-path="url(#p6a4ae4428d)" d="
M265.997 105.321
L266.482 105.321
L266.482 93.5755
L265.997 93.5755
z
" style="fill:#40cf40;"/>
   </g>
   <g id="patch_41">
    <path clip-path="url(#p6a4ae4428d)" d="
M266.482 106.888
L274.164 106.888
L274.164 95.1416
L266.482 95.1416
z
" style="fill:#4daf4a;"/>
   </g>
   <g id="patch_42">
    <path clip-path="url(#p6a4ae4428d)" d="
M274.164 105.321
L276.49 105.321
L276.49 93.5755
L274.164 93.5755
z
" style="fill:#40cf40;"/>
   </g>
   <g id="patch_43">
    <path clip-path="url(#p6a4ae4428d)" d="
M276.491 106.888
L278.044 106.888
L278.044 95.1416
L276.491 95.1416
z
" style="fill:#4daf4a;"/>
   </g>
   <g id="patch_44">
    <path clip-path="url(#p6a4ae4428d)" d="
M278.044 105.321
L282.944 105.321
L282.944 93.5755
L278.044 93.5755
z
" style="fill:#40cf40;"/>
   </g>
   <g id="patch_45">
    <path clip-path="url(#p6a4ae4428d)" d="
M282.944 106.888
L284.438 106.888
L284.438 95.1416
L282.944 95.1416
z
" style="fill:#4daf4a;"/>
   </g>
   <g id="patch_46">
    <path clip-path="url(#p6a4ae4428d)" d="
M284.438 105.321
L285.23 105.321
L285.23 93.5755
L284.438 93.5755
z
" style="fill:#40cf40;"/>
   </g>
   <g id="patch_47">
    <path clip-path="url(#p6a4ae4428d)" d="
M285.231 106.888
L285.824 106.888
L285.824 95.1416
L285.231 95.1416
z
" style="fill:#4daf4a;"/>
   </g>
   <g id="patch_48">
    <path clip-path="url(#p6a4ae4428d)" d="
M285.824 105.321
L289.998 105.321
L289.998 93.5755
L285.824 93.5755
z
" style="fill:#40cf40;"/>
   </g>
   <g id="patch_49">
    <path clip-path="url(#p6a4ae4428d)" d="
M289.999 106.888
L291.1 106.888
L291.1 95.1416
L289.999 95.1416
z
" style="fill:#4daf4a;"/>
   </g>
   <g id="patch_50">
    <path clip-path="url(#p6a4ae4428d)" d="
M291.1 105.321
L300.711 105.321
L300.711 93.5755
L291.1 93.5755
z
" style="fill:#40cf40;"/>
   </g>
   <g id="patch_51">
    <path clip-path="url(#p6a4ae4428d)" d="
M300.711 106.888
L300.94 106.888
L300.94 95.1416
L300.711 95.1416
z
" style="fill:#4daf4a;"/>
   </g>
   <g id="patch_52">
    <path clip-path="url(#p6a4ae4428d)" d="
M300.94 105.321
L303.259 105.321
L303.259 93.5755
L300.94 93.5755
z
" style="fill:#40cf40;"/>
   </g>
   <g id="patch_53">
    <path clip-path="url(#p6a4ae4428d)" d="
M303.26 106.888
L304.33 106.888
L304.33 95.1416
L303.26 95.1416
z
" style="fill:#4daf4a;"/>
   </g>
   <g id="patch_54">
    <path clip-path="url(#p6a4ae4428d)" d="
M304.365 105.321
L307.699 105.321
L307.699 93.5755
L304.365 93.5755
z
" style="fill:#40cf40;"/>
   </g>
   <g id="patch_55">
    <path clip-path="url(#p6a4ae4428d)" d="
M307.699 106.888
L307.79 106.888
L307.79 95.1416
L307.699 95.1416
z
" style="fill:#4daf4a;"/>
   </g>
   <g id="patch_56">
    <path clip-path="url(#p6a4ae4428d)" d="
M307.79 105.321
L310.263 105.321
L310.263 93.5755
L307.79 93.5755
z
" style="fill:#40cf40;"/>
   </g>
   <g id="patch_57">
    <path clip-path="url(#p6a4ae4428d)" d="
M310.263 106.888
L314.152 106.888
L314.152 95.1416
L310.263 95.1416
z
" style="fill:#4daf4a;"/>
   </g>
   <g id="patch_58">
    <path clip-path="url(#p6a4ae4428d)" d="
M314.152 105.321
L318.64 105.321
L318.64 93.5755
L314.152 93.5755
z
" style="fill:#40cf40;"/>
   </g>
   <g id="patch_59">
    <path clip-path="url(#p6a4ae4428d)" d="
M318.64 106.888
L319.325 106.888
L319.325 95.1416
L318.64 95.1416
z
" style="fill:#4daf4a;"/>
   </g>
   <g id="patch_60">
    <path clip-path="url(#p6a4ae4428d)" d="
M319.325 105.321
L320.39 105.321
L320.39 93.5755
L319.325 93.5755
z
" style="fill:#40cf40;"/>
   </g>
   <g id="patch_61">
    <path clip-path="url(#p6a4ae4428d)" d="
M320.39 106.888
L324.338 106.888
L324.338 95.1416
L320.39 95.1416
z
" style="fill:#4daf4a;"/>
   </g>
   <g id="patch_62">
    <path clip-path="url(#p6a4ae4428d)" d="
M324.338 105.321
L328.607 105.321
L328.607 93.5755
L324.338 93.5755
z
" style="fill:#40cf40;"/>
   </g>
   <g id="patch_63">
    <path clip-path="url(#p6a4ae4428d)" d="
M328.607 106.888
L329.54 106.888
L329.54 95.1416
L328.607 95.1416
z
" style="fill:#4daf4a;"/>
   </g>
   <g id="patch_64">
    <path clip-path="url(#p6a4ae4428d)" d="
M329.54 105.321
L330.009 105.321
L330.009 93.5755
L329.54 93.5755
z
" style="fill:#40cf40;"/>
   </g>
   <g id="patch_65">
    <path clip-path="url(#p6a4ae4428d)" d="
M330.009 106.888
L330.672 106.888
L330.672 95.1416
L330.009 95.1416
z
" style="fill:#4daf4a;"/>
   </g>
   <g id="patch_66">
    <path clip-path="url(#p6a4ae4428d)" d="
M330.672 105.321
L334.243 105.321
L334.243 93.5755
L330.672 93.5755
z
" style="fill:#40cf40;"/>
   </g>
   <g id="patch_67">
    <path clip-path="url(#p6a4ae4428d)" d="
M334.243 106.888
L336.122 106.888
L336.122 95.1416
L334.243 95.1416
z
" style="fill:#4daf4a;"/>
   </g>
   <g id="patch_68">
    <path clip-path="url(#p6a4ae4428d)" d="
M336.122 105.321
L339.767 105.321
L339.767 93.5755
L336.122 93.5755
z
" style="fill:#40cf40;"/>
   </g>
   <g id="patch_69">
    <path clip-path="url(#p6a4ae4428d)" d="
M339.767 106.888
L339.842 106.888
L339.842 95.1416
L339.767 95.1416
z
" style="fill:#4daf4a;"/>
   </g>
   <g id="patch_70">
    <path clip-path="url(#p6a4ae4428d)" d="
M339.843 105.321
L340.748 105.321
L340.748 93.5755
L339.843 93.5755
z
" style="fill:#40cf40;"/>
   </g>
   <g id="patch_71">
    <path clip-path="url(#p6a4ae4428d)" d="
M340.748 106.888
L342.698 106.888
L342.698 95.1416
L340.748 95.1416
z
" style="fill:#4daf4a;"/>
   </g>
   <g id="patch_72">
    <path clip-path="url(#p6a4ae4428d)" d="
M342.698 105.321
L345.063 105.321
L345.063 93.5755
L342.698 93.5755
z
" style="fill:#40cf40;"/>
   </g>
   <g id="patch_73">
    <path clip-path="url(#p6a4ae4428d)" d="
M345.063 106.888
L346.733 106.888
L346.733 95.1416
L345.063 95.1416
z
" style="fill:#4daf4a;"/>
   </g>
   <g id="patch_74">
    <path clip-path="url(#p6a4ae4428d)" d="
M346.733 105.321
L348.824 105.321
L348.824 93.5755
L346.733 93.5755
z
" style="fill:#40cf40;"/>
   </g>
   <g id="patch_75">
    <path clip-path="url(#p6a4ae4428d)" d="
M348.824 106.888
L353.253 106.888
L353.253 95.1416
L348.824 95.1416
z
" style="fill:#4daf4a;"/>
   </g>
   <g id="patch_76">
    <path clip-path="url(#p6a4ae4428d)" d="
M353.253 105.321
L354.589 105.321
L354.589 93.5755
L353.253 93.5755
z
" style="fill:#40cf40;"/>
   </g>
   <g id="patch_77">
    <path clip-path="url(#p6a4ae4428d)" d="
M354.589 106.888
L354.859 106.888
L354.859 95.1416
L354.589 95.1416
z
" style="fill:#4daf4a;"/>
   </g>
   <g id="patch_78">
    <path clip-path="url(#p6a4ae4428d)" d="
M354.859 105.321
L355.125 105.321
L355.125 93.5755
L354.859 93.5755
z
" style="fill:#40cf40;"/>
   </g>
   <g id="patch_79">
    <path clip-path="url(#p6a4ae4428d)" d="
M355.125 106.888
L356.007 106.888
L356.007 95.1416
L355.125 95.1416
z
" style="fill:#4daf4a;"/>
   </g>
   <g id="patch_80">
    <path clip-path="url(#p6a4ae4428d)" d="
M356.024 105.321
L356.709 105.321
L356.709 93.5755
L356.024 93.5755
z
" style="fill:#40cf40;"/>
   </g>
   <g id="patch_81">
    <path clip-path="url(#p6a4ae4428d)" d="
M356.709 106.888
L356.89 106.888
L356.89 95.1416
L356.709 95.1416
z
" style="fill:#4daf4a;"/>
   </g>
   <g id="patch_82">
    <path clip-path="url(#p6a4ae4428d)" d="
M356.89 105.321
L358.547 105.321
L358.547 93.5755
L356.89 93.5755
z
" style="fill:#40cf40;"/>
   </g>
   <g id="patch_83">
    <path clip-path="url(#p6a4ae4428d)" d="
M358.547 106.888
L359.773 106.888
L359.773 95.1416
L358.547 95.1416
z
" style="fill:#4daf4a;"/>
   </g>
   <g id="patch_84">
    <path clip-path="url(#p6a4ae4428d)" d="
M359.773 105.321
L364.095 105.321
L364.095 93.5755
L359.773 93.5755
z
" style="fill:#40cf40;"/>
   </g>
   <g id="patch_85">
    <path clip-path="url(#p6a4ae4428d)" d="
M364.096 106.888
L372.309 106.888
L372.309 95.1416
L364.096 95.1416
z
" style="fill:#4daf4a;"/>
   </g>
   <g id="patch_86">
    <path clip-path="url(#p6a4ae4428d)" d="
M372.309 105.321
L374.762 105.321
L374.762 93.5755
L372.309 93.5755
z
" style="fill:#40cf40;"/>
   </g>
   <g id="patch_87">
    <path clip-path="url(#p6a4ae4428d)" d="
M374.763 106.888
L377.413 106.888
L377.413 95.1416
L374.763 95.1416
z
" style="fill:#4daf4a;"/>
   </g>
   <g id="patch_88">
    <path clip-path="url(#p6a4ae4428d)" d="
M377.413 105.321
L382.49 105.321
L382.49 93.5755
L377.413 93.5755
z
" style="fill:#40cf40;"/>
   </g>
   <g id="patch_89">
    <path clip-path="url(#p6a4ae4428d)" d="
M382.49 106.888
L382.852 106.888
L382.852 95.1416
L382.49 95.1416
z
" style="fill:#4daf4a;"/>
   </g>
   <g id="patch_90">
    <path clip-path="url(#p6a4ae4428d)" d="
M382.852 105.321
L382.996 105.321
L382.996 93.5755
L382.852 93.5755
z
" style="fill:#40cf40;"/>
   </g>
   <g id="patch_91">
    <path clip-path="url(#p6a4ae4428d)" d="
M382.996 106.888
L385.085 106.888
L385.085 95.1416
L382.996 95.1416
z
" style="fill:#4daf4a;"/>
   </g>
   <g id="patch_92">
    <path clip-path="url(#p6a4ae4428d)" d="
M385.085 105.321
L386.076 105.321
L386.076 93.5755
L385.085 93.5755
z
" style="fill:#40cf40;"/>
   </g>
   <g id="patch_93">
    <path clip-path="url(#p6a4ae4428d)" d="
M386.084 106.888
L386.886 106.888
L386.886 95.1416
L386.084 95.1416
z
" style="fill:#4daf4a;"/>
   </g>
   <g id="patch_94">
    <path clip-path="url(#p6a4ae4428d)" d="
M386.887 105.321
L388.389 105.321
L388.389 93.5755
L386.887 93.5755
z
" style="fill:#40cf40;"/>
   </g>
   <g id="patch_95">
    <path clip-path="url(#p6a4ae4428d)" d="
M388.389 106.888
L389.313 106.888
L389.313 95.1416
L388.389 95.1416
z
" style="fill:#4daf4a;"/>
   </g>
   <g id="patch_96">
    <path clip-path="url(#p6a4ae4428d)" d="
M389.314 105.321
L394.924 105.321
L394.924 93.5755
L389.314 93.5755
z
" style="fill:#40cf40;"/>
   </g>
   <g id="patch_97">
    <path clip-path="url(#p6a4ae4428d)" d="
M394.924 106.888
L395.75 106.888
L395.75 95.1416
L394.924 95.1416
z
" style="fill:#4daf4a;"/>
   </g>
   <g id="patch_98">
    <path clip-path="url(#p6a4ae4428d)" d="
M395.75 105.321
L396.277 105.321
L396.277 93.5755
L395.75 93.5755
z
" style="fill:#40cf40;"/>
   </g>
   <g id="patch_99">
    <path clip-path="url(#p6a4ae4428d)" d="
M396.277 106.888
L396.436 106.888
L396.436 95.1416
L396.277 95.1416
z
" style="fill:#4daf4a;"/>
   </g>
   <g id="patch_100">
    <path clip-path="url(#p6a4ae4428d)" d="
M396.436 105.321
L398.266 105.321
L398.266 93.5755
L396.436 93.5755
z
" style="fill:#40cf40;"/>
   </g>
   <g id="patch_101">
    <path clip-path="url(#p6a4ae4428d)" d="
M398.267 106.888
L399.171 106.888
L399.171 95.1416
L398.267 95.1416
z
" style="fill:#4daf4a;"/>
   </g>
   <g id="patch_102">
    <path clip-path="url(#p6a4ae4428d)" d="
M399.171 105.321
L399.924 105.321
L399.924 93.5755
L399.171 93.5755
z
" style="fill:#40cf40;"/>
   </g>
   <g id="patch_103">
    <path clip-path="url(#p6a4ae4428d)" d="
M399.924 106.888
L401.638 106.888
L401.638 95.1416
L399.924 95.1416
z
" style="fill:#4daf4a;"/>
   </g>
   <g id="patch_104">
    <path clip-path="url(#p6a4ae4428d)" d="
M401.638 105.321
L402.762 105.321
L402.762 93.5755
L401.638 93.5755
z
" style="fill:#40cf40;"/>
   </g>
   <g id="patch_105">
    <path clip-path="url(#p6a4ae4428d)" d="
M402.763 106.888
L404.084 106.888
L404.084 95.1416
L402.763 95.1416
z
" style="fill:#4daf4a;"/>
   </g>
   <g id="patch_106">
    <path clip-path="url(#p6a4ae4428d)" d="
M404.084 105.321
L406.573 105.321
L406.573 93.5755
L404.084 93.5755
z
" style="fill:#40cf40;"/>
   </g>
   <g id="patch_107">
    <path clip-path="url(#p6a4ae4428d)" d="
M406.573 106.888
L407.239 106.888
L407.239 95.1416
L406.573 95.1416
z
" style="fill:#4daf4a;"/>
   </g>
   <g id="patch_108">
    <path clip-path="url(#p6a4ae4428d)" d="
M407.239 105.321
L407.608 105.321
L407.608 93.5755
L407.239 93.5755
z
" style="fill:#40cf40;"/>
   </g>
   <g id="patch_109">
    <path clip-path="url(#p6a4ae4428d)" d="
M407.608 106.888
L408.628 106.888
L408.628 95.1416
L407.608 95.1416
z
" style="fill:#4daf4a;"/>
   </g>
   <g id="patch_110">
    <path clip-path="url(#p6a4ae4428d)" d="
M408.629 105.321
L408.843 105.321
L408.843 93.5755
L408.629 93.5755
z
" style="fill:#40cf40;"/>
   </g>
   <g id="patch_111">
    <path clip-path="url(#p6a4ae4428d)" d="
M408.843 106.888
L413.647 106.888
L413.647 95.1416
L408.843 95.1416
z
" style="fill:#4daf4a;"/>
   </g>
   <g id="patch_112">
    <path clip-path="url(#p6a4ae4428d)" d="
M413.648 105.321
L415.258 105.321
L415.258 93.5755
L413.648 93.5755
z
" style="fill:#40cf40;"/>
   </g>
   <g id="patch_113">
    <path clip-path="url(#p6a4ae4428d)" d="
M415.258 106.888
L416.199 106.888
L416.199 95.1416
L415.258 95.1416
z
" style="fill:#4daf4a;"/>
   </g>
   <g id="patch_114">
    <path clip-path="url(#p6a4ae4428d)" d="
M416.199 105.321
L417.056 105.321
L417.056 93.5755
L416.199 93.5755
z
" style="fill:#40cf40;"/>
   </g>
   <g id="patch_115">
    <path clip-path="url(#p6a4ae4428d)" d="
M417.056 106.888
L417.125 106.888
L417.125 95.1416
L417.056 95.1416
z
" style="fill:#4daf4a;"/>
   </g>
   <g id="patch_116">
    <path clip-path="url(#p6a4ae4428d)" d="
M417.125 105.321
L417.626 105.321
L417.626 93.5755
L417.125 93.5755
z
" style="fill:#40cf40;"/>
   </g>
   <g id="patch_117">
    <path clip-path="url(#p6a4ae4428d)" d="
M417.626 106.888
L418.004 106.888
L418.004 95.1416
L417.626 95.1416
z
" style="fill:#4daf4a;"/>
   </g>
   <g id="patch_118">
    <path clip-path="url(#p6a4ae4428d)" d="
M418.004 105.321
L421.704 105.321
L421.704 93.5755
L418.004 93.5755
z
" style="fill:#40cf40;"/>
   </g>
   <g id="patch_119">
    <path clip-path="url(#p6a4ae4428d)" d="
M421.704 106.888
L424.262 106.888
L424.262 95.1416
L421.704 95.1416
z
" style="fill:#4daf4a;"/>
   </g>
   <g id="patch_120">
    <path clip-path="url(#p6a4ae4428d)" d="
M472.56 105.321
L472.963 105.321
L472.963 93.5755
L472.56 93.5755
z
" style="fill:#40cf40;"/>
   </g>
   <g id="patch_121">
    <path clip-path="url(#p6a4ae4428d)" d="
M473.064 106.888
L473.619 106.888
L473.619 95.1416
L473.064 95.1416
z
" style="fill:#4daf4a;"/>
   </g>
   <g id="patch_122">
    <path clip-path="url(#p6a4ae4428d)" d="
M473.681 105.321
L476.104 105.321
L476.104 93.5755
L473.681 93.5755
z
" style="fill:#40cf40;"/>
   </g>
   <g id="patch_123">
    <path clip-path="url(#p6a4ae4428d)" d="
M476.104 106.888
L477.361 106.888
L477.361 95.1416
L476.104 95.1416
z
" style="fill:#4daf4a;"/>
   </g>
   <g id="patch_124">
    <path clip-path="url(#p6a4ae4428d)" d="
M477.361 105.321
L477.74 105.321
L477.74 93.5755
L477.361 93.5755
z
" style="fill:#40cf40;"/>
   </g>
   <g id="patch_125">
    <path clip-path="url(#p6a4ae4428d)" d="
M477.74 106.888
L478.241 106.888
L478.241 95.1416
L477.74 95.1416
z
" style="fill:#4daf4a;"/>
   </g>
   <g id="patch_126">
    <path clip-path="url(#p6a4ae4428d)" d="
M478.241 105.321
L478.311 105.321
L478.311 93.5755
L478.241 93.5755
z
" style="fill:#40cf40;"/>
   </g>
   <g id="patch_127">
    <path clip-path="url(#p6a4ae4428d)" d="
M478.311 106.888
L480.281 106.888
L480.281 95.1416
L478.311 95.1416
z
" style="fill:#4daf4a;"/>
   </g>
   <g id="patch_128">
    <path clip-path="url(#p6a4ae4428d)" d="
M480.378 105.321
L480.49 105.321
L480.49 93.5755
L480.378 93.5755
z
" style="fill:#40cf40;"/>
   </g>
   <g id="patch_129">
    <path clip-path="url(#p6a4ae4428d)" d="
M480.49 106.888
L480.563 106.888
L480.563 95.1416
L480.49 95.1416
z
" style="fill:#4daf4a;"/>
   </g>
   <g id="patch_130">
    <path clip-path="url(#p6a4ae4428d)" d="
M480.563 105.321
L480.849 105.321
L480.849 93.5755
L480.563 93.5755
z
" style="fill:#40cf40;"/>
   </g>
   <g id="patch_131">
    <path clip-path="url(#p6a4ae4428d)" d="
M480.856 106.888
L481.532 106.888
L481.532 95.1416
L480.856 95.1416
z
" style="fill:#4daf4a;"/>
   </g>
   <g id="patch_132">
    <path clip-path="url(#p6a4ae4428d)" d="
M481.596 105.321
L482.532 105.321
L482.532 93.5755
L481.596 93.5755
z
" style="fill:#40cf40;"/>
   </g>
   <g id="patch_133">
    <path clip-path="url(#p6a4ae4428d)" d="
M482.532 106.888
L483.697 106.888
L483.697 95.1416
L482.532 95.1416
z
" style="fill:#4daf4a;"/>
   </g>
   <g id="patch_134">
    <path clip-path="url(#p6a4ae4428d)" d="
M483.697 105.321
L483.872 105.321
L483.872 93.5755
L483.697 93.5755
z
" style="fill:#40cf40;"/>
   </g>
   <g id="patch_135">
    <path clip-path="url(#p6a4ae4428d)" d="
M483.973 106.888
L484.068 106.888
L484.068 95.1416
L483.973 95.1416
z
" style="fill:#4daf4a;"/>
   </g>
   <g id="patch_136">
    <path clip-path="url(#p6a4ae4428d)" d="
M484.179 105.321
L484.289 105.321
L484.289 93.5755
L484.179 93.5755
z
" style="fill:#40cf40;"/>
   </g>
   <g id="patch_137">
    <path clip-path="url(#p6a4ae4428d)" d="
M484.372 106.888
L484.553 106.888
L484.553 95.1416
L484.372 95.1416
z
" style="fill:#4daf4a;"/>
   </g>
   <g id="patch_138">
    <path clip-path="url(#p6a4ae4428d)" d="
M484.582 105.321
L484.697 105.321
L484.697 93.5755
L484.582 93.5755
z
" style="fill:#40cf40;"/>
   </g>
   <g id="patch_139">
    <path clip-path="url(#p6a4ae4428d)" d="
M484.794 106.888
L485.356 106.888
L485.356 95.1416
L484.794 95.1416
z
" style="fill:#4daf4a;"/>
   </g>
   <g id="patch_140">
    <path clip-path="url(#p6a4ae4428d)" d="
M485.452 105.321
L487.527 105.321
L487.527 93.5755
L485.452 93.5755
z
" style="fill:#40cf40;"/>
   </g>
   <g id="patch_141">
    <path clip-path="url(#p6a4ae4428d)" d="
M487.527 106.888
L488.189 106.888
L488.189 95.1416
L487.527 95.1416
z
" style="fill:#4daf4a;"/>
   </g>
   <g id="patch_142">
    <path clip-path="url(#p6a4ae4428d)" d="
M488.284 105.321
L488.457 105.321
L488.457 93.5755
L488.284 93.5755
z
" style="fill:#40cf40;"/>
   </g>
   <g id="patch_143">
    <path clip-path="url(#p6a4ae4428d)" d="
M488.458 106.888
L490.553 106.888
L490.553 95.1416
L488.458 95.1416
z
" style="fill:#4daf4a;"/>
   </g>
   <g id="patch_144">
    <path clip-path="url(#p6a4ae4428d)" d="
M490.553 105.321
L492.146 105.321
L492.146 93.5755
L490.553 93.5755
z
" style="fill:#40cf40;"/>
   </g>
   <g id="patch_145">
    <path clip-path="url(#p6a4ae4428d)" d="
M492.243 106.888
L492.609 106.888
L492.609 95.1416
L492.243 95.1416
z
" style="fill:#4daf4a;"/>
   </g>
   <g id="patch_146">
    <path clip-path="url(#p6a4ae4428d)" d="
M492.609 105.321
L492.683 105.321
L492.683 93.5755
L492.609 93.5755
z
" style="fill:#40cf40;"/>
   </g>
   <g id="patch_147">
    <path clip-path="url(#p6a4ae4428d)" d="
M492.683 106.888
L493.155 106.888
L493.155 95.1416
L492.683 95.1416
z
" style="fill:#4daf4a;"/>
   </g>
   <g id="patch_148">
    <path clip-path="url(#p6a4ae4428d)" d="
M493.155 105.321
L495.24 105.321
L495.24 93.5755
L493.155 93.5755
z
" style="fill:#40cf40;"/>
   </g>
   <g id="patch_149">
    <path clip-path="url(#p6a4ae4428d)" d="
M495.337 106.888
L495.86 106.888
L495.86 95.1416
L495.337 95.1416
z
" style="fill:#4daf4a;"/>
   </g>
   <g id="patch_150">
    <path clip-path="url(#p6a4ae4428d)" d="
M496.002 105.321
L497.58 105.321
L497.58 93.5755
L496.002 93.5755
z
" style="fill:#40cf40;"/>
   </g>
   <g id="patch_151">
    <path clip-path="url(#p6a4ae4428d)" d="
M497.677 106.888
L499.67 106.888
L499.67 95.1416
L497.677 95.1416
z
" style="fill:#4daf4a;"/>
   </g>
   <g id="patch_152">
    <path clip-path="url(#p6a4ae4428d)" d="
M499.755 105.321
L502.674 105.321
L502.674 93.5755
L499.755 93.5755
z
" style="fill:#40cf40;"/>
   </g>
   <g id="patch_153">
    <path clip-path="url(#p6a4ae4428d)" d="
M502.752 106.888
L503.334 106.888
L503.334 95.1416
L502.752 95.1416
z
" style="fill:#4daf4a;"/>
   </g>
   <g id="patch_154">
    <path clip-path="url(#p6a4ae4428d)" d="
M503.334 105.321
L504.611 105.321
L504.611 93.5755
L503.334 93.5755
z
" style="fill:#40cf40;"/>
   </g>
   <g id="patch_155">
    <path clip-path="url(#p6a4ae4428d)" d="
M504.702 106.888
L505.408 106.888
L505.408 95.1416
L504.702 95.1416
z
" style="fill:#4daf4a;"/>
   </g>
   <g id="patch_156">
    <path clip-path="url(#p6a4ae4428d)" d="
M505.408 105.321
L505.607 105.321
L505.607 93.5755
L505.408 93.5755
z
" style="fill:#40cf40;"/>
   </g>
   <g id="patch_157">
    <path clip-path="url(#p6a4ae4428d)" d="
M505.607 106.888
L505.68 106.888
L505.68 95.1416
L505.607 95.1416
z
" style="fill:#4daf4a;"/>
   </g>
   <g id="patch_158">
    <path clip-path="url(#p6a4ae4428d)" d="
M505.68 105.321
L508.021 105.321
L508.021 93.5755
L505.68 93.5755
z
" style="fill:#40cf40;"/>
   </g>
   <g id="patch_159">
    <path clip-path="url(#p6a4ae4428d)" d="
M508.021 106.888
L510.292 106.888
L510.292 95.1416
L508.021 95.1416
z
" style="fill:#4daf4a;"/>
   </g>
   <g id="patch_160">
    <path clip-path="url(#p6a4ae4428d)" d="
M510.375 105.321
L510.809 105.321
L510.809 93.5755
L510.375 93.5755
z
" style="fill:#40cf40;"/>
   </g>
   <g id="patch_161">
    <path clip-path="url(#p6a4ae4428d)" d="
M510.809 106.888
L514.148 106.888
L514.148 95.1416
L510.809 95.1416
z
" style="fill:#4daf4a;"/>
   </g>
   <g id="patch_162">
    <path clip-path="url(#p6a4ae4428d)" d="
M514.149 105.321
L514.568 105.321
L514.568 93.5755
L514.149 93.5755
z
" style="fill:#40cf40;"/>
   </g>
   <g id="patch_163">
    <path clip-path="url(#p6a4ae4428d)" d="
M514.673 106.888
L518.887 106.888
L518.887 95.1416
L514.673 95.1416
z
" style="fill:#4daf4a;"/>
   </g>
   <g id="patch_164">
    <path clip-path="url(#p6a4ae4428d)" d="
M518.93 105.321
L520.2 105.321
L520.2 93.5755
L518.93 93.5755
z
" style="fill:#40cf40;"/>
   </g>
   <g id="patch_165">
    <path clip-path="url(#p6a4ae4428d)" d="
M520.2 106.888
L520.797 106.888
L520.797 95.1416
L520.2 95.1416
z
" style="fill:#4daf4a;"/>
   </g>
   <g id="patch_166">
    <path clip-path="url(#p6a4ae4428d)" d="
M520.861 105.321
L521.7 105.321
L521.7 93.5755
L520.861 93.5755
z
" style="fill:#40cf40;"/>
   </g>
   <g id="patch_167">
    <path clip-path="url(#p6a4ae4428d)" d="
M521.788 106.888
L521.929 106.888
L521.929 95.1416
L521.788 95.1416
z
" style="fill:#4daf4a;"/>
   </g>
   <g id="patch_168">
    <path clip-path="url(#p6a4ae4428d)" d="
M521.929 105.321
L523.198 105.321
L523.198 93.5755
L521.929 93.5755
z
" style="fill:#40cf40;"/>
   </g>
   <g id="patch_169">
    <path clip-path="url(#p6a4ae4428d)" d="
M523.198 106.888
L524.073 106.888
L524.073 95.1416
L523.198 95.1416
z
" style="fill:#4daf4a;"/>
   </g>
   <g id="patch_170">
    <path clip-path="url(#p6a4ae4428d)" d="
M524.085 105.321
L525.795 105.321
L525.795 93.5755
L524.085 93.5755
z
" style="fill:#40cf40;"/>
   </g>
   <g id="patch_171">
    <path clip-path="url(#p6a4ae4428d)" d="
M525.795 106.888
L527.576 106.888
L527.576 95.1416
L525.795 95.1416
z
" style="fill:#4daf4a;"/>
   </g>
   <g id="patch_172">
    <path clip-path="url(#p6a4ae4428d)" d="
M527.7 105.321
L528.189 105.321
L528.189 93.5755
L527.7 93.5755
z
" style="fill:#40cf40;"/>
   </g>
   <g id="patch_173">
    <path clip-path="url(#p6a4ae4428d)" d="
M528.189 106.888
L530.459 106.888
L530.459 95.1416
L528.189 95.1416
z
" style="fill:#4daf4a;"/>
   </g>
   <g id="patch_174">
    <path clip-path="url(#p6a4ae4428d)" d="
M530.556 105.321
L530.668 105.321
L530.668 93.5755
L530.556 93.5755
z
" style="fill:#40cf40;"/>
   </g>
   <g id="patch_175">
    <path clip-path="url(#p6a4ae4428d)" d="
M530.668 106.888
L530.741 106.888
L530.741 95.1416
L530.668 95.1416
z
" style="fill:#4daf4a;"/>
   </g>
   <g id="patch_176">
    <path clip-path="url(#p6a4ae4428d)" d="
M530.741 105.321
L531.027 105.321
L531.027 93.5755
L530.741 93.5755
z
" style="fill:#40cf40;"/>
   </g>
   <g id="patch_177">
    <path clip-path="url(#p6a4ae4428d)" d="
M531.034 106.888
L531.71 106.888
L531.71 95.1416
L531.034 95.1416
z
" style="fill:#4daf4a;"/>
   </g>
   <g id="patch_178">
    <path clip-path="url(#p6a4ae4428d)" d="
M531.773 105.321
L532.71 105.321
L532.71 93.5755
L531.773 93.5755
z
" style="fill:#40cf40;"/>
   </g>
   <g id="patch_179">
    <path clip-path="url(#p6a4ae4428d)" d="
M532.71 106.888
L533.874 106.888
L533.874 95.1416
L532.71 95.1416
z
" style="fill:#4daf4a;"/>
   </g>
   <g id="patch_180">
    <path clip-path="url(#p6a4ae4428d)" d="
M533.875 105.321
L534.05 105.321
L534.05 93.5755
L533.875 93.5755
z
" style="fill:#40cf40;"/>
   </g>
   <g id="patch_181">
    <path clip-path="url(#p6a4ae4428d)" d="
M534.151 106.888
L534.246 106.888
L534.246 95.1416
L534.151 95.1416
z
" style="fill:#4daf4a;"/>
   </g>
   <g id="patch_182">
    <path clip-path="url(#p6a4ae4428d)" d="
M534.357 105.321
L534.467 105.321
L534.467 93.5755
L534.357 93.5755
z
" style="fill:#40cf40;"/>
   </g>
   <g id="patch_183">
    <path clip-path="url(#p6a4ae4428d)" d="
M534.55 106.888
L534.73 106.888
L534.73 95.1416
L534.55 95.1416
z
" style="fill:#4daf4a;"/>
   </g>
   <g id="patch_184">
    <path clip-path="url(#p6a4ae4428d)" d="
M534.76 105.321
L535.174 105.321
L535.174 93.5755
L534.76 93.5755
z
" style="fill:#40cf40;"/>
   </g>
   <g id="patch_185">
    <path clip-path="url(#p6a4ae4428d)" d="
M535.26 106.888
L537.096 106.888
L537.096 95.1416
L535.26 95.1416
z
" style="fill:#4daf4a;"/>
   </g>
   <g id="patch_186">
    <path clip-path="url(#p6a4ae4428d)" d="
M537.096 105.321
L538.06 105.321
L538.06 93.5755
L537.096 93.5755
z
" style="fill:#40cf40;"/>
   </g>
   <g id="patch_187">
    <path clip-path="url(#p6a4ae4428d)" d="
M538.06 106.888
L540.091 106.888
L540.091 95.1416
L538.06 95.1416
z
" style="fill:#4daf4a;"/>
   </g>
   <g id="patch_188">
    <path clip-path="url(#p6a4ae4428d)" d="
M540.142 105.321
L542.638 105.321
L542.638 93.5755
L540.142 93.5755
z
" style="fill:#40cf40;"/>
   </g>
   <g id="patch_189">
    <path clip-path="url(#p6a4ae4428d)" d="
M542.713 106.888
L542.809 106.888
L542.809 95.1416
L542.713 95.1416
z
" style="fill:#4daf4a;"/>
   </g>
   <g id="patch_190">
    <path clip-path="url(#p6a4ae4428d)" d="
M542.919 105.321
L543.029 105.321
L543.029 93.5755
L542.919 93.5755
z
" style="fill:#40cf40;"/>
   </g>
   <g id="patch_191">
    <path clip-path="url(#p6a4ae4428d)" d="
M543.112 106.888
L543.293 106.888
L543.293 95.1416
L543.112 95.1416
z
" style="fill:#4daf4a;"/>
   </g>
   <g id="patch_192">
    <path clip-path="url(#p6a4ae4428d)" d="
M543.293 105.321
L545.361 105.321
L545.361 93.5755
L543.293 93.5755
z
" style="fill:#40cf40;"/>
   </g>
   <g id="patch_193">
    <path clip-path="url(#p6a4ae4428d)" d="
M545.388 106.888
L545.827 106.888
L545.827 95.1416
L545.388 95.1416
z
" style="fill:#4daf4a;"/>
   </g>
   <g id="patch_194">
    <path clip-path="url(#p6a4ae4428d)" d="
M545.985 105.321
L546.105 105.321
L546.105 93.5755
L545.985 93.5755
z
" style="fill:#40cf40;"/>
   </g>
   <g id="patch_195">
    <path clip-path="url(#p6a4ae4428d)" d="
M546.117 106.888
L546.209 106.888
L546.209 95.1416
L546.117 95.1416
z
" style="fill:#4daf4a;"/>
   </g>
   <g id="patch_196">
    <path clip-path="url(#p6a4ae4428d)" d="
M546.319 105.321
L548.704 105.321
L548.704 93.5755
L546.319 93.5755
z
" style="fill:#40cf40;"/>
   </g>
   <g id="patch_197">
    <path clip-path="url(#p6a4ae4428d)" d="
M548.704 106.888
L550.381 106.888
L550.381 95.1416
L548.704 95.1416
z
" style="fill:#4daf4a;"/>
   </g>
   <g id="patch_198">
    <path clip-path="url(#p6a4ae4428d)" d="
M550.381 105.321
L550.469 105.321
L550.469 93.5755
L550.381 93.5755
z
" style="fill:#40cf40;"/>
   </g>
   <g id="patch_199">
    <path clip-path="url(#p6a4ae4428d)" d="
M550.563 106.888
L551.758 106.888
L551.758 95.1416
L550.563 95.1416
z
" style="fill:#4daf4a;"/>
   </g>
   <g id="patch_200">
    <path clip-path="url(#p6a4ae4428d)" d="
M551.764 105.321
L553.11 105.321
L553.11 93.5755
L551.764 93.5755
z
" style="fill:#40cf40;"/>
   </g>
   <g id="patch_201">
    <path clip-path="url(#p6a4ae4428d)" d="
M553.194 106.888
L556.318 106.888
L556.318 95.1416
L553.194 95.1416
z
" style="fill:#4daf4a;"/>
   </g>
   <g id="patch_202">
    <path clip-path="url(#p6a4ae4428d)" d="
M556.318 105.321
L561.767 105.321
L561.767 93.5755
L556.318 93.5755
z
" style="fill:#40cf40;"/>
   </g>
   <g id="patch_203">
    <path clip-path="url(#p6a4ae4428d)" d="
M561.767 106.888
L562.248 106.888
L562.248 95.1416
L561.767 95.1416
z
" style="fill:#4daf4a;"/>
   </g>
   <g id="patch_204">
    <path clip-path="url(#p6a4ae4428d)" d="
M562.249 105.321
L562.798 105.321
L562.798 93.5755
L562.249 93.5755
z
" style="fill:#40cf40;"/>
   </g>
   <g id="patch_205">
    <path clip-path="url(#p6a4ae4428d)" d="
M562.895 106.888
L566.945 106.888
L566.945 95.1416
L562.895 95.1416
z
" style="fill:#4daf4a;"/>
   </g>
   <g id="patch_206">
    <path clip-path="url(#p6a4ae4428d)" d="
M567.025 105.321
L568.242 105.321
L568.242 93.5755
L567.025 93.5755
z
" style="fill:#40cf40;"/>
   </g>
   <g id="patch_207">
    <path clip-path="url(#p6a4ae4428d)" d="
M568.242 106.888
L569.034 106.888
L569.034 95.1416
L568.242 95.1416
z
" style="fill:#4daf4a;"/>
   </g>
   <g id="patch_208">
    <path clip-path="url(#p6a4ae4428d)" d="
M569.034 105.321
L571.527 105.321
L571.527 93.5755
L569.034 93.5755
z
" style="fill:#40cf40;"/>
   </g>
   <g id="patch_209">
    <path clip-path="url(#p6a4ae4428d)" d="
M571.625 106.888
L573.065 106.888
L573.065 95.1416
L571.625 95.1416
z
" style="fill:#4daf4a;"/>
   </g>
   <g id="patch_210">
    <path clip-path="url(#p6a4ae4428d)" d="
M573.163 105.321
L574.328 105.321
L574.328 93.5755
L573.163 93.5755
z
" style="fill:#40cf40;"/>
   </g>
   <g id="patch_211">
    <path clip-path="url(#p6a4ae4428d)" d="
M574.376 106.888
L578.574 106.888
L578.574 95.1416
L574.376 95.1416
z
" style="fill:#4daf4a;"/>
   </g>
   <g id="patch_212">
    <path clip-path="url(#p6a4ae4428d)" d="
M578.574 105.321
L581.967 105.321
L581.967 93.5755
L578.574 93.5755
z
" style="fill:#40cf40;"/>
   </g>
   <g id="patch_213">
    <path clip-path="url(#p6a4ae4428d)" d="
M581.968 106.888
L582.118 106.888
L582.118 95.1416
L581.968 95.1416
z
" style="fill:#4daf4a;"/>
   </g>
   <g id="patch_214">
    <path clip-path="url(#p6a4ae4428d)" d="
M582.118 105.321
L583.679 105.321
L583.679 93.5755
L582.118 93.5755
z
" style="fill:#40cf40;"/>
   </g>
   <g id="patch_215">
    <path clip-path="url(#p6a4ae4428d)" d="
M583.679 106.888
L583.908 106.888
L583.908 95.1416
L583.679 95.1416
z
" style="fill:#4daf4a;"/>
   </g>
   <g id="patch_216">
    <path clip-path="url(#p6a4ae4428d)" d="
M583.908 105.321
L586.227 105.321
L586.227 93.5755
L583.908 93.5755
z
" style="fill:#40cf40;"/>
   </g>
   <g id="patch_217">
    <path clip-path="url(#p6a4ae4428d)" d="
M586.227 106.888
L586.304 106.888
L586.304 95.1416
L586.227 95.1416
z
" style="fill:#4daf4a;"/>
   </g>
   <g id="patch_218">
    <path clip-path="url(#p6a4ae4428d)" d="
M586.304 105.321
L587.237 105.321
L587.237 93.5755
L586.304 93.5755
z
" style="fill:#40cf40;"/>
   </g>
   <g id="patch_219">
    <path clip-path="url(#p6a4ae4428d)" d="
M587.237 106.888
L588.878 106.888
L588.878 95.1416
L587.237 95.1416
z
" style="fill:#4daf4a;"/>
   </g>
   <g id="patch_220">
    <path clip-path="url(#p6a4ae4428d)" d="
M588.878 105.321
L590.265 105.321
L590.265 93.5755
L588.878 93.5755
z
" style="fill:#40cf40;"/>
   </g>
   <g id="patch_221">
    <path clip-path="url(#p6a4ae4428d)" d="
M590.265 106.888
L591.237 106.888
L591.237 95.1416
L590.265 95.1416
z
" style="fill:#4daf4a;"/>
   </g>
   <g id="patch_222">
    <path clip-path="url(#p6a4ae4428d)" d="
M591.325 105.321
L594.155 105.321
L594.155 93.5755
L591.325 93.5755
z
" style="fill:#40cf40;"/>
   </g>
   <g id="patch_223">
    <path clip-path="url(#p6a4ae4428d)" d="
M594.155 106.888
L598.162 106.888
L598.162 95.1416
L594.155 95.1416
z
" style="fill:#4daf4a;"/>
   </g>
   <g id="patch_224">
    <path clip-path="url(#p6a4ae4428d)" d="
M598.255 105.321
L599.726 105.321
L599.726 93.5755
L598.255 93.5755
z
" style="fill:#40cf40;"/>
   </g>
   <g id="patch_225">
    <path clip-path="url(#p6a4ae4428d)" d="
M599.726 106.888
L599.812 106.888
L599.812 95.1416
L599.726 95.1416
z
" style="fill:#4daf4a;"/>
   </g>
   <g id="patch_226">
    <path clip-path="url(#p6a4ae4428d)" d="
M599.812 105.321
L602.937 105.321
L602.937 93.5755
L599.812 93.5755
z
" style="fill:#40cf40;"/>
   </g>
   <g id="patch_227">
    <path clip-path="url(#p6a4ae4428d)" d="
M603.034 106.888
L603.14 106.888
L603.14 95.1416
L603.034 95.1416
z
" style="fill:#4daf4a;"/>
   </g>
   <g id="patch_228">
    <path clip-path="url(#p6a4ae4428d)" d="
M603.176 105.321
L605.247 105.321
L605.247 93.5755
L603.176 93.5755
z
" style="fill:#40cf40;"/>
   </g>
   <g id="patch_229">
    <path clip-path="url(#p6a4ae4428d)" d="
M605.247 106.888
L608.038 106.888
L608.038 95.1416
L605.247 95.1416
z
" style="fill:#4daf4a;"/>
   </g>
   <g id="patch_230">
    <path clip-path="url(#p6a4ae4428d)" d="
M608.159 105.321
L609.853 105.321
L609.853 93.5755
L608.159 93.5755
z
" style="fill:#40cf40;"/>
   </g>
   <g id="patch_231">
    <path clip-path="url(#p6a4ae4428d)" d="
M609.948 106.888
L610.673 106.888
L610.673 95.1416
L609.948 95.1416
z
" style="fill:#4daf4a;"/>
   </g>
   <g id="patch_232">
    <path clip-path="url(#p6a4ae4428d)" d="
M610.673 105.321
L612.906 105.321
L612.906 93.5755
L610.673 93.5755
z
" style="fill:#40cf40;"/>
   </g>
   <g id="patch_233">
    <path clip-path="url(#p6a4ae4428d)" d="
M612.921 106.888
L613.919 106.888
L613.919 95.1416
L612.921 95.1416
z
" style="fill:#4daf4a;"/>
   </g>
   <g id="patch_234">
    <path clip-path="url(#p6a4ae4428d)" d="
M614.003 105.321
L615.067 105.321
L615.067 93.5755
L614.003 93.5755
z
" style="fill:#40cf40;"/>
   </g>
   <g id="patch_235">
    <path clip-path="url(#p6a4ae4428d)" d="
M615.146 106.888
L615.346 106.888
L615.346 95.1416
L615.146 95.1416
z
" style="fill:#4daf4a;"/>
   </g>
   <g id="patch_236">
    <path clip-path="url(#p6a4ae4428d)" d="
M615.346 105.321
L617.081 105.321
L617.081 93.5755
L615.346 93.5755
z
" style="fill:#40cf40;"/>
   </g>
   <g id="patch_237">
    <path clip-path="url(#p6a4ae4428d)" d="
M617.081 106.888
L619.1 106.888
L619.1 95.1416
L617.081 95.1416
z
" style="fill:#4daf4a;"/>
   </g>
   <g id="patch_238">
    <path clip-path="url(#p6a4ae4428d)" d="
M619.1 105.321
L619.332 105.321
L619.332 93.5755
L619.1 93.5755
z
" style="fill:#40cf40;"/>
   </g>
   <g id="patch_239">
    <path clip-path="url(#p6a4ae4428d)" d="
M619.429 106.888
L619.568 106.888
L619.568 95.1416
L619.429 95.1416
z
" style="fill:#4daf4a;"/>
   </g>
   <g id="patch_240">
    <path clip-path="url(#p6a4ae4428d)" d="
M619.568 105.321
L620.159 105.321
L620.159 93.5755
L619.568 93.5755
z
" style="fill:#40cf40;"/>
   </g>
   <g id="patch_241">
    <path clip-path="url(#p6a4ae4428d)" d="
M620.159 106.888
L623.303 106.888
L623.303 95.1416
L620.159 95.1416
z
" style="fill:#4daf4a;"/>
   </g>
   <g id="patch_242">
    <path clip-path="url(#p6a4ae4428d)" d="
M623.303 105.321
L624.836 105.321
L624.836 93.5755
L623.303 93.5755
z
" style="fill:#40cf40;"/>
   </g>
   <g id="patch_243">
    <path clip-path="url(#p6a4ae4428d)" d="
M624.836 106.888
L626.505 106.888
L626.505 95.1416
L624.836 95.1416
z
" style="fill:#4daf4a;"/>
   </g>
   <g id="patch_244">
    <path clip-path="url(#p6a4ae4428d)" d="
M626.506 105.321
L629.6 105.321
L629.6 93.5755
L626.506 93.5755
z
" style="fill:#40cf40;"/>
   </g>
   <g id="patch_245">
    <path clip-path="url(#p6a4ae4428d)" d="
M629.618 106.888
L631.675 106.888
L631.675 95.1416
L629.618 95.1416
z
" style="fill:#4daf4a;"/>
   </g>
   <g id="patch_246">
    <path clip-path="url(#p6a4ae4428d)" d="
M631.675 105.321
L632.241 105.321
L632.241 93.5755
L631.675 93.5755
z
" style="fill:#40cf40;"/>
   </g>
   <g id="patch_247">
    <path clip-path="url(#p6a4ae4428d)" d="
M632.241 106.888
L632.579 106.888
L632.579 95.1416
L632.241 95.1416
z
" style="fill:#4daf4a;"/>
   </g>
   <g id="patch_248">
    <path clip-path="url(#p6a4ae4428d)" d="
M632.661 105.321
L633.575 105.321
L633.575 93.5755
L632.661 93.5755
z
" style="fill:#40cf40;"/>
   </g>
   <g id="patch_249">
    <path clip-path="url(#p6a4ae4428d)" d="
M633.575 106.888
L635.692 106.888
L635.692 95.1416
L633.575 95.1416
z
" style="fill:#4daf4a;"/>
   </g>
   <g id="patch_250">
    <path clip-path="url(#p6a4ae4428d)" d="
M635.802 105.321
L636.213 105.321
L636.213 93.5755
L635.802 93.5755
z
" style="fill:#40cf40;"/>
   </g>
   <g id="patch_251">
    <path clip-path="url(#p6a4ae4428d)" d="
M636.302 106.888
L638.276 106.888
L638.276 95.1416
L636.302 95.1416
z
" style="fill:#4daf4a;"/>
   </g>
   <g id="patch_252">
    <path clip-path="url(#p6a4ae4428d)" d="
M638.276 105.321
L641.507 105.321
L641.507 93.5755
L638.276 93.5755
z
" style="fill:#40cf40;"/>
   </g>
   <g id="patch_253">
    <path clip-path="url(#p6a4ae4428d)" d="
M641.52 106.888
L641.632 106.888
L641.632 95.1416
L641.52 95.1416
z
" style="fill:#4daf4a;"/>
   </g>
   <g id="patch_254">
    <path clip-path="url(#p6a4ae4428d)" d="
M641.632 105.321
L641.82 105.321
L641.82 93.5755
L641.632 93.5755
z
" style="fill:#40cf40;"/>
   </g>
   <g id="patch_255">
    <path clip-path="url(#p6a4ae4428d)" d="
M641.912 106.888
L642.514 106.888
L642.514 95.1416
L641.912 95.1416
z
" style="fill:#4daf4a;"/>
   </g>
   <g id="patch_256">
    <path clip-path="url(#p6a4ae4428d)" d="
M642.514 105.321
L642.781 105.321
L642.781 93.5755
L642.514 93.5755
z
" style="fill:#40cf40;"/>
   </g>
   <g id="patch_257">
    <path clip-path="url(#p6a4ae4428d)" d="
M642.781 106.888
L643.05 106.888
L643.05 95.1416
L642.781 95.1416
z
" style="fill:#4daf4a;"/>
   </g>
   <g id="patch_258">
    <path clip-path="url(#p6a4ae4428d)" d="
M643.05 105.321
L648.134 105.321
L648.134 93.5755
L643.05 93.5755
z
" style="fill:#40cf40;"/>
   </g>
   <g id="patch_259">
    <path clip-path="url(#p6a4ae4428d)" d="
M648.15 106.888
L649.034 106.888
L649.034 95.1416
L648.15 95.1416
z
" style="fill:#4daf4a;"/>
   </g>
   <g id="patch_260">
    <path clip-path="url(#p6a4ae4428d)" d="
M649.035 105.321
L651.342 105.321
L651.342 93.5755
L649.035 93.5755
z
" style="fill:#40cf40;"/>
   </g>
   <g id="patch_261">
    <path clip-path="url(#p6a4ae4428d)" d="
M651.342 106.888
L652.17 106.888
L652.17 95.1416
L651.342 95.1416
z
" style="fill:#4daf4a;"/>
   </g>
   <g id="patch_262">
    <path clip-path="url(#p6a4ae4428d)" d="
M652.264 105.321
L652.57 105.321
L652.57 93.5755
L652.264 93.5755
z
" style="fill:#40cf40;"/>
   </g>
   <g id="patch_263">
    <path clip-path="url(#p6a4ae4428d)" d="
M652.57 106.888
L655.525 106.888
L655.525 95.1416
L652.57 95.1416
z
" style="fill:#4daf4a;"/>
   </g>
   <g id="patch_264">
    <path clip-path="url(#p6a4ae4428d)" d="
M655.525 105.321
L657.529 105.321
L657.529 93.5755
L655.525 93.5755
z
" style="fill:#40cf40;"/>
   </g>
   <g id="patch_265">
    <path clip-path="url(#p6a4ae4428d)" d="
M657.529 106.888
L659.308 106.888
L659.308 95.1416
L657.529 95.1416
z
" style="fill:#4daf4a;"/>
   </g>
   <g id="patch_266">
    <path clip-path="url(#p6a4ae4428d)" d="
M659.308 105.321
L659.489 105.321
L659.489 93.5755
L659.308 93.5755
z
" style="fill:#40cf40;"/>
   </g>
   <g id="patch_267">
    <path clip-path="url(#p6a4ae4428d)" d="
M659.489 106.888
L661.075 106.888
L661.075 95.1416
L659.489 95.1416
z
" style="fill:#4daf4a;"/>
   </g>
   <g id="patch_268">
    <path clip-path="url(#p6a4ae4428d)" d="
M661.146 105.321
L661.401 105.321
L661.401 93.5755
L661.146 93.5755
z
" style="fill:#40cf40;"/>
   </g>
   <g id="patch_269">
    <path clip-path="url(#p6a4ae4428d)" d="
M661.444 106.888
L661.564 106.888
L661.564 95.1416
L661.444 95.1416
z
" style="fill:#4daf4a;"/>
   </g>
   <g id="patch_270">
    <path clip-path="url(#p6a4ae4428d)" d="
M661.576 105.321
L661.668 105.321
L661.668 93.5755
L661.576 93.5755
z
" style="fill:#40cf40;"/>
   </g>
   <g id="patch_271">
    <path clip-path="url(#p6a4ae4428d)" d="
M661.756 106.888
L661.924 106.888
L661.924 95.1416
L661.756 95.1416
z
" style="fill:#4daf4a;"/>
   </g>
   <g id="patch_272">
    <path clip-path="url(#p6a4ae4428d)" d="
M661.924 105.321
L662.739 105.321
L662.739 93.5755
L661.924 93.5755
z
" style="fill:#40cf40;"/>
   </g>
   <g id="patch_273">
    <path clip-path="url(#p6a4ae4428d)" d="
M662.739 106.888
L663.623 106.888
L663.623 95.1416
L662.739 95.1416
z
" style="fill:#4daf4a;"/>
   </g>
   <g id="patch_274">
    <path clip-path="url(#p6a4ae4428d)" d="
M663.72 105.321
L664.412 105.321
L664.412 93.5755
L663.72 93.5755
z
" style="fill:#40cf40;"/>
   </g>
   <g id="patch_275">
    <path clip-path="url(#p6a4ae4428d)" d="
M664.509 106.888
L664.821 106.888
L664.821 95.1416
L664.509 95.1416
z
" style="fill:#4daf4a;"/>
   </g>
   <g id="patch_276">
    <path clip-path="url(#p6a4ae4428d)" d="
M664.903 105.321
L664.995 105.321
L664.995 93.5755
L664.903 93.5755
z
" style="fill:#40cf40;"/>
   </g>
   <g id="patch_277">
    <path clip-path="url(#p6a4ae4428d)" d="
M665.007 106.888
L665.127 106.888
L665.127 95.1416
L665.007 95.1416
z
" style="fill:#4daf4a;"/>
   </g>
   <g id="patch_278">
    <path clip-path="url(#p6a4ae4428d)" d="
M665.29 105.321
L667.055 105.321
L667.055 93.5755
L665.29 93.5755
z
" style="fill:#40cf40;"/>
   </g>
   <g id="patch_279">
    <path clip-path="url(#p6a4ae4428d)" d="
M667.055 106.888
L668.678 106.888
L668.678 95.1416
L667.055 95.1416
z
" style="fill:#4daf4a;"/>
   </g>
   <g id="patch_280">
    <path clip-path="url(#p6a4ae4428d)" d="
M668.764 105.321
L671.805 105.321
L671.805 93.5755
L668.764 93.5755
z
" style="fill:#40cf40;"/>
   </g>
   <g id="patch_281">
    <path clip-path="url(#p6a4ae4428d)" d="
M671.805 106.888
L673.311 106.888
L673.311 95.1416
L671.805 95.1416
z
" style="fill:#4daf4a;"/>
   </g>
   <g id="patch_282">
    <path clip-path="url(#p6a4ae4428d)" d="
M673.409 105.321
L675.513 105.321
L675.513 93.5755
L673.409 93.5755
z
" style="fill:#40cf40;"/>
   </g>
   <g id="patch_283">
    <path clip-path="url(#p6a4ae4428d)" d="
M675.513 106.888
L675.625 106.888
L675.625 95.1416
L675.513 95.1416
z
" style="fill:#4daf4a;"/>
   </g>
   <g id="patch_284">
    <path clip-path="url(#p6a4ae4428d)" d="
M675.722 105.321
L676.883 105.321
L676.883 93.5755
L675.722 93.5755
z
" style="fill:#40cf40;"/>
   </g>
   <g id="patch_285">
    <path clip-path="url(#p6a4ae4428d)" d="
M676.965 106.888
L678.24 106.888
L678.24 95.1416
L676.965 95.1416
z
" style="fill:#4daf4a;"/>
   </g>
   <g id="patch_286">
    <path clip-path="url(#p6a4ae4428d)" d="
M678.24 105.321
L679.055 105.321
L679.055 93.5755
L678.24 93.5755
z
" style="fill:#40cf40;"/>
   </g>
   <g id="patch_287">
    <path clip-path="url(#p6a4ae4428d)" d="
M679.132 106.888
L679.228 106.888
L679.228 95.1416
L679.132 95.1416
z
" style="fill:#4daf4a;"/>
   </g>
   <g id="patch_288">
    <path clip-path="url(#p6a4ae4428d)" d="
M679.228 105.321
L679.59 105.321
L679.59 93.5755
L679.228 93.5755
z
" style="fill:#40cf40;"/>
   </g>
   <g id="patch_289">
    <path clip-path="url(#p6a4ae4428d)" d="
M679.59 106.888
L679.733 106.888
L679.733 95.1416
L679.59 95.1416
z
" style="fill:#4daf4a;"/>
   </g>
   <g id="patch_290">
    <path clip-path="url(#p6a4ae4428d)" d="
M679.733 105.321
L680.112 105.321
L680.112 93.5755
L679.733 93.5755
z
" style="fill:#40cf40;"/>
   </g>
   <g id="patch_291">
    <path clip-path="url(#p6a4ae4428d)" d="
M680.209 106.888
L680.64 106.888
L680.64 95.1416
L680.209 95.1416
z
" style="fill:#4daf4a;"/>
   </g>
   <g id="patch_292">
    <path clip-path="url(#p6a4ae4428d)" d="
M680.64 105.321
L680.852 105.321
L680.852 93.5755
L680.64 93.5755
z
" style="fill:#40cf40;"/>
   </g>
   <g id="patch_293">
    <path clip-path="url(#p6a4ae4428d)" d="
M680.853 106.888
L682.071 106.888
L682.071 95.1416
L680.853 95.1416
z
" style="fill:#4daf4a;"/>
   </g>
   <g id="patch_294">
    <path clip-path="url(#p6a4ae4428d)" d="
M682.157 105.321
L685.44 105.321
L685.44 93.5755
L682.157 93.5755
z
" style="fill:#40cf40;"/>
   </g>
   <g id="patch_295">
    <path clip-path="url(#p6a4ae4428d)" d="
M685.44 106.888
L686.281 106.888
L686.281 95.1416
L685.44 95.1416
z
" style="fill:#4daf4a;"/>
   </g>
   <g id="patch_296">
    <path clip-path="url(#p6a4ae4428d)" d="
M686.366 105.321
L686.451 105.321
L686.451 93.5755
L686.366 93.5755
z
" style="fill:#40cf40;"/>
   </g>
   <g id="patch_297">
    <path clip-path="url(#p6a4ae4428d)" d="
M686.451 106.888
L688.53 106.888
L688.53 95.1416
L686.451 95.1416
z
" style="fill:#4daf4a;"/>
   </g>
   <g id="patch_298">
    <path clip-path="url(#p6a4ae4428d)" d="
M688.53 105.321
L689.399 105.321
L689.399 93.5755
L688.53 93.5755
z
" style="fill:#40cf40;"/>
   </g>
   <g id="patch_299">
    <path clip-path="url(#p6a4ae4428d)" d="
M689.399 106.888
L690.154 106.888
L690.154 95.1416
L689.399 95.1416
z
" style="fill:#4daf4a;"/>
   </g>
   <g id="patch_300">
    <path clip-path="url(#p6a4ae4428d)" d="
M690.154 105.321
L690.819 105.321
L690.819 93.5755
L690.154 93.5755
z
" style="fill:#40cf40;"/>
   </g>
   <g id="patch_301">
    <path clip-path="url(#p6a4ae4428d)" d="
M690.819 106.888
L691.686 106.888
L691.686 95.1416
L690.819 95.1416
z
" style="fill:#4daf4a;"/>
   </g>
   <g id="patch_302">
    <path clip-path="url(#p6a4ae4428d)" d="
M691.776 105.321
L694.541 105.321
L694.541 93.5755
L691.776 93.5755
z
" style="fill:#40cf40;"/>
   </g>
   <g id="patch_303">
    <path clip-path="url(#p6a4ae4428d)" d="
M694.541 106.888
L695.361 106.888
L695.361 95.1416
L694.541 95.1416
z
" style="fill:#4daf4a;"/>
   </g>
   <g id="patch_304">
    <path clip-path="url(#p6a4ae4428d)" d="
M695.361 105.321
L696.149 105.321
L696.149 93.5755
L695.361 93.5755
z
" style="fill:#40cf40;"/>
   </g>
   <g id="patch_305">
    <path clip-path="url(#p6a4ae4428d)" d="
M696.149 106.888
L696.308 106.888
L696.308 95.1416
L696.149 95.1416
z
" style="fill:#4daf4a;"/>
   </g>
   <g id="patch_306">
    <path clip-path="url(#p6a4ae4428d)" d="
M696.309 105.321
L696.826 105.321
L696.826 93.5755
L696.309 93.5755
z
" style="fill:#40cf40;"/>
   </g>
   <g id="patch_307">
    <path clip-path="url(#p6a4ae4428d)" d="
M697.05 106.888
L698.139 106.888
L698.139 95.1416
L697.05 95.1416
z
" style="fill:#4daf4a;"/>
   </g>
   <g id="patch_308">
    <path clip-path="url(#p6a4ae4428d)" d="
M698.139 105.321
L700.114 105.321
L700.114 93.5755
L698.139 93.5755
z
" style="fill:#40cf40;"/>
   </g>
   <g id="patch_309">
    <path clip-path="url(#p6a4ae4428d)" d="
M700.114 106.888
L701.055 106.888
L701.055 95.1416
L700.114 95.1416
z
" style="fill:#4daf4a;"/>
   </g>
   <g id="patch_310">
    <path clip-path="url(#p6a4ae4428d)" d="
M701.055 105.321
L704.324 105.321
L704.324 93.5755
L701.055 93.5755
z
" style="fill:#40cf40;"/>
   </g>
   <g id="patch_311">
    <path clip-path="url(#p6a4ae4428d)" d="
M704.324 106.888
L706.246 106.888
L706.246 95.1416
L704.324 95.1416
z
" style="fill:#4daf4a;"/>
   </g>
   <g id="patch_312">
    <path clip-path="url(#p6a4ae4428d)" d="
M706.341 105.321
L706.703 105.321
L706.703 93.5755
L706.341 93.5755
z
" style="fill:#40cf40;"/>
   </g>
   <g id="patch_313">
    <path clip-path="url(#p6a4ae4428d)" d="
M706.703 106.888
L707.804 106.888
L707.804 95.1416
L706.703 95.1416
z
" style="fill:#4daf4a;"/>
   </g>
   <g id="patch_314">
    <path clip-path="url(#p6a4ae4428d)" d="
M707.804 105.321
L707.89 105.321
L707.89 93.5755
L707.804 93.5755
z
" style="fill:#40cf40;"/>
   </g>
   <g id="patch_315">
    <path clip-path="url(#p6a4ae4428d)" d="
M707.983 106.888
L710.959 106.888
L710.959 95.1416
L707.983 95.1416
z
" style="fill:#4daf4a;"/>
   </g>
   <g id="patch_316">
    <path clip-path="url(#p6a4ae4428d)" d="
M711.054 105.321
L711.606 105.321
L711.606 93.5755
L711.054 93.5755
z
" style="fill:#40cf40;"/>
   </g>
   <g id="patch_317">
    <path clip-path="url(#p6a4ae4428d)" d="
M711.607 106.888
L712.284 106.888
L712.284 95.1416
L711.607 95.1416
z
" style="fill:#4daf4a;"/>
   </g>
   <g id="patch_318">
    <path clip-path="url(#p6a4ae4428d)" d="
M712.348 105.321
L712.527 105.321
L712.527 93.5755
L712.348 93.5755
z
" style="fill:#40cf40;"/>
   </g>
   <g id="patch_319">
    <path clip-path="url(#p6a4ae4428d)" d="
M712.527 106.888
L714.016 106.888
L714.016 95.1416
L712.527 95.1416
z
" style="fill:#4daf4a;"/>
   </g>
   <g id="line2d_1">
    <path clip-path="url(#p6a4ae4428d)" d="
M182.801 66.56
L424.263 66.56" style="fill:none;stroke:#000000;stroke-linecap:square;stroke-width:0.5;"/>
   </g>
   <g id="line2d_2">
    <path clip-path="url(#p6a4ae4428d)" d="
M182.801 15.6612
L182.801 109.628" style="fill:none;stroke:#808080;stroke-dasharray:1.000000,3.000000;stroke-dashoffset:0.0;stroke-width:0.2;"/>
   </g>
   <g id="line2d_3">
    <path clip-path="url(#p6a4ae4428d)" d="
M182.801 66.56
L182.801 68.9092" style="fill:none;stroke:#000000;stroke-linecap:square;stroke-width:0.5;"/>
   </g>
   <g id="line2d_4">
    <path clip-path="url(#p6a4ae4428d)" d="
M310.371 15.6612
L310.371 109.628" style="fill:none;stroke:#808080;stroke-dasharray:1.000000,3.000000;stroke-dashoffset:0.0;stroke-width:0.2;"/>
   </g>
   <g id="line2d_5">
    <path clip-path="url(#p6a4ae4428d)" d="
M310.371 66.56
L310.371 68.9092" style="fill:none;stroke:#000000;stroke-linecap:square;stroke-width:0.5;"/>
   </g>
   <g id="line2d_6">
    <path clip-path="url(#p6a4ae4428d)" d="
M424.263 15.6612
L424.263 109.628" style="fill:none;stroke:#808080;stroke-dasharray:1.000000,3.000000;stroke-dashoffset:0.0;stroke-width:0.2;"/>
   </g>
   <g id="line2d_7">
    <path clip-path="url(#p6a4ae4428d)" d="
M424.263 66.56
L424.263 68.9092" style="fill:none;stroke:#000000;stroke-linecap:square;stroke-width:0.5;"/>
   </g>
   <g id="line2d_8">
    <path clip-path="url(#p6a4ae4428d)" d="
M472.555 66.56
L714.017 66.56" style="fill:none;stroke:#000000;stroke-linecap:square;stroke-width:0.5;"/>
   </g>
   <g id="line2d_9">
    <path clip-path="url(#p6a4ae4428d)" d="
M472.555 15.6612
L472.555 109.628" style="fill:none;stroke:#808080;stroke-dasharray:1.000000,3.000000;stroke-dashoffset:0.0;stroke-width:0.2;"/>
   </g>
   <g id="line2d_10">
    <path clip-path="url(#p6a4ae4428d)" d="
M472.555 66.56
L472.555 68.9092" style="fill:none;stroke:#000000;stroke-linecap:square;stroke-width:0.5;"/>
   </g>
   <g id="line2d_11">
    <path clip-path="url(#p6a4ae4428d)" d="
M600.125 15.6612
L600.125 109.628" style="fill:none;stroke:#808080;stroke-dasharray:1.000000,3.000000;stroke-dashoffset:0.0;stroke-width:0.2;"/>
   </g>
   <g id="line2d_12">
    <path clip-path="url(#p6a4ae4428d)" d="
M600.125 66.56
L600.125 68.9092" style="fill:none;stroke:#000000;stroke-linecap:square;stroke-width:0.5;"/>
   </g>
   <g id="line2d_13">
    <path clip-path="url(#p6a4ae4428d)" d="
M714.017 15.6612
L714.017 109.628" style="fill:none;stroke:#808080;stroke-dasharray:1.000000,3.000000;stroke-dashoffset:0.0;stroke-width:0.2;"/>
   </g>
   <g id="line2d_14">
    <path clip-path="url(#p6a4ae4428d)" d="
M714.017 66.56
L714.017 68.9092" style="fill:none;stroke:#000000;stroke-linecap:square;stroke-width:0.5;"/>
   </g>
   <g id="text_1">
    <!-- 0.0 -->
    <defs>
     <path d="
M31.7812 66.4062
Q24.1719 66.4062 20.3281 58.9062
Q16.5 51.4219 16.5 36.375
Q16.5 21.3906 20.3281 13.8906
Q24.1719 6.39062 31.7812 6.39062
Q39.4531 6.39062 43.2812 13.8906
Q47.125 21.3906 47.125 36.375
Q47.125 51.4219 43.2812 58.9062
Q39.4531 66.4062 31.7812 66.4062
M31.7812 74.2188
Q44.0469 74.2188 50.5156 64.5156
Q56.9844 54.8281 56.9844 36.375
Q56.9844 17.9688 50.5156 8.26562
Q44.0469 -1.42188 31.7812 -1.42188
Q19.5312 -1.42188 13.0625 8.26562
Q6.59375 17.9688 6.59375 36.375
Q6.59375 54.8281 13.0625 64.5156
Q19.5312 74.2188 31.7812 74.2188" id="BitstreamVeraSans-Roman-30"/>
     <path d="
M10.6875 12.4062
L21 12.4062
L21 0
L10.6875 0
z
" id="BitstreamVeraSans-Roman-2e"/>
    </defs>
    <g transform="translate(184.67568 74.9879264706)scale(0.08 -0.08)">
     <use xlink:href="#BitstreamVeraSans-Roman-30"/>
     <use x="63.623046875" xlink:href="#BitstreamVeraSans-Roman-2e"/>
     <use x="95.41015625" xlink:href="#BitstreamVeraSans-Roman-30"/>
    </g>
   </g>
   <g id="text_2">
    <!-- 1.0 -->
    <defs>
     <path d="
M12.4062 8.29688
L28.5156 8.29688
L28.5156 63.9219
L10.9844 60.4062
L10.9844 69.3906
L28.4219 72.9062
L38.2812 72.9062
L38.2812 8.29688
L54.3906 8.29688
L54.3906 0
L12.4062 0
z
" id="BitstreamVeraSans-Roman-31"/>
    </defs>
    <g transform="translate(312.245950202 74.9879264706)scale(0.08 -0.08)">
     <use xlink:href="#BitstreamVeraSans-Roman-31"/>
     <use x="63.623046875" xlink:href="#BitstreamVeraSans-Roman-2e"/>
     <use x="95.41015625" xlink:href="#BitstreamVeraSans-Roman-30"/>
    </g>
   </g>
   <g id="text_3">
    <!-- 1.89 -->
    <defs>
     <path d="
M31.7812 34.625
Q24.75 34.625 20.7188 30.8594
Q16.7031 27.0938 16.7031 20.5156
Q16.7031 13.9219 20.7188 10.1562
Q24.75 6.39062 31.7812 6.39062
Q38.8125 6.39062 42.8594 10.1719
Q46.9219 13.9688 46.9219 20.5156
Q46.9219 27.0938 42.8906 30.8594
Q38.875 34.625 31.7812 34.625
M21.9219 38.8125
Q15.5781 40.375 12.0312 44.7188
Q8.5 49.0781 8.5 55.3281
Q8.5 64.0625 14.7188 69.1406
Q20.9531 74.2188 31.7812 74.2188
Q42.6719 74.2188 48.875 69.1406
Q55.0781 64.0625 55.0781 55.3281
Q55.0781 49.0781 51.5312 44.7188
Q48 40.375 41.7031 38.8125
Q48.8281 37.1562 52.7969 32.3125
Q56.7812 27.4844 56.7812 20.5156
Q56.7812 9.90625 50.3125 4.23438
Q43.8438 -1.42188 31.7812 -1.42188
Q19.7344 -1.42188 13.25 4.23438
Q6.78125 9.90625 6.78125 20.5156
Q6.78125 27.4844 10.7812 32.3125
Q14.7969 37.1562 21.9219 38.8125
M18.3125 54.3906
Q18.3125 48.7344 21.8438 45.5625
Q25.3906 42.3906 31.7812 42.3906
Q38.1406 42.3906 41.7188 45.5625
Q45.3125 48.7344 45.3125 54.3906
Q45.3125 60.0625 41.7188 63.2344
Q38.1406 66.4062 31.7812 66.4062
Q25.3906 66.4062 21.8438 63.2344
Q18.3125 60.0625 18.3125 54.3906" id="BitstreamVeraSans-Roman-38"/>
     <path d="
M10.9844 1.51562
L10.9844 10.5
Q14.7031 8.73438 18.5 7.8125
Q22.3125 6.89062 25.9844 6.89062
Q35.75 6.89062 40.8906 13.4531
Q46.0469 20.0156 46.7812 33.4062
Q43.9531 29.2031 39.5938 26.9531
Q35.25 24.7031 29.9844 24.7031
Q19.0469 24.7031 12.6719 31.3125
Q6.29688 37.9375 6.29688 49.4219
Q6.29688 60.6406 12.9375 67.4219
Q19.5781 74.2188 30.6094 74.2188
Q43.2656 74.2188 49.9219 64.5156
Q56.5938 54.8281 56.5938 36.375
Q56.5938 19.1406 48.4062 8.85938
Q40.2344 -1.42188 26.4219 -1.42188
Q22.7031 -1.42188 18.8906 -0.6875
Q15.0938 0.046875 10.9844 1.51562
M30.6094 32.4219
Q37.25 32.4219 41.125 36.9531
Q45.0156 41.5 45.0156 49.4219
Q45.0156 57.2812 41.125 61.8438
Q37.25 66.4062 30.6094 66.4062
Q23.9688 66.4062 20.0938 61.8438
Q16.2188 57.2812 16.2188 49.4219
Q16.2188 41.5 20.0938 36.9531
Q23.9688 32.4219 30.6094 32.4219" id="BitstreamVeraSans-Roman-39"/>
    </defs>
    <g transform="translate(426.137498182 74.9879264706)scale(0.08 -0.08)">
     <use xlink:href="#BitstreamVeraSans-Roman-31"/>
     <use x="63.623046875" xlink:href="#BitstreamVeraSans-Roman-2e"/>
     <use x="95.41015625" xlink:href="#BitstreamVeraSans-Roman-38"/>
     <use x="159.033203125" xlink:href="#BitstreamVeraSans-Roman-39"/>
    </g>
   </g>
   <g id="text_4">
    <!-- chr_0 (..minum_0910) -->
    <defs>
     <path id="BitstreamVeraSans-Roman-20"/>
     <path d="
M50.9844 -16.6094
L50.9844 -23.5781
L-0.984375 -23.5781
L-0.984375 -16.6094
z
" id="BitstreamVeraSans-Roman-5f"/>
     <path d="
M54.8906 33.0156
L54.8906 0
L45.9062 0
L45.9062 32.7188
Q45.9062 40.4844 42.875 44.3281
Q39.8438 48.1875 33.7969 48.1875
Q26.5156 48.1875 22.3125 43.5469
Q18.1094 38.9219 18.1094 30.9062
L18.1094 0
L9.07812 0
L9.07812 54.6875
L18.1094 54.6875
L18.1094 46.1875
Q21.3438 51.125 25.7031 53.5625
Q30.0781 56 35.7969 56
Q45.2188 56 50.0469 50.1719
Q54.8906 44.3438 54.8906 33.0156" id="BitstreamVeraSans-Roman-6e"/>
     <path d="
M31 75.875
Q24.4688 64.6562 21.2812 53.6562
Q18.1094 42.6719 18.1094 31.3906
Q18.1094 20.125 21.3125 9.0625
Q24.5156 -2 31 -13.1875
L23.1875 -13.1875
Q15.875 -1.70312 12.2344 9.375
Q8.59375 20.4531 8.59375 31.3906
Q8.59375 42.2812 12.2031 53.3125
Q15.8281 64.3594 23.1875 75.875
z
" id="BitstreamVeraSans-Roman-28"/>
     <path d="
M8.01562 75.875
L15.8281 75.875
Q23.1406 64.3594 26.7812 53.3125
Q30.4219 42.2812 30.4219 31.3906
Q30.4219 20.4531 26.7812 9.375
Q23.1406 -1.70312 15.8281 -13.1875
L8.01562 -13.1875
Q14.5 -2 17.7031 9.0625
Q20.9062 20.125 20.9062 31.3906
Q20.9062 42.6719 17.7031 53.6562
Q14.5 64.6562 8.01562 75.875" id="BitstreamVeraSans-Roman-29"/>
     <path d="
M9.42188 54.6875
L18.4062 54.6875
L18.4062 0
L9.42188 0
z

M9.42188 75.9844
L18.4062 75.9844
L18.4062 64.5938
L9.42188 64.5938
z
" id="BitstreamVeraSans-Roman-69"/>
     <path d="
M54.8906 33.0156
L54.8906 0
L45.9062 0
L45.9062 32.7188
Q45.9062 40.4844 42.875 44.3281
Q39.8438 48.1875 33.7969 48.1875
Q26.5156 48.1875 22.3125 43.5469
Q18.1094 38.9219 18.1094 30.9062
L18.1094 0
L9.07812 0
L9.07812 75.9844
L18.1094 75.9844
L18.1094 46.1875
Q21.3438 51.125 25.7031 53.5625
Q30.0781 56 35.7969 56
Q45.2188 56 50.0469 50.1719
Q54.8906 44.3438 54.8906 33.0156" id="BitstreamVeraSans-Roman-68"/>
     <path d="
M52 44.1875
Q55.375 50.25 60.0625 53.125
Q64.75 56 71.0938 56
Q79.6406 56 84.2812 50.0156
Q88.9219 44.0469 88.9219 33.0156
L88.9219 0
L79.8906 0
L79.8906 32.7188
Q79.8906 40.5781 77.0938 44.375
Q74.3125 48.1875 68.6094 48.1875
Q61.625 48.1875 57.5625 43.5469
Q53.5156 38.9219 53.5156 30.9062
L53.5156 0
L44.4844 0
L44.4844 32.7188
Q44.4844 40.625 41.7031 44.4062
Q38.9219 48.1875 33.1094 48.1875
Q26.2188 48.1875 22.1562 43.5312
Q18.1094 38.875 18.1094 30.9062
L18.1094 0
L9.07812 0
L9.07812 54.6875
L18.1094 54.6875
L18.1094 46.1875
Q21.1875 51.2188 25.4844 53.6094
Q29.7812 56 35.6875 56
Q41.6562 56 45.8281 52.9688
Q50 49.9531 52 44.1875" id="BitstreamVeraSans-Roman-6d"/>
     <path d="
M8.5 21.5781
L8.5 54.6875
L17.4844 54.6875
L17.4844 21.9219
Q17.4844 14.1562 20.5 10.2656
Q23.5312 6.39062 29.5938 6.39062
Q36.8594 6.39062 41.0781 11.0312
Q45.3125 15.6719 45.3125 23.6875
L45.3125 54.6875
L54.2969 54.6875
L54.2969 0
L45.3125 0
L45.3125 8.40625
Q42.0469 3.42188 37.7188 1
Q33.4062 -1.42188 27.6875 -1.42188
Q18.2656 -1.42188 13.375 4.4375
Q8.5 10.2969 8.5 21.5781" id="BitstreamVeraSans-Roman-75"/>
     <path d="
M41.1094 46.2969
Q39.5938 47.1719 37.8125 47.5781
Q36.0312 48 33.8906 48
Q26.2656 48 22.1875 43.0469
Q18.1094 38.0938 18.1094 28.8125
L18.1094 0
L9.07812 0
L9.07812 54.6875
L18.1094 54.6875
L18.1094 46.1875
Q20.9531 51.1719 25.4844 53.5781
Q30.0312 56 36.5312 56
Q37.4531 56 38.5781 55.875
Q39.7031 55.7656 41.0625 55.5156
z
" id="BitstreamVeraSans-Roman-72"/>
     <path d="
M48.7812 52.5938
L48.7812 44.1875
Q44.9688 46.2969 41.1406 47.3438
Q37.3125 48.3906 33.4062 48.3906
Q24.6562 48.3906 19.8125 42.8438
Q14.9844 37.3125 14.9844 27.2969
Q14.9844 17.2812 19.8125 11.7344
Q24.6562 6.20312 33.4062 6.20312
Q37.3125 6.20312 41.1406 7.25
Q44.9688 8.29688 48.7812 10.4062
L48.7812 2.09375
Q45.0156 0.34375 40.9844 -0.53125
Q36.9688 -1.42188 32.4219 -1.42188
Q20.0625 -1.42188 12.7812 6.34375
Q5.51562 14.1094 5.51562 27.2969
Q5.51562 40.6719 12.8594 48.3281
Q20.2188 56 33.0156 56
Q37.1562 56 41.1094 55.1406
Q45.0625 54.2969 48.7812 52.5938" id="BitstreamVeraSans-Roman-63"/>
    </defs>
    <g transform="translate(243.487177841 56.7121636029)scale(0.11 -0.11)">
     <use xlink:href="#BitstreamVeraSans-Roman-63"/>
     <use x="54.98046875" xlink:href="#BitstreamVeraSans-Roman-68"/>
     <use x="118.359375" xlink:href="#BitstreamVeraSans-Roman-72"/>
     <use x="159.47265625" xlink:href="#BitstreamVeraSans-Roman-5f"/>
     <use x="209.47265625" xlink:href="#BitstreamVeraSans-Roman-30"/>
     <use x="273.095703125" xlink:href="#BitstreamVeraSans-Roman-20"/>
     <use x="304.8828125" xlink:href="#BitstreamVeraSans-Roman-28"/>
     <use x="343.896484375" xlink:href="#BitstreamVeraSans-Roman-2e"/>
     <use x="375.68359375" xlink:href="#BitstreamVeraSans-Roman-2e"/>
     <use x="407.470703125" xlink:href="#BitstreamVeraSans-Roman-6d"/>
     <use x="504.8828125" xlink:href="#BitstreamVeraSans-Roman-69"/>
     <use x="532.666015625" xlink:href="#BitstreamVeraSans-Roman-6e"/>
     <use x="596.044921875" xlink:href="#BitstreamVeraSans-Roman-75"/>
     <use x="659.423828125" xlink:href="#BitstreamVeraSans-Roman-6d"/>
     <use x="756.8359375" xlink:href="#BitstreamVeraSans-Roman-5f"/>
     <use x="806.8359375" xlink:href="#BitstreamVeraSans-Roman-30"/>
     <use x="870.458984375" xlink:href="#BitstreamVeraSans-Roman-39"/>
     <use x="934.08203125" xlink:href="#BitstreamVeraSans-Roman-31"/>
     <use x="997.705078125" xlink:href="#BitstreamVeraSans-Roman-30"/>
     <use x="1061.328125" xlink:href="#BitstreamVeraSans-Roman-29"/>
    </g>
   </g>
   <g id="text_5">
    <!-- 0.0 -->
    <g transform="translate(474.429861818 74.9879264706)scale(0.08 -0.08)">
     <use xlink:href="#BitstreamVeraSans-Roman-30"/>
     <use x="63.623046875" xlink:href="#BitstreamVeraSans-Roman-2e"/>
     <use x="95.41015625" xlink:href="#BitstreamVeraSans-Roman-30"/>
    </g>
   </g>
   <g id="text_6">
    <!-- 1.0 -->
    <g transform="translate(602.00013202 74.9879264706)scale(0.08 -0.08)">
     <use xlink:href="#BitstreamVeraSans-Roman-31"/>
     <use x="63.623046875" xlink:href="#BitstreamVeraSans-Roman-2e"/>
     <use x="95.41015625" xlink:href="#BitstreamVeraSans-Roman-30"/>
    </g>
   </g>
   <g id="text_7">
    <!-- 1.89 -->
    <g transform="translate(715.89168 74.9879264706)scale(0.08 -0.08)">
     <use xlink:href="#BitstreamVeraSans-Roman-31"/>
     <use x="63.623046875" xlink:href="#BitstreamVeraSans-Roman-2e"/>
     <use x="95.41015625" xlink:href="#BitstreamVeraSans-Roman-38"/>
     <use x="159.033203125" xlink:href="#BitstreamVeraSans-Roman-39"/>
    </g>
   </g>
   <g id="text_8">
    <!-- chr_1 (..m_ancestor) -->
    <defs>
     <path d="
M56.2031 29.5938
L56.2031 25.2031
L14.8906 25.2031
Q15.4844 15.9219 20.4844 11.0625
Q25.4844 6.20312 34.4219 6.20312
Q39.5938 6.20312 44.4531 7.46875
Q49.3125 8.73438 54.1094 11.2812
L54.1094 2.78125
Q49.2656 0.734375 44.1875 -0.34375
Q39.1094 -1.42188 33.8906 -1.42188
Q20.7969 -1.42188 13.1562 6.1875
Q5.51562 13.8125 5.51562 26.8125
Q5.51562 40.2344 12.7656 48.1094
Q20.0156 56 32.3281 56
Q43.3594 56 49.7812 48.8906
Q56.2031 41.7969 56.2031 29.5938
M47.2188 32.2344
Q47.125 39.5938 43.0938 43.9844
Q39.0625 48.3906 32.4219 48.3906
Q24.9062 48.3906 20.3906 44.1406
Q15.875 39.8906 15.1875 32.1719
z
" id="BitstreamVeraSans-Roman-65"/>
     <path d="
M18.3125 70.2188
L18.3125 54.6875
L36.8125 54.6875
L36.8125 47.7031
L18.3125 47.7031
L18.3125 18.0156
Q18.3125 11.3281 20.1406 9.42188
Q21.9688 7.51562 27.5938 7.51562
L36.8125 7.51562
L36.8125 0
L27.5938 0
Q17.1875 0 13.2344 3.875
Q9.28125 7.76562 9.28125 18.0156
L9.28125 47.7031
L2.6875 47.7031
L2.6875 54.6875
L9.28125 54.6875
L9.28125 70.2188
z
" id="BitstreamVeraSans-Roman-74"/>
     <path d="
M30.6094 48.3906
Q23.3906 48.3906 19.1875 42.75
Q14.9844 37.1094 14.9844 27.2969
Q14.9844 17.4844 19.1562 11.8438
Q23.3438 6.20312 30.6094 6.20312
Q37.7969 6.20312 41.9844 11.8594
Q46.1875 17.5312 46.1875 27.2969
Q46.1875 37.0156 41.9844 42.7031
Q37.7969 48.3906 30.6094 48.3906
M30.6094 56
Q42.3281 56 49.0156 48.375
Q55.7188 40.7656 55.7188 27.2969
Q55.7188 13.875 49.0156 6.21875
Q42.3281 -1.42188 30.6094 -1.42188
Q18.8438 -1.42188 12.1719 6.21875
Q5.51562 13.875 5.51562 27.2969
Q5.51562 40.7656 12.1719 48.375
Q18.8438 56 30.6094 56" id="BitstreamVeraSans-Roman-6f"/>
     <path d="
M34.2812 27.4844
Q23.3906 27.4844 19.1875 25
Q14.9844 22.5156 14.9844 16.5
Q14.9844 11.7188 18.1406 8.90625
Q21.2969 6.10938 26.7031 6.10938
Q34.1875 6.10938 38.7031 11.4062
Q43.2188 16.7031 43.2188 25.4844
L43.2188 27.4844
z

M52.2031 31.2031
L52.2031 0
L43.2188 0
L43.2188 8.29688
Q40.1406 3.32812 35.5469 0.953125
Q30.9531 -1.42188 24.3125 -1.42188
Q15.9219 -1.42188 10.9531 3.29688
Q6 8.01562 6 15.9219
Q6 25.1406 12.1719 29.8281
Q18.3594 34.5156 30.6094 34.5156
L43.2188 34.5156
L43.2188 35.4062
Q43.2188 41.6094 39.1406 45
Q35.0625 48.3906 27.6875 48.3906
Q23 48.3906 18.5469 47.2656
Q14.1094 46.1406 10.0156 43.8906
L10.0156 52.2031
Q14.9375 54.1094 19.5781 55.0469
Q24.2188 56 28.6094 56
Q40.4844 56 46.3438 49.8438
Q52.2031 43.7031 52.2031 31.2031" id="BitstreamVeraSans-Roman-61"/>
     <path d="
M44.2812 53.0781
L44.2812 44.5781
Q40.4844 46.5312 36.375 47.5
Q32.2812 48.4844 27.875 48.4844
Q21.1875 48.4844 17.8438 46.4375
Q14.5 44.3906 14.5 40.2812
Q14.5 37.1562 16.8906 35.375
Q19.2812 33.5938 26.5156 31.9844
L29.5938 31.2969
Q39.1562 29.25 43.1875 25.5156
Q47.2188 21.7812 47.2188 15.0938
Q47.2188 7.46875 41.1875 3.01562
Q35.1562 -1.42188 24.6094 -1.42188
Q20.2188 -1.42188 15.4531 -0.5625
Q10.6875 0.296875 5.42188 2
L5.42188 11.2812
Q10.4062 8.6875 15.2344 7.39062
Q20.0625 6.10938 24.8125 6.10938
Q31.1562 6.10938 34.5625 8.28125
Q37.9844 10.4531 37.9844 14.4062
Q37.9844 18.0625 35.5156 20.0156
Q33.0625 21.9688 24.7031 23.7812
L21.5781 24.5156
Q13.2344 26.2656 9.51562 29.9062
Q5.8125 33.5469 5.8125 39.8906
Q5.8125 47.6094 11.2812 51.7969
Q16.75 56 26.8125 56
Q31.7812 56 36.1719 55.2656
Q40.5781 54.5469 44.2812 53.0781" id="BitstreamVeraSans-Roman-73"/>
    </defs>
    <g transform="translate(537.183312784 56.7121636029)scale(0.11 -0.11)">
     <use xlink:href="#BitstreamVeraSans-Roman-63"/>
     <use x="54.98046875" xlink:href="#BitstreamVeraSans-Roman-68"/>
     <use x="118.359375" xlink:href="#BitstreamVeraSans-Roman-72"/>
     <use x="159.47265625" xlink:href="#BitstreamVeraSans-Roman-5f"/>
     <use x="209.47265625" xlink:href="#BitstreamVeraSans-Roman-31"/>
     <use x="273.095703125" xlink:href="#BitstreamVeraSans-Roman-20"/>
     <use x="304.8828125" xlink:href="#BitstreamVeraSans-Roman-28"/>
     <use x="343.896484375" xlink:href="#BitstreamVeraSans-Roman-2e"/>
     <use x="375.68359375" xlink:href="#BitstreamVeraSans-Roman-2e"/>
     <use x="407.470703125" xlink:href="#BitstreamVeraSans-Roman-6d"/>
     <use x="504.8828125" xlink:href="#BitstreamVeraSans-Roman-5f"/>
     <use x="554.8828125" xlink:href="#BitstreamVeraSans-Roman-61"/>
     <use x="616.162109375" xlink:href="#BitstreamVeraSans-Roman-6e"/>
     <use x="679.541015625" xlink:href="#BitstreamVeraSans-Roman-63"/>
     <use x="734.521484375" xlink:href="#BitstreamVeraSans-Roman-65"/>
     <use x="796.044921875" xlink:href="#BitstreamVeraSans-Roman-73"/>
     <use x="848.14453125" xlink:href="#BitstreamVeraSans-Roman-74"/>
     <use x="887.353515625" xlink:href="#BitstreamVeraSans-Roman-6f"/>
     <use x="948.53515625" xlink:href="#BitstreamVeraSans-Roman-72"/>
     <use x="989.6484375" xlink:href="#BitstreamVeraSans-Roman-29"/>
    </g>
   </g>
   <g id="text_9">
    <!-- Genome, Mb -->
    <defs>
     <path d="
M59.5156 10.4062
L59.5156 29.9844
L43.4062 29.9844
L43.4062 38.0938
L69.2812 38.0938
L69.2812 6.78125
Q63.5781 2.73438 56.6875 0.65625
Q49.8125 -1.42188 42 -1.42188
Q24.9062 -1.42188 15.25 8.5625
Q5.60938 18.5625 5.60938 36.375
Q5.60938 54.25 15.25 64.2344
Q24.9062 74.2188 42 74.2188
Q49.125 74.2188 55.5469 72.4531
Q61.9688 70.7031 67.3906 67.2812
L67.3906 56.7812
Q61.9219 61.4219 55.7656 63.7656
Q49.6094 66.1094 42.8281 66.1094
Q29.4375 66.1094 22.7188 58.6406
Q16.0156 51.1719 16.0156 36.375
Q16.0156 21.625 22.7188 14.1562
Q29.4375 6.6875 42.8281 6.6875
Q48.0469 6.6875 52.1406 7.59375
Q56.25 8.5 59.5156 10.4062" id="BitstreamVeraSans-Roman-47"/>
     <path d="
M11.7188 12.4062
L22.0156 12.4062
L22.0156 4
L14.0156 -11.625
L7.71875 -11.625
L11.7188 4
z
" id="BitstreamVeraSans-Roman-2c"/>
     <path d="
M9.8125 72.9062
L24.5156 72.9062
L43.1094 23.2969
L61.8125 72.9062
L76.5156 72.9062
L76.5156 0
L66.8906 0
L66.8906 64.0156
L48.0938 14.0156
L38.1875 14.0156
L19.3906 64.0156
L19.3906 0
L9.8125 0
z
" id="BitstreamVeraSans-Roman-4d"/>
     <path d="
M48.6875 27.2969
Q48.6875 37.2031 44.6094 42.8438
Q40.5312 48.4844 33.4062 48.4844
Q26.2656 48.4844 22.1875 42.8438
Q18.1094 37.2031 18.1094 27.2969
Q18.1094 17.3906 22.1875 11.75
Q26.2656 6.10938 33.4062 6.10938
Q40.5312 6.10938 44.6094 11.75
Q48.6875 17.3906 48.6875 27.2969
M18.1094 46.3906
Q20.9531 51.2656 25.2656 53.625
Q29.5938 56 35.5938 56
Q45.5625 56 51.7812 48.0938
Q58.0156 40.1875 58.0156 27.2969
Q58.0156 14.4062 51.7812 6.48438
Q45.5625 -1.42188 35.5938 -1.42188
Q29.5938 -1.42188 25.2656 0.953125
Q20.9531 3.32812 18.1094 8.20312
L18.1094 0
L9.07812 0
L9.07812 75.9844
L18.1094 75.9844
z
" id="BitstreamVeraSans-Roman-62"/>
    </defs>
    <g transform="translate(413.738175 87.0556930147)scale(0.11 -0.11)">
     <use xlink:href="#BitstreamVeraSans-Roman-47"/>
     <use x="77.490234375" xlink:href="#BitstreamVeraSans-Roman-65"/>
     <use x="139.013671875" xlink:href="#BitstreamVeraSans-Roman-6e"/>
     <use x="202.392578125" xlink:href="#BitstreamVeraSans-Roman-6f"/>
     <use x="263.57421875" xlink:href="#BitstreamVeraSans-Roman-6d"/>
     <use x="360.986328125" xlink:href="#BitstreamVeraSans-Roman-65"/>
     <use x="422.509765625" xlink:href="#BitstreamVeraSans-Roman-2c"/>
     <use x="454.296875" xlink:href="#BitstreamVeraSans-Roman-20"/>
     <use x="486.083984375" xlink:href="#BitstreamVeraSans-Roman-4d"/>
     <use x="572.36328125" xlink:href="#BitstreamVeraSans-Roman-62"/>
    </g>
   </g>
   <g id="text_10">
    <!-- final.contigs -->
    <defs>
     <path d="
M45.4062 27.9844
Q45.4062 37.75 41.375 43.1094
Q37.3594 48.4844 30.0781 48.4844
Q22.8594 48.4844 18.8281 43.1094
Q14.7969 37.75 14.7969 27.9844
Q14.7969 18.2656 18.8281 12.8906
Q22.8594 7.51562 30.0781 7.51562
Q37.3594 7.51562 41.375 12.8906
Q45.4062 18.2656 45.4062 27.9844
M54.3906 6.78125
Q54.3906 -7.17188 48.1875 -13.9844
Q42 -20.7969 29.2031 -20.7969
Q24.4688 -20.7969 20.2656 -20.0938
Q16.0625 -19.3906 12.1094 -17.9219
L12.1094 -9.1875
Q16.0625 -11.3281 19.9219 -12.3438
Q23.7812 -13.375 27.7812 -13.375
Q36.625 -13.375 41.0156 -8.76562
Q45.4062 -4.15625 45.4062 5.17188
L45.4062 9.625
Q42.625 4.78125 38.2812 2.39062
Q33.9375 0 27.875 0
Q17.8281 0 11.6719 7.65625
Q5.51562 15.3281 5.51562 27.9844
Q5.51562 40.6719 11.6719 48.3281
Q17.8281 56 27.875 56
Q33.9375 56 38.2812 53.6094
Q42.625 51.2188 45.4062 46.3906
L45.4062 54.6875
L54.3906 54.6875
z
" id="BitstreamVeraSans-Roman-67"/>
     <path d="
M37.1094 75.9844
L37.1094 68.5
L28.5156 68.5
Q23.6875 68.5 21.7969 66.5469
Q19.9219 64.5938 19.9219 59.5156
L19.9219 54.6875
L34.7188 54.6875
L34.7188 47.7031
L19.9219 47.7031
L19.9219 0
L10.8906 0
L10.8906 47.7031
L2.29688 47.7031
L2.29688 54.6875
L10.8906 54.6875
L10.8906 58.5
Q10.8906 67.625 15.1406 71.7969
Q19.3906 75.9844 28.6094 75.9844
z
" id="BitstreamVeraSans-Roman-66"/>
     <path d="
M9.42188 75.9844
L18.4062 75.9844
L18.4062 0
L9.42188 0
z
" id="BitstreamVeraSans-Roman-6c"/>
    </defs>
    <g transform="translate(105.856725 101.259669118)scale(0.12 -0.12)">
     <use xlink:href="#BitstreamVeraSans-Roman-66"/>
     <use x="35.205078125" xlink:href="#BitstreamVeraSans-Roman-69"/>
     <use x="62.98828125" xlink:href="#BitstreamVeraSans-Roman-6e"/>
     <use x="126.3671875" xlink:href="#BitstreamVeraSans-Roman-61"/>
     <use x="187.646484375" xlink:href="#BitstreamVeraSans-Roman-6c"/>
     <use x="215.4296875" xlink:href="#BitstreamVeraSans-Roman-2e"/>
     <use x="247.216796875" xlink:href="#BitstreamVeraSans-Roman-63"/>
     <use x="302.197265625" xlink:href="#BitstreamVeraSans-Roman-6f"/>
     <use x="363.37890625" xlink:href="#BitstreamVeraSans-Roman-6e"/>
     <use x="426.7578125" xlink:href="#BitstreamVeraSans-Roman-74"/>
     <use x="465.966796875" xlink:href="#BitstreamVeraSans-Roman-69"/>
     <use x="493.75" xlink:href="#BitstreamVeraSans-Roman-67"/>
     <use x="557.2265625" xlink:href="#BitstreamVeraSans-Roman-73"/>
    </g>
   </g>
  </g>
 </g>
 <defs>
  <clipPath id="p6a4ae4428d">
   <rect height="117.458823529" width="781.2" x="0.0" y="0.0"/>
  </clipPath>
 </defs>
</svg>
